<?xml version="1.0" encoding="UTF-8"?>
<svg xmlns="http://www.w3.org/2000/svg" viewBox="0 0 148 235.5">
  <defs>
    <style>
      .cls-1-1-1 {
        fill: none;
      }

      .cls-1-1-1, .cls-2-1-1 {
        stroke: #231815;
        stroke-miterlimit: 10;
      }

      .cls-3, .cls-4-1-1, .cls-5-1-1, .cls-6-1-1, .cls-7-1-1, .cls-8-1-1, .cls-9-1-1 {
        stroke-width: 0px;
      }

      .cls-3, .cls-2-1-1, .cls-10-1-1 {
        fill: #231815;
      }

      .cls-11-1-1 {
        letter-spacing: .25em;
      }

      .cls-4-1-1 {
        opacity: .2;
      }

      .cls-4-1-1, .cls-9-1-1 {
        fill: #7a1a24;
      }

      .cls-5-1-1 {
        fill: #2d3e6a;
      }

      .cls-6-1-1 {
        fill: #008242;
      }

      .cls-7-1-1, .cls-12-1-1, .cls-13-1-1 {
        fill: #fff;
      }

      .cls-10-1-1 {
        font-size: 4.93px;
      }

      .cls-10-1-1, .cls-12-1-1, .cls-13-1-1 {
        font-family: KozGoPr6N-Regular-90ms-RKSJ-H, 'Kozuka Gothic Pr6N';
      }

      .cls-12-1-1 {
        font-size: 6px;
      }

      .cls-8-1-1 {
        fill: #ba1f21;
      }

      .cls-14-1-1 {
        letter-spacing: -.2em;
      }

      .cls-15-1-1 {
        letter-spacing: -.17em;
      }

      .cls-13-1-1 {
        font-size: 7px;
      }
    </style>
  </defs>
  <g id="_1102" data-name="1102">
    <rect class="cls-9-1-1" x="12.08" y="7.26" width="43.37" height="104.78"/>
    <text class="cls-13-1-1" transform="translate(17.11 55.41)"><tspan x="0" y="0">10</tspan><tspan class="cls-11-1-1" x="7.71" y="0">0</tspan><tspan x="13.32" y="0">周年</tspan><tspan x="3.16" y="12.25">ホール</tspan></text>
  </g>
  <g id="_10128" data-name="10128">
    <rect class="cls-4-1-1" x="121.49" y="130" width="22.89" height="24.03"/>
  </g>
  <g id="_10115" data-name="10115">
    <rect class="cls-9-1-1" x="55.83" y="55.03" width="27.12" height="26.69"/>
    <text class="cls-12-1-1" transform="translate(57.3 70.22)"><tspan x="0" y="0">1</tspan><tspan class="cls-14-1-1" x="3.31" y="0">０</tspan><tspan class="cls-15-1-1" x="8.12" y="0">１１</tspan><tspan x="18.04" y="0">５</tspan></text>
  </g>
  <g id="_レイヤー_1" data-name="レイヤー 1">
    <rect class="cls-4-1-1" x="121.49" y="101" width="22.53" height="29.15"/>
    <rect class="cls-4-1-1" x="56.45" y="27" width="26.55" height="26.71"/>
    <rect class="cls-4-1-1" x="63.39" y="124.15" width="16.12" height="32.93"/>
    <rect class="cls-4-1-1" x="55.39" y="216.11" width="20.7" height="17.56"/>
    <polygon class="cls-4-1-1" points="95.24 197.03 95.24 208.07 76.08 208.07 76.08 233.67 144.02 233.67 144.02 197.03 95.24 197.03"/>
    <rect class="cls-4-1-1" x="120.72" y="172.95" width="23.3" height="24.12"/>
    <polygon class="cls-4-1-1" points="89 4.36 89 61.08 116.07 61.06 116.07 100.63 144.02 100.63 144.02 4.34 89 4.36"/>
    <rect class="cls-1-1-1" x="121.49" y="100.63" width="22.53" height="9.13"/>
    <polyline class="cls-1-1-1" points="144.02 195.88 144.02 4.34 84.78 4.34"/>
    <polygon class="cls-2-1-1" points="89.83 148.54 89.83 147.35 116.07 147.35 116.07 157.08 96.06 157.08 96.06 155.01 107.89 155.01 107.89 147.35 91.5 147.35 91.5 148.54 91.5 150.67 91.5 155.01 93.08 155.01 93.08 157.08 89.83 157.08 89.83 150.67 89.83 148.54"/>
    <g>
      <polyline class="cls-1-1-1" points="95.4 138.61 98.58 138.61 98.58 147.35 89.83 147.35 89.83 138.61 92.74 138.61"/>
      <polyline class="cls-1-1-1" points="104.15 138.61 107.32 138.61 107.32 147.35 98.58 147.35 98.58 138.61 101.49 138.61"/>
      <polyline class="cls-1-1-1" points="112.9 138.61 116.07 138.61 116.07 147.35 107.32 147.35 107.32 138.61 110.24 138.61"/>
    </g>
    <line class="cls-1-1-1" x1="46.74" y1="157.72" x2="61.88" y2="157.72"/>
    <line class="cls-1-1-1" x1="46.97" y1="161.48" x2="61.88" y2="161.48"/>
    <line class="cls-1-1-1" x1="46.74" y1="162.38" x2="61.88" y2="162.38"/>
    <line class="cls-1-1-1" x1="46.97" y1="166.14" x2="61.88" y2="166.14"/>
    <line class="cls-1-1-1" x1="66.03" y1="168.19" x2="44.75" y2="168.19"/>
    <line class="cls-1-1-1" x1="64.96" y1="173.25" x2="64.96" y2="168.19"/>
    <line class="cls-1-1-1" x1="44.75" y1="173.25" x2="66.03" y2="173.25"/>
    <line class="cls-1-1-1" x1="45.89" y1="168.19" x2="45.89" y2="173.25"/>
    <polyline class="cls-1-1-1" points="50.72 145.9 50.72 143.36 57.71 143.36 57.71 150.35 50.72 150.35 50.72 148.02"/>
    <polyline class="cls-1-1-1" points="50.72 138.98 50.72 136.44 57.71 136.44 57.71 143.43 50.72 143.43 50.72 141.1"/>
    <line class="cls-1-1-1" x1="44.61" y1="136.44" x2="63.39" y2="136.44"/>
    <polyline class="cls-1-1-1" points="50.72 150.35 50.72 157.08 63.39 157.08"/>
    <g>
      <rect class="cls-7-1-1" x="52.16" y="167.18" width="7.09" height="7.09"/>
      <g>
        <path class="cls-3-1-1" d="m57.29,167.76c0,.19-.15.34-.34.34s-.34-.15-.34-.34.15-.34.34-.34.34.15.34.34Z"/>
        <polygon class="cls-3" points="58.94 171.35 57.75 171.35 57.75 171.78 56.68 171.78 56.68 172.2 55.65 172.2 55.65 172.62 54.61 172.62 54.61 173.04 53.57 173.04 53.57 173.47 52.91 173.47 52.91 174.01 54.17 174.01 54.17 173.57 55.2 173.57 55.2 173.15 56.24 173.15 56.24 172.72 57.27 172.72 57.27 172.3 58.31 172.3 58.31 171.89 58.94 171.89 58.94 171.35"/>
        <path class="cls-3" d="m57.36,169.81c-.24-.16-.49-.32-.52-.34.09-.42.16-.8.2-1.03,0,0,.03-.21-.14-.24-.23-.05-.56.13-.93.41-.04.03-.1.08-.12.16-.02.07-.11.53-.15.73-.02.07.03.15.1.16.07.02.14-.03.16-.1.05-.16.15-.5.17-.53.02-.03.16-.15.16-.15l-.28,2.83c0,.08.07.15.15.16.09,0,.17-.06.18-.15,0,0,.18-.82.36-1.67l.31.14-.17.82c-.03.08.02.17.1.19.08.03.17-.02.19-.1,0,0,.29-.7.33-.82.04-.13.14-.33-.11-.5Z"/>
        <g>
          <path class="cls-3" d="m54.44,168.7c0,.19-.15.34-.34.34s-.34-.15-.34-.34.15-.34.34-.34.34.15.34.34Z"/>
          <path class="cls-3" d="m55.19,170.61s-.05-.37-.1-.59c-.01-.06-.03-.1-.07-.17-.13-.22-.32-.49-.49-.58-.27-.14-.54-.06-.66.16-.13.23-.3.61-.77.91-.06.03-.11.09-.08.16.02.07.09.11.16.08,0,0,.02,0,.02,0,.1-.04.51-.23.64-.45l-.11,2.54c-.01.1.06.18.15.19.09,0,.17-.06.18-.15l.52-2.81s.17.14.21.25c.03.08.09.3.13.51,0,0,0,0,0,0,.01.08.08.12.15.11.07,0,.12-.08.11-.15Z"/>
          <path class="cls-3" d="m55.26,171.78l-.94-.76-.08.55.82.47c.07.05.17.04.23-.03.05-.07.04-.17-.03-.23Z"/>
        </g>
      </g>
    </g>
    <g>
      <rect class="cls-7-1-1" x="50.91" y="158.24" width="7.09" height="7.09"/>
      <g>
        <g>
          <path class="cls-3" d="m57.03,163.86v-1.14s0,0,0,0v-.18h-.18s0,0,0,0h-1.14c-.1,0-.18.08-.18.18s.08.18.18.18h.7s-.79.79-.79.79c-.07.07-.07.19,0,.26.07.07.19.07.26,0l.79-.79v.7c0,.05.02.1.05.13.03.03.08.05.13.05.1,0,.18-.08.18-.18Z"/>
          <g>
            <path class="cls-3" d="m56.76,159.64h-1.09c-.09,0-.21.05-.28.11l-2.57,2.56c-.06.06-.19.11-.28.11h-.4c-.43,0-.79.35-.79.79s.35.79.79.79h1.09c.09,0,.21-.05.28-.11l2.57-2.56c.06-.06.19-.11.28-.11h.4c.43,0,.79-.35.79-.79s-.35-.79-.79-.79Zm0,1.22h-.71l-2.8,2.79h-1.1c-.24,0-.43-.19-.43-.43s.19-.43.43-.43h.71l2.8-2.79h1.1c.24,0,.43.19.43.43s-.19.43-.43.43Z"/>
            <path class="cls-3" d="m54.29,159.27c0,.18-.14.32-.32.32s-.32-.14-.32-.32.14-.32.32-.32.32.14.32.32Z"/>
            <path class="cls-3" d="m54.51,160.23c.06-.5-.3-.54-.53-.54s-.59.05-.53.54c.06.47.11,1.33.12,1.41l.88-.83c.02-.21.04-.42.06-.58Z"/>
          </g>
        </g>
        <path class="cls-3" d="m54.95,163.29v1.14s0,0,0,0v.18h.18s0,0,0,0h1.14c.1,0,.18-.08.18-.18s-.08-.18-.18-.18h-.7s.79-.79.79-.79c.07-.07.07-.19,0-.26-.07-.07-.19-.07-.26,0l-.79.79v-.7c0-.05-.02-.1-.05-.13-.03-.03-.08-.05-.13-.05-.1,0-.18.08-.18.18Z"/>
      </g>
    </g>
    <g>
      <polyline class="cls-1-1-1" points="110.5 127.62 107.32 127.62 107.32 118.87 116.07 118.87 116.07 127.62 113.16 127.62"/>
      <polyline class="cls-1-1-1" points="101.75 127.62 98.58 127.62 98.58 118.87 107.32 118.87 107.32 127.62 104.41 127.62"/>
      <polyline class="cls-1-1-1" points="93 127.62 89.83 127.62 89.83 118.87 98.58 118.87 98.58 127.62 95.66 127.62"/>
    </g>
    <polyline class="cls-1-1-1" points="116.07 81.71 116.07 101.59 88.99 101.59 88.99 81.71 105.84 81.71"/>
    <polyline class="cls-1-1-1" points="96.98 72.33 109.94 72.33 109.94 64.09 94.2 64.09 94.2 72.33 88.99 72.33 88.99 61.06 116.07 61.06 116.07 118.87 92.41 118.87"/>
    <line class="cls-1-1-1" x1="109.94" y1="72.33" x2="116.07" y2="72.33"/>
    <polyline class="cls-1-1-1" points="105.84 74.74 105.84 72.33 116.07 72.33 116.07 83.15 105.84 83.15 105.84 77.74"/>
    <g>
      <g>
        <path class="cls-3" d="m110.35,77.54c0,.16-.13.29-.29.29s-.3-.13-.3-.29.13-.29.3-.29.29.13.29.29Z"/>
        <path class="cls-3" d="m110.06,77.9c-.21,0-.7.02-.7.43v.97c0,.06.05.12.11.12.06,0,.12-.05.12-.11l.05-.59.06,2.2c0,.08.07.15.15.15s.15-.07.15-.15l.06-1.35.06,1.35c0,.08.07.15.15.15s.15-.07.15-.15l.06-2.2.05.59c0,.06.06.11.12.11.06,0,.11-.06.11-.12v-.97c0-.41-.49-.43-.7-.43Z"/>
      </g>
      <g>
        <path class="cls-3" d="m112.15,77.54c0,.16-.13.29-.29.29s-.3-.13-.3-.29.13-.29.3-.29.29.13.29.29Z"/>
        <path class="cls-3" d="m111.86,77.9c-.21,0-.7.02-.7.43v.97c0,.06.05.12.11.12.06,0,.12-.05.12-.11l.05-.59.06,2.2c0,.08.07.15.15.15s.15-.07.15-.15l.06-1.35.06,1.35c0,.08.07.15.15.15s.15-.07.15-.15l.06-2.2.05.59c0,.06.06.11.12.11.06,0,.11-.06.11-.12v-.97c0-.41-.49-.43-.7-.43Z"/>
      </g>
      <path class="cls-3" d="m112.89,81.28h-3.86c-.3,0-.54-.24-.54-.54v-4.14c0-.3.24-.54.54-.54h3.86c.3,0,.54.24.54.54v4.14c0,.3-.24.54-.54.54Zm-3.86-4.87c-.11,0-.2.09-.2.2v4.14c0,.11.09.2.2.2h3.86c.11,0,.2-.09.2-.2v-4.14c0-.11-.09-.2-.2-.2h-3.86Z"/>
      <path class="cls-3" d="m112.7,74.97l-.66-.66h0s-.11-.11-.11-.11l-.11.11h0s-.66.66-.66.66c-.06.06-.06.15,0,.21.06.06.15.06.21,0l.4-.4v.91c0,.08.07.15.15.15s.15-.07.15-.15v-.91s.4.4.4.4c.03.03.07.04.11.04s.08-.01.11-.04c.06-.06.06-.15,0-.21Z"/>
      <path class="cls-3" d="m110.82,74.92c-.06-.06-.15-.06-.21,0l-.4.4v-.91c0-.08-.07-.15-.15-.15s-.15.07-.15.15v.91s-.4-.4-.4-.4c-.06-.06-.15-.06-.21,0-.06.06-.06.15,0,.21l.66.66h0s.11.11.11.11l.11-.11h0s.66-.66.66-.66c.06-.06.06-.15,0-.21Z"/>
    </g>
    <g>
      <g>
        <path class="cls-3" d="m102.37,123.04c0,.16-.13.3-.3.3s-.3-.13-.3-.3.13-.3.3-.3.3.13.3.3Z"/>
        <path class="cls-3" d="m102.08,123.41c-.21,0-.7.02-.7.43v.97c0,.06.05.12.11.12.06,0,.12-.05.12-.11l.05-.59.06,2.2c0,.08.07.15.15.15s.15-.07.15-.15l.06-1.35.06,1.35c0,.08.07.15.15.15s.15-.07.15-.15l.06-2.2.05.59c0,.06.06.11.12.11.06,0,.11-.06.11-.12v-.97c0-.41-.49-.43-.7-.43Z"/>
      </g>
      <g>
        <path class="cls-3" d="m104.17,123.04c0,.16-.13.3-.3.3s-.3-.13-.3-.3.13-.3.3-.3.3.13.3.3Z"/>
        <path class="cls-3" d="m103.88,123.41c-.21,0-.7.02-.7.43v.97c0,.06.05.12.11.12.06,0,.12-.05.12-.11l.05-.59.06,2.2c0,.08.07.15.15.15s.15-.07.15-.15l.06-1.35.06,1.35c0,.08.07.15.15.15s.15-.07.15-.15l.06-2.2.05.59c0,.06.06.11.12.11.06,0,.11-.06.11-.12v-.97c0-.41-.49-.43-.7-.43Z"/>
      </g>
      <path class="cls-3" d="m104.91,126.79h-3.87c-.3,0-.54-.24-.54-.54v-4.14c0-.3.24-.54.54-.54h3.87c.3,0,.54.24.54.54v4.14c0,.3-.24.54-.54.54Zm-3.87-4.88c-.11,0-.2.09-.2.2v4.14c0,.11.09.2.2.2h3.87c.11,0,.2-.09.2-.2v-4.14c0-.11-.09-.2-.2-.2h-3.87Z"/>
      <path class="cls-3" d="m104.72,120.47l-.66-.66h0s-.11-.11-.11-.11l-.11.11h0s-.66.66-.66.66c-.06.06-.06.15,0,.21.06.06.15.06.21,0l.4-.4v.91c0,.08.07.15.15.15s.15-.07.15-.15v-.91s.4.4.4.4c.03.03.07.04.11.04s.08-.01.11-.04c.06-.06.06-.15,0-.21Z"/>
      <path class="cls-3" d="m102.84,120.42c-.06-.06-.15-.06-.21,0l-.4.4v-.91c0-.08-.07-.15-.15-.15s-.15.07-.15.15v.91s-.4-.4-.4-.4c-.06-.06-.15-.06-.21,0-.06.06-.06.15,0,.21l.66.66h0s.11.11.11.11l.11-.11h0s.66-.66.66-.66c.06-.06.06-.15,0-.21Z"/>
    </g>
    <g>
      <g>
        <path class="cls-3" d="m111.48,142.74c0,.16-.13.3-.3.3s-.3-.13-.3-.3.13-.3.3-.3.3.13.3.3Z"/>
        <path class="cls-3" d="m111.19,143.11c-.21,0-.7.02-.7.43v.97c0,.06.05.12.11.12.06,0,.12-.05.12-.11l.05-.59.06,2.2c0,.08.07.15.15.15s.15-.07.15-.15l.06-1.35.06,1.35c0,.08.07.15.15.15s.15-.07.15-.15l.06-2.2.05.59c0,.06.06.11.12.11.06,0,.11-.06.11-.12v-.97c0-.41-.49-.43-.7-.43Z"/>
      </g>
      <g>
        <path class="cls-3" d="m113.29,142.74c0,.16-.13.3-.3.3s-.3-.13-.3-.3.13-.3.3-.3.3.13.3.3Z"/>
        <path class="cls-3" d="m112.99,143.11c-.21,0-.7.02-.7.43v.97c0,.06.05.12.11.12.06,0,.12-.05.12-.11l.05-.59.06,2.2c0,.08.07.15.15.15s.15-.07.15-.15l.06-1.35.06,1.35c0,.08.07.15.15.15s.15-.07.15-.15l.06-2.2.05.59c0,.06.06.11.12.11.06,0,.11-.06.11-.12v-.97c0-.41-.49-.43-.7-.43Z"/>
      </g>
      <path class="cls-3" d="m114.02,146.49h-3.87c-.3,0-.54-.24-.54-.54v-4.14c0-.3.24-.54.54-.54h3.87c.3,0,.54.24.54.54v4.14c0,.3-.24.54-.54.54Zm-3.87-4.88c-.11,0-.2.09-.2.2v4.14c0,.11.09.2.2.2h3.87c.11,0,.2-.09.2-.2v-4.14c0-.11-.09-.2-.2-.2h-3.87Z"/>
      <path class="cls-3" d="m113.83,140.17l-.66-.66h0s-.11-.11-.11-.11l-.11.11h0s-.66.66-.66.66c-.06.06-.06.15,0,.21.06.06.15.06.21,0l.4-.4v.91c0,.08.07.15.15.15s.15-.07.15-.15v-.91s.4.4.4.4c.03.03.07.04.11.04s.08-.01.11-.04c.06-.06.06-.15,0-.21Z"/>
      <path class="cls-3" d="m111.95,140.12c-.06-.06-.15-.06-.21,0l-.4.4v-.91c0-.08-.07-.15-.15-.15s-.15.07-.15.15v.91s-.4-.4-.4-.4c-.06-.06-.15-.06-.21,0-.06.06-.06.15,0,.21l.66.66h0s.11.11.11.11l.11-.11h0s.66-.66.66-.66c.06-.06.06-.15,0-.21Z"/>
    </g>
    <g>
      <g>
        <path class="cls-3" d="m53.72,146.72c0,.13-.11.24-.24.24s-.24-.11-.24-.24.11-.24.24-.24.24.11.24.24Z"/>
        <path class="cls-3" d="m53.48,147.02c-.17,0-.57.02-.57.35v.79c0,.05.04.1.09.1.05,0,.1-.04.1-.09l.04-.48.05,1.78c0,.07.05.12.12.12s.12-.05.12-.12l.05-1.1.05,1.1c0,.07.05.12.12.12s.12-.05.12-.12l.05-1.78.04.48c0,.05.05.09.1.09.05,0,.09-.05.09-.1v-.79c0-.33-.4-.35-.57-.35Z"/>
      </g>
      <g>
        <path class="cls-3" d="m55.18,146.72c0,.13-.11.24-.24.24s-.24-.11-.24-.24.11-.24.24-.24.24.11.24.24Z"/>
        <path class="cls-3" d="m54.94,147.02c-.17,0-.57.02-.57.35v.79c0,.05.04.1.09.1.05,0,.1-.04.1-.09l.04-.48.05,1.78c0,.07.05.12.12.12s.12-.05.12-.12l.05-1.1.05,1.1c0,.07.05.12.12.12s.12-.05.12-.12l.05-1.78.04.48c0,.05.05.09.1.09.05,0,.09-.05.09-.1v-.79c0-.33-.4-.35-.57-.35Z"/>
      </g>
      <path class="cls-3" d="m55.78,149.76h-3.13c-.24,0-.44-.2-.44-.44v-3.36c0-.24.2-.44.44-.44h3.13c.24,0,.44.2.44.44v3.36c0,.24-.2.44-.44.44Zm-3.13-3.95c-.09,0-.16.07-.16.16v3.36c0,.09.07.16.16.16h3.13c.09,0,.16-.07.16-.16v-3.36c0-.09-.07-.16-.16-.16h-3.13Z"/>
      <path class="cls-3" d="m55.63,144.64l-.54-.54h0s-.09-.09-.09-.09l-.09.09h0s-.54.54-.54.54c-.05.05-.05.12,0,.17.05.05.12.05.17,0l.33-.33v.74c0,.07.05.12.12.12s.12-.05.12-.12v-.74s.33.33.33.33c.02.02.05.04.09.04s.06-.01.09-.04c.05-.05.05-.12,0-.17Z"/>
      <path class="cls-3" d="m54.1,144.6s-.12-.05-.17,0l-.33.33v-.74c0-.07-.05-.12-.12-.12s-.12.05-.12.12v.74s-.33-.33-.33-.33c-.05-.05-.12-.05-.17,0-.05.05-.05.12,0,.17l.54.54h0s.09.09.09.09l.09-.09h0s.54-.54.54-.54c.05-.05.05-.12,0-.17Z"/>
    </g>
    <g>
      <g>
        <path class="cls-3" d="m53.72,139.77c0,.13-.11.24-.24.24s-.24-.11-.24-.24.11-.24.24-.24.24.11.24.24Z"/>
        <path class="cls-3" d="m53.48,140.07c-.17,0-.57.02-.57.35v.79c0,.05.04.1.09.1.05,0,.1-.04.1-.09l.04-.48.05,1.78c0,.07.05.12.12.12s.12-.05.12-.12l.05-1.1.05,1.1c0,.07.05.12.12.12s.12-.05.12-.12l.05-1.78.04.48c0,.05.05.09.1.09.05,0,.09-.05.09-.1v-.79c0-.33-.4-.35-.57-.35Z"/>
      </g>
      <g>
        <path class="cls-3" d="m55.18,139.77c0,.13-.11.24-.24.24s-.24-.11-.24-.24.11-.24.24-.24.24.11.24.24Z"/>
        <path class="cls-3" d="m54.94,140.07c-.17,0-.57.02-.57.35v.79c0,.05.04.1.09.1.05,0,.1-.04.1-.09l.04-.48.05,1.78c0,.07.05.12.12.12s.12-.05.12-.12l.05-1.1.05,1.1c0,.07.05.12.12.12s.12-.05.12-.12l.05-1.78.04.48c0,.05.05.09.1.09.05,0,.09-.05.09-.1v-.79c0-.33-.4-.35-.57-.35Z"/>
      </g>
      <path class="cls-3" d="m55.78,142.8h-3.13c-.24,0-.44-.2-.44-.44v-3.36c0-.24.2-.44.44-.44h3.13c.24,0,.44.2.44.44v3.36c0,.24-.2.44-.44.44Zm-3.13-3.95c-.09,0-.16.07-.16.16v3.36c0,.09.07.16.16.16h3.13c.09,0,.16-.07.16-.16v-3.36c0-.09-.07-.16-.16-.16h-3.13Z"/>
      <path class="cls-3" d="m55.63,137.68l-.54-.54h0s-.09-.09-.09-.09l-.09.09h0s-.54.54-.54.54c-.05.05-.05.12,0,.17.05.05.12.05.17,0l.33-.33v.74c0,.07.05.12.12.12s.12-.05.12-.12v-.74s.33.33.33.33c.02.02.05.04.09.04s.06-.01.09-.04c.05-.05.05-.12,0-.17Z"/>
      <path class="cls-3" d="m54.1,137.64s-.12-.05-.17,0l-.33.33v-.74c0-.07-.05-.12-.12-.12s-.12.05-.12.12v.74s-.33-.33-.33-.33c-.05-.05-.12-.05-.17,0-.05.05-.05.12,0,.17l.54.54h0s.09.09.09.09l.09-.09h0s.54-.54.54-.54c.05-.05.05-.12,0-.17Z"/>
    </g>
    <polygon class="cls-3" points="109.99 60.96 109.99 61.09 94.2 61.09 94.2 60.96 88.99 60.96 88.99 72.23 94.2 72.23 94.2 63.99 109.99 63.99 109.99 72.23 116.07 72.23 116.07 60.96 109.99 60.96"/>
    <g>
      <path class="cls-8-1-1" d="m93.37,109.8c.36,0,.65-.29.65-.65s-.29-.65-.65-.65-.65.29-.65.65.29.65.65.65Z"/>
      <path class="cls-8-1-1" d="m95.24,112.93l-.51-1.89c-.21-.87-.89-1-1.35-1s-1.14.13-1.35,1l-.51,1.89c-.05.13.02.28.15.33.13.05.28-.02.33-.15l.51-1.44.13.66-.64,2.02h.94s.05.63.05.63l.07,1.7c0,.18.15.33.33.33s.33-.15.33-.33l.07-1.7.05-.63h.94s-.64-2.02-.64-2.02l.13-.66.51,1.44c.05.13.2.2.33.15.13-.05.2-.2.15-.33Z"/>
    </g>
    <g>
      <path class="cls-5-1-1" d="m110.15,109.15c0,.36-.29.65-.65.65s-.65-.29-.65-.65.29-.65.65-.65.65.29.65.65Z"/>
      <path class="cls-5-1-1" d="m109.5,110.01c-.46,0-1.55.04-1.55.94v2.15c0,.14.1.26.24.27.14,0,.26-.1.27-.24l.12-1.3.13,4.85c0,.18.15.33.33.33s.33-.15.33-.33l.13-2.98.13,2.98c0,.18.15.33.33.33s.33-.15.33-.33l.13-4.85.12,1.3c0,.14.13.25.27.24s.25-.13.24-.27v-2.15c0-.9-1.09-.94-1.55-.94Z"/>
    </g>
    <g>
      <rect class="cls-7-1-1" x="95.63" y="147.61" width="7.07" height="7.07"/>
      <g>
        <path class="cls-3" d="m100.75,148.2c0,.18-.15.33-.33.33s-.33-.15-.33-.33.15-.33.33-.33.33.15.33.33Z"/>
        <polygon class="cls-3" points="102.4 151.78 101.21 151.78 101.21 152.21 100.14 152.21 100.14 152.63 99.1 152.63 99.1 153.05 98.07 153.05 98.07 153.47 97.04 153.47 97.04 153.9 96.38 153.9 96.38 154.44 97.64 154.44 97.64 154 98.66 154 98.66 153.58 99.7 153.58 99.7 153.15 100.73 153.15 100.73 152.73 101.77 152.73 101.77 152.32 102.4 152.32 102.4 151.78"/>
        <path class="cls-3" d="m100.82,150.25c-.24-.16-.48-.32-.52-.34.09-.42.16-.8.2-1.02,0,0,.03-.21-.14-.24-.23-.05-.56.13-.93.41-.04.03-.1.08-.12.16-.02.07-.11.53-.15.73-.02.07.03.15.1.16.07.02.14-.03.16-.1.05-.16.15-.5.17-.53.02-.03.16-.15.16-.15l-.28,2.83c0,.08.07.15.15.16.09,0,.17-.06.18-.15,0,0,.18-.82.36-1.66l.31.14-.17.82c-.03.08.02.17.1.19.08.03.17-.02.19-.1,0,0,.29-.69.32-.82.04-.13.14-.33-.11-.5Z"/>
        <g>
          <path class="cls-3" d="m97.9,149.14c0,.18-.15.33-.33.33s-.33-.15-.33-.33.15-.33.33-.33.33.15.33.33Z"/>
          <path class="cls-3" d="m98.65,151.04s-.05-.37-.1-.59c-.01-.06-.03-.1-.07-.17-.13-.22-.31-.49-.49-.58-.27-.14-.54-.06-.66.16-.13.23-.3.61-.77.91-.06.03-.11.09-.08.16.02.07.09.11.16.08,0,0,.02,0,.02,0,.1-.04.5-.23.64-.45l-.11,2.54c-.01.1.06.18.15.19.09,0,.17-.06.18-.15l.52-2.81s.17.14.21.25c.03.08.09.3.13.5,0,0,0,0,0,0,.01.07.08.12.15.11.07,0,.12-.08.11-.15Z"/>
          <path class="cls-3" d="m98.72,152.21l-.94-.76-.08.54.82.47c.07.05.17.04.23-.03.05-.07.04-.17-.03-.23Z"/>
        </g>
      </g>
    </g>
    <g>
      <rect class="cls-7-1-1" x="96.67" y="65.83" width="7.09" height="7.09"/>
      <g>
        <path class="cls-3" d="m101.8,66.42c0,.19-.15.34-.34.34s-.34-.15-.34-.34.15-.34.34-.34.34.15.34.34Z"/>
        <polygon class="cls-3" points="103.45 70.01 102.25 70.01 102.25 70.43 101.19 70.43 101.19 70.85 100.15 70.85 100.15 71.28 99.11 71.28 99.11 71.7 98.08 71.7 98.08 72.12 97.42 72.12 97.42 72.67 98.68 72.67 98.68 72.22 99.71 72.22 99.71 71.8 100.74 71.8 100.74 71.38 101.78 71.38 101.78 70.96 102.82 70.96 102.82 70.55 103.45 70.55 103.45 70.01"/>
        <path class="cls-3" d="m101.86,68.47c-.24-.16-.49-.32-.52-.34.09-.42.16-.8.2-1.03,0,0,.03-.21-.14-.24-.23-.05-.56.13-.93.41-.04.03-.1.08-.12.16-.02.07-.11.53-.15.73-.02.07.03.15.1.16.07.02.14-.03.16-.1.05-.16.15-.5.17-.53.02-.03.16-.15.16-.15l-.28,2.83c0,.08.07.15.15.16.09,0,.17-.06.18-.15,0,0,.18-.82.36-1.67l.31.14-.17.82c-.03.08.02.17.1.19.08.03.17-.02.19-.1,0,0,.29-.7.33-.82.04-.13.14-.33-.11-.5Z"/>
        <g>
          <path class="cls-3" d="m98.95,67.36c0,.19-.15.34-.34.34s-.34-.15-.34-.34.15-.34.34-.34.34.15.34.34Z"/>
          <path class="cls-3" d="m99.7,69.27s-.05-.37-.1-.59c-.01-.06-.03-.1-.07-.17-.13-.22-.32-.49-.49-.58-.27-.14-.54-.06-.66.16-.13.23-.3.61-.77.91-.06.03-.11.09-.08.16.02.07.09.11.16.08,0,0,.02,0,.02,0,.1-.04.51-.23.64-.45l-.11,2.54c-.01.1.06.18.15.19.09,0,.17-.06.18-.15l.52-2.81s.17.14.21.25c.03.08.09.3.13.51,0,0,0,0,0,0,.01.08.08.12.15.11.07,0,.12-.08.11-.15Z"/>
          <path class="cls-3" d="m99.76,70.43l-.94-.76-.08.55.82.47c.07.05.17.04.23-.03.05-.07.04-.17-.03-.23Z"/>
        </g>
      </g>
    </g>
    <g>
      <g>
        <path class="cls-3" d="m102.39,142.74c0,.16-.13.3-.3.3s-.3-.13-.3-.3.13-.3.3-.3.3.13.3.3Z"/>
        <path class="cls-3" d="m102.09,143.11c-.21,0-.7.02-.7.43v.97c0,.06.05.12.11.12.06,0,.12-.05.12-.11l.05-.59.06,2.2c0,.08.07.15.15.15s.15-.07.15-.15l.06-1.35.06,1.35c0,.08.07.15.15.15s.15-.07.15-.15l.06-2.2.05.59c0,.06.06.11.12.11.06,0,.11-.06.11-.12v-.97c0-.41-.49-.43-.7-.43Z"/>
      </g>
      <g>
        <path class="cls-3" d="m104.19,142.74c0,.16-.13.3-.3.3s-.3-.13-.3-.3.13-.3.3-.3.3.13.3.3Z"/>
        <path class="cls-3" d="m103.89,143.11c-.21,0-.7.02-.7.43v.97c0,.06.05.12.11.12.06,0,.12-.05.12-.11l.05-.59.06,2.2c0,.08.07.15.15.15s.15-.07.15-.15l.06-1.35.06,1.35c0,.08.07.15.15.15s.15-.07.15-.15l.06-2.2.05.59c0,.06.06.11.12.11.06,0,.11-.06.11-.12v-.97c0-.41-.49-.43-.7-.43Z"/>
      </g>
      <path class="cls-3" d="m104.93,146.49h-3.87c-.3,0-.54-.24-.54-.54v-4.14c0-.3.24-.54.54-.54h3.87c.3,0,.54.24.54.54v4.14c0,.3-.24.54-.54.54Zm-3.87-4.88c-.11,0-.2.09-.2.2v4.14c0,.11.09.2.2.2h3.87c.11,0,.2-.09.2-.2v-4.14c0-.11-.09-.2-.2-.2h-3.87Z"/>
      <path class="cls-3" d="m104.73,140.17l-.66-.66h0s-.11-.11-.11-.11l-.11.11h0s-.66.66-.66.66c-.06.06-.06.15,0,.21.06.06.15.06.21,0l.4-.4v.91c0,.08.07.15.15.15s.15-.07.15-.15v-.91s.4.4.4.4c.03.03.07.04.11.04s.08-.01.11-.04c.06-.06.06-.15,0-.21Z"/>
      <path class="cls-3" d="m102.85,140.12c-.06-.06-.15-.06-.21,0l-.4.4v-.91c0-.08-.07-.15-.15-.15s-.15.07-.15.15v.91s-.4-.4-.4-.4c-.06-.06-.15-.06-.21,0-.06.06-.06.15,0,.21l.66.66h0s.11.11.11.11l.11-.11h0s.66-.66.66-.66c.06-.06.06-.15,0-.21Z"/>
    </g>
    <g>
      <g>
        <path class="cls-3" d="m93.66,142.74c0,.16-.13.3-.3.3s-.3-.13-.3-.3.13-.3.3-.3.3.13.3.3Z"/>
        <path class="cls-3" d="m93.36,143.11c-.21,0-.7.02-.7.43v.97c0,.06.05.12.11.12.06,0,.12-.05.12-.11l.05-.59.06,2.2c0,.08.07.15.15.15s.15-.07.15-.15l.06-1.35.06,1.35c0,.08.07.15.15.15s.15-.07.15-.15l.06-2.2.05.59c0,.06.06.11.12.11.06,0,.11-.06.11-.12v-.97c0-.41-.49-.43-.7-.43Z"/>
      </g>
      <g>
        <path class="cls-3" d="m95.46,142.74c0,.16-.13.3-.3.3s-.3-.13-.3-.3.13-.3.3-.3.3.13.3.3Z"/>
        <path class="cls-3" d="m95.16,143.11c-.21,0-.7.02-.7.43v.97c0,.06.05.12.11.12.06,0,.12-.05.12-.11l.05-.59.06,2.2c0,.08.07.15.15.15s.15-.07.15-.15l.06-1.35.06,1.35c0,.08.07.15.15.15s.15-.07.15-.15l.06-2.2.05.59c0,.06.06.11.12.11.06,0,.11-.06.11-.12v-.97c0-.41-.49-.43-.7-.43Z"/>
      </g>
      <path class="cls-3" d="m96.2,146.49h-3.87c-.3,0-.54-.24-.54-.54v-4.14c0-.3.24-.54.54-.54h3.87c.3,0,.54.24.54.54v4.14c0,.3-.24.54-.54.54Zm-3.87-4.88c-.11,0-.2.09-.2.2v4.14c0,.11.09.2.2.2h3.87c.11,0,.2-.09.2-.2v-4.14c0-.11-.09-.2-.2-.2h-3.87Z"/>
      <path class="cls-3" d="m96.01,140.17l-.66-.66h0s-.11-.11-.11-.11l-.11.11h0s-.66.66-.66.66c-.06.06-.06.15,0,.21.06.06.15.06.21,0l.4-.4v.91c0,.08.07.15.15.15s.15-.07.15-.15v-.91s.4.4.4.4c.03.03.07.04.11.04s.08-.01.11-.04c.06-.06.06-.15,0-.21Z"/>
      <path class="cls-3" d="m94.12,140.12c-.06-.06-.15-.06-.21,0l-.4.4v-.91c0-.08-.07-.15-.15-.15s-.15.07-.15.15v.91s-.4-.4-.4-.4c-.06-.06-.15-.06-.21,0-.06.06-.06.15,0,.21l.66.66h0s.11.11.11.11l.11-.11h0s.66-.66.66-.66c.06-.06.06-.15,0-.21Z"/>
    </g>
    <g>
      <rect class="cls-7-1-1" x="53.22" y="128.56" width="7.07" height="7.07"/>
      <g>
        <path class="cls-3" d="m58.34,129.15c0,.18-.15.33-.33.33s-.33-.15-.33-.33.15-.33.33-.33.33.15.33.33Z"/>
        <polygon class="cls-3" points="59.99 132.73 58.8 132.73 58.8 133.16 57.73 133.16 57.73 133.58 56.7 133.58 56.7 134 55.66 134 55.66 134.42 54.63 134.42 54.63 134.85 53.97 134.85 53.97 135.39 55.23 135.39 55.23 134.95 56.26 134.95 56.26 134.52 57.29 134.52 57.29 134.1 58.32 134.1 58.32 133.68 59.36 133.68 59.36 133.27 59.99 133.27 59.99 132.73"/>
        <path class="cls-3" d="m58.41,131.2c-.24-.16-.48-.32-.52-.34.09-.42.16-.8.2-1.02,0,0,.03-.21-.14-.24-.23-.05-.56.13-.93.41-.04.03-.1.08-.12.16-.02.07-.11.53-.15.73-.02.07.03.15.1.16.07.02.14-.03.16-.1.05-.16.15-.5.17-.53.02-.03.16-.15.16-.15l-.28,2.83c0,.08.07.15.15.16.09,0,.17-.06.18-.15,0,0,.18-.82.36-1.66l.31.14-.17.82c-.03.08.02.17.1.19.08.03.17-.02.19-.1,0,0,.29-.69.32-.82.04-.13.14-.33-.11-.5Z"/>
        <g>
          <path class="cls-3" d="m55.5,130.09c0,.18-.15.33-.33.33s-.33-.15-.33-.33.15-.33.33-.33.33.15.33.33Z"/>
          <path class="cls-3" d="m56.25,131.99s-.05-.37-.1-.59c-.01-.06-.03-.1-.07-.17-.13-.22-.31-.49-.49-.58-.27-.14-.54-.06-.66.16-.13.23-.3.61-.77.91-.06.03-.11.09-.08.16.02.07.09.11.16.08,0,0,.02,0,.02,0,.1-.04.5-.23.64-.45l-.11,2.54c-.01.1.06.18.15.19.09,0,.17-.06.18-.15l.52-2.81s.17.14.21.25c.03.08.09.3.13.5,0,0,0,0,0,0,.01.07.08.12.15.11.07,0,.12-.08.11-.15Z"/>
          <path class="cls-3" d="m56.31,133.16l-.94-.76-.08.54.82.47c.07.05.17.04.23-.03.05-.07.04-.17-.03-.23Z"/>
        </g>
      </g>
    </g>
    <rect class="cls-1-1-1" x="77.73" y="149.4" width="4.9" height="1.32" transform="translate(-69.89 230.24) rotate(-90)"/>
    <rect class="cls-1-1-1" x="82.22" y="149.4" width="4.9" height="1.32" transform="translate(-65.39 234.73) rotate(-90)"/>
    <polygon class="cls-1-1-1" points="89.83 147.61 89.83 149.96 89.83 152.51 88.5 152.51 88.5 147.61 89.83 147.61"/>
    <rect class="cls-1-1-1" x="63.39" y="124.15" width="16.12" height="32.93"/>
    <line class="cls-1-1-1" x1="49.69" y1="119.99" x2="49.69" y2="136.44"/>
    <polyline class="cls-1-1-1" points="44.61 150.87 44.61 126.17 49.69 126.17"/>
    <line class="cls-1-1-1" x1="49.69" y1="128.22" x2="50.72" y2="128.22"/>
    <line class="cls-1-1-1" x1="53.21" y1="128.22" x2="63.39" y2="128.22"/>
    <line class="cls-1-1-1" x1="61.78" y1="157.08" x2="61.78" y2="167.77"/>
    <line class="cls-1-1-1" x1="50.72" y1="157.08" x2="44.61" y2="157.08"/>
    <polyline class="cls-1-1-1" points="102.97 105.2 102.97 118.87 89.83 118.87 89.83 105.2 91.99 105.2"/>
    <line class="cls-1-1-1" x1="93.91" y1="105.2" x2="101.26" y2="105.2"/>
    <polyline class="cls-1-1-1" points="113.77 105.2 116.07 105.2 116.07 118.87 102.93 118.87 102.93 105.2 111.7 105.2"/>
    <polyline class="cls-1-1-1" points="101.26 105.2 96.79 105.2 96.79 112.03 102.98 112.03 102.98 105.2"/>
    <polygon class="cls-1-1-1" points="89 4.36 89 61.08 116.07 61.06 116.07 100.63 144.02 100.63 144.02 61.06 144.02 4.34 89 4.36"/>
    <rect class="cls-1-1-1" x="121.49" y="109.76" width="22.53" height="17.86"/>
    <rect class="cls-1-1-1" x="121.49" y="127.62" width="22.53" height="26.82"/>
    <rect class="cls-1-1-1" x="121.49" y="154.44" width="22.53" height="11.72"/>
    <line class="cls-1-1-1" x1="132.26" y1="166.15" x2="132.26" y2="169.67"/>
    <line class="cls-1-1-1" x1="131.57" y1="172.95" x2="131.57" y2="169.67"/>
    <line class="cls-1-1-1" x1="139.89" y1="166.27" x2="139.89" y2="169.79"/>
    <line class="cls-1-1-1" x1="139.2" y1="173.06" x2="139.2" y2="169.79"/>
    <polyline class="cls-1-1-1" points="127.25 197.07 120.72 197.07 120.72 172.95 144.02 172.95 144.02 197.07"/>
    <rect class="cls-2-1-1" x="127.25" y="191.96" width="16.78" height="12.68"/>
    <rect class="cls-1-1-1" x="129.55" y="204.64" width="14.48" height="29.03"/>
    <line class="cls-1-1-1" x1="129.55" y1="213.61" x2="144.02" y2="213.61"/>
    <rect class="cls-1-1-1" x="55.7" y="216.11" width="20.39" height="17.56"/>
    <line class="cls-1-1-1" x1="95.29" y1="197.07" x2="142.4" y2="197.07"/>
    <polyline class="cls-1-1-1" points="129.55 204.64 129.55 233.67 76.08 233.67 76.08 208.07"/>
    <polyline class="cls-2-1-1" points="76.08 208.07 70.03 208.07 70.03 194.43 80.14 194.43 80.14 208.07 76.08 208.07"/>
    <rect class="cls-1-1-1" x="70.03" y="180.78" width="10.1" height="13.64"/>
    <rect class="cls-1-1-1" x="80.14" y="180.78" width="10.1" height="13.64"/>
    <polyline class="cls-1-1-1" points="95.29 194.43 90.24 194.43 90.24 180.78 100.34 180.78"/>
    <polyline class="cls-1-1-1" points="95.29 191.2 95.29 197.07 120.72 197.07 120.72 187.01 95.29 187.01"/>
    <polyline class="cls-1-1-1" points="113.2 172.95 120.72 172.95 120.72 187.01 102.26 187.01 102.26 172.95 108.01 172.95"/>
    <polyline class="cls-1-1-1" points="116.54 172.95 116.54 164.22 97.97 164.22 97.97 176.41"/>
    <polyline class="cls-1-1-1" points="89.83 167.71 89.83 176.41 97.97 176.41 97.97 164.22 89.83 164.22 89.83 165.38"/>
    <line class="cls-1-1-1" x1="89.83" y1="157.08" x2="89.83" y2="164.22"/>
    <rect class="cls-1-1-1" x="2.3" y="195.88" width="31.37" height="37.8"/>
    <line class="cls-1-1-1" x1="33.67" y1="225.72" x2="55.7" y2="225.72"/>
    <line class="cls-1-1-1" x1="33.67" y1="216.11" x2="55.7" y2="216.11"/>
    <rect class="cls-2-1-1" x="61.01" y="188.65" width="3.59" height="19.97"/>
    <polyline class="cls-1-1-1" points="14.81 153.11 2.3 153.11 2.3 4.34 84.78 4.34"/>
    <line class="cls-1-1-1" x1="14.81" y1="177.27" x2="14.81" y2="195.88"/>
    <line class="cls-1-1-1" x1="15.26" y1="171.31" x2="15.26" y2="177.27"/>
    <line class="cls-1-1-1" x1="14.81" y1="153.11" x2="14.81" y2="171.31"/>
    <line class="cls-1-1-1" x1="6.16" y1="177.27" x2="6.16" y2="195.88"/>
    <line class="cls-1-1-1" x1="6.6" y1="171.31" x2="6.6" y2="177.27"/>
    <line class="cls-1-1-1" x1="6.16" y1="153.11" x2="6.16" y2="171.31"/>
    <rect class="cls-1-1-1" x="12.08" y="7.26" width="43.37" height="112.45"/>
    <rect class="cls-1-1-1" x="55.45" y="28.49" width="27.5" height="91.22"/>
    <polyline class="cls-1-1-1" points="55.45 28.49 49.69 28.49 49.69 112.03 12.08 112.03"/>
    <polyline class="cls-1-1-1" points="61.72 22.64 61.72 28.49 82.95 28.49 82.95 7.26 61.72 7.26 61.72 13.07"/>
    <line class="cls-1-1-1" x1="61.72" y1="15.57" x2="61.72" y2="20.14"/>
    <polyline class="cls-1-1-1" points="61.72 13.07 61.72 7.26 69.99 7.26 69.99 17.86 61.72 17.86 61.72 15.57"/>
    <polyline class="cls-1-1-1" points="61.72 20.14 61.72 17.86 69.99 17.86 69.99 28.46 61.72 28.46 61.72 22.64"/>
    <rect class="cls-1-1-1" x="55.45" y="28.49" width="27.5" height="16.24"/>
    <rect class="cls-1-1-1" x="55.45" y="44.72" width="27.5" height="10.3"/>
    <rect class="cls-1-1-1" x="55.45" y="55.03" width="27.5" height="26.69"/>
    <rect class="cls-1-1-1" x="55.45" y="81.71" width="27.5" height="18.91"/>
    <g>
      <path class="cls-8-1-1" d="m111.43,189.09c.36,0,.65-.29.65-.65s-.29-.65-.65-.65-.65.29-.65.65.29.65.65.65Z"/>
      <path class="cls-8-1-1" d="m113.3,192.21l-.51-1.89c-.21-.87-.89-1-1.35-1s-1.14.13-1.35,1l-.51,1.89c-.05.13.02.28.15.33.13.05.28-.02.33-.15l.51-1.44.13.66-.64,2.02h.94s.05.63.05.63l.07,1.7c0,.18.15.33.33.33s.33-.15.33-.33l.07-1.7.05-.63h.94s-.64-2.02-.64-2.02l.13-.66.51,1.44c.05.13.2.2.33.15.13-.05.2-.2.15-.33Z"/>
    </g>
    <g>
      <path class="cls-5-1-1" d="m112.09,176.38c0,.36-.29.65-.65.65s-.65-.29-.65-.65.29-.65.65-.65.65.29.65.65Z"/>
      <path class="cls-5-1-1" d="m111.43,177.23c-.46,0-1.55.04-1.55.94v2.15c0,.14.1.26.24.27.14,0,.26-.1.27-.24l.12-1.3.13,4.85c0,.18.15.33.33.33s.33-.15.33-.33l.13-2.98.13,2.98c0,.18.15.33.33.33s.33-.15.33-.33l.13-4.85.12,1.3c0,.14.13.25.27.24s.25-.13.24-.27v-2.15c0-.9-1.09-.94-1.55-.94Z"/>
    </g>
    <g>
      <path class="cls-8-1-1" d="m65.85,9.62c.36,0,.65-.29.65-.65s-.29-.65-.65-.65-.65.29-.65.65.29.65.65.65Z"/>
      <path class="cls-8-1-1" d="m67.72,12.75l-.51-1.89c-.21-.87-.89-1-1.35-1s-1.14.13-1.35,1l-.51,1.89c-.05.13.02.28.15.33.13.05.28-.02.33-.15l.51-1.44.13.66-.64,2.02h.94s.05.63.05.63l.07,1.7c0,.18.15.33.33.33s.33-.15.33-.33l.07-1.7.05-.63h.94s-.64-2.02-.64-2.02l.13-.66.51,1.44c.05.13.2.2.33.15.13-.05.2-.2.15-.33Z"/>
    </g>
    <g>
      <path class="cls-5-1-1" d="m66.51,19.57c0,.36-.29.65-.65.65s-.65-.29-.65-.65.29-.65.65-.65.65.29.65.65Z"/>
      <path class="cls-5-1-1" d="m65.85,20.43c-.46,0-1.55.04-1.55.94v2.15c0,.14.1.26.24.27.14,0,.26-.1.27-.24l.12-1.3.13,4.85c0,.18.15.33.33.33s.33-.15.33-.33l.13-2.98.13,2.98c0,.18.15.33.33.33s.33-.15.33-.33l.13-4.85.12,1.3c0,.14.13.25.27.24s.25-.13.24-.27v-2.15c0-.9-1.09-.94-1.55-.94Z"/>
    </g>
    <text class="cls-10-1-1" transform="translate(132.26 210.96)"><tspan x="0" y="0">ATM</tspan></text>
    <text class="cls-10-1-1" transform="translate(96.74 217.5)"><tspan x="0" y="0">カフェ</tspan></text>
    <rect class="cls-2-1-1" x="129.55" y="213.61" width="14.48" height="20.07"/>
    <polyline class="cls-1-1-1" points="86.22 208.07 80.14 208.07 80.14 194.43 95.29 194.43 95.29 208.07 89.63 208.07"/>
    <line class="cls-1-1-1" x1="87.71" y1="203.39" x2="87.71" y2="194.43"/>
    <line class="cls-1-1-1" x1="84.22" y1="203.39" x2="91.2" y2="203.39"/>
    <g>
      <path class="cls-8-1-1" d="m83.92,196.45c.3,0,.54-.24.54-.54s-.24-.54-.54-.54-.54.24-.54.54.24.54.54.54Z"/>
      <path class="cls-8-1-1" d="m85.48,199.05l-.43-1.58c-.18-.73-.74-.83-1.13-.83s-.95.11-1.13.83l-.43,1.58c-.04.11.01.23.12.27.11.04.23-.01.27-.12l.43-1.2.1.55-.53,1.68h.78s.04.52.04.52l.06,1.42c0,.15.12.27.27.27s.27-.12.27-.27l.06-1.42.04-.52h.78s-.53-1.68-.53-1.68l.1-.55.43,1.2c.04.11.16.16.27.12.11-.04.16-.16.12-.27Z"/>
    </g>
    <g>
      <path class="cls-5-1-1" d="m92.07,195.91c0,.3-.24.54-.54.54s-.54-.24-.54-.54.24-.54.54-.54.54.24.54.54Z"/>
      <path class="cls-5-1-1" d="m91.53,196.62c-.39,0-1.29.04-1.29.79v1.79c0,.12.08.22.2.22.12,0,.22-.08.22-.2l.1-1.09.11,4.05c0,.15.12.28.28.28s.28-.12.28-.28l.11-2.49.11,2.49c0,.15.12.28.28.28s.28-.12.28-.28l.11-4.05.1,1.09c0,.12.1.21.22.2s.21-.1.2-.22v-1.79c0-.75-.91-.79-1.29-.79Z"/>
    </g>
    <polygon class="cls-3" points="57.66 136.44 57.66 150.33 50.78 150.33 50.78 157.08 57.66 157.08 61.78 157.08 63.39 157.08 63.39 136.44 57.66 136.44"/>
    <polygon class="cls-3" points="49.69 28.49 49.69 112.03 12.08 112.03 12.08 119.71 55.45 119.71 55.45 113.52 55.45 112.03 55.45 28.49 49.69 28.49"/>
    <rect class="cls-2-1-1" x="69.99" y="7.26" width="12.97" height="21.23"/>
    <polygon class="cls-2-1-1" points="105.84 83.15 105.84 81.71 88.99 81.71 88.99 101.59 105.84 101.59 105.84 101.11 115.13 101.11 115.13 83.15 105.84 83.15"/>
    <path class="cls-6-1-1" d="m126.91,171.76l.49.49h-.59l-.64-.64h.38c.14,0,.27.05.36.14h0Zm-.17-4.34c.21,0,.39.18.39.39s-.18.38-.39.38-.38-.17-.38-.38.17-.39.38-.39h0Zm2.56,3.53l-.14-.36c-.06-.15-.2-.25-.37-.25h-.06v-3.12h-2.97v1.73h.39l.44-.55c.09-.1.23-.17.38-.17h.95c.15,0,.28.08.35.21l.28.53s.02.05.02.08c0,.1-.08.18-.18.18-.07,0-.13-.03-.16-.1l-.25-.49h-.41l.31.79.1,1h.81c.13,0,.23.08.28.19l.09.23h-1.39c-.1,0-.19-.08-.2-.18l-.1-.88-.75,1.56c-.04.09-.14.15-.25.15h-.36l.92-1.91-.29-.72-.27.33c-.07.09-.18.15-.31.15h-.4v2.25l.64.64h-1.89v-5.47h5.47v5.47h-.61l-.64-.64v-.67h.57Z"/>
    <path class="cls-6-1-1" d="m49.77,214.2l.64.64h-.77l-.83-.82h.5c.18,0,.35.07.47.19h0Zm-.22-5.63c.27,0,.51.23.51.5s-.23.5-.51.5-.5-.22-.5-.5.22-.5.5-.5h0Zm3.31,4.58l-.18-.47c-.08-.19-.26-.33-.48-.33h-.08v-4.05h-3.84v2.24h.5l.58-.72c.12-.13.29-.22.49-.22h1.23c.19,0,.36.11.45.27l.36.69s.03.06.03.11c0,.12-.11.23-.23.23-.1,0-.17-.04-.21-.12l-.33-.63h-.53l.41,1.02.12,1.3h1.05c.17,0,.3.11.36.25l.12.3h-1.81c-.13,0-.25-.1-.26-.23l-.12-1.14-.97,2.02c-.05.12-.18.19-.32.19h-.47l1.2-2.47-.37-.93-.35.43c-.09.12-.24.19-.4.19h-.52v2.92l.83.82h-2.45v-7.09h7.09v7.09h-.8l-.82-.82v-.87h.74Z"/>
    <path class="cls-6-1-1" d="m19.93,177.2l.64.64h-.77l-.83-.82h.5c.18,0,.35.07.47.19h0Zm-.22-5.63c.27,0,.51.23.51.5s-.23.5-.51.5-.5-.22-.5-.5.22-.5.5-.5h0Zm3.31,4.58l-.18-.47c-.08-.19-.26-.33-.48-.33h-.08v-4.05h-3.84v2.24h.5l.58-.72c.12-.13.29-.22.49-.22h1.23c.19,0,.36.11.45.27l.36.69s.03.06.03.11c0,.12-.11.23-.23.23-.1,0-.17-.04-.21-.12l-.33-.63h-.53l.41,1.02.12,1.3h1.05c.17,0,.3.11.36.25l.12.3h-1.81c-.13,0-.25-.1-.26-.23l-.12-1.14-.97,2.02c-.05.12-.18.19-.32.19h-.47l1.2-2.47-.37-.93-.35.43c-.09.12-.24.19-.4.19h-.52v2.92l.83.82h-2.45v-7.09h7.09v7.09h-.8l-.82-.82v-.87h.74Z"/>
    <path class="cls-6-1-1" d="m6.3,11.88l.64.64h-.77l-.83-.82h.5c.18,0,.35.07.47.19h0Zm-.22-5.63c.27,0,.51.23.51.5s-.23.5-.51.5-.5-.22-.5-.5.22-.5.5-.5h0Zm3.31,4.58l-.18-.47c-.08-.19-.26-.33-.48-.33h-.08v-4.05h-3.84v2.24h.5l.58-.72c.12-.13.29-.22.49-.22h1.23c.19,0,.36.11.45.27l.36.69s.03.06.03.11c0,.12-.11.23-.23.23-.1,0-.17-.04-.21-.12l-.33-.63h-.53l.41,1.02.12,1.3h1.05c.17,0,.3.11.36.25l.12.3h-1.81c-.13,0-.25-.1-.26-.23l-.12-1.14-.97,2.02c-.05.12-.18.19-.32.19h-.47l1.2-2.47-.37-.93-.35.43c-.09.12-.24.19-.4.19h-.52v2.92l.83.82h-2.45v-7.09h7.09v7.09h-.8l-.82-.82v-.87h.74Z"/>
    <path class="cls-6-1-1" d="m6.3,66.34l.64.64h-.77l-.83-.82h.5c.18,0,.35.07.47.19h0Zm-.22-5.63c.27,0,.51.23.51.5s-.23.5-.51.5-.5-.22-.5-.5.22-.5.5-.5h0Zm3.31,4.58l-.18-.47c-.08-.19-.26-.33-.48-.33h-.08v-4.05h-3.84v2.24h.5l.58-.72c.12-.13.29-.22.49-.22h1.23c.19,0,.36.11.45.27l.36.69s.03.06.03.11c0,.12-.11.23-.23.23-.1,0-.17-.04-.21-.12l-.33-.63h-.53l.41,1.02.12,1.3h1.05c.17,0,.3.11.36.25l.12.3h-1.81c-.13,0-.25-.1-.26-.23l-.12-1.14-.97,2.02c-.05.12-.18.19-.32.19h-.47l1.2-2.47-.37-.93-.35.43c-.09.12-.24.19-.4.19h-.52v2.92l.83.82h-2.45v-7.09h7.09v7.09h-.8l-.82-.82v-.87h.74Z"/>
    <path class="cls-6-1-1" d="m6.3,39.11l.64.64h-.77l-.83-.82h.5c.18,0,.35.07.47.19h0Zm-.22-5.63c.27,0,.51.23.51.5s-.23.5-.51.5-.5-.22-.5-.5.22-.5.5-.5h0Zm3.31,4.58l-.18-.47c-.08-.19-.26-.33-.48-.33h-.08v-4.05h-3.84v2.24h.5l.58-.72c.12-.13.29-.22.49-.22h1.23c.19,0,.36.11.45.27l.36.69s.03.06.03.11c0,.12-.11.23-.23.23-.1,0-.17-.04-.21-.12l-.33-.63h-.53l.41,1.02.12,1.3h1.05c.17,0,.3.11.36.25l.12.3h-1.81c-.13,0-.25-.1-.26-.23l-.12-1.14-.97,2.02c-.05.12-.18.19-.32.19h-.47l1.2-2.47-.37-.93-.35.43c-.09.12-.24.19-.4.19h-.52v2.92l.83.82h-2.45v-7.09h7.09v7.09h-.8l-.82-.82v-.87h.74Z"/>
    <path class="cls-6-1-1" d="m6.51,93.57l.64.64h-.77l-.83-.82h.5c.18,0,.35.07.47.19h0Zm-.22-5.63c.27,0,.51.23.51.5s-.23.5-.51.5-.5-.22-.5-.5.22-.5.5-.5h0Zm3.31,4.58l-.18-.47c-.08-.19-.26-.33-.48-.33h-.08v-4.05h-3.84v2.24h.5l.58-.72c.12-.13.29-.22.49-.22h1.23c.19,0,.36.11.45.27l.36.69s.03.06.03.11c0,.12-.11.23-.23.23-.1,0-.17-.04-.21-.12l-.33-.63h-.53l.41,1.02.12,1.3h1.05c.17,0,.3.11.36.25l.12.3h-1.81c-.13,0-.25-.1-.26-.23l-.12-1.14-.97,2.02c-.05.12-.18.19-.32.19h-.47l1.2-2.47-.37-.93-.35.43c-.09.12-.24.19-.4.19h-.52v2.92l.83.82h-2.45v-7.09h7.09v7.09h-.8l-.82-.82v-.87h.74Z"/>
    <path class="cls-6-1-1" d="m85,10.78l.49.49h-.59l-.64-.64h.38c.14,0,.27.05.36.14h0Zm-.17-4.34c.21,0,.39.18.39.39s-.18.38-.39.38-.38-.17-.38-.38.17-.39.38-.39h0Zm2.56,3.53l-.14-.36c-.06-.15-.2-.25-.37-.25h-.06v-3.12h-2.97v1.73h.39l.44-.55c.09-.1.23-.17.38-.17h.95c.15,0,.28.08.35.21l.28.53s.02.05.02.08c0,.1-.08.18-.18.18-.07,0-.13-.03-.16-.1l-.25-.49h-.41l.31.79.1,1h.81c.13,0,.23.08.28.19l.09.23h-1.39c-.1,0-.19-.08-.2-.18l-.1-.88-.75,1.56c-.04.09-.14.15-.25.15h-.36l.92-1.91-.29-.72-.27.33c-.07.09-.18.15-.31.15h-.4v2.25l.64.64h-1.89v-5.47h5.47v5.47h-.61l-.64-.64v-.67h.57Z"/>
    <rect class="cls-4-1-1" x="54.83" y="81" width="27.96" height="38"/>
    <rect class="cls-4-1-1" x="121.55" y="153.61" width="22.53" height="11.39"/>
  </g>
  <g id="_1100" data-name="1100">
    <rect class="cls-4-1-1" x="2.3" y="196.01" width="31.37" height="37.67"/>
    <text class="cls-10-1-1" transform="translate(13.06 213.16)"><tspan x="0" y="0">電大</tspan><tspan x="-7.39" y="6">ギャラリー</tspan></text>
  </g>
</svg>