<?xml version="1.0" encoding="UTF-8"?>
<svg xmlns="http://www.w3.org/2000/svg" viewBox="0 0 130 235">
  <defs>
    <style>
      .cls-1-1-10 {
        fill: none;
      }

      .cls-1-1-10, .cls-2-1-10, .cls-3-1-10, .cls-4-1-10 {
        stroke: #231815;
        stroke-miterlimit: 10;
      }

      .cls-2-1-10, .cls-4-1-10 {
        fill: #7a1a24;
      }

      .cls-5-1-10, .cls-6-1-10, .cls-7-1-10 {
        stroke-width: 0px;
      }

      .cls-5-1-10, .cls-3-1-10 {
        fill: #231815;
      }

      .cls-6-1-10 {
        fill: #2d3e6a;
      }

      .cls-4-1-10 {
        opacity: .2;
      }

      .cls-7-1-10 {
        fill: #ba1f21;
      }

      .cls-8-1-10 {
        fill: #fff;
        font-family: KozGoPr6N-Regular-90ms-RKSJ-H, 'Kozuka Gothic Pr6N';
        font-size: 7px;
      }
    </style>
  </defs>
  <g id="_11011" data-name="11011">
    <rect class="cls-2-1-10" x="95.14" y="2.2" width="32.55" height="38.66"/>
    <text class="cls-8-1-10" transform="translate(101.77 23.71)"><tspan x="0" y="0">11011</tspan></text>
  </g>
  <g id="_11009B" data-name="11009B">
    <polygon class="cls-2-1-10" points="127.69 40.86 127.69 41 120.19 40.97 95.14 40.89 86.99 40.86 86.54 40.86 86.64 50.38 65.13 50.38 65.13 2.2 95.14 2.2 95.14 40.86 127.69 40.86"/>
    <text class="cls-8-1-10" transform="translate(67.75 23.71)"><tspan x="0" y="0">11008B</tspan></text>
  </g>
  <g id="_11009A" data-name="11009A">
    <polygon class="cls-2-1-10" points="65.13 2.2 65.13 50.38 45.36 50.38 45.26 41.73 45.26 30.74 36.53 30.74 36.53 2.2 65.13 2.2"/>
    <text class="cls-8-1-10" transform="translate(39.11 23.71)"><tspan x="0" y="0">11009A</tspan></text>
  </g>
  <g id="_11008" data-name="11008">
    <polygon class="cls-2-1-10" points="45.25 30.74 45.25 40.86 3.97 40.86 3.97 2.2 36.53 2.2 36.53 30.74 45.25 30.74"/>
    <text class="cls-8-1-10" transform="translate(10.61 23.71)"><tspan x="0" y="0">11008</tspan></text>
  </g>
  <g id="_11006" data-name="11006">
    <rect class="cls-2-1-10" x="3.97" y="53.73" width="32.55" height="39.05"/>
    <text class="cls-8-1-10" transform="translate(10.61 75.25)"><tspan x="0" y="0">11006</tspan></text>
  </g>
  <g id="_11005" data-name="11005">
    <rect class="cls-2-1-10" x="3.81" y="93.26" width="32.55" height="39.05"/>
    <text class="cls-8-1-10" transform="translate(10.44 114.19)"><tspan x="0" y="0">11005</tspan></text>
  </g>
  <g id="_11003" data-name="11003">
    <rect class="cls-2-1-10" x="3.97" y="131.68" width="32.55" height="39.05"/>
    <text class="cls-8-1-10" transform="translate(10.61 154.08)"><tspan x="0" y="0">11003</tspan></text>
  </g>
  <g id="_レイヤー_1" data-name="レイヤー 1">
    <rect class="cls-4-1-10" x="3.97" y="39.86" width="32.56" height="15.14"/>
    <polyline class="cls-4-1-10" points="45.25 78.24 45.25 51 86.99 51 86.99 96.93 86.98 96.93 86.98 86.67 86.88 78.59 67.11 78.59"/>
    <polygon class="cls-6-1-10" points="45.25 40.86 36.53 40.89 3.97 40.98 3.97 40.86 45.25 40.86"/>
    <polygon class="cls-6-1-10" points="45.25 30.74 45.26 30.74 45.26 41.73 45.25 40.86 45.25 30.74"/>
    <path class="cls-4-1-10" d="m127.69,40.86v191.5h-32.55V51.47h11.31c.24.04.5.07.75.07,1.41,0,2.66-.64,3.49-1.65.09-.13.19-.25.28-.39.09-.12.16-.24.22-.36.09-.16.16-.32.22-.48.05-.1.09-.21.12-.32.13-.42.2-.87.2-1.33s-.07-.91-.2-1.33c-.03-.11-.07-.22-.12-.32-.06-.16-.13-.32-.22-.48-.06-.12-.13-.24-.22-.36-.07-.12-.15-.23-.24-.34-.02-.01-.04-.03-.04-.05-.83-1.01-2.08-1.65-3.49-1.65-.25,0-.51.03-.75.07h-11.31v-1.69h32.55Z"/>
    <rect class="cls-1-1-10" x="3.97" y="170.81" width="32.55" height="25.64"/>
    <rect class="cls-1-1-10" x="3.97" y="209.63" width="32.55" height="22.73"/>
    <rect class="cls-1-1-10" x="45.26" y="50.38" width="41.28" height="29.28"/>
    <rect class="cls-3-1-10" x="46.15" y="120.13" width="40.83" height="25.64"/>
    <polyline class="cls-1-1-10" points="46.15 102.65 46.15 87.98 86.98 87.98 86.98 120.13 46.15 120.13"/>
    <line class="cls-1-1-10" x1="73.88" y1="112.23" x2="73.88" y2="120.13"/>
    <line class="cls-1-1-10" x1="73.88" y1="102.65" x2="73.88" y2="107.59"/>
    <polyline class="cls-3-1-10" points="58.73 102.65 77.96 102.65 77.96 91.38 52.67 91.38 52.67 102.65 46.15 102.65 46.15 87.98 86.98 87.98 86.98 102.65 58.73 102.65"/>
    <g>
      <path class="cls-5-1-10" d="m68.53,93.65c0,.24-.19.43-.43.43s-.43-.19-.43-.43.19-.43.43-.43.43.19.43.43Z"/>
      <polygon class="cls-5-1-10" points="70.67 98.31 69.13 98.31 69.13 98.86 67.74 98.86 67.74 99.41 66.4 99.41 66.4 99.95 65.05 99.95 65.05 100.5 63.71 100.5 63.71 101.05 62.86 101.05 62.86 101.75 64.49 101.75 64.49 101.18 65.82 101.18 65.82 100.63 67.17 100.63 67.17 100.09 68.51 100.09 68.51 99.54 69.85 99.54 69.85 99.01 70.67 99.01 70.67 98.31"/>
      <path class="cls-5-1-10" d="m68.62,96.31c-.32-.21-.63-.41-.67-.44.11-.55.21-1.04.26-1.33,0,0,.04-.27-.18-.31-.3-.06-.73.17-1.2.53-.05.04-.13.1-.16.21-.03.1-.14.69-.2.94-.02.09.03.19.13.21.09.02.18-.03.21-.13.07-.21.2-.65.22-.69.03-.04.21-.19.21-.19l-.36,3.67c0,.11.09.2.19.21.12.01.23-.08.24-.2,0,0,.24-1.06.47-2.16l.41.19-.22,1.07c-.03.1.02.21.12.25.1.03.21-.02.25-.12,0,0,.37-.9.42-1.06.05-.17.18-.43-.15-.65Z"/>
      <g>
        <path class="cls-5-1-10" d="m64.84,94.87c0,.24-.19.43-.43.43s-.43-.19-.43-.43.19-.43.43-.43.43.19.43.43Z"/>
        <path class="cls-5-1-10" d="m65.81,97.35s-.06-.48-.12-.77c-.02-.07-.04-.13-.09-.22-.17-.29-.41-.64-.63-.75-.35-.18-.7-.08-.86.2-.17.3-.39.79-1,1.18-.08.05-.14.12-.11.21.03.09.12.14.21.11.01,0,.02,0,.03-.01.13-.06.66-.3.84-.59l-.15,3.3c-.01.12.07.23.19.25.12.01.23-.08.24-.2l.68-3.65s.22.18.27.33c.04.1.11.39.16.66,0,0,0,0,0,0,.02.1.1.16.19.15.09-.01.16-.1.15-.19Z"/>
        <path class="cls-5-1-10" d="m65.89,98.86l-1.21-.98-.1.71,1.06.61c.09.07.22.05.29-.04.07-.09.05-.22-.04-.29Z"/>
      </g>
    </g>
    <g>
      <g>
        <path class="cls-5-1-10" d="m79.78,110.72c0,.2-.16.36-.36.36s-.36-.16-.36-.36.16-.36.36-.36.36.16.36.36Z"/>
        <path class="cls-5-1-10" d="m79.43,111.16c-.25,0-.85.02-.85.51v1.17c0,.08.06.14.13.14.08,0,.14-.06.14-.13l.07-.71.07,2.65c0,.1.08.18.18.18s.18-.08.18-.18l.07-1.63.07,1.63c0,.1.08.18.18.18s.18-.08.18-.18l.07-2.65.07.71c0,.08.07.14.14.13.08,0,.14-.07.13-.14v-1.17c0-.49-.59-.51-.85-.51Z"/>
      </g>
      <g>
        <path class="cls-5-1-10" d="m81.95,110.72c0,.2-.16.36-.36.36s-.36-.16-.36-.36.16-.36.36-.36.36.16.36.36Z"/>
        <path class="cls-5-1-10" d="m81.6,111.16c-.25,0-.85.02-.85.51v1.17c0,.08.06.14.13.14.08,0,.14-.06.14-.13l.07-.71.07,2.65c0,.1.08.18.18.18s.18-.08.18-.18l.07-1.63.07,1.63c0,.1.08.18.18.18s.18-.08.18-.18l.07-2.65.07.71c0,.08.07.14.14.13.08,0,.14-.07.13-.14v-1.17c0-.49-.59-.51-.85-.51Z"/>
      </g>
      <path class="cls-5-1-10" d="m82.84,115.23h-4.66c-.36,0-.65-.29-.65-.65v-4.99c0-.36.29-.65.65-.65h4.66c.36,0,.65.29.65.65v4.99c0,.36-.29.65-.65.65Zm-4.66-5.88c-.13,0-.24.11-.24.24v4.99c0,.13.11.24.24.24h4.66c.13,0,.24-.11.24-.24v-4.99c0-.13-.11-.24-.24-.24h-4.66Z"/>
      <path class="cls-5-1-10" d="m82.61,107.62l-.8-.8h0s-.13-.13-.13-.13l-.13.13h0s-.8.8-.8.8c-.07.07-.07.19,0,.26.07.07.19.07.26,0l.49-.49v1.09c0,.1.08.18.18.18s.18-.08.18-.18v-1.09s.49.49.49.49c.04.04.08.05.13.05s.09-.02.13-.05c.07-.07.07-.19,0-.26Z"/>
      <path class="cls-5-1-10" d="m80.34,107.56c-.07-.07-.19-.07-.26,0l-.49.49v-1.09c0-.1-.08-.18-.18-.18s-.18.08-.18.18v1.09s-.49-.49-.49-.49c-.07-.07-.19-.07-.26,0-.07.07-.07.19,0,.26l.8.8h0s.13.13.13.13l.13-.13h0s.8-.8.8-.8c.07-.07.07-.19,0-.26Z"/>
    </g>
    <polyline class="cls-1-1-10" points="83.46 151.02 86.98 151.02 86.98 183.35 68.9 183.35"/>
    <line class="cls-1-1-10" x1="67.47" y1="151.02" x2="78.64" y2="151.02"/>
    <line class="cls-1-1-10" x1="54.44" y1="151.02" x2="64.94" y2="151.02"/>
    <polyline class="cls-1-1-10" points="46.15 173.14 46.15 151.02 49.71 151.02"/>
    <polyline class="cls-1-1-10" points="64.23 183.35 46.15 183.35 46.15 177.11"/>
    <polyline class="cls-1-1-10" points="64.94 151.02 58.02 151.02 58.02 161.94 67.47 161.94 67.47 151.02"/>
    <line class="cls-1-1-10" x1="64.94" y1="151.02" x2="54.44" y2="151.02"/>
    <polyline class="cls-1-1-10" points="49.71 151.02 46.15 151.02 46.15 170.81 67.47 170.81 67.47 151.02"/>
    <rect class="cls-3-1-10" x="67.47" y="151.02" width="7.91" height="4.81"/>
    <polyline class="cls-1-1-10" points="68.9 183.35 73.37 183.35 73.37 170.81 59.76 170.81 59.76 183.35 64.23 183.35"/>
    <polyline class="cls-1-1-10" points="46.15 177.11 46.15 183.35 59.76 183.35 59.76 170.81 46.15 170.81 46.15 173.14"/>
    <rect class="cls-3-1-10" x="73.37" y="170.81" width="13.61" height="12.54"/>
    <g>
      <path class="cls-6-1-10" d="m78.77,157.84c0,.36-.29.65-.65.65s-.65-.29-.65-.65.29-.65.65-.65.65.29.65.65Z"/>
      <path class="cls-6-1-10" d="m78.11,158.7c-.46,0-1.56.04-1.56.95v2.16c0,.14.1.26.24.27.14,0,.26-.1.27-.24l.12-1.31.13,4.87c0,.18.15.33.33.33s.33-.15.33-.33l.13-3,.13,3c0,.18.15.33.33.33s.33-.15.33-.33l.13-4.87.12,1.31c0,.14.13.25.27.24s.25-.13.24-.27v-2.16c0-.9-1.09-.95-1.56-.95Z"/>
    </g>
    <g>
      <path class="cls-7-1-10" d="m52.94,158.49c.36,0,.65-.29.65-.65s-.29-.65-.65-.65-.65.29-.65.65.29.65.65.65Z"/>
      <path class="cls-7-1-10" d="m54.81,161.63l-.52-1.9c-.21-.87-.89-1.01-1.36-1.01s-1.15.13-1.36,1.01l-.52,1.9c-.05.13.02.28.15.33.13.05.28-.02.33-.15l.51-1.44.13.66-.64,2.02h.94s.05.63.05.63l.08,1.71c0,.18.15.33.33.33s.33-.15.33-.33l.08-1.71.05-.63h.94s-.64-2.02-.64-2.02l.13-.66.51,1.44c.05.13.2.2.33.15.13-.05.2-.2.15-.33Z"/>
    </g>
    <g>
      <g>
        <path class="cls-5-1-10" d="m65.84,177.03c0,.2-.16.36-.36.36s-.36-.16-.36-.36.16-.36.36-.36.36.16.36.36Z"/>
        <path class="cls-5-1-10" d="m65.48,177.48c-.25,0-.85.02-.85.51v1.17c0,.08.06.14.13.14.08,0,.14-.06.14-.13l.07-.71.07,2.65c0,.1.08.18.18.18s.18-.08.18-.18l.07-1.63.07,1.63c0,.1.08.18.18.18s.18-.08.18-.18l.07-2.65.07.71c0,.08.07.14.14.13.08,0,.14-.07.13-.14v-1.17c0-.49-.59-.51-.85-.51Z"/>
      </g>
      <g>
        <path class="cls-5-1-10" d="m68.01,177.03c0,.2-.16.36-.36.36s-.36-.16-.36-.36.16-.36.36-.36.36.16.36.36Z"/>
        <path class="cls-5-1-10" d="m67.65,177.48c-.25,0-.85.02-.85.51v1.17c0,.08.06.14.13.14.08,0,.14-.06.14-.13l.07-.71.07,2.65c0,.1.08.18.18.18s.18-.08.18-.18l.07-1.63.07,1.63c0,.1.08.18.18.18s.18-.08.18-.18l.07-2.65.07.71c0,.08.07.14.14.13.08,0,.14-.07.13-.14v-1.17c0-.49-.59-.51-.85-.51Z"/>
      </g>
      <path class="cls-5-1-10" d="m68.9,181.55h-4.66c-.36,0-.65-.29-.65-.65v-4.99c0-.36.29-.65.65-.65h4.66c.36,0,.65.29.65.65v4.99c0,.36-.29.65-.65.65Zm-4.66-5.88c-.13,0-.24.11-.24.24v4.99c0,.13.11.24.24.24h4.66c.13,0,.24-.11.24-.24v-4.99c0-.13-.11-.24-.24-.24h-4.66Z"/>
      <path class="cls-5-1-10" d="m68.67,173.94l-.8-.8h0s-.13-.13-.13-.13l-.13.13h0s-.8.8-.8.8c-.07.07-.07.19,0,.26.07.07.19.07.26,0l.49-.49v1.09c0,.1.08.18.18.18s.18-.08.18-.18v-1.09s.49.49.49.49c.04.04.08.05.13.05s.09-.02.13-.05c.07-.07.07-.19,0-.26Z"/>
      <path class="cls-5-1-10" d="m66.4,173.88c-.07-.07-.19-.07-.26,0l-.49.49v-1.09c0-.1-.08-.18-.18-.18s-.18.08-.18.18v1.09s-.49-.49-.49-.49c-.07-.07-.19-.07-.26,0-.07.07-.07.19,0,.26l.8.8h0s.13.13.13.13l.13-.13h0s.8-.8.8-.8c.07-.07.07-.19,0-.26Z"/>
    </g>
    <polyline class="cls-1-1-10" points="46.15 213 46.15 198.33 50.62 198.33"/>
    <polyline class="cls-1-1-10" points="82.51 198.33 86.98 198.33 86.98 221.31 46.15 221.31 46.15 216.09"/>
    <line class="cls-1-1-10" x1="68.9" y1="198.33" x2="77.84" y2="198.33"/>
    <line class="cls-1-1-10" x1="55.29" y1="198.33" x2="64.23" y2="198.33"/>
    <polyline class="cls-1-1-10" points="50.62 198.33 46.15 198.33 46.15 210.87 59.76 210.87 59.76 198.33 55.29 198.33"/>
    <polyline class="cls-1-1-10" points="64.23 198.33 59.76 198.33 59.76 210.87 73.37 210.87 73.37 198.33 68.9 198.33"/>
    <polyline class="cls-1-1-10" points="77.84 198.33 73.37 198.33 73.37 210.87 86.98 210.87 86.98 198.33 82.51 198.33"/>
    <rect class="cls-3-1-10" x="73.37" y="210.87" width="13.61" height="10.45"/>
    <g>
      <g>
        <path class="cls-5-1-10" d="m52.51,204.09c0,.2-.16.36-.36.36s-.36-.16-.36-.36.16-.36.36-.36.36.16.36.36Z"/>
        <path class="cls-5-1-10" d="m52.16,204.54c-.25,0-.85.02-.85.51v1.17c0,.08.06.14.13.14.08,0,.14-.06.14-.13l.07-.71.07,2.65c0,.1.08.18.18.18s.18-.08.18-.18l.07-1.63.07,1.63c0,.1.08.18.18.18s.18-.08.18-.18l.07-2.65.07.71c0,.08.07.14.14.13.08,0,.14-.07.13-.14v-1.17c0-.49-.59-.51-.85-.51Z"/>
      </g>
      <g>
        <path class="cls-5-1-10" d="m54.68,204.09c0,.2-.16.36-.36.36s-.36-.16-.36-.36.16-.36.36-.36.36.16.36.36Z"/>
        <path class="cls-5-1-10" d="m54.33,204.54c-.25,0-.85.02-.85.51v1.17c0,.08.06.14.13.14.08,0,.14-.06.14-.13l.07-.71.07,2.65c0,.1.08.18.18.18s.18-.08.18-.18l.07-1.63.07,1.63c0,.1.08.18.18.18s.18-.08.18-.18l.07-2.65.07.71c0,.08.07.14.14.13.08,0,.14-.07.13-.14v-1.17c0-.49-.59-.51-.85-.51Z"/>
      </g>
      <path class="cls-5-1-10" d="m55.57,208.61h-4.66c-.36,0-.65-.29-.65-.65v-4.99c0-.36.29-.65.65-.65h4.66c.36,0,.65.29.65.65v4.99c0,.36-.29.65-.65.65Zm-4.66-5.88c-.13,0-.24.11-.24.24v4.99c0,.13.11.24.24.24h4.66c.13,0,.24-.11.24-.24v-4.99c0-.13-.11-.24-.24-.24h-4.66Z"/>
      <path class="cls-5-1-10" d="m55.34,201l-.8-.8h0s-.13-.13-.13-.13l-.13.13h0s-.8.8-.8.8c-.07.07-.07.19,0,.26.07.07.19.07.26,0l.49-.49v1.09c0,.1.08.18.18.18s.18-.08.18-.18v-1.09s.49.49.49.49c.04.04.08.05.13.05s.09-.02.13-.05c.07-.07.07-.19,0-.26Z"/>
      <path class="cls-5-1-10" d="m53.07,200.94c-.07-.07-.19-.07-.26,0l-.49.49v-1.09c0-.1-.08-.18-.18-.18s-.18.08-.18.18v1.09s-.49-.49-.49-.49c-.07-.07-.19-.07-.26,0-.07.07-.07.19,0,.26l.8.8h0s.13.13.13.13l.13-.13h0s.8-.8.8-.8c.07-.07.07-.19,0-.26Z"/>
    </g>
    <g>
      <g>
        <path class="cls-5-1-10" d="m66.01,204.09c0,.2-.16.36-.36.36s-.36-.16-.36-.36.16-.36.36-.36.36.16.36.36Z"/>
        <path class="cls-5-1-10" d="m65.65,204.54c-.25,0-.85.02-.85.51v1.17c0,.08.06.14.13.14.08,0,.14-.06.14-.13l.07-.71.07,2.65c0,.1.08.18.18.18s.18-.08.18-.18l.07-1.63.07,1.63c0,.1.08.18.18.18s.18-.08.18-.18l.07-2.65.07.71c0,.08.07.14.14.13.08,0,.14-.07.13-.14v-1.17c0-.49-.59-.51-.85-.51Z"/>
      </g>
      <g>
        <path class="cls-5-1-10" d="m68.18,204.09c0,.2-.16.36-.36.36s-.36-.16-.36-.36.16-.36.36-.36.36.16.36.36Z"/>
        <path class="cls-5-1-10" d="m67.82,204.54c-.25,0-.85.02-.85.51v1.17c0,.08.06.14.13.14.08,0,.14-.06.14-.13l.07-.71.07,2.65c0,.1.08.18.18.18s.18-.08.18-.18l.07-1.63.07,1.63c0,.1.08.18.18.18s.18-.08.18-.18l.07-2.65.07.71c0,.08.07.14.14.13.08,0,.14-.07.13-.14v-1.17c0-.49-.59-.51-.85-.51Z"/>
      </g>
      <path class="cls-5-1-10" d="m69.07,208.61h-4.66c-.36,0-.65-.29-.65-.65v-4.99c0-.36.29-.65.65-.65h4.66c.36,0,.65.29.65.65v4.99c0,.36-.29.65-.65.65Zm-4.66-5.88c-.13,0-.24.11-.24.24v4.99c0,.13.11.24.24.24h4.66c.13,0,.24-.11.24-.24v-4.99c0-.13-.11-.24-.24-.24h-4.66Z"/>
      <path class="cls-5-1-10" d="m68.84,201l-.8-.8h0s-.13-.13-.13-.13l-.13.13h0s-.8.8-.8.8c-.07.07-.07.19,0,.26.07.07.19.07.26,0l.49-.49v1.09c0,.1.08.18.18.18s.18-.08.18-.18v-1.09s.49.49.49.49c.04.04.08.05.13.05s.09-.02.13-.05c.07-.07.07-.19,0-.26Z"/>
      <path class="cls-5-1-10" d="m66.57,200.94c-.07-.07-.19-.07-.26,0l-.49.49v-1.09c0-.1-.08-.18-.18-.18s-.18.08-.18.18v1.09s-.49-.49-.49-.49c-.07-.07-.19-.07-.26,0-.07.07-.07.19,0,.26l.8.8h0s.13.13.13.13l.13-.13h0s.8-.8.8-.8c.07-.07.07-.19,0-.26Z"/>
    </g>
    <g>
      <g>
        <path class="cls-5-1-10" d="m79.45,204.09c0,.2-.16.36-.36.36s-.36-.16-.36-.36.16-.36.36-.36.36.16.36.36Z"/>
        <path class="cls-5-1-10" d="m79.09,204.54c-.25,0-.85.02-.85.51v1.17c0,.08.06.14.13.14.08,0,.14-.06.14-.13l.07-.71.07,2.65c0,.1.08.18.18.18s.18-.08.18-.18l.07-1.63.07,1.63c0,.1.08.18.18.18s.18-.08.18-.18l.07-2.65.07.71c0,.08.07.14.14.13.08,0,.14-.07.13-.14v-1.17c0-.49-.59-.51-.85-.51Z"/>
      </g>
      <g>
        <path class="cls-5-1-10" d="m81.62,204.09c0,.2-.16.36-.36.36s-.36-.16-.36-.36.16-.36.36-.36.36.16.36.36Z"/>
        <path class="cls-5-1-10" d="m81.26,204.54c-.25,0-.85.02-.85.51v1.17c0,.08.06.14.13.14.08,0,.14-.06.14-.13l.07-.71.07,2.65c0,.1.08.18.18.18s.18-.08.18-.18l.07-1.63.07,1.63c0,.1.08.18.18.18s.18-.08.18-.18l.07-2.65.07.71c0,.08.07.14.14.13.08,0,.14-.07.13-.14v-1.17c0-.49-.59-.51-.85-.51Z"/>
      </g>
      <path class="cls-5-1-10" d="m82.51,208.61h-4.66c-.36,0-.65-.29-.65-.65v-4.99c0-.36.29-.65.65-.65h4.66c.36,0,.65.29.65.65v4.99c0,.36-.29.65-.65.65Zm-4.66-5.88c-.13,0-.24.11-.24.24v4.99c0,.13.11.24.24.24h4.66c.13,0,.24-.11.24-.24v-4.99c0-.13-.11-.24-.24-.24h-4.66Z"/>
      <path class="cls-5-1-10" d="m82.28,201l-.8-.8h0s-.13-.13-.13-.13l-.13.13h0s-.8.8-.8.8c-.07.07-.07.19,0,.26.07.07.19.07.26,0l.49-.49v1.09c0,.1.08.18.18.18s.18-.08.18-.18v-1.09s.49.49.49.49c.04.04.08.05.13.05s.09-.02.13-.05c.07-.07.07-.19,0-.26Z"/>
      <path class="cls-5-1-10" d="m80.01,200.94c-.07-.07-.19-.07-.26,0l-.49.49v-1.09c0-.1-.08-.18-.18-.18s-.18.08-.18.18v1.09s-.49-.49-.49-.49c-.07-.07-.19-.07-.26,0-.07.07-.07.19,0,.26l.8.8h0s.13.13.13.13l.13-.13h0s.8-.8.8-.8c.07-.07.07-.19,0-.26Z"/>
    </g>
    <g>
      <path class="cls-5-1-10" d="m61.53,212.26c0,.24-.19.43-.43.43s-.43-.19-.43-.43.19-.43.43-.43.43.19.43.43Z"/>
      <polygon class="cls-5-1-10" points="63.67 216.91 62.13 216.91 62.13 217.46 60.74 217.46 60.74 218.01 59.4 218.01 59.4 218.56 58.05 218.56 58.05 219.1 56.71 219.1 56.71 219.66 55.86 219.66 55.86 220.36 57.49 220.36 57.49 219.79 58.82 219.79 58.82 219.24 60.17 219.24 60.17 218.69 61.51 218.69 61.51 218.14 62.85 218.14 62.85 217.61 63.67 217.61 63.67 216.91"/>
      <path class="cls-5-1-10" d="m61.62,214.92c-.32-.21-.63-.41-.67-.44.11-.55.21-1.04.26-1.33,0,0,.04-.27-.18-.31-.3-.06-.73.17-1.2.53-.05.04-.13.1-.16.21-.03.1-.14.69-.2.94-.02.09.03.19.13.21.09.02.18-.03.21-.13.07-.21.2-.65.22-.69.03-.04.21-.19.21-.19l-.36,3.67c0,.11.09.2.19.21.12.01.23-.08.24-.2,0,0,.24-1.06.47-2.16l.41.19-.22,1.07c-.03.1.02.21.12.25.1.03.21-.02.25-.12,0,0,.37-.9.42-1.06.05-.17.18-.43-.15-.65Z"/>
      <g>
        <path class="cls-5-1-10" d="m57.84,213.48c0,.24-.19.43-.43.43s-.43-.19-.43-.43.19-.43.43-.43.43.19.43.43Z"/>
        <path class="cls-5-1-10" d="m58.81,215.95s-.06-.48-.12-.77c-.02-.07-.04-.13-.09-.22-.17-.29-.41-.64-.63-.75-.35-.18-.7-.08-.86.2-.17.3-.39.79-1,1.18-.08.05-.14.12-.11.21.03.09.12.14.21.11.01,0,.02,0,.03-.01.13-.06.66-.3.84-.59l-.15,3.3c-.01.12.07.23.19.25.12.01.23-.08.24-.2l.68-3.65s.22.18.27.33c.04.1.11.39.16.66,0,0,0,0,0,0,.02.1.1.16.19.15.09-.01.16-.1.15-.19Z"/>
        <path class="cls-5-1-10" d="m58.89,217.46l-1.21-.98-.1.71,1.06.61c.09.07.22.05.29-.04.07-.09.05-.22-.04-.29Z"/>
      </g>
    </g>
    <polygon class="cls-1-1-10" points="95.14 2.2 95.14 40.86 127.69 40.86 127.69 232.5 3.97 232.5 3.97 40.86 45.25 40.86 45.25 30.74 45.26 30.74 45.26 41.73 45.36 50.38 65.13 50.38 65.13 2.2 3.97 2.2 3.97 2.16 127.69 2.16 127.69 2.2 95.14 2.2"/>
    <polyline class="cls-1-1-10" points="86.54 40.86 86.99 40.86 95.14 40.86"/>
    <line class="cls-1-1-10" x1="95.14" y1="2.2" x2="86.54" y2="2.2"/>
    <line class="cls-1-1-10" x1="120.19" y1="56.09" x2="120.19" y2="40.86"/>
    <line class="cls-1-1-10" x1="120.19" y1="64.34" x2="120.19" y2="58.7"/>
    <path class="cls-1-1-10" d="m127.69,40.86v23.48h-32.55v-12.87h12.13c1.37,0,2.59-.61,3.42-1.58.09-.13.19-.25.28-.39.08-.12.15-.24.22-.36.09-.16.16-.32.22-.48.05-.11.09-.21.12-.32.13-.42.2-.87.2-1.33s-.07-.91-.2-1.33c-.03-.11-.07-.22-.12-.32-.06-.16-.13-.32-.22-.48-.07-.12-.14-.24-.22-.36-.08-.12-.16-.23-.24-.34-.02-.01-.04-.03-.04-.05-.83-.97-2.05-1.58-3.42-1.58h-12.13v-1.69h32.55Z"/>
    <rect class="cls-1-1-10" x="95.14" y="166.9" width="32.55" height="13.1"/>
    <rect class="cls-1-1-10" x="3.97" y="196.53" width="32.55" height="13.1"/>
    <rect class="cls-1-1-10" x="3.97" y="131.68" width="32.55" height="39.05"/>
    <rect class="cls-1-1-10" x="3.97" y="40.98" width="32.55" height="12.82"/>
    <rect class="cls-1-1-10" x="95.14" y="115.62" width="32.55" height="25.64"/>
    <rect class="cls-1-1-10" x="95.14" y="89.98" width="32.55" height="25.64"/>
    <line class="cls-1-1-10" x1="95.14" y1="102.8" x2="127.69" y2="102.8"/>
    <rect class="cls-1-1-10" x="95.14" y="64.34" width="32.55" height="25.64"/>
    <line class="cls-1-1-10" x1="95.14" y1="77.16" x2="127.69" y2="77.16"/>
    <g>
      <path class="cls-5-1-10" d="m104.39,44.09c0,.2-.16.36-.36.36s-.36-.16-.36-.36.16-.36.36-.36.36.16.36.36Z"/>
      <polygon class="cls-5-1-10" points="106.17 47.95 104.89 47.95 104.89 48.41 103.74 48.41 103.74 48.86 102.62 48.86 102.62 49.32 101.51 49.32 101.51 49.77 100.39 49.77 100.39 50.23 99.68 50.23 99.68 50.81 101.04 50.81 101.04 50.34 102.14 50.34 102.14 49.88 103.26 49.88 103.26 49.43 104.38 49.43 104.38 48.97 105.49 48.97 105.49 48.53 106.17 48.53 106.17 47.95"/>
      <path class="cls-5-1-10" d="m104.47,46.29c-.26-.17-.52-.34-.56-.37.09-.45.18-.86.22-1.11,0,0,.03-.22-.15-.26-.25-.05-.6.14-1,.44-.04.03-.11.09-.13.18-.02.08-.12.57-.17.78-.02.08.03.16.11.18.08.02.15-.03.18-.11.06-.17.17-.54.18-.57.02-.03.17-.16.17-.16l-.3,3.05c0,.09.07.16.16.17.1.01.19-.06.2-.17,0,0,.2-.88.39-1.79l.34.16-.18.89c-.03.09.02.18.1.21.09.03.18-.02.21-.1,0,0,.31-.75.35-.88.04-.14.15-.36-.12-.54Z"/>
      <g>
        <path class="cls-5-1-10" d="m101.33,45.1c0,.2-.16.36-.36.36s-.36-.16-.36-.36.16-.36.36-.36.36.16.36.36Z"/>
        <path class="cls-5-1-10" d="m102.13,47.15s-.05-.39-.1-.64c-.01-.06-.03-.11-.07-.18-.14-.24-.34-.53-.52-.62-.29-.15-.58-.06-.71.17-.14.25-.33.65-.83.98-.07.04-.11.1-.09.17.02.07.1.11.17.09,0,0,.02,0,.02-.01.11-.05.54-.25.69-.49l-.12,2.74c-.01.1.06.19.16.2.1.01.19-.06.2-.17l.57-3.03s.18.15.23.27c.03.08.09.32.14.54,0,0,0,0,0,0,.02.08.08.13.16.12.08-.01.13-.08.12-.16Z"/>
        <path class="cls-5-1-10" d="m102.2,48.41l-1.01-.82-.09.59.88.51c.08.06.19.04.24-.03.06-.08.04-.19-.03-.24Z"/>
      </g>
    </g>
    <line class="cls-1-1-10" x1="3.97" y1="183.35" x2="36.53" y2="183.35"/>
    <rect class="cls-1-1-10" x="3.97" y="53.8" width="32.55" height="39.05"/>
    <polygon class="cls-1-1-10" points="45.26 41.73 45.36 50.38 45.26 50.38 45.26 41.73"/>
    <polygon class="cls-1-1-10" points="95.14 2.2 95.14 40.86 86.54 40.86 86.54 50.38 65.13 50.38 65.13 2.2 95.14 2.2"/>
    <line class="cls-1-1-10" x1="95.14" y1="128.44" x2="127.69" y2="128.44"/>
    <rect class="cls-1-1-10" x="95.14" y="141.26" width="32.55" height="25.64"/>
    <line class="cls-1-1-10" x1="95.14" y1="154.08" x2="127.69" y2="154.08"/>
    <rect class="cls-1-1-10" x="95.14" y="209.77" width="32.55" height="22.73"/>
    <rect class="cls-1-1-10" x="95.14" y="180" width="32.55" height="29.69"/>
    <rect class="cls-3-1-10" x="120.19" y="41" width="7.49" height="23.34"/>
    <rect class="cls-1-1-10" x="3.97" y="92.71" width="32.55" height="39.05"/>
    <rect class="cls-4-1-10" x="4.08" y="170" width="32.56" height="62"/>
  </g>
</svg>