<?xml version="1.0" encoding="UTF-8"?>
<svg xmlns="http://www.w3.org/2000/svg" xmlns:xlink="http://www.w3.org/1999/xlink" viewBox="0 0 347.62 723.67">
  <defs>
    <style>
      .cls-1-1-12 {
        fill: none;
      }

      .cls-1-1-12, .cls-2-1-12, .cls-3-1-12, .cls-4-1-12, .cls-5-1-12, .cls-6-1-12, .cls-7-1-12, .cls-8-1-12, .cls-9-1-12 {
        stroke-miterlimit: 10;
        stroke-width: 2px;
      }

      .cls-1-1-12, .cls-3-1-12 {
        stroke: #231815;
      }

      .cls-2-1-12, .cls-1-1-120-1-12, .cls-1-1-121-1-12 {
        fill: #dcdddd;
      }

      .cls-2-1-12, .cls-8-1-12 {
        stroke: #dcdddd;
      }

      .cls-1-1-120-1-12 {
        font-size: 12px;
      }

      .cls-1-1-120-1-12, .cls-1-1-121-1-12 {
        font-family: KozGoPr6N-Regular-90ms-RKSJ-H, 'Kozuka Gothic Pr6N';
      }

      .cls-3-1-12 {
        fill: #231815;
      }

      .cls-1-1-121-1-12 {
        font-size: 10.55px;
      }

      .cls-4-1-12, .cls-5-1-12 {
        stroke: #7a1a24;
      }

      .cls-4-1-12, .cls-5-1-12, .cls-6-1-12, .cls-7-1-12, .cls-8-1-12, .cls-9-1-12 {
        fill: #7a1a24;
      }

      .cls-4-1-12, .cls-8-1-12, .cls-9-1-12 {
        opacity: .2;
      }

      .cls-6-1-12, .cls-9-1-12 {
        stroke: #595757;
      }

      .cls-7-1-12 {
        stroke: #585757;
      }
    </style>
  </defs>
  <g id="_レイヤー_4" data-name="レイヤー 4">
    
  </g>
  <g id="_レイヤー_3" data-name="レイヤー 3">
    <rect class="cls-8-1-12" x="63.1" y="5.31" width="167.94" height="81.33"/>
    <rect class="cls-8-1-12" x="124.48" y="78.14" width="108.35" height="170.05"/>
    <rect class="cls-8-1-12" x="257.68" y="78.14" width="84.15" height="42.3"/>
    <rect class="cls-8-1-12" x="257.68" y="196.68" width="84.15" height="520.71"/>
    <rect class="cls-8-1-12" x="7.92" y="286.09" width="91.09" height="81.19"/>
    <rect class="cls-8-1-12" x="7.92" y="449.65" width="91.09" height="267.74"/>
    <rect class="cls-9-1-12" x="7.92" y="367.28" width="91.09" height="82.37"/>
    <rect class="cls-4-1-12" x="21.86" y="120.44" width="38.23" height="77.85"/>
    <rect class="cls-4-1-12" x="62.08" y="194.26" width="36.93" height="2.59"/>
    <rect class="cls-4-1-12" x="62.08" y="189.2" width=".49" height="3.11"/>
    <rect class="cls-4-1-12" x="62.08" y="120.44" width="35.33" height="46.6"/>
    <rect class="cls-4-1-12" x="64.84" y="191.73" width=".28" height=".87" transform="translate(257.15 127.18) rotate(90)"/>
    <rect class="cls-2-1-12" x="62.55" y="166.94" width=".55" height="1.46"/>
    <rect class="cls-2-1-12" x="60.09" y="170.7" width="1.51" height="1.51"/>
  </g>
  <g id="_11212" data-name="11212">
    <rect class="cls-6-1-12" x="257.68" y="120.44" width="84.15" height="76.24"/>
    <text class="cls-1-1-120-1-12" transform="translate(275.03 163.17)"><tspan x="0" y="0">１２１２</tspan></text>
  </g>
  <g id="_11206" data-name="11206">
    <rect class="cls-6-1-12" x="7.92" y="198.29" width="91.09" height="87.8"/>
    <text class="cls-1-1-120-1-12" transform="translate(27.36 246.53)"><tspan x="0" y="0">１２０６</tspan></text>
  </g>
  <g id="_11208A" data-name="11208A">
    <rect class="cls-6-1-12" x="7.92" y="5.31" width="55.18" height="115.13"/>
    <rect class="cls-5-1-12" x="53.46" y="86.63" width="45.55" height="33.8"/>
    <text class="cls-1-1-120-1-12" transform="translate(25.07 105.61)"><tspan x="0" y="0">１２０８A</tspan></text>
  </g>
  <g id="_11209B" data-name="11209B">
    <rect class="cls-7-1-12" x="166.33" y="5.31" width="66.5" height="115.13"/>
    <text class="cls-1-1-121-1-12" transform="translate(170.24 62.87) scale(1.14 1)"><tspan x="0" y="0">１２０９B</tspan></text>
  </g>
  <g id="_11211A" data-name="11211A">
    <rect class="cls-7-1-12" x="232.83" y="5.31" width="109" height="72.83"/>
    <rect class="cls-5-1-12" x="232.83" y="62.87" width="24.85" height="57.56"/>
    <text class="cls-1-1-120-1-12" transform="translate(257.68 51.16)"><tspan x="0" y="0">１２１１A</tspan></text>
  </g>
  <g id="_レイヤー_2" data-name="レイヤー 2">
    <polyline class="cls-1-1-12" points="99.24 120.44 21.86 120.44 7.92 120.44 7.92 5.31 341.83 5.31 341.83 717.39 7.92 717.39 7.92 198.29 99.01 198.29"/>
    <rect class="cls-1-1-12" x="257.68" y="78.14" width="84.15" height="639.25"/>
    <rect class="cls-1-1-12" x="123.83" y="5.31" width="218" height="115.13"/>
    <rect class="cls-1-1-12" x="123.83" y="5.31" width="109" height="242.88"/>
    <rect class="cls-1-1-12" x="63.1" y="5.31" width="60.73" height="81.33"/>
    <path class="cls-1-1-12" d="m99.01,86.63v80.4h-30.65c-1.24.36-3.81,1.31-5.78,3.73-2.48,3.05-2.48,6.54-2.48,9.08,0,2.38,0,5.62,2.22,8.69,2.03,2.81,4.82,3.95,6.05,4.37h30.65v524.48"/>
    <line class="cls-1-1-12" x1="21.86" y1="120.44" x2="21.86" y2="198.29"/>
    <line class="cls-1-1-12" x1="45.28" y1="198.29" x2="45.28" y2="151.79"/>
    <line class="cls-1-1-12" x1="45.28" y1="134.81" x2="45.28" y2="120.44"/>
    <polyline class="cls-1-1-12" points="223.49 610.65 235.6 610.65 235.6 681.09 123.41 681.09 123.41 664.4"/>
    <line class="cls-1-1-12" x1="186.32" y1="610.65" x2="209.88" y2="610.65"/>
    <line class="cls-1-1-12" x1="149.15" y1="610.65" x2="172.71" y2="610.65"/>
    <polyline class="cls-1-1-12" points="123.41 652.71 123.41 610.65 135.41 610.65"/>
    <polyline class="cls-1-1-12" points="235.6 563.48 235.6 508.16 235.6 508.16 235.6 485.97 235.6 485.97 235.6 466.83 223.56 466.83"/>
    <line class="cls-1-1-12" x1="123.41" y1="649.14" x2="235.6" y2="649.14"/>
    <line class="cls-1-1-12" x1="198.1" y1="610.65" x2="198.1" y2="681.09"/>
    <line class="cls-1-1-12" x1="160.93" y1="610.65" x2="160.93" y2="649.14"/>
    <polyline class="cls-1-1-12" points="235.6 371.68 235.6 322.62 235.6 322.44"/>
    <line class="cls-1-1-12" x1="235.6" y1="451.93" x2="235.6" y2="447.37"/>
    <polygon class="cls-1-1-12" points="235.6 371.68 235.6 451.93 219.84 451.93 219.84 451.93 140.32 451.93 140.32 451.93 124.48 451.93 124.48 371.68 235.6 371.68"/>
    <polyline class="cls-1-1-12" points="198.57 333.73 198.57 322.62 235.6 322.62 235.6 371.68"/>
    <line class="cls-1-1-12" x1="198.57" y1="371.68" x2="198.57" y2="349.24"/>
    <polygon class="cls-1-1-12" points="235.6 273.21 235.6 322.44 209.9 322.44 209.9 285.62 142.13 286.09 142.13 304.54 142.13 304.54 142.13 319.94 124.22 319.94 124.22 273.21 235.6 273.21"/>
    <line class="cls-1-1-12" x1="198.57" y1="322.62" x2="156.8" y2="322.62"/>
    <line class="cls-1-1-12" x1="142.13" y1="321.19" x2="142.13" y2="318.69"/>
    <polyline class="cls-3-1-12" points="185.2 564.84 215.87 564.84 215.87 564.84 235.6 564.84"/>
    <polyline class="cls-1-1-12" points="235.6 565.78 235.6 525.76 124.48 525.76 124.48 564.84"/>
    <polyline class="cls-1-1-12" points="172.83 564.84 142.32 564.84 142.32 564.84 123.41 564.84"/>
    <line class="cls-1-1-12" x1="160.93" y1="525.76" x2="160.93" y2="564.84"/>
    <line class="cls-1-1-12" x1="198.1" y1="525.76" x2="198.1" y2="564.84"/>
    <polyline class="cls-1-1-12" points="215.4 466.83 180.04 466.83 180.04 525.76"/>
    <rect class="cls-1-1-12" x="180.04" y="466.83" width="22.02" height="14.34"/>
    <line class="cls-1-1-12" x1="170.24" y1="466.83" x2="144.71" y2="466.83"/>
    <polyline class="cls-1-1-12" points="133.76 466.83 124.48 466.83 124.48 485.51 124.48 485.51 124.52 504.19 124.48 515.15 124.48 525.76"/>
    <polyline class="cls-1-1-12" points="155.8 466.83 155.8 498.12 180.04 498.12"/>
    <line class="cls-1-1-12" x1="166.33" y1="5.31" x2="166.33" y2="120.44"/>
    <line class="cls-1-1-12" x1="194.09" y1="120.44" x2="194.09" y2="248.19"/>
    <rect class="cls-1-1-12" x="7.92" y="286.09" width="91.09" height="41.38"/>
    <rect class="cls-1-1-12" x="7.92" y="367.28" width="91.09" height="82.37"/>
    <rect class="cls-1-1-12" x="7.92" y="528.08" width="91.09" height="82.56"/>
    <line class="cls-1-1-12" x1="99.01" y1="688.78" x2="7.92" y2="688.78"/>
    <rect class="cls-1-1-12" x="257.68" y="607.72" width="84.15" height="41.42"/>
    <rect class="cls-1-1-12" x="257.68" y="487.72" width="84.15" height="40.53"/>
    <rect class="cls-1-1-12" x="257.68" y="366.77" width="84.15" height="80.6"/>
    <rect class="cls-1-1-12" x="257.68" y="236.25" width="84.15" height="49.47"/>
    <line class="cls-1-1-12" x1="257.68" y1="196.68" x2="341.83" y2="196.68"/>
    <rect class="cls-3-1-12" x="124.22" y="273.21" width="17.92" height="45.48"/>
    <rect class="cls-3-1-12" x="210.4" y="273.21" width="25.2" height="49.41"/>
    <rect class="cls-3-1-12" x="139.17" y="273.21" width="77.91" height="12.5"/>
    <rect class="cls-3-1-12" x="124.48" y="371.68" width="111.12" height="80.25"/>
    <rect class="cls-3-1-12" x="198.1" y="525.76" width="37.5" height="37.72"/>
    <rect class="cls-3-1-12" x="198.57" y="649.14" width="37.03" height="31.95"/>
    <rect class="cls-3-1-12" x="180.04" y="466.83" width="22.02" height="14.34"/>
  </g>
</svg>