<?xml version="1.0" encoding="UTF-8"?>
<svg xmlns="http://www.w3.org/2000/svg" xmlns:xlink="http://www.w3.org/1999/xlink" viewBox="0 0 188.5 307">
  <defs>
    <style>
      .cls-1-1-2 {
        font-size: 5px;
      }

      .cls-1-1-2, .cls-2-1-2 {
        fill: #fff;
      }

      .cls-1-1-2, .cls-2-1-2, .cls-3-1-2 {
        font-family: KozGoPr6N-Regular-90ms-RKSJ-H, 'Kozuka Gothic Pr6N';
      }

      .cls-4-1-2, .cls-5-1-2, .cls-6-1-2, .cls-7-1-2 {
        stroke-miterlimit: 10;
        stroke-width: 2px;
      }

      .cls-4-1-2, .cls-6-1-2 {
        fill: #7a1a24;
        stroke: #dbdcdc;
      }

      .cls-2-1-2, .cls-3-1-2 {
        font-size: 6.01px;
      }

      .cls-5-1-2 {
        fill: none;
      }

      .cls-5-1-2, .cls-7-1-2 {
        stroke: #231815;
      }

      .cls-8-1-2 {
        letter-spacing: .25em;
      }

      .cls-6-1-2 {
        opacity: .2;
      }

      .cls-7-1-2, .cls-3-1-2 {
        fill: #231815;
      }
    </style>
  </defs>
  <g id="_1200" data-name="1200">
    <rect class="cls-4-1-2" x="93.33" y="222.13" width="69.48" height="73.57"/>
    <text class="cls-2-1-2" transform="translate(113.95 261.08)"><tspan x="0" y="0">丹羽ホール</tspan></text>
  </g>
  <g id="_1204" data-name="1204">
    <rect class="cls-4-1-2" x="57.15" y="12" width="36.85" height="110"/>
    <text class="cls-2-1-2" transform="translate(63.02 27.88)"><tspan x="0" y="0">１２０６</tspan></text>
    <text class="cls-2-1-2" transform="translate(63.02 63.61)"><tspan x="0" y="0">１２０５</tspan></text>
    <text class="cls-2-1-2" transform="translate(63.99 102.04)"><tspan x="0" y="0">１２０４</tspan></text>
  </g>
  <g id="_1201" data-name="1201">
    <rect class="cls-4-1-2" x="56" y="184" width="32" height="20"/>
    <text class="cls-1-1-2" transform="translate(57 191.37)"><tspan x="0" y="0">東京電機大学</tspan><tspan x="7.5" y="8.75">同窓会</tspan></text>
  </g>
  <g id="_レイヤー_1" data-name="レイヤー 1">
    
    <rect class="cls-6-1-2" x="93" y="80.69" width="23.97" height="41.31"/>
    <rect class="cls-6-1-2" x="57" y="121.2" width="60.97" height="22.03"/>
    <rect class="cls-6-1-2" x="159.61" y="70.74" width="25.94" height="112.66"/>
    <rect class="cls-6-1-2" x="166.36" y="182.9" width="19.19" height="9.1"/>
    <rect class="cls-6-1-2" x="166.36" y="189.59" width="14.93" height="32.54"/>
    <rect class="cls-6-1-2" x="56.55" y="152.68" width="14.57" height="30.72"/>
    <line class="cls-5-1-2" x1="42.33" y1="12.1" x2="186.07" y2="12.1"/>
    <line class="cls-5-1-2" x1="28.12" y1="12.1" x2="33.67" y2="12.1"/>
    <line class="cls-5-1-2" x1="28.12" y1="17.78" x2="28.12" y2="12.1"/>
    <line class="cls-5-1-2" x1="28.12" y1="30.58" x2="28.12" y2="131.33"/>
    <line class="cls-5-1-2" x1="28.12" y1="141.46" x2="28.12" y2="269.4"/>
    <line class="cls-5-1-2" x1="38.2" y1="269.4" x2="27.61" y2="269.4"/>
    <line class="cls-5-1-2" x1="37.71" y1="303.52" x2="37.71" y2="269.4"/>
    <line class="cls-5-1-2" x1="54.42" y1="304.94" x2="49.73" y2="268.92"/>
    <line class="cls-5-1-2" x1="87.82" y1="269.4" x2="49.8" y2="269.4"/>
    <line class="cls-5-1-2" x1="56.55" y1="227.61" x2="93.33" y2="227.61"/>
    <line class="cls-5-1-2" x1="93.33" y1="221.63" x2="93.33" y2="296.19"/>
    <line class="cls-5-1-2" x1="162.81" y1="222.13" x2="93.33" y2="222.13"/>
    <line class="cls-5-1-2" x1="162.81" y1="296.21" x2="162.81" y2="221.63"/>
    <line class="cls-5-1-2" x1="93.33" y1="295.7" x2="162.81" y2="295.7"/>
    <line class="cls-5-1-2" x1="88.62" y1="227.61" x2="88.62" y2="300.82"/>
    <line class="cls-5-1-2" x1="168.64" y1="300.32" x2="88.62" y2="300.32"/>
    <line class="cls-5-1-2" x1="168.14" y1="268.89" x2="168.14" y2="300.32"/>
    <line class="cls-5-1-2" x1="186.07" y1="269.4" x2="168.14" y2="269.4"/>
    <line class="cls-5-1-2" x1="185.56" y1="12.1" x2="185.56" y2="269.4"/>
    <line class="cls-5-1-2" x1="49.29" y1="207.61" x2="65.82" y2="207.61"/>
    <line class="cls-5-1-2" x1="49.8" y1="78.73" x2="49.8" y2="207.61"/>
    <line class="cls-5-1-2" x1="49.8" y1="12.1" x2="49.8" y2="66.65"/>
    <line class="cls-5-1-2" x1="58.02" y1="12" x2="58.02" y2="143.74"/>
    <line class="cls-5-1-2" x1="93.33" y1="12.1" x2="93.33" y2="121.72"/>
    <line class="cls-5-1-2" x1="58.15" y1="121.2" x2="116.97" y2="121.2"/>
    <line class="cls-5-1-2" x1="58.02" y1="143.24" x2="116.97" y2="143.24"/>
    <line class="cls-5-1-2" x1="93.33" y1="80.69" x2="116.97" y2="80.69"/>
    <line class="cls-5-1-2" x1="116.97" y1="70.74" x2="116.97" y2="143.74"/>
    <line class="cls-5-1-2" x1="185.56" y1="70.74" x2="116.97" y2="70.74"/>
    <line class="cls-5-1-2" x1="159.61" y1="183.89" x2="159.61" y2="70.74"/>
    <line class="cls-5-1-2" x1="185.56" y1="98.81" x2="159.61" y2="98.81"/>
    <line class="cls-5-1-2" x1="159.61" y1="140.04" x2="185.56" y2="140.04"/>
    <line class="cls-5-1-2" x1="159.61" y1="183.4" x2="185.56" y2="183.4"/>
    <line class="cls-5-1-2" x1="166.36" y1="183.4" x2="166.36" y2="222.63"/>
    <line class="cls-5-1-2" x1="181.29" y1="222.63" x2="181.29" y2="190.52"/>
    <line class="cls-5-1-2" x1="166.36" y1="222.13" x2="181.29" y2="222.13"/>
    <line class="cls-5-1-2" x1="166.36" y1="202.76" x2="181.29" y2="202.76"/>
    <line class="cls-5-1-2" x1="181.29" y1="191.03" x2="185.56" y2="191.03"/>
    <line class="cls-5-1-2" x1="162.81" y1="227.61" x2="185.56" y2="227.61"/>
    <line class="cls-5-1-2" x1="124.05" y1="102.58" x2="124.05" y2="123.53"/>
    <line class="cls-5-1-2" x1="153.12" y1="123.53" x2="124.05" y2="123.53"/>
    <line class="cls-5-1-2" x1="153.12" y1="77.5" x2="153.12" y2="123.53"/>
    <line class="cls-5-1-2" x1="124.05" y1="77.5" x2="153.12" y2="77.5"/>
    <line class="cls-5-1-2" x1="153.12" y1="123.53" x2="153.12" y2="152.23"/>
    <line class="cls-5-1-2" x1="124.05" y1="143.06" x2="153.12" y2="143.06"/>
    <line class="cls-5-1-2" x1="124.05" y1="152.24" x2="124.05" y2="127.53"/>
    <line class="cls-5-1-2" x1="136.25" y1="151.79" x2="124.05" y2="151.79"/>
    <line class="cls-5-1-2" x1="142.04" y1="151.79" x2="153.12" y2="151.79"/>
    <line class="cls-5-1-2" x1="130.36" y1="164.17" x2="136.63" y2="164.17"/>
    <line class="cls-5-1-2" x1="141.13" y1="164.17" x2="146.65" y2="164.17"/>
    <line class="cls-5-1-2" x1="150.61" y1="164.17" x2="153.12" y2="164.17"/>
    <line class="cls-5-1-2" x1="126.82" y1="164.12" x2="116.97" y2="164.12"/>
    <line class="cls-5-1-2" x1="131.56" y1="183.74" x2="153.12" y2="183.74"/>
    <line class="cls-5-1-2" x1="153.12" y1="163.72" x2="153.12" y2="182.9"/>
    <line class="cls-5-1-2" x1="124.05" y1="163.67" x2="124.05" y2="171.54"/>
    <line class="cls-5-1-2" x1="124.05" y1="173.28" x2="152.95" y2="173.28"/>
    <line class="cls-5-1-2" x1="133.43" y1="164.17" x2="133.43" y2="173.28"/>
    <line class="cls-5-1-2" x1="143.97" y1="164.17" x2="143.97" y2="173.54"/>
    <line class="cls-5-1-2" x1="143.97" y1="181.63" x2="143.97" y2="173.54"/>
    <line class="cls-5-1-2" x1="131.56" y1="183.74" x2="131.56" y2="181.63"/>
    <line class="cls-5-1-2" x1="143.97" y1="181.63" x2="131.56" y2="181.63"/>
    <line class="cls-5-1-2" x1="124.05" y1="171.54" x2="124.05" y2="175.33"/>
    <line class="cls-5-1-2" x1="153.12" y1="182.9" x2="153.12" y2="200.68"/>
    <rect class="cls-7-1-2" x="124.05" y="77.5" width="6.1" height="14.77"/>
    <rect class="cls-7-1-2" x="126.82" y="77.5" width="26.29" height="5.41"/>
    <rect class="cls-7-1-2" x="147.18" y="81.7" width="5.93" height="10.56"/>
    <rect class="cls-7-1-2" x="124.05" y="103.59" width="29.06" height="19.94"/>
    <rect class="cls-7-1-2" x="124.05" y="102.58" width="18.83" height="6.68"/>
    <rect class="cls-7-1-2" x="143.97" y="173.54" width="8.32" height="10.2"/>
    <rect class="cls-7-1-2" x="124.37" y="181.63" width="19.27" height="2.1"/>
    <line class="cls-5-1-2" x1="142.88" y1="102.58" x2="142.88" y2="99.56"/>
    <line class="cls-5-1-2" x1="147.18" y1="92.27" x2="141.4" y2="92.27"/>
    <line class="cls-5-1-2" x1="142.88" y1="92.18" x2="142.88" y2="94.54"/>
    <line class="cls-5-1-2" x1="133.43" y1="143.24" x2="133.43" y2="151.79"/>
    <line class="cls-5-1-2" x1="143.97" y1="143.24" x2="143.97" y2="151.79"/>
    <line class="cls-5-1-2" x1="141.13" y1="123.53" x2="141.13" y2="134.22"/>
    <line class="cls-5-1-2" x1="145.89" y1="143.24" x2="145.89" y2="137.88"/>
    <line class="cls-5-1-2" x1="145.89" y1="133.85" x2="140.62" y2="133.85"/>
    <line class="cls-5-1-2" x1="136.63" y1="125.9" x2="136.63" y2="143.06"/>
    <line class="cls-5-1-2" x1="128.5" y1="135.3" x2="128.5" y2="125.9"/>
    <line class="cls-5-1-2" x1="136.63" y1="126.37" x2="128.5" y2="126.37"/>
    <line class="cls-5-1-2" x1="132.56" y1="135.06" x2="136.63" y2="135.06"/>
    <line class="cls-5-1-2" x1="123.54" y1="127.79" x2="125.94" y2="127.79"/>
    <line class="cls-5-1-2" x1="125.44" y1="143.06" x2="125.44" y2="127.53"/>
    <line class="cls-5-1-2" x1="124.09" y1="178.64" x2="124.09" y2="184.24"/>
    <line class="cls-5-1-2" x1="123.64" y1="180.2" x2="116.97" y2="180.2"/>
    <line class="cls-5-1-2" x1="56.55" y1="152.48" x2="116.97" y2="152.48"/>
    <line class="cls-5-1-2" x1="116.97" y1="180.69" x2="116.97" y2="151.98"/>
    <line class="cls-5-1-2" x1="93.33" y1="161.7" x2="93.33" y2="152.68"/>
    <line class="cls-5-1-2" x1="111.39" y1="161.19" x2="93.33" y2="161.19"/>
    <line class="cls-5-1-2" x1="111.39" y1="182.9" x2="111.39" y2="160.69"/>
    <line class="cls-5-1-2" x1="96.52" y1="161.19" x2="96.52" y2="174.6"/>
    <line class="cls-5-1-2" x1="96.52" y1="178.64" x2="96.52" y2="182.9"/>
    <line class="cls-5-1-2" x1="101.64" y1="170.45" x2="101.64" y2="176.3"/>
    <line class="cls-5-1-2" x1="111.39" y1="173.27" x2="101.64" y2="173.27"/>
    <line class="cls-5-1-2" x1="79.12" y1="161.19" x2="87.49" y2="161.19"/>
    <line class="cls-5-1-2" x1="87.49" y1="176.3" x2="87.49" y2="160.69"/>
    <line class="cls-5-1-2" x1="96.52" y1="170.45" x2="87.56" y2="170.45"/>
    <line class="cls-5-1-2" x1="79.12" y1="168.85" x2="87.49" y2="168.85"/>
    <line class="cls-5-1-2" x1="79.37" y1="176.3" x2="88" y2="176.3"/>
    <line class="cls-5-1-2" x1="79.12" y1="164.62" x2="79.12" y2="160.69"/>
    <line class="cls-5-1-2" x1="79.12" y1="166.83" x2="79.12" y2="170.61"/>
    <line class="cls-5-1-2" x1="79.12" y1="174.6" x2="79.12" y2="183.89"/>
    <line class="cls-5-1-2" x1="79.12" y1="164.12" x2="71.12" y2="164.12"/>
    <line class="cls-5-1-2" x1="71.12" y1="153.02" x2="71.12" y2="183.4"/>
    <line class="cls-5-1-2" x1="56.55" y1="151.98" x2="56.55" y2="183.4"/>
    <line class="cls-5-1-2" x1="71.12" y1="182.9" x2="56.55" y2="182.9"/>
    <line class="cls-5-1-2" x1="79.12" y1="183.4" x2="113.95" y2="183.4"/>
    <line class="cls-5-1-2" x1="88.62" y1="183.74" x2="88.62" y2="202.51"/>
    <line class="cls-5-1-2" x1="113.1" y1="202.51" x2="88.11" y2="202.51"/>
    <line class="cls-5-1-2" x1="113.1" y1="196.54" x2="95.3" y2="196.54"/>
    <line class="cls-5-1-2" x1="112.12" y1="189.59" x2="95.3" y2="189.59"/>
    <line class="cls-5-1-2" x1="95.3" y1="183.4" x2="95.3" y2="202.51"/>
    <line class="cls-5-1-2" x1="111.39" y1="196.54" x2="111.39" y2="202.51"/>
    <line class="cls-5-1-2" x1="56.55" y1="207.61" x2="56.55" y2="215.67"/>
    <line class="cls-5-1-2" x1="56.55" y1="221.28" x2="56.55" y2="228.11"/>
    <line class="cls-5-1-2" x1="65.32" y1="207.61" x2="65.32" y2="215.67"/>
    <line class="cls-5-1-2" x1="65.32" y1="221.28" x2="65.32" y2="227.61"/>
    <rect class="cls-7-1-2" x="93.33" y="12.1" width="92.22" height="58.64"/>
    <rect class="cls-7-1-2" x="93.33" y="70.74" width="23.63" height="9.95"/>
    <rect class="cls-7-1-2" x="88.62" y="183.74" width="6.68" height="18.77"/>
    <line class="cls-5-1-2" x1="124.74" y1="143.06" x2="124.74" y2="128.15"/>
    <text class="cls-3-1-2" transform="translate(.14 26.95)"><tspan x="0" y="0">3・</tspan><tspan class="cls-8-1-2" x="9.33" y="0">4</tspan><tspan x="14.14" y="0">号館</tspan></text>
    <text class="cls-3-1-2" transform="translate(.14 137.94)"><tspan x="0" y="0">2・</tspan><tspan class="cls-8-1-2" x="9.33" y="0">3</tspan><tspan x="14.14" y="0">号館</tspan></text>
    <text class="cls-3-1-2" transform="translate(29.46 8.97)"><tspan x="0" y="0">５号館</tspan></text>
    <line class="cls-5-1-2" x1="58.15" y1="39.46" x2="92.91" y2="39.46"/>
    <line class="cls-5-1-2" x1="58.15" y1="80.69" x2="93.33" y2="80.69"/>
    <line class="cls-5-1-2" x1="159.26" y1="120.14" x2="185.56" y2="120.14"/>
    <line class="cls-5-1-2" x1="159.61" y1="160.69" x2="185.56" y2="160.69"/>
    
  </g>
</svg>