<?xml version="1.0" encoding="UTF-8"?>
<svg xmlns="http://www.w3.org/2000/svg" viewBox="0 0 221 235.5">
  <defs>
    <style>
      .cls-1-1-3 {
        fill: none;
      }

      .cls-1-1-3, .cls-2-1-3 {
        stroke: #231815;
        stroke-miterlimit: 10;
      }

      .cls-3-1-3, .cls-4-1-3, .cls-5-1-3, .cls-6-1-3, .cls-7-1-3 {
        stroke-width: 0px;
      }

      .cls-3-1-3, .cls-2-1-3 {
        fill: #231815;
      }

      .cls-4-1-3 {
        opacity: .2;
      }

      .cls-4-1-3, .cls-7-1-3 {
        fill: #7a1a24;
      }

      .cls-5-1-3 {
        fill: #2d3e6a;
      }

      .cls-6-1-3 {
        fill: #ba1f21;
      }

      .cls-8-1-3 {
        fill: #fff;
        font-family: KozGoPr6N-Regular-90ms-RKSJ-H, 'Kozuka Gothic Pr6N';
        font-size: 7px;
      }
    </style>
  </defs>
  <g id="_10317" data-name="10317">
    <polygon class="cls-7-1-3" points="185.58 1.98 175.9 1.98 175.9 1.89 45.76 1.89 45.76 68.05 175.9 68.05 175.9 51.45 185.58 51.45 185.58 1.98"/>
    <text class="cls-8-1-3" transform="translate(97.74 37.97)"><tspan x="0" y="0">1０３１７</tspan></text>
  </g>
  <g id="_レイヤー_1" data-name="レイヤー 1">
    <rect class="cls-4-1-3" x="60.31" y="77.73" width="65.85" height="67.64"/>
    <rect class="cls-4-1-3" x="100.47" y="145.09" width="25.69" height="86.82"/>
    <rect class="cls-4-1-3" x="176.02" y="119.77" width="42.64" height="112.48"/>
    <rect class="cls-4-1-3" x="185.58" y="1.82" width="33.08" height="118.29"/>
    <polyline class="cls-1-1-3" points="50.69 68.11 50.69 183.95 3 183.95 3 1.82 50.69 1.82"/>
    <path class="cls-1-1-3" d="m50.69,1.82h167.97v230.09h-118.19s-15.67,1.01-20.54-.49c-1.79-.55-6.24-2.33-9.75-7.26-2.84-3.98-4.26-11.67-5.51-13.61-2.04-3.17-4.85-3.3-8.77-6.86-2.15-1.95-4.69-6.38-5-10.33-.2-2.51-.2-9.42-.2-9.42v-115.84"/>
    <rect class="cls-1-1-3" x="185.58" y="1.82" width="33.08" height="24.81"/>
    <rect class="cls-1-1-3" x="185.58" y="120.11" width="33.08" height="12.41"/>
    <rect class="cls-1-1-3" x="185.58" y="26.63" width="33.08" height="24.81"/>
    <rect class="cls-1-1-3" x="185.58" y="51.45" width="33.08" height="24.81"/>
    <line class="cls-1-1-3" x1="185.58" y1="39.04" x2="218.66" y2="39.04"/>
    <rect class="cls-1-1-3" x="185.58" y="76.26" width="33.08" height="43.85"/>
    <rect class="cls-1-1-3" x="185.58" y="132.51" width="33.08" height="90.19"/>
    <rect class="cls-1-1-3" x="3" y="95.26" width="47.69" height="88.69"/>
    <rect class="cls-1-1-3" x="33.12" y="1.82" width="12.68" height="33.14"/>
    <rect class="cls-1-1-3" x="33.12" y="34.97" width="12.68" height="17.97"/>
    <rect class="cls-1-1-3" x="33.12" y="52.94" width="12.68" height="23.1"/>
    <rect class="cls-2-1-3" x="45.8" y="68.11" width="4.89" height="7.93"/>
    <rect class="cls-2-1-3" x="45.8" y="83.52" width="4.89" height="19.78"/>
    <rect class="cls-2-1-3" x="45.8" y="110.77" width="4.89" height="19.78"/>
    <rect class="cls-2-1-3" x="45.8" y="138.03" width="4.89" height="19.78"/>
    <rect class="cls-2-1-3" x="45.8" y="165.29" width="4.89" height="9.89"/>
    <rect class="cls-1-1-3" x="3" y="1.82" width="30.12" height="24.48"/>
    <rect class="cls-1-1-3" x="3" y="26.3" width="22.39" height="19.94"/>
    <rect class="cls-1-1-3" x="3" y="46.24" width="22.39" height="19.94"/>
    <rect class="cls-1-1-3" x="3" y="66.18" width="22.39" height="19.94"/>
    <rect class="cls-2-1-3" x="3" y="86.12" width="22.39" height="9.14"/>
    <polygon class="cls-1-1-3" points="45.8 1.82 45.8 68.11 176.02 68.11 176.02 51.45 185.58 51.45 185.58 1.82 45.8 1.82"/>
    <rect class="cls-1-1-3" x="176.02" y="120.11" width="42.64" height="111.81"/>
    <rect class="cls-2-1-3" x="134.04" y="119" width="41.98" height="26.37"/>
    <polyline class="cls-1-1-3" points="134.04 101.02 134.04 85.94 176.02 85.94 176.02 119 134.04 119"/>
    <line class="cls-1-1-3" x1="162.55" y1="110.87" x2="162.55" y2="119"/>
    <line class="cls-1-1-3" x1="162.55" y1="101.02" x2="162.55" y2="106.1"/>
    <polyline class="cls-2-1-3" points="146.97 101.02 166.74 101.02 166.74 89.43 140.74 89.43 140.74 101.02 134.04 101.02 134.04 85.94 176.02 85.94 176.02 101.02 146.97 101.02"/>
    <g>
      <path class="cls-3-1-3" d="m157.05,91.77c0,.25-.2.45-.45.45s-.45-.2-.45-.45.2-.45.45-.45.45.2.45.45Z"/>
      <polygon class="cls-3-1-3" points="159.25 96.56 157.66 96.56 157.66 97.12 156.24 97.12 156.24 97.69 154.85 97.69 154.85 98.25 153.47 98.25 153.47 98.81 152.09 98.81 152.09 99.38 151.21 99.38 151.21 100.1 152.89 100.1 152.89 99.51 154.26 99.51 154.26 98.95 155.64 98.95 155.64 98.39 157.03 98.39 157.03 97.82 158.41 97.82 158.41 97.28 159.25 97.28 159.25 96.56"/>
      <path class="cls-3-1-3" d="m157.14,94.51c-.33-.21-.65-.42-.69-.46.12-.56.22-1.07.27-1.37,0,0,.04-.28-.18-.32-.31-.06-.75.17-1.24.55-.06.04-.14.11-.16.22-.03.1-.14.71-.21.97-.02.1.03.19.13.22.1.02.19-.04.22-.13.07-.21.21-.67.23-.71.03-.04.22-.2.22-.2l-.37,3.78c0,.11.09.2.2.21.12.01.23-.08.24-.21,0,0,.24-1.09.49-2.22l.42.19-.22,1.1c-.04.11.02.22.13.26.11.04.22-.02.26-.13,0,0,.38-.93.43-1.09.05-.17.19-.44-.15-.66Z"/>
      <g>
        <path class="cls-3-1-3" d="m153.25,93.03c0,.25-.2.45-.45.45s-.45-.2-.45-.45.2-.45.45-.45.45.2.45.45Z"/>
        <path class="cls-3-1-3" d="m154.25,95.57s-.06-.49-.13-.79c-.02-.07-.04-.13-.09-.22-.18-.3-.42-.65-.65-.77-.36-.18-.72-.08-.88.21-.18.31-.41.81-1.03,1.21-.08.05-.14.12-.11.21.03.09.12.14.21.11.01,0,.02,0,.03-.01.13-.06.67-.31.86-.6l-.15,3.39c-.01.13.07.24.2.25.12.01.23-.08.24-.21l.7-3.75s.22.19.28.34c.04.1.12.4.17.67,0,0,0,0,0,0,.02.1.1.16.2.15.1-.01.16-.1.15-.2Z"/>
        <path class="cls-3-1-3" d="m154.34,97.12l-1.25-1.01-.11.73,1.09.63c.09.07.23.05.3-.04.07-.09.05-.23-.04-.3Z"/>
      </g>
    </g>
    <g>
      <g>
        <path class="cls-3-1-3" d="m168.62,109.32c0,.2-.16.37-.37.37s-.37-.16-.37-.37.16-.37.37-.37.37.16.37.37Z"/>
        <path class="cls-3-1-3" d="m168.25,109.78c-.26,0-.87.02-.87.53v1.2c0,.08.06.15.14.15.08,0,.15-.06.15-.14l.07-.73.07,2.72c0,.1.08.19.19.19s.19-.08.19-.19l.07-1.67.07,1.67c0,.1.08.19.19.19s.19-.08.19-.19l.07-2.72.07.73c0,.08.07.14.15.14.08,0,.14-.07.14-.15v-1.2c0-.5-.61-.53-.87-.53Z"/>
      </g>
      <g>
        <path class="cls-3-1-3" d="m170.85,109.32c0,.2-.16.37-.37.37s-.37-.16-.37-.37.16-.37.37-.37.37.16.37.37Z"/>
        <path class="cls-3-1-3" d="m170.48,109.78c-.26,0-.87.02-.87.53v1.2c0,.08.06.15.14.15.08,0,.15-.06.15-.14l.07-.73.07,2.72c0,.1.08.19.19.19s.19-.08.19-.19l.07-1.67.07,1.67c0,.1.08.19.19.19s.19-.08.19-.19l.07-2.72.07.73c0,.08.07.14.15.14.08,0,.14-.07.14-.15v-1.2c0-.5-.61-.53-.87-.53Z"/>
      </g>
      <path class="cls-3-1-3" d="m171.76,113.96h-4.79c-.37,0-.67-.3-.67-.67v-5.13c0-.37.3-.67.67-.67h4.79c.37,0,.67.3.67.67v5.13c0,.37-.3.67-.67.67Zm-4.79-6.04c-.14,0-.25.11-.25.25v5.13c0,.14.11.25.25.25h4.79c.14,0,.25-.11.25-.25v-5.13c0-.14-.11-.25-.25-.25h-4.79Z"/>
      <path class="cls-3-1-3" d="m171.52,106.14l-.82-.82h0s-.13-.13-.13-.13l-.13.13h0s-.82.82-.82.82c-.07.07-.07.19,0,.26.07.07.19.07.26,0l.5-.5v1.13c0,.1.08.19.19.19s.19-.08.19-.19v-1.13s.5.5.5.5c.04.04.08.05.13.05s.1-.02.13-.05c.07-.07.07-.19,0-.26Z"/>
      <path class="cls-3-1-3" d="m169.19,106.07c-.07-.07-.19-.07-.26,0l-.5.5v-1.13c0-.1-.08-.19-.19-.19s-.19.08-.19.19v1.13s-.5-.5-.5-.5c-.07-.07-.19-.07-.26,0-.07.07-.07.19,0,.26l.82.82h0s.13.13.13.13l.13-.13h0s.82-.82.82-.82c.07-.07.07-.19,0-.26Z"/>
    </g>
    <polyline class="cls-1-1-3" points="172.39 150.76 176.02 150.76 176.02 184 157.43 184"/>
    <line class="cls-1-1-3" x1="155.95" y1="150.76" x2="167.44" y2="150.76"/>
    <line class="cls-1-1-3" x1="142.56" y1="150.76" x2="153.36" y2="150.76"/>
    <polyline class="cls-1-1-3" points="134.04 173.5 134.04 150.76 137.7 150.76"/>
    <polyline class="cls-1-1-3" points="152.63 184 134.04 184 134.04 177.58"/>
    <polyline class="cls-1-1-3" points="153.36 150.76 146.24 150.76 146.24 161.99 155.95 161.99 155.95 150.76"/>
    <line class="cls-1-1-3" x1="153.36" y1="150.76" x2="142.56" y2="150.76"/>
    <polyline class="cls-1-1-3" points="137.7 150.76 134.04 150.76 134.04 171.11 155.95 171.11 155.95 150.76"/>
    <rect class="cls-2-1-3" x="155.95" y="150.76" width="8.13" height="4.94"/>
    <polyline class="cls-1-1-3" points="157.43 184 162.03 184 162.03 171.11 148.03 171.11 148.03 184 152.63 184"/>
    <polyline class="cls-1-1-3" points="134.04 177.58 134.04 184 148.03 184 148.03 171.11 134.04 171.11 134.04 173.5"/>
    <rect class="cls-2-1-3" x="162.03" y="171.11" width="13.99" height="12.9"/>
    <g>
      <path class="cls-5-1-3" d="m167.57,157.77c0,.37-.3.67-.67.67s-.67-.3-.67-.67.3-.67.67-.67.67.3.67.67Z"/>
      <path class="cls-5-1-3" d="m166.9,158.65c-.48,0-1.6.05-1.6.97v2.22c0,.14.1.27.25.27.14,0,.27-.1.27-.25l.12-1.35.13,5.01c0,.19.15.34.34.34s.34-.15.34-.34l.14-3.08.14,3.08c0,.19.15.34.34.34s.34-.15.34-.34l.13-5.01.12,1.35c0,.14.13.26.27.25s.26-.13.25-.27v-2.22c0-.93-1.12-.97-1.6-.97Z"/>
    </g>
    <g>
      <path class="cls-6-1-3" d="m141.01,158.44c.37,0,.67-.3.67-.67s-.3-.67-.67-.67-.67.3-.67.67.3.67.67.67Z"/>
      <path class="cls-6-1-3" d="m142.94,161.66l-.53-1.95c-.22-.9-.92-1.03-1.4-1.03s-1.18.13-1.4,1.03l-.53,1.95c-.05.13.02.29.15.34.13.05.29-.02.34-.15l.53-1.48.13.68-.66,2.08h.97s.05.65.05.65l.08,1.75c0,.19.15.34.34.34s.34-.15.34-.34l.08-1.75.05-.65h.97s-.66-2.08-.66-2.08l.13-.68.53,1.48c.05.13.2.2.34.15.13-.05.2-.2.15-.34Z"/>
    </g>
    <g>
      <g>
        <path class="cls-3-1-3" d="m154.28,177.5c0,.2-.16.37-.37.37s-.37-.16-.37-.37.16-.37.37-.37.37.16.37.37Z"/>
        <path class="cls-3-1-3" d="m153.91,177.96c-.26,0-.87.02-.87.53v1.2c0,.08.06.15.14.15.08,0,.15-.06.15-.14l.07-.73.07,2.72c0,.1.08.19.19.19s.19-.08.19-.19l.07-1.67.07,1.67c0,.1.08.19.19.19s.19-.08.19-.19l.07-2.72.07.73c0,.08.07.14.15.14.08,0,.14-.07.14-.15v-1.2c0-.5-.61-.53-.87-.53Z"/>
      </g>
      <g>
        <path class="cls-3-1-3" d="m156.51,177.5c0,.2-.16.37-.37.37s-.37-.16-.37-.37.16-.37.37-.37.37.16.37.37Z"/>
        <path class="cls-3-1-3" d="m156.15,177.96c-.26,0-.87.02-.87.53v1.2c0,.08.06.15.14.15.08,0,.15-.06.15-.14l.07-.73.07,2.72c0,.1.08.19.19.19s.19-.08.19-.19l.07-1.67.07,1.67c0,.1.08.19.19.19s.19-.08.19-.19l.07-2.72.07.73c0,.08.07.14.15.14.08,0,.14-.07.14-.15v-1.2c0-.5-.61-.53-.87-.53Z"/>
      </g>
      <path class="cls-3-1-3" d="m157.43,182.14h-4.79c-.37,0-.67-.3-.67-.67v-5.13c0-.37.3-.67.67-.67h4.79c.37,0,.67.3.67.67v5.13c0,.37-.3.67-.67.67Zm-4.79-6.04c-.14,0-.25.11-.25.25v5.13c0,.14.11.25.25.25h4.79c.14,0,.25-.11.25-.25v-5.13c0-.14-.11-.25-.25-.25h-4.79Z"/>
      <path class="cls-3-1-3" d="m157.19,174.32l-.82-.82h0s-.13-.13-.13-.13l-.13.13h0s-.82.82-.82.82c-.07.07-.07.19,0,.26.07.07.19.07.26,0l.5-.5v1.13c0,.1.08.19.19.19s.19-.08.19-.19v-1.13s.5.5.5.5c.04.04.08.05.13.05s.1-.02.13-.05c.07-.07.07-.19,0-.26Z"/>
      <path class="cls-3-1-3" d="m154.86,174.26c-.07-.07-.19-.07-.26,0l-.5.5v-1.13c0-.1-.08-.19-.19-.19s-.19.08-.19.19v1.13s-.5-.5-.5-.5c-.07-.07-.19-.07-.26,0-.07.07-.07.19,0,.26l.82.82h0s.13.13.13.13l.13-.13h0s.82-.82.82-.82c.07-.07.07-.19,0-.26Z"/>
    </g>
    <polyline class="cls-1-1-3" points="134.04 214.49 134.04 199.39 138.63 199.39"/>
    <polyline class="cls-1-1-3" points="171.42 199.39 176.02 199.39 176.02 223.03 134.04 223.03 134.04 217.66"/>
    <line class="cls-1-1-3" x1="157.43" y1="199.39" x2="166.62" y2="199.39"/>
    <line class="cls-1-1-3" x1="143.44" y1="199.39" x2="152.63" y2="199.39"/>
    <polyline class="cls-1-1-3" points="138.63 199.39 134.04 199.39 134.04 212.29 148.03 212.29 148.03 199.39 143.44 199.39"/>
    <polyline class="cls-1-1-3" points="152.63 199.39 148.03 199.39 148.03 212.29 162.03 212.29 162.03 199.39 157.43 199.39"/>
    <polyline class="cls-1-1-3" points="166.62 199.39 162.03 199.39 162.03 212.29 176.02 212.29 176.02 199.39 171.42 199.39"/>
    <rect class="cls-2-1-3" x="162.03" y="212.29" width="13.99" height="10.74"/>
    <g>
      <g>
        <path class="cls-3-1-3" d="m140.58,205.33c0,.2-.16.37-.37.37s-.37-.16-.37-.37.16-.37.37-.37.37.16.37.37Z"/>
        <path class="cls-3-1-3" d="m140.21,205.78c-.26,0-.87.02-.87.53v1.2c0,.08.06.15.14.15.08,0,.15-.06.15-.14l.07-.73.07,2.72c0,.1.08.19.19.19s.19-.08.19-.19l.07-1.67.07,1.67c0,.1.08.19.19.19s.19-.08.19-.19l.07-2.72.07.73c0,.08.07.14.15.14.08,0,.14-.07.14-.15v-1.2c0-.5-.61-.53-.87-.53Z"/>
      </g>
      <g>
        <path class="cls-3-1-3" d="m142.81,205.33c0,.2-.16.37-.37.37s-.37-.16-.37-.37.16-.37.37-.37.37.16.37.37Z"/>
        <path class="cls-3-1-3" d="m142.44,205.78c-.26,0-.87.02-.87.53v1.2c0,.08.06.15.14.15.08,0,.15-.06.15-.14l.07-.73.07,2.72c0,.1.08.19.19.19s.19-.08.19-.19l.07-1.67.07,1.67c0,.1.08.19.19.19s.19-.08.19-.19l.07-2.72.07.73c0,.08.07.14.15.14.08,0,.14-.07.14-.15v-1.2c0-.5-.61-.53-.87-.53Z"/>
      </g>
      <path class="cls-3-1-3" d="m143.72,209.97h-4.79c-.37,0-.67-.3-.67-.67v-5.13c0-.37.3-.67.67-.67h4.79c.37,0,.67.3.67.67v5.13c0,.37-.3.67-.67.67Zm-4.79-6.04c-.14,0-.25.11-.25.25v5.13c0,.14.11.25.25.25h4.79c.14,0,.25-.11.25-.25v-5.13c0-.14-.11-.25-.25-.25h-4.79Z"/>
      <path class="cls-3-1-3" d="m143.48,202.14l-.82-.82h0s-.13-.13-.13-.13l-.13.13h0s-.82.82-.82.82c-.07.07-.07.19,0,.26.07.07.19.07.26,0l.5-.5v1.13c0,.1.08.19.19.19s.19-.08.19-.19v-1.13s.5.5.5.5c.04.04.08.05.13.05s.1-.02.13-.05c.07-.07.07-.19,0-.26Z"/>
      <path class="cls-3-1-3" d="m141.15,202.08c-.07-.07-.19-.07-.26,0l-.5.5v-1.13c0-.1-.08-.19-.19-.19s-.19.08-.19.19v1.13s-.5-.5-.5-.5c-.07-.07-.19-.07-.26,0-.07.07-.07.19,0,.26l.82.82h0s.13.13.13.13l.13-.13h0s.82-.82.82-.82c.07-.07.07-.19,0-.26Z"/>
    </g>
    <g>
      <g>
        <path class="cls-3-1-3" d="m154.45,205.33c0,.2-.16.37-.37.37s-.37-.16-.37-.37.16-.37.37-.37.37.16.37.37Z"/>
        <path class="cls-3-1-3" d="m154.09,205.78c-.26,0-.87.02-.87.53v1.2c0,.08.06.15.14.15.08,0,.15-.06.15-.14l.07-.73.07,2.72c0,.1.08.19.19.19s.19-.08.19-.19l.07-1.67.07,1.67c0,.1.08.19.19.19s.19-.08.19-.19l.07-2.72.07.73c0,.08.07.14.15.14.08,0,.14-.07.14-.15v-1.2c0-.5-.61-.53-.87-.53Z"/>
      </g>
      <g>
        <path class="cls-3-1-3" d="m156.68,205.33c0,.2-.16.37-.37.37s-.37-.16-.37-.37.16-.37.37-.37.37.16.37.37Z"/>
        <path class="cls-3-1-3" d="m156.32,205.78c-.26,0-.87.02-.87.53v1.2c0,.08.06.15.14.15.08,0,.15-.06.15-.14l.07-.73.07,2.72c0,.1.08.19.19.19s.19-.08.19-.19l.07-1.67.07,1.67c0,.1.08.19.19.19s.19-.08.19-.19l.07-2.72.07.73c0,.08.07.14.15.14.08,0,.14-.07.14-.15v-1.2c0-.5-.61-.53-.87-.53Z"/>
      </g>
      <path class="cls-3-1-3" d="m157.6,209.97h-4.79c-.37,0-.67-.3-.67-.67v-5.13c0-.37.3-.67.67-.67h4.79c.37,0,.67.3.67.67v5.13c0,.37-.3.67-.67.67Zm-4.79-6.04c-.14,0-.25.11-.25.25v5.13c0,.14.11.25.25.25h4.79c.14,0,.25-.11.25-.25v-5.13c0-.14-.11-.25-.25-.25h-4.79Z"/>
      <path class="cls-3-1-3" d="m157.36,202.14l-.82-.82h0s-.13-.13-.13-.13l-.13.13h0s-.82.82-.82.82c-.07.07-.07.19,0,.26.07.07.19.07.26,0l.5-.5v1.13c0,.1.08.19.19.19s.19-.08.19-.19v-1.13s.5.5.5.5c.04.04.08.05.13.05s.1-.02.13-.05c.07-.07.07-.19,0-.26Z"/>
      <path class="cls-3-1-3" d="m155.03,202.08c-.07-.07-.19-.07-.26,0l-.5.5v-1.13c0-.1-.08-.19-.19-.19s-.19.08-.19.19v1.13s-.5-.5-.5-.5c-.07-.07-.19-.07-.26,0-.07.07-.07.19,0,.26l.82.82h0s.13.13.13.13l.13-.13h0s.82-.82.82-.82c.07-.07.07-.19,0-.26Z"/>
    </g>
    <g>
      <g>
        <path class="cls-3-1-3" d="m168.27,205.33c0,.2-.16.37-.37.37s-.37-.16-.37-.37.16-.37.37-.37.37.16.37.37Z"/>
        <path class="cls-3-1-3" d="m167.91,205.78c-.26,0-.87.02-.87.53v1.2c0,.08.06.15.14.15.08,0,.15-.06.15-.14l.07-.73.07,2.72c0,.1.08.19.19.19s.19-.08.19-.19l.07-1.67.07,1.67c0,.1.08.19.19.19s.19-.08.19-.19l.07-2.72.07.73c0,.08.07.14.15.14.08,0,.14-.07.14-.15v-1.2c0-.5-.61-.53-.87-.53Z"/>
      </g>
      <g>
        <path class="cls-3-1-3" d="m170.51,205.33c0,.2-.16.37-.37.37s-.37-.16-.37-.37.16-.37.37-.37.37.16.37.37Z"/>
        <path class="cls-3-1-3" d="m170.14,205.78c-.26,0-.87.02-.87.53v1.2c0,.08.06.15.14.15.08,0,.15-.06.15-.14l.07-.73.07,2.72c0,.1.08.19.19.19s.19-.08.19-.19l.07-1.67.07,1.67c0,.1.08.19.19.19s.19-.08.19-.19l.07-2.72.07.73c0,.08.07.14.15.14.08,0,.14-.07.14-.15v-1.2c0-.5-.61-.53-.87-.53Z"/>
      </g>
      <path class="cls-3-1-3" d="m171.42,209.97h-4.79c-.37,0-.67-.3-.67-.67v-5.13c0-.37.3-.67.67-.67h4.79c.37,0,.67.3.67.67v5.13c0,.37-.3.67-.67.67Zm-4.79-6.04c-.14,0-.25.11-.25.25v5.13c0,.14.11.25.25.25h4.79c.14,0,.25-.11.25-.25v-5.13c0-.14-.11-.25-.25-.25h-4.79Z"/>
      <path class="cls-3-1-3" d="m171.18,202.14l-.82-.82h0s-.13-.13-.13-.13l-.13.13h0s-.82.82-.82.82c-.07.07-.07.19,0,.26.07.07.19.07.26,0l.5-.5v1.13c0,.1.08.19.19.19s.19-.08.19-.19v-1.13s.5.5.5.5c.04.04.08.05.13.05s.1-.02.13-.05c.07-.07.07-.19,0-.26Z"/>
      <path class="cls-3-1-3" d="m168.85,202.08c-.07-.07-.19-.07-.26,0l-.5.5v-1.13c0-.1-.08-.19-.19-.19s-.19.08-.19.19v1.13s-.5-.5-.5-.5c-.07-.07-.19-.07-.26,0-.07.07-.07.19,0,.26l.82.82h0s.13.13.13.13l.13-.13h0s.82-.82.82-.82c.07-.07.07-.19,0-.26Z"/>
    </g>
    <g>
      <path class="cls-3-1-3" d="m149.85,213.72c0,.25-.2.45-.45.45s-.45-.2-.45-.45.2-.45.45-.45.45.2.45.45Z"/>
      <polygon class="cls-3-1-3" points="152.05 218.51 150.46 218.51 150.46 219.07 149.04 219.07 149.04 219.63 147.66 219.63 147.66 220.2 146.27 220.2 146.27 220.76 144.89 220.76 144.89 221.33 144.02 221.33 144.02 222.05 145.7 222.05 145.7 221.46 147.07 221.46 147.07 220.9 148.45 220.9 148.45 220.33 149.83 220.33 149.83 219.77 151.21 219.77 151.21 219.23 152.05 219.23 152.05 218.51"/>
      <path class="cls-3-1-3" d="m149.94,216.45c-.33-.21-.65-.42-.69-.46.12-.56.22-1.07.27-1.37,0,0,.04-.28-.18-.32-.31-.06-.75.17-1.24.55-.06.04-.14.11-.16.22-.03.1-.14.71-.21.97-.02.1.03.19.13.22.1.02.19-.04.22-.13.07-.21.21-.67.23-.71.03-.04.22-.2.22-.2l-.37,3.78c0,.11.09.2.2.21.12.01.23-.08.24-.21,0,0,.24-1.09.49-2.22l.42.19-.22,1.1c-.04.11.02.22.13.26.11.04.22-.02.26-.13,0,0,.38-.93.43-1.09.05-.17.19-.44-.15-.66Z"/>
      <g>
        <path class="cls-3-1-3" d="m146.05,214.98c0,.25-.2.45-.45.45s-.45-.2-.45-.45.2-.45.45-.45.45.2.45.45Z"/>
        <path class="cls-3-1-3" d="m147.05,217.52s-.06-.49-.13-.79c-.02-.07-.04-.13-.09-.22-.18-.3-.42-.65-.65-.77-.36-.18-.72-.08-.88.21-.18.31-.41.81-1.03,1.21-.08.05-.14.12-.11.21.03.09.12.14.21.11.01,0,.02,0,.03-.01.13-.06.67-.31.86-.6l-.15,3.39c-.01.13.07.24.2.25.12.01.23-.08.24-.21l.7-3.75s.22.19.28.34c.04.1.12.4.17.67,0,0,0,0,0,0,.02.1.1.16.2.15.1-.01.16-.1.15-.2Z"/>
        <path class="cls-3-1-3" d="m147.14,219.07l-1.25-1.01-.11.73,1.09.63c.09.07.23.05.3-.04.07-.09.05-.23-.04-.3Z"/>
      </g>
    </g>
    <rect class="cls-2-1-3" x="134.04" y="171.11" width="13.99" height="12.9"/>
    <rect class="cls-1-1-3" x="60.31" y="77.73" width="28.86" height="67.64"/>
    <rect class="cls-1-1-3" x="89.17" y="77.73" width="36.99" height="67.64"/>
    <rect class="cls-1-1-3" x="100.47" y="145.37" width="25.69" height="53.41"/>
    <rect class="cls-1-1-3" x="100.47" y="198.77" width="25.69" height="14.22"/>
    <rect class="cls-1-1-3" x="100.47" y="212.99" width="25.69" height="18.93"/>
    <polygon class="cls-2-1-3" points="100.47 145.37 73.46 145.37 62.32 145.37 60.31 145.37 60.31 164.31 73.46 164.31 73.46 154.84 100.47 154.84 100.47 145.37"/>
    <polyline class="cls-1-1-3" points="80.86 164.31 73.46 164.31 73.46 154.84 91.16 154.84 91.16 164.31 84.12 164.31"/>
    <polyline class="cls-1-1-3" points="60.31 166.6 60.31 164.31 78.78 164.31 78.78 174.46 60.31 174.46 60.31 169.85"/>
    <polyline class="cls-1-1-3" points="98.59 174.46 100.47 174.46 100.47 154.84 86.7 154.84"/>
    <polyline class="cls-1-1-3" points="86.7 164.31 86.7 174.46 93.78 174.46"/>
    <line class="cls-1-1-3" x1="63.17" y1="180.56" x2="100.47" y2="180.56"/>
    <line class="cls-1-1-3" x1="50.69" y1="180.56" x2="54.06" y2="180.56"/>
    <polyline class="cls-1-1-3" points="75.56 200.94 75.56 197.08 86.7 197.08 86.7 208.22 75.56 208.22 75.56 205.04"/>
    <rect class="cls-2-1-3" x="87.09" y="197.08" width="13.38" height="15.91"/>
    <rect class="cls-2-1-3" x="92.98" y="225.3" width="7.49" height="6.61"/>
    <polyline class="cls-1-1-3" points="91.69 218.37 91.69 225.3 100.47 225.3 100.47 212.99 91.69 212.99 91.69 215.3"/>
    <polyline class="cls-1-1-3" points="75.56 212.08 75.56 208.22 86.7 208.22 86.7 219.36 75.56 219.36 75.56 216.18"/>
    <polyline class="cls-1-1-3" points="98.61 185.4 100.47 185.4 100.47 197.08 75.56 197.08 75.56 185.4 96.08 185.4"/>
    <line class="cls-1-1-3" x1="60.31" y1="126.04" x2="89.17" y2="126.04"/>
    <g>
      <path class="cls-5-1-3" d="m83.42,156.42c0,.37-.3.67-.67.67s-.67-.3-.67-.67.3-.67.67-.67.67.3.67.67Z"/>
      <path class="cls-5-1-3" d="m82.74,157.3c-.48,0-1.6.05-1.6.97v2.22c0,.14.1.27.25.27.14,0,.27-.1.27-.25l.12-1.35.13,5.01c0,.19.15.34.34.34s.34-.15.34-.34l.14-3.08.14,3.08c0,.19.15.34.34.34s.34-.15.34-.34l.13-5.01.12,1.35c0,.14.13.26.27.25s.26-.13.25-.27v-2.22c0-.93-1.12-.97-1.6-.97Z"/>
    </g>
    <g>
      <path class="cls-6-1-3" d="m94.29,165.3c.37,0,.67-.3.67-.67s-.3-.67-.67-.67-.67.3-.67.67.3.67.67.67Z"/>
      <path class="cls-6-1-3" d="m96.22,168.53l-.53-1.95c-.22-.9-.92-1.03-1.4-1.03s-1.18.13-1.4,1.03l-.53,1.95c-.05.13.02.29.15.34.13.05.29-.02.34-.15l.53-1.48.13.68-.66,2.08h.97s.05.65.05.65l.08,1.75c0,.19.15.34.34.34s.34-.15.34-.34l.08-1.75.05-.65h.97s-.66-2.08-.66-2.08l.13-.68.53,1.48c.05.13.2.2.34.15.13-.05.2-.2.15-.34Z"/>
    </g>
    <g>
      <g>
        <path class="cls-3-1-3" d="m80.39,201.95c0,.2-.16.37-.37.37s-.37-.16-.37-.37.16-.37.37-.37.37.16.37.37Z"/>
        <path class="cls-3-1-3" d="m80.02,202.41c-.26,0-.87.02-.87.53v1.2c0,.08.06.15.14.15.08,0,.15-.06.15-.14l.07-.73.07,2.72c0,.1.08.19.19.19s.19-.08.19-.19l.07-1.67.07,1.67c0,.1.08.19.19.19s.19-.08.19-.19l.07-2.72.07.73c0,.08.07.14.15.14.08,0,.14-.07.14-.15v-1.2c0-.5-.61-.53-.87-.53Z"/>
      </g>
      <g>
        <path class="cls-3-1-3" d="m82.62,201.95c0,.2-.16.37-.37.37s-.37-.16-.37-.37.16-.37.37-.37.37.16.37.37Z"/>
        <path class="cls-3-1-3" d="m82.25,202.41c-.26,0-.87.02-.87.53v1.2c0,.08.06.15.14.15.08,0,.15-.06.15-.14l.07-.73.07,2.72c0,.1.08.19.19.19s.19-.08.19-.19l.07-1.67.07,1.67c0,.1.08.19.19.19s.19-.08.19-.19l.07-2.72.07.73c0,.08.07.14.15.14.08,0,.14-.07.14-.15v-1.2c0-.5-.61-.53-.87-.53Z"/>
      </g>
      <path class="cls-3-1-3" d="m83.53,206.59h-4.79c-.37,0-.67-.3-.67-.67v-5.13c0-.37.3-.67.67-.67h4.79c.37,0,.67.3.67.67v5.13c0,.37-.3.67-.67.67Zm-4.79-6.04c-.14,0-.25.11-.25.25v5.13c0,.14.11.25.25.25h4.79c.14,0,.25-.11.25-.25v-5.13c0-.14-.11-.25-.25-.25h-4.79Z"/>
      <path class="cls-3-1-3" d="m83.3,198.77l-.82-.82h0s-.13-.13-.13-.13l-.13.13h0s-.82.82-.82.82c-.07.07-.07.19,0,.26.07.07.19.07.26,0l.5-.5v1.13c0,.1.08.19.19.19s.19-.08.19-.19v-1.13s.5.5.5.5c.04.04.08.05.13.05s.1-.02.13-.05c.07-.07.07-.19,0-.26Z"/>
      <path class="cls-3-1-3" d="m80.97,198.7c-.07-.07-.19-.07-.26,0l-.5.5v-1.13c0-.1-.08-.19-.19-.19s-.19.08-.19.19v1.13s-.5-.5-.5-.5c-.07-.07-.19-.07-.26,0-.07.07-.07.19,0,.26l.82.82h0s.13.13.13.13l.13-.13h0s.82-.82.82-.82c.07-.07.07-.19,0-.26Z"/>
    </g>
    <g>
      <g>
        <path class="cls-3-1-3" d="m80.39,213.54c0,.2-.16.37-.37.37s-.37-.16-.37-.37.16-.37.37-.37.37.16.37.37Z"/>
        <path class="cls-3-1-3" d="m80.02,213.99c-.26,0-.87.02-.87.53v1.2c0,.08.06.15.14.15.08,0,.15-.06.15-.14l.07-.73.07,2.72c0,.1.08.19.19.19s.19-.08.19-.19l.07-1.67.07,1.67c0,.1.08.19.19.19s.19-.08.19-.19l.07-2.72.07.73c0,.08.07.14.15.14.08,0,.14-.07.14-.15v-1.2c0-.5-.61-.53-.87-.53Z"/>
      </g>
      <g>
        <path class="cls-3-1-3" d="m82.62,213.54c0,.2-.16.37-.37.37s-.37-.16-.37-.37.16-.37.37-.37.37.16.37.37Z"/>
        <path class="cls-3-1-3" d="m82.25,213.99c-.26,0-.87.02-.87.53v1.2c0,.08.06.15.14.15.08,0,.15-.06.15-.14l.07-.73.07,2.72c0,.1.08.19.19.19s.19-.08.19-.19l.07-1.67.07,1.67c0,.1.08.19.19.19s.19-.08.19-.19l.07-2.72.07.73c0,.08.07.14.15.14.08,0,.14-.07.14-.15v-1.2c0-.5-.61-.53-.87-.53Z"/>
      </g>
      <path class="cls-3-1-3" d="m83.53,218.18h-4.79c-.37,0-.67-.3-.67-.67v-5.13c0-.37.3-.67.67-.67h4.79c.37,0,.67.3.67.67v5.13c0,.37-.3.67-.67.67Zm-4.79-6.04c-.14,0-.25.11-.25.25v5.13c0,.14.11.25.25.25h4.79c.14,0,.25-.11.25-.25v-5.13c0-.14-.11-.25-.25-.25h-4.79Z"/>
      <path class="cls-3-1-3" d="m83.3,210.35l-.82-.82h0s-.13-.13-.13-.13l-.13.13h0s-.82.82-.82.82c-.07.07-.07.19,0,.26.07.07.19.07.26,0l.5-.5v1.13c0,.1.08.19.19.19s.19-.08.19-.19v-1.13s.5.5.5.5c.04.04.08.05.13.05s.1-.02.13-.05c.07-.07.07-.19,0-.26Z"/>
      <path class="cls-3-1-3" d="m80.97,210.29c-.07-.07-.19-.07-.26,0l-.5.5v-1.13c0-.1-.08-.19-.19-.19s-.19.08-.19.19v1.13s-.5-.5-.5-.5c-.07-.07-.19-.07-.26,0-.07.07-.07.19,0,.26l.82.82h0s.13.13.13.13l.13-.13h0s.82-.82.82-.82c.07-.07.07-.19,0-.26Z"/>
    </g>
    <g>
      <path class="cls-3-1-3" d="m90.99,186.8c0,.25-.2.45-.45.45s-.45-.2-.45-.45.2-.45.45-.45.45.2.45.45Z"/>
      <polygon class="cls-3-1-3" points="93.19 191.59 91.6 191.59 91.6 192.15 90.17 192.15 90.17 192.72 88.79 192.72 88.79 193.28 87.41 193.28 87.41 193.84 86.03 193.84 86.03 194.41 85.15 194.41 85.15 195.13 86.83 195.13 86.83 194.54 88.2 194.54 88.2 193.98 89.58 193.98 89.58 193.42 90.96 193.42 90.96 192.85 92.35 192.85 92.35 192.31 93.19 192.31 93.19 191.59"/>
      <path class="cls-3-1-3" d="m91.08,189.53c-.33-.21-.65-.42-.69-.46.12-.56.22-1.07.27-1.37,0,0,.04-.28-.18-.32-.31-.06-.75.17-1.24.55-.06.04-.14.11-.16.22-.03.1-.14.71-.21.97-.02.1.03.19.13.22.1.02.19-.04.22-.13.07-.21.21-.67.23-.71.03-.04.22-.2.22-.2l-.37,3.78c0,.11.09.2.2.21.12.01.23-.08.24-.21,0,0,.24-1.09.49-2.22l.42.19-.22,1.1c-.04.11.02.22.13.26.11.04.22-.02.26-.13,0,0,.38-.93.43-1.09.05-.17.19-.44-.15-.66Z"/>
      <g>
        <path class="cls-3-1-3" d="m87.19,188.06c0,.25-.2.45-.45.45s-.45-.2-.45-.45.2-.45.45-.45.45.2.45.45Z"/>
        <path class="cls-3-1-3" d="m88.19,190.6s-.06-.49-.13-.79c-.02-.07-.04-.13-.09-.22-.18-.3-.42-.65-.65-.77-.36-.18-.72-.08-.88.21-.18.31-.41.81-1.03,1.21-.08.05-.14.12-.11.21.03.09.12.14.21.11.01,0,.02,0,.03-.01.13-.06.67-.31.86-.6l-.15,3.39c-.01.13.07.24.2.25.12.01.23-.08.24-.21l.7-3.75s.22.19.28.34c.04.1.12.4.17.67,0,0,0,0,0,0,.02.1.1.16.2.15.1-.01.16-.1.15-.2Z"/>
        <path class="cls-3-1-3" d="m88.27,192.15l-1.25-1.01-.11.73,1.09.63c.09.07.23.05.3-.04.07-.09.05-.23-.04-.3Z"/>
      </g>
    </g>
    <polygon class="cls-4-1-3" points="51.69 2.45 51.69 1.82 4 1.82 4 183.95 51.69 183.95 51.69 68.3 177.02 68.3 177.02 51.45 186.58 51.45 186.58 2.45 51.69 2.45"/>
  </g>
</svg>