<?xml version="1.0" encoding="UTF-8"?>
<svg xmlns="http://www.w3.org/2000/svg" viewBox="0 0 202 214">
  <defs>
    <style>
      .cls-1-1-5 {
        fill: none;
      }

      .cls-1-1-5, .cls-2-1-5 {
        stroke: #231815;
        stroke-miterlimit: 10;
      }

      .cls-3-1-5, .cls-4-1-5, .cls-5-1-5, .cls-6-1-5, .cls-7-1-5 {
        stroke-width: 0px;
      }

      .cls-3-1-5, .cls-2-1-5 {
        fill: #231815;
      }

      .cls-8-1-5 {
        font-size: 6.33px;
      }

      .cls-8-1-5, .cls-9-1-5 {
        fill: #fff;
        font-family: KozGoPr6N-Regular-90ms-RKSJ-H, 'Kozuka Gothic Pr6N';
      }

      .cls-4-1-5 {
        opacity: .2;
      }

      .cls-4-1-5, .cls-7-1-5 {
        fill: #7a1a24;
      }

      .cls-5-1-5 {
        fill: #2d3e6a;
      }

      .cls-9-1-5 {
        font-size: 6.33px;
      }

      .cls-6-1-5 {
        fill: #ba1f21;
      }
    </style>
  </defs>
  <g id="_レイヤー_1" data-name="レイヤー 1">
    <rect class="cls-4-1-5" x="91.47" y="205.13" width="23.22" height="5.98"/>
    <polygon class="cls-4-1-5" points="46.48 3.28 46.48 3.15 3.38 3.15 3.38 167.76 46.48 167.76 46.48 74.1 167.86 74.1 167.86 181.71 159.75 181.71 159.75 203.08 134.45 203.08 134.45 211.11 198.28 211.11 198.28 203.08 198.28 181.71 198.28 74.1 198.32 74.1 198.32 3.28 46.48 3.28"/>
    <rect class="cls-4-1-5" x="55.12" y="84.77" width="11.94" height="65.55"/>
    <polyline class="cls-1-1-5" points="46.48 63.07 46.48 167.76 3.38 167.76 3.38 3.15 46.48 3.15"/>
    <path class="cls-1-1-5" d="m46.48,3.15h151.81v207.95h-106.82s-14.16.91-18.57-.44c-1.62-.5-5.64-2.11-8.82-6.56-2.57-3.6-3.85-10.54-4.98-12.3-1.85-2.86-4.38-2.98-7.93-6.2-1.94-1.76-4.24-5.76-4.52-9.33-.18-2.27-.18-8.52-.18-8.52V63.07"/>
    <rect class="cls-2-1-5" x="121.81" y="109.05" width="37.94" height="23.83"/>
    <polyline class="cls-1-1-5" points="121.81 92.81 121.81 79.18 159.75 79.18 159.75 109.05 121.81 109.05"/>
    <line class="cls-1-1-5" x1="147.57" y1="101.71" x2="147.57" y2="109.05"/>
    <line class="cls-1-1-5" x1="147.57" y1="92.81" x2="147.57" y2="97.4"/>
    <polyline class="cls-2-1-5" points="133.49 92.81 151.36 92.81 151.36 82.33 127.86 82.33 127.86 92.81 121.81 92.81 121.81 79.18 159.75 79.18 159.75 92.81 133.49 92.81"/>
    <g>
      <path class="cls-3-1-5" d="m142.6,84.45c0,.22-.18.4-.4.4s-.4-.18-.4-.4.18-.4.4-.4.4.18.4.4Z"/>
      <polygon class="cls-3-1-5" points="144.59 88.77 143.15 88.77 143.15 89.29 141.87 89.29 141.87 89.79 140.62 89.79 140.62 90.3 139.37 90.3 139.37 90.81 138.12 90.81 138.12 91.32 137.33 91.32 137.33 91.98 138.85 91.98 138.85 91.45 140.08 91.45 140.08 90.94 141.33 90.94 141.33 90.43 142.58 90.43 142.58 89.92 143.83 89.92 143.83 89.43 144.59 89.43 144.59 88.77"/>
      <path class="cls-3-1-5" d="m142.68,86.92c-.29-.19-.59-.38-.63-.41.11-.51.2-.96.24-1.24,0,0,.03-.25-.16-.29-.28-.06-.67.16-1.12.49-.05.04-.12.1-.15.2-.02.09-.13.64-.19.88-.02.09.03.18.12.2.09.02.17-.03.2-.12.06-.19.19-.61.21-.64.02-.04.2-.18.2-.18l-.34,3.41c0,.1.08.18.18.19.11.01.21-.07.22-.19,0,0,.22-.99.44-2.01l.38.17-.2.99c-.03.1.02.2.11.23.1.03.2-.02.23-.11,0,0,.34-.84.39-.99.05-.16.17-.4-.14-.6Z"/>
      <g>
        <path class="cls-3-1-5" d="m139.17,85.58c0,.22-.18.4-.4.4s-.4-.18-.4-.4.18-.4.4-.4.4.18.4.4Z"/>
        <path class="cls-3-1-5" d="m140.07,87.88s-.06-.44-.12-.71c-.01-.07-.03-.12-.08-.2-.16-.27-.38-.59-.59-.7-.32-.17-.65-.07-.8.19-.16.28-.37.73-.93,1.1-.08.04-.13.11-.1.19.03.08.11.13.19.1,0,0,.02,0,.03-.01.12-.05.61-.28.78-.55l-.14,3.06c-.01.11.07.22.18.23.11.01.21-.07.22-.19l.63-3.39s.2.17.25.3c.04.09.1.36.15.61,0,0,0,0,0,0,.02.09.09.15.18.14.09-.01.15-.09.14-.18Z"/>
        <path class="cls-3-1-5" d="m140.15,89.28l-1.13-.91-.1.66.99.57c.09.06.21.05.27-.04.06-.09.05-.21-.04-.27Z"/>
      </g>
    </g>
    <g>
      <g>
        <path class="cls-3-1-5" d="m153.06,100.31c0,.18-.15.33-.33.33s-.33-.15-.33-.33.15-.33.33-.33.33.15.33.33Z"/>
        <path class="cls-3-1-5" d="m152.72,100.72c-.23,0-.79.02-.79.48v1.09c0,.07.05.13.12.13.07,0,.13-.05.13-.12l.06-.66.07,2.46c0,.09.08.17.17.17s.17-.08.17-.17l.07-1.51.07,1.51c0,.09.08.17.17.17s.17-.08.17-.17l.07-2.46.06.66c0,.07.06.13.13.12.07,0,.13-.06.12-.13v-1.09c0-.46-.55-.48-.79-.48Z"/>
      </g>
      <g>
        <path class="cls-3-1-5" d="m155.07,100.31c0,.18-.15.33-.33.33s-.33-.15-.33-.33.15-.33.33-.33.33.15.33.33Z"/>
        <path class="cls-3-1-5" d="m154.74,100.72c-.23,0-.79.02-.79.48v1.09c0,.07.05.13.12.13.07,0,.13-.05.13-.12l.06-.66.07,2.46c0,.09.08.17.17.17s.17-.08.17-.17l.07-1.51.07,1.51c0,.09.08.17.17.17s.17-.08.17-.17l.07-2.46.06.66c0,.07.06.13.13.12.07,0,.13-.06.12-.13v-1.09c0-.46-.55-.48-.79-.48Z"/>
      </g>
      <path class="cls-3-1-5" d="m155.9,104.5h-4.33c-.33,0-.6-.27-.6-.6v-4.64c0-.33.27-.6.6-.6h4.33c.33,0,.6.27.6.6v4.64c0,.33-.27.6-.6.6Zm-4.33-5.46c-.12,0-.22.1-.22.22v4.64c0,.12.1.22.22.22h4.33c.12,0,.22-.1.22-.22v-4.64c0-.12-.1-.22-.22-.22h-4.33Z"/>
      <path class="cls-3-1-5" d="m155.68,97.43l-.74-.74h0s-.12-.12-.12-.12l-.12.12h0s-.74.74-.74.74c-.07.07-.07.17,0,.24.07.07.17.07.24,0l.45-.45v1.02c0,.09.08.17.17.17s.17-.08.17-.17v-1.02s.45.45.45.45c.03.03.08.05.12.05s.09-.02.12-.05c.07-.07.07-.17,0-.24Z"/>
      <path class="cls-3-1-5" d="m153.58,97.37c-.07-.07-.17-.07-.24,0l-.45.45v-1.02c0-.09-.08-.17-.17-.17s-.17.08-.17.17v1.02s-.45-.45-.45-.45c-.07-.07-.17-.07-.24,0-.07.07-.07.17,0,.24l.74.74h0s.12.12.12.12l.12-.12h0s.74-.74.74-.74c.07-.07.07-.17,0-.24Z"/>
    </g>
    <polyline class="cls-1-1-5" points="156.47 137.76 159.75 137.76 159.75 167.8 142.95 167.8"/>
    <line class="cls-1-1-5" x1="141.61" y1="137.76" x2="151.99" y2="137.76"/>
    <line class="cls-1-1-5" x1="129.51" y1="137.76" x2="139.27" y2="137.76"/>
    <polyline class="cls-1-1-5" points="121.81 158.31 121.81 137.76 125.11 137.76"/>
    <polyline class="cls-1-1-5" points="138.61 167.8 121.81 167.8 121.81 162"/>
    <polyline class="cls-1-1-5" points="139.27 137.76 132.84 137.76 132.84 147.91 141.61 147.91 141.61 137.76"/>
    <line class="cls-1-1-5" x1="139.27" y1="137.76" x2="129.51" y2="137.76"/>
    <polyline class="cls-1-1-5" points="125.11 137.76 121.81 137.76 121.81 156.15 141.61 156.15 141.61 137.76"/>
    <rect class="cls-2-1-5" x="141.61" y="137.76" width="7.35" height="4.47"/>
    <polyline class="cls-1-1-5" points="142.95 167.8 147.1 167.8 147.1 156.15 134.45 156.15 134.45 167.8 138.61 167.8"/>
    <polyline class="cls-1-1-5" points="121.81 162 121.81 167.8 134.45 167.8 134.45 156.15 121.81 156.15 121.81 158.31"/>
    <rect class="cls-2-1-5" x="147.1" y="156.15" width="12.65" height="11.65"/>
    <g>
      <path class="cls-5-1-5" d="m152.11,144.1c0,.34-.27.61-.61.61s-.61-.27-.61-.61.27-.61.61-.61.61.27.61.61Z"/>
      <path class="cls-5-1-5" d="m151.5,144.89c-.43,0-1.45.04-1.45.88v2c0,.13.09.24.23.25.13,0,.24-.09.25-.23l.11-1.22.12,4.53c0,.17.14.31.31.31s.31-.14.31-.31l.12-2.78.12,2.78c0,.17.14.31.31.31s.31-.14.31-.31l.12-4.53.11,1.22c0,.13.12.23.25.23s.23-.12.23-.25v-2c0-.84-1.01-.88-1.45-.88Z"/>
    </g>
    <g>
      <path class="cls-6-1-5" d="m128.11,144.7c.33,0,.61-.27.61-.61s-.27-.61-.61-.61-.61.27-.61.61.27.61.61.61Z"/>
      <path class="cls-6-1-5" d="m129.85,147.61l-.48-1.77c-.2-.81-.83-.93-1.26-.93s-1.06.12-1.26.93l-.48,1.77c-.05.12.01.26.14.3.12.05.26-.01.3-.14l.48-1.34.12.62-.59,1.88h.88s.05.59.05.59l.07,1.59c0,.17.14.31.31.31s.31-.14.31-.31l.07-1.59.05-.59h.88s-.59-1.88-.59-1.88l.12-.62.48,1.34c.05.12.18.18.3.14.12-.05.18-.18.14-.3Z"/>
    </g>
    <g>
      <g>
        <path class="cls-3-1-5" d="m140.1,161.93c0,.18-.15.33-.33.33s-.33-.15-.33-.33.15-.33.33-.33.33.15.33.33Z"/>
        <path class="cls-3-1-5" d="m139.77,162.34c-.23,0-.79.02-.79.48v1.09c0,.07.05.13.12.13.07,0,.13-.05.13-.12l.06-.66.07,2.46c0,.09.08.17.17.17s.17-.08.17-.17l.07-1.51.07,1.51c0,.09.08.17.17.17s.17-.08.17-.17l.07-2.46.06.66c0,.07.06.13.13.12.07,0,.13-.06.12-.13v-1.09c0-.46-.55-.48-.79-.48Z"/>
      </g>
      <g>
        <path class="cls-3-1-5" d="m142.12,161.93c0,.18-.15.33-.33.33s-.33-.15-.33-.33.15-.33.33-.33.33.15.33.33Z"/>
        <path class="cls-3-1-5" d="m141.78,162.34c-.23,0-.79.02-.79.48v1.09c0,.07.05.13.12.13.07,0,.13-.05.13-.12l.06-.66.07,2.46c0,.09.08.17.17.17s.17-.08.17-.17l.07-1.51.07,1.51c0,.09.08.17.17.17s.17-.08.17-.17l.07-2.46.06.66c0,.07.06.13.13.12.07,0,.13-.06.12-.13v-1.09c0-.46-.55-.48-.79-.48Z"/>
      </g>
      <path class="cls-3-1-5" d="m142.94,166.12h-4.33c-.33,0-.6-.27-.6-.6v-4.64c0-.33.27-.6.6-.6h4.33c.33,0,.6.27.6.6v4.64c0,.33-.27.6-.6.6Zm-4.33-5.46c-.12,0-.22.1-.22.22v4.64c0,.12.1.22.22.22h4.33c.12,0,.22-.1.22-.22v-4.64c0-.12-.1-.22-.22-.22h-4.33Z"/>
      <path class="cls-3-1-5" d="m142.73,159.05l-.74-.74h0s-.12-.12-.12-.12l-.12.12h0s-.74.74-.74.74c-.07.07-.07.17,0,.24.07.07.17.07.24,0l.45-.45v1.02c0,.09.08.17.17.17s.17-.08.17-.17v-1.02s.45.45.45.45c.03.03.08.05.12.05s.09-.02.12-.05c.07-.07.07-.17,0-.24Z"/>
      <path class="cls-3-1-5" d="m140.62,159c-.07-.07-.17-.07-.24,0l-.45.45v-1.02c0-.09-.08-.17-.17-.17s-.17.08-.17.17v1.02s-.45-.45-.45-.45c-.07-.07-.17-.07-.24,0-.07.07-.07.17,0,.24l.74.74h0s.12.12.12.12l.12-.12h0s.74-.74.74-.74c.07-.07.07-.17,0-.24Z"/>
    </g>
    <polyline class="cls-1-1-5" points="121.81 195.35 121.81 181.71 125.96 181.71"/>
    <polyline class="cls-1-1-5" points="155.59 181.71 159.75 181.71 159.75 203.08 121.81 203.08 121.81 198.22"/>
    <line class="cls-1-1-5" x1="142.95" y1="181.71" x2="151.25" y2="181.71"/>
    <line class="cls-1-1-5" x1="130.3" y1="181.71" x2="138.61" y2="181.71"/>
    <polyline class="cls-1-1-5" points="125.96 181.71 121.81 181.71 121.81 193.37 134.45 193.37 134.45 181.71 130.3 181.71"/>
    <polyline class="cls-1-1-5" points="138.61 181.71 134.45 181.71 134.45 193.37 147.1 193.37 147.1 181.71 142.95 181.71"/>
    <polyline class="cls-1-1-5" points="151.25 181.71 147.1 181.71 147.1 193.37 159.75 193.37 159.75 181.71 155.59 181.71"/>
    <rect class="cls-2-1-5" x="147.1" y="193.37" width="12.65" height="9.71"/>
    <g>
      <g>
        <path class="cls-3-1-5" d="m127.71,187.08c0,.18-.15.33-.33.33s-.33-.15-.33-.33.15-.33.33-.33.33.15.33.33Z"/>
        <path class="cls-3-1-5" d="m127.38,187.49c-.23,0-.79.02-.79.48v1.09c0,.07.05.13.12.13.07,0,.13-.05.13-.12l.06-.66.07,2.46c0,.09.08.17.17.17s.17-.08.17-.17l.07-1.51.07,1.51c0,.09.08.17.17.17s.17-.08.17-.17l.07-2.46.06.66c0,.07.06.13.13.12.07,0,.13-.06.12-.13v-1.09c0-.46-.55-.48-.79-.48Z"/>
      </g>
      <g>
        <path class="cls-3-1-5" d="m129.73,187.08c0,.18-.15.33-.33.33s-.33-.15-.33-.33.15-.33.33-.33.33.15.33.33Z"/>
        <path class="cls-3-1-5" d="m129.4,187.49c-.23,0-.79.02-.79.48v1.09c0,.07.05.13.12.13.07,0,.13-.05.13-.12l.06-.66.07,2.46c0,.09.08.17.17.17s.17-.08.17-.17l.07-1.51.07,1.51c0,.09.08.17.17.17s.17-.08.17-.17l.07-2.46.06.66c0,.07.06.13.13.12.07,0,.13-.06.12-.13v-1.09c0-.46-.55-.48-.79-.48Z"/>
      </g>
      <path class="cls-3-1-5" d="m130.56,191.27h-4.33c-.33,0-.6-.27-.6-.6v-4.64c0-.33.27-.6.6-.6h4.33c.33,0,.6.27.6.6v4.64c0,.33-.27.6-.6.6Zm-4.33-5.46c-.12,0-.22.1-.22.22v4.64c0,.12.1.22.22.22h4.33c.12,0,.22-.1.22-.22v-4.64c0-.12-.1-.22-.22-.22h-4.33Z"/>
      <path class="cls-3-1-5" d="m130.34,184.2l-.74-.74h0s-.12-.12-.12-.12l-.12.12h0s-.74.74-.74.74c-.07.07-.07.17,0,.24.07.07.17.07.24,0l.45-.45v1.02c0,.09.08.17.17.17s.17-.08.17-.17v-1.02s.45.45.45.45c.03.03.08.05.12.05s.09-.02.12-.05c.07-.07.07-.17,0-.24Z"/>
      <path class="cls-3-1-5" d="m128.24,184.14c-.07-.07-.17-.07-.24,0l-.45.45v-1.02c0-.09-.08-.17-.17-.17s-.17.08-.17.17v1.02s-.45-.45-.45-.45c-.07-.07-.17-.07-.24,0-.07.07-.07.17,0,.24l.74.74h0s.12.12.12.12l.12-.12h0s.74-.74.74-.74c.07-.07.07-.17,0-.24Z"/>
    </g>
    <g>
      <g>
        <path class="cls-3-1-5" d="m140.25,187.08c0,.18-.15.33-.33.33s-.33-.15-.33-.33.15-.33.33-.33.33.15.33.33Z"/>
        <path class="cls-3-1-5" d="m139.92,187.49c-.23,0-.79.02-.79.48v1.09c0,.07.05.13.12.13.07,0,.13-.05.13-.12l.06-.66.07,2.46c0,.09.08.17.17.17s.17-.08.17-.17l.07-1.51.07,1.51c0,.09.08.17.17.17s.17-.08.17-.17l.07-2.46.06.66c0,.07.06.13.13.12.07,0,.13-.06.12-.13v-1.09c0-.46-.55-.48-.79-.48Z"/>
      </g>
      <g>
        <path class="cls-3-1-5" d="m142.27,187.08c0,.18-.15.33-.33.33s-.33-.15-.33-.33.15-.33.33-.33.33.15.33.33Z"/>
        <path class="cls-3-1-5" d="m141.94,187.49c-.23,0-.79.02-.79.48v1.09c0,.07.05.13.12.13.07,0,.13-.05.13-.12l.06-.66.07,2.46c0,.09.08.17.17.17s.17-.08.17-.17l.07-1.51.07,1.51c0,.09.08.17.17.17s.17-.08.17-.17l.07-2.46.06.66c0,.07.06.13.13.12.07,0,.13-.06.12-.13v-1.09c0-.46-.55-.48-.79-.48Z"/>
      </g>
      <path class="cls-3-1-5" d="m143.1,191.27h-4.33c-.33,0-.6-.27-.6-.6v-4.64c0-.33.27-.6.6-.6h4.33c.33,0,.6.27.6.6v4.64c0,.33-.27.6-.6.6Zm-4.33-5.46c-.12,0-.22.1-.22.22v4.64c0,.12.1.22.22.22h4.33c.12,0,.22-.1.22-.22v-4.64c0-.12-.1-.22-.22-.22h-4.33Z"/>
      <path class="cls-3-1-5" d="m142.88,184.2l-.74-.74h0s-.12-.12-.12-.12l-.12.12h0s-.74.74-.74.74c-.07.07-.07.17,0,.24.07.07.17.07.24,0l.45-.45v1.02c0,.09.08.17.17.17s.17-.08.17-.17v-1.02s.45.45.45.45c.03.03.08.05.12.05s.09-.02.12-.05c.07-.07.07-.17,0-.24Z"/>
      <path class="cls-3-1-5" d="m140.78,184.14c-.07-.07-.17-.07-.24,0l-.45.45v-1.02c0-.09-.08-.17-.17-.17s-.17.08-.17.17v1.02s-.45-.45-.45-.45c-.07-.07-.17-.07-.24,0-.07.07-.07.17,0,.24l.74.74h0s.12.12.12.12l.12-.12h0s.74-.74.74-.74c.07-.07.07-.17,0-.24Z"/>
    </g>
    <g>
      <g>
        <path class="cls-3-1-5" d="m152.75,187.08c0,.18-.15.33-.33.33s-.33-.15-.33-.33.15-.33.33-.33.33.15.33.33Z"/>
        <path class="cls-3-1-5" d="m152.42,187.49c-.23,0-.79.02-.79.48v1.09c0,.07.05.13.12.13.07,0,.13-.05.13-.12l.06-.66.07,2.46c0,.09.08.17.17.17s.17-.08.17-.17l.07-1.51.07,1.51c0,.09.08.17.17.17s.17-.08.17-.17l.07-2.46.06.66c0,.07.06.13.13.12.07,0,.13-.06.12-.13v-1.09c0-.46-.55-.48-.79-.48Z"/>
      </g>
      <g>
        <path class="cls-3-1-5" d="m154.76,187.08c0,.18-.15.33-.33.33s-.33-.15-.33-.33.15-.33.33-.33.33.15.33.33Z"/>
        <path class="cls-3-1-5" d="m154.43,187.49c-.23,0-.79.02-.79.48v1.09c0,.07.05.13.12.13.07,0,.13-.05.13-.12l.06-.66.07,2.46c0,.09.08.17.17.17s.17-.08.17-.17l.07-1.51.07,1.51c0,.09.08.17.17.17s.17-.08.17-.17l.07-2.46.06.66c0,.07.06.13.13.12.07,0,.13-.06.12-.13v-1.09c0-.46-.55-.48-.79-.48Z"/>
      </g>
      <path class="cls-3-1-5" d="m155.59,191.27h-4.33c-.33,0-.6-.27-.6-.6v-4.64c0-.33.27-.6.6-.6h4.33c.33,0,.6.27.6.6v4.64c0,.33-.27.6-.6.6Zm-4.33-5.46c-.12,0-.22.1-.22.22v4.64c0,.12.1.22.22.22h4.33c.12,0,.22-.1.22-.22v-4.64c0-.12-.1-.22-.22-.22h-4.33Z"/>
      <path class="cls-3-1-5" d="m155.37,184.2l-.74-.74h0s-.12-.12-.12-.12l-.12.12h0s-.74.74-.74.74c-.07.07-.07.17,0,.24.07.07.17.07.24,0l.45-.45v1.02c0,.09.08.17.17.17s.17-.08.17-.17v-1.02s.45.45.45.45c.03.03.08.05.12.05s.09-.02.12-.05c.07-.07.07-.17,0-.24Z"/>
      <path class="cls-3-1-5" d="m153.27,184.14c-.07-.07-.17-.07-.24,0l-.45.45v-1.02c0-.09-.08-.17-.17-.17s-.17.08-.17.17v1.02s-.45-.45-.45-.45c-.07-.07-.17-.07-.24,0-.07.07-.07.17,0,.24l.74.74h0s.12.12.12.12l.12-.12h0s.74-.74.74-.74c.07-.07.07-.17,0-.24Z"/>
    </g>
    <g>
      <path class="cls-3-1-5" d="m136.1,194.66c0,.22-.18.4-.4.4s-.4-.18-.4-.4.18-.4.4-.4.4.18.4.4Z"/>
      <polygon class="cls-3-1-5" points="138.08 198.99 136.65 198.99 136.65 199.5 135.36 199.5 135.36 200.01 134.11 200.01 134.11 200.51 132.86 200.51 132.86 201.02 131.61 201.02 131.61 201.54 130.82 201.54 130.82 202.19 132.34 202.19 132.34 201.66 133.58 201.66 133.58 201.15 134.83 201.15 134.83 200.64 136.08 200.64 136.08 200.13 137.32 200.13 137.32 199.64 138.08 199.64 138.08 198.99"/>
      <path class="cls-3-1-5" d="m136.18,197.13c-.29-.19-.59-.38-.63-.41.11-.51.2-.96.24-1.24,0,0,.03-.25-.16-.29-.28-.06-.67.16-1.12.49-.05.04-.12.1-.15.2-.02.09-.13.64-.19.88-.02.09.03.18.12.2.09.02.17-.03.2-.12.06-.19.19-.61.21-.64.02-.04.2-.18.2-.18l-.34,3.41c0,.1.08.18.18.19.11.01.21-.07.22-.19,0,0,.22-.99.44-2.01l.38.17-.2.99c-.03.1.02.2.11.23.1.03.2-.02.23-.11,0,0,.34-.84.39-.99.05-.16.17-.4-.14-.6Z"/>
      <g>
        <path class="cls-3-1-5" d="m132.66,195.8c0,.22-.18.4-.4.4s-.4-.18-.4-.4.18-.4.4-.4.4.18.4.4Z"/>
        <path class="cls-3-1-5" d="m133.57,198.09s-.06-.44-.12-.71c-.01-.07-.03-.12-.08-.2-.16-.27-.38-.59-.59-.7-.32-.17-.65-.07-.8.19-.16.28-.37.73-.93,1.1-.08.04-.13.11-.1.19.03.08.11.13.19.1,0,0,.02,0,.03-.01.12-.05.61-.28.78-.55l-.14,3.06c-.01.11.07.22.18.23.11.01.21-.07.22-.19l.63-3.39s.2.17.25.3c.04.09.1.36.15.61,0,0,0,0,0,0,.02.09.09.15.18.14.09-.01.15-.09.14-.18Z"/>
        <path class="cls-3-1-5" d="m133.64,199.5l-1.13-.91-.1.66.99.57c.09.06.21.05.27-.04.06-.09.05-.21-.04-.27Z"/>
      </g>
    </g>
    <rect class="cls-2-1-5" x="121.81" y="156.15" width="12.65" height="11.65"/>
    <rect class="cls-1-1-5" x="91.47" y="205.13" width="23.22" height="5.98"/>
    <polyline class="cls-1-1-5" points="73.75 150.01 67.06 150.01 67.06 141.45 83.05 141.45 83.05 150.01 76.69 150.01"/>
    <polyline class="cls-1-1-5" points="55.17 152.08 55.17 150.01 71.87 150.01 71.87 159.18 55.17 159.18 55.17 155.02"/>
    <polyline class="cls-1-1-5" points="89.77 159.18 91.47 159.18 91.47 141.45 79.03 141.45"/>
    <polyline class="cls-1-1-5" points="79.03 150.01 79.03 159.18 85.42 159.18"/>
    <line class="cls-1-1-5" x1="57.75" y1="164.69" x2="91.47" y2="164.69"/>
    <line class="cls-1-1-5" x1="46.48" y1="164.69" x2="49.53" y2="164.69"/>
    <polyline class="cls-1-1-5" points="68.96 183.11 68.96 179.62 79.03 179.62 79.03 189.69 68.96 189.69 68.96 186.81"/>
    <rect class="cls-2-1-5" x="79.37" y="179.62" width="12.1" height="14.38"/>
    <rect class="cls-2-1-5" x="84.7" y="205.13" width="6.77" height="5.98"/>
    <polyline class="cls-1-1-5" points="83.53 198.86 83.53 205.13 91.47 205.13 91.47 194 83.53 194 83.53 196.09"/>
    <polyline class="cls-1-1-5" points="68.96 193.18 68.96 189.69 79.03 189.69 79.03 199.76 68.96 199.76 68.96 196.88"/>
    <polyline class="cls-1-1-5" points="89.78 169.06 91.47 169.06 91.47 179.62 68.96 179.62 68.96 169.06 87.5 169.06"/>
    <g>
      <path class="cls-5-1-5" d="m76.05,142.87c0,.34-.27.61-.61.61s-.61-.27-.61-.61.27-.61.61-.61.61.27.61.61Z"/>
      <path class="cls-5-1-5" d="m75.45,143.67c-.43,0-1.45.04-1.45.88v2c0,.13.09.24.23.25.13,0,.24-.09.25-.23l.11-1.22.12,4.53c0,.17.14.31.31.31s.31-.14.31-.31l.12-2.78.12,2.78c0,.17.14.31.31.31s.31-.14.31-.31l.12-4.53.11,1.22c0,.13.12.23.25.23s.23-.12.23-.25v-2c0-.84-1.01-.88-1.45-.88Z"/>
    </g>
    <g>
      <path class="cls-6-1-5" d="m85.88,150.9c.33,0,.61-.27.61-.61s-.27-.61-.61-.61-.61.27-.61.61.27.61.61.61Z"/>
      <path class="cls-6-1-5" d="m87.62,153.82l-.48-1.77c-.2-.81-.83-.93-1.26-.93s-1.06.12-1.26.93l-.48,1.77c-.05.12.01.26.14.3.12.05.26-.01.3-.14l.48-1.34.12.62-.59,1.88h.88s.05.59.05.59l.07,1.59c0,.17.14.31.31.31s.31-.14.31-.31l.07-1.59.05-.59h.88s-.59-1.88-.59-1.88l.12-.62.48,1.34c.05.12.18.18.3.14.12-.05.18-.18.14-.3Z"/>
    </g>
    <g>
      <g>
        <path class="cls-3-1-5" d="m73.32,184.02c0,.18-.15.33-.33.33s-.33-.15-.33-.33.15-.33.33-.33.33.15.33.33Z"/>
        <path class="cls-3-1-5" d="m72.99,184.44c-.23,0-.79.02-.79.48v1.09c0,.07.05.13.12.13.07,0,.13-.05.13-.12l.06-.66.07,2.46c0,.09.08.17.17.17s.17-.08.17-.17l.07-1.51.07,1.51c0,.09.08.17.17.17s.17-.08.17-.17l.07-2.46.06.66c0,.07.06.13.13.12.07,0,.13-.06.12-.13v-1.09c0-.46-.55-.48-.79-.48Z"/>
      </g>
      <g>
        <path class="cls-3-1-5" d="m75.33,184.02c0,.18-.15.33-.33.33s-.33-.15-.33-.33.15-.33.33-.33.33.15.33.33Z"/>
        <path class="cls-3-1-5" d="m75,184.44c-.23,0-.79.02-.79.48v1.09c0,.07.05.13.12.13.07,0,.13-.05.13-.12l.06-.66.07,2.46c0,.09.08.17.17.17s.17-.08.17-.17l.07-1.51.07,1.51c0,.09.08.17.17.17s.17-.08.17-.17l.07-2.46.06.66c0,.07.06.13.13.12.07,0,.13-.06.12-.13v-1.09c0-.46-.55-.48-.79-.48Z"/>
      </g>
      <path class="cls-3-1-5" d="m76.16,188.22h-4.33c-.33,0-.6-.27-.6-.6v-4.64c0-.33.27-.6.6-.6h4.33c.33,0,.6.27.6.6v4.64c0,.33-.27.6-.6.6Zm-4.33-5.46c-.12,0-.22.1-.22.22v4.64c0,.12.1.22.22.22h4.33c.12,0,.22-.1.22-.22v-4.64c0-.12-.1-.22-.22-.22h-4.33Z"/>
      <path class="cls-3-1-5" d="m75.95,181.15l-.74-.74h0s-.12-.12-.12-.12l-.12.12h0s-.74.74-.74.74c-.07.07-.07.17,0,.24.07.07.17.07.24,0l.45-.45v1.02c0,.09.08.17.17.17s.17-.08.17-.17v-1.02s.45.45.45.45c.03.03.08.05.12.05s.09-.02.12-.05c.07-.07.07-.17,0-.24Z"/>
      <path class="cls-3-1-5" d="m73.84,181.09c-.07-.07-.17-.07-.24,0l-.45.45v-1.02c0-.09-.08-.17-.17-.17s-.17.08-.17.17v1.02s-.45-.45-.45-.45c-.07-.07-.17-.07-.24,0-.07.07-.07.17,0,.24l.74.74h0s.12.12.12.12l.12-.12h0s.74-.74.74-.74c.07-.07.07-.17,0-.24Z"/>
    </g>
    <g>
      <g>
        <path class="cls-3-1-5" d="m73.32,194.5c0,.18-.15.33-.33.33s-.33-.15-.33-.33.15-.33.33-.33.33.15.33.33Z"/>
        <path class="cls-3-1-5" d="m72.99,194.91c-.23,0-.79.02-.79.48v1.09c0,.07.05.13.12.13.07,0,.13-.05.13-.12l.06-.66.07,2.46c0,.09.08.17.17.17s.17-.08.17-.17l.07-1.51.07,1.51c0,.09.08.17.17.17s.17-.08.17-.17l.07-2.46.06.66c0,.07.06.13.13.12.07,0,.13-.06.12-.13v-1.09c0-.46-.55-.48-.79-.48Z"/>
      </g>
      <g>
        <path class="cls-3-1-5" d="m75.33,194.5c0,.18-.15.33-.33.33s-.33-.15-.33-.33.15-.33.33-.33.33.15.33.33Z"/>
        <path class="cls-3-1-5" d="m75,194.91c-.23,0-.79.02-.79.48v1.09c0,.07.05.13.12.13.07,0,.13-.05.13-.12l.06-.66.07,2.46c0,.09.08.17.17.17s.17-.08.17-.17l.07-1.51.07,1.51c0,.09.08.17.17.17s.17-.08.17-.17l.07-2.46.06.66c0,.07.06.13.13.12.07,0,.13-.06.12-.13v-1.09c0-.46-.55-.48-.79-.48Z"/>
      </g>
      <path class="cls-3-1-5" d="m76.16,198.69h-4.33c-.33,0-.6-.27-.6-.6v-4.64c0-.33.27-.6.6-.6h4.33c.33,0,.6.27.6.6v4.64c0,.33-.27.6-.6.6Zm-4.33-5.46c-.12,0-.22.1-.22.22v4.64c0,.12.1.22.22.22h4.33c.12,0,.22-.1.22-.22v-4.64c0-.12-.1-.22-.22-.22h-4.33Z"/>
      <path class="cls-3-1-5" d="m75.95,191.62l-.74-.74h0s-.12-.12-.12-.12l-.12.12h0s-.74.74-.74.74c-.07.07-.07.17,0,.24.07.07.17.07.24,0l.45-.45v1.02c0,.09.08.17.17.17s.17-.08.17-.17v-1.02s.45.45.45.45c.03.03.08.05.12.05s.09-.02.12-.05c.07-.07.07-.17,0-.24Z"/>
      <path class="cls-3-1-5" d="m73.84,191.56c-.07-.07-.17-.07-.24,0l-.45.45v-1.02c0-.09-.08-.17-.17-.17s-.17.08-.17.17v1.02s-.45-.45-.45-.45c-.07-.07-.17-.07-.24,0-.07.07-.07.17,0,.24l.74.74h0s.12.12.12.12l.12-.12h0s.74-.74.74-.74c.07-.07.07-.17,0-.24Z"/>
    </g>
    <g>
      <path class="cls-3-1-5" d="m82.9,170.33c0,.22-.18.4-.4.4s-.4-.18-.4-.4.18-.4.4-.4.4.18.4.4Z"/>
      <polygon class="cls-3-1-5" points="84.88 174.66 83.45 174.66 83.45 175.17 82.16 175.17 82.16 175.68 80.91 175.68 80.91 176.19 79.66 176.19 79.66 176.7 78.42 176.7 78.42 177.21 77.62 177.21 77.62 177.86 79.14 177.86 79.14 177.33 80.38 177.33 80.38 176.82 81.63 176.82 81.63 176.31 82.88 176.31 82.88 175.8 84.13 175.8 84.13 175.31 84.88 175.31 84.88 174.66"/>
      <path class="cls-3-1-5" d="m82.98,172.8c-.29-.19-.59-.38-.63-.41.11-.51.2-.96.24-1.24,0,0,.03-.25-.16-.29-.28-.06-.67.16-1.12.49-.05.04-.12.1-.15.2-.02.09-.13.64-.19.88-.02.09.03.18.12.2.09.02.17-.03.2-.12.06-.19.19-.61.21-.64.02-.04.2-.18.2-.18l-.34,3.41c0,.1.08.18.18.19.11.01.21-.07.22-.19,0,0,.22-.99.44-2.01l.38.17-.2.99c-.03.1.02.2.11.23.1.03.2-.02.23-.11,0,0,.34-.84.39-.99.05-.16.17-.4-.14-.6Z"/>
      <g>
        <path class="cls-3-1-5" d="m79.46,171.47c0,.22-.18.4-.4.4s-.4-.18-.4-.4.18-.4.4-.4.4.18.4.4Z"/>
        <path class="cls-3-1-5" d="m80.37,173.77s-.06-.44-.12-.71c-.01-.07-.03-.12-.08-.2-.16-.27-.38-.59-.59-.7-.32-.17-.65-.07-.8.19-.16.28-.37.73-.93,1.1-.08.04-.13.11-.1.19.03.08.11.13.19.1,0,0,.02,0,.03-.01.12-.05.61-.28.78-.55l-.14,3.06c-.01.11.07.22.18.23.11.01.21-.07.22-.19l.63-3.39s.2.17.25.3c.04.09.1.36.15.61,0,0,0,0,0,0,.02.09.09.15.18.14.09-.01.15-.09.14-.18Z"/>
        <path class="cls-3-1-5" d="m80.44,175.17l-1.13-.91-.1.66.99.57c.09.06.21.05.27-.04.06-.09.05-.21-.04-.27Z"/>
      </g>
    </g>
    <rect class="cls-1-1-5" x="55.17" y="84.77" width="11.89" height="65.24"/>
    <rect class="cls-2-1-5" x="67.06" y="84.77" width="23.76" height="2.83"/>
    <rect class="cls-2-1-5" x="67.06" y="132.96" width="24.41" height="8.56"/>
    <polyline class="cls-1-1-5" points="167.86 74.1 90.81 74.1 90.81 3.15 198.28 3.15 198.28 74.1"/>
    <polyline class="cls-1-1-5" points="46.48 3.15 90.81 3.15 90.81 74.1 46.48 74.1 46.48 47.81"/>
    <rect class="cls-1-1-5" x="40.23" y="3.15" width="17.53" height="44.66"/>
    <rect class="cls-1-1-5" x="46.48" y="47.81" width="11.27" height="26.29"/>
    <polygon class="cls-1-1-5" points="164.68 203.08 164.68 181.71 159.75 181.71 159.75 203.08 134.45 203.08 134.45 211.11 198.28 211.11 198.28 203.08 164.68 203.08"/>
    <rect class="cls-1-1-5" x="164.68" y="181.71" width="33.61" height="21.36"/>
    <rect class="cls-1-1-5" x="167.86" y="158.19" width="30.42" height="23.52"/>
    <rect class="cls-1-1-5" x="167.86" y="134.67" width="30.42" height="23.52"/>
    <rect class="cls-1-1-5" x="167.86" y="111.15" width="30.42" height="23.52"/>
    <rect class="cls-1-1-5" x="167.86" y="87.63" width="30.42" height="23.52"/>
    <rect class="cls-1-1-5" x="167.86" y="64.11" width="30.42" height="23.52"/>
    <line class="cls-1-1-5" x1="167.86" y1="169.95" x2="198.28" y2="169.95"/>
    <line class="cls-1-1-5" x1="167.86" y1="122.91" x2="198.28" y2="122.91"/>
    <rect class="cls-1-1-5" x="167.86" y="52.34" width="30.42" height="11.76"/>
    <rect class="cls-1-1-5" x="71.25" y="58.65" width="19.57" height="15.45"/>
    <rect class="cls-1-1-5" x="57.75" y="62.4" width="13.49" height="11.71"/>
    <line class="cls-1-1-5" x1="55.15" y1="117.54" x2="67.03" y2="117.54"/>
  </g>
  <g id="_10511B" data-name="10511B">
    <polygon class="cls-7-1-5" points="114.73 84.77 85.47 84.77 85.47 134.37 91.47 134.37 91.47 205.13 114.69 205.13 114.69 134.37 114.73 134.37 114.73 84.77"/>
    <text class="cls-9-1-5" transform="translate(89.27 98.39)"><tspan x="0" y="0">10515A</tspan></text>
    <text class="cls-9-1-5" transform="translate(92.2 148.43)"><tspan x="0" y="0">10513A</tspan></text>
    <text class="cls-9-1-5" transform="translate(92.44 195.37)"><tspan x="0" y="0">10511B</tspan></text>
    <text class="cls-9-1-5" transform="translate(89.11 124.68)"><tspan x="0" y="0">10513B</tspan></text>
    <rect class="cls-1-1-5" x="91.47" y="180.99" width="23.22" height="24.13"/>
    <polyline class="cls-1-1-5" points="114.69 132.88 114.69 157.02 91.47 157.02 91.47 132.88 91.47 132.88 67.06 132.88 67.06 84.77 114.69 84.77 114.69 132.88"/>
    <polyline class="cls-1-1-5" points="114.69 132.64 114.69 136.17 85.42 136.17 85.42 110.47 114.69 110.47 114.69 132.64"/>
    <rect class="cls-1-1-5" x="85.42" y="84.77" width="29.26" height="25.7"/>
    <rect class="cls-1-1-5" x="91.47" y="157" width="23.22" height="24.13"/>
    <rect class="cls-1-1-5" x="85.42" y="102.49" width="19.76" height="7.97"/>
    <text class="cls-8-1-5" transform="translate(94.38 170.69)"><tspan x="0" y="0">10512</tspan></text>
  </g>
</svg>