<?xml version="1.0" encoding="UTF-8"?>
<svg xmlns="http://www.w3.org/2000/svg" xmlns:xlink="http://www.w3.org/1999/xlink" viewBox="0 0 550.7 580.86">
  <defs>
    <style>
      .cls-1-1-5, .cls-2-1-5, .cls-3-1-5, .cls-4-1-5, .cls-5-1-5, .cls-6-1-5, .cls-7-1-5, .cls-8-1-5-1-5, .cls-9-1-5 {
        stroke-miterlimit: 10;
      }

      .cls-1-1-5, .cls-2-1-5, .cls-4-1-5, .cls-5-1-5 {
        stroke: #231815;
      }

      .cls-1-1-5, .cls-2-1-5, .cls-4-1-5, .cls-5-1-5, .cls-6-1-5, .cls-7-1-5, .cls-8-1-5, .cls-9-1-5 {
        stroke-width: 2px;
      }

      .cls-1-1-5, .cls-1-1-50-1-5 {
        fill: #dcdddd;
      }

      .cls-2-1-5 {
        fill: none;
      }

      .cls-1-1-51-1-5 {
        stroke-width: 0px;
      }

      .cls-1-1-51-1-5, .cls-3-1-5, .cls-6-1-5, .cls-7-1-5, .cls-8-1-5, .cls-9-1-5 {
        fill: #7a1a24;
      }

      .cls-1-1-51-1-5, .cls-3-1-5, .cls-6-1-5, .cls-9-1-5 {
        opacity: .2;
      }

      .cls-1-1-50-1-5, .cls-1-1-52-1-5 {
        font-family: KozGoPr6N-Regular-90ms-RKSJ-H, 'Kozuka Gothic Pr6N';
        font-size: 12px;
      }

      .cls-3-1-5, .cls-9-1-5 {
        stroke: #dcdddd;
      }

      .cls-4-1-5 {
        fill: #231815;
      }

      .cls-5-1-5 {
        fill: #040000;
      }

      .cls-6-1-5, .cls-7-1-5 {
        stroke: #7a1a24;
      }

      .cls-8-1-5 {
        stroke: #595757;
      }

      .cls-1-1-52-1-5 {
        fill: #f7f8f8;
      }
    </style>
  </defs>
  <g id="_10511B" data-name="10511B">
    <rect class="cls-7-1-5" x="247.46" y="422.35" width="60.78" height="65.27"/>
    <rect class="cls-8-1-5" x="247.4" y="489.75" width="59.78" height="61.17"/>
    <rect class="cls-7-1-5" x="247.46" y="357.42" width="60.78" height="62.62"/>
    <rect class="cls-7-1-5" x="231.9" y="200.2" width="76.34" height="162.41"/>
    <text class="cls-1-1-50-1-5" transform="translate(254.35 392.49)"><tspan x="0" y="0">０５１３</tspan><tspan x="18.67" y="21">A </tspan></text>
    <text class="cls-1-1-50-1-5" transform="translate(242.56 330.82)"><tspan x="0" y="0">０５１３B</tspan></text>
    <text class="cls-1-1-50-1-5" transform="translate(243.65 241.27)"><tspan x="0" y="0">０５１５A</tspan></text>
    <text class="cls-1-1-52-1-5" transform="translate(247.29 513.08)"><tspan x="0" y="0">１０５１１</tspan><tspan x="0" y="21">　　B</tspan></text>
    <text id="_" data-name=" ０５１２" class="cls-1-1-50-1-5"><tspan x="253.43" y="462.05">０５１２</tspan></text>
  </g>
  <g id="_レイヤー_6" data-name="レイヤー 6">
    <g>
    </g>
  </g>
  <g id="_レイヤー_5" data-name="レイヤー 5">
    <rect class="cls-9-1-5" x="246.46" y="548.52" width="60.78" height="21.38"/>
    <rect class="cls-6-1-5" x="427.82" y="487.35" width="101.18" height="82.55"/>
    <rect class="cls-6-1-5" x="445.08" y="173.78" width="83.92" height="312.84"/>
  </g>
  <g id="_レイヤー_3" data-name="レイヤー 3">
    <rect class="cls-4-1-5" x="329.21" y="216.74" width="98.61" height="19.71"/>
    <rect class="cls-4-1-5" x="403.16" y="218.31" width="24.65" height="44.6"/>
    <rect class="cls-4-1-5" x="329.21" y="218.31" width="16.57" height="44.6"/>
    <rect class="cls-4-1-5" x="329.21" y="299.01" width="98.61" height="63.85"/>
    <rect class="cls-4-1-5" x="378.51" y="373.68" width="19.37" height="11.91"/>
    <rect class="cls-3-1-5" x="22.21" y="21.07" width="109.2" height="426.34"/>
    <rect class="cls-4-1-5" x="395.05" y="516.63" width="32.77" height="26.43"/>
    <rect class="cls-4-1-5" x="216.35" y="482.1" width="31.11" height="34.53"/>
    <rect class="cls-4-1-5" x="230.87" y="548.52" width="16.59" height="21.38"/>
    <rect class="cls-4-1-5" x="183.23" y="357.42" width="64.23" height="24.85"/>
    <rect class="cls-1-1-51-1-5" x="151.61" y="200.2" width="31.62" height="204.01"/>
    <rect class="cls-9-1-5" x="129.81" y="21.07" width="401.44" height="152.71"/>
    <rect class="cls-5-1-5" x="183.23" y="200.2" width="60.42" height="8.88"/>
    <line class="cls-2-1-5" x1="232.23" y1="285.46" x2="308.95" y2="285.46"/>
  </g>
  <g id="_レイヤー_2" data-name="レイヤー 2">
    <line class="cls-2-1-5" x1="531.25" y1="21.07" x2="88.83" y2="21.07"/>
    <polyline class="cls-2-1-5" points="88.83 21.07 20.21 21.07 20.21 76.09"/>
    <polyline class="cls-2-1-5" points="129.81 258.6 129.81 447.41 20.21 447.41 20.21 242.62 129.41 242.62"/>
    <path class="cls-2-1-5" d="m531.25,542.14v27.76H230.87v-5.41c-3.76.75-9.21,1.5-15.76,1.2-5.18-.24-15.67-.72-25.19-6.44-14.71-8.85-18.86-25.27-19.82-29.58-.48-2.96-1.52-7.42-4.06-12.2-6.48-12.19-17.13-15.87-23.57-21.14-7.53-6.16-14.88-19.04-12.66-48.91"/>
    <polyline class="cls-2-1-5" points="394.92 270.73 394.92 262.91 427.82 262.91 427.82 299.01 394.92 299.01 394.92 281.61"/>
    <line class="cls-2-1-5" x1="394.92" y1="262.91" x2="358.25" y2="262.91"/>
    <polyline class="cls-2-1-5" points="344.7 262.91 343.41 262.91 343.41 248.49 343.41 235.44 348.2 235.44 403.78 235.44 403.78 262.91"/>
    <polyline class="cls-2-1-5" points="427.82 262.91 427.82 216.74 329.21 216.74 329.21 260.49 345.78 260.49"/>
    <line class="cls-2-1-5" x1="329.21" y1="260.49" x2="329.21" y2="262.91"/>
    <polyline class="cls-2-1-5" points="394.92 299.01 329.21 299.01 329.21 359.83 343.6 359.83 343.6 362.62 427.82 362.62"/>
    <polyline class="cls-2-1-5" points="416.74 373.68 427.82 373.68 427.82 393.58 427.82 420.03 419.49 420.03 378.51 420.03 378.51 373.68 409.54 373.68"/>
    <rect class="cls-2-1-5" x="378.51" y="373.68" width="19.37" height="11.91"/>
    <polyline class="cls-2-1-5" points="377.46 373.68 378.51 373.68 378.51 398.95 357.16 398.95 357.16 373.68 370.26 373.68"/>
    <polyline class="cls-2-1-5" points="378.51 420.03 329.21 420.03 329.21 407.61 329.21 407.61 329.21 389.27 329.21 389.27 329.21 373.68 337.07 373.68"/>
    <line class="cls-2-1-5" x1="346.85" y1="373.68" x2="357.16" y2="373.68"/>
    <line class="cls-2-1-5" x1="395.05" y1="420.03" x2="395.05" y2="450.68"/>
    <line class="cls-2-1-5" x1="361.22" y1="420.03" x2="361.22" y2="450.68"/>
    <line class="cls-2-1-5" x1="329.21" y1="447.41" x2="329.21" y2="451.35"/>
    <line class="cls-2-1-5" x1="372.17" y1="487.35" x2="351.28" y2="487.35"/>
    <line class="cls-2-1-5" x1="405" y1="487.35" x2="384.82" y2="487.35"/>
    <polyline class="cls-2-1-5" points="329.11 529.7 329.11 543.06 427.82 543.06 427.82 487.35 416.93 487.35"/>
    <polyline class="cls-2-1-5" points="340.48 487.35 329.11 487.35 329.11 520.75"/>
    <line class="cls-2-1-5" x1="427.82" y1="516.63" x2="329.11" y2="516.63"/>
    <line class="cls-2-1-5" x1="394.91" y1="487.35" x2="394.91" y2="543.06"/>
    <line class="cls-2-1-5" x1="361.72" y1="487.35" x2="361.72" y2="516.63"/>
    <polyline class="cls-2-1-5" points="199.53 404.21 183.23 404.21 183.23 382.26 225.02 382.26 225.02 404.21 210.92 404.21"/>
    <polyline class="cls-2-1-5" points="214.84 404.21 214.84 428.44 231.66 428.44"/>
    <polyline class="cls-2-1-5" points="151.61 407.89 151.61 404.21 195.2 404.21 195.2 428.44 151.61 428.44 151.61 416.75"/>
    <line class="cls-2-1-5" x1="129.81" y1="441.43" x2="137.65" y2="441.43"/>
    <line class="cls-2-1-5" x1="158.79" y1="441.43" x2="247.46" y2="441.43"/>
    <polyline class="cls-2-1-5" points="226.35 540.14 226.35 548.52 247.46 548.52 247.46 516.63 226.35 516.63 226.35 525.75"/>
    <rect class="cls-2-1-5" x="216.35" y="482.1" width="31.11" height="34.53"/>
    <polyline class="cls-2-1-5" points="235.69 454.75 191.19 454.75 191.19 482.1 247.46 482.1 247.46 454.75 243.13 454.75"/>
    <polyline class="cls-2-1-5" points="191.19 527.18 191.19 534.32 216.35 534.32 216.35 482.1 191.19 482.1 191.19 488.67"/>
    <line class="cls-2-1-5" x1="191.19" y1="500.21" x2="191.19" y2="514.88"/>
    <line class="cls-2-1-5" x1="191.19" y1="508.21" x2="216.35" y2="508.21"/>
    <line class="cls-2-1-5" x1="230.87" y1="564.49" x2="230.87" y2="548.52"/>
    <line class="cls-2-1-5" x1="129.81" y1="320.93" x2="129.81" y2="276.52"/>
    <line class="cls-2-1-5" x1="221.23" y1="357.42" x2="248.46" y2="357.42"/>
    <line class="cls-2-1-5" x1="247.46" y1="366.7" x2="247.46" y2="357.42"/>
    <line class="cls-2-1-5" x1="183.23" y1="382.26" x2="183.23" y2="200.2"/>
    <line class="cls-2-1-5" x1="151.61" y1="404.21" x2="151.61" y2="200.2"/>
    <line class="cls-2-1-5" x1="129.81" y1="121.35" x2="129.81" y2="258.6"/>
    <polyline class="cls-2-1-5" points="129.81 173.78 431.57 173.78 442.6 173.78 445.08 173.78"/>
    <line class="cls-2-1-5" x1="531.25" y1="569.9" x2="531.25" y2="21.07"/>
    <line class="cls-2-1-5" x1="243.65" y1="173.78" x2="243.65" y2="21.07"/>
    <line class="cls-2-1-5" x1="445.08" y1="232.18" x2="531.25" y2="232.18"/>
    <line class="cls-2-1-5" x1="445.08" y1="486.63" x2="445.08" y2="121.35"/>
    <line class="cls-2-1-5" x1="531.25" y1="436.06" x2="445.08" y2="436.06"/>
    <line class="cls-2-1-5" x1="531.25" y1="332.46" x2="445.08" y2="332.46"/>
    <line class="cls-2-1-5" x1="232.23" y1="261.7" x2="282.59" y2="261.7"/>
    <line class="cls-2-1-5" x1="282.59" y1="285.46" x2="282.59" y2="261.7"/>
    <line class="cls-2-1-5" x1="361.22" y1="543.06" x2="361.22" y2="569.9"/>
    <line class="cls-2-1-5" x1="427.82" y1="487.35" x2="531.25" y2="487.35"/>
    <line class="cls-2-1-5" x1="438.24" y1="488.77" x2="438.24" y2="544.48"/>
    <line class="cls-2-1-5" x1="531.25" y1="542.14" x2="435.84" y2="542.14"/>
    <line class="cls-2-1-5" x1="445.08" y1="150.86" x2="531.25" y2="150.86"/>
    <line class="cls-2-1-5" x1="444.09" y1="121.35" x2="531.25" y2="121.35"/>
    <line class="cls-2-1-5" x1="445.08" y1="307.03" x2="531.25" y2="307.03"/>
    <line class="cls-2-1-5" x1="445.08" y1="358.27" x2="531.25" y2="358.27"/>
    <line class="cls-2-1-5" x1="445.08" y1="463.26" x2="531.25" y2="463.26"/>
    <line class="cls-2-1-5" x1="20.21" y1="76.09" x2="20.21" y2="245.57"/>
    <line class="cls-2-1-5" x1="151.61" y1="303.99" x2="183.23" y2="303.99"/>
    <line class="cls-2-1-5" x1="150.61" y1="21.07" x2="151.61" y2="173.78"/>
    <line class="cls-2-1-5" x1="151.61" y1="146.32" x2="191.19" y2="146.32"/>
    <line class="cls-2-1-5" x1="191.19" y1="131" x2="191.19" y2="173.78"/>
    <line class="cls-2-1-5" x1="243.65" y1="131" x2="191.19" y2="131"/>
    <line class="cls-2-1-5" x1="150.61" y1="121.35" x2="113.05" y2="121.35"/>
    <line class="cls-1-1-5" x1="113.05" y1="21.07" x2="113.05" y2="121.35"/>
    <polyline class="cls-2-1-5" points="307.12 428.44 247.46 428.44 245.55 428.44 243.65 428.44"/>
    <rect class="cls-2-1-5" x="247.46" y="362.62" width="60.78" height="207.29"/>
    <line class="cls-2-1-5" x1="232.23" y1="357.42" x2="232.23" y2="200.2"/>
    <line class="cls-2-1-5" x1="308.24" y1="362.62" x2="308.24" y2="199.27"/>
    <line class="cls-2-1-5" x1="308.24" y1="200.2" x2="150.61" y2="200.2"/>
    <line class="cls-2-1-5" x1="247.46" y1="548.52" x2="308.24" y2="548.52"/>
  </g>
  <g id="_レイヤー_4" data-name="レイヤー 4">
    <rect class="cls-3-1-5" x="361.22" y="543.06" width="66.59" height="26.84"/>
  </g>
</svg>