<?xml version="1.0" encoding="UTF-8"?>
<svg xmlns="http://www.w3.org/2000/svg" xmlns:xlink="http://www.w3.org/1999/xlink" viewBox="0 0 318.16 576">
  <defs>
    <style>
      .cls-1-1-6, .cls-2-1-6 {
        fill: none;
      }

      .cls-1-1-6, .cls-2-1-6, .cls-3-1-6 {
        stroke: #231815;
      }

      .cls-1-1-6, .cls-2-1-6, .cls-3-1-6, .cls-4-1-6, .cls-5-1-6 {
        stroke-miterlimit: 10;
      }

      .cls-2-1-6, .cls-4-1-6, .cls-5-1-6 {
        stroke-width: 2px;
      }

      .cls-3-1-6 {
        fill: #231815;
      }

      .cls-6-1-6 {
        fill: #f7f8f8;
        font-family: KozGoPr6N-Regular-90ms-RKSJ-H, 'Kozuka Gothic Pr6N';
        font-size: 30px;
      }

      .cls-4-1-6 {
        stroke: #595757;
      }

      .cls-4-1-6, .cls-5-1-6 {
        fill: #7a1a24;
      }

      .cls-5-1-6 {
        opacity: .2;
        stroke: #dcdddd;
      }
    </style>
  </defs>
  <g id="_レイヤー_5" data-name="レイヤー 5">
    
  </g>
  <g id="_レイヤー_4" data-name="レイヤー 4">
    <rect class="cls-5-1-6" x="232.79" y="193.02" width="76.32" height="374.65"/>
    <rect class="cls-5-1-6" x="11.56" y="193.02" width="76.84" height="227.16"/>
    <rect class="cls-5-1-6" x="11.56" y="473.55" width="76.84" height="94.11"/>
    <rect class="cls-5-1-6" x="41.2" y="415.5" width="47.19" height="63.76"/>
  </g>
  <g id="_レイヤー_2" data-name="レイヤー 2">
    <rect class="cls-2-1-6" x="11.56" y="10.98" width="297.55" height="182.04"/>
    <rect class="cls-2-1-6" x="232.79" y="193.02" width="76.32" height="374.65"/>
    <rect class="cls-2-1-6" x="11.56" y="193.02" width="76.84" height="227.16"/>
    <rect class="cls-2-1-6" x="41.2" y="420.18" width="47.19" height="53.37"/>
    <line class="cls-2-1-6" x1="232.79" y1="567.66" x2="88.39" y2="567.66"/>
    <rect class="cls-2-1-6" x="11.56" y="473.55" width="76.84" height="94.11"/>
    <line class="cls-2-1-6" x1="11.56" y1="549.51" x2="88.4" y2="549.51"/>
    <line class="cls-2-1-6" x1="88.4" y1="383.04" x2="11.56" y2="383.04"/>
    <line class="cls-2-1-6" x1="11.56" y1="350.72" x2="88.4" y2="350.72"/>
    <line class="cls-2-1-6" x1="88.4" y1="319.23" x2="11.56" y2="319.23"/>
    <line class="cls-2-1-6" x1="11.56" y1="287.9" x2="88.4" y2="287.9"/>
    <line class="cls-2-1-6" x1="88.4" y1="255.41" x2="11.56" y2="255.41"/>
    <line class="cls-2-1-6" x1="63.43" y1="287.9" x2="63.43" y2="279.07"/>
    <line class="cls-2-1-6" x1="63.43" y1="263.74" x2="63.43" y2="255.41"/>
    <line class="cls-2-1-6" x1="232.79" y1="224.06" x2="309.11" y2="224.06"/>
    <line class="cls-2-1-6" x1="309.11" y1="287.98" x2="232.79" y2="287.98"/>
    <line class="cls-2-1-6" x1="232.79" y1="351.44" x2="309.11" y2="351.44"/>
    <line class="cls-2-1-6" x1="309.11" y1="415.5" x2="232.79" y2="415.5"/>
    <line class="cls-2-1-6" x1="232.79" y1="479.26" x2="309.11" y2="479.26"/>
    <polyline class="cls-2-1-6" points="201.13 483.38 212.29 483.38 212.29 539.55 110.81 539.55 110.81 527.03"/>
    <line class="cls-2-1-6" x1="167.58" y1="483.38" x2="189.41" y2="483.38"/>
    <line class="cls-2-1-6" x1="134.67" y1="483.38" x2="155.64" y2="483.38"/>
    <polyline class="cls-2-1-6" points="110.81 516.6 110.81 483.38 122.74 483.38"/>
    <line class="cls-2-1-6" x1="110.81" y1="513.27" x2="212.29" y2="513.27"/>
    <line class="cls-2-1-6" x1="178.49" y1="483.38" x2="178.49" y2="539.55"/>
    <line class="cls-2-1-6" x1="145.16" y1="483.38" x2="145.16" y2="513.27"/>
    <polyline class="cls-2-1-6" points="212.29 446.22 212.29 401.11 212.29 401.11 212.29 382.81 212.29 382.81 212.29 367.73 201.31 367.73"/>
    <polyline class="cls-2-1-6" points="212.29 445.28 194.98 445.28 194.98 445.28 167.94 445.28"/>
    <line class="cls-2-1-6" x1="110.81" y1="446.3" x2="110.81" y2="431.37"/>
    <polyline class="cls-2-1-6" points="155.64 445.28 127.96 445.28 127.96 445.28 110.81 445.28"/>
    <polyline class="cls-2-1-6" points="110.81 420.18 110.81 400.76 110.81 401.54 110.81 382.36 110.81 382.36 110.81 367.73 120.5 367.73"/>
    <line class="cls-2-1-6" x1="212.29" y1="415.23" x2="110.81" y2="415.23"/>
    <line class="cls-2-1-6" x1="178.56" y1="445.28" x2="178.56" y2="415.23"/>
    <line class="cls-2-1-6" x1="144.78" y1="445.28" x2="144.78" y2="415.23"/>
    <polyline class="cls-2-1-6" points="192.58 367.73 161.55 367.73 161.55 415.23"/>
    <rect class="cls-1-1-6" x="161.55" y="367.73" width="20.18" height="11.31"/>
    <line class="cls-2-1-6" x1="129.03" y1="367.73" x2="152.83" y2="367.73"/>
    <polyline class="cls-2-1-6" points="161.55 392.07 140.23 392.07 140.23 367.73"/>
    <polygon class="cls-1-1-6" points="212.29 292.56 212.29 354.81 196.79 354.8 196.79 354.8 125.79 354.8 125.79 354.8 110.8 354.8 110.8 292.56 212.29 292.56"/>
    <line class="cls-1-1-6" x1="212.29" y1="352.39" x2="212.29" y2="354.81"/>
    <line class="cls-1-1-6" x1="110.8" y1="352.39" x2="110.8" y2="354.8"/>
    <line class="cls-2-1-6" x1="212.29" y1="292.56" x2="212.29" y2="254.39"/>
    <polygon class="cls-1-1-6" points="212.29 216.21 212.29 254.39 187.02 254.39 187.02 226.26 127.81 226.26 127.81 239.6 127.81 239.6 127.81 251.8 110.8 251.8 110.8 216.21 212.29 216.21"/>
    <line class="cls-1-1-6" x1="127.81" y1="249.21" x2="127.81" y2="251.8"/>
    <line class="cls-2-1-6" x1="140.79" y1="254.39" x2="187.02" y2="254.39"/>
    <line class="cls-2-1-6" x1="178.22" y1="292.56" x2="178.22" y2="274.87"/>
    <line class="cls-2-1-6" x1="178.22" y1="262.65" x2="178.22" y2="254.39"/>
    <rect class="cls-3-1-6" x="161.55" y="367.73" width="20.18" height="11.31"/>
    <rect class="cls-3-1-6" x="110.8" y="292.56" width="101.93" height="62.24"/>
    <rect class="cls-3-1-6" x="110.8" y="216.21" width="17.01" height="35.59"/>
    <rect class="cls-3-1-6" x="187.02" y="216.21" width="25.71" height="38.65"/>
    <rect class="cls-3-1-6" x="125.97" y="216.21" width="66.61" height="10.19"/>
    <rect class="cls-3-1-6" x="178.56" y="513.27" width="33.73" height="26.28"/>
  </g>
  <g id="_10609" data-name="10609">
    <rect class="cls-4-1-6" x="12.68" y="9.54" width="297.55" height="182.04"/>
    <text class="cls-6-1-6" transform="translate(85.45 110.68)"><tspan x="0" y="0">１０６０９</tspan></text>
  </g>
</svg>