<?xml version="1.0" encoding="UTF-8"?>
<svg xmlns="http://www.w3.org/2000/svg" viewBox="0 0 214.5 236">
  <defs>
    <style>
      .cls-1-1-6 {
        fill: none;
      }

      .cls-1-1-6, .cls-2-1-6 {
        stroke: #231815;
        stroke-miterlimit: 10;
      }

      .cls-3-1-6, .cls-4-1-6, .cls-5-1-6, .cls-6-1-6, .cls-7-1-6 {
        stroke-width: 0px;
      }

      .cls-3-1-6, .cls-2-1-6, .cls-8-1-6 {
        fill: #231815;
      }

      .cls-4-1-6 {
        opacity: .2;
      }

      .cls-4-1-6, .cls-7-1-6 {
        fill: #7a1a24;
      }

      .cls-5-1-6 {
        fill: #2d3e6a;
      }

      .cls-6-1-6 {
        fill: #ba1f21;
      }

      .cls-9-1-6 {
        fill: #fff;
      }

      .cls-9-1-6, .cls-8-1-6 {
        font-family: KozGoPr6N-Regular-90ms-RKSJ-H, 'Kozuka Gothic Pr6N';
        font-size: 7px;
      }
    </style>
  </defs>
  <g id="_レイヤー_1" data-name="レイヤー 1">
    <g>
      <polygon class="cls-4-1-6" points="90.36 79.36 90.36 170.06 101.47 170.06 101.47 193.71 90.36 193.71 90.36 233.23 121.69 233.23 121.69 79.36 90.36 79.36"/>
      <rect class="cls-4-1-6" x="180.02" y="78.89" width="31.33" height="153.87"/>
      <polyline class="cls-1-1-6" points="48.54 179.34 2.31 179.34 2.31 2.8 48.54 2.8"/>
      <path class="cls-1-1-6" d="m90.36,226.11c-4.73.12-10.79.08-13.48-.74-1.74-.53-6.04-2.26-9.45-7.04-2.75-3.86-4.13-11.31-5.34-13.19-1.98-3.07-4.7-3.2-8.5-6.65-2.09-1.89-4.55-6.18-4.85-10.01-.19-2.43-.19-9.13-.19-9.13"/>
      <polyline class="cls-1-1-6" points="48.54 2.8 211.35 2.8 211.35 225.83 211.35 232.76 90.36 233.03"/>
      <rect class="cls-2-1-6" x="129.33" y="116.38" width="40.69" height="25.56"/>
      <polyline class="cls-1-1-6" points="129.33 98.96 129.33 84.34 170.02 84.34 170.02 116.38 129.33 116.38"/>
      <line class="cls-1-1-6" x1="156.96" y1="108.51" x2="156.96" y2="116.38"/>
      <line class="cls-1-1-6" x1="156.96" y1="98.96" x2="156.96" y2="103.88"/>
      <polyline class="cls-2-1-6" points="141.86 98.96 161.02 98.96 161.02 87.72 135.82 87.72 135.82 98.96 129.33 98.96 129.33 84.34 170.02 84.34 170.02 98.96 141.86 98.96"/>
      <g>
        <path class="cls-3-1-6" d="m151.63,89.99c0,.24-.19.43-.43.43s-.43-.19-.43-.43.19-.43.43-.43.43.19.43.43Z"/>
        <polygon class="cls-3-1-6" points="153.76 94.63 152.22 94.63 152.22 95.18 150.84 95.18 150.84 95.73 149.5 95.73 149.5 96.27 148.16 96.27 148.16 96.82 146.82 96.82 146.82 97.37 145.97 97.37 145.97 98.07 147.6 98.07 147.6 97.5 148.93 97.5 148.93 96.95 150.27 96.95 150.27 96.4 151.61 96.4 151.61 95.86 152.95 95.86 152.95 95.33 153.76 95.33 153.76 94.63"/>
        <path class="cls-3-1-6" d="m151.72,92.64c-.32-.21-.63-.41-.67-.44.11-.54.21-1.03.26-1.33,0,0,.04-.27-.17-.31-.3-.06-.72.17-1.2.53-.05.04-.13.1-.16.21-.03.1-.14.69-.2.94-.02.09.03.19.13.21.09.02.18-.03.21-.13.07-.21.2-.65.22-.68.02-.04.21-.19.21-.19l-.36,3.66c0,.11.09.19.19.21.12.01.22-.08.24-.2,0,0,.24-1.06.47-2.15l.41.19-.21,1.06c-.03.1.02.21.12.25.1.03.21-.02.25-.12,0,0,.37-.9.42-1.06.05-.17.18-.43-.15-.64Z"/>
        <g>
          <path class="cls-3-1-6" d="m147.95,91.21c0,.24-.19.43-.43.43s-.43-.19-.43-.43.19-.43.43-.43.43.19.43.43Z"/>
          <path class="cls-3-1-6" d="m148.92,93.67s-.06-.47-.12-.76c-.02-.07-.04-.13-.09-.22-.17-.29-.41-.63-.63-.75-.35-.18-.69-.08-.86.2-.17.3-.39.78-1,1.18-.08.05-.14.12-.11.21.03.09.12.14.21.11.01,0,.02,0,.03-.01.13-.06.65-.3.83-.59l-.15,3.29c-.01.12.07.23.19.25.12.01.22-.08.24-.2l.68-3.64s.22.18.27.33c.04.1.11.39.16.65,0,0,0,0,0,0,.02.1.1.16.19.15.09-.01.16-.1.15-.19Z"/>
          <path class="cls-3-1-6" d="m149,95.18l-1.21-.98-.1.7,1.06.61c.09.07.22.05.29-.04.07-.09.05-.22-.04-.29Z"/>
        </g>
      </g>
      <g>
        <g>
          <path class="cls-3-1-6" d="m162.84,107c0,.2-.16.35-.35.35s-.35-.16-.35-.35.16-.35.35-.35.35.16.35.35Z"/>
          <path class="cls-3-1-6" d="m162.49,107.44c-.25,0-.84.02-.84.51v1.17c0,.08.06.14.13.14.08,0,.14-.06.14-.13l.07-.71.07,2.64c0,.1.08.18.18.18s.18-.08.18-.18l.07-1.62.07,1.62c0,.1.08.18.18.18s.18-.08.18-.18l.07-2.64.07.71c0,.08.07.13.14.13.08,0,.13-.07.13-.14v-1.17c0-.49-.59-.51-.84-.51Z"/>
        </g>
        <g>
          <path class="cls-3-1-6" d="m165,107c0,.2-.16.35-.35.35s-.35-.16-.35-.35.16-.35.35-.35.35.16.35.35Z"/>
          <path class="cls-3-1-6" d="m164.65,107.44c-.25,0-.84.02-.84.51v1.17c0,.08.06.14.13.14.08,0,.14-.06.14-.13l.07-.71.07,2.64c0,.1.08.18.18.18s.18-.08.18-.18l.07-1.62.07,1.62c0,.1.08.18.18.18s.18-.08.18-.18l.07-2.64.07.71c0,.08.07.13.14.13.08,0,.13-.07.13-.14v-1.17c0-.49-.59-.51-.84-.51Z"/>
        </g>
        <path class="cls-3-1-6" d="m165.89,111.5h-4.64c-.36,0-.65-.29-.65-.65v-4.97c0-.36.29-.65.65-.65h4.64c.36,0,.65.29.65.65v4.97c0,.36-.29.65-.65.65Zm-4.64-5.86c-.13,0-.24.11-.24.24v4.97c0,.13.11.24.24.24h4.64c.13,0,.24-.11.24-.24v-4.97c0-.13-.11-.24-.24-.24h-4.64Z"/>
        <path class="cls-3-1-6" d="m165.66,103.92l-.79-.79h0s-.13-.13-.13-.13l-.13.13h0s-.79.79-.79.79c-.07.07-.07.18,0,.25.07.07.18.07.25,0l.49-.49v1.09c0,.1.08.18.18.18s.18-.08.18-.18v-1.09s.49.49.49.49c.04.04.08.05.13.05s.09-.02.13-.05c.07-.07.07-.18,0-.25Z"/>
        <path class="cls-3-1-6" d="m163.4,103.86c-.07-.07-.18-.07-.25,0l-.49.49v-1.09c0-.1-.08-.18-.18-.18s-.18.08-.18.18v1.09s-.49-.49-.49-.49c-.07-.07-.18-.07-.25,0-.07.07-.07.18,0,.25l.79.79h0s.13.13.13.13l.13-.13h0s.79-.79.79-.79c.07-.07.07-.18,0-.25Z"/>
      </g>
      <polyline class="cls-1-1-6" points="166.5 147.17 170.02 147.17 170.02 179.39 152 179.39"/>
      <line class="cls-1-1-6" x1="150.57" y1="147.17" x2="161.7" y2="147.17"/>
      <line class="cls-1-1-6" x1="137.58" y1="147.17" x2="148.05" y2="147.17"/>
      <polyline class="cls-1-1-6" points="129.33 169.21 129.33 147.17 132.87 147.17"/>
      <polyline class="cls-1-1-6" points="147.35 179.39 129.33 179.39 129.33 173.16"/>
      <polyline class="cls-1-1-6" points="148.05 147.17 141.16 147.17 141.16 158.05 150.57 158.05 150.57 147.17"/>
      <line class="cls-1-1-6" x1="148.05" y1="147.17" x2="137.58" y2="147.17"/>
      <polyline class="cls-1-1-6" points="132.87 147.17 129.33 147.17 129.33 166.89 150.57 166.89 150.57 147.17"/>
      <rect class="cls-2-1-6" x="150.57" y="147.17" width="7.88" height="4.79"/>
      <polyline class="cls-1-1-6" points="152 179.39 156.45 179.39 156.45 166.89 142.89 166.89 142.89 179.39 147.35 179.39"/>
      <polyline class="cls-1-1-6" points="129.33 173.16 129.33 179.39 142.89 179.39 142.89 166.89 129.33 166.89 129.33 169.21"/>
      <rect class="cls-2-1-6" x="156.45" y="166.89" width="13.56" height="12.5"/>
      <g>
        <path class="cls-5-1-6" d="m161.83,153.96c0,.36-.29.65-.65.65s-.65-.29-.65-.65.29-.65.65-.65.65.29.65.65Z"/>
        <path class="cls-5-1-6" d="m161.18,154.82c-.46,0-1.55.04-1.55.94v2.15c0,.14.1.26.24.27.14,0,.26-.1.27-.24l.12-1.3.13,4.86c0,.18.15.33.33.33s.33-.15.33-.33l.13-2.99.13,2.99c0,.18.15.33.33.33s.33-.15.33-.33l.13-4.86.12,1.3c0,.14.13.25.27.24s.25-.13.24-.27v-2.15c0-.9-1.09-.94-1.55-.94Z"/>
      </g>
      <g>
        <path class="cls-6-1-6" d="m136.09,154.61c.36,0,.65-.29.65-.65s-.29-.65-.65-.65-.65.29-.65.65.29.65.65.65Z"/>
        <path class="cls-6-1-6" d="m137.95,157.74l-.51-1.89c-.21-.87-.89-1-1.35-1s-1.14.13-1.35,1l-.51,1.89c-.05.13.02.28.15.33.13.05.28-.02.33-.15l.51-1.44.13.66-.64,2.02h.94s.05.63.05.63l.07,1.7c0,.18.15.33.33.33s.33-.15.33-.33l.07-1.7.05-.63h.94s-.64-2.02-.64-2.02l.13-.66.51,1.44c.05.13.2.2.33.15.13-.05.2-.2.15-.33Z"/>
      </g>
      <g>
        <g>
          <path class="cls-3-1-6" d="m148.95,173.09c0,.2-.16.35-.35.35s-.35-.16-.35-.35.16-.35.35-.35.35.16.35.35Z"/>
          <path class="cls-3-1-6" d="m148.59,173.53c-.25,0-.84.02-.84.51v1.17c0,.08.06.14.13.14.08,0,.14-.06.14-.13l.07-.71.07,2.64c0,.1.08.18.18.18s.18-.08.18-.18l.07-1.62.07,1.62c0,.1.08.18.18.18s.18-.08.18-.18l.07-2.64.07.71c0,.08.07.13.14.13.08,0,.13-.07.13-.14v-1.17c0-.49-.59-.51-.84-.51Z"/>
        </g>
        <g>
          <path class="cls-3-1-6" d="m151.11,173.09c0,.2-.16.35-.35.35s-.35-.16-.35-.35.16-.35.35-.35.35.16.35.35Z"/>
          <path class="cls-3-1-6" d="m150.75,173.53c-.25,0-.84.02-.84.51v1.17c0,.08.06.14.13.14.08,0,.14-.06.14-.13l.07-.71.07,2.64c0,.1.08.18.18.18s.18-.08.18-.18l.07-1.62.07,1.62c0,.1.08.18.18.18s.18-.08.18-.18l.07-2.64.07.71c0,.08.07.13.14.13.08,0,.13-.07.13-.14v-1.17c0-.49-.59-.51-.84-.51Z"/>
        </g>
        <path class="cls-3-1-6" d="m151.99,177.59h-4.64c-.36,0-.65-.29-.65-.65v-4.97c0-.36.29-.65.65-.65h4.64c.36,0,.65.29.65.65v4.97c0,.36-.29.65-.65.65Zm-4.64-5.86c-.13,0-.24.11-.24.24v4.97c0,.13.11.24.24.24h4.64c.13,0,.24-.11.24-.24v-4.97c0-.13-.11-.24-.24-.24h-4.64Z"/>
        <path class="cls-3-1-6" d="m151.76,170l-.79-.79h0s-.13-.13-.13-.13l-.13.13h0s-.79.79-.79.79c-.07.07-.07.18,0,.25.07.07.18.07.25,0l.49-.49v1.09c0,.1.08.18.18.18s.18-.08.18-.18v-1.09s.49.49.49.49c.04.04.08.05.13.05s.09-.02.13-.05c.07-.07.07-.18,0-.25Z"/>
        <path class="cls-3-1-6" d="m149.51,169.94c-.07-.07-.18-.07-.25,0l-.49.49v-1.09c0-.1-.08-.18-.18-.18s-.18.08-.18.18v1.09s-.49-.49-.49-.49c-.07-.07-.18-.07-.25,0-.07.07-.07.18,0,.25l.79.79h0s.13.13.13.13l.13-.13h0s.79-.79.79-.79c.07-.07.07-.18,0-.25Z"/>
      </g>
      <polyline class="cls-1-1-6" points="129.33 208.94 129.33 194.31 133.78 194.31"/>
      <polyline class="cls-1-1-6" points="165.56 194.31 170.02 194.31 170.02 217.22 129.33 217.22 129.33 212.02"/>
      <line class="cls-1-1-6" x1="152" y1="194.31" x2="160.91" y2="194.31"/>
      <line class="cls-1-1-6" x1="138.44" y1="194.31" x2="147.35" y2="194.31"/>
      <polyline class="cls-1-1-6" points="133.78 194.31 129.33 194.31 129.33 206.81 142.89 206.81 142.89 194.31 138.44 194.31"/>
      <polyline class="cls-1-1-6" points="147.35 194.31 142.89 194.31 142.89 206.81 156.45 206.81 156.45 194.31 152 194.31"/>
      <polyline class="cls-1-1-6" points="160.91 194.31 156.45 194.31 156.45 206.81 170.02 206.81 170.02 194.31 165.56 194.31"/>
      <rect class="cls-2-1-6" x="156.45" y="206.81" width="13.56" height="10.41"/>
      <g>
        <g>
          <path class="cls-3-1-6" d="m135.66,200.06c0,.2-.16.35-.35.35s-.35-.16-.35-.35.16-.35.35-.35.35.16.35.35Z"/>
          <path class="cls-3-1-6" d="m135.31,200.5c-.25,0-.84.02-.84.51v1.17c0,.08.06.14.13.14.08,0,.14-.06.14-.13l.07-.71.07,2.64c0,.1.08.18.18.18s.18-.08.18-.18l.07-1.62.07,1.62c0,.1.08.18.18.18s.18-.08.18-.18l.07-2.64.07.71c0,.08.07.13.14.13.08,0,.13-.07.13-.14v-1.17c0-.49-.59-.51-.84-.51Z"/>
        </g>
        <g>
          <path class="cls-3-1-6" d="m137.83,200.06c0,.2-.16.35-.35.35s-.35-.16-.35-.35.16-.35.35-.35.35.16.35.35Z"/>
          <path class="cls-3-1-6" d="m137.47,200.5c-.25,0-.84.02-.84.51v1.17c0,.08.06.14.13.14.08,0,.14-.06.14-.13l.07-.71.07,2.64c0,.1.08.18.18.18s.18-.08.18-.18l.07-1.62.07,1.62c0,.1.08.18.18.18s.18-.08.18-.18l.07-2.64.07.71c0,.08.07.13.14.13.08,0,.13-.07.13-.14v-1.17c0-.49-.59-.51-.84-.51Z"/>
        </g>
        <path class="cls-3-1-6" d="m138.71,204.56h-4.64c-.36,0-.65-.29-.65-.65v-4.97c0-.36.29-.65.65-.65h4.64c.36,0,.65.29.65.65v4.97c0,.36-.29.65-.65.65Zm-4.64-5.86c-.13,0-.24.11-.24.24v4.97c0,.13.11.24.24.24h4.64c.13,0,.24-.11.24-.24v-4.97c0-.13-.11-.24-.24-.24h-4.64Z"/>
        <path class="cls-3-1-6" d="m138.48,196.97l-.79-.79h0s-.13-.13-.13-.13l-.13.13h0s-.79.79-.79.79c-.07.07-.07.18,0,.25.07.07.18.07.25,0l.49-.49v1.09c0,.1.08.18.18.18s.18-.08.18-.18v-1.09s.49.49.49.49c.04.04.08.05.13.05s.09-.02.13-.05c.07-.07.07-.18,0-.25Z"/>
        <path class="cls-3-1-6" d="m136.22,196.91c-.07-.07-.18-.07-.25,0l-.49.49v-1.09c0-.1-.08-.18-.18-.18s-.18.08-.18.18v1.09s-.49-.49-.49-.49c-.07-.07-.18-.07-.25,0-.07.07-.07.18,0,.25l.79.79h0s.13.13.13.13l.13-.13h0s.79-.79.79-.79c.07-.07.07-.18,0-.25Z"/>
      </g>
      <g>
        <g>
          <path class="cls-3-1-6" d="m149.11,200.06c0,.2-.16.35-.35.35s-.35-.16-.35-.35.16-.35.35-.35.35.16.35.35Z"/>
          <path class="cls-3-1-6" d="m148.76,200.5c-.25,0-.84.02-.84.51v1.17c0,.08.06.14.13.14.08,0,.14-.06.14-.13l.07-.71.07,2.64c0,.1.08.18.18.18s.18-.08.18-.18l.07-1.62.07,1.62c0,.1.08.18.18.18s.18-.08.18-.18l.07-2.64.07.71c0,.08.07.13.14.13.08,0,.13-.07.13-.14v-1.17c0-.49-.59-.51-.84-.51Z"/>
        </g>
        <g>
          <path class="cls-3-1-6" d="m151.28,200.06c0,.2-.16.35-.35.35s-.35-.16-.35-.35.16-.35.35-.35.35.16.35.35Z"/>
          <path class="cls-3-1-6" d="m150.92,200.5c-.25,0-.84.02-.84.51v1.17c0,.08.06.14.13.14.08,0,.14-.06.14-.13l.07-.71.07,2.64c0,.1.08.18.18.18s.18-.08.18-.18l.07-1.62.07,1.62c0,.1.08.18.18.18s.18-.08.18-.18l.07-2.64.07.71c0,.08.07.13.14.13.08,0,.13-.07.13-.14v-1.17c0-.49-.59-.51-.84-.51Z"/>
        </g>
        <path class="cls-3-1-6" d="m152.16,204.56h-4.64c-.36,0-.65-.29-.65-.65v-4.97c0-.36.29-.65.65-.65h4.64c.36,0,.65.29.65.65v4.97c0,.36-.29.65-.65.65Zm-4.64-5.86c-.13,0-.24.11-.24.24v4.97c0,.13.11.24.24.24h4.64c.13,0,.24-.11.24-.24v-4.97c0-.13-.11-.24-.24-.24h-4.64Z"/>
        <path class="cls-3-1-6" d="m151.93,196.97l-.79-.79h0s-.13-.13-.13-.13l-.13.13h0s-.79.79-.79.79c-.07.07-.07.18,0,.25.07.07.18.07.25,0l.49-.49v1.09c0,.1.08.18.18.18s.18-.08.18-.18v-1.09s.49.49.49.49c.04.04.08.05.13.05s.09-.02.13-.05c.07-.07.07-.18,0-.25Z"/>
        <path class="cls-3-1-6" d="m149.67,196.91c-.07-.07-.18-.07-.25,0l-.49.49v-1.09c0-.1-.08-.18-.18-.18s-.18.08-.18.18v1.09s-.49-.49-.49-.49c-.07-.07-.18-.07-.25,0-.07.07-.07.18,0,.25l.79.79h0s.13.13.13.13l.13-.13h0s.79-.79.79-.79c.07-.07.07-.18,0-.25Z"/>
      </g>
      <g>
        <g>
          <path class="cls-3-1-6" d="m162.51,200.06c0,.2-.16.35-.35.35s-.35-.16-.35-.35.16-.35.35-.35.35.16.35.35Z"/>
          <path class="cls-3-1-6" d="m162.16,200.5c-.25,0-.84.02-.84.51v1.17c0,.08.06.14.13.14.08,0,.14-.06.14-.13l.07-.71.07,2.64c0,.1.08.18.18.18s.18-.08.18-.18l.07-1.62.07,1.62c0,.1.08.18.18.18s.18-.08.18-.18l.07-2.64.07.71c0,.08.07.13.14.13.08,0,.13-.07.13-.14v-1.17c0-.49-.59-.51-.84-.51Z"/>
        </g>
        <g>
          <path class="cls-3-1-6" d="m164.67,200.06c0,.2-.16.35-.35.35s-.35-.16-.35-.35.16-.35.35-.35.35.16.35.35Z"/>
          <path class="cls-3-1-6" d="m164.32,200.5c-.25,0-.84.02-.84.51v1.17c0,.08.06.14.13.14.08,0,.14-.06.14-.13l.07-.71.07,2.64c0,.1.08.18.18.18s.18-.08.18-.18l.07-1.62.07,1.62c0,.1.08.18.18.18s.18-.08.18-.18l.07-2.64.07.71c0,.08.07.13.14.13.08,0,.13-.07.13-.14v-1.17c0-.49-.59-.51-.84-.51Z"/>
        </g>
        <path class="cls-3-1-6" d="m165.56,204.56h-4.64c-.36,0-.65-.29-.65-.65v-4.97c0-.36.29-.65.65-.65h4.64c.36,0,.65.29.65.65v4.97c0,.36-.29.65-.65.65Zm-4.64-5.86c-.13,0-.24.11-.24.24v4.97c0,.13.11.24.24.24h4.64c.13,0,.24-.11.24-.24v-4.97c0-.13-.11-.24-.24-.24h-4.64Z"/>
        <path class="cls-3-1-6" d="m165.33,196.97l-.79-.79h0s-.13-.13-.13-.13l-.13.13h0s-.79.79-.79.79c-.07.07-.07.18,0,.25.07.07.18.07.25,0l.49-.49v1.09c0,.1.08.18.18.18s.18-.08.18-.18v-1.09s.49.49.49.49c.04.04.08.05.13.05s.09-.02.13-.05c.07-.07.07-.18,0-.25Z"/>
        <path class="cls-3-1-6" d="m163.07,196.91c-.07-.07-.18-.07-.25,0l-.49.49v-1.09c0-.1-.08-.18-.18-.18s-.18.08-.18.18v1.09s-.49-.49-.49-.49c-.07-.07-.18-.07-.25,0-.07.07-.07.18,0,.25l.79.79h0s.13.13.13.13l.13-.13h0s.79-.79.79-.79c.07-.07.07-.18,0-.25Z"/>
      </g>
      <g>
        <path class="cls-3-1-6" d="m144.65,208.2c0,.24-.19.43-.43.43s-.43-.19-.43-.43.19-.43.43-.43.43.19.43.43Z"/>
        <polygon class="cls-3-1-6" points="146.78 212.83 145.24 212.83 145.24 213.38 143.86 213.38 143.86 213.93 142.53 213.93 142.53 214.47 141.19 214.47 141.19 215.02 139.85 215.02 139.85 215.57 139 215.57 139 216.27 140.63 216.27 140.63 215.7 141.95 215.7 141.95 215.15 143.29 215.15 143.29 214.61 144.63 214.61 144.63 214.06 145.97 214.06 145.97 213.53 146.78 213.53 146.78 212.83"/>
        <path class="cls-3-1-6" d="m144.74,210.84c-.32-.21-.63-.41-.67-.44.11-.54.21-1.03.26-1.33,0,0,.04-.27-.17-.31-.3-.06-.72.17-1.2.53-.05.04-.13.1-.16.21-.03.1-.14.69-.2.94-.02.09.03.19.13.21.09.02.18-.03.21-.13.07-.21.2-.65.22-.68.02-.04.21-.19.21-.19l-.36,3.66c0,.11.09.19.19.21.12.01.22-.08.24-.2,0,0,.24-1.06.47-2.15l.41.19-.21,1.06c-.03.1.02.21.12.25.1.03.21-.02.25-.12,0,0,.37-.9.42-1.06.05-.17.18-.43-.15-.64Z"/>
        <g>
          <path class="cls-3-1-6" d="m140.97,209.41c0,.24-.19.43-.43.43s-.43-.19-.43-.43.19-.43.43-.43.43.19.43.43Z"/>
          <path class="cls-3-1-6" d="m141.94,211.88s-.06-.47-.12-.76c-.02-.07-.04-.13-.09-.22-.17-.29-.41-.63-.63-.75-.35-.18-.69-.08-.86.2-.17.3-.39.78-1,1.18-.08.05-.14.12-.11.21.03.09.12.14.21.11.01,0,.02,0,.03-.01.13-.06.65-.3.83-.59l-.15,3.29c-.01.12.07.23.19.25.12.01.22-.08.24-.2l.68-3.64s.22.18.27.33c.04.1.11.39.16.65,0,0,0,0,0,0,.02.1.1.16.19.15.09-.01.16-.1.15-.19Z"/>
          <path class="cls-3-1-6" d="m142.02,213.38l-1.21-.98-.1.7,1.06.61c.09.07.22.05.29-.04.07-.09.05-.22-.04-.29Z"/>
        </g>
      </g>
      <rect class="cls-2-1-6" x="129.33" y="166.89" width="13.56" height="12.5"/>
      <rect class="cls-1-1-6" x="101.47" y="170.06" width="20.22" height="23.64"/>
      <rect class="cls-1-1-6" x="90.36" y="193.71" width="31.33" height="32.12"/>
      <rect class="cls-1-1-6" x="90.31" y="2.8" width="121.04" height="76.09"/>
      <rect class="cls-1-1-6" x="90.36" y="225.83" width="31.33" height="7.06"/>
      <rect class="cls-1-1-6" x="180.02" y="193.71" width="31.33" height="39.05"/>
      <rect class="cls-1-1-6" x="180.02" y="168.15" width="31.33" height="25.51"/>
      <rect class="cls-1-1-6" x="180.02" y="142.58" width="31.33" height="25.51"/>
      <rect class="cls-1-1-6" x="180.02" y="117.02" width="31.33" height="25.51"/>
      <rect class="cls-1-1-6" x="180.02" y="91.46" width="31.33" height="25.51"/>
      <rect class="cls-1-1-6" x="180.02" y="78.89" width="31.33" height="12.57"/>
      <rect class="cls-1-1-6" x="90.36" y="142.53" width="31.33" height="27.53"/>
      <rect class="cls-1-1-6" x="90.36" y="115" width="31.33" height="27.53"/>
      <line class="cls-1-1-6" x1="90.36" y1="156.3" x2="121.69" y2="156.3"/>
      <line class="cls-1-1-6" x1="90.36" y1="128.76" x2="121.69" y2="128.76"/>
      <rect class="cls-1-1-6" x="90.36" y="101.23" width="31.33" height="13.77"/>
      <rect class="cls-1-1-6" x="90.31" y="78.89" width="31.38" height="22.33"/>
      <line class="cls-1-1-6" x1="111.58" y1="115" x2="111.58" y2="101.23"/>
      <text class="cls-8-1-6" transform="translate(21.39 95.68)"><tspan x="0" y="0">ルーフガーデン</tspan></text>
    </g>
  </g>
  <g id="_10609" data-name="10609">
    <rect class="cls-7-1-6" x="90.31" y="2.74" width="121.04" height="76.09"/>
    <text class="cls-9-1-6" transform="translate(133.33 42.68)"><tspan x="0" y="0">１０６０９</tspan></text>
  </g>
</svg>