<?xml version="1.0" encoding="UTF-8"?>
<svg xmlns="http://www.w3.org/2000/svg" viewBox="0 0 146.38 235">
  <defs>
    <style>
      .cls-1-2-7 {
        fill: none;
      }

      .cls-1-2-7, .cls-2-2-7, .cls-3-2-7 {
        stroke: #231815;
        stroke-miterlimit: 10;
      }

      .cls-2-2-7 {
        stroke-width: .5px;
      }

      .cls-4-2-7, .cls-5-2-7, .cls-6-2-7, .cls-7-2-7, .cls-8-2-7 {
        stroke-width: 0px;
      }

      .cls-4-2-7, .cls-3-2-7 {
        fill: #231815;
      }

      .cls-5-2-7 {
        fill: #2d3e6a;
      }

      .cls-6-2-7, .cls-9-2-7 {
        fill: #fff;
      }

      .cls-7-2-7 {
        fill: #ba1f21;
      }

      .cls-8-2-7 {
        fill: #7a1a24;
      }

      .cls-9-2-7 {
        font-family: KozGoPr6N-Regular-90ms-RKSJ-H, 'Kozuka Gothic Pr6N';
        font-size: 7px;
      }
    </style>
  </defs>
  <g id="_2705" data-name="2705">
    <rect class="cls-8-2-7" x="-10.96" y="16.49" width="80.01" height="51.85" transform="translate(71.47 13.37) rotate(90)"/>
    <text class="cls-9-2-7" transform="translate(15.05 44.31)"><tspan x="0" y="0">２７０５</tspan></text>
  </g>
  <g id="_2704" data-name="2704">
    <rect class="cls-8-2-7" x="-11.75" y="165.34" width="81.62" height="51.87" transform="translate(220.33 162.22) rotate(90)"/>
    <text class="cls-9-2-7" transform="translate(15.05 193.16)"><tspan x="0" y="0">２７０４</tspan></text>
  </g>
  <g id="_2703" data-name="2703">
    <polyline class="cls-8-2-7" points="144.54 150.4 144.54 232.02 92.38 232.02 92.38 150.4 144.54 150.4"/>
    <text class="cls-9-2-7" transform="translate(104.46 193.1)"><tspan x="0" y="0">２７０３</tspan></text>
  </g>
  <g id="_2702" data-name="2702">
    <rect class="cls-8-2-7" x="85.3" y="91.86" width="66.32" height="52.16" transform="translate(236.4 -.52) rotate(90)"/>
    <text class="cls-9-2-7" transform="translate(104.46 119.83)"><tspan x="0" y="0">２７０２</tspan></text>
    <line class="cls-2-2-7" x1="92.38" y1="151.22" x2="144.54" y2="151.22"/>
  </g>
  <g id="_2701" data-name="2701">
    <rect class="cls-8-2-7" x="77.92" y="17.25" width="81.7" height="52.16" transform="translate(162.1 -75.44) rotate(90)"/>
    <text class="cls-9-2-7" transform="translate(104.77 45.22)"><tspan x="0" y="0">２７０１</tspan></text>
  </g>
  <g id="_レイヤー_1" data-name="レイヤー 1">
    <polyline class="cls-1-2-7" points="29.94 2.54 144.54 2.54 144.54 232.14 3.36 232.14 3.36 2.54 29.94 2.54"/>
    <line class="cls-1-2-7" x1="92.38" y1="10.44" x2="92.38" y2="77.14"/>
    <polyline class="cls-1-2-7" points="92.38 82.57 92.38 84.24 144.54 84.24 144.54 2.54 92.38 2.54 92.38 5.08"/>
    <line class="cls-1-2-7" x1="92.38" y1="116.81" x2="92.38" y2="119.58"/>
    <polyline class="cls-1-2-7" points="92.38 229.86 92.38 232.14 144.54 232.14 144.54 116.81"/>
    <line class="cls-1-2-7" x1="92.38" y1="156.87" x2="92.38" y2="223.81"/>
    <line class="cls-1-2-7" x1="92.38" y1="125.62" x2="92.38" y2="152.22"/>
    <line class="cls-1-2-7" x1="92.38" y1="108.05" x2="92.38" y2="91.01"/>
    <polyline class="cls-1-2-7" points="92.38 86.79 92.38 84.24 144.54 84.24 144.54 150.53 92.38 150.53 92.38 144.76"/>
    <line class="cls-1-2-7" x1="55.13" y1="223.08" x2="55.13" y2="157.58"/>
    <polyline class="cls-1-2-7" points="3.12 150.55 55.13 150.55 55.13 150.55 55.13 143.82 3.12 143.82 3.12 232.14 55.13 232.14 55.13 229.05"/>
    <line class="cls-1-2-7" x1="55.13" y1="10.24" x2="55.13" y2="76.88"/>
    <polyline class="cls-1-2-7" points="3.12 82.55 55.13 82.59 55.13 90.03 3.12 90.03 3.12 2.54 55.13 2.54 55.13 5.31"/>
    <g>
      <polyline class="cls-1-2-7" points="44.85 98.21 46.75 98.21 46.75 136.1 44.85 136.1"/>
      <g>
        <polyline class="cls-1-2-7" points="40.73 136.1 17.42 136.1 17.42 98.21 40.73 98.21"/>
        <line class="cls-1-2-7" x1="46.75" y1="120.17" x2="17.42" y2="120.17"/>
      </g>
    </g>
    <rect class="cls-3-2-7" x="38.71" y="112.91" width="35.04" height="5.63" transform="translate(171.96 59.5) rotate(90)"/>
    <polyline class="cls-1-2-7" points="55.13 220.44 76.22 220.44 76.22 218.12 58.07 218.12 58.07 193.41 69.82 193.41 69.82 211.24 76.22 211.24 76.22 188.7 71.02 188.7 71.02 184.78"/>
    <polyline class="cls-1-2-7" points="71.02 188.7 58.07 188.7 58.07 175.83 71.02 175.83 71.02 179.82"/>
    <polyline class="cls-1-2-7" points="71.02 175.83 71.02 171.83 75.26 171.83 75.26 158.4 55.13 158.4"/>
    <polyline class="cls-3-2-7" points="55.13 12.14 77.04 12.14 77.04 16.58 58.29 16.58 58.29 38.88 72.96 38.88 72.96 23.44 77.04 23.44 77.04 45.56 59.89 45.56 59.89 70.53 74.62 70.53 74.62 56.62 77.04 56.62 77.04 75.85 55.13 75.85"/>
    <line class="cls-1-2-7" x1="74.62" y1="56.62" x2="69.93" y2="56.62"/>
    <line class="cls-1-2-7" x1="64.44" y1="56.68" x2="59.89" y2="56.68"/>
    <line class="cls-1-2-7" x1="73.62" y1="92.86" x2="73.62" y2="141.96"/>
    <line class="cls-1-2-7" x1="75.52" y1="92.79" x2="75.52" y2="141.89"/>
    <polyline class="cls-1-2-7" points="81.32 92.61 81.32 95.8 81.32 141.7"/>
    <line class="cls-1-2-7" x1="67.42" y1="92.86" x2="67.42" y2="141.96"/>
    <line class="cls-1-2-7" x1="75.52" y1="96.04" x2="81.32" y2="96.04"/>
    <line class="cls-1-2-7" x1="81.32" y1="138.78" x2="75.52" y2="138.78"/>
    <line class="cls-1-2-7" x1="73.62" y1="138.78" x2="67.42" y2="138.78"/>
    <line class="cls-1-2-7" x1="73.62" y1="96.04" x2="67.42" y2="96.04"/>
    <polyline class="cls-3-2-7" points="17.42 132.92 3.12 132.92 3.12 101.04 10.19 101.04 10.19 115.57 17.42 118.75"/>
    <rect class="cls-4-2-7" x="25.4" y="60.31" width="7.45" height="52.01" transform="translate(115.43 57.19) rotate(90)"/>
    <rect class="cls-4-2-7" x="25.99" y="121.19" width="6.74" height="52.01" transform="translate(176.56 117.83) rotate(90)"/>
    <polygon class="cls-4-2-7" points="76.22 218.12 58.07 218.12 58.07 193.41 69.82 193.41 69.82 211.24 76.22 211.24 76.22 193.41 76.22 190.33 76.22 188.7 58.07 188.7 58.07 175.83 71.02 175.83 71.02 171.6 75.26 171.6 75.26 158.4 55.13 158.4 55.13 170.75 55.13 171.6 55.13 175.35 54.99 175.35 54.99 220.44 56.53 220.44 58.07 220.44 76.22 220.44 76.22 218.12"/>
    <g>
      <path class="cls-4-2-7" d="m67.66,24.41c0,.24-.19.43-.43.43s-.43-.19-.43-.43.19-.43.43-.43.43.19.43.43Z"/>
      <polygon class="cls-4-2-7" points="69.79 29.04 68.25 29.04 68.25 29.59 66.87 29.59 66.87 30.14 65.53 30.14 65.53 30.68 64.19 30.68 64.19 31.23 62.85 31.23 62.85 31.78 62 31.78 62 32.48 63.63 32.48 63.63 31.91 64.96 31.91 64.96 31.36 66.3 31.36 66.3 30.82 67.64 30.82 67.64 30.27 68.97 30.27 68.97 29.74 69.79 29.74 69.79 29.04"/>
      <path class="cls-4-2-7" d="m67.75,27.05c-.32-.21-.63-.41-.67-.44.11-.54.21-1.03.26-1.33,0,0,.04-.27-.17-.31-.3-.06-.72.17-1.2.53-.05.04-.13.1-.16.21-.03.1-.14.69-.2.94-.02.09.03.19.13.21.09.02.18-.03.21-.13.07-.21.2-.65.22-.68.02-.04.21-.19.21-.19l-.36,3.66c0,.11.09.19.19.21.12.01.22-.08.24-.2,0,0,.24-1.06.47-2.15l.41.19-.21,1.06c-.03.1.02.21.12.25.1.03.21-.02.25-.12,0,0,.37-.9.42-1.06.05-.17.18-.43-.15-.64Z"/>
      <g>
        <path class="cls-4-2-7" d="m63.98,25.62c0,.24-.19.43-.43.43s-.43-.19-.43-.43.19-.43.43-.43.43.19.43.43Z"/>
        <path class="cls-4-2-7" d="m64.95,28.08s-.06-.47-.12-.76c-.02-.07-.04-.13-.09-.22-.17-.29-.41-.63-.63-.75-.35-.18-.69-.08-.86.2-.17.3-.39.78-1,1.18-.08.05-.14.12-.11.21.03.09.12.14.21.11.01,0,.02,0,.03-.01.13-.06.65-.3.83-.59l-.15,3.28c-.01.12.07.23.19.25.12.01.22-.08.24-.2l.68-3.63s.22.18.27.33c.04.1.11.39.16.65,0,0,0,0,0,0,.02.1.1.16.19.15.09-.01.16-.1.15-.19Z"/>
        <path class="cls-4-2-7" d="m65.03,29.59l-1.21-.98-.1.7,1.06.61c.09.07.22.05.29-.04.07-.09.05-.22-.04-.29Z"/>
      </g>
    </g>
    <g>
      <path class="cls-4-2-7" d="m65.99,202.59c0,.24-.19.43-.43.43s-.43-.19-.43-.43.19-.43.43-.43.43.19.43.43Z"/>
      <polygon class="cls-4-2-7" points="68.12 207.23 66.58 207.23 66.58 207.77 65.2 207.77 65.2 208.32 63.86 208.32 63.86 208.87 62.52 208.87 62.52 209.41 61.18 209.41 61.18 209.96 60.33 209.96 60.33 210.66 61.96 210.66 61.96 210.09 63.29 210.09 63.29 209.54 64.63 209.54 64.63 209 65.97 209 65.97 208.45 67.31 208.45 67.31 207.93 68.12 207.93 68.12 207.23"/>
      <path class="cls-4-2-7" d="m66.08,205.24c-.32-.21-.63-.41-.67-.44.11-.54.21-1.03.26-1.33,0,0,.04-.27-.17-.31-.3-.06-.72.17-1.2.53-.05.04-.13.1-.16.21-.03.1-.14.69-.2.94-.02.09.03.19.13.21.09.02.18-.03.21-.13.07-.21.2-.65.22-.68.02-.04.21-.19.21-.19l-.36,3.66c0,.11.09.19.19.21.12.01.22-.08.24-.2,0,0,.24-1.06.47-2.15l.41.19-.21,1.06c-.03.1.02.21.12.25.1.03.21-.02.25-.12,0,0,.37-.9.42-1.06.05-.17.18-.43-.15-.64Z"/>
      <g>
        <path class="cls-4-2-7" d="m62.31,203.81c0,.24-.19.43-.43.43s-.43-.19-.43-.43.19-.43.43-.43.43.19.43.43Z"/>
        <path class="cls-4-2-7" d="m63.28,206.27s-.06-.47-.12-.76c-.02-.07-.04-.13-.09-.22-.17-.29-.41-.63-.63-.75-.35-.18-.69-.08-.86.2-.17.3-.39.78-1,1.18-.08.05-.14.12-.11.21.03.09.12.14.21.11.01,0,.02,0,.03-.01.13-.06.65-.3.83-.59l-.15,3.28c-.01.12.07.23.19.25.12.01.22-.08.24-.2l.68-3.63s.22.18.27.33c.04.1.11.39.16.65,0,0,0,0,0,0,.02.1.1.16.19.15.09-.01.16-.1.15-.19Z"/>
        <path class="cls-4-2-7" d="m63.36,207.77l-1.21-.98-.1.7,1.06.61c.09.07.22.05.29-.04.07-.09.05-.22-.04-.29Z"/>
      </g>
    </g>
    <g>
      <g>
        <path class="cls-4-2-7" d="m63.68,182.02c0,.2-.16.35-.35.35s-.35-.16-.35-.35.16-.35.35-.35.35.16.35.35Z"/>
        <path class="cls-4-2-7" d="m63.32,182.46c-.25,0-.84.02-.84.51v1.17c0,.08.06.14.13.14.08,0,.14-.06.14-.13l.07-.71.07,2.64c0,.1.08.18.18.18s.18-.08.18-.18l.07-1.62.07,1.62c0,.1.08.18.18.18s.18-.08.18-.18l.07-2.64.07.71c0,.08.07.13.14.13.08,0,.13-.07.13-.14v-1.17c0-.49-.59-.51-.84-.51Z"/>
      </g>
      <g>
        <path class="cls-4-2-7" d="m65.84,182.02c0,.2-.16.35-.35.35s-.35-.16-.35-.35.16-.35.35-.35.35.16.35.35Z"/>
        <path class="cls-4-2-7" d="m65.49,182.46c-.25,0-.84.02-.84.51v1.17c0,.08.06.14.13.14.08,0,.14-.06.14-.13l.07-.71.07,2.64c0,.1.08.18.18.18s.18-.08.18-.18l.07-1.62.07,1.62c0,.1.08.18.18.18s.18-.08.18-.18l.07-2.64.07.71c0,.08.07.13.14.13.08,0,.13-.07.13-.14v-1.17c0-.49-.59-.51-.84-.51Z"/>
      </g>
      <path class="cls-4-2-7" d="m66.73,186.51h-4.64c-.36,0-.65-.29-.65-.65v-4.97c0-.36.29-.65.65-.65h4.64c.36,0,.65.29.65.65v4.97c0,.36-.29.65-.65.65Zm-4.64-5.86c-.13,0-.24.11-.24.24v4.97c0,.13.11.24.24.24h4.64c.13,0,.24-.11.24-.24v-4.97c0-.13-.11-.24-.24-.24h-4.64Z"/>
      <path class="cls-4-2-7" d="m66.5,178.93l-.79-.79h0s-.13-.13-.13-.13l-.13.13h0s-.79.79-.79.79c-.07.07-.07.18,0,.25.07.07.18.07.25,0l.49-.49v1.09c0,.1.08.18.18.18s.18-.08.18-.18v-1.09s.49.49.49.49c.04.04.08.05.13.05s.09-.02.13-.05c.07-.07.07-.18,0-.25Z"/>
      <path class="cls-4-2-7" d="m64.24,178.87c-.07-.07-.18-.07-.25,0l-.49.49v-1.09c0-.1-.08-.18-.18-.18s-.18.08-.18.18v1.09s-.49-.49-.49-.49c-.07-.07-.18-.07-.25,0-.07.07-.07.18,0,.25l.79.79h0s.13.13.13.13l.13-.13h0s.79-.79.79-.79c.07-.07.07-.18,0-.25Z"/>
    </g>
    <g>
      <g>
        <path class="cls-4-2-7" d="m66.87,63.28c0,.2-.16.35-.35.35s-.35-.16-.35-.35.16-.35.35-.35.35.16.35.35Z"/>
        <path class="cls-4-2-7" d="m66.52,63.72c-.25,0-.84.02-.84.51v1.17c0,.08.06.14.13.14.08,0,.14-.06.14-.13l.07-.71.07,2.64c0,.1.08.18.18.18s.18-.08.18-.18l.07-1.62.07,1.62c0,.1.08.18.18.18s.18-.08.18-.18l.07-2.64.07.71c0,.08.07.13.14.13.08,0,.13-.07.13-.14v-1.17c0-.49-.59-.51-.84-.51Z"/>
      </g>
      <g>
        <path class="cls-4-2-7" d="m69.03,63.28c0,.2-.16.35-.35.35s-.35-.16-.35-.35.16-.35.35-.35.35.16.35.35Z"/>
        <path class="cls-4-2-7" d="m68.68,63.72c-.25,0-.84.02-.84.51v1.17c0,.08.06.14.13.14.08,0,.14-.06.14-.13l.07-.71.07,2.64c0,.1.08.18.18.18s.18-.08.18-.18l.07-1.62.07,1.62c0,.1.08.18.18.18s.18-.08.18-.18l.07-2.64.07.71c0,.08.07.13.14.13.08,0,.13-.07.13-.14v-1.17c0-.49-.59-.51-.84-.51Z"/>
      </g>
      <path class="cls-4-2-7" d="m69.92,67.78h-4.64c-.36,0-.65-.29-.65-.65v-4.97c0-.36.29-.65.65-.65h4.64c.36,0,.65.29.65.65v4.97c0,.36-.29.65-.65.65Zm-4.64-5.86c-.13,0-.24.11-.24.24v4.97c0,.13.11.24.24.24h4.64c.13,0,.24-.11.24-.24v-4.97c0-.13-.11-.24-.24-.24h-4.64Z"/>
      <path class="cls-4-2-7" d="m69.69,60.19l-.79-.79h0s-.13-.13-.13-.13l-.13.13h0s-.79.79-.79.79c-.07.07-.07.18,0,.25.07.07.18.07.25,0l.49-.49v1.09c0,.1.08.18.18.18s.18-.08.18-.18v-1.09s.49.49.49.49c.04.04.08.05.13.05s.09-.02.13-.05c.07-.07.07-.18,0-.25Z"/>
      <path class="cls-4-2-7" d="m67.43,60.13c-.07-.07-.18-.07-.25,0l-.49.49v-1.09c0-.1-.08-.18-.18-.18s-.18.08-.18.18v1.09s-.49-.49-.49-.49c-.07-.07-.18-.07-.25,0-.07.07-.07.18,0,.25l.79.79h0s.13.13.13.13l.13-.13h0s.79-.79.79-.79c.07-.07.07-.18,0-.25Z"/>
    </g>
    <g>
      <path class="cls-5-2-7" d="m32.96,104.31c0,.48-.39.87-.87.87s-.87-.39-.87-.87.39-.87.87-.87.87.39.87.87Z"/>
      <path class="cls-5-2-7" d="m32.09,105.45c-.62,0-2.07.06-2.07,1.26v2.86c0,.19.14.35.32.35.19,0,.35-.14.35-.32l.16-1.74.17,6.47c0,.24.2.44.44.44s.44-.2.44-.44l.18-3.98.18,3.98c0,.24.2.44.44.44s.44-.2.44-.44l.17-6.47.16,1.74c0,.19.17.33.35.32s.33-.17.32-.35v-2.86c0-1.2-1.45-1.26-2.07-1.26Z"/>
    </g>
    <g>
      <path class="cls-7-2-7" d="m32.09,124.25c.48,0,.87-.39.87-.87s-.39-.87-.87-.87-.87.39-.87.87.39.87.87.87Z"/>
      <path class="cls-7-2-7" d="m34.58,128.41l-.69-2.52c-.28-1.16-1.19-1.34-1.8-1.34s-1.52.17-1.8,1.34l-.69,2.52c-.07.17.02.37.19.44.17.07.37-.02.44-.19l.68-1.92.17.88-.85,2.69h1.25s.07.84.07.84l.1,2.27c0,.24.2.44.44.44s.44-.2.44-.44l.1-2.27.07-.84h1.25s-.85-2.69-.85-2.69l.17-.88.68,1.92c.07.17.26.26.44.19.17-.07.26-.26.19-.44Z"/>
    </g>
    <rect class="cls-4-2-7" x="79.8" y="143.75" width=".07" height=".07" transform="translate(223.62 63.96) rotate(90)"/>
    <g>
      <rect class="cls-6-2-7" x="74.52" y="111.49" width="11.34" height="11.34"/>
      <g>
        <path class="cls-4-2-7" d="m84.31,120.94v-1.83s0,0,0,0v-.29s-.29,0-.29,0c0,0,0,0,0,0h-1.83c-.16,0-.29.13-.29.29s.13.29.29.29h1.12s-1.26,1.26-1.26,1.26c-.11.11-.11.3,0,.42.11.11.3.11.42,0l1.26-1.26v1.12c0,.08.03.15.09.21.05.05.13.09.21.09.16,0,.29-.13.29-.29Z"/>
        <g>
          <path class="cls-4-2-7" d="m83.88,114.18h-1.74c-.14,0-.34.08-.44.18l-4.11,4.1c-.1.1-.3.18-.44.18h-.64c-.69,0-1.26.56-1.26,1.26s.56,1.26,1.26,1.26h1.74c.14,0,.34-.08.44-.18l4.11-4.1c.1-.1.3-.18.44-.18h.64c.69,0,1.26-.56,1.26-1.26s-.56-1.26-1.26-1.26Zm0,1.95h-1.14s-4.48,4.46-4.48,4.46h-1.76c-.38,0-.69-.31-.69-.69s.31-.69.69-.69h1.14s4.48-4.46,4.48-4.46h1.76c.38,0,.69.31.69.69s-.31.69-.69.69Z"/>
          <path class="cls-4-2-7" d="m79.93,113.6c0,.29-.23.52-.52.52s-.52-.23-.52-.52.23-.52.52-.52.52.23.52.52Z"/>
          <path class="cls-4-2-7" d="m80.28,115.13c.1-.8-.48-.87-.84-.87s-.94.07-.84.87c.09.75.18,2.13.19,2.26l1.4-1.32c.03-.34.06-.67.09-.93Z"/>
        </g>
      </g>
    </g>
    <g>
      <rect class="cls-6-2-7" x="63.53" y="111.49" width="11.34" height="11.34"/>
      <g>
        <path class="cls-4-2-7" d="m71.06,118.99v1.83s0,0,0,0v.29s.29,0,.29,0c0,0,0,0,0,0h1.83c.16,0,.29-.13.29-.29s-.13-.29-.29-.29h-1.12s1.26-1.26,1.26-1.26c.11-.11.11-.3,0-.42-.11-.11-.3-.11-.42,0l-1.26,1.26v-1.12c0-.08-.03-.15-.09-.21-.05-.05-.13-.09-.21-.09-.16,0-.29.13-.29.29Z"/>
        <g>
          <path class="cls-4-2-7" d="m72.89,114.22h-1.74c-.14,0-.34.08-.44.18l-4.11,4.1c-.1.1-.3.18-.44.18h-.64c-.69,0-1.26.56-1.26,1.26s.56,1.26,1.26,1.26h1.74c.14,0,.34-.08.44-.18l4.11-4.1c.1-.1.3-.18.44-.18h.64c.69,0,1.26-.56,1.26-1.26s-.56-1.26-1.26-1.26Zm0,1.95h-1.14s-4.48,4.46-4.48,4.46h-1.76c-.38,0-.69-.31-.69-.69s.31-.69.69-.69h1.14s4.48-4.46,4.48-4.46h1.76c.38,0,.69.31.69.69s-.31.69-.69.69Z"/>
          <path class="cls-4-2-7" d="m68.95,113.63c0,.29-.23.52-.52.52s-.52-.23-.52-.52.23-.52.52-.52.52.23.52.52Z"/>
          <path class="cls-4-2-7" d="m69.3,115.16c.1-.8-.48-.87-.84-.87s-.94.07-.84.87c.09.75.18,2.13.19,2.26l1.4-1.32c.03-.34.06-.67.09-.93Z"/>
        </g>
      </g>
    </g>
  </g>
</svg>