<?xml version="1.0" encoding="UTF-8"?>
<svg xmlns="http://www.w3.org/2000/svg" viewBox="0 0 145.4 233.07">
  <defs>
    <style>
      .cls-1-2-8 {
        fill: none;
      }

      .cls-1-2-8, .cls-2-2-8 {
        stroke: #231815;
        stroke-miterlimit: 10;
      }

      .cls-3-2-8, .cls-4-2-8, .cls-5-2-8, .cls-6-2-8, .cls-7-2-8, .cls-8-2-8 {
        stroke-width: 0px;
      }

      .cls-3-2-8, .cls-2-2-8, .cls-9-2-8 {
        fill: #231815;
      }

      .cls-4-2-8 {
        opacity: .2;
      }

      .cls-4-2-8, .cls-8-2-8 {
        fill: #7a1a24;
      }

      .cls-5-2-8 {
        fill: #2d3e6a;
      }

      .cls-6-2-8, .cls-10-2-8 {
        fill: #fff;
      }

      .cls-7-2-8 {
        fill: #ba1f21;
      }

      .cls-10-2-8, .cls-9-2-8 {
        font-family: KozGoPr6N-Regular-90ms-RKSJ-H, 'Kozuka Gothic Pr6N';
        font-size: 7px;
      }
    </style>
  </defs>
  <g id="_2805" data-name="2805">
    <rect class="cls-8-2-8" x="-11.96" y="16.07" width="80.01" height="51.85" transform="translate(70.04 13.95) rotate(90)"/>
    <text class="cls-10-2-8" transform="translate(14.05 43.89)"><tspan x="0" y="0">２８０５</tspan></text>
  </g>
  <g id="_2804" data-name="2804">
    <rect class="cls-8-2-8" x="-12.75" y="164.91" width="81.62" height="51.87" transform="translate(218.9 162.79) rotate(90)"/>
    <text class="cls-10-2-8" transform="translate(14.05 192.74)"><tspan x="0" y="0">２８０４</tspan></text>
  </g>
  <g id="_2803" data-name="2803">
    <rect class="cls-8-2-8" x="76.96" y="164.92" width="81.31" height="52.16" transform="translate(308.61 73.38) rotate(90)"/>
    <text class="cls-10-2-8" transform="translate(103.62 192.89)"><tspan x="0" y="0">２８０３</tspan></text>
  </g>
  <g id="_2801" data-name="2801">
    <rect class="cls-8-2-8" x="76.92" y="16.82" width="81.7" height="52.16" transform="translate(160.67 -74.87) rotate(90)"/>
    <text class="cls-10-2-8" transform="translate(103.77 44.8)"><tspan x="0" y="0">２８０１</tspan></text>
  </g>
  <g id="_レイヤー_1" data-name="レイヤー 1">
    <rect class="cls-4-2-8" x="101.18" y="107.18" width="32.56" height="52.16" transform="translate(250.72 15.8) rotate(90)"/>
    <rect class="cls-4-2-8" x="101.49" y="74.02" width="32.56" height="52.16" transform="translate(217.87 -17.67) rotate(90)"/>
    <polyline class="cls-1-2-8" points="28.94 2.11 143.54 2.11 143.54 231.71 2.36 231.71 2.36 2.11 28.94 2.11"/>
    <line class="cls-1-2-8" x1="91.38" y1="10.01" x2="91.38" y2="76.71"/>
    <polyline class="cls-1-2-8" points="91.38 82.15 91.38 83.82 143.54 83.82 143.54 2.11 91.38 2.11 91.38 4.66"/>
    <polyline class="cls-1-2-8" points="91.38 229.43 91.38 231.71 143.54 231.71 143.54 116.38 91.38 116.38 91.38 119.15"/>
    <line class="cls-1-2-8" x1="91.38" y1="156.45" x2="91.38" y2="223.39"/>
    <line class="cls-1-2-8" x1="91.38" y1="148.38" x2="91.38" y2="151.8"/>
    <line class="cls-1-2-8" x1="91.38" y1="125.19" x2="91.38" y2="144.92"/>
    <line class="cls-1-2-8" x1="91.38" y1="107.62" x2="91.38" y2="90.58"/>
    <polyline class="cls-1-2-8" points="91.38 85.07 91.38 83.82 143.54 83.82 143.54 116.38 91.38 116.38 91.38 113.55"/>
    <line class="cls-1-2-8" x1="54.13" y1="222.65" x2="54.13" y2="157.15"/>
    <polyline class="cls-1-2-8" points="2.12 150.12 54.13 150.12 54.13 150.12 54.13 143.4 2.12 143.4 2.12 231.71 54.13 231.71 54.13 228.62"/>
    <line class="cls-1-2-8" x1="54.13" y1="9.81" x2="54.13" y2="76.46"/>
    <polyline class="cls-1-2-8" points="2.12 82.12 54.13 82.16 54.13 89.61 2.12 89.61 2.12 2.11 54.13 2.11 54.13 4.88"/>
    <g>
      <polyline class="cls-1-2-8" points="43.85 97.78 45.75 97.78 45.75 135.68 43.85 135.68"/>
      <g>
        <polyline class="cls-1-2-8" points="39.73 135.68 16.42 135.68 16.42 97.78 39.73 97.78"/>
        <line class="cls-1-2-8" x1="45.75" y1="119.74" x2="16.42" y2="119.74"/>
      </g>
    </g>
    <rect class="cls-2-2-8" x="37.71" y="112.49" width="35.04" height="5.63" transform="translate(170.53 60.07) rotate(90)"/>
    <polyline class="cls-1-2-8" points="54.13 220.01 75.22 220.01 75.22 217.69 57.07 217.69 57.07 192.99 68.82 192.99 68.82 210.82 75.22 210.82 75.22 188.27 70.02 188.27 70.02 184.35"/>
    <polyline class="cls-1-2-8" points="70.02 188.27 57.07 188.27 57.07 175.4 70.02 175.4 70.02 179.4"/>
    <polyline class="cls-1-2-8" points="70.02 175.4 70.02 171.4 74.26 171.4 74.26 157.97 54.13 157.97"/>
    <polyline class="cls-2-2-8" points="54.13 11.72 76.04 11.72 76.04 16.15 57.29 16.15 57.29 38.45 71.96 38.45 71.96 23.01 76.04 23.01 76.04 45.14 58.89 45.14 58.89 70.1 73.62 70.1 73.62 56.2 76.04 56.2 76.04 75.42 54.13 75.42"/>
    <line class="cls-1-2-8" x1="73.62" y1="56.2" x2="68.93" y2="56.2"/>
    <line class="cls-1-2-8" x1="63.44" y1="56.26" x2="58.89" y2="56.26"/>
    <line class="cls-1-2-8" x1="72.62" y1="92.44" x2="72.62" y2="141.53"/>
    <line class="cls-1-2-8" x1="74.52" y1="92.37" x2="74.52" y2="141.46"/>
    <polyline class="cls-1-2-8" points="80.32 92.18 80.32 95.37 80.32 141.28"/>
    <line class="cls-1-2-8" x1="66.42" y1="92.44" x2="66.42" y2="141.53"/>
    <line class="cls-1-2-8" x1="74.52" y1="95.61" x2="80.32" y2="95.61"/>
    <line class="cls-1-2-8" x1="80.32" y1="138.35" x2="74.52" y2="138.35"/>
    <line class="cls-1-2-8" x1="72.62" y1="138.35" x2="66.42" y2="138.35"/>
    <line class="cls-1-2-8" x1="72.62" y1="95.61" x2="66.42" y2="95.61"/>
    <text class="cls-9-2-8" transform="translate(100.12 103.37)"><tspan x="0" y="0">２８０２Ａ</tspan></text>
    <polyline class="cls-2-2-8" points="16.42 132.49 2.12 132.49 2.12 100.62 9.19 100.62 9.19 115.14 16.42 118.33"/>
    <rect class="cls-3-2-8" x="24.4" y="59.88" width="7.45" height="52.01" transform="translate(114.01 57.76) rotate(90)"/>
    <rect class="cls-3-2-8" x="24.99" y="120.76" width="6.74" height="52.01" transform="translate(175.13 118.4) rotate(90)"/>
    <polygon class="cls-3-2-8" points="75.22 217.69 57.07 217.69 57.07 192.99 68.82 192.99 68.82 210.82 75.22 210.82 75.22 192.99 75.22 189.9 75.22 188.27 57.07 188.27 57.07 175.4 70.02 175.4 70.02 171.18 74.26 171.18 74.26 157.97 54.13 157.97 54.13 170.33 54.13 171.18 54.13 174.93 53.99 174.93 53.99 220.01 55.53 220.01 57.07 220.01 75.22 220.01 75.22 217.69"/>
    <g>
      <path class="cls-3-2-8" d="m66.66,23.98c0,.24-.19.43-.43.43s-.43-.19-.43-.43.19-.43.43-.43.43.19.43.43Z"/>
      <polygon class="cls-3-2-8" points="68.79 28.62 67.25 28.62 67.25 29.16 65.87 29.16 65.87 29.71 64.53 29.71 64.53 30.25 63.19 30.25 63.19 30.8 61.85 30.8 61.85 31.35 61 31.35 61 32.05 62.63 32.05 62.63 31.48 63.96 31.48 63.96 30.93 65.3 30.93 65.3 30.39 66.64 30.39 66.64 29.84 67.97 29.84 67.97 29.31 68.79 29.31 68.79 28.62"/>
      <path class="cls-3-2-8" d="m66.75,26.63c-.32-.21-.63-.41-.67-.44.11-.54.21-1.03.26-1.33,0,0,.04-.27-.17-.31-.3-.06-.72.17-1.2.53-.05.04-.13.1-.16.21-.03.1-.14.69-.2.94-.02.09.03.19.13.21.09.02.18-.03.21-.13.07-.21.2-.65.22-.68.02-.04.21-.19.21-.19l-.36,3.66c0,.11.09.19.19.21.12.01.22-.08.24-.2,0,0,.24-1.06.47-2.15l.41.19-.21,1.06c-.03.1.02.21.12.25.1.03.21-.02.25-.12,0,0,.37-.9.42-1.06.05-.17.18-.43-.15-.64Z"/>
      <g>
        <path class="cls-3-2-8" d="m62.98,25.2c0,.24-.19.43-.43.43s-.43-.19-.43-.43.19-.43.43-.43.43.19.43.43Z"/>
        <path class="cls-3-2-8" d="m63.95,27.66s-.06-.47-.12-.76c-.02-.07-.04-.13-.09-.22-.17-.29-.41-.63-.63-.75-.35-.18-.69-.08-.86.2-.17.3-.39.78-1,1.18-.08.05-.14.12-.11.21.03.09.12.14.21.11.01,0,.02,0,.03-.01.13-.06.65-.3.83-.59l-.15,3.28c-.01.12.07.23.19.25.12.01.22-.08.24-.2l.68-3.63s.22.18.27.33c.04.1.11.39.16.65,0,0,0,0,0,0,.02.1.1.16.19.15.09-.01.16-.1.15-.19Z"/>
        <path class="cls-3-2-8" d="m64.03,29.16l-1.21-.98-.1.7,1.06.61c.09.07.22.05.29-.04.07-.09.05-.22-.04-.29Z"/>
      </g>
    </g>
    <g>
      <path class="cls-3-2-8" d="m64.99,202.16c0,.24-.19.43-.43.43s-.43-.19-.43-.43.19-.43.43-.43.43.19.43.43Z"/>
      <polygon class="cls-3-2-8" points="67.12 206.8 65.58 206.8 65.58 207.35 64.2 207.35 64.2 207.89 62.86 207.89 62.86 208.44 61.52 208.44 61.52 208.98 60.18 208.98 60.18 209.53 59.33 209.53 59.33 210.23 60.96 210.23 60.96 209.66 62.29 209.66 62.29 209.12 63.63 209.12 63.63 208.57 64.97 208.57 64.97 208.03 66.31 208.03 66.31 207.5 67.12 207.5 67.12 206.8"/>
      <path class="cls-3-2-8" d="m65.08,204.81c-.32-.21-.63-.41-.67-.44.11-.54.21-1.03.26-1.33,0,0,.04-.27-.17-.31-.3-.06-.72.17-1.2.53-.05.04-.13.1-.16.21-.03.1-.14.69-.2.94-.02.09.03.19.13.21.09.02.18-.03.21-.13.07-.21.2-.65.22-.68.02-.04.21-.19.21-.19l-.36,3.66c0,.11.09.19.19.21.12.01.22-.08.24-.2,0,0,.24-1.06.47-2.15l.41.19-.21,1.06c-.03.1.02.21.12.25.1.03.21-.02.25-.12,0,0,.37-.9.42-1.06.05-.17.18-.43-.15-.64Z"/>
      <g>
        <path class="cls-3-2-8" d="m61.31,203.38c0,.24-.19.43-.43.43s-.43-.19-.43-.43.19-.43.43-.43.43.19.43.43Z"/>
        <path class="cls-3-2-8" d="m62.28,205.84s-.06-.47-.12-.76c-.02-.07-.04-.13-.09-.22-.17-.29-.41-.63-.63-.75-.35-.18-.69-.08-.86.2-.17.3-.39.78-1,1.18-.08.05-.14.12-.11.21.03.09.12.14.21.11.01,0,.02,0,.03-.01.13-.06.65-.3.83-.59l-.15,3.28c-.01.12.07.23.19.25.12.01.22-.08.24-.2l.68-3.63s.22.18.27.33c.04.1.11.39.16.65,0,0,0,0,0,0,.02.1.1.16.19.15.09-.01.16-.1.15-.19Z"/>
        <path class="cls-3-2-8" d="m62.36,207.35l-1.21-.98-.1.7,1.06.61c.09.07.22.05.29-.04.07-.09.05-.22-.04-.29Z"/>
      </g>
    </g>
    <g>
      <g>
        <path class="cls-3-2-8" d="m62.68,181.59c0,.2-.16.35-.35.35s-.35-.16-.35-.35.16-.35.35-.35.35.16.35.35Z"/>
        <path class="cls-3-2-8" d="m62.32,182.03c-.25,0-.84.02-.84.51v1.17c0,.08.06.14.13.14.08,0,.14-.06.14-.13l.07-.71.07,2.64c0,.1.08.18.18.18s.18-.08.18-.18l.07-1.62.07,1.62c0,.1.08.18.18.18s.18-.08.18-.18l.07-2.64.07.71c0,.08.07.13.14.13.08,0,.13-.07.13-.14v-1.17c0-.49-.59-.51-.84-.51Z"/>
      </g>
      <g>
        <path class="cls-3-2-8" d="m64.84,181.59c0,.2-.16.35-.35.35s-.35-.16-.35-.35.16-.35.35-.35.35.16.35.35Z"/>
        <path class="cls-3-2-8" d="m64.49,182.03c-.25,0-.84.02-.84.51v1.17c0,.08.06.14.13.14.08,0,.14-.06.14-.13l.07-.71.07,2.64c0,.1.08.18.18.18s.18-.08.18-.18l.07-1.62.07,1.62c0,.1.08.18.18.18s.18-.08.18-.18l.07-2.64.07.71c0,.08.07.13.14.13.08,0,.13-.07.13-.14v-1.17c0-.49-.59-.51-.84-.51Z"/>
      </g>
      <path class="cls-3-2-8" d="m65.73,186.09h-4.64c-.36,0-.65-.29-.65-.65v-4.97c0-.36.29-.65.65-.65h4.64c.36,0,.65.29.65.65v4.97c0,.36-.29.65-.65.65Zm-4.64-5.86c-.13,0-.24.11-.24.24v4.97c0,.13.11.24.24.24h4.64c.13,0,.24-.11.24-.24v-4.97c0-.13-.11-.24-.24-.24h-4.64Z"/>
      <path class="cls-3-2-8" d="m65.5,178.5l-.79-.79h0s-.13-.13-.13-.13l-.13.13h0s-.79.79-.79.79c-.07.07-.07.18,0,.25.07.07.18.07.25,0l.49-.49v1.09c0,.1.08.18.18.18s.18-.08.18-.18v-1.09s.49.49.49.49c.04.04.08.05.13.05s.09-.02.13-.05c.07-.07.07-.18,0-.25Z"/>
      <path class="cls-3-2-8" d="m63.24,178.44c-.07-.07-.18-.07-.25,0l-.49.49v-1.09c0-.1-.08-.18-.18-.18s-.18.08-.18.18v1.09s-.49-.49-.49-.49c-.07-.07-.18-.07-.25,0-.07.07-.07.18,0,.25l.79.79h0s.13.13.13.13l.13-.13h0s.79-.79.79-.79c.07-.07.07-.18,0-.25Z"/>
    </g>
    <g>
      <g>
        <path class="cls-3-2-8" d="m65.87,62.85c0,.2-.16.35-.35.35s-.35-.16-.35-.35.16-.35.35-.35.35.16.35.35Z"/>
        <path class="cls-3-2-8" d="m65.52,63.3c-.25,0-.84.02-.84.51v1.17c0,.08.06.14.13.14.08,0,.14-.06.14-.13l.07-.71.07,2.64c0,.1.08.18.18.18s.18-.08.18-.18l.07-1.62.07,1.62c0,.1.08.18.18.18s.18-.08.18-.18l.07-2.64.07.71c0,.08.07.13.14.13.08,0,.13-.07.13-.14v-1.17c0-.49-.59-.51-.84-.51Z"/>
      </g>
      <g>
        <path class="cls-3-2-8" d="m68.03,62.85c0,.2-.16.35-.35.35s-.35-.16-.35-.35.16-.35.35-.35.35.16.35.35Z"/>
        <path class="cls-3-2-8" d="m67.68,63.3c-.25,0-.84.02-.84.51v1.17c0,.08.06.14.13.14.08,0,.14-.06.14-.13l.07-.71.07,2.64c0,.1.08.18.18.18s.18-.08.18-.18l.07-1.62.07,1.62c0,.1.08.18.18.18s.18-.08.18-.18l.07-2.64.07.71c0,.08.07.13.14.13.08,0,.13-.07.13-.14v-1.17c0-.49-.59-.51-.84-.51Z"/>
      </g>
      <path class="cls-3-2-8" d="m68.92,67.35h-4.64c-.36,0-.65-.29-.65-.65v-4.97c0-.36.29-.65.65-.65h4.64c.36,0,.65.29.65.65v4.97c0,.36-.29.65-.65.65Zm-4.64-5.86c-.13,0-.24.11-.24.24v4.97c0,.13.11.24.24.24h4.64c.13,0,.24-.11.24-.24v-4.97c0-.13-.11-.24-.24-.24h-4.64Z"/>
      <path class="cls-3-2-8" d="m68.69,59.77l-.79-.79h0s-.13-.13-.13-.13l-.13.13h0s-.79.79-.79.79c-.07.07-.07.18,0,.25.07.07.18.07.25,0l.49-.49v1.09c0,.1.08.18.18.18s.18-.08.18-.18v-1.09s.49.49.49.49c.04.04.08.05.13.05s.09-.02.13-.05c.07-.07.07-.18,0-.25Z"/>
      <path class="cls-3-2-8" d="m66.43,59.71c-.07-.07-.18-.07-.25,0l-.49.49v-1.09c0-.1-.08-.18-.18-.18s-.18.08-.18.18v1.09s-.49-.49-.49-.49c-.07-.07-.18-.07-.25,0-.07.07-.07.18,0,.25l.79.79h0s.13.13.13.13l.13-.13h0s.79-.79.79-.79c.07-.07.07-.18,0-.25Z"/>
    </g>
    <g>
      <path class="cls-5-2-8" d="m31.96,103.88c0,.48-.39.87-.87.87s-.87-.39-.87-.87.39-.87.87-.87.87.39.87.87Z"/>
      <path class="cls-5-2-8" d="m31.09,105.02c-.62,0-2.07.06-2.07,1.26v2.86c0,.19.14.35.32.35.19,0,.35-.14.35-.32l.16-1.74.17,6.47c0,.24.2.44.44.44s.44-.2.44-.44l.18-3.98.18,3.98c0,.24.2.44.44.44s.44-.2.44-.44l.17-6.47.16,1.74c0,.19.17.33.35.32s.33-.17.32-.35v-2.86c0-1.2-1.45-1.26-2.07-1.26Z"/>
    </g>
    <g>
      <path class="cls-7-2-8" d="m31.09,123.82c.48,0,.87-.39.87-.87s-.39-.87-.87-.87-.87.39-.87.87.39.87.87.87Z"/>
      <path class="cls-7-2-8" d="m33.58,127.99l-.69-2.52c-.28-1.16-1.19-1.34-1.8-1.34s-1.52.17-1.8,1.34l-.69,2.52c-.07.17.02.37.19.44.17.07.37-.02.44-.19l.68-1.92.17.88-.85,2.69h1.25s.07.84.07.84l.1,2.27c0,.24.2.44.44.44s.44-.2.44-.44l.1-2.27.07-.84h1.25s-.85-2.69-.85-2.69l.17-.88.68,1.92c.07.17.26.26.44.19.17-.07.26-.26.19-.44Z"/>
    </g>
    <rect class="cls-3-2-8" x="78.8" y="143.33" width=".07" height=".07" transform="translate(222.19 64.53) rotate(90)"/>
    <g>
      <g>
        <rect class="cls-6-2-8" x="73.52" y="111.06" width="11.34" height="11.34"/>
        <g>
          <path class="cls-3-2-8" d="m83.31,120.51v-1.83s0,0,0,0v-.29s-.29,0-.29,0c0,0,0,0,0,0h-1.83c-.16,0-.29.13-.29.29s.13.29.29.29h1.12s-1.26,1.26-1.26,1.26c-.11.11-.11.3,0,.42.11.11.3.11.42,0l1.26-1.26v1.12c0,.08.03.15.09.21.05.05.13.09.21.09.16,0,.29-.13.29-.29Z"/>
          <g>
            <path class="cls-3-2-8" d="m82.88,113.76h-1.74c-.14,0-.34.08-.44.18l-4.11,4.1c-.1.1-.3.18-.44.18h-.64c-.69,0-1.26.56-1.26,1.26s.56,1.26,1.26,1.26h1.74c.14,0,.34-.08.44-.18l4.11-4.1c.1-.1.3-.18.44-.18h.64c.69,0,1.26-.56,1.26-1.26s-.56-1.26-1.26-1.26Zm0,1.95h-1.14s-4.48,4.46-4.48,4.46h-1.76c-.38,0-.69-.31-.69-.69s.31-.69.69-.69h1.14s4.48-4.46,4.48-4.46h1.76c.38,0,.69.31.69.69s-.31.69-.69.69Z"/>
            <path class="cls-3-2-8" d="m78.93,113.17c0,.29-.23.52-.52.52s-.52-.23-.52-.52.23-.52.52-.52.52.23.52.52Z"/>
            <path class="cls-3-2-8" d="m79.28,114.7c.1-.8-.48-.87-.84-.87s-.94.07-.84.87c.09.75.18,2.13.19,2.26l1.4-1.32c.03-.34.06-.67.09-.93Z"/>
          </g>
        </g>
      </g>
      <g>
        <rect class="cls-6-2-8" x="62.53" y="111.06" width="11.34" height="11.34"/>
        <g>
          <path class="cls-3-2-8" d="m70.06,118.56v1.83s0,0,0,0v.29s.29,0,.29,0c0,0,0,0,0,0h1.83c.16,0,.29-.13.29-.29s-.13-.29-.29-.29h-1.12s1.26-1.26,1.26-1.26c.11-.11.11-.3,0-.42-.11-.11-.3-.11-.42,0l-1.26,1.26v-1.12c0-.08-.03-.15-.09-.21-.05-.05-.13-.09-.21-.09-.16,0-.29.13-.29.29Z"/>
          <g>
            <path class="cls-3-2-8" d="m71.89,113.79h-1.74c-.14,0-.34.08-.44.18l-4.11,4.1c-.1.1-.3.18-.44.18h-.64c-.69,0-1.26.56-1.26,1.26s.56,1.26,1.26,1.26h1.74c.14,0,.34-.08.44-.18l4.11-4.1c.1-.1.3-.18.44-.18h.64c.69,0,1.26-.56,1.26-1.26s-.56-1.26-1.26-1.26Zm0,1.95h-1.14s-4.48,4.46-4.48,4.46h-1.76c-.38,0-.69-.31-.69-.69s.31-.69.69-.69h1.14s4.48-4.46,4.48-4.46h1.76c.38,0,.69.31.69.69s-.31.69-.69.69Z"/>
            <path class="cls-3-2-8" d="m67.95,113.2c0,.29-.23.52-.52.52s-.52-.23-.52-.52.23-.52.52-.52.52.23.52.52Z"/>
            <path class="cls-3-2-8" d="m68.3,114.73c.1-.8-.48-.87-.84-.87s-.94.07-.84.87c.09.75.18,2.13.19,2.26l1.4-1.32c.03-.34.06-.67.09-.93Z"/>
          </g>
        </g>
      </g>
    </g>
    <line class="cls-1-2-8" x1="143.85" y1="150.14" x2="91.38" y2="150.14"/>
    <text class="cls-9-2-8" transform="translate(100.12 135.44)"><tspan x="0" y="0">２８０２Ｂ</tspan></text>
  </g>
</svg>