<?xml version="1.0" encoding="UTF-8"?>
<svg xmlns="http://www.w3.org/2000/svg" viewBox="0 0 365 291">
  <defs>
    <style>
      .cls-1 {
        fill: #dbdcdc;
      }

      .cls-1, .cls-2, .cls-3 {
        font-family: KozGoPr6N-Regular-90ms-RKSJ-H, 'Kozuka Gothic Pr6N';
      }

      .cls-1, .cls-3 {
        font-size: 15px;
      }

      .cls-4, .cls-5 {
        stroke-width: 0px;
      }

      .cls-4, .cls-6, .cls-7 {
        stroke-miterlimit: 10;
      }

      .cls-4, .cls-2, .cls-3 {
        fill: #231815;
      }

      .cls-4, .cls-8, .cls-9 {
        stroke-linecap: round;
      }

      .cls-4, .cls-9 {
        stroke: #000;
      }

      .cls-5, .cls-6, .cls-8, .cls-9 {
        fill: none;
      }

      .cls-6 {
        stroke-width: .85px;
      }

      .cls-6, .cls-8, .cls-7 {
        stroke: #231815;
      }

      .cls-2 {
        font-size: 18px;
      }

      .cls-8, .cls-9 {
        stroke-linejoin: round;
        stroke-width: .72px;
      }

      .cls-3 {
        glyph-orientation-vertical: 0deg;
        text-orientation: upright;
        writing-mode: tb;
      }

      .cls-7 {
        fill: #791a24;
        stroke-width: .86px;
      }
    </style>
  </defs>
  <g id="_レイヤー_1" data-name="レイヤー 1">
    <line class="cls-8" x1="258.96" y1="9.58" x2="205.75" y2="9.58"/>
    <line class="cls-8" x1="245.18" y1="19.32" x2="205.75" y2="19.32"/>
    <line class="cls-9" x1="258.96" y1="28.98" x2="205.75" y2="28.98"/>
    <line class="cls-8" x1="207.86" y1="19.32" x2="207.86" y2="28.98"/>
    <line class="cls-8" x1="205.75" y1="9.58" x2="205.75" y2="28.98"/>
    <line class="cls-8" x1="209.88" y1="19.32" x2="209.88" y2="28.98"/>
    <line class="cls-8" x1="211.99" y1="19.32" x2="211.99" y2="28.98"/>
    <line class="cls-8" x1="214.09" y1="19.32" x2="214.09" y2="28.98"/>
    <line class="cls-8" x1="216.11" y1="19.32" x2="216.11" y2="28.98"/>
    <line class="cls-8" x1="218.22" y1="19.32" x2="218.22" y2="28.98"/>
    <line class="cls-8" x1="220.24" y1="19.32" x2="220.24" y2="28.98"/>
    <line class="cls-8" x1="222.35" y1="19.32" x2="222.35" y2="28.98"/>
    <line class="cls-8" x1="224.46" y1="19.32" x2="224.46" y2="28.98"/>
    <line class="cls-8" x1="226.47" y1="19.32" x2="226.47" y2="28.98"/>
    <line class="cls-8" x1="228.58" y1="19.32" x2="228.58" y2="28.98"/>
    <line class="cls-8" x1="230.6" y1="9.58" x2="230.6" y2="28.98"/>
    <line class="cls-8" x1="232.71" y1="9.58" x2="232.71" y2="28.98"/>
    <line class="cls-8" x1="234.82" y1="9.58" x2="234.82" y2="28.98"/>
    <line class="cls-8" x1="236.84" y1="9.58" x2="236.84" y2="28.98"/>
    <line class="cls-8" x1="238.94" y1="9.58" x2="238.94" y2="28.98"/>
    <line class="cls-8" x1="241.05" y1="9.58" x2="241.05" y2="28.98"/>
    <line class="cls-8" x1="243.07" y1="9.58" x2="243.07" y2="28.98"/>
    <line class="cls-8" x1="245.18" y1="9.58" x2="245.18" y2="28.98"/>
    <line class="cls-8" x1="258.96" y1="9.58" x2="258.96" y2="28.98"/>
    <polyline class="cls-8" points="205.75 24.15 252.11 24.15 252.11 14.49 230.6 14.49 236.84 18.09"/>
    <line class="cls-8" x1="236.84" y1="10.81" x2="230.6" y2="14.49"/>
    <line class="cls-8" x1="141.31" y1="213.1" x2="174.5" y2="213.1"/>
    <line class="cls-8" x1="157.9" y1="222.85" x2="174.5" y2="222.85"/>
    <polyline class="cls-8" points="141.31 213.1 141.31 232.51 174.5 232.51"/>
    <line class="cls-8" x1="157.9" y1="213.1" x2="157.9" y2="232.51"/>
    <line class="cls-8" x1="159.92" y1="213.1" x2="159.92" y2="232.51"/>
    <line class="cls-8" x1="162.03" y1="213.1" x2="162.03" y2="232.51"/>
    <line class="cls-8" x1="164.14" y1="213.1" x2="164.14" y2="232.51"/>
    <line class="cls-8" x1="166.15" y1="222.85" x2="166.15" y2="232.51"/>
    <line class="cls-8" x1="168.26" y1="222.85" x2="168.26" y2="232.51"/>
    <line class="cls-8" x1="170.37" y1="222.85" x2="170.37" y2="232.51"/>
    <line class="cls-8" x1="172.39" y1="222.85" x2="172.39" y2="232.51"/>
    <line class="cls-8" x1="174.5" y1="213.1" x2="174.5" y2="232.51"/>
    <line class="cls-8" x1="141.31" y1="232.51" x2="157.9" y2="232.51"/>
    <line class="cls-8" x1="157.9" y1="222.85" x2="157.9" y2="213.1"/>
    <polyline class="cls-8" points="174.5 227.68 149.56 227.68 149.56 217.93 164.14 217.93 159.92 214.42"/>
    <line class="cls-8" x1="164.14" y1="217.93" x2="159.92" y2="221.53"/>
    <line class="cls-8" x1="174.5" y1="213.1" x2="191.09" y2="213.1"/>
    <line class="cls-8" x1="174.5" y1="222.85" x2="191.18" y2="222.76"/>
    <polyline class="cls-5" points="370.82 300.1 370.82 -45.75 -73.81 -45.75 -73.81 300.1 370.82 300.1"/>
    <polyline class="cls-5" points="370.82 300.1 370.82 -45.75 -73.81 -45.75 -73.81 300.1 370.82 300.1"/>
    <rect class="cls-6" x="150.13" y="118.68" width="28.35" height="85.04"/>
    <rect class="cls-6" x="152.96" y="36.48" width="42.52" height="19.84"/>
    <rect class="cls-6" x="152.96" y="5.3" width="42.52" height="19.84"/>
    <rect class="cls-6" x="198.32" y="36.48" width="42.52" height="19.84"/>
    <rect class="cls-6" x="246.51" y="36.48" width="42.52" height="19.84"/>
    <rect class="cls-6" x="95.86" y="229.24" width="19.84" height="19.84"/>
    <rect class="cls-4" x="104.78" y="10.97" width="14.17" height="14.17"/>
    <rect class="cls-4" x="81.69" y="229.24" width="14.17" height="14.17"/>
    <rect class="cls-7" x="192.65" y="110.18" width="166.83" height="175.75"/>
    <text class="cls-1" transform="translate(253.05 202.18) scale(1.18 1)"><tspan x="0" y="0">3号館</tspan></text>
    <text class="cls-3" transform="translate(164.3 131.2)"><tspan x="0" y="0">ステージ</tspan></text>
  </g>
  <g id="A">
    <rect class="cls-6" x="118.95" y="25.14" width="19.84" height="19.84"/>
    <text class="cls-2" transform="translate(122.97 42.15)"><tspan x="0" y="0">A</tspan></text>
  </g>
  <g id="B">
    <rect class="cls-6" x="84.93" y="8.13" width="19.84" height="19.84"/>
    <text class="cls-2" transform="translate(89.63 25.14)"><tspan x="0" y="0">B</tspan></text>
  </g>
  <g id="C">
    <rect class="cls-6" x="65.09" y="8.13" width="19.84" height="19.84"/>
    <text class="cls-2" transform="translate(69.42 25.14)"><tspan x="0" y="0">C</tspan></text>
  </g>
  <g id="D">
    <rect class="cls-6" x="5.15" y="39.31" width="19.84" height="19.84"/>
    <text class="cls-2" transform="translate(8.37 56.32)"><tspan x="0" y="0">D</tspan></text>
  </g>
  <g id="E">
    <rect class="cls-6" x="5.15" y="59.16" width="19.84" height="19.84"/>
    <text class="cls-2" transform="translate(9.5 76.16)"><tspan x="0" y="0">E</tspan></text>
  </g>
  <g id="F">
    <rect class="cls-6" x="5.15" y="79" width="19.84" height="19.84"/>
    <text class="cls-2" transform="translate(9.6 96.01)"><tspan x="0" y="0">F</tspan></text>
  </g>
  <g id="G">
    <rect class="cls-6" x="5.15" y="98.84" width="19.84" height="19.84"/>
    <text class="cls-2" transform="translate(8.54 115.85)"><tspan x="0" y="0">G</tspan></text>
  </g>
  <g id="H">
    <rect class="cls-6" x="5.15" y="141.36" width="19.84" height="19.84"/>
    <text class="cls-2" transform="translate(8.77 158.37)"><tspan x="0" y="0">H</tspan></text>
  </g>
  <g id="I">
    <rect class="cls-6" x="5.15" y="161.2" width="19.84" height="19.84"/>
    <text class="cls-2" transform="translate(12.79 178.21)"><tspan x="0" y="0">I</tspan></text>
  </g>
  <g id="J">
    <rect class="cls-6" x="5.15" y="181.05" width="19.84" height="19.84"/>
    <text class="cls-2" transform="translate(11.54 198.05)"><tspan x="0" y="0">J</tspan></text>
  </g>
  <g id="K">
    <rect class="cls-6" x="42" y="223.57" width="19.84" height="19.84"/>
    <text class="cls-2" transform="translate(46.71 240.57)"><tspan x="0" y="0">K</tspan></text>
  </g>
  <g id="L">
    <rect class="cls-6" x="61.84" y="223.57" width="19.84" height="19.84"/>
    <text class="cls-2" transform="translate(67.21 240.57)"><tspan x="0" y="0">L</tspan></text>
  </g>
</svg>