<?xml version="1.0" encoding="UTF-8"?>
<svg xmlns="http://www.w3.org/2000/svg" viewBox="0 0 127.5 246">
  <defs>
    <style>
      .cls-1-4-1 {
        fill: none;
        stroke: #231815;
        stroke-miterlimit: 10;
      }

      .cls-2-4-1 {
        font-family: KozGoPr6N-Regular-90ms-RKSJ-H, 'Kozuka Gothic Pr6N';
        font-size: 6px;
      }

      .cls-3-4-1 {
        fill: #231815;
      }

      .cls-3-4-1, .cls-4-4-1, .cls-5-4-1, .cls-6-4-1, .cls-7-4-1 {
        stroke-width: 0px;
      }

      .cls-4-4-1 {
        fill: #7a1a24;
        opacity: .2;
      }

      .cls-5-4-1 {
        fill: #2d3e6a;
      }

      .cls-6-4-1 {
        fill: #008242;
      }

      .cls-7-4-1 {
        fill: #ba1f21;
      }
    </style>
  </defs>
  <g id="_レイヤー_1" data-name="レイヤー 1">
    <polyline class="cls-1-4-1" points="115.48 215.41 123.88 215.41 123.88 231.55 115.54 231.55"/>
    <polygon class="cls-3-4-1" points="56.65 209.28 44.5 209.28 44.5 196.15 41.66 196.15 41.66 231.55 65.88 231.55 65.88 220.4 56.65 220.4 56.65 209.28"/>
    <rect class="cls-3-4-1" x="41.92" y="1.95" width="41.52" height="91.69"/>
    <rect class="cls-4-4-1" x="2.56" y="1.95" width="39.36" height="61.53"/>
    <rect class="cls-4-4-1" x="2.56" y="63.48" width="30.38" height="26.56"/>
    <rect class="cls-4-4-1" x="2.77" y="90.21" width="29.95" height="52.69"/>
    <rect class="cls-4-4-1" x="2.77" y="143.12" width="29.95" height="25.52"/>
    <rect class="cls-4-4-1" x="2.77" y="168.64" width="14.98" height="13.18"/>
    <rect class="cls-4-4-1" x="17.75" y="168.64" width="14.98" height="13.04"/>
    <rect class="cls-4-4-1" x="92.62" y="156.16" width="31.27" height="19.72"/>
    <rect class="cls-4-4-1" x="92.62" y="142.91" width="31.27" height="13.25"/>
    <rect class="cls-4-4-1" x="92.62" y="103.49" width="31.27" height="13.06"/>
    <rect class="cls-4-4-1" x="92.62" y="90.21" width="31.27" height="13.28"/>
    <rect class="cls-4-4-1" x="92.62" y="63.48" width="31.27" height="26.56"/>
    <rect class="cls-4-4-1" x="83.44" y="2" width="40.44" height="21.84"/>
    <rect class="cls-4-4-1" x="83.44" y="23.93" width="40.44" height="39.55"/>
    <rect class="cls-4-4-1" x="41.67" y="93.64" width="21.01" height="26.59"/>
    <rect class="cls-4-4-1" x="62.68" y="93.64" width="20.76" height="26.59"/>
    <polygon class="cls-4-4-1" points="75.03 120.23 75.03 128.28 41.79 128.28 41.79 136.53 75.03 136.53 83.44 136.53 83.6 136.53 83.6 120.23 75.03 120.23"/>
    <rect class="cls-4-4-1" x="27.2" y="216.61" width="14.45" height="14.95"/>
    <g>
      <path class="cls-3-4-1" d="m69.73,211.48c0,.24-.19.43-.43.43s-.43-.19-.43-.43.19-.43.43-.43.43.19.43.43Z"/>
      <polygon class="cls-3-4-1" points="71.86 216.11 70.32 216.11 70.32 216.66 68.94 216.66 68.94 217.21 67.6 217.21 67.6 217.75 66.26 217.75 66.26 218.3 64.92 218.3 64.92 218.85 64.07 218.85 64.07 219.55 65.7 219.55 65.7 218.98 67.03 218.98 67.03 218.43 68.37 218.43 68.37 217.89 69.7 217.89 69.7 217.34 71.04 217.34 71.04 216.81 71.86 216.81 71.86 216.11"/>
      <path class="cls-3-4-1" d="m69.81,214.12c-.32-.21-.63-.41-.67-.44.11-.54.21-1.03.26-1.33,0,0,.04-.27-.17-.31-.3-.06-.72.17-1.2.53-.05.04-.13.1-.16.21-.03.1-.14.69-.2.94-.02.09.03.19.13.21.09.02.18-.03.21-.13.07-.21.2-.65.22-.68.02-.04.21-.19.21-.19l-.36,3.66c0,.11.09.19.19.21.12.01.22-.08.24-.2,0,0,.24-1.06.47-2.15l.41.19-.21,1.06c-.03.1.02.21.12.25.1.03.21-.02.25-.12,0,0,.37-.9.42-1.06.05-.17.18-.43-.15-.64Z"/>
      <g>
        <path class="cls-3-4-1" d="m66.05,212.69c0,.24-.19.43-.43.43s-.43-.19-.43-.43.19-.43.43-.43.43.19.43.43Z"/>
        <path class="cls-3-4-1" d="m67.02,215.16s-.06-.47-.12-.76c-.02-.07-.04-.13-.09-.22-.17-.29-.41-.63-.63-.75-.35-.18-.69-.08-.86.2-.17.3-.39.78-1,1.18-.08.05-.14.12-.11.21.03.09.12.14.21.11.01,0,.02,0,.03-.01.13-.06.65-.3.83-.59l-.15,3.28c-.01.12.07.23.19.25.12.01.22-.08.24-.2l.68-3.63s.22.18.27.33c.04.1.11.39.16.65,0,0,0,0,0,0,.02.1.1.16.19.15.09-.01.16-.1.15-.19Z"/>
        <path class="cls-3-4-1" d="m67.1,216.66l-1.21-.98-.1.7,1.06.61c.09.07.22.05.29-.04.07-.09.05-.22-.04-.29Z"/>
      </g>
    </g>
    <g>
      <g>
        <path class="cls-3-4-1" d="m73.36,202.32c0,.2-.16.35-.35.35s-.35-.16-.35-.35.16-.35.35-.35.35.16.35.35Z"/>
        <path class="cls-3-4-1" d="m73,202.76c-.25,0-.84.02-.84.51v1.17c0,.08.06.14.13.14.08,0,.14-.06.14-.13l.07-.71.07,2.64c0,.1.08.18.18.18s.18-.08.18-.18l.07-1.62.07,1.62c0,.1.08.18.18.18s.18-.08.18-.18l.07-2.64.07.71c0,.08.07.13.14.13.08,0,.13-.07.13-.14v-1.17c0-.49-.59-.51-.84-.51Z"/>
      </g>
      <g>
        <path class="cls-3-4-1" d="m75.52,202.32c0,.2-.16.35-.35.35s-.35-.16-.35-.35.16-.35.35-.35.35.16.35.35Z"/>
        <path class="cls-3-4-1" d="m75.16,202.76c-.25,0-.84.02-.84.51v1.17c0,.08.06.14.13.14.08,0,.14-.06.14-.13l.07-.71.07,2.64c0,.1.08.18.18.18s.18-.08.18-.18l.07-1.62.07,1.62c0,.1.08.18.18.18s.18-.08.18-.18l.07-2.64.07.71c0,.08.07.13.14.13.08,0,.13-.07.13-.14v-1.17c0-.49-.59-.51-.84-.51Z"/>
      </g>
      <path class="cls-3-4-1" d="m76.4,206.82h-4.64c-.36,0-.65-.29-.65-.65v-4.97c0-.36.29-.65.65-.65h4.64c.36,0,.65.29.65.65v4.97c0,.36-.29.65-.65.65Zm-4.64-5.86c-.13,0-.24.11-.24.24v4.97c0,.13.11.24.24.24h4.64c.13,0,.24-.11.24-.24v-4.97c0-.13-.11-.24-.24-.24h-4.64Z"/>
      <path class="cls-3-4-1" d="m76.17,199.23l-.79-.79h0s-.13-.13-.13-.13l-.13.13h0s-.79.79-.79.79c-.07.07-.07.18,0,.25.07.07.18.07.25,0l.49-.49v1.09c0,.1.08.18.18.18s.18-.08.18-.18v-1.09s.49.49.49.49c.04.04.08.05.13.05s.09-.02.13-.05c.07-.07.07-.18,0-.25Z"/>
      <path class="cls-3-4-1" d="m73.92,199.17c-.07-.07-.18-.07-.25,0l-.49.49v-1.09c0-.1-.08-.18-.18-.18s-.18.08-.18.18v1.09s-.49-.49-.49-.49c-.07-.07-.18-.07-.25,0-.07.07-.07.18,0,.25l.79.79h0s.13.13.13.13l.13-.13h0s.79-.79.79-.79c.07-.07.07-.18,0-.25Z"/>
    </g>
    <g>
      <path class="cls-5-4-1" d="m52.8,156.18c0,.36-.29.65-.65.65s-.65-.29-.65-.65.29-.65.65-.65.65.29.65.65Z"/>
      <path class="cls-5-4-1" d="m52.15,157.04c-.46,0-1.55.04-1.55.94v2.15c0,.14.1.26.24.27.14,0,.26-.1.27-.24l.12-1.3.13,4.85c0,.18.15.33.33.33s.33-.15.33-.33l.13-2.98.13,2.98c0,.18.15.33.33.33s.33-.15.33-.33l.13-4.85.12,1.3c0,.14.13.25.27.24s.25-.13.24-.27v-2.15c0-.9-1.09-.94-1.55-.94Z"/>
    </g>
    <g>
      <path class="cls-7-4-1" d="m74.19,156.83c.36,0,.65-.29.65-.65s-.29-.65-.65-.65-.65.29-.65.65.29.65.65.65Z"/>
      <path class="cls-7-4-1" d="m76.06,159.95l-.51-1.89c-.21-.87-.89-1-1.35-1s-1.14.13-1.35,1l-.51,1.89c-.05.13.02.28.15.33.13.05.28-.02.33-.15l.51-1.44.13.66-.64,2.02h.94s.05.63.05.63l.07,1.7c0,.18.15.33.33.33s.33-.15.33-.33l.07-1.7.05-.63h.94s-.64-2.02-.64-2.02l.13-.66.51,1.44c.05.13.2.2.33.15.13-.05.2-.2.15-.33Z"/>
    </g>
    <g>
      <g>
        <path class="cls-3-4-1" d="m62.34,202.32c0,.2-.16.35-.35.35s-.35-.16-.35-.35.16-.35.35-.35.35.16.35.35Z"/>
        <path class="cls-3-4-1" d="m61.99,202.76c-.25,0-.84.02-.84.51v1.17c0,.08.06.14.13.14.08,0,.14-.06.14-.13l.07-.71.07,2.64c0,.1.08.18.18.18s.18-.08.18-.18l.07-1.62.07,1.62c0,.1.08.18.18.18s.18-.08.18-.18l.07-2.64.07.71c0,.08.07.13.14.13.08,0,.13-.07.13-.14v-1.17c0-.49-.59-.51-.84-.51Z"/>
      </g>
      <g>
        <path class="cls-3-4-1" d="m64.5,202.32c0,.2-.16.35-.35.35s-.35-.16-.35-.35.16-.35.35-.35.35.16.35.35Z"/>
        <path class="cls-3-4-1" d="m64.15,202.76c-.25,0-.84.02-.84.51v1.17c0,.08.06.14.13.14.08,0,.14-.06.14-.13l.07-.71.07,2.64c0,.1.08.18.18.18s.18-.08.18-.18l.07-1.62.07,1.62c0,.1.08.18.18.18s.18-.08.18-.18l.07-2.64.07.71c0,.08.07.13.14.13.08,0,.13-.07.13-.14v-1.17c0-.49-.59-.51-.84-.51Z"/>
      </g>
      <path class="cls-3-4-1" d="m65.39,206.82h-4.64c-.36,0-.65-.29-.65-.65v-4.97c0-.36.29-.65.65-.65h4.64c.36,0,.65.29.65.65v4.97c0,.36-.29.65-.65.65Zm-4.64-5.86c-.13,0-.24.11-.24.24v4.97c0,.13.11.24.24.24h4.64c.13,0,.24-.11.24-.24v-4.97c0-.13-.11-.24-.24-.24h-4.64Z"/>
      <path class="cls-3-4-1" d="m65.16,199.23l-.79-.79h0s-.13-.13-.13-.13l-.13.13h0s-.79.79-.79.79c-.07.07-.07.18,0,.25.07.07.18.07.25,0l.49-.49v1.09c0,.1.08.18.18.18s.18-.08.18-.18v-1.09s.49.49.49.49c.04.04.08.05.13.05s.09-.02.13-.05c.07-.07.07-.18,0-.25Z"/>
      <path class="cls-3-4-1" d="m62.9,199.17c-.07-.07-.18-.07-.25,0l-.49.49v-1.09c0-.1-.08-.18-.18-.18s-.18.08-.18.18v1.09s-.49-.49-.49-.49c-.07-.07-.18-.07-.25,0-.07.07-.07.18,0,.25l.79.79h0s.13.13.13.13l.13-.13h0s.79-.79.79-.79c.07-.07.07-.18,0-.25Z"/>
    </g>
    <g>
      <g>
        <path class="cls-3-4-1" d="m50.32,202.32c0,.2-.16.35-.35.35s-.35-.16-.35-.35.16-.35.35-.35.35.16.35.35Z"/>
        <path class="cls-3-4-1" d="m49.97,202.76c-.25,0-.84.02-.84.51v1.17c0,.08.06.14.13.14.08,0,.14-.06.14-.13l.07-.71.07,2.64c0,.1.08.18.18.18s.18-.08.18-.18l.07-1.62.07,1.62c0,.1.08.18.18.18s.18-.08.18-.18l.07-2.64.07.71c0,.08.07.13.14.13.08,0,.13-.07.13-.14v-1.17c0-.49-.59-.51-.84-.51Z"/>
      </g>
      <g>
        <path class="cls-3-4-1" d="m52.48,202.32c0,.2-.16.35-.35.35s-.35-.16-.35-.35.16-.35.35-.35.35.16.35.35Z"/>
        <path class="cls-3-4-1" d="m52.13,202.76c-.25,0-.84.02-.84.51v1.17c0,.08.06.14.13.14.08,0,.14-.06.14-.13l.07-.71.07,2.64c0,.1.08.18.18.18s.18-.08.18-.18l.07-1.62.07,1.62c0,.1.08.18.18.18s.18-.08.18-.18l.07-2.64.07.71c0,.08.07.13.14.13.08,0,.13-.07.13-.14v-1.17c0-.49-.59-.51-.84-.51Z"/>
      </g>
      <path class="cls-3-4-1" d="m53.37,206.82h-4.64c-.36,0-.65-.29-.65-.65v-4.97c0-.36.29-.65.65-.65h4.64c.36,0,.65.29.65.65v4.97c0,.36-.29.65-.65.65Zm-4.64-5.86c-.13,0-.24.11-.24.24v4.97c0,.13.11.24.24.24h4.64c.13,0,.24-.11.24-.24v-4.97c0-.13-.11-.24-.24-.24h-4.64Z"/>
      <path class="cls-3-4-1" d="m53.14,199.23l-.79-.79h0s-.13-.13-.13-.13l-.13.13h0s-.79.79-.79.79c-.07.07-.07.18,0,.25.07.07.18.07.25,0l.49-.49v1.09c0,.1.08.18.18.18s.18-.08.18-.18v-1.09s.49.49.49.49c.04.04.08.05.13.05s.09-.02.13-.05c.07-.07.07-.18,0-.25Z"/>
      <path class="cls-3-4-1" d="m50.88,199.17c-.07-.07-.18-.07-.25,0l-.49.49v-1.09c0-.1-.08-.18-.18-.18s-.18.08-.18.18v1.09s-.49-.49-.49-.49c-.07-.07-.18-.07-.25,0-.07.07-.07.18,0,.25l.79.79h0s.13.13.13.13l.13-.13h0s.79-.79.79-.79c.07-.07.07-.18,0-.25Z"/>
    </g>
    <g>
      <g>
        <path class="cls-3-4-1" d="m62.3,174.6c0,.2-.16.35-.35.35s-.35-.16-.35-.35.16-.35.35-.35.35.16.35.35Z"/>
        <path class="cls-3-4-1" d="m61.94,175.04c-.25,0-.84.02-.84.51v1.17c0,.08.06.14.13.14.08,0,.14-.06.14-.13l.07-.71.07,2.64c0,.1.08.18.18.18s.18-.08.18-.18l.07-1.62.07,1.62c0,.1.08.18.18.18s.18-.08.18-.18l.07-2.64.07.71c0,.08.07.13.14.13.08,0,.13-.07.13-.14v-1.17c0-.49-.59-.51-.84-.51Z"/>
      </g>
      <g>
        <path class="cls-3-4-1" d="m64.46,174.6c0,.2-.16.35-.35.35s-.35-.16-.35-.35.16-.35.35-.35.35.16.35.35Z"/>
        <path class="cls-3-4-1" d="m64.11,175.04c-.25,0-.84.02-.84.51v1.17c0,.08.06.14.13.14.08,0,.14-.06.14-.13l.07-.71.07,2.64c0,.1.08.18.18.18s.18-.08.18-.18l.07-1.62.07,1.62c0,.1.08.18.18.18s.18-.08.18-.18l.07-2.64.07.71c0,.08.07.13.14.13.08,0,.13-.07.13-.14v-1.17c0-.49-.59-.51-.84-.51Z"/>
      </g>
      <path class="cls-3-4-1" d="m65.35,179.1h-4.64c-.36,0-.65-.29-.65-.65v-4.97c0-.36.29-.65.65-.65h4.64c.36,0,.65.29.65.65v4.97c0,.36-.29.65-.65.65Zm-4.64-5.86c-.13,0-.24.11-.24.24v4.97c0,.13.11.24.24.24h4.64c.13,0,.24-.11.24-.24v-4.97c0-.13-.11-.24-.24-.24h-4.64Z"/>
      <path class="cls-3-4-1" d="m65.12,171.52l-.79-.79h0s-.13-.13-.13-.13l-.13.13h0s-.79.79-.79.79c-.07.07-.07.18,0,.25.07.07.18.07.25,0l.49-.49v1.09c0,.1.08.18.18.18s.18-.08.18-.18v-1.09s.49.49.49.49c.04.04.08.05.13.05s.09-.02.13-.05c.07-.07.07-.18,0-.25Z"/>
      <path class="cls-3-4-1" d="m62.86,171.46c-.07-.07-.18-.07-.25,0l-.49.49v-1.09c0-.1-.08-.18-.18-.18s-.18.08-.18.18v1.09s-.49-.49-.49-.49c-.07-.07-.18-.07-.25,0-.07.07-.07.18,0,.25l.79.79h0s.13.13.13.13l.13-.13h0s.79-.79.79-.79c.07-.07.07-.18,0-.25Z"/>
    </g>
    <g>
      <path class="cls-7-4-1" d="m87.36,215.38c-.21-.45-.56-.77-.99-.89-.17-.05-.35-.08-.53-.08-.41,0-.83.13-1.17.37-.32.22-.56.52-.67.84-.25-.71-.98-1.2-1.82-1.2-.18,0-.36.02-.55.07-.44.11-.79.42-1,.88-.16.36-.22.79-.15,1.17l.02.13c.07.34.26.74.57,1.19.27.4.82,1.03,1.26,1.47.79.8,1.56,1.41,1.57,1.42l.08.06.08-.06c.25-.18,1.11-.82,1.92-1.66.32-.34.78-.89.99-1.22.27-.42.45-.82.52-1.2l.02-.13c.07-.38.01-.79-.15-1.16Zm-4.01,3.81l.63-1.4h-.71l.51-1.56h1.15l-.67.98h1.07l-1.99,1.99Z"/>
      <g>
        <path class="cls-7-4-1" d="m85.08,223.05v-1.78h.68c.5,0,.84.36.84.89,0,.27-.08.49-.23.65-.15.15-.36.24-.6.24h-.68Zm.35-.29h.29c.34,0,.54-.22.54-.6s-.2-.6-.55-.6h-.28v1.2Z"/>
        <polygon class="cls-7-4-1" points="83.46 223.05 83.46 221.27 84.61 221.27 84.61 221.52 83.77 221.52 83.77 222.01 84.43 222.01 84.43 222.25 83.77 222.25 83.77 222.8 84.63 222.8 84.63 223.05 83.46 223.05"/>
        <path class="cls-7-4-1" d="m81.4,223.05l.57-1.78h.45l.57,1.78h-.31s-.15-.46-.15-.46h-.68s-.15.46-.15.46h-.31Zm.54-.71h.52l-.26-.82-.26.82Z"/>
      </g>
    </g>
    <path class="cls-6-4-1" d="m111.2,214.54l.64.64h-.77l-.83-.82h.5c.18,0,.35.07.47.19m-.22-5.63c.27,0,.51.23.51.5s-.23.5-.51.5-.5-.22-.5-.5.22-.5.5-.5m3.31,4.58l-.18-.47c-.08-.19-.26-.33-.48-.33h-.08v-4.05h-3.84v2.24h.5l.58-.72c.12-.13.29-.22.49-.22h1.23c.19,0,.36.11.45.27l.36.69s.03.06.03.11c0,.12-.11.23-.23.23-.1,0-.17-.04-.21-.12l-.33-.63h-.53l.41,1.02.12,1.3h1.05c.17,0,.3.11.36.25l.12.3h-1.81c-.13,0-.25-.1-.26-.23l-.12-1.14-.97,2.02c-.05.12-.18.19-.32.19h-.47l1.2-2.47-.37-.93-.35.43c-.09.12-.24.19-.4.19h-.52v2.92l.83.82h-2.45v-7.09h7.09v7.09h-.8l-.82-.82v-.87h.74Z"/>
    <path class="cls-6-4-1" d="m111.2,229.32l.64.64h-.77l-.83-.82h.5c.18,0,.35.07.47.19m-.22-5.63c.27,0,.51.23.51.5s-.23.5-.51.5-.5-.22-.5-.5.22-.5.5-.5m3.31,4.58l-.18-.47c-.08-.19-.26-.33-.48-.33h-.08v-4.05h-3.84v2.24h.5l.58-.72c.12-.13.29-.22.49-.22h1.23c.19,0,.36.11.45.27l.36.69s.03.06.03.11c0,.12-.11.23-.23.23-.1,0-.17-.04-.21-.12l-.33-.63h-.53l.41,1.02.12,1.3h1.05c.17,0,.3.11.36.25l.12.3h-1.81c-.13,0-.25-.1-.26-.23l-.12-1.14-.97,2.02c-.05.12-.18.19-.32.19h-.47l1.2-2.47-.37-.93-.35.43c-.09.12-.24.19-.4.19h-.52v2.92l.83.82h-2.45v-7.09h7.09v7.09h-.8l-.82-.82v-.87h.74Z"/>
    <path class="cls-6-4-1" d="m91.97,229.32l.64.64h-.77l-.83-.82h.5c.18,0,.35.07.47.19m-.22-5.63c.27,0,.51.23.51.5s-.23.5-.51.5-.5-.22-.5-.5.22-.5.5-.5m3.31,4.58l-.18-.47c-.08-.19-.26-.33-.48-.33h-.08v-4.05h-3.84v2.24h.5l.58-.72c.12-.13.29-.22.49-.22h1.23c.19,0,.36.11.45.27l.36.69s.03.06.03.11c0,.12-.11.23-.23.23-.1,0-.17-.04-.21-.12l-.33-.63h-.53l.41,1.02.12,1.3h1.05c.17,0,.3.11.36.25l.12.3h-1.81c-.13,0-.25-.1-.26-.23l-.12-1.14-.97,2.02c-.05.12-.18.19-.32.19h-.47l1.2-2.47-.37-.93-.35.43c-.09.12-.24.19-.4.19h-.52v2.92l.83.82h-2.45v-7.09h7.09v7.09h-.8l-.82-.82v-.87h.74Z"/>
    <path class="cls-6-4-1" d="m69.77,229.32l.64.64h-.77l-.83-.82h.5c.18,0,.35.07.47.19m-.22-5.63c.27,0,.51.23.51.5s-.23.5-.51.5-.5-.22-.5-.5.22-.5.5-.5m3.31,4.58l-.18-.47c-.08-.19-.26-.33-.48-.33h-.08v-4.05h-3.84v2.24h.5l.58-.72c.12-.13.29-.22.49-.22h1.23c.19,0,.36.11.45.27l.36.69s.03.06.03.11c0,.12-.11.23-.23.23-.1,0-.17-.04-.21-.12l-.33-.63h-.53l.41,1.02.12,1.3h1.05c.17,0,.3.11.36.25l.12.3h-1.81c-.13,0-.25-.1-.26-.23l-.12-1.14-.97,2.02c-.05.12-.18.19-.32.19h-.47l1.2-2.47-.37-.93-.35.43c-.09.12-.24.19-.4.19h-.52v2.92l.83.82h-2.45v-7.09h7.09v7.09h-.8l-.82-.82v-.87h.74Z"/>
    <path class="cls-6-4-1" d="m36.99,70.91l.64.64h-.77l-.83-.82h.5c.18,0,.35.07.47.19m-.22-5.63c.27,0,.51.23.51.5s-.23.5-.51.5-.5-.22-.5-.5.22-.5.5-.5m3.31,4.58l-.18-.47c-.08-.19-.26-.33-.48-.33h-.08v-4.05h-3.84v2.24h.5l.58-.72c.12-.13.29-.22.49-.22h1.23c.19,0,.36.11.45.27l.36.69s.03.06.03.11c0,.12-.11.23-.23.23-.1,0-.17-.04-.21-.12l-.33-.63h-.53l.41,1.02.12,1.3h1.05c.17,0,.3.11.36.25l.12.3h-1.81c-.13,0-.25-.1-.26-.23l-.12-1.14-.97,2.02c-.05.12-.18.19-.32.19h-.47l1.2-2.47-.37-.93-.35.43c-.09.12-.24.19-.4.19h-.52v2.92l.83.82h-2.45v-7.09h7.09v7.09h-.8l-.82-.82v-.87h.74Z"/>
    <path class="cls-6-4-1" d="m87.59,70.91l.64.64h-.77l-.83-.82h.5c.18,0,.35.07.47.19m-.22-5.63c.27,0,.51.23.51.5s-.23.5-.51.5-.5-.22-.5-.5.22-.5.5-.5m3.31,4.58l-.18-.47c-.08-.19-.26-.33-.48-.33h-.08v-4.05h-3.84v2.24h.5l.58-.72c.12-.13.29-.22.49-.22h1.23c.19,0,.36.11.45.27l.36.69s.03.06.03.11c0,.12-.11.23-.23.23-.1,0-.17-.04-.21-.12l-.33-.63h-.53l.41,1.02.12,1.3h1.05c.17,0,.3.11.36.25l.12.3h-1.81c-.13,0-.25-.1-.26-.23l-.12-1.14-.97,2.02c-.05.12-.18.19-.32.19h-.47l1.2-2.47-.37-.93-.35.43c-.09.12-.24.19-.4.19h-.52v2.92l.83.82h-2.45v-7.09h7.09v7.09h-.8l-.82-.82v-.87h.74Z"/>
    <rect class="cls-3-4-1" x="41.75" y="136.41" width="41.69" height="8.26"/>
    <polygon class="cls-4-4-1" points="27.2 216.61 41.66 216.61 41.66 196.15 32.72 196.15 32.72 181.68 2.77 181.68 2.77 231.55 27.2 231.55 27.2 216.61"/>
    <line class="cls-1-4-1" x1="87.91" y1="231.55" x2="71.93" y2="231.55"/>
    <line class="cls-1-4-1" x1="107.07" y1="231.55" x2="96.45" y2="231.55"/>
    <polyline class="cls-1-4-1" points="68.48 231.55 2.56 231.55 2.56 1.95 123.88 1.95 123.88 231.55 115.54 231.55"/>
    <rect class="cls-1-4-1" x="2.56" y="1.95" width="39.36" height="61.53"/>
    <rect class="cls-1-4-1" x="41.92" y="1.95" width="41.52" height="91.69"/>
    <rect class="cls-1-4-1" x="41.92" y="93.64" width="20.76" height="26.59"/>
    <rect class="cls-1-4-1" x="62.68" y="93.64" width="20.76" height="26.59"/>
    <polyline class="cls-1-4-1" points="41.92 121.63 41.92 120.23 83.44 120.23 83.44 144.67 41.92 144.67 41.92 128.28"/>
    <polyline class="cls-1-4-1" points="83.44 128.28 83.44 136.53 41.92 136.53 41.92 128.28 50.21 128.28 75.15 128.28 75.15 120.23"/>
    <polyline class="cls-1-4-1" points="50.21 136.53 50.21 134.91 50.21 129.97 50.21 128.28"/>
    <polyline class="cls-1-4-1" points="58.55 136.53 58.55 134.91 58.55 129.97 58.55 128.28"/>
    <polyline class="cls-1-4-1" points="66.81 136.53 66.81 134.91 66.81 129.97 66.81 128.28"/>
    <polyline class="cls-1-4-1" points="75.03 136.53 75.03 134.91 75.03 129.97 75.03 128.28"/>
    <rect class="cls-1-4-1" x="2.56" y="63.48" width="30.38" height="26.56"/>
    <rect class="cls-1-4-1" x="2.56" y="90.04" width="30.38" height="52.85"/>
    <rect class="cls-1-4-1" x="2.56" y="142.9" width="30.38" height="25.74"/>
    <rect class="cls-1-4-1" x="17.74" y="168.64" width="15.19" height="13.17"/>
    <rect class="cls-1-4-1" x="2.56" y="168.64" width="15.19" height="13.17"/>
    <rect class="cls-1-4-1" x="27.2" y="216.61" width="14.45" height="14.94"/>
    <polygon class="cls-1-4-1" points="65.88 220.41 65.88 231.55 41.66 231.55 41.66 196.15 44.5 196.15 44.5 209.28 56.65 209.28 56.65 220.41 65.88 220.41"/>
    <rect class="cls-1-4-1" x="83.44" y="1.95" width="40.44" height="21.89"/>
    <rect class="cls-1-4-1" x="83.44" y="23.84" width="40.44" height="39.64"/>
    <rect class="cls-1-4-1" x="92.62" y="63.48" width="31.27" height="26.65"/>
    <rect class="cls-1-4-1" x="92.62" y="90.13" width="31.27" height="13.36"/>
    <rect class="cls-1-4-1" x="92.62" y="103.49" width="31.27" height="13.26"/>
    <rect class="cls-1-4-1" x="92.62" y="116.75" width="31.27" height="26.36"/>
    <rect class="cls-1-4-1" x="92.62" y="143.12" width="31.27" height="13.21"/>
    <rect class="cls-1-4-1" x="92.62" y="156.32" width="31.27" height="19.56"/>
    <polygon class="cls-1-4-1" points="56.92 168.64 56.92 181.81 52.15 181.81 52.15 180.5 42.1 180.5 42.1 168.64 56.92 168.64"/>
    <polyline class="cls-1-4-1" points="60.34 181.81 56.92 181.81 56.92 168.64 69.04 168.64 69.04 181.81 65.48 181.81"/>
    <polyline class="cls-1-4-1" points="83.3 175.69 83.3 180.92 73.12 180.92 73.12 181.81 69.04 181.81 69.04 168.64 83.3 168.64 83.3 170.5"/>
    <polyline class="cls-1-4-1" points="54.28 150.92 59.46 150.92 59.46 168.64 44.83 168.64 44.83 150.92 51.04 150.92"/>
    <polyline class="cls-1-4-1" points="72.38 150.92 80.43 150.92 80.43 168.64 67.56 168.64 67.56 150.92 69.32 150.92"/>
    <polyline class="cls-1-4-1" points="74.1 220.4 56.65 220.4 56.65 209.28 79.28 209.28 79.28 220.4 77.95 220.4"/>
    <polyline class="cls-1-4-1" points="76.66 196.15 79.28 196.15 79.28 209.28 44.5 209.28 44.5 196.15 48.57 196.15"/>
    <line class="cls-1-4-1" x1="65.35" y1="196.15" x2="71.58" y2="196.15"/>
    <line class="cls-1-4-1" x1="53.34" y1="196.15" x2="60.53" y2="196.15"/>
    <line class="cls-1-4-1" x1="56.65" y1="209.28" x2="56.65" y2="196.15"/>
    <path class="cls-1-4-1" d="m69.01,209.12v-12.96,12.96Z"/>
    <polyline class="cls-1-4-1" points="32.93 181.81 32.93 196.15 41.66 196.15"/>
    <rect class="cls-1-4-1" x="90.43" y="182.9" width="4.37" height="1.18"/>
    <rect class="cls-1-4-1" x="90.43" y="185.78" width="4.37" height="1.18"/>
    <rect class="cls-1-4-1" x="90.43" y="188.65" width="4.37" height="1.18"/>
    <polygon class="cls-1-4-1" points="94.8 192.71 92.7 192.71 90.43 192.71 90.43 191.53 94.8 191.53 94.8 192.71"/>
    <polyline class="cls-1-4-1" points="79.28 196.15 92.62 196.15 92.62 192.71"/>
    <line class="cls-1-4-1" x1="92.62" y1="175.88" x2="92.62" y2="182.77"/>
    <polyline class="cls-1-4-1" points="107.07 231.55 98.93 231.55 98.93 215.41 107.07 215.41"/>
    <line class="cls-1-4-1" x1="79.28" y1="227.95" x2="79.28" y2="231.55"/>
    <line class="cls-1-4-1" x1="79.28" y1="220.4" x2="79.28" y2="223.48"/>
    <text class="cls-2-4-1" transform="translate(66.77 242.38)"><tspan x="0" y="0">キャンパスプラザ↓</tspan></text>
  </g>
  <g id="_40113" data-name="40113">
    <rect class="cls-4-4-1" x="92.62" y="116.75" width="31.27" height="26.15"/>
  </g>
</svg>