<?xml version="1.0" encoding="UTF-8"?>
<svg xmlns="http://www.w3.org/2000/svg" viewBox="0 0 126.55 235.22">
  <defs>
    <style>
      .cls-1-4-3 {
        fill: none;
      }

      .cls-1-4-3, .cls-2-4-3 {
        stroke: #231815;
        stroke-miterlimit: 10;
      }

      .cls-3-4-3 {
        glyph-orientation-vertical: 0deg;
        text-orientation: upright;
        writing-mode: tb;
      }

      .cls-4-4-3, .cls-5-4-3, .cls-6-4-3, .cls-7-4-3, .cls-8-4-3 {
        stroke-width: 0px;
      }

      .cls-4-4-3, .cls-2-4-3, .cls-9-4-3 {
        fill: #231815;
      }

      .cls-5-4-3 {
        opacity: .2;
      }

      .cls-5-4-3, .cls-7-4-3 {
        fill: #761923;
      }

      .cls-10-4-3 {
        letter-spacing: .25em;
      }

      .cls-6-4-3 {
        fill: #bc2021;
      }

      .cls-8-4-3 {
        fill: #2d3e69;
      }

      .cls-11-4-3 {
        fill: #fff;
      }

      .cls-11-4-3, .cls-9-4-3 {
        font-family: KozGoPr6N-Regular-90ms-RKSJ-H, 'Kozuka Gothic Pr6N';
        font-size: 7px;
      }
    </style>
  </defs>
  <g id="_4300" data-name="4300">
    <rect class="cls-7-4-3" x="84.1" y="1.66" width="40.46" height="73.36"/>
    <text class="cls-11-4-3" transform="translate(96.27 34.11)"><tspan x="0" y="0">E</tspan><tspan class="cls-10-4-3" x="3.67" y="0">S</tspan><tspan x="9.11" y="0">科</tspan><tspan class="cls-10-4-3" x="-9.62" y="12.25">第1</tspan><tspan x="4.74" y="12.25">実験室</tspan></text>
    <rect class="cls-7-4-3" x="3.29" y="1.66" width="39.38" height="73.36"/>
    <text class="cls-11-4-3" transform="translate(14.92 34.11)"><tspan x="0" y="0">E</tspan><tspan class="cls-10-4-3" x="3.67" y="0">S</tspan><tspan x="9.11" y="0">科</tspan><tspan class="cls-10-4-3" x="-9.62" y="12.25">第2</tspan><tspan x="4.74" y="12.25">実験室</tspan></text>
  </g>
  <g id="_4-3" data-name="4-3">
    <rect class="cls-4-4-3" x="42.67" y="1.6" width="41.54" height="86.74"/>
    <rect class="cls-5-4-3" x="42.56" y="88.34" width="20.77" height="41"/>
    <rect class="cls-5-4-3" x="63.33" y="88.34" width="20.77" height="41"/>
    <g>
      <path class="cls-4-4-3" d="m69.63,212.84c0,.14-.11.25-.25.25s-.25-.11-.25-.25.11-.25.25-.25.25.11.25.25Z"/>
      <polygon class="cls-4-4-3" points="70.86 215.5 69.97 215.5 69.97 215.82 69.18 215.82 69.18 216.13 68.41 216.13 68.41 216.44 67.64 216.44 67.64 216.76 66.87 216.76 66.87 217.07 66.38 217.07 66.38 217.47 67.32 217.47 67.32 217.15 68.08 217.15 68.08 216.83 68.85 216.83 68.85 216.52 69.62 216.52 69.62 216.21 70.39 216.21 70.39 215.9 70.86 215.9 70.86 215.5"/>
      <path class="cls-4-4-3" d="m69.68,214.36c-.18-.12-.36-.24-.39-.25.07-.31.12-.59.15-.76,0,0,.02-.15-.1-.18-.17-.04-.42.1-.69.3-.03.02-.08.06-.09.12-.01.06-.08.4-.11.54-.01.05.02.11.07.12.05.01.1-.02.12-.07.04-.12.11-.37.13-.39.01-.02.12-.11.12-.11l-.21,2.1c0,.06.05.11.11.12.07,0,.13-.04.14-.11,0,0,.14-.61.27-1.24l.23.11-.12.61c-.02.06.01.12.07.14.06.02.12-.01.14-.07,0,0,.21-.52.24-.61.03-.1.1-.25-.08-.37Z"/>
      <g>
        <path class="cls-4-4-3" d="m67.52,213.54c0,.14-.11.25-.25.25s-.25-.11-.25-.25.11-.25.25-.25.25.11.25.25Z"/>
        <path class="cls-4-4-3" d="m68.08,214.95s-.04-.27-.07-.44c0-.04-.02-.07-.05-.12-.1-.17-.23-.36-.36-.43-.2-.1-.4-.04-.49.12-.1.17-.23.45-.57.67-.05.03-.08.07-.06.12.02.05.07.08.12.06,0,0,.01,0,.02,0,.07-.03.38-.17.48-.34l-.08,1.89c0,.07.04.13.11.14.07,0,.13-.04.14-.11l.39-2.09s.12.1.16.19c.02.06.06.22.09.37,0,0,0,0,0,0,.01.06.06.09.11.08.05,0,.09-.06.08-.11Z"/>
        <path class="cls-4-4-3" d="m68.12,215.82l-.7-.56-.06.4.61.35c.05.04.13.03.17-.02.04-.05.03-.13-.02-.17Z"/>
      </g>
    </g>
    <g>
      <g>
        <path class="cls-4-4-3" d="m74.28,202.14c0,.12-.1.22-.22.22s-.22-.1-.22-.22.1-.22.22-.22.22.1.22.22Z"/>
        <path class="cls-4-4-3" d="m74.06,202.42c-.16,0-.53.02-.53.32v.74s.03.09.08.09c.05,0,.09-.03.09-.08l.04-.45.04,1.67c0,.06.05.11.11.11s.11-.05.11-.11l.05-1.02.05,1.02c0,.06.05.11.11.11s.11-.05.11-.11l.04-1.67.04.45s.04.09.09.08c.05,0,.09-.04.08-.09v-.74c0-.31-.37-.32-.53-.32Z"/>
      </g>
      <g>
        <path class="cls-4-4-3" d="m75.65,202.14c0,.12-.1.22-.22.22s-.22-.1-.22-.22.1-.22.22-.22.22.1.22.22Z"/>
        <path class="cls-4-4-3" d="m75.42,202.42c-.16,0-.53.02-.53.32v.74s.03.09.08.09c.05,0,.09-.03.09-.08l.04-.45.04,1.67c0,.06.05.11.11.11s.11-.05.11-.11l.05-1.02.05,1.02c0,.06.05.11.11.11s.11-.05.11-.11l.04-1.67.04.45s.04.09.09.08c.05,0,.09-.04.08-.09v-.74c0-.31-.37-.32-.53-.32Z"/>
      </g>
      <path class="cls-4-4-3" d="m76.21,204.98h-2.93c-.23,0-.41-.18-.41-.41v-3.14c0-.23.18-.41.41-.41h2.93c.23,0,.41.18.41.41v3.14c0,.23-.18.41-.41.41Zm-2.93-3.7c-.08,0-.15.07-.15.15v3.14c0,.08.07.15.15.15h2.93c.08,0,.15-.07.15-.15v-3.14c0-.08-.07-.15-.15-.15h-2.93Z"/>
      <path class="cls-4-4-3" d="m76.06,200.19l-.5-.5h0s-.08-.08-.08-.08l-.08.08h0s-.5.5-.5.5c-.04.04-.04.12,0,.16.04.04.12.04.16,0l.31-.31v.69c0,.06.05.11.11.11s.11-.05.11-.11v-.69s.31.31.31.31c.02.02.05.03.08.03s.06-.01.08-.03c.04-.04.04-.12,0-.16Z"/>
      <path class="cls-4-4-3" d="m74.64,200.16s-.12-.04-.16,0l-.31.31v-.69c0-.06-.05-.11-.11-.11s-.11.05-.11.11v.69s-.31-.31-.31-.31c-.04-.04-.12-.04-.16,0-.04.04-.04.12,0,.16l.5.5h0s.08.08.08.08l.08-.08h0s.5-.5.5-.5c.04-.04.04-.12,0-.16Z"/>
    </g>
    <g>
      <g>
        <path class="cls-4-4-3" d="m63.26,202.14c0,.12-.1.22-.22.22s-.22-.1-.22-.22.1-.22.22-.22.22.1.22.22Z"/>
        <path class="cls-4-4-3" d="m63.04,202.42c-.16,0-.53.02-.53.32v.74s.03.09.08.09c.05,0,.09-.03.09-.08l.04-.45.04,1.67c0,.06.05.11.11.11s.11-.05.11-.11l.05-1.02.05,1.02c0,.06.05.11.11.11s.11-.05.11-.11l.04-1.67.04.45s.04.09.09.08c.05,0,.09-.04.08-.09v-.74c0-.31-.37-.32-.53-.32Z"/>
      </g>
      <g>
        <path class="cls-4-4-3" d="m64.63,202.14c0,.12-.1.22-.22.22s-.22-.1-.22-.22.1-.22.22-.22.22.1.22.22Z"/>
        <path class="cls-4-4-3" d="m64.4,202.42c-.16,0-.53.02-.53.32v.74s.03.09.08.09c.05,0,.09-.03.09-.08l.04-.45.04,1.67c0,.06.05.11.11.11s.11-.05.11-.11l.05-1.02.05,1.02c0,.06.05.11.11.11s.11-.05.11-.11l.04-1.67.04.45s.04.09.09.08c.05,0,.09-.04.08-.09v-.74c0-.31-.37-.32-.53-.32Z"/>
      </g>
      <path class="cls-4-4-3" d="m65.19,204.98h-2.93c-.23,0-.41-.18-.41-.41v-3.14c0-.23.18-.41.41-.41h2.93c.23,0,.41.18.41.41v3.14c0,.23-.18.41-.41.41Zm-2.93-3.7c-.08,0-.15.07-.15.15v3.14c0,.08.07.15.15.15h2.93c.08,0,.15-.07.15-.15v-3.14c0-.08-.07-.15-.15-.15h-2.93Z"/>
      <path class="cls-4-4-3" d="m65.04,200.19l-.5-.5h0s-.08-.08-.08-.08l-.08.08h0s-.5.5-.5.5c-.04.04-.04.12,0,.16.04.04.12.04.16,0l.31-.31v.69c0,.06.05.11.11.11s.11-.05.11-.11v-.69s.31.31.31.31c.02.02.05.03.08.03s.06-.01.08-.03c.04-.04.04-.12,0-.16Z"/>
      <path class="cls-4-4-3" d="m63.62,200.16s-.12-.04-.16,0l-.31.31v-.69c0-.06-.05-.11-.11-.11s-.11.05-.11.11v.69s-.31-.31-.31-.31c-.04-.04-.12-.04-.16,0-.04.04-.04.12,0,.16l.5.5h0s.08.08.08.08l.08-.08h0s.5-.5.5-.5c.04-.04.04-.12,0-.16Z"/>
    </g>
    <g>
      <g>
        <path class="cls-4-4-3" d="m51.24,202.14c0,.12-.1.22-.22.22s-.22-.1-.22-.22.1-.22.22-.22.22.1.22.22Z"/>
        <path class="cls-4-4-3" d="m51.02,202.42c-.16,0-.53.02-.53.32v.74s.03.09.08.09c.05,0,.09-.03.09-.08l.04-.45.04,1.67c0,.06.05.11.11.11s.11-.05.11-.11l.05-1.02.05,1.02c0,.06.05.11.11.11s.11-.05.11-.11l.04-1.67.04.45s.04.09.09.08c.05,0,.09-.04.08-.09v-.74c0-.31-.37-.32-.53-.32Z"/>
      </g>
      <g>
        <path class="cls-4-4-3" d="m52.6,202.14c0,.12-.1.22-.22.22s-.22-.1-.22-.22.1-.22.22-.22.22.1.22.22Z"/>
        <path class="cls-4-4-3" d="m52.38,202.42c-.16,0-.53.02-.53.32v.74s.03.09.08.09c.05,0,.09-.03.09-.08l.04-.45.04,1.67c0,.06.05.11.11.11s.11-.05.11-.11l.05-1.02.05,1.02c0,.06.05.11.11.11s.11-.05.11-.11l.04-1.67.04.45s.04.09.09.08c.05,0,.09-.04.08-.09v-.74c0-.31-.37-.32-.53-.32Z"/>
      </g>
      <path class="cls-4-4-3" d="m53.16,204.98h-2.93c-.23,0-.41-.18-.41-.41v-3.14c0-.23.18-.41.41-.41h2.93c.23,0,.41.18.41.41v3.14c0,.23-.18.41-.41.41Zm-2.93-3.7c-.08,0-.15.07-.15.15v3.14c0,.08.07.15.15.15h2.93c.08,0,.15-.07.15-.15v-3.14c0-.08-.07-.15-.15-.15h-2.93Z"/>
      <path class="cls-4-4-3" d="m53.02,200.19l-.5-.5h0s-.08-.08-.08-.08l-.08.08h0s-.5.5-.5.5c-.04.04-.04.12,0,.16.04.04.12.04.16,0l.31-.31v.69c0,.06.05.11.11.11s.11-.05.11-.11v-.69s.31.31.31.31c.02.02.05.03.08.03s.06-.01.08-.03c.04-.04.04-.12,0-.16Z"/>
      <path class="cls-4-4-3" d="m51.59,200.16s-.12-.04-.16,0l-.31.31v-.69c0-.06-.05-.11-.11-.11s-.11.05-.11.11v.69s-.31-.31-.31-.31c-.04-.04-.12-.04-.16,0-.04.04-.04.12,0,.16l.5.5h0s.08.08.08.08l.08-.08h0s.5-.5.5-.5c.04-.04.04-.12,0-.16Z"/>
    </g>
    <rect class="cls-2-4-3" x="42.56" y="136.11" width="41.54" height="8.27"/>
    <rect class="cls-5-4-3" x="3.18" y="88.34" width="30.39" height="28.11"/>
    <rect class="cls-5-4-3" x="3.18" y="116.76" width="30.39" height="28.32"/>
    <rect class="cls-5-4-3" x="93.28" y="220.14" width="31.28" height="11"/>
    <rect class="cls-5-4-3" x="93.28" y="116.53" width="31.28" height="79.25"/>
    <rect class="cls-5-4-3" x="93.28" y="88.34" width="31.28" height="28.42"/>
    <rect class="cls-5-4-3" x="3.29" y="74.96" width="30.39" height="13.38"/>
    <rect class="cls-5-4-3" x="93.28" y="195.78" width="19.99" height="24.37"/>
    <rect class="cls-5-4-3" x="113.27" y="207.97" width="11.29" height="12.24"/>
    <rect class="cls-5-4-3" x="113.27" y="195.52" width="11.29" height="12.24"/>
    <rect class="cls-5-4-3" x="93.28" y="74.96" width="31.28" height="13.38"/>
    <rect class="cls-5-4-3" x="42.56" y="129.34" width="16.78" height="6.77"/>
    <rect class="cls-5-4-3" x="59.34" y="129.34" width="24.62" height="6.77"/>
    <g>
      <rect class="cls-5-4-3" x="3.29" y="197.6" width="39.01" height="33.7"/>
      <rect class="cls-5-4-3" x="42.3" y="220.14" width="29.94" height="11"/>
    </g>
    <line class="cls-1-4-3" x1="88.58" y1="231.29" x2="72.58" y2="231.29"/>
    <line class="cls-1-4-3" x1="116.22" y1="231.29" x2="69.14" y2="231.29"/>
    <polyline class="cls-1-4-3" points="116.22 231.29 124.56 231.29 124.56 1.6 3.18 1.6 3.18 231.29 27.67 231.29 27.67 235.22"/>
    <polyline class="cls-1-4-3" points="69.14 231.29 40.54 231.29 40.54 235.22"/>
    <rect class="cls-1-4-3" x="3.11" y="1.6" width="39.38" height="73.36"/>
    <rect class="cls-1-4-3" x="42.56" y="1.6" width="41.54" height="86.74"/>
    <rect class="cls-1-4-3" x="42.56" y="88.34" width="20.77" height="41"/>
    <rect class="cls-1-4-3" x="63.25" y="88.34" width="20.85" height="41"/>
    <polygon class="cls-2-4-3" points="42.41 220.14 42.3 195.88 45.14 195.88 45.14 209.01 57.3 209.01 57.3 220.15 42.41 220.14"/>
    <line class="cls-1-4-3" x1="72.24" y1="220.15" x2="72.24" y2="231.29"/>
    <rect class="cls-1-4-3" x="93.28" y="74.96" width="31.28" height="13.38"/>
    <rect class="cls-1-4-3" x="93.28" y="88.34" width="31.28" height="28.19"/>
    <polyline class="cls-1-4-3" points="57.3 220.14 57.3 209.01 79.94 209.01 79.94 220.14 78.61 220.14"/>
    <line class="cls-1-4-3" x1="74.76" y1="220.14" x2="42.3" y2="220.14"/>
    <polyline class="cls-1-4-3" points="77.32 195.88 79.94 195.88 79.94 209.01 45.14 209.01 45.14 195.88 49.22 195.88"/>
    <line class="cls-1-4-3" x1="66" y1="195.88" x2="72.24" y2="195.88"/>
    <line class="cls-1-4-3" x1="53.98" y1="195.88" x2="61.18" y2="195.88"/>
    <line class="cls-1-4-3" x1="57.3" y1="209.01" x2="57.3" y2="195.88"/>
    <path class="cls-1-4-3" d="m69.66,208.85v-12.97,12.97Z"/>
    <rect class="cls-1-4-3" x="42.56" y="129.34" width="41.54" height="6.77"/>
    <rect class="cls-2-4-3" x="79.94" y="195.88" width="3.33" height="24.27"/>
    <line class="cls-1-4-3" x1="33.57" y1="197.6" x2="3.4" y2="197.6"/>
    <line class="cls-1-4-3" x1="33.58" y1="116.53" x2="33.58" y2="201.92"/>
    <rect class="cls-1-4-3" x="38.7" y="203.51" width="4.37" height="1.18" transform="translate(244.99 163.21) rotate(90)"/>
    <rect class="cls-1-4-3" x="35.83" y="203.51" width="4.37" height="1.18" transform="translate(242.11 166.09) rotate(90)"/>
    <polygon class="cls-1-4-3" points="34.54 206.29 34.54 204.19 34.54 201.92 35.73 201.92 35.73 206.29 34.54 206.29"/>
    <line class="cls-1-4-3" x1="3.39" y1="145.08" x2="33.58" y2="145.08"/>
    <polyline class="cls-1-4-3" points="124.56 74.96 84.1 74.96 84.1 1.6 124.56 1.6 124.56 74.96"/>
    <rect class="cls-1-4-3" x="93.28" y="195.88" width="31.28" height="24.26"/>
    <rect class="cls-1-4-3" x="93.28" y="116.53" width="31.28" height="79.35"/>
    <rect class="cls-1-4-3" x="93.28" y="220.14" width="31.28" height="11.15"/>
    <line class="cls-1-4-3" x1="113.27" y1="195.88" x2="113.27" y2="220.15"/>
    <line class="cls-1-4-3" x1="124.56" y1="208.02" x2="113.27" y2="208.02"/>
    <text class="cls-3-4-3"/>
    <text/>
    <line class="cls-1-4-3" x1="59.34" y1="129.34" x2="59.34" y2="136.11"/>
    <g>
      <path class="cls-8-4-3" d="m52.02,156.84c0,.27-.21.48-.48.48s-.48-.21-.48-.48.21-.48.48-.48.48.21.48.48Z"/>
      <path class="cls-8-4-3" d="m51.54,157.47c-.34,0-1.14.03-1.14.69v1.58c0,.1.07.19.18.2.1,0,.19-.07.2-.18l.09-.96.1,3.57c0,.13.11.24.24.24s.24-.11.24-.24l.1-2.2.1,2.2c0,.13.11.24.24.24s.24-.11.24-.24l.1-3.57.09.96c0,.1.09.18.2.18s.18-.09.18-.2v-1.58c0-.66-.8-.69-1.14-.69Z"/>
    </g>
    <g>
      <path class="cls-6-4-3" d="m76.09,157.32c.26,0,.48-.21.48-.48s-.21-.48-.48-.48-.48.21-.48.48.21.48.48.48Z"/>
      <path class="cls-6-4-3" d="m77.47,159.62l-.38-1.39c-.16-.64-.66-.74-1-.74s-.84.1-1,.74l-.38,1.39c-.04.1.01.2.11.24.1.04.2-.01.24-.11l.38-1.06.09.49-.47,1.48h.69s.04.46.04.46l.06,1.25c0,.13.11.24.24.24s.24-.11.24-.24l.06-1.25.04-.46h.69s-.47-1.48-.47-1.48l.09-.49.38,1.06c.04.1.14.14.24.11.1-.04.14-.14.11-.24Z"/>
    </g>
    <polyline class="cls-1-4-3" points="53.54 150.63 59.47 150.63 59.47 168.36 42.75 168.36 42.75 150.63 49.84 150.63"/>
    <polyline class="cls-1-4-3" points="73.08 150.63 83.96 150.63 83.96 168.36 67.24 168.36 67.24 150.63 69.53 150.63"/>
    <line class="cls-1-4-3" x1="60.11" y1="150.63" x2="64.89" y2="150.63"/>
    <g>
      <g>
        <path class="cls-4-4-3" d="m63.22,174.41c0,.12-.1.22-.22.22s-.22-.1-.22-.22.1-.22.22-.22.22.1.22.22Z"/>
        <path class="cls-4-4-3" d="m63,174.69c-.16,0-.53.02-.53.32v.74s.03.09.08.09c.05,0,.09-.03.09-.08l.04-.45.04,1.67c0,.06.05.11.11.11s.11-.05.11-.11l.05-1.02.05,1.02c0,.06.05.11.11.11s.11-.05.11-.11l.04-1.67.04.45s.04.09.09.08c.05,0,.09-.04.08-.09v-.74c0-.31-.37-.32-.53-.32Z"/>
      </g>
      <g>
        <path class="cls-4-4-3" d="m64.58,174.41c0,.12-.1.22-.22.22s-.22-.1-.22-.22.1-.22.22-.22.22.1.22.22Z"/>
        <path class="cls-4-4-3" d="m64.36,174.69c-.16,0-.53.02-.53.32v.74s.03.09.08.09c.05,0,.09-.03.09-.08l.04-.45.04,1.67c0,.06.05.11.11.11s.11-.05.11-.11l.05-1.02.05,1.02c0,.06.05.11.11.11s.11-.05.11-.11l.04-1.67.04.45s.04.09.09.08c.05,0,.09-.04.08-.09v-.74c0-.31-.37-.32-.53-.32Z"/>
      </g>
      <path class="cls-4-4-3" d="m65.14,177.25h-2.93c-.23,0-.41-.18-.41-.41v-3.14c0-.23.18-.41.41-.41h2.93c.23,0,.41.18.41.41v3.14c0,.23-.18.41-.41.41Zm-2.93-3.7c-.08,0-.15.07-.15.15v3.14c0,.08.07.15.15.15h2.93c.08,0,.15-.07.15-.15v-3.14c0-.08-.07-.15-.15-.15h-2.93Z"/>
      <path class="cls-4-4-3" d="m65,172.46l-.5-.5h0s-.08-.08-.08-.08l-.08.08h0s-.5.5-.5.5c-.04.04-.04.12,0,.16.04.04.12.04.16,0l.31-.31v.69c0,.06.05.11.11.11s.11-.05.11-.11v-.69s.31.31.31.31c.02.02.05.03.08.03s.06-.01.08-.03c.04-.04.04-.12,0-.16Z"/>
      <path class="cls-4-4-3" d="m63.57,172.43s-.12-.04-.16,0l-.31.31v-.69c0-.06-.05-.11-.11-.11s-.11.05-.11.11v.69s-.31-.31-.31-.31c-.04-.04-.12-.04-.16,0-.04.04-.04.12,0,.16l.5.5h0s.08.08.08.08l.08-.08h0s.5-.5.5-.5c.04-.04.04-.12,0-.16Z"/>
    </g>
    <rect class="cls-2-4-3" x="42.75" y="168.36" width="14.82" height="13.18"/>
    <polyline class="cls-1-4-3" points="60.99 181.54 57.57 181.54 57.57 168.36 69.7 168.36 69.7 181.54 66.13 181.54"/>
    <polyline class="cls-1-4-3" points="83.96 180.15 83.96 181.54 69.7 181.54 69.7 168.36 83.96 168.36 83.96 174.95"/>
    <text class="cls-9-4-3" transform="translate(15.87 215.33)"><tspan x="0" y="0">学生</tspan><tspan x="-7" y="7">ラウンジ</tspan></text>
    <line class="cls-1-4-3" x1="42.41" y1="220.14" x2="42.41" y2="231.29"/>
    <polyline class="cls-1-4-3" points="33.68 74.96 33.68 88.34 33.68 116.44"/>
    <line class="cls-1-4-3" x1="3.18" y1="88.34" x2="33.58" y2="88.34"/>
    <rect class="cls-5-4-3" x="3.19" y="145.08" width="30.39" height="52.52"/>
  </g>
</svg>