<?xml version="1.0" encoding="UTF-8"?>
<svg xmlns="http://www.w3.org/2000/svg" viewBox="0 0 128.04 237.41">
  <defs>
    <style>
      .cls-1-4-4 {
        fill: none;
      }

      .cls-1-4-4, .cls-2-4-4 {
        stroke: #231815;
        stroke-miterlimit: 10;
      }

      .cls-3-4-4, .cls-4-4-4, .cls-5-4-4, .cls-6-4-4, .cls-7-4-4, .cls-8-4-4 {
        stroke-width: 0px;
      }

      .cls-3-4-4, .cls-2-4-4 {
        fill: #231815;
      }

      .cls-4-4-4 {
        opacity: .2;
      }

      .cls-4-4-4, .cls-6-4-4 {
        fill: #761923;
      }

      .cls-5-4-4 {
        fill: #bc2021;
      }

      .cls-7-4-4 {
        fill: #008342;
      }

      .cls-8-4-4 {
        fill: #2d3e69;
      }

      .cls-9-4-4 {
        fill: #fff;
        font-family: KozGoPr6N-Regular-90ms-RKSJ-H, 'Kozuka Gothic Pr6N';
        font-size: 7px;
      }
    </style>
  </defs>
  <g id="_40409" data-name="40409">
    <polygon class="cls-4-4-4" points="83.78 3.29 83.78 76.67 92.96 76.67 92.96 114.9 124.54 114.9 124.54 3.29 83.78 3.29"/>
  </g>
  <g id="_4405" data-name="4405">
    <rect class="cls-6-4-4" x="2.86" y="3.48" width="39.4" height="111.61"/>
    <text class="cls-9-4-4" transform="translate(8.56 56.68)"><tspan x="0" y="0">４４０５</tspan></text>
  </g>
  <g id="_4-4" data-name="4-4">
    <rect class="cls-2-4-4" x="42.26" y="3.42" width="41.55" height="141.62"/>
    <g>
      <path class="cls-3-4-4" d="m70.09,213.12c0,.24-.19.43-.43.43s-.43-.19-.43-.43.19-.43.43-.43.43.19.43.43Z"/>
      <polygon class="cls-3-4-4" points="72.22 217.76 70.68 217.76 70.68 218.31 69.3 218.31 69.3 218.85 67.96 218.85 67.96 219.4 66.62 219.4 66.62 219.94 65.28 219.94 65.28 220.49 64.43 220.49 64.43 221.19 66.06 221.19 66.06 220.62 67.39 220.62 67.39 220.08 68.73 220.08 68.73 219.53 70.06 219.53 70.06 218.98 71.4 218.98 71.4 218.46 72.22 218.46 72.22 217.76"/>
      <path class="cls-3-4-4" d="m70.17,215.77c-.32-.21-.63-.41-.67-.44.11-.54.21-1.03.26-1.33,0,0,.04-.27-.17-.31-.3-.06-.72.17-1.2.53-.05.04-.13.1-.16.21-.03.1-.14.69-.2.94-.02.09.03.19.13.21.09.02.18-.03.21-.13.07-.21.2-.65.22-.68.02-.04.21-.19.21-.19l-.36,3.66c0,.11.09.19.19.21.12.01.22-.08.24-.2,0,0,.24-1.06.47-2.15l.41.19-.21,1.06c-.03.1.02.21.12.25.1.03.21-.02.25-.12,0,0,.37-.9.42-1.06.05-.17.18-.43-.15-.64Z"/>
      <g>
        <path class="cls-3-4-4" d="m66.41,214.34c0,.24-.19.43-.43.43s-.43-.19-.43-.43.19-.43.43-.43.43.19.43.43Z"/>
        <path class="cls-3-4-4" d="m67.38,216.8s-.06-.47-.12-.76c-.02-.07-.04-.13-.09-.22-.17-.29-.41-.63-.63-.75-.35-.18-.69-.08-.86.2-.17.3-.39.78-1,1.18-.08.05-.14.12-.11.21.03.09.12.14.21.11.01,0,.02,0,.03-.01.13-.06.65-.3.83-.59l-.15,3.28c-.01.12.07.23.19.25.12.01.22-.08.24-.2l.68-3.63s.22.18.27.33c.04.1.11.39.16.65,0,0,0,0,0,0,.02.1.1.16.19.15.09-.01.16-.1.15-.19Z"/>
        <path class="cls-3-4-4" d="m67.46,218.3l-1.21-.98-.1.7,1.06.61c.09.07.22.05.29-.04.07-.09.05-.22-.04-.29Z"/>
      </g>
    </g>
    <g>
      <g>
        <path class="cls-3-4-4" d="m73.75,203.95c0,.2-.16.35-.35.35s-.35-.16-.35-.35.16-.35.35-.35.35.16.35.35Z"/>
        <path class="cls-3-4-4" d="m73.39,204.39c-.25,0-.84.02-.84.51v1.17c0,.08.06.14.13.14.08,0,.14-.06.14-.13l.07-.71.07,2.64c0,.1.08.18.18.18s.18-.08.18-.18l.07-1.62.07,1.62c0,.1.08.18.18.18s.18-.08.18-.18l.07-2.64.07.71c0,.08.07.13.14.13.08,0,.13-.07.13-.14v-1.17c0-.49-.59-.51-.84-.51Z"/>
      </g>
      <g>
        <path class="cls-3-4-4" d="m75.91,203.95c0,.2-.16.35-.35.35s-.35-.16-.35-.35.16-.35.35-.35.35.16.35.35Z"/>
        <path class="cls-3-4-4" d="m75.55,204.39c-.25,0-.84.02-.84.51v1.17c0,.08.06.14.13.14.08,0,.14-.06.14-.13l.07-.71.07,2.64c0,.1.08.18.18.18s.18-.08.18-.18l.07-1.62.07,1.62c0,.1.08.18.18.18s.18-.08.18-.18l.07-2.64.07.71c0,.08.07.13.14.13.08,0,.13-.07.13-.14v-1.17c0-.49-.59-.51-.84-.51Z"/>
      </g>
      <path class="cls-3-4-4" d="m76.79,208.45h-4.64c-.36,0-.65-.29-.65-.65v-4.97c0-.36.29-.65.65-.65h4.64c.36,0,.65.29.65.65v4.97c0,.36-.29.65-.65.65Zm-4.64-5.86c-.13,0-.24.11-.24.24v4.97c0,.13.11.24.24.24h4.64c.13,0,.24-.11.24-.24v-4.97c0-.13-.11-.24-.24-.24h-4.64Z"/>
      <path class="cls-3-4-4" d="m76.56,200.87l-.79-.79h0s-.13-.13-.13-.13l-.13.13h0s-.79.79-.79.79c-.07.07-.07.18,0,.25.07.07.18.07.25,0l.49-.49v1.09c0,.1.08.18.18.18s.18-.08.18-.18v-1.09s.49.49.49.49c.04.04.08.05.13.05s.09-.02.13-.05c.07-.07.07-.18,0-.25Z"/>
      <path class="cls-3-4-4" d="m74.31,200.81c-.07-.07-.18-.07-.25,0l-.49.49v-1.09c0-.1-.08-.18-.18-.18s-.18.08-.18.18v1.09s-.49-.49-.49-.49c-.07-.07-.18-.07-.25,0-.07.07-.07.18,0,.25l.79.79h0s.13.13.13.13l.13-.13h0s.79-.79.79-.79c.07-.07.07-.18,0-.25Z"/>
    </g>
    <g>
      <g>
        <path class="cls-3-4-4" d="m62.99,203.95c0,.2-.16.35-.35.35s-.35-.16-.35-.35.16-.35.35-.35.35.16.35.35Z"/>
        <path class="cls-3-4-4" d="m62.64,204.39c-.25,0-.84.02-.84.51v1.17c0,.08.06.14.13.14.08,0,.14-.06.14-.13l.07-.71.07,2.64c0,.1.08.18.18.18s.18-.08.18-.18l.07-1.62.07,1.62c0,.1.08.18.18.18s.18-.08.18-.18l.07-2.64.07.71c0,.08.07.13.14.13.08,0,.13-.07.13-.14v-1.17c0-.49-.59-.51-.84-.51Z"/>
      </g>
      <g>
        <path class="cls-3-4-4" d="m65.15,203.95c0,.2-.16.35-.35.35s-.35-.16-.35-.35.16-.35.35-.35.35.16.35.35Z"/>
        <path class="cls-3-4-4" d="m64.8,204.39c-.25,0-.84.02-.84.51v1.17c0,.08.06.14.13.14.08,0,.14-.06.14-.13l.07-.71.07,2.64c0,.1.08.18.18.18s.18-.08.18-.18l.07-1.62.07,1.62c0,.1.08.18.18.18s.18-.08.18-.18l.07-2.64.07.71c0,.08.07.13.14.13.08,0,.13-.07.13-.14v-1.17c0-.49-.59-.51-.84-.51Z"/>
      </g>
      <path class="cls-3-4-4" d="m66.04,208.45h-4.64c-.36,0-.65-.29-.65-.65v-4.97c0-.36.29-.65.65-.65h4.64c.36,0,.65.29.65.65v4.97c0,.36-.29.65-.65.65Zm-4.64-5.86c-.13,0-.24.11-.24.24v4.97c0,.13.11.24.24.24h4.64c.13,0,.24-.11.24-.24v-4.97c0-.13-.11-.24-.24-.24h-4.64Z"/>
      <path class="cls-3-4-4" d="m65.81,200.87l-.79-.79h0s-.13-.13-.13-.13l-.13.13h0s-.79.79-.79.79c-.07.07-.07.18,0,.25.07.07.18.07.25,0l.49-.49v1.09c0,.1.08.18.18.18s.18-.08.18-.18v-1.09s.49.49.49.49c.04.04.08.05.13.05s.09-.02.13-.05c.07-.07.07-.18,0-.25Z"/>
      <path class="cls-3-4-4" d="m63.55,200.81c-.07-.07-.18-.07-.25,0l-.49.49v-1.09c0-.1-.08-.18-.18-.18s-.18.08-.18.18v1.09s-.49-.49-.49-.49c-.07-.07-.18-.07-.25,0-.07.07-.07.18,0,.25l.79.79h0s.13.13.13.13l.13-.13h0s.79-.79.79-.79c.07-.07.07-.18,0-.25Z"/>
    </g>
    <g>
      <g>
        <path class="cls-3-4-4" d="m50.43,203.95c0,.2-.16.35-.35.35s-.35-.16-.35-.35.16-.35.35-.35.35.16.35.35Z"/>
        <path class="cls-3-4-4" d="m50.08,204.39c-.25,0-.84.02-.84.51v1.17c0,.08.06.14.13.14.08,0,.14-.06.14-.13l.07-.71.07,2.64c0,.1.08.18.18.18s.18-.08.18-.18l.07-1.62.07,1.62c0,.1.08.18.18.18s.18-.08.18-.18l.07-2.64.07.71c0,.08.07.13.14.13.08,0,.13-.07.13-.14v-1.17c0-.49-.59-.51-.84-.51Z"/>
      </g>
      <g>
        <path class="cls-3-4-4" d="m52.6,203.95c0,.2-.16.35-.35.35s-.35-.16-.35-.35.16-.35.35-.35.35.16.35.35Z"/>
        <path class="cls-3-4-4" d="m52.24,204.39c-.25,0-.84.02-.84.51v1.17c0,.08.06.14.13.14.08,0,.14-.06.14-.13l.07-.71.07,2.64c0,.1.08.18.18.18s.18-.08.18-.18l.07-1.62.07,1.62c0,.1.08.18.18.18s.18-.08.18-.18l.07-2.64.07.71c0,.08.07.13.14.13.08,0,.13-.07.13-.14v-1.17c0-.49-.59-.51-.84-.51Z"/>
      </g>
      <path class="cls-3-4-4" d="m53.48,208.45h-4.64c-.36,0-.65-.29-.65-.65v-4.97c0-.36.29-.65.65-.65h4.64c.36,0,.65.29.65.65v4.97c0,.36-.29.65-.65.65Zm-4.64-5.86c-.13,0-.24.11-.24.24v4.97c0,.13.11.24.24.24h4.64c.13,0,.24-.11.24-.24v-4.97c0-.13-.11-.24-.24-.24h-4.64Z"/>
      <path class="cls-3-4-4" d="m53.25,200.87l-.79-.79h0s-.13-.13-.13-.13l-.13.13h0s-.79.79-.79.79c-.07.07-.07.18,0,.25.07.07.18.07.25,0l.49-.49v1.09c0,.1.08.18.18.18s.18-.08.18-.18v-1.09s.49.49.49.49c.04.04.08.05.13.05s.09-.02.13-.05c.07-.07.07-.18,0-.25Z"/>
      <path class="cls-3-4-4" d="m50.99,200.81c-.07-.07-.18-.07-.25,0l-.49.49v-1.09c0-.1-.08-.18-.18-.18s-.18.08-.18.18v1.09s-.49-.49-.49-.49c-.07-.07-.18-.07-.25,0-.07.07-.07.18,0,.25l.79.79h0s.13.13.13.13l.13-.13h0s.79-.79.79-.79c.07-.07.07-.18,0-.25Z"/>
    </g>
    <g>
      <g>
        <path class="cls-3-4-4" d="m62.92,176.3c0,.12-.1.22-.22.22s-.22-.1-.22-.22.1-.22.22-.22.22.1.22.22Z"/>
        <path class="cls-3-4-4" d="m62.7,176.58c-.16,0-.53.02-.53.32v.74s.03.09.08.09c.05,0,.09-.03.09-.08l.04-.45.04,1.67c0,.06.05.11.11.11s.11-.05.11-.11l.05-1.02.05,1.02c0,.06.05.11.11.11s.11-.05.11-.11l.04-1.67.04.45s.04.09.09.08c.05,0,.09-.04.08-.09v-.74c0-.31-.37-.32-.53-.32Z"/>
      </g>
      <g>
        <path class="cls-3-4-4" d="m64.29,176.3c0,.12-.1.22-.22.22s-.22-.1-.22-.22.1-.22.22-.22.22.1.22.22Z"/>
        <path class="cls-3-4-4" d="m64.06,176.58c-.16,0-.53.02-.53.32v.74s.03.09.08.09c.05,0,.09-.03.09-.08l.04-.45.04,1.67c0,.06.05.11.11.11s.11-.05.11-.11l.05-1.02.05,1.02c0,.06.05.11.11.11s.11-.05.11-.11l.04-1.67.04.45s.04.09.09.08c.05,0,.09-.04.08-.09v-.74c0-.31-.37-.32-.53-.32Z"/>
      </g>
      <path class="cls-3-4-4" d="m64.85,179.14h-2.93c-.23,0-.41-.18-.41-.41v-3.14c0-.23.18-.41.41-.41h2.93c.23,0,.41.18.41.41v3.14c0,.23-.18.41-.41.41Zm-2.93-3.7c-.08,0-.15.07-.15.15v3.14c0,.08.07.15.15.15h2.93c.08,0,.15-.07.15-.15v-3.14c0-.08-.07-.15-.15-.15h-2.93Z"/>
      <path class="cls-3-4-4" d="m64.7,174.35l-.5-.5h0s-.08-.08-.08-.08l-.08.08h0s-.5.5-.5.5c-.04.04-.04.12,0,.16.04.04.12.04.16,0l.31-.31v.69c0,.06.05.11.11.11s.11-.05.11-.11v-.69s.31.31.31.31c.02.02.05.03.08.03s.06-.01.08-.03c.04-.04.04-.12,0-.16Z"/>
      <path class="cls-3-4-4" d="m63.27,174.32s-.12-.04-.16,0l-.31.31v-.69c0-.06-.05-.11-.11-.11s-.11.05-.11.11v.69s-.31-.31-.31-.31c-.04-.04-.12-.04-.16,0-.04.04-.04.12,0,.16l.5.5h0s.08.08.08.08l.08-.08h0s.5-.5.5-.5c.04-.04.04-.12,0-.16Z"/>
    </g>
    <rect class="cls-4-4-4" x="2.97" y="199.5" width="14.99" height="13.45"/>
    <rect class="cls-4-4-4" x="2.76" y="115.03" width="30.41" height="84.47"/>
    <rect class="cls-4-4-4" x="93" y="170.24" width="31.29" height="27.44"/>
    <rect class="cls-4-4-4" x="93" y="115.03" width="31.29" height="55.21"/>
    <polygon class="cls-4-4-4" points="110.29 210.75 110.29 197.68 93 197.68 93 210.75 93 222.06 93 233.06 124.29 233.06 124.29 210.75 110.29 210.75"/>
    <rect class="cls-4-4-4" x="110.29" y="197.42" width="14" height="13.33"/>
    <polygon class="cls-4-4-4" points="17.96 199.5 17.96 212.95 3.04 212.95 3.04 233.14 33.27 233.14 33.27 219.68 33.27 212.95 33.27 199.5 17.96 199.5"/>
    <path class="cls-7-4-4" d="m87.54,83.09l.48.48h-.58l-.63-.62h.38c.13,0,.26.05.36.14m-.17-4.27c.21,0,.38.17.38.38s-.17.38-.38.38-.38-.17-.38-.38.17-.38.38-.38m2.51,3.47l-.13-.36c-.06-.15-.19-.25-.36-.25h-.06v-3.07h-2.91v1.7h.38l.44-.54c.09-.1.22-.17.37-.17h.93c.15,0,.28.08.34.21l.28.52s.02.05.02.08c0,.09-.08.17-.17.17-.07,0-.13-.03-.16-.09l-.25-.48h-.4l.31.77.09.99h.8c.13,0,.23.08.28.19l.09.23h-1.37c-.1,0-.19-.07-.19-.17l-.09-.87-.74,1.53c-.04.09-.13.15-.24.15h-.36l.91-1.87-.28-.7-.27.33c-.07.09-.18.15-.3.15h-.4v2.21l.63.62h-1.86v-5.37h5.37v5.37h-.6l-.62-.62v-.66h.56Z"/>
    <line class="cls-1-4-4" x1="88.29" y1="233.21" x2="72.29" y2="233.21"/>
    <line class="cls-1-4-4" x1="115.94" y1="233.21" x2="68.84" y2="233.21"/>
    <polyline class="cls-1-4-4" points="68.84 233.21 40.23 233.21 27.36 233.21 2.86 233.21 2.86 3.42 124.29 3.42 124.29 233.21 115.94 233.21"/>
    <rect class="cls-1-4-4" x="2.86" y="3.42" width="39.4" height="111.61"/>
    <rect class="cls-1-4-4" x="42.26" y="3.42" width="41.52" height="86.78"/>
    <polygon class="cls-2-4-4" points="42 222.05 42 197.78 44.84 197.78 44.84 210.91 57 210.91 57 222.06 42 222.05"/>
    <line class="cls-1-4-4" x1="71.94" y1="222.06" x2="71.94" y2="233.21"/>
    <polyline class="cls-1-4-4" points="57 222.05 57 210.91 79.65 210.91 79.65 222.05 78.32 222.05"/>
    <line class="cls-1-4-4" x1="74.47" y1="222.06" x2="57.01" y2="222.06"/>
    <polyline class="cls-1-4-4" points="77.03 197.78 79.65 197.78 79.65 210.91 44.84 210.91 44.84 197.78 48.92 197.78"/>
    <line class="cls-1-4-4" x1="65.71" y1="197.78" x2="71.94" y2="197.78"/>
    <line class="cls-1-4-4" x1="53.68" y1="197.78" x2="60.88" y2="197.78"/>
    <line class="cls-1-4-4" x1="57" y1="210.91" x2="57" y2="197.78"/>
    <path class="cls-1-4-4" d="m69.37,210.75v-12.97,12.97Z"/>
    <rect class="cls-2-4-4" x="79.65" y="197.78" width="3.33" height="24.28"/>
    <line class="cls-1-4-4" x1="33.26" y1="199.5" x2="3.07" y2="199.5"/>
    <line class="cls-1-4-4" x1="33.27" y1="115.03" x2="33.27" y2="233.21"/>
    <polygon class="cls-1-4-4" points="93 76.81 83.81 76.81 83.81 3.42 124.29 3.42 124.29 115.03 93 115.03 93 76.81"/>
    <rect class="cls-1-4-4" x="93" y="197.78" width="31.29" height="35.42"/>
    <rect class="cls-1-4-4" x="93" y="115.03" width="31.29" height="82.75"/>
    <rect class="cls-1-4-4" x="2.97" y="199.5" width="14.99" height="13.45"/>
    <g>
      <path class="cls-8-4-4" d="m52.54,157.78c0,.36-.29.65-.65.65s-.65-.29-.65-.65.29-.65.65-.65.65.29.65.65Z"/>
      <path class="cls-8-4-4" d="m51.89,158.63c-.46,0-1.55.04-1.55.94v2.15c0,.14.1.26.24.27.14,0,.26-.1.27-.24l.12-1.3.13,4.85c0,.18.15.33.33.33s.33-.15.33-.33l.13-2.98.13,2.98c0,.18.15.33.33.33s.33-.15.33-.33l.13-4.85.12,1.3c0,.14.13.25.27.24s.25-.13.24-.27v-2.15c0-.9-1.09-.94-1.55-.94Z"/>
    </g>
    <g>
      <path class="cls-5-4-4" d="m74.47,158.43c.36,0,.65-.29.65-.65s-.29-.65-.65-.65-.65.29-.65.65.29.65.65.65Z"/>
      <path class="cls-5-4-4" d="m76.34,161.55l-.51-1.89c-.21-.87-.89-1-1.35-1s-1.14.13-1.35,1l-.51,1.89c-.05.13.02.28.15.33.13.05.28-.02.33-.15l.51-1.44.13.66-.64,2.02h.94s.05.63.05.63l.07,1.7c0,.18.15.33.33.33s.33-.15.33-.33l.07-1.7.05-.63h.94s-.64-2.02-.64-2.02l.13-.66.51,1.44c.05.13.2.2.33.15.13-.05.2-.2.15-.33Z"/>
    </g>
    <polyline class="cls-1-4-4" points="54.09 152.51 59.17 152.51 59.17 170.24 44.84 170.24 44.84 152.51 50.92 152.51"/>
    <polyline class="cls-1-4-4" points="71.96 152.51 81.32 152.51 81.32 170.24 66.95 170.24 66.95 152.51 68.91 152.51"/>
    <line class="cls-1-4-4" x1="59.17" y1="152.51" x2="64.59" y2="152.51"/>
    <g>
      <g>
        <path class="cls-3-4-4" d="m62.65,176.21c0,.2-.16.35-.35.35s-.35-.16-.35-.35.16-.35.35-.35.35.16.35.35Z"/>
        <path class="cls-3-4-4" d="m62.3,176.65c-.25,0-.84.02-.84.51v1.17c0,.08.06.14.13.14.08,0,.14-.06.14-.13l.07-.71.07,2.64c0,.1.08.18.18.18s.18-.08.18-.18l.07-1.62.07,1.62c0,.1.08.18.18.18s.18-.08.18-.18l.07-2.64.07.71c0,.08.07.13.14.13.08,0,.13-.07.13-.14v-1.17c0-.49-.59-.51-.84-.51Z"/>
      </g>
      <g>
        <path class="cls-3-4-4" d="m64.82,176.21c0,.2-.16.35-.35.35s-.35-.16-.35-.35.16-.35.35-.35.35.16.35.35Z"/>
        <path class="cls-3-4-4" d="m64.46,176.65c-.25,0-.84.02-.84.51v1.17c0,.08.06.14.13.14.08,0,.14-.06.14-.13l.07-.71.07,2.64c0,.1.08.18.18.18s.18-.08.18-.18l.07-1.62.07,1.62c0,.1.08.18.18.18s.18-.08.18-.18l.07-2.64.07.71c0,.08.07.13.14.13.08,0,.13-.07.13-.14v-1.17c0-.49-.59-.51-.84-.51Z"/>
      </g>
      <path class="cls-3-4-4" d="m65.7,180.71h-4.64c-.36,0-.65-.29-.65-.65v-4.97c0-.36.29-.65.65-.65h4.64c.36,0,.65.29.65.65v4.97c0,.36-.29.65-.65.65Zm-4.64-5.86c-.13,0-.24.11-.24.24v4.97c0,.13.11.24.24.24h4.64c.13,0,.24-.11.24-.24v-4.97c0-.13-.11-.24-.24-.24h-4.64Z"/>
      <path class="cls-3-4-4" d="m65.47,173.13l-.79-.79h0s-.13-.13-.13-.13l-.13.13h0s-.79.79-.79.79c-.07.07-.07.18,0,.25.07.07.18.07.25,0l.49-.49v1.09c0,.1.08.18.18.18s.18-.08.18-.18v-1.09s.49.49.49.49c.04.04.08.05.13.05s.09-.02.13-.05c.07-.07.07-.18,0-.25Z"/>
      <path class="cls-3-4-4" d="m63.21,173.07c-.07-.07-.18-.07-.25,0l-.49.49v-1.09c0-.1-.08-.18-.18-.18s-.18.08-.18.18v1.09s-.49-.49-.49-.49c-.07-.07-.18-.07-.25,0-.07.07-.07.18,0,.25l.79.79h0s.13.13.13.13l.13-.13h0s.79-.79.79-.79c.07-.07.07-.18,0-.25Z"/>
    </g>
    <rect class="cls-2-4-4" x="42.44" y="170.24" width="14.83" height="13.19"/>
    <polyline class="cls-1-4-4" points="60.7 183.43 57.27 183.43 57.27 170.24 69.4 170.24 69.4 183.43 65.84 183.43"/>
    <rect class="cls-2-4-4" x="69.41" y="170.24" width="14.27" height="13.19"/>
    <rect class="cls-1-4-4" x="110.29" y="197.78" width="14" height="12.97"/>
    <line class="cls-1-4-4" x1="93" y1="170.24" x2="124.29" y2="170.24"/>
  </g>
</svg>