<?xml version="1.0" encoding="UTF-8"?>
<svg xmlns="http://www.w3.org/2000/svg" viewBox="0 0 247.95 246.1">
  <defs>
    <style>
      .cls-1-5-2 {
        stroke: #231815;
        stroke-miterlimit: 10;
      }

      .cls-1-5-2, .cls-2-5-2 {
        fill: none;
      }

      .cls-3-5-2, .cls-4-5-2, .cls-5-5-2, .cls-6-5-2, .cls-7-5-2, .cls-2-5-2, .cls-8-5-2 {
        stroke-width: 0px;
      }

      .cls-3-5-2, .cls-9-5-2 {
        fill: #231815;
      }

      .cls-4-5-2 {
        opacity: .2;
      }

      .cls-4-5-2, .cls-5-5-2, .cls-7-5-2 {
        fill: #761923;
      }

      .cls-5-5-2 {
        opacity: .97;
      }

      .cls-6-5-2 {
        fill: #bc2021;
      }

      .cls-8-5-2 {
        fill: #2d3e69;
      }

      .cls-10-5-2 {
        fill: #fff;
      }

      .cls-10-5-2, .cls-9-5-2 {
        font-family: KozGoPr6N-Regular-90ms-RKSJ-H, 'Kozuka Gothic Pr6N';
        font-size: 7px;
      }
    </style>
  </defs>
  <g id="_5205" data-name="5205">
    <rect class="cls-7-5-2" x="175.66" y="188.94" width="50.11" height="42.41"/>
    <text class="cls-10-5-2" transform="translate(186.72 212.03)"><tspan x="0" y="0">５２０５</tspan></text>
  </g>
  <g id="_5204" data-name="5204">
    <rect class="cls-5-5-2" x="129.43" y="188.96" width="46.6" height="42.41"/>
    <text class="cls-10-5-2" transform="translate(138.22 211.94)"><tspan x="0" y="0">５２０４</tspan></text>
  </g>
  <g id="_5203" data-name="5203">
    <rect class="cls-5-5-2" x="81.68" y="189.38" width="47.05" height="42.41"/>
    <text class="cls-10-5-2" transform="translate(91.2 212.48)"><tspan x="0" y="0">５２０３</tspan></text>
  </g>
  <g id="_レイヤー_4" data-name="レイヤー 4">
    <polygon class="cls-3-5-2" points="59.82 124.14 50.7 124.14 50.7 152.82 59.82 152.82 59.82 134.03 71.46 134.03 71.46 124.14 59.82 124.14"/>
    <polygon class="cls-3-5-2" points="108.58 94.53 85.46 94.53 85.46 96.53 108.58 96.53 108.58 103.37 85.28 103.37 85.28 111.24 108.58 111.24 108.58 124.14 201.09 124.14 201.09 94.53 108.58 94.53"/>
    <rect class="cls-4-5-2" x="56.21" y="188.49" width="25.68" height="42.95"/>
    <rect class="cls-4-5-2" x=".72" y=".68" width="103.16" height="93.84"/>
    <polygon class="cls-4-5-2" points="28.92 127.62 28.92 101.98 26.34 101.98 26.34 96.3 6.5 96.3 6.5 109.33 26.34 109.33 26.34 127.62 7 127.62 7 231.43 28.92 231.43 28.92 127.62 28.92 127.62"/>
    <rect class="cls-1-5-2" x=".72" y=".68" width="246.83" height="93.84"/>
    <polygon class="cls-1-5-2" points="226.15 124.14 226.15 162.34 207.47 162.34 207.47 175.53 176.04 175.53 176.04 124.14 226.15 124.14"/>
    <rect class="cls-1-5-2" x="207.47" y="162.34" width="18.68" height="2.71"/>
    <rect class="cls-1-5-2" x="219.14" y="165.05" width="7.01" height="19.34"/>
    <rect class="cls-1-5-2" x="207.47" y="184.39" width="18.68" height="4.64"/>
    <line class="cls-1-5-2" x1="207.47" y1="175.53" x2="207.47" y2="184.39"/>
    <line class="cls-1-5-2" x1="155.78" y1="175.53" x2="161.56" y2="175.53"/>
    <line class="cls-1-5-2" x1="137.31" y1="175.53" x2="152.12" y2="175.53"/>
    <line class="cls-1-5-2" x1="98.4" y1="175.53" x2="133.58" y2="175.53"/>
    <polyline class="cls-1-5-2" points="165.4 175.53 166.63 175.53 166.63 124.14 83.18 124.14 83.18 141.53"/>
    <polyline class="cls-1-5-2" points="155.78 175.53 159.97 175.53 159.97 166.07 150.73 166.07 150.73 175.53 152.12 175.53"/>
    <polyline class="cls-1-5-2" points="140.68 156.25 140.68 151.45 150.73 151.45"/>
    <polyline class="cls-1-5-2" points="140.68 160.34 140.68 175.53 150.73 175.53 150.73 124.14 140.68 124.14 140.68 148.1"/>
    <line class="cls-1-5-2" x1="150.73" y1="163.81" x2="140.68" y2="163.81"/>
    <line class="cls-1-5-2" x1="150.73" y1="129.14" x2="140.68" y2="129.14"/>
    <rect class="cls-1-5-2" x="106.53" y="124.14" width="22.91" height="51.39"/>
    <line class="cls-1-5-2" x1="71.46" y1="164.2" x2="59.82" y2="164.2"/>
    <line class="cls-1-5-2" x1="83.09" y1="175.53" x2="71.46" y2="175.53"/>
    <line class="cls-1-5-2" x1="60.93" y1="175.53" x2="60.93" y2="177.28"/>
    <line class="cls-1-5-2" x1="92.94" y1="189.03" x2="68.31" y2="189.03"/>
    <line class="cls-1-5-2" x1="122.58" y1="189.03" x2="96.1" y2="189.03"/>
    <line class="cls-1-5-2" x1="133.05" y1="189.03" x2="125.74" y2="189.03"/>
    <line class="cls-1-5-2" x1="163.03" y1="189.03" x2="136.2" y2="189.03"/>
    <line class="cls-1-5-2" x1="180.18" y1="189.03" x2="166.18" y2="189.03"/>
    <line class="cls-1-5-2" x1="204.59" y1="189.03" x2="183.33" y2="189.03"/>
    <polyline class="cls-1-5-2" points="65.16 189.03 56.21 189.03 56.21 231.43 226.15 231.43 226.15 189.03 207.47 189.03"/>
    <line class="cls-1-5-2" x1="166.63" y1="175.53" x2="176.04" y2="175.53"/>
    <line class="cls-1-5-2" x1="176.1" y1="189.03" x2="176.1" y2="231.43"/>
    <line class="cls-1-5-2" x1="129.41" y1="189.03" x2="129.41" y2="231.43"/>
    <line class="cls-1-5-2" x1="82.36" y1="189.03" x2="82.36" y2="231.43"/>
    <line class="cls-1-5-2" x1="61.08" y1="189.31" x2="61.08" y2="183.59"/>
    <rect class="cls-1-5-2" x="42.53" y="206.27" width="13.67" height="25.16"/>
    <rect class="cls-1-5-2" x="28.92" y="206.27" width="13.62" height="25.16"/>
    <polyline class="cls-1-5-2" points="28.92 149.84 28.92 231.43 20.42 231.43 20.42 236.37"/>
    <polyline class="cls-1-5-2" points="26.34 103.6 26.34 101.98 28.92 101.98 28.92 144.42"/>
    <line class="cls-1-5-2" x1="28.92" y1="94.53" x2="28.92" y2="101.98"/>
    <rect class="cls-1-5-2" x="71.46" y="106.11" width="1.15" height="4.57"/>
    <rect class="cls-1-5-2" x="74.92" y="106.11" width="1.24" height="4.57"/>
    <rect class="cls-1-5-2" x="78.7" y="106.11" width="1.18" height="4.57"/>
    <rect class="cls-1-5-2" x="62.84" y="114.08" width="4.64" height="1.18"/>
    <rect class="cls-1-5-2" x="62.84" y="117.82" width="4.64" height="1.2"/>
    <polygon class="cls-1-5-2" points="67.47 122.72 65.16 122.72 62.84 122.72 62.84 121.39 67.47 121.39 67.47 122.72"/>
    <line class="cls-1-5-2" x1="65.16" y1="124.14" x2="65.16" y2="122.72"/>
    <polyline class="cls-1-5-2" points="65.16 114.08 65.16 108.4 71.46 108.4"/>
    <line class="cls-1-5-2" x1="79.88" y1="108.4" x2="85.46" y2="108.4"/>
    <line class="cls-1-5-2" x1="83.09" y1="124.14" x2="81.04" y2="124.14"/>
    <text class="cls-9-5-2" transform="translate(147.72 48.01)"><tspan x="0" y="0">業務施設</tspan></text>
    <text class="cls-9-5-2" transform="translate(20.8 45.35)"><tspan x="0" y="0">ものづくりセンター</tspan></text>
    <line class="cls-1-5-2" x1="28.92" y1="129.14" x2="38.7" y2="129.14"/>
    <line class="cls-1-5-2" x1="46.87" y1="189.03" x2="28.92" y2="189.03"/>
    <polyline class="cls-1-5-2" points="71.46 172.66 71.46 175.53 59.82 175.53 59.82 164.2 71.46 164.2 71.46 168.76"/>
    <polyline class="cls-1-5-2" points="71.46 161.33 71.46 164.2 59.82 164.2 59.82 152.86 71.46 152.86 71.46 157.43"/>
    <line class="cls-1-5-2" x1="83.18" y1="164.2" x2="94.82" y2="164.2"/>
    <polyline class="cls-1-5-2" points="83.18 155.73 83.18 152.86 94.82 152.86 94.82 164.2 83.18 164.2 83.18 159.63"/>
    <polyline class="cls-1-5-2" points="83.18 167.06 83.18 164.2 94.82 164.2 94.82 175.53 83.18 175.53 83.18 170.96"/>
    <polyline class="cls-1-5-2" points="83.18 144.4 83.18 141.53 94.82 141.53 94.82 152.86 83.18 152.86 83.18 148.3"/>
    <g>
      <path class="cls-8-5-2" d="m101.33,146.35c0,.36-.29.65-.65.65s-.65-.29-.65-.65.29-.65.65-.65.65.29.65.65Z"/>
      <path class="cls-8-5-2" d="m100.68,147.2c-.46,0-1.55.04-1.55.94v2.15c0,.14.1.26.24.27.14,0,.26-.1.27-.24l.12-1.3.13,4.85c0,.18.15.33.33.33s.33-.15.33-.33l.13-2.98.13,2.98c0,.18.15.33.33.33s.33-.15.33-.33l.13-4.85.12,1.3c0,.14.13.25.27.24s.25-.13.24-.27v-2.15c0-.9-1.09-.94-1.55-.94Z"/>
    </g>
    <g>
      <path class="cls-6-5-2" d="m158.57,146.88c.36,0,.65-.29.65-.65s-.29-.65-.65-.65-.65.29-.65.65.29.65.65.65Z"/>
      <path class="cls-6-5-2" d="m160.43,150.01l-.51-1.89c-.21-.87-.89-1-1.35-1s-1.14.13-1.35,1l-.51,1.89c-.05.13.02.28.15.33.13.05.28-.02.33-.15l.51-1.44.13.66-.64,2.02h.94s.05.63.05.63l.07,1.7c0,.18.15.33.33.33s.33-.15.33-.33l.07-1.7.05-.63h.94s-.64-2.02-.64-2.02l.13-.66.51,1.44c.05.13.2.2.33.15.13-.05.2-.2.15-.33Z"/>
    </g>
    <g>
      <path class="cls-3-5-2" d="m67.53,139.81c0,.24-.19.43-.43.43s-.43-.19-.43-.43.19-.43.43-.43.43.19.43.43Z"/>
      <polygon class="cls-3-5-2" points="69.66 144.45 68.12 144.45 68.12 144.99 66.74 144.99 66.74 145.54 65.4 145.54 65.4 146.09 64.06 146.09 64.06 146.63 62.73 146.63 62.73 147.18 61.88 147.18 61.88 147.88 63.5 147.88 63.5 147.31 64.83 147.31 64.83 146.76 66.17 146.76 66.17 146.22 67.51 146.22 67.51 145.67 68.85 145.67 68.85 145.15 69.66 145.15 69.66 144.45"/>
      <path class="cls-3-5-2" d="m67.62,142.46c-.32-.21-.63-.41-.67-.44.11-.54.21-1.03.26-1.33,0,0,.04-.27-.17-.31-.3-.06-.72.17-1.2.53-.05.04-.13.1-.16.21-.03.1-.14.69-.2.94-.02.09.03.19.13.21.09.02.18-.03.21-.13.07-.21.2-.65.22-.68.02-.04.21-.19.21-.19l-.36,3.66c0,.11.09.19.19.21.12.01.22-.08.24-.2,0,0,.24-1.06.47-2.15l.41.19-.21,1.06c-.03.1.02.21.12.25.1.03.21-.02.25-.12,0,0,.37-.9.42-1.06.05-.17.18-.43-.15-.64Z"/>
      <g>
        <path class="cls-3-5-2" d="m63.85,141.03c0,.24-.19.43-.43.43s-.43-.19-.43-.43.19-.43.43-.43.43.19.43.43Z"/>
        <path class="cls-3-5-2" d="m64.82,143.49s-.06-.47-.12-.76c-.02-.07-.04-.13-.09-.22-.17-.29-.41-.63-.63-.75-.35-.18-.69-.08-.86.2-.17.3-.39.78-1,1.18-.08.05-.14.12-.11.21.03.09.12.14.21.11.01,0,.02,0,.03-.01.13-.06.65-.3.83-.59l-.15,3.28c-.01.12.07.23.19.25.12.01.22-.08.24-.2l.68-3.63s.22.18.27.33c.04.1.11.39.16.65,0,0,0,0,0,0,.02.1.1.16.19.15.09-.01.16-.1.15-.19Z"/>
        <path class="cls-3-5-2" d="m64.9,144.99l-1.21-.98-.1.7,1.06.61c.09.07.22.05.29-.04.07-.09.05-.22-.04-.29Z"/>
      </g>
    </g>
    <g>
      <g>
        <path class="cls-3-5-2" d="m88.06,146.87c0,.2-.16.35-.35.35s-.35-.16-.35-.35.16-.35.35-.35.35.16.35.35Z"/>
        <path class="cls-3-5-2" d="m87.71,147.31c-.25,0-.84.02-.84.51v1.17c0,.08.06.14.13.14.08,0,.14-.06.14-.13l.07-.71.07,2.64c0,.1.08.18.18.18s.18-.08.18-.18l.07-1.62.07,1.62c0,.1.08.18.18.18s.18-.08.18-.18l.07-2.64.07.71c0,.08.07.13.14.13.08,0,.13-.07.13-.14v-1.17c0-.49-.59-.51-.84-.51Z"/>
      </g>
      <g>
        <path class="cls-3-5-2" d="m90.22,146.87c0,.2-.16.35-.35.35s-.35-.16-.35-.35.16-.35.35-.35.35.16.35.35Z"/>
        <path class="cls-3-5-2" d="m89.87,147.31c-.25,0-.84.02-.84.51v1.17c0,.08.06.14.13.14.08,0,.14-.06.14-.13l.07-.71.07,2.64c0,.1.08.18.18.18s.18-.08.18-.18l.07-1.62.07,1.62c0,.1.08.18.18.18s.18-.08.18-.18l.07-2.64.07.71c0,.08.07.13.14.13.08,0,.13-.07.13-.14v-1.17c0-.49-.59-.51-.84-.51Z"/>
      </g>
      <path class="cls-3-5-2" d="m91.11,151.37h-4.64c-.36,0-.65-.29-.65-.65v-4.97c0-.36.29-.65.65-.65h4.64c.36,0,.65.29.65.65v4.97c0,.36-.29.65-.65.65Zm-4.64-5.86c-.13,0-.24.11-.24.24v4.97c0,.13.11.24.24.24h4.64c.13,0,.24-.11.24-.24v-4.97c0-.13-.11-.24-.24-.24h-4.64Z"/>
      <path class="cls-3-5-2" d="m90.88,143.78l-.79-.79h0s-.13-.13-.13-.13l-.13.13h0s-.79.79-.79.79c-.07.07-.07.18,0,.25.07.07.18.07.25,0l.49-.49v1.09c0,.1.08.18.18.18s.18-.08.18-.18v-1.09s.49.49.49.49c.04.04.08.05.13.05s.09-.02.13-.05c.07-.07.07-.18,0-.25Z"/>
      <path class="cls-3-5-2" d="m88.62,143.72c-.07-.07-.18-.07-.25,0l-.49.49v-1.09c0-.1-.08-.18-.18-.18s-.18.08-.18.18v1.09s-.49-.49-.49-.49c-.07-.07-.18-.07-.25,0-.07.07-.07.18,0,.25l.79.79h0s.13.13.13.13l.13-.13h0s.79-.79.79-.79c.07-.07.07-.18,0-.25Z"/>
    </g>
    <line class="cls-1-5-2" x1="71.46" y1="168.76" x2="71.46" y2="161.33"/>
    <polyline class="cls-1-5-2" points="59.82 175.53 71.46 175.53 71.46 172.66"/>
    <line class="cls-1-5-2" x1="50.7" y1="152.86" x2="59.82" y2="152.86"/>
    <polyline class="cls-1-5-2" points="71.46 149.03 71.46 124.14 50.7 124.14 50.7 175.53"/>
    <line class="cls-1-5-2" x1="71.46" y1="157.43" x2="71.46" y2="152.86"/>
    <g>
      <g>
        <path class="cls-3-5-2" d="m88.06,158.28c0,.2-.16.35-.35.35s-.35-.16-.35-.35.16-.35.35-.35.35.16.35.35Z"/>
        <path class="cls-3-5-2" d="m87.71,158.73c-.25,0-.84.02-.84.51v1.17c0,.08.06.14.13.14.08,0,.14-.06.14-.13l.07-.71.07,2.64c0,.1.08.18.18.18s.18-.08.18-.18l.07-1.62.07,1.62c0,.1.08.18.18.18s.18-.08.18-.18l.07-2.64.07.71c0,.08.07.13.14.13.08,0,.13-.07.13-.14v-1.17c0-.49-.59-.51-.84-.51Z"/>
      </g>
      <g>
        <path class="cls-3-5-2" d="m90.22,158.28c0,.2-.16.35-.35.35s-.35-.16-.35-.35.16-.35.35-.35.35.16.35.35Z"/>
        <path class="cls-3-5-2" d="m89.87,158.73c-.25,0-.84.02-.84.51v1.17c0,.08.06.14.13.14.08,0,.14-.06.14-.13l.07-.71.07,2.64c0,.1.08.18.18.18s.18-.08.18-.18l.07-1.62.07,1.62c0,.1.08.18.18.18s.18-.08.18-.18l.07-2.64.07.71c0,.08.07.13.14.13.08,0,.13-.07.13-.14v-1.17c0-.49-.59-.51-.84-.51Z"/>
      </g>
      <path class="cls-3-5-2" d="m91.11,162.78h-4.64c-.36,0-.65-.29-.65-.65v-4.97c0-.36.29-.65.65-.65h4.64c.36,0,.65.29.65.65v4.97c0,.36-.29.65-.65.65Zm-4.64-5.86c-.13,0-.24.11-.24.24v4.97c0,.13.11.24.24.24h4.64c.13,0,.24-.11.24-.24v-4.97c0-.13-.11-.24-.24-.24h-4.64Z"/>
      <path class="cls-3-5-2" d="m90.88,155.2l-.79-.79h0s-.13-.13-.13-.13l-.13.13h0s-.79.79-.79.79c-.07.07-.07.18,0,.25.07.07.18.07.25,0l.49-.49v1.09c0,.1.08.18.18.18s.18-.08.18-.18v-1.09s.49.49.49.49c.04.04.08.05.13.05s.09-.02.13-.05c.07-.07.07-.18,0-.25Z"/>
      <path class="cls-3-5-2" d="m88.62,155.14c-.07-.07-.18-.07-.25,0l-.49.49v-1.09c0-.1-.08-.18-.18-.18s-.18.08-.18.18v1.09s-.49-.49-.49-.49c-.07-.07-.18-.07-.25,0-.07.07-.07.18,0,.25l.79.79h0s.13.13.13.13l.13-.13h0s.79-.79.79-.79c.07-.07.07-.18,0-.25Z"/>
    </g>
    <g>
      <g>
        <path class="cls-3-5-2" d="m88.06,169.62c0,.2-.16.35-.35.35s-.35-.16-.35-.35.16-.35.35-.35.35.16.35.35Z"/>
        <path class="cls-3-5-2" d="m87.71,170.06c-.25,0-.84.02-.84.51v1.17c0,.08.06.14.13.14.08,0,.14-.06.14-.13l.07-.71.07,2.64c0,.1.08.18.18.18s.18-.08.18-.18l.07-1.62.07,1.62c0,.1.08.18.18.18s.18-.08.18-.18l.07-2.64.07.71c0,.08.07.13.14.13.08,0,.13-.07.13-.14v-1.17c0-.49-.59-.51-.84-.51Z"/>
      </g>
      <g>
        <path class="cls-3-5-2" d="m90.22,169.62c0,.2-.16.35-.35.35s-.35-.16-.35-.35.16-.35.35-.35.35.16.35.35Z"/>
        <path class="cls-3-5-2" d="m89.87,170.06c-.25,0-.84.02-.84.51v1.17c0,.08.06.14.13.14.08,0,.14-.06.14-.13l.07-.71.07,2.64c0,.1.08.18.18.18s.18-.08.18-.18l.07-1.62.07,1.62c0,.1.08.18.18.18s.18-.08.18-.18l.07-2.64.07.71c0,.08.07.13.14.13.08,0,.13-.07.13-.14v-1.17c0-.49-.59-.51-.84-.51Z"/>
      </g>
      <path class="cls-3-5-2" d="m91.11,174.11h-4.64c-.36,0-.65-.29-.65-.65v-4.97c0-.36.29-.65.65-.65h4.64c.36,0,.65.29.65.65v4.97c0,.36-.29.65-.65.65Zm-4.64-5.86c-.13,0-.24.11-.24.24v4.97c0,.13.11.24.24.24h4.64c.13,0,.24-.11.24-.24v-4.97c0-.13-.11-.24-.24-.24h-4.64Z"/>
      <path class="cls-3-5-2" d="m90.88,166.53l-.79-.79h0s-.13-.13-.13-.13l-.13.13h0s-.79.79-.79.79c-.07.07-.07.18,0,.25.07.07.18.07.25,0l.49-.49v1.09c0,.1.08.18.18.18s.18-.08.18-.18v-1.09s.49.49.49.49c.04.04.08.05.13.05s.09-.02.13-.05c.07-.07.07-.18,0-.25Z"/>
      <path class="cls-3-5-2" d="m88.62,166.47c-.07-.07-.18-.07-.25,0l-.49.49v-1.09c0-.1-.08-.18-.18-.18s-.18.08-.18.18v1.09s-.49-.49-.49-.49c-.07-.07-.18-.07-.25,0-.07.07-.07.18,0,.25l.79.79h0s.13.13.13.13l.13-.13h0s.79-.79.79-.79c.07-.07.07-.18,0-.25Z"/>
    </g>
    <g>
      <g>
        <path class="cls-3-5-2" d="m65.04,157.97c0,.2-.16.35-.35.35s-.35-.16-.35-.35.16-.35.35-.35.35.16.35.35Z"/>
        <path class="cls-3-5-2" d="m64.69,158.41c-.25,0-.84.02-.84.51v1.17c0,.08.06.14.13.14.08,0,.14-.06.14-.13l.07-.71.07,2.64c0,.1.08.18.18.18s.18-.08.18-.18l.07-1.62.07,1.62c0,.1.08.18.18.18s.18-.08.18-.18l.07-2.64.07.71c0,.08.07.13.14.13.08,0,.13-.07.13-.14v-1.17c0-.49-.59-.51-.84-.51Z"/>
      </g>
      <g>
        <path class="cls-3-5-2" d="m67.2,157.97c0,.2-.16.35-.35.35s-.35-.16-.35-.35.16-.35.35-.35.35.16.35.35Z"/>
        <path class="cls-3-5-2" d="m66.85,158.41c-.25,0-.84.02-.84.51v1.17c0,.08.06.14.13.14.08,0,.14-.06.14-.13l.07-.71.07,2.64c0,.1.08.18.18.18s.18-.08.18-.18l.07-1.62.07,1.62c0,.1.08.18.18.18s.18-.08.18-.18l.07-2.64.07.71c0,.08.07.13.14.13.08,0,.13-.07.13-.14v-1.17c0-.49-.59-.51-.84-.51Z"/>
      </g>
      <path class="cls-3-5-2" d="m68.09,162.47h-4.64c-.36,0-.65-.29-.65-.65v-4.97c0-.36.29-.65.65-.65h4.64c.36,0,.65.29.65.65v4.97c0,.36-.29.65-.65.65Zm-4.64-5.86c-.13,0-.24.11-.24.24v4.97c0,.13.11.24.24.24h4.64c.13,0,.24-.11.24-.24v-4.97c0-.13-.11-.24-.24-.24h-4.64Z"/>
      <path class="cls-3-5-2" d="m67.86,154.88l-.79-.79h0s-.13-.13-.13-.13l-.13.13h0s-.79.79-.79.79c-.07.07-.07.18,0,.25.07.07.18.07.25,0l.49-.49v1.09c0,.1.08.18.18.18s.18-.08.18-.18v-1.09s.49.49.49.49c.04.04.08.05.13.05s.09-.02.13-.05c.07-.07.07-.18,0-.25Z"/>
      <path class="cls-3-5-2" d="m65.6,154.82c-.07-.07-.18-.07-.25,0l-.49.49v-1.09c0-.1-.08-.18-.18-.18s-.18.08-.18.18v1.09s-.49-.49-.49-.49c-.07-.07-.18-.07-.25,0-.07.07-.07.18,0,.25l.79.79h0s.13.13.13.13l.13-.13h0s.79-.79.79-.79c.07-.07.07-.18,0-.25Z"/>
    </g>
    <g>
      <g>
        <path class="cls-3-5-2" d="m65.04,170c0,.2-.16.35-.35.35s-.35-.16-.35-.35.16-.35.35-.35.35.16.35.35Z"/>
        <path class="cls-3-5-2" d="m64.69,170.44c-.25,0-.84.02-.84.51v1.17c0,.08.06.14.13.14.08,0,.14-.06.14-.13l.07-.71.07,2.64c0,.1.08.18.18.18s.18-.08.18-.18l.07-1.62.07,1.62c0,.1.08.18.18.18s.18-.08.18-.18l.07-2.64.07.71c0,.08.07.13.14.13.08,0,.13-.07.13-.14v-1.17c0-.49-.59-.51-.84-.51Z"/>
      </g>
      <g>
        <path class="cls-3-5-2" d="m67.2,170c0,.2-.16.35-.35.35s-.35-.16-.35-.35.16-.35.35-.35.35.16.35.35Z"/>
        <path class="cls-3-5-2" d="m66.85,170.44c-.25,0-.84.02-.84.51v1.17c0,.08.06.14.13.14.08,0,.14-.06.14-.13l.07-.71.07,2.64c0,.1.08.18.18.18s.18-.08.18-.18l.07-1.62.07,1.62c0,.1.08.18.18.18s.18-.08.18-.18l.07-2.64.07.71c0,.08.07.13.14.13.08,0,.13-.07.13-.14v-1.17c0-.49-.59-.51-.84-.51Z"/>
      </g>
      <path class="cls-3-5-2" d="m68.09,174.5h-4.64c-.36,0-.65-.29-.65-.65v-4.97c0-.36.29-.65.65-.65h4.64c.36,0,.65.29.65.65v4.97c0,.36-.29.65-.65.65Zm-4.64-5.86c-.13,0-.24.11-.24.24v4.97c0,.13.11.24.24.24h4.64c.13,0,.24-.11.24-.24v-4.97c0-.13-.11-.24-.24-.24h-4.64Z"/>
      <path class="cls-3-5-2" d="m67.86,166.92l-.79-.79h0s-.13-.13-.13-.13l-.13.13h0s-.79.79-.79.79c-.07.07-.07.18,0,.25.07.07.18.07.25,0l.49-.49v1.09c0,.1.08.18.18.18s.18-.08.18-.18v-1.09s.49.49.49.49c.04.04.08.05.13.05s.09-.02.13-.05c.07-.07.07-.18,0-.25Z"/>
      <path class="cls-3-5-2" d="m65.6,166.86c-.07-.07-.18-.07-.25,0l-.49.49v-1.09c0-.1-.08-.18-.18-.18s-.18.08-.18.18v1.09s-.49-.49-.49-.49c-.07-.07-.18-.07-.25,0-.07.07-.07.18,0,.25l.79.79h0s.13.13.13.13l.13-.13h0s.79-.79.79-.79c.07-.07.07-.18,0-.25Z"/>
    </g>
    <polyline class="cls-1-5-2" points="71.46 149.03 71.46 134.03 59.82 134.03 59.82 152.86 71.46 152.86"/>
    <polyline class="cls-1-5-2" points="108.58 124.14 108.58 111.24 85.46 111.24 85.46 117.93"/>
    <polyline class="cls-1-5-2" points="85.46 117.93 85.46 103.25 108.58 103.25 108.58 96.53 85.46 96.53 85.46 94.53 201.09 94.53 201.09 124.14 85.46 124.14"/>
    <g>
      <path class="cls-3-5-2" d="m99.38,114.11c0,.24-.19.43-.43.43s-.43-.19-.43-.43.19-.43.43-.43.43.19.43.43Z"/>
      <polygon class="cls-3-5-2" points="101.51 118.75 99.97 118.75 99.97 119.3 98.59 119.3 98.59 119.84 97.25 119.84 97.25 120.39 95.91 120.39 95.91 120.93 94.58 120.93 94.58 121.48 93.73 121.48 93.73 122.18 95.35 122.18 95.35 121.61 96.68 121.61 96.68 121.07 98.02 121.07 98.02 120.52 99.36 120.52 99.36 119.98 100.7 119.98 100.7 119.45 101.51 119.45 101.51 118.75"/>
      <path class="cls-3-5-2" d="m99.47,116.76c-.32-.21-.63-.41-.67-.44.11-.54.21-1.03.26-1.33,0,0,.04-.27-.17-.31-.3-.06-.72.17-1.2.53-.05.04-.13.1-.16.21-.03.1-.14.69-.2.94-.02.09.03.19.13.21.09.02.18-.03.21-.13.07-.21.2-.65.22-.68.02-.04.21-.19.21-.19l-.36,3.66c0,.11.09.19.19.21.12.01.22-.08.24-.2,0,0,.24-1.06.47-2.15l.41.19-.21,1.06c-.03.1.02.21.12.25.1.03.21-.02.25-.12,0,0,.37-.9.42-1.06.05-.17.18-.43-.15-.64Z"/>
      <g>
        <path class="cls-3-5-2" d="m95.7,115.33c0,.24-.19.43-.43.43s-.43-.19-.43-.43.19-.43.43-.43.43.19.43.43Z"/>
        <path class="cls-3-5-2" d="m96.67,117.79s-.06-.47-.12-.76c-.02-.07-.04-.13-.09-.22-.17-.29-.41-.63-.63-.75-.35-.18-.69-.08-.86.2-.17.3-.39.78-1,1.18-.08.05-.14.12-.11.21.03.09.12.14.21.11.01,0,.02,0,.03-.01.13-.06.65-.3.83-.59l-.15,3.28c-.01.12.07.23.19.25.12.01.22-.08.24-.2l.68-3.63s.22.18.27.33c.04.1.11.39.16.65,0,0,0,0,0,0,.02.1.1.16.19.15.09-.01.16-.1.15-.19Z"/>
        <path class="cls-3-5-2" d="m96.75,119.3l-1.21-.98-.1.7,1.06.61c.09.07.22.05.29-.04.07-.09.05-.22-.04-.29Z"/>
      </g>
    </g>
    <g>
      <path class="cls-3-5-2" d="m147.47,137.05c0,.24-.19.43-.43.43s-.43-.19-.43-.43.19-.43.43-.43.43.19.43.43Z"/>
      <polygon class="cls-3-5-2" points="149.6 141.69 148.06 141.69 148.06 142.23 146.68 142.23 146.68 142.78 145.34 142.78 145.34 143.32 144 143.32 144 143.87 142.66 143.87 142.66 144.42 141.81 144.42 141.81 145.12 143.44 145.12 143.44 144.55 144.77 144.55 144.77 144 146.11 144 146.11 143.46 147.44 143.46 147.44 142.91 148.78 142.91 148.78 142.38 149.6 142.38 149.6 141.69"/>
      <path class="cls-3-5-2" d="m147.55,139.7c-.32-.21-.63-.41-.67-.44.11-.54.21-1.03.26-1.33,0,0,.04-.27-.17-.31-.3-.06-.72.17-1.2.53-.05.04-.13.1-.16.21-.03.1-.14.69-.2.94-.02.09.03.19.13.21.09.02.18-.03.21-.13.07-.21.2-.65.22-.68.02-.04.21-.19.21-.19l-.36,3.66c0,.11.09.19.19.21.12.01.22-.08.24-.2,0,0,.24-1.06.47-2.15l.41.19-.21,1.06c-.03.1.02.21.12.25.1.03.21-.02.25-.12,0,0,.37-.9.42-1.06.05-.17.18-.43-.15-.64Z"/>
      <g>
        <path class="cls-3-5-2" d="m143.79,138.26c0,.24-.19.43-.43.43s-.43-.19-.43-.43.19-.43.43-.43.43.19.43.43Z"/>
        <path class="cls-3-5-2" d="m144.76,140.73s-.06-.47-.12-.76c-.02-.07-.04-.13-.09-.22-.17-.29-.41-.63-.63-.75-.35-.18-.69-.08-.86.2-.17.3-.39.78-1,1.18-.08.05-.14.12-.11.21.03.09.12.14.21.11.01,0,.02,0,.03-.01.13-.06.65-.3.83-.59l-.15,3.28c-.01.12.07.23.19.25.12.01.22-.08.24-.2l.68-3.63s.22.18.27.33c.04.1.11.39.16.65,0,0,0,0,0,0,.02.1.1.16.19.15.09-.01.16-.1.15-.19Z"/>
        <path class="cls-3-5-2" d="m144.84,142.23l-1.21-.98-.1.7,1.06.61c.09.07.22.05.29-.04.07-.09.05-.22-.04-.29Z"/>
      </g>
    </g>
    <g>
      <g>
        <path class="cls-3-5-2" d="m144.82,157.44c0,.2-.16.35-.35.35s-.35-.16-.35-.35.16-.35.35-.35.35.16.35.35Z"/>
        <path class="cls-3-5-2" d="m144.47,157.88c-.25,0-.84.02-.84.51v1.17c0,.08.06.14.13.14.08,0,.14-.06.14-.13l.07-.71.07,2.64c0,.1.08.18.18.18s.18-.08.18-.18l.07-1.62.07,1.62c0,.1.08.18.18.18s.18-.08.18-.18l.07-2.64.07.71c0,.08.07.13.14.13.08,0,.13-.07.13-.14v-1.17c0-.49-.59-.51-.84-.51Z"/>
      </g>
      <g>
        <path class="cls-3-5-2" d="m146.98,157.44c0,.2-.16.35-.35.35s-.35-.16-.35-.35.16-.35.35-.35.35.16.35.35Z"/>
        <path class="cls-3-5-2" d="m146.63,157.88c-.25,0-.84.02-.84.51v1.17c0,.08.06.14.13.14.08,0,.14-.06.14-.13l.07-.71.07,2.64c0,.1.08.18.18.18s.18-.08.18-.18l.07-1.62.07,1.62c0,.1.08.18.18.18s.18-.08.18-.18l.07-2.64.07.71c0,.08.07.13.14.13.08,0,.13-.07.13-.14v-1.17c0-.49-.59-.51-.84-.51Z"/>
      </g>
      <path class="cls-3-5-2" d="m147.87,161.94h-4.64c-.36,0-.65-.29-.65-.65v-4.97c0-.36.29-.65.65-.65h4.64c.36,0,.65.29.65.65v4.97c0,.36-.29.65-.65.65Zm-4.64-5.86c-.13,0-.24.11-.24.24v4.97c0,.13.11.24.24.24h4.64c.13,0,.24-.11.24-.24v-4.97c0-.13-.11-.24-.24-.24h-4.64Z"/>
      <path class="cls-3-5-2" d="m147.64,154.35l-.79-.79h0s-.13-.13-.13-.13l-.13.13h0s-.79.79-.79.79c-.07.07-.07.18,0,.25.07.07.18.07.25,0l.49-.49v1.09c0,.1.08.18.18.18s.18-.08.18-.18v-1.09s.49.49.49.49c.04.04.08.05.13.05s.09-.02.13-.05c.07-.07.07-.18,0-.25Z"/>
      <path class="cls-3-5-2" d="m145.38,154.29c-.07-.07-.18-.07-.25,0l-.49.49v-1.09c0-.1-.08-.18-.18-.18s-.18.08-.18.18v1.09s-.49-.49-.49-.49c-.07-.07-.18-.07-.25,0-.07.07-.07.18,0,.25l.79.79h0s.13.13.13.13l.13-.13h0s.79-.79.79-.79c.07-.07.07-.18,0-.25Z"/>
    </g>
    <g>
      <path class="cls-3-5-2" d="m215.12,171.71c0,.24-.19.43-.43.43s-.43-.19-.43-.43.19-.43.43-.43.43.19.43.43Z"/>
      <polygon class="cls-3-5-2" points="217.25 176.35 215.71 176.35 215.71 176.9 214.33 176.9 214.33 177.44 212.99 177.44 212.99 177.99 211.65 177.99 211.65 178.53 210.31 178.53 210.31 179.08 209.46 179.08 209.46 179.78 211.09 179.78 211.09 179.21 212.42 179.21 212.42 178.67 213.76 178.67 213.76 178.12 215.1 178.12 215.1 177.57 216.44 177.57 216.44 177.05 217.25 177.05 217.25 176.35"/>
      <path class="cls-3-5-2" d="m215.21,174.36c-.32-.21-.63-.41-.67-.44.11-.54.21-1.03.26-1.33,0,0,.04-.27-.17-.31-.3-.06-.72.17-1.2.53-.05.04-.13.1-.16.21-.03.1-.14.69-.2.94-.02.09.03.19.13.21.09.02.18-.03.21-.13.07-.21.2-.65.22-.68.02-.04.21-.19.21-.19l-.36,3.66c0,.11.09.19.19.21.12.01.22-.08.24-.2,0,0,.24-1.06.47-2.15l.41.19-.21,1.06c-.03.1.02.21.12.25.1.03.21-.02.25-.12,0,0,.37-.9.42-1.06.05-.17.18-.43-.15-.64Z"/>
      <g>
        <path class="cls-3-5-2" d="m211.44,172.93c0,.24-.19.43-.43.43s-.43-.19-.43-.43.19-.43.43-.43.43.19.43.43Z"/>
        <path class="cls-3-5-2" d="m212.41,175.39s-.06-.47-.12-.76c-.02-.07-.04-.13-.09-.22-.17-.29-.41-.63-.63-.75-.35-.18-.69-.08-.86.2-.17.3-.39.78-1,1.18-.08.05-.14.12-.11.21.03.09.12.14.21.11.01,0,.02,0,.03-.01.13-.06.65-.3.83-.59l-.15,3.28c-.01.12.07.23.19.25.12.01.22-.08.24-.2l.68-3.63s.22.18.27.33c.04.1.11.39.16.65,0,0,0,0,0,0,.02.1.1.16.19.15.09-.01.16-.1.15-.19Z"/>
        <path class="cls-3-5-2" d="m212.49,176.9l-1.21-.98-.1.7,1.06.61c.09.07.22.05.29-.04.07-.09.05-.22-.04-.29Z"/>
      </g>
    </g>
    <polyline class="cls-1-5-2" points="7 236.37 7 127.62 26.34 127.62 26.34 109.33 6.5 109.33 6.5 96.3 26.34 96.3 26.34 103.6"/>
    <g>
      <path class="cls-3-5-2" d="m18.73,99.15c0,.24-.19.43-.43.43s-.43-.19-.43-.43.19-.43.43-.43.43.19.43.43Z"/>
      <polygon class="cls-3-5-2" points="20.86 103.79 19.32 103.79 19.32 104.33 17.94 104.33 17.94 104.88 16.6 104.88 16.6 105.42 15.26 105.42 15.26 105.97 13.92 105.97 13.92 106.52 13.07 106.52 13.07 107.22 14.7 107.22 14.7 106.65 16.03 106.65 16.03 106.1 17.37 106.1 17.37 105.56 18.71 105.56 18.71 105.01 20.04 105.01 20.04 104.48 20.86 104.48 20.86 103.79"/>
      <path class="cls-3-5-2" d="m18.82,101.8c-.32-.21-.63-.41-.67-.44.11-.54.21-1.03.26-1.33,0,0,.04-.27-.17-.31-.3-.06-.72.17-1.2.53-.05.04-.13.1-.16.21-.03.1-.14.69-.2.94-.02.09.03.19.13.21.09.02.18-.03.21-.13.07-.21.2-.65.22-.68.02-.04.21-.19.21-.19l-.36,3.66c0,.11.09.19.19.21.12.01.22-.08.24-.2,0,0,.24-1.06.47-2.15l.41.19-.21,1.06c-.03.1.02.21.12.25.1.03.21-.02.25-.12,0,0,.37-.9.42-1.06.05-.17.18-.43-.15-.64Z"/>
      <g>
        <path class="cls-3-5-2" d="m15.05,100.36c0,.24-.19.43-.43.43s-.43-.19-.43-.43.19-.43.43-.43.43.19.43.43Z"/>
        <path class="cls-3-5-2" d="m16.02,102.83s-.06-.47-.12-.76c-.02-.07-.04-.13-.09-.22-.17-.29-.41-.63-.63-.75-.35-.18-.69-.08-.86.2-.17.3-.39.78-1,1.18-.08.05-.14.12-.11.21.03.09.12.14.21.11.01,0,.02,0,.03-.01.13-.06.65-.3.83-.59l-.15,3.28c-.01.12.07.23.19.25.12.01.22-.08.24-.2l.68-3.63s.22.18.27.33c.04.1.11.39.16.65,0,0,0,0,0,0,.02.1.1.16.19.15.09-.01.16-.1.15-.19Z"/>
        <path class="cls-3-5-2" d="m16.1,104.33l-1.21-.98-.1.7,1.06.61c.09.07.22.05.29-.04.07-.09.05-.22-.04-.29Z"/>
      </g>
    </g>
    <line class="cls-1-5-2" x1="103.88" y1=".68" x2="103.88" y2="94.53"/>
    <rect class="cls-2-5-2" x="103.88" y=".68" width="143.67" height="93.84"/>
  </g>
</svg>