<?xml version="1.0" encoding="UTF-8"?>
<svg xmlns="http://www.w3.org/2000/svg" viewBox="0 0 224.31 137.11">
  <defs>
    <style>
      .cls-1-5-4 {
        fill: none;
      }

      .cls-1-5-4, .cls-2-5-4 {
        stroke: #231815;
        stroke-miterlimit: 10;
      }

      .cls-3-5-4, .cls-4-5-4, .cls-5-5-4, .cls-6-5-4, .cls-7-5-4 {
        stroke-width: 0px;
      }

      .cls-3-5-4, .cls-2-5-4 {
        fill: #231815;
      }

      .cls-4-5-4 {
        opacity: .2;
      }

      .cls-4-5-4, .cls-6-5-4 {
        fill: #761923;
      }

      .cls-5-5-4 {
        fill: #bc2021;
      }

      .cls-8-5-4 {
        font-size: 6px;
      }

      .cls-8-5-4, .cls-9-5-4 {
        fill: #fff;
        font-family: KozGoPr6N-Regular-90ms-RKSJ-H, 'Kozuka Gothic Pr6N';
      }

      .cls-7-5-4 {
        fill: #2d3e69;
      }

      .cls-9-5-4 {
        font-size: 7px;
      }
    </style>
  </defs>
  <g id="_5401" data-name="5401">
    <rect class="cls-6-5-4" x="1.23" y="94.6" width="74.36" height="41.44"/>
    <text class="cls-9-5-4" transform="translate(24.41 117.21)"><tspan x="0" y="0">５４０１</tspan></text>
  </g>
  <g id="_5402" data-name="5402">
    <rect class="cls-6-5-4" x="75.59" y="94.67" width="74.36" height="41.44"/>
    <text class="cls-9-5-4" transform="translate(98.77 117.28)"><tspan x="0" y="0">５４０２</tspan></text>
  </g>
  <g id="_5403" data-name="5403">
    <rect class="cls-6-5-4" x="149.95" y="94.6" width="74.36" height="41.44"/>
    <text class="cls-9-5-4" transform="translate(173.13 117.22)"><tspan x="0" y="0">５４０３</tspan></text>
  </g>
  <g id="_5404" data-name="5404">
    <rect class="cls-6-5-4" x="165.42" y="30.67" width="58.9" height="37.51"/>
    <text class="cls-9-5-4" transform="translate(180.87 51.05)"><tspan x="0" y="0">５４０４</tspan></text>
  </g>
  <g id="_5405A" data-name="5405A">
    <rect class="cls-4-5-4" x="1.23" y="34.03" width="41.44" height="38.38"/>
  </g>
  <g id="_5405B" data-name="5405B">
    <rect class="cls-6-5-4" x="1.23" y=".71" width="41.44" height="32.88"/>
    <text class="cls-8-5-4" transform="translate(7.02 18.77)"><tspan x="0" y="0">５４０５B</tspan></text>
  </g>
  <g id="_レイヤー_1" data-name="レイヤー 1">
    <rect class="cls-1-5-4" x="74.3" y="70.78" width="6.94" height="19.14"/>
    <polygon class="cls-3-5-4" points="62.66 .99 62.66 17.53 107.97 17.53 107.97 30.3 199.52 30.3 199.52 17.53 199.52 15.65 199.52 .99 62.66 .99"/>
    <rect class="cls-1-5-4" x="205.83" y="68.1" width="18.48" height="2.68"/>
    <rect class="cls-1-5-4" x="205.83" y="89.92" width="18.48" height="4.59"/>
    <line class="cls-1-5-4" x1="205.83" y1="70.78" x2="205.83" y2="87.3"/>
    <line class="cls-1-5-4" x1="154.68" y1="81.15" x2="160.4" y2="81.15"/>
    <line class="cls-1-5-4" x1="139.73" y1="81.15" x2="151.05" y2="81.15"/>
    <line class="cls-1-5-4" x1="97.89" y1="81.15" x2="128.62" y2="81.15"/>
    <polyline class="cls-1-5-4" points="164.2 81.15 165.42 81.15 165.42 30.3 82.83 30.3 82.83 47.51"/>
    <polyline class="cls-1-5-4" points="154.68 81.15 158.82 81.15 158.82 71.79 149.68 71.79 149.68 81.15 151.05 81.15"/>
    <polyline class="cls-1-5-4" points="139.73 62.07 139.73 57.33 149.68 57.33"/>
    <polyline class="cls-1-5-4" points="139.73 66.12 139.73 81.15 149.68 81.15 149.68 30.3 139.73 30.3 139.73 54"/>
    <line class="cls-1-5-4" x1="149.68" y1="69.55" x2="139.73" y2="69.55"/>
    <line class="cls-1-5-4" x1="149.68" y1="35.25" x2="139.73" y2="35.25"/>
    <rect class="cls-1-5-4" x="105.94" y="30.3" width="22.67" height="50.85"/>
    <line class="cls-1-5-4" x1="71.24" y1="69.94" x2="59.71" y2="69.94"/>
    <line class="cls-1-5-4" x1="82.75" y1="81.15" x2="71.24" y2="81.15"/>
    <line class="cls-1-5-4" x1="60.81" y1="81.15" x2="60.81" y2="82.88"/>
    <line class="cls-1-5-4" x1="82.75" y1="30.3" x2="80.71" y2="30.3"/>
    <polyline class="cls-1-5-4" points="71.24 78.31 71.24 81.15 59.71 81.15 59.71 69.94 71.24 69.94 71.24 74.46"/>
    <polyline class="cls-1-5-4" points="71.24 67.1 71.24 69.94 59.71 69.94 59.71 58.72 71.24 58.72 71.24 63.24"/>
    <line class="cls-1-5-4" x1="82.83" y1="69.94" x2="94.35" y2="69.94"/>
    <polyline class="cls-1-5-4" points="82.83 61.56 82.83 58.72 94.35 58.72 94.35 69.94 82.83 69.94 82.83 65.42"/>
    <polyline class="cls-1-5-4" points="82.83 72.78 82.83 69.94 94.35 69.94 94.35 81.15 82.83 81.15 82.83 76.63"/>
    <polyline class="cls-1-5-4" points="82.83 50.35 82.83 47.51 94.35 47.51 94.35 58.72 82.83 58.72 82.83 54.2"/>
    <g>
      <path class="cls-7-5-4" d="m100.79,52.28c0,.36-.29.65-.65.65s-.65-.29-.65-.65.29-.65.65-.65.65.29.65.65Z"/>
      <path class="cls-7-5-4" d="m100.15,53.12c-.46,0-1.53.04-1.53.93v2.12c0,.14.1.26.24.26.14,0,.26-.1.26-.24l.12-1.29.13,4.8c0,.18.15.33.33.33s.33-.15.33-.33l.13-2.95.13,2.95c0,.18.15.33.33.33s.33-.15.33-.33l.13-4.8.12,1.29c0,.14.12.25.26.24s.25-.12.24-.26v-2.12c0-.89-1.08-.93-1.53-.93Z"/>
    </g>
    <g>
      <path class="cls-5-5-4" d="m157.44,52.81c.36,0,.64-.29.64-.64s-.29-.64-.64-.64-.64.29-.64.64.29.64.64.64Z"/>
      <path class="cls-5-5-4" d="m159.28,55.9l-.51-1.87c-.21-.86-.88-.99-1.34-.99s-1.13.13-1.34.99l-.51,1.87c-.05.13.01.27.14.32.13.05.27-.01.32-.14l.51-1.42.12.65-.63,2h.93s.05.62.05.62l.07,1.68c0,.18.15.33.33.33s.33-.15.33-.33l.07-1.68.05-.62h.93s-.63-2-.63-2l.12-.65.51,1.42c.05.13.19.19.32.14.13-.05.19-.19.14-.32Z"/>
    </g>
    <g>
      <path class="cls-3-5-4" d="m67.36,45.76c0,.24-.19.43-.43.43s-.43-.19-.43-.43.19-.43.43-.43.43.19.43.43Z"/>
      <polygon class="cls-3-5-4" points="69.49 50.4 67.95 50.4 67.95 50.95 66.57 50.95 66.57 51.5 65.24 51.5 65.24 52.04 63.9 52.04 63.9 52.59 62.56 52.59 62.56 53.14 61.71 53.14 61.71 53.84 63.34 53.84 63.34 53.27 64.66 53.27 64.66 52.72 66 52.72 66 52.17 67.34 52.17 67.34 51.63 68.68 51.63 68.68 51.1 69.49 51.1 69.49 50.4"/>
      <path class="cls-3-5-4" d="m67.45,48.41c-.32-.21-.63-.41-.67-.44.11-.54.21-1.03.26-1.33,0,0,.04-.27-.17-.31-.3-.06-.72.17-1.2.53-.05.04-.13.1-.16.21-.03.1-.14.69-.2.94-.02.09.03.19.13.21.09.02.18-.03.21-.13.07-.21.2-.65.22-.68.02-.04.21-.19.21-.19l-.36,3.66c0,.11.09.19.19.21.12.01.22-.08.24-.2,0,0,.24-1.06.47-2.15l.41.19-.21,1.06c-.03.1.02.21.12.25.1.03.21-.02.25-.12,0,0,.37-.9.42-1.06.05-.17.18-.43-.15-.64Z"/>
      <g>
        <path class="cls-3-5-4" d="m63.68,46.98c0,.24-.19.43-.43.43s-.43-.19-.43-.43.19-.43.43-.43.43.19.43.43Z"/>
        <path class="cls-3-5-4" d="m64.65,49.44s-.06-.47-.12-.76c-.02-.07-.04-.13-.09-.22-.17-.29-.41-.63-.63-.75-.35-.18-.69-.08-.86.2-.17.3-.39.78-1,1.18-.08.05-.14.12-.11.21.03.09.12.14.21.11.01,0,.02,0,.03-.01.13-.06.65-.3.83-.59l-.15,3.28c-.01.12.07.23.19.25.12.01.22-.08.24-.2l.68-3.63s.22.18.27.33c.04.1.11.39.16.65,0,0,0,0,0,0,.02.1.1.16.19.15.09-.01.16-.1.15-.19Z"/>
        <path class="cls-3-5-4" d="m64.73,50.95l-1.21-.98-.1.7,1.06.61c.09.07.22.05.29-.04.07-.09.05-.22-.04-.29Z"/>
      </g>
    </g>
    <g>
      <g>
        <path class="cls-3-5-4" d="m87.67,52.79c0,.19-.16.35-.35.35s-.35-.16-.35-.35.16-.35.35-.35.35.16.35.35Z"/>
        <path class="cls-3-5-4" d="m87.32,53.23c-.25,0-.83.02-.83.5v1.14c0,.07.05.14.13.14.07,0,.14-.05.14-.13l.06-.69.07,2.58c0,.1.08.18.18.18s.18-.08.18-.18l.07-1.59.07,1.59c0,.1.08.18.18.18s.18-.08.18-.18l.07-2.58.06.69c0,.07.07.13.14.13.07,0,.13-.07.13-.14v-1.14c0-.48-.58-.5-.83-.5Z"/>
      </g>
      <g>
        <path class="cls-3-5-4" d="m89.79,52.79c0,.19-.16.35-.35.35s-.35-.16-.35-.35.16-.35.35-.35.35.16.35.35Z"/>
        <path class="cls-3-5-4" d="m89.44,53.23c-.25,0-.83.02-.83.5v1.14c0,.07.05.14.13.14.07,0,.14-.05.14-.13l.06-.69.07,2.58c0,.1.08.18.18.18s.18-.08.18-.18l.07-1.59.07,1.59c0,.1.08.18.18.18s.18-.08.18-.18l.07-2.58.06.69c0,.07.07.13.14.13.07,0,.13-.07.13-.14v-1.14c0-.48-.58-.5-.83-.5Z"/>
      </g>
      <path class="cls-3-5-4" d="m90.65,57.2h-4.55c-.35,0-.63-.28-.63-.63v-4.87c0-.35.28-.63.63-.63h4.55c.35,0,.63.28.63.63v4.87c0,.35-.28.63-.63.63Zm-4.55-5.73c-.13,0-.23.1-.23.23v4.87c0,.13.1.23.23.23h4.55c.13,0,.23-.1.23-.23v-4.87c0-.13-.1-.23-.23-.23h-4.55Z"/>
      <path class="cls-3-5-4" d="m90.43,49.77l-.78-.78h0s-.12-.12-.12-.12l-.12.12h0s-.78.78-.78.78c-.07.07-.07.18,0,.25.07.07.18.07.25,0l.47-.48v1.07c0,.1.08.18.18.18s.18-.08.18-.18v-1.07s.48.48.48.48c.03.03.08.05.12.05s.09-.02.12-.05c.07-.07.07-.18,0-.25Z"/>
      <path class="cls-3-5-4" d="m88.22,49.71c-.07-.07-.18-.07-.25,0l-.48.48v-1.07c0-.1-.08-.18-.18-.18s-.18.08-.18.18v1.07s-.48-.48-.48-.48c-.07-.07-.18-.07-.25,0-.07.07-.07.18,0,.25l.78.78h0s.12.12.12.12l.12-.12h0s.78-.78.78-.78c.07-.07.07-.18,0-.25Z"/>
    </g>
    <line class="cls-1-5-4" x1="71.24" y1="74.46" x2="71.24" y2="67.1"/>
    <polyline class="cls-1-5-4" points="59.71 81.15 71.24 81.15 71.24 78.31"/>
    <line class="cls-1-5-4" x1="71.24" y1="63.24" x2="71.24" y2="58.72"/>
    <g>
      <g>
        <path class="cls-3-5-4" d="m87.66,64.09c0,.19-.16.35-.35.35s-.35-.16-.35-.35.16-.35.35-.35.35.16.35.35Z"/>
        <path class="cls-3-5-4" d="m87.31,64.52c-.25,0-.83.02-.83.51v1.16c0,.08.05.14.13.14.08,0,.14-.05.14-.13l.06-.7.07,2.61c0,.1.08.18.18.18s.18-.08.18-.18l.07-1.61.07,1.61c0,.1.08.18.18.18s.18-.08.18-.18l.07-2.61.06.7c0,.08.07.13.14.13.08,0,.13-.07.13-.14v-1.16c0-.48-.58-.51-.83-.51Z"/>
      </g>
      <g>
        <path class="cls-3-5-4" d="m89.8,64.09c0,.19-.16.35-.35.35s-.35-.16-.35-.35.16-.35.35-.35.35.16.35.35Z"/>
        <path class="cls-3-5-4" d="m89.45,64.52c-.25,0-.83.02-.83.51v1.16c0,.08.05.14.13.14.08,0,.14-.05.14-.13l.06-.7.07,2.61c0,.1.08.18.18.18s.18-.08.18-.18l.07-1.61.07,1.61c0,.1.08.18.18.18s.18-.08.18-.18l.07-2.61.06.7c0,.08.07.13.14.13.08,0,.13-.07.13-.14v-1.16c0-.48-.58-.51-.83-.51Z"/>
      </g>
      <path class="cls-3-5-4" d="m90.68,68.54h-4.59c-.35,0-.64-.29-.64-.64v-4.92c0-.35.29-.64.64-.64h4.59c.35,0,.64.29.64.64v4.92c0,.35-.29.64-.64.64Zm-4.59-5.8c-.13,0-.24.11-.24.24v4.92c0,.13.11.24.24.24h4.59c.13,0,.24-.11.24-.24v-4.92c0-.13-.11-.24-.24-.24h-4.59Z"/>
      <path class="cls-3-5-4" d="m90.45,61.03l-.78-.78h0s-.13-.13-.13-.13l-.13.13h0s-.78.78-.78.78c-.07.07-.07.18,0,.25.07.07.18.07.25,0l.48-.48v1.08c0,.1.08.18.18.18s.18-.08.18-.18v-1.08s.48.48.48.48c.03.03.08.05.13.05s.09-.02.13-.05c.07-.07.07-.18,0-.25Z"/>
      <path class="cls-3-5-4" d="m88.22,60.97c-.07-.07-.18-.07-.25,0l-.48.48v-1.08c0-.1-.08-.18-.18-.18s-.18.08-.18.18v1.08s-.48-.48-.48-.48c-.07-.07-.18-.07-.25,0-.07.07-.07.18,0,.25l.78.78h0s.13.13.13.13l.13-.13h0s.78-.78.78-.78c.07-.07.07-.18,0-.25Z"/>
    </g>
    <g>
      <g>
        <path class="cls-3-5-4" d="m87.66,75.3c0,.19-.16.35-.35.35s-.35-.16-.35-.35.16-.35.35-.35.35.16.35.35Z"/>
        <path class="cls-3-5-4" d="m87.31,75.74c-.25,0-.83.02-.83.51v1.16c0,.08.05.14.13.14.08,0,.14-.05.14-.13l.06-.7.07,2.61c0,.1.08.18.18.18s.18-.08.18-.18l.07-1.61.07,1.61c0,.1.08.18.18.18s.18-.08.18-.18l.07-2.61.06.7c0,.08.07.13.14.13.08,0,.13-.07.13-.14v-1.16c0-.48-.58-.51-.83-.51Z"/>
      </g>
      <g>
        <path class="cls-3-5-4" d="m89.8,75.3c0,.19-.16.35-.35.35s-.35-.16-.35-.35.16-.35.35-.35.35.16.35.35Z"/>
        <path class="cls-3-5-4" d="m89.45,75.74c-.25,0-.83.02-.83.51v1.16c0,.08.05.14.13.14.08,0,.14-.05.14-.13l.06-.7.07,2.61c0,.1.08.18.18.18s.18-.08.18-.18l.07-1.61.07,1.61c0,.1.08.18.18.18s.18-.08.18-.18l.07-2.61.06.7c0,.08.07.13.14.13.08,0,.13-.07.13-.14v-1.16c0-.48-.58-.51-.83-.51Z"/>
      </g>
      <path class="cls-3-5-4" d="m90.68,79.75h-4.59c-.35,0-.64-.29-.64-.64v-4.92c0-.35.29-.64.64-.64h4.59c.35,0,.64.29.64.64v4.92c0,.35-.29.64-.64.64Zm-4.59-5.8c-.13,0-.24.11-.24.24v4.92c0,.13.11.24.24.24h4.59c.13,0,.24-.11.24-.24v-4.92c0-.13-.11-.24-.24-.24h-4.59Z"/>
      <path class="cls-3-5-4" d="m90.45,72.25l-.78-.78h0s-.13-.13-.13-.13l-.13.13h0s-.78.78-.78.78c-.07.07-.07.18,0,.25.07.07.18.07.25,0l.48-.48v1.08c0,.1.08.18.18.18s.18-.08.18-.18v-1.08s.48.48.48.48c.03.03.08.05.13.05s.09-.02.13-.05c.07-.07.07-.18,0-.25Z"/>
      <path class="cls-3-5-4" d="m88.22,72.19c-.07-.07-.18-.07-.25,0l-.48.48v-1.08c0-.1-.08-.18-.18-.18s-.18.08-.18.18v1.08s-.48-.48-.48-.48c-.07-.07-.18-.07-.25,0-.07.07-.07.18,0,.25l.78.78h0s.13.13.13.13l.13-.13h0s.78-.78.78-.78c.07-.07.07-.18,0-.25Z"/>
    </g>
    <g>
      <g>
        <path class="cls-3-5-4" d="m64.87,63.77c0,.2-.16.35-.35.35s-.35-.16-.35-.35.16-.35.35-.35.35.16.35.35Z"/>
        <path class="cls-3-5-4" d="m64.52,64.21c-.25,0-.84.02-.84.51v1.17c0,.08.06.14.13.14.08,0,.14-.06.14-.13l.07-.71.07,2.64c0,.1.08.18.18.18s.18-.08.18-.18l.07-1.62.07,1.62c0,.1.08.18.18.18s.18-.08.18-.18l.07-2.64.07.71c0,.08.07.13.14.13.08,0,.13-.07.13-.14v-1.17c0-.49-.59-.51-.84-.51Z"/>
      </g>
      <g>
        <path class="cls-3-5-4" d="m67.04,63.77c0,.2-.16.35-.35.35s-.35-.16-.35-.35.16-.35.35-.35.35.16.35.35Z"/>
        <path class="cls-3-5-4" d="m66.68,64.21c-.25,0-.84.02-.84.51v1.17c0,.08.06.14.13.14.08,0,.14-.06.14-.13l.07-.71.07,2.64c0,.1.08.18.18.18s.18-.08.18-.18l.07-1.62.07,1.62c0,.1.08.18.18.18s.18-.08.18-.18l.07-2.64.07.71c0,.08.07.13.14.13.08,0,.13-.07.13-.14v-1.17c0-.49-.59-.51-.84-.51Z"/>
      </g>
      <path class="cls-3-5-4" d="m67.92,68.27h-4.64c-.36,0-.65-.29-.65-.65v-4.97c0-.36.29-.65.65-.65h4.64c.36,0,.65.29.65.65v4.97c0,.36-.29.65-.65.65Zm-4.64-5.86c-.13,0-.24.11-.24.24v4.97c0,.13.11.24.24.24h4.64c.13,0,.24-.11.24-.24v-4.97c0-.13-.11-.24-.24-.24h-4.64Z"/>
      <path class="cls-3-5-4" d="m67.69,60.69l-.79-.79h0s-.13-.13-.13-.13l-.13.13h0s-.79.79-.79.79c-.07.07-.07.18,0,.25.07.07.18.07.25,0l.49-.49v1.09c0,.1.08.18.18.18s.18-.08.18-.18v-1.09s.49.49.49.49c.04.04.08.05.13.05s.09-.02.13-.05c.07-.07.07-.18,0-.25Z"/>
      <path class="cls-3-5-4" d="m65.43,60.63c-.07-.07-.18-.07-.25,0l-.49.49v-1.09c0-.1-.08-.18-.18-.18s-.18.08-.18.18v1.09s-.49-.49-.49-.49c-.07-.07-.18-.07-.25,0-.07.07-.07.18,0,.25l.79.79h0s.13.13.13.13l.13-.13h0s.79-.79.79-.79c.07-.07.07-.18,0-.25Z"/>
    </g>
    <g>
      <g>
        <path class="cls-3-5-4" d="m64.87,75.68c0,.2-.16.35-.35.35s-.35-.16-.35-.35.16-.35.35-.35.35.16.35.35Z"/>
        <path class="cls-3-5-4" d="m64.52,76.12c-.25,0-.84.02-.84.51v1.17c0,.08.06.14.13.14.08,0,.14-.06.14-.13l.07-.71.07,2.64c0,.1.08.18.18.18s.18-.08.18-.18l.07-1.62.07,1.62c0,.1.08.18.18.18s.18-.08.18-.18l.07-2.64.07.71c0,.08.07.13.14.13.08,0,.13-.07.13-.14v-1.17c0-.49-.59-.51-.84-.51Z"/>
      </g>
      <g>
        <path class="cls-3-5-4" d="m67.04,75.68c0,.2-.16.35-.35.35s-.35-.16-.35-.35.16-.35.35-.35.35.16.35.35Z"/>
        <path class="cls-3-5-4" d="m66.68,76.12c-.25,0-.84.02-.84.51v1.17c0,.08.06.14.13.14.08,0,.14-.06.14-.13l.07-.71.07,2.64c0,.1.08.18.18.18s.18-.08.18-.18l.07-1.62.07,1.62c0,.1.08.18.18.18s.18-.08.18-.18l.07-2.64.07.71c0,.08.07.13.14.13.08,0,.13-.07.13-.14v-1.17c0-.49-.59-.51-.84-.51Z"/>
      </g>
      <path class="cls-3-5-4" d="m67.92,80.18h-4.64c-.36,0-.65-.29-.65-.65v-4.97c0-.36.29-.65.65-.65h4.64c.36,0,.65.29.65.65v4.97c0,.36-.29.65-.65.65Zm-4.64-5.86c-.13,0-.24.11-.24.24v4.97c0,.13.11.24.24.24h4.64c.13,0,.24-.11.24-.24v-4.97c0-.13-.11-.24-.24-.24h-4.64Z"/>
      <path class="cls-3-5-4" d="m67.69,72.59l-.79-.79h0s-.13-.13-.13-.13l-.13.13h0s-.79.79-.79.79c-.07.07-.07.18,0,.25.07.07.18.07.25,0l.49-.49v1.09c0,.1.08.18.18.18s.18-.08.18-.18v-1.09s.49.49.49.49c.04.04.08.05.13.05s.09-.02.13-.05c.07-.07.07-.18,0-.25Z"/>
      <path class="cls-3-5-4" d="m65.43,72.53c-.07-.07-.18-.07-.25,0l-.49.49v-1.09c0-.1-.08-.18-.18-.18s-.18.08-.18.18v1.09s-.49-.49-.49-.49c-.07-.07-.18-.07-.25,0-.07.07-.07.18,0,.25l.79.79h0s.13.13.13.13l.13-.13h0s.79-.79.79-.79c.07-.07.07-.18,0-.25Z"/>
    </g>
    <polyline class="cls-1-5-4" points="71.24 54.93 71.24 40.08 59.71 40.08 59.71 58.72 71.24 58.72"/>
    <polyline class="cls-1-5-4" points="107.97 30.3 107.97 17.53 85.08 17.53 85.08 24.15"/>
    <polyline class="cls-1-5-4" points="85.08 24.15 85.08 9.63 85.08 9.63 85.08 2.98 85.08 2.98 85.08 .99 199.52 .99 199.52 30.3 85.08 30.3"/>
    <g>
      <path class="cls-3-5-4" d="m98.88,20.33c0,.24-.19.43-.43.43s-.43-.19-.43-.43.19-.43.43-.43.43.19.43.43Z"/>
      <polygon class="cls-3-5-4" points="101.01 24.97 99.47 24.97 99.47 25.52 98.09 25.52 98.09 26.07 96.75 26.06 96.75 26.61 95.42 26.61 95.42 27.16 94.08 27.16 94.08 27.71 93.23 27.71 93.23 28.41 94.86 28.41 94.86 27.84 96.18 27.84 96.18 27.29 97.52 27.29 97.52 26.74 98.86 26.74 98.86 26.2 100.2 26.2 100.2 25.67 101.01 25.67 101.01 24.97"/>
      <path class="cls-3-5-4" d="m98.97,22.98c-.32-.21-.63-.41-.67-.44.11-.54.21-1.03.26-1.33,0,0,.04-.27-.17-.31-.3-.06-.72.17-1.2.53-.05.04-.13.1-.16.21-.03.1-.14.69-.2.94-.02.09.03.19.13.21.09.02.18-.03.21-.13.07-.21.2-.65.22-.68.02-.04.21-.19.21-.19l-.36,3.66c0,.11.09.19.19.21.12.01.22-.08.24-.2,0,0,.24-1.06.47-2.15l.41.19-.21,1.06c-.03.1.02.21.12.25.1.03.21-.02.25-.12,0,0,.37-.9.42-1.06.05-.17.18-.43-.15-.64Z"/>
      <g>
        <path class="cls-3-5-4" d="m95.2,21.55c0,.24-.19.43-.43.43s-.43-.19-.43-.43.19-.43.43-.43.43.19.43.43Z"/>
        <path class="cls-3-5-4" d="m96.17,24.01s-.06-.47-.12-.76c-.02-.07-.04-.13-.09-.22-.17-.29-.41-.63-.63-.75-.35-.18-.69-.08-.86.2-.17.3-.39.78-1,1.18-.08.05-.14.12-.11.21.03.09.12.14.21.11.01,0,.02,0,.03-.01.13-.06.65-.3.83-.59l-.15,3.28c-.01.12.07.23.19.25.12.01.22-.08.24-.2l.68-3.63s.22.18.27.33c.04.1.11.39.16.65,0,0,0,0,0,0,.02.1.1.16.19.15.09-.01.16-.1.15-.19Z"/>
        <path class="cls-3-5-4" d="m96.25,25.52l-1.21-.98-.1.7,1.06.61c.09.07.22.05.29-.04.07-.09.05-.22-.04-.29Z"/>
      </g>
    </g>
    <g>
      <path class="cls-3-5-4" d="m146.45,43.07c0,.24-.19.43-.43.43s-.43-.19-.43-.43.19-.43.43-.43.43.19.43.43Z"/>
      <polygon class="cls-3-5-4" points="148.56 47.66 147.03 47.66 147.03 48.2 145.67 48.2 145.67 48.74 144.34 48.74 144.34 49.28 143.02 49.28 143.02 49.82 141.69 49.82 141.69 50.37 140.85 50.37 140.85 51.06 142.47 51.06 142.47 50.5 143.78 50.5 143.78 49.96 145.1 49.96 145.1 49.42 146.43 49.42 146.43 48.87 147.75 48.88 147.75 48.35 148.56 48.35 148.56 47.66"/>
      <path class="cls-3-5-4" d="m146.54,45.69c-.31-.21-.62-.41-.66-.44.11-.54.21-1.02.26-1.31,0,0,.04-.26-.17-.31-.3-.06-.72.17-1.19.52-.05.04-.13.1-.16.21-.02.1-.14.68-.2.93-.02.09.03.19.12.21.09.02.18-.03.21-.12.07-.2.2-.64.22-.68.02-.04.21-.19.21-.19l-.36,3.62c0,.11.08.19.19.2.12.01.22-.08.23-.2,0,0,.23-1.05.47-2.13l.4.19-.21,1.05c-.03.1.02.21.12.25.1.03.21-.02.25-.12,0,0,.37-.89.42-1.05.05-.16.18-.42-.15-.64Z"/>
      <g>
        <path class="cls-3-5-4" d="m142.81,44.28c0,.24-.19.43-.43.43s-.43-.19-.43-.43.19-.43.43-.43.43.19.43.43Z"/>
        <path class="cls-3-5-4" d="m143.77,46.71s-.06-.47-.12-.76c-.02-.07-.04-.13-.09-.21-.17-.29-.4-.63-.62-.74-.34-.18-.69-.08-.85.2-.17.29-.39.78-.98,1.16-.08.04-.13.12-.11.21.03.09.12.13.21.11.01,0,.02,0,.03-.01.13-.06.65-.3.82-.58l-.15,3.25c-.01.12.07.23.19.24.12.01.22-.08.23-.2l.67-3.6s.21.18.27.32c.04.1.11.38.16.65,0,0,0,0,0,0,.02.1.1.16.19.14.09-.01.16-.1.14-.19Z"/>
        <path class="cls-3-5-4" d="m143.85,48.2l-1.2-.97-.1.7,1.05.6c.09.07.22.05.29-.04.07-.09.05-.22-.04-.29Z"/>
      </g>
    </g>
    <g>
      <g>
        <path class="cls-3-5-4" d="m143.83,63.25c0,.19-.16.35-.35.35s-.35-.16-.35-.35.16-.35.35-.35.35.16.35.35Z"/>
        <path class="cls-3-5-4" d="m143.48,63.69c-.25,0-.83.02-.83.51v1.16c0,.08.05.14.13.14.08,0,.14-.05.14-.13l.06-.7.07,2.61c0,.1.08.18.18.18s.18-.08.18-.18l.07-1.61.07,1.61c0,.1.08.18.18.18s.18-.08.18-.18l.07-2.61.06.7c0,.08.07.13.14.13.08,0,.13-.07.13-.14v-1.16c0-.48-.58-.51-.83-.51Z"/>
      </g>
      <g>
        <path class="cls-3-5-4" d="m145.97,63.25c0,.19-.16.35-.35.35s-.35-.16-.35-.35.16-.35.35-.35.35.16.35.35Z"/>
        <path class="cls-3-5-4" d="m145.62,63.69c-.25,0-.83.02-.83.51v1.16c0,.08.05.14.13.14.08,0,.14-.05.14-.13l.06-.7.07,2.61c0,.1.08.18.18.18s.18-.08.18-.18l.07-1.61.07,1.61c0,.1.08.18.18.18s.18-.08.18-.18l.07-2.61.06.7c0,.08.07.13.14.13.08,0,.13-.07.13-.14v-1.16c0-.48-.58-.51-.83-.51Z"/>
      </g>
      <path class="cls-3-5-4" d="m146.85,67.7h-4.59c-.35,0-.64-.29-.64-.64v-4.92c0-.35.29-.64.64-.64h4.59c.35,0,.64.29.64.64v4.92c0,.35-.29.64-.64.64Zm-4.59-5.8c-.13,0-.24.11-.24.24v4.92c0,.13.11.24.24.24h4.59c.13,0,.24-.11.24-.24v-4.92c0-.13-.11-.24-.24-.24h-4.59Z"/>
      <path class="cls-3-5-4" d="m146.62,60.2l-.78-.78h0s-.13-.13-.13-.13l-.13.13h0s-.78.78-.78.78c-.07.07-.07.18,0,.25.07.07.18.07.25,0l.48-.48v1.08c0,.1.08.18.18.18s.18-.08.18-.18v-1.08s.48.48.48.48c.03.03.08.05.13.05s.09-.02.13-.05c.07-.07.07-.18,0-.25Z"/>
      <path class="cls-3-5-4" d="m144.39,60.14c-.07-.07-.18-.07-.25,0l-.48.48v-1.08c0-.1-.08-.18-.18-.18s-.18.08-.18.18v1.08s-.48-.48-.48-.48c-.07-.07-.18-.07-.25,0-.07.07-.07.18,0,.25l.78.78h0s.13.13.13.13l.13-.13h0s.78-.78.78-.78c.07-.07.07-.18,0-.25Z"/>
    </g>
    <g>
      <path class="cls-3-5-4" d="m213.4,77.37c0,.24-.19.43-.43.43s-.43-.19-.43-.43.19-.43.43-.43.43.19.43.43Z"/>
      <polygon class="cls-3-5-4" points="215.51 81.96 213.98 81.96 213.98 82.51 212.62 82.51 212.62 83.05 211.29 83.05 211.29 83.59 209.97 83.59 209.97 84.13 208.65 84.13 208.64 84.67 207.8 84.67 207.8 85.36 209.42 85.36 209.42 84.8 210.73 84.8 210.73 84.26 212.05 84.26 212.05 83.72 213.38 83.72 213.38 83.18 214.7 83.18 214.7 82.66 215.51 82.66 215.51 81.96"/>
      <path class="cls-3-5-4" d="m213.49,79.99c-.31-.21-.62-.41-.66-.44.11-.54.21-1.02.26-1.31,0,0,.04-.26-.17-.31-.3-.06-.72.17-1.19.52-.05.04-.13.1-.16.21-.02.1-.14.68-.2.93-.02.09.03.19.12.21.09.02.18-.03.21-.12.07-.2.2-.64.22-.68.02-.04.21-.19.21-.19l-.36,3.62c0,.11.08.19.19.2.12.01.22-.08.23-.2,0,0,.23-1.05.47-2.13l.4.19-.21,1.05c-.03.1.02.21.12.25.1.03.21-.02.25-.12,0,0,.37-.89.42-1.05.05-.16.18-.42-.15-.64Z"/>
      <g>
        <path class="cls-3-5-4" d="m209.76,78.58c0,.24-.19.43-.43.43s-.43-.19-.43-.43.19-.43.43-.43.43.19.43.43Z"/>
        <path class="cls-3-5-4" d="m210.72,81.02s-.06-.47-.12-.76c-.02-.07-.04-.13-.09-.21-.17-.29-.4-.63-.62-.74-.34-.18-.69-.08-.85.2-.17.29-.39.78-.98,1.16-.08.04-.13.12-.11.21.03.09.12.13.21.11.01,0,.02,0,.03-.01.13-.06.65-.3.82-.58l-.15,3.25c-.01.12.07.23.19.24.12.01.22-.08.23-.2l.67-3.6s.21.18.27.32c.04.1.11.38.16.65,0,0,0,0,0,0,.02.1.1.16.19.14.09-.01.16-.1.14-.19Z"/>
        <path class="cls-3-5-4" d="m210.8,82.51l-1.2-.97-.1.7,1.05.6c.09.07.22.05.29-.04.07-.09.05-.22-.04-.29Z"/>
      </g>
    </g>
    <rect class="cls-2-5-4" x="59.71" y="30.3" width="11.52" height="9.78"/>
    <line class="cls-1-5-4" x1="42.66" y1="39.22" x2="42.66" y2="61.75"/>
    <rect class="cls-1-5-4" x="1.23" y="94.51" width="74.36" height="41.96"/>
    <rect class="cls-1-5-4" x="75.59" y="94.51" width="74.36" height="41.96"/>
    <rect class="cls-1-5-4" x="149.95" y="94.51" width="74.36" height="41.96"/>
    <polyline class="cls-1-5-4" points="205.83 68.1 224.31 68.1 224.31 30.3 165.42 30.3 165.42 68.1"/>
    <line class="cls-1-5-4" x1="168.95" y1="68.1" x2="202.32" y2="68.1"/>
    <polyline class="cls-1-5-4" points="224.31 94.51 224.31 136.48 56.14 136.48 1.23 136.48 1.23 82.21 1.23 30.3 1.23 .99 85.08 .99"/>
    <line class="cls-1-5-4" x1="42.66" y1="6.34" x2="42.66" y2="25.03"/>
    <polyline class="cls-1-5-4" points="42.66 67.1 42.66 72.58 1.23 72.58 1.23 33.87 42.66 33.87 42.66 30.3"/>
  </g>
</svg>