<?xml version="1.0" encoding="UTF-8"?>
<svg xmlns="http://www.w3.org/2000/svg" viewBox="0 0 226.88 139.57">
  <defs>
    <style>
      .cls-1-5-5, .cls-2-5-5, .cls-3-5-5, .cls-4-5-5 {
        stroke: #231815;
        stroke-miterlimit: 10;
      }

      .cls-1-5-5, .cls-3-5-5, .cls-4-5-5 {
        fill: none;
      }

      .cls-5-5-5, .cls-6-5-5, .cls-7-5-5, .cls-8-5-5, .cls-9-5-5 {
        stroke-width: 0px;
      }

      .cls-5-5-5, .cls-2-5-5 {
        fill: #231815;
      }

      .cls-6-5-5 {
        opacity: .2;
      }

      .cls-6-5-5, .cls-8-5-5 {
        fill: #761923;
      }

      .cls-7-5-5 {
        fill: #bc2021;
      }

      .cls-3-5-5 {
        stroke-width: .82px;
      }

      .cls-10-5-5 {
        fill: #fff;
        font-family: KozGoPr6N-Regular-90ms-RKSJ-H, 'Kozuka Gothic Pr6N';
        font-size: 8px;
      }

      .cls-9-5-5 {
        fill: #2d3e69;
      }

      .cls-4-5-5 {
        stroke-width: .82px;
      }
    </style>
  </defs>
  <g id="_5501" data-name="5501">
    <rect class="cls-8-5-5" x="1.67" y="96.29" width="74.36" height="41.44"/>
    <text class="cls-10-5-5" transform="translate(22.85 118.97)"><tspan x="0" y="0">５５０１</tspan></text>
  </g>
  <g id="_5502" data-name="5502">
    <rect class="cls-8-5-5" x="75.18" y="96.43" width="49.52" height="41.44"/>
    <text class="cls-10-5-5" transform="translate(85.21 118.81)"><tspan x="0" y="0">５５０２</tspan></text>
  </g>
  <g id="_5503A" data-name="5503A">
    <rect class="cls-8-5-5" x="124.57" y="96.43" width="51.5" height="41.44"/>
    <text class="cls-10-5-5" transform="translate(131.79 119.14)"><tspan x="0" y="0">５５０３A</tspan></text>
  </g>
  <g id="_5505" data-name="5505">
    <rect class="cls-8-5-5" x="1.67" y="2.06" width="41.44" height="71.86"/>
    <text class="cls-10-5-5" transform="translate(6.39 40.15)"><tspan x="0" y="0">５５０５</tspan></text>
  </g>
  <g id="_レイヤー_4" data-name="レイヤー 4">
    <polygon class="cls-5-5-5" points="63.11 2.64 63.11 19.18 108.41 19.18 108.41 31.95 199.96 31.95 199.96 19.18 199.96 17.29 199.96 2.64 63.11 2.64"/>
    <rect class="cls-6-5-5" x="175.13" y="96.43" width="49.14" height="41.44"/>
    <rect class="cls-6-5-5" x="165.86" y="32.24" width="58.9" height="37.51"/>
    <rect class="cls-1-5-5" x="206.28" y="69.75" width="18.48" height="2.68"/>
    <rect class="cls-1-5-5" x="217.82" y="72.43" width="6.94" height="19.14"/>
    <rect class="cls-1-5-5" x="206.28" y="91.57" width="18.48" height="4.59"/>
    <line class="cls-1-5-5" x1="206.28" y1="72.43" x2="206.28" y2="88.95"/>
    <line class="cls-1-5-5" x1="155.13" y1="82.8" x2="160.84" y2="82.8"/>
    <line class="cls-1-5-5" x1="140.17" y1="82.8" x2="151.49" y2="82.8"/>
    <line class="cls-1-5-5" x1="98.33" y1="82.8" x2="129.06" y2="82.8"/>
    <polyline class="cls-1-5-5" points="164.64 82.8 165.86 82.8 165.86 31.95 83.27 31.95 83.27 49.16"/>
    <polyline class="cls-1-5-5" points="155.13 82.8 159.27 82.8 159.27 73.44 150.12 73.44 150.12 82.8 151.49 82.8"/>
    <polyline class="cls-1-5-5" points="140.17 63.72 140.17 58.98 150.12 58.98"/>
    <polyline class="cls-1-5-5" points="140.17 67.77 140.17 82.8 150.12 82.8 150.12 31.95 140.17 31.95 140.17 55.65"/>
    <line class="cls-1-5-5" x1="150.12" y1="71.2" x2="140.17" y2="71.2"/>
    <line class="cls-1-5-5" x1="150.12" y1="36.9" x2="140.17" y2="36.9"/>
    <rect class="cls-1-5-5" x="106.39" y="31.95" width="22.67" height="50.85"/>
    <line class="cls-1-5-5" x1="71.68" y1="71.59" x2="60.16" y2="71.59"/>
    <line class="cls-1-5-5" x1="83.19" y1="82.8" x2="71.68" y2="82.8"/>
    <line class="cls-1-5-5" x1="61.26" y1="82.8" x2="61.26" y2="84.53"/>
    <line class="cls-1-5-5" x1="83.19" y1="31.95" x2="81.15" y2="31.95"/>
    <polyline class="cls-1-5-5" points="71.68 79.96 71.68 82.8 60.16 82.8 60.16 71.59 71.68 71.59 71.68 76.11"/>
    <polyline class="cls-1-5-5" points="71.68 68.75 71.68 71.59 60.16 71.59 60.16 60.37 71.68 60.37 71.68 64.89"/>
    <line class="cls-1-5-5" x1="83.27" y1="71.59" x2="94.8" y2="71.59"/>
    <polyline class="cls-1-5-5" points="83.27 63.21 83.27 60.37 94.8 60.37 94.8 71.59 83.27 71.59 83.27 67.07"/>
    <polyline class="cls-1-5-5" points="83.27 74.43 83.27 71.59 94.8 71.59 94.8 82.8 83.27 82.8 83.27 78.28"/>
    <polyline class="cls-1-5-5" points="83.27 51.99 83.27 49.16 94.8 49.16 94.8 60.37 83.27 60.37 83.27 55.85"/>
    <g>
      <path class="cls-9-5-5" d="m101.24,53.92c0,.36-.29.65-.65.65s-.65-.29-.65-.65.29-.65.65-.65.65.29.65.65Z"/>
      <path class="cls-9-5-5" d="m100.59,54.77c-.46,0-1.53.04-1.53.93v2.12c0,.14.1.26.24.26.14,0,.26-.1.26-.24l.12-1.29.13,4.8c0,.18.15.33.33.33s.33-.15.33-.33l.13-2.95.13,2.95c0,.18.15.33.33.33s.33-.15.33-.33l.13-4.8.12,1.29c0,.14.12.25.26.24s.25-.12.24-.26v-2.12c0-.89-1.08-.93-1.53-.93Z"/>
    </g>
    <g>
      <path class="cls-7-5-5" d="m157.88,54.45c.36,0,.64-.29.64-.64s-.29-.64-.64-.64-.64.29-.64.64.29.64.64.64Z"/>
      <path class="cls-7-5-5" d="m159.73,57.55l-.51-1.87c-.21-.86-.88-.99-1.34-.99s-1.13.13-1.34.99l-.51,1.87c-.05.13.01.27.14.32.13.05.27-.01.32-.14l.51-1.42.12.65-.63,2h.93s.05.62.05.62l.07,1.68c0,.18.15.33.33.33s.33-.15.33-.33l.07-1.68.05-.62h.93s-.63-2-.63-2l.12-.65.51,1.42c.05.13.19.19.32.14.13-.05.19-.19.14-.32Z"/>
    </g>
    <g>
      <path class="cls-5-5-5" d="m67.79,47.45c0,.24-.19.43-.43.43s-.43-.19-.43-.43.19-.43.43-.43.43.19.43.43Z"/>
      <polygon class="cls-5-5-5" points="69.9 52.04 68.37 52.04 68.37 52.58 67.01 52.58 67.01 53.12 65.68 53.12 65.68 53.66 64.36 53.66 64.36 54.2 63.03 54.2 63.03 54.75 62.19 54.75 62.19 55.44 63.8 55.44 63.8 54.88 65.12 54.88 65.12 54.34 66.44 54.34 66.44 53.8 67.77 53.8 67.77 53.26 69.09 53.26 69.09 52.73 69.9 52.73 69.9 52.04"/>
      <path class="cls-5-5-5" d="m67.88,50.07c-.31-.21-.62-.41-.66-.44.11-.54.21-1.02.26-1.31,0,0,.04-.26-.17-.31-.3-.06-.72.17-1.19.52-.05.04-.13.1-.16.21-.02.1-.14.68-.2.93-.02.09.03.19.12.21.09.02.18-.03.21-.12.07-.2.2-.64.22-.68.02-.04.21-.19.21-.19l-.36,3.62c0,.11.08.19.19.2.12.01.22-.08.23-.2,0,0,.23-1.05.47-2.13l.4.19-.21,1.05c-.03.1.02.21.12.25.1.03.21-.02.25-.12,0,0,.37-.89.42-1.05.05-.16.18-.42-.15-.64Z"/>
      <g>
        <path class="cls-5-5-5" d="m64.15,48.66c0,.24-.19.43-.43.43s-.43-.19-.43-.43.19-.43.43-.43.43.19.43.43Z"/>
        <path class="cls-5-5-5" d="m65.11,51.09s-.06-.47-.12-.76c-.02-.07-.04-.13-.09-.21-.17-.29-.4-.63-.62-.74-.34-.18-.69-.08-.85.2-.17.29-.39.78-.98,1.16-.08.04-.13.12-.11.21.03.09.12.13.21.11.01,0,.02,0,.03-.01.13-.06.65-.3.82-.58l-.15,3.25c-.01.12.07.23.19.24.12.01.22-.08.23-.2l.67-3.6s.21.18.27.32c.04.1.11.38.16.65,0,0,0,0,0,0,.02.1.1.16.19.14.09-.01.16-.1.14-.19Z"/>
        <path class="cls-5-5-5" d="m65.19,52.58l-1.2-.97-.1.7,1.05.6c.09.07.22.05.29-.04.07-.09.05-.22-.04-.29Z"/>
      </g>
    </g>
    <g>
      <g>
        <path class="cls-5-5-5" d="m88.11,54.44c0,.19-.16.35-.35.35s-.35-.16-.35-.35.16-.35.35-.35.35.16.35.35Z"/>
        <path class="cls-5-5-5" d="m87.75,54.88c-.25,0-.83.02-.83.51v1.16c0,.08.05.14.13.14.08,0,.14-.05.14-.13l.06-.7.07,2.61c0,.1.08.18.18.18s.18-.08.18-.18l.07-1.61.07,1.61c0,.1.08.18.18.18s.18-.08.18-.18l.07-2.61.06.7c0,.08.07.13.14.13.08,0,.13-.07.13-.14v-1.16c0-.48-.58-.51-.83-.51Z"/>
      </g>
      <g>
        <path class="cls-5-5-5" d="m90.24,54.44c0,.19-.16.35-.35.35s-.35-.16-.35-.35.16-.35.35-.35.35.16.35.35Z"/>
        <path class="cls-5-5-5" d="m89.89,54.88c-.25,0-.83.02-.83.51v1.16c0,.08.05.14.13.14.08,0,.14-.05.14-.13l.06-.7.07,2.61c0,.1.08.18.18.18s.18-.08.18-.18l.07-1.61.07,1.61c0,.1.08.18.18.18s.18-.08.18-.18l.07-2.61.06.7c0,.08.07.13.14.13.08,0,.13-.07.13-.14v-1.16c0-.48-.58-.51-.83-.51Z"/>
      </g>
      <path class="cls-5-5-5" d="m91.12,58.89h-4.59c-.35,0-.64-.29-.64-.64v-4.92c0-.35.29-.64.64-.64h4.59c.35,0,.64.29.64.64v4.92c0,.35-.29.64-.64.64Zm-4.59-5.8c-.13,0-.24.11-.24.24v4.92c0,.13.11.24.24.24h4.59c.13,0,.24-.11.24-.24v-4.92c0-.13-.11-.24-.24-.24h-4.59Z"/>
      <path class="cls-5-5-5" d="m90.89,51.38l-.78-.78h0s-.13-.13-.13-.13l-.13.13h0s-.78.78-.78.78c-.07.07-.07.18,0,.25.07.07.18.07.25,0l.48-.48v1.08c0,.1.08.18.18.18s.18-.08.18-.18v-1.08s.48.48.48.48c.03.03.08.05.13.05s.09-.02.13-.05c.07-.07.07-.18,0-.25Z"/>
      <path class="cls-5-5-5" d="m88.66,51.33c-.07-.07-.18-.07-.25,0l-.48.48v-1.08c0-.1-.08-.18-.18-.18s-.18.08-.18.18v1.08s-.48-.48-.48-.48c-.07-.07-.18-.07-.25,0-.07.07-.07.18,0,.25l.78.78h0s.13.13.13.13l.13-.13h0s.78-.78.78-.78c.07-.07.07-.18,0-.25Z"/>
    </g>
    <line class="cls-1-5-5" x1="71.68" y1="76.11" x2="71.68" y2="68.75"/>
    <polyline class="cls-1-5-5" points="60.16 82.8 71.68 82.8 71.68 79.96"/>
    <line class="cls-1-5-5" x1="71.68" y1="64.89" x2="71.68" y2="60.37"/>
    <g>
      <g>
        <path class="cls-5-5-5" d="m88.11,65.74c0,.19-.16.35-.35.35s-.35-.16-.35-.35.16-.35.35-.35.35.16.35.35Z"/>
        <path class="cls-5-5-5" d="m87.75,66.17c-.25,0-.83.02-.83.51v1.16c0,.08.05.14.13.14.08,0,.14-.05.14-.13l.06-.7.07,2.61c0,.1.08.18.18.18s.18-.08.18-.18l.07-1.61.07,1.61c0,.1.08.18.18.18s.18-.08.18-.18l.07-2.61.06.7c0,.08.07.13.14.13.08,0,.13-.07.13-.14v-1.16c0-.48-.58-.51-.83-.51Z"/>
      </g>
      <g>
        <path class="cls-5-5-5" d="m90.24,65.74c0,.19-.16.35-.35.35s-.35-.16-.35-.35.16-.35.35-.35.35.16.35.35Z"/>
        <path class="cls-5-5-5" d="m89.89,66.17c-.25,0-.83.02-.83.51v1.16c0,.08.05.14.13.14.08,0,.14-.05.14-.13l.06-.7.07,2.61c0,.1.08.18.18.18s.18-.08.18-.18l.07-1.61.07,1.61c0,.1.08.18.18.18s.18-.08.18-.18l.07-2.61.06.7c0,.08.07.13.14.13.08,0,.13-.07.13-.14v-1.16c0-.48-.58-.51-.83-.51Z"/>
      </g>
      <path class="cls-5-5-5" d="m91.12,70.19h-4.59c-.35,0-.64-.29-.64-.64v-4.92c0-.35.29-.64.64-.64h4.59c.35,0,.64.29.64.64v4.92c0,.35-.29.64-.64.64Zm-4.59-5.8c-.13,0-.24.11-.24.24v4.92c0,.13.11.24.24.24h4.59c.13,0,.24-.11.24-.24v-4.92c0-.13-.11-.24-.24-.24h-4.59Z"/>
      <path class="cls-5-5-5" d="m90.89,62.68l-.78-.78h0s-.13-.13-.13-.13l-.13.13h0s-.78.78-.78.78c-.07.07-.07.18,0,.25.07.07.18.07.25,0l.48-.48v1.08c0,.1.08.18.18.18s.18-.08.18-.18v-1.08s.48.48.48.48c.03.03.08.05.13.05s.09-.02.13-.05c.07-.07.07-.18,0-.25Z"/>
      <path class="cls-5-5-5" d="m88.66,62.62c-.07-.07-.18-.07-.25,0l-.48.48v-1.08c0-.1-.08-.18-.18-.18s-.18.08-.18.18v1.08s-.48-.48-.48-.48c-.07-.07-.18-.07-.25,0-.07.07-.07.18,0,.25l.78.78h0s.13.13.13.13l.13-.13h0s.78-.78.78-.78c.07-.07.07-.18,0-.25Z"/>
    </g>
    <g>
      <g>
        <path class="cls-5-5-5" d="m88.11,76.95c0,.19-.16.35-.35.35s-.35-.16-.35-.35.16-.35.35-.35.35.16.35.35Z"/>
        <path class="cls-5-5-5" d="m87.75,77.39c-.25,0-.83.02-.83.51v1.16c0,.08.05.14.13.14.08,0,.14-.05.14-.13l.06-.7.07,2.61c0,.1.08.18.18.18s.18-.08.18-.18l.07-1.61.07,1.61c0,.1.08.18.18.18s.18-.08.18-.18l.07-2.61.06.7c0,.08.07.13.14.13.08,0,.13-.07.13-.14v-1.16c0-.48-.58-.51-.83-.51Z"/>
      </g>
      <g>
        <path class="cls-5-5-5" d="m90.24,76.95c0,.19-.16.35-.35.35s-.35-.16-.35-.35.16-.35.35-.35.35.16.35.35Z"/>
        <path class="cls-5-5-5" d="m89.89,77.39c-.25,0-.83.02-.83.51v1.16c0,.08.05.14.13.14.08,0,.14-.05.14-.13l.06-.7.07,2.61c0,.1.08.18.18.18s.18-.08.18-.18l.07-1.61.07,1.61c0,.1.08.18.18.18s.18-.08.18-.18l.07-2.61.06.7c0,.08.07.13.14.13.08,0,.13-.07.13-.14v-1.16c0-.48-.58-.51-.83-.51Z"/>
      </g>
      <path class="cls-5-5-5" d="m91.12,81.4h-4.59c-.35,0-.64-.29-.64-.64v-4.92c0-.35.29-.64.64-.64h4.59c.35,0,.64.29.64.64v4.92c0,.35-.29.64-.64.64Zm-4.59-5.8c-.13,0-.24.11-.24.24v4.92c0,.13.11.24.24.24h4.59c.13,0,.24-.11.24-.24v-4.92c0-.13-.11-.24-.24-.24h-4.59Z"/>
      <path class="cls-5-5-5" d="m90.89,73.9l-.78-.78h0s-.13-.13-.13-.13l-.13.13h0s-.78.78-.78.78c-.07.07-.07.18,0,.25.07.07.18.07.25,0l.48-.48v1.08c0,.1.08.18.18.18s.18-.08.18-.18v-1.08s.48.48.48.48c.03.03.08.05.13.05s.09-.02.13-.05c.07-.07.07-.18,0-.25Z"/>
      <path class="cls-5-5-5" d="m88.66,73.84c-.07-.07-.18-.07-.25,0l-.48.48v-1.08c0-.1-.08-.18-.18-.18s-.18.08-.18.18v1.08s-.48-.48-.48-.48c-.07-.07-.18-.07-.25,0-.07.07-.07.18,0,.25l.78.78h0s.13.13.13.13l.13-.13h0s.78-.78.78-.78c.07-.07.07-.18,0-.25Z"/>
    </g>
    <g>
      <g>
        <path class="cls-5-5-5" d="m65.33,65.42c0,.19-.16.35-.35.35s-.35-.16-.35-.35.16-.35.35-.35.35.16.35.35Z"/>
        <path class="cls-5-5-5" d="m64.97,65.86c-.25,0-.83.02-.83.51v1.16c0,.08.05.14.13.14.08,0,.14-.05.14-.13l.06-.7.07,2.61c0,.1.08.18.18.18s.18-.08.18-.18l.07-1.61.07,1.61c0,.1.08.18.18.18s.18-.08.18-.18l.07-2.61.06.7c0,.08.07.13.14.13.08,0,.13-.07.13-.14v-1.16c0-.48-.58-.51-.83-.51Z"/>
      </g>
      <g>
        <path class="cls-5-5-5" d="m67.47,65.42c0,.19-.16.35-.35.35s-.35-.16-.35-.35.16-.35.35-.35.35.16.35.35Z"/>
        <path class="cls-5-5-5" d="m67.11,65.86c-.25,0-.83.02-.83.51v1.16c0,.08.05.14.13.14.08,0,.14-.05.14-.13l.06-.7.07,2.61c0,.1.08.18.18.18s.18-.08.18-.18l.07-1.61.07,1.61c0,.1.08.18.18.18s.18-.08.18-.18l.07-2.61.06.7c0,.08.07.13.14.13.08,0,.13-.07.13-.14v-1.16c0-.48-.58-.51-.83-.51Z"/>
      </g>
      <path class="cls-5-5-5" d="m68.34,69.87h-4.59c-.35,0-.64-.29-.64-.64v-4.92c0-.35.29-.64.64-.64h4.59c.35,0,.64.29.64.64v4.92c0,.35-.29.64-.64.64Zm-4.59-5.8c-.13,0-.24.11-.24.24v4.92c0,.13.11.24.24.24h4.59c.13,0,.24-.11.24-.24v-4.92c0-.13-.11-.24-.24-.24h-4.59Z"/>
      <path class="cls-5-5-5" d="m68.11,62.37l-.78-.78h0s-.13-.13-.13-.13l-.13.13h0s-.78.78-.78.78c-.07.07-.07.18,0,.25.07.07.18.07.25,0l.48-.48v1.08c0,.1.08.18.18.18s.18-.08.18-.18v-1.08s.48.48.48.48c.03.03.08.05.13.05s.09-.02.13-.05c.07-.07.07-.18,0-.25Z"/>
      <path class="cls-5-5-5" d="m65.88,62.31c-.07-.07-.18-.07-.25,0l-.48.48v-1.08c0-.1-.08-.18-.18-.18s-.18.08-.18.18v1.08s-.48-.48-.48-.48c-.07-.07-.18-.07-.25,0-.07.07-.07.18,0,.25l.78.78h0s.13.13.13.13l.13-.13h0s.78-.78.78-.78c.07-.07.07-.18,0-.25Z"/>
    </g>
    <g>
      <g>
        <path class="cls-5-5-5" d="m65.33,77.33c0,.19-.16.35-.35.35s-.35-.16-.35-.35.16-.35.35-.35.35.16.35.35Z"/>
        <path class="cls-5-5-5" d="m64.97,77.77c-.25,0-.83.02-.83.51v1.16c0,.08.05.14.13.14.08,0,.14-.05.14-.13l.06-.7.07,2.61c0,.1.08.18.18.18s.18-.08.18-.18l.07-1.61.07,1.61c0,.1.08.18.18.18s.18-.08.18-.18l.07-2.61.06.7c0,.08.07.13.14.13.08,0,.13-.07.13-.14v-1.16c0-.48-.58-.51-.83-.51Z"/>
      </g>
      <g>
        <path class="cls-5-5-5" d="m67.47,77.33c0,.19-.16.35-.35.35s-.35-.16-.35-.35.16-.35.35-.35.35.16.35.35Z"/>
        <path class="cls-5-5-5" d="m67.11,77.77c-.25,0-.83.02-.83.51v1.16c0,.08.05.14.13.14.08,0,.14-.05.14-.13l.06-.7.07,2.61c0,.1.08.18.18.18s.18-.08.18-.18l.07-1.61.07,1.61c0,.1.08.18.18.18s.18-.08.18-.18l.07-2.61.06.7c0,.08.07.13.14.13.08,0,.13-.07.13-.14v-1.16c0-.48-.58-.51-.83-.51Z"/>
      </g>
      <path class="cls-5-5-5" d="m68.34,81.78h-4.59c-.35,0-.64-.29-.64-.64v-4.92c0-.35.29-.64.64-.64h4.59c.35,0,.64.29.64.64v4.92c0,.35-.29.64-.64.64Zm-4.59-5.8c-.13,0-.24.11-.24.24v4.92c0,.13.11.24.24.24h4.59c.13,0,.24-.11.24-.24v-4.92c0-.13-.11-.24-.24-.24h-4.59Z"/>
      <path class="cls-5-5-5" d="m68.11,74.28l-.78-.78h0s-.13-.13-.13-.13l-.13.13h0s-.78.78-.78.78c-.07.07-.07.18,0,.25.07.07.18.07.25,0l.48-.48v1.08c0,.1.08.18.18.18s.18-.08.18-.18v-1.08s.48.48.48.48c.03.03.08.05.13.05s.09-.02.13-.05c.07-.07.07-.18,0-.25Z"/>
      <path class="cls-5-5-5" d="m65.88,74.22c-.07-.07-.18-.07-.25,0l-.48.48v-1.08c0-.1-.08-.18-.18-.18s-.18.08-.18.18v1.08s-.48-.48-.48-.48c-.07-.07-.18-.07-.25,0-.07.07-.07.18,0,.25l.78.78h0s.13.13.13.13l.13-.13h0s.78-.78.78-.78c.07-.07.07-.18,0-.25Z"/>
    </g>
    <text/>
    <polyline class="cls-1-5-5" points="108.41 31.95 108.41 19.18 85.53 19.18 85.53 25.8"/>
    <polyline class="cls-1-5-5" points="85.53 25.8 85.53 11.28 85.53 11.28 85.53 4.62 85.53 4.62 85.53 2.64 199.96 2.64 199.96 31.95 85.53 31.95"/>
    <g>
      <path class="cls-5-5-5" d="m99.31,22.02c0,.24-.19.43-.43.43s-.43-.19-.43-.43.19-.43.43-.43.43.19.43.43Z"/>
      <polygon class="cls-5-5-5" points="101.42 26.61 99.89 26.61 99.89 27.15 98.53 27.15 98.53 27.69 97.2 27.69 97.2 28.23 95.88 28.23 95.88 28.77 94.55 28.77 94.55 29.32 93.71 29.32 93.71 30.01 95.32 30.01 95.32 29.45 96.64 29.45 96.64 28.91 97.96 28.91 97.96 28.37 99.29 28.37 99.29 27.83 100.61 27.83 100.61 27.3 101.42 27.3 101.42 26.61"/>
      <path class="cls-5-5-5" d="m99.39,24.64c-.31-.21-.62-.41-.66-.44.11-.54.21-1.02.26-1.31,0,0,.04-.26-.17-.31-.3-.06-.72.17-1.19.52-.05.04-.13.1-.16.21-.02.1-.14.68-.2.93-.02.09.03.19.12.21.09.02.18-.03.21-.12.07-.2.2-.64.22-.68.02-.04.21-.19.21-.19l-.36,3.62c0,.11.08.19.19.2.12.01.22-.08.23-.2,0,0,.23-1.05.47-2.13l.4.19-.21,1.05c-.03.1.02.21.12.25.1.03.21-.02.25-.12,0,0,.37-.89.42-1.05.05-.16.18-.42-.15-.64Z"/>
      <g>
        <path class="cls-5-5-5" d="m95.66,23.23c0,.24-.19.43-.43.43s-.43-.19-.43-.43.19-.43.43-.43.43.19.43.43Z"/>
        <path class="cls-5-5-5" d="m96.62,25.66s-.06-.47-.12-.76c-.02-.07-.04-.13-.09-.21-.17-.29-.4-.63-.62-.74-.34-.18-.69-.08-.85.2-.17.29-.39.78-.98,1.16-.08.04-.13.12-.11.21.03.09.12.13.21.11.01,0,.02,0,.03-.01.13-.06.65-.3.82-.58l-.15,3.25c-.01.12.07.23.19.24.12.01.22-.08.23-.2l.67-3.6s.21.18.27.32c.04.1.11.38.16.65,0,0,0,0,0,0,.02.1.1.16.19.14.09-.01.16-.1.14-.19Z"/>
        <path class="cls-5-5-5" d="m96.7,27.15l-1.2-.97-.1.7,1.05.6c.09.07.22.05.29-.04.07-.09.05-.22-.04-.29Z"/>
      </g>
    </g>
    <g>
      <path class="cls-5-5-5" d="m146.89,44.72c0,.24-.19.43-.43.43s-.43-.19-.43-.43.19-.43.43-.43.43.19.43.43Z"/>
      <polygon class="cls-5-5-5" points="149 49.31 147.48 49.31 147.48 49.85 146.11 49.85 146.11 50.39 144.79 50.39 144.79 50.93 143.46 50.93 143.46 51.47 142.14 51.47 142.14 52.02 141.3 52.02 141.3 52.71 142.91 52.71 142.91 52.14 144.22 52.14 144.22 51.6 145.55 51.6 145.55 51.06 146.87 51.06 146.87 50.52 148.2 50.52 148.2 50 149 50 149 49.31"/>
      <path class="cls-5-5-5" d="m146.98,47.34c-.31-.21-.62-.41-.66-.44.11-.54.21-1.02.26-1.31,0,0,.04-.26-.17-.31-.3-.06-.72.17-1.19.52-.05.04-.13.1-.16.21-.02.1-.14.68-.2.93-.02.09.03.19.12.21.09.02.18-.03.21-.12.07-.2.2-.64.22-.68.02-.04.21-.19.21-.19l-.36,3.62c0,.11.08.19.19.2.12.01.22-.08.23-.2,0,0,.23-1.05.47-2.13l.4.19-.21,1.05c-.03.1.02.21.12.25.1.03.21-.02.25-.12,0,0,.37-.89.42-1.05.05-.16.18-.42-.15-.64Z"/>
      <g>
        <path class="cls-5-5-5" d="m143.25,45.92c0,.24-.19.43-.43.43s-.43-.19-.43-.43.19-.43.43-.43.43.19.43.43Z"/>
        <path class="cls-5-5-5" d="m144.21,48.36s-.06-.47-.12-.76c-.02-.07-.04-.13-.09-.21-.17-.29-.4-.63-.62-.74-.34-.18-.69-.08-.85.2-.17.29-.39.78-.98,1.16-.08.04-.13.12-.11.21.03.09.12.13.21.11.01,0,.02,0,.03-.01.13-.06.65-.3.82-.58l-.15,3.25c-.01.12.07.23.19.24.12.01.22-.08.23-.2l.67-3.6s.21.18.27.32c.04.1.11.38.16.65,0,0,0,0,0,0,.02.1.1.16.19.14.09-.01.16-.1.14-.19Z"/>
        <path class="cls-5-5-5" d="m144.29,49.85l-1.2-.97-.1.7,1.05.6c.09.07.22.05.29-.04.07-.09.05-.22-.04-.29Z"/>
      </g>
    </g>
    <g>
      <g>
        <path class="cls-5-5-5" d="m144.28,64.9c0,.19-.16.35-.35.35s-.35-.16-.35-.35.16-.35.35-.35.35.16.35.35Z"/>
        <path class="cls-5-5-5" d="m143.92,65.34c-.25,0-.83.02-.83.51v1.16c0,.08.05.14.13.14.08,0,.14-.05.14-.13l.06-.7.07,2.61c0,.1.08.18.18.18s.18-.08.18-.18l.07-1.61.07,1.61c0,.1.08.18.18.18s.18-.08.18-.18l.07-2.61.06.7c0,.08.07.13.14.13.08,0,.13-.07.13-.14v-1.16c0-.48-.58-.51-.83-.51Z"/>
      </g>
      <g>
        <path class="cls-5-5-5" d="m146.41,64.9c0,.19-.16.35-.35.35s-.35-.16-.35-.35.16-.35.35-.35.35.16.35.35Z"/>
        <path class="cls-5-5-5" d="m146.06,65.34c-.25,0-.83.02-.83.51v1.16c0,.08.05.14.13.14.08,0,.14-.05.14-.13l.06-.7.07,2.61c0,.1.08.18.18.18s.18-.08.18-.18l.07-1.61.07,1.61c0,.1.08.18.18.18s.18-.08.18-.18l.07-2.61.06.7c0,.08.07.13.14.13.08,0,.13-.07.13-.14v-1.16c0-.48-.58-.51-.83-.51Z"/>
      </g>
      <path class="cls-5-5-5" d="m147.29,69.35h-4.59c-.35,0-.64-.29-.64-.64v-4.92c0-.35.29-.64.64-.64h4.59c.35,0,.64.29.64.64v4.92c0,.35-.29.64-.64.64Zm-4.59-5.8c-.13,0-.24.11-.24.24v4.92c0,.13.11.24.24.24h4.59c.13,0,.24-.11.24-.24v-4.92c0-.13-.11-.24-.24-.24h-4.59Z"/>
      <path class="cls-5-5-5" d="m147.06,61.85l-.78-.78h0s-.13-.13-.13-.13l-.13.13h0s-.78.78-.78.78c-.07.07-.07.18,0,.25.07.07.18.07.25,0l.48-.48v1.08c0,.1.08.18.18.18s.18-.08.18-.18v-1.08s.48.48.48.48c.03.03.08.05.13.05s.09-.02.13-.05c.07-.07.07-.18,0-.25Z"/>
      <path class="cls-5-5-5" d="m144.83,61.79c-.07-.07-.18-.07-.25,0l-.48.48v-1.08c0-.1-.08-.18-.18-.18s-.18.08-.18.18v1.08s-.48-.48-.48-.48c-.07-.07-.18-.07-.25,0-.07.07-.07.18,0,.25l.78.78h0s.13.13.13.13l.13-.13h0s.78-.78.78-.78c.07-.07.07-.18,0-.25Z"/>
    </g>
    <g>
      <path class="cls-5-5-5" d="m213.84,79.02c0,.24-.19.43-.43.43s-.43-.19-.43-.43.19-.43.43-.43.43.19.43.43Z"/>
      <polygon class="cls-5-5-5" points="215.95 83.61 214.43 83.61 214.43 84.15 213.06 84.15 213.06 84.69 211.74 84.69 211.74 85.23 210.41 85.23 210.41 85.77 209.09 85.77 209.09 86.32 208.25 86.32 208.25 87.01 209.86 87.01 209.86 86.45 211.17 86.45 211.17 85.91 212.5 85.91 212.5 85.37 213.82 85.37 213.82 84.83 215.15 84.83 215.15 84.3 215.95 84.3 215.95 83.61"/>
      <path class="cls-5-5-5" d="m213.93,81.64c-.31-.21-.62-.41-.66-.44.11-.54.21-1.02.26-1.31,0,0,.04-.26-.17-.31-.3-.06-.72.17-1.19.52-.05.04-.13.1-.16.21-.02.1-.14.68-.2.93-.02.09.03.19.12.21.09.02.18-.03.21-.12.07-.2.2-.64.22-.68.02-.04.21-.19.21-.19l-.36,3.62c0,.11.08.19.19.2.12.01.22-.08.23-.2,0,0,.23-1.05.47-2.13l.4.19-.21,1.05c-.03.1.02.21.12.25.1.03.21-.02.25-.12,0,0,.37-.89.42-1.05.05-.16.18-.42-.15-.64Z"/>
      <g>
        <path class="cls-5-5-5" d="m210.2,80.23c0,.24-.19.43-.43.43s-.43-.19-.43-.43.19-.43.43-.43.43.19.43.43Z"/>
        <path class="cls-5-5-5" d="m211.16,82.66s-.06-.47-.12-.76c-.02-.07-.04-.13-.09-.21-.17-.29-.4-.63-.62-.74-.34-.18-.69-.08-.85.2-.17.29-.39.78-.98,1.16-.08.04-.13.12-.11.21.03.09.12.13.21.11.01,0,.02,0,.03-.01.13-.06.65-.3.82-.58l-.15,3.25c-.01.12.07.23.19.24.12.01.22-.08.23-.2l.67-3.6s.21.18.27.32c.04.1.11.38.16.65,0,0,0,0,0,0,.02.1.1.16.19.14.09-.01.16-.1.14-.19Z"/>
        <path class="cls-5-5-5" d="m211.24,84.15l-1.2-.97-.1.7,1.05.6c.09.07.22.05.29-.04.07-.09.05-.22-.04-.29Z"/>
      </g>
    </g>
    <rect class="cls-2-5-5" x="60.16" y="31.95" width="11.52" height="9.78"/>
    <line class="cls-1-5-5" x1="43.1" y1="40.87" x2="43.1" y2="63.4"/>
    <rect class="cls-1-5-5" x="1.67" y="96.16" width="74.36" height="41.97"/>
    <rect class="cls-3-5-5" x="76.03" y="96.16" width="49.52" height="41.97"/>
    <rect class="cls-4-5-5" x="175.13" y="96.16" width="49.63" height="41.97"/>
    <polyline class="cls-1-5-5" points="206.28 69.75 224.76 69.75 224.76 31.95 165.86 31.95 165.86 69.75"/>
    <line class="cls-1-5-5" x1="169.39" y1="69.75" x2="202.76" y2="69.75"/>
    <polyline class="cls-1-5-5" points="224.76 96.16 224.76 138.13 56.58 138.13 1.67 138.13 1.67 83.85 1.67 31.95 1.67 2.64 85.53 2.64"/>
    <line class="cls-1-5-5" x1="43.1" y1="7.99" x2="43.1" y2="26.67"/>
    <polyline class="cls-1-5-5" points="43.1 74.23 1.67 74.23 1.67 2.64 43.1 2.64"/>
    <line class="cls-1-5-5" x1="43.1" y1="7.99" x2="43.1" y2="68.75"/>
    <rect class="cls-3-5-5" x="125.63" y="96.02" width="49.52" height="41.97"/>
    <text/>
  </g>
</svg>