<?xml version="1.0" encoding="UTF-8"?>
<svg id="_レイヤー_2" data-name="レイヤー_2" xmlns="http://www.w3.org/2000/svg" xmlns:xlink="http://www.w3.org/1999/xlink" viewBox="0 0 490.02 360">
  <defs>
    <style>
      .cls-1 {
        stroke-dasharray: 12.17 12.17;
      }

      .cls-1, .cls-2, .cls-3, .cls-4, .cls-5, .cls-6, .cls-7, .cls-8, .cls-9, .cls-10, .cls-11, .cls-12, .cls-13, .cls-14, .cls-15 {
        stroke-miterlimit: 10;
      }

      .cls-1, .cls-2, .cls-4, .cls-5, .cls-16, .cls-6, .cls-7, .cls-9, .cls-12, .cls-15 {
        fill: none;
      }

      .cls-1, .cls-6 {
        stroke: #fff;
        stroke-width: 5px;
      }

      .cls-2 {
        stroke: #009245;
      }

      .cls-2, .cls-3, .cls-5, .cls-7, .cls-9, .cls-10, .cls-11, .cls-13, .cls-14 {
        stroke-width: 6px;
      }

      .cls-3 {
        fill: #39b54a;
        stroke: #39b54a;
      }

      .cls-4 {
        stroke: #999;
        stroke-width: 40px;
      }

      .cls-5 {
        stroke: #0071bc;
      }

      .cls-6 {
        stroke-dasharray: 12.15 12.15;
      }

      .cls-7 {
        stroke: #000;
      }

      .cls-8 {
        fill: #c1272d;
        stroke: #c1272d;
      }

      .cls-8, .cls-12 {
        stroke-width: 12px;
      }

      .cls-9, .cls-12 {
        stroke: #666;
      }

      .cls-10 {
        fill: #006837;
        stroke: #006837;
      }

      .cls-11 {
        fill: #29abe2;
        stroke: #29abe2;
      }

      .cls-13 {
        fill: #ff7bac;
        stroke: #ff7bac;
      }

      .cls-17 {
        clip-path: url(#clippath);
      }

      .cls-14 {
        fill: #ed1c24;
        stroke: #ed1c24;
      }

      .cls-15 {
        stroke: #4d4d4d;
        stroke-width: 11px;
      }
    </style>
    <clipPath id="clippath">
      <rect class="cls-16" width="490.02" height="360"/>
    </clipPath>
  </defs>
  <g id="_レイヤー_2-2" data-name="レイヤー_2">
    <g class="cls-17">
      <path class="cls-12" d="M310.37,314c2.1-9.45,21.91-74.66,29-91,5.72-13.19,9.08-17.37,14-27,8.01-15.67,10.78-27.37,25-101,1.27-6.57,2.98-15.45,5-26"/>
      <path class="cls-7" d="M190.37,366c17.03-45.13,30.09-85.1,40-118,13.07-43.39,18.84-68.45,37-136,12.47-46.38,23.74-86.61,33-119"/>
      <path class="cls-7" d="M182.37,367c2.29-14.88,6.06-37.18,12-64,11.58-52.3,24.37-90.09,30-107,14.11-42.41,34.27-107.1,63-210"/>
      <path class="cls-15" d="M95.37,180h0c-3-16.11-6.33-29.37-9-39-6.52-23.56-10.17-29.45-15-34-8.39-7.9-18.72-10.21-25-11"/>
      <path class="cls-4" d="M120.37,177c-.94-7.25-2.11-13.05-3-17-4.85-21.45-5-22-5-22-.27-1.01-.85-3.12-1-6-.23-4.28.62-7.57,1-9,2.29-8.59,3.43-12.88,6-20,1.85-5.12,4.17-12.52,6-22"/>
      <path class="cls-9" d="M289.37,154c-.43,1.72-1.26,4.31-3,7-5.01,7.74-12.42,8.44-18,13-4.02,3.28-33.35,105.6-34,119"/>
      <path class="cls-9" d="M304.37,38c-2.37,7.98-18.46,61.87-19,67-.85,8.18-1.39,13.29,0,20,1.28,6.2,2.94,7.63,4,14,1.04,6.24.56,11.53,0,15"/>
      <g>
        <path class="cls-7" d="M232.37-19c-6.82,16.79-17.85,44.8-30,80-28.49,82.55-26.9,99.77-61,209-7.24,23.18-19.23,60.57-36,115-3.19,10.37-8,26.03-14,46-7.36,24.5-13.46,45.32-18,61"/>
        <path class="cls-1" d="M225.64-2.13c-6.42,16.36-14.55,37.89-23.26,63.13-28.49,82.55-26.9,99.77-61,209-7.24,23.18-19.23,60.57-36,115-3.19,10.37-8,26.03-14,46-5.67,18.87-10.59,35.56-14.63,49.4"/>
      </g>
      <g>
        <path class="cls-7" d="M245.37-14c-21.47,76.24-44.43,153.94-69,233-29.61,95.26-60.03,187.61-91,277"/>
        <path class="cls-6" d="M240.43,3.47c-20.04,70.63-41.37,142.51-64.06,215.53-28.35,91.21-57.45,179.76-87.06,265.59"/>
      </g>
      <path class="cls-7" d="M163.37,369c2.74-20.55,6.33-42.28,11-65,7.42-36.16,15.26-63.55,21-83,27.16-92.05,73.12-229.43,77-241"/>
      <path class="cls-4" d="M71.37,184c-.18-1.97-.48-4.73-1-8-1.35-8.49-3.22-14.39-6-23-7.88-24.39-8.87-26.6-12-29-3.57-2.74-5.7-2.49-14-5-7-2.11-16.72-5.68-28-12"/>
      <path class="cls-2" d="M48.37,163c14.48,3.7,21.38,1.22,25-2,3.15-2.81,3.66-6.05,9-10,5.6-4.14,7.9-2.69,11-6,5.08-5.43,1.33-11.95,5-17,4.89-6.73,18.48-4.72,23-4,42.44,6.76,63.66,10.14,150,27,12.41,2.42,24.67,8.49,43,10,23.13,1.9,25,2,25,2,7.72.39,15.32,2.15,23,3,4.07.45,6.94.72,9,3,1.91,2.11,2.39,5.13,1.65,14.72-.56,7.11-1.49,11.84-1.65,14.28-.81,12.44-1.22,18.66,1,24,7.34,17.66,45.1,19.93,47,20"/>
      <rect class="cls-13" x="170.88" y="18.72" width="88.87" height="254.79" transform="translate(43.68 -49.47) rotate(14.57)"/>
      <path class="cls-2" d="M35.37,224c5.22-20.23,10.53-40.81,16-62"/>
      <path class="cls-5" d="M201.37,50c12.36,4.08,22.68,6.51,30,8,11.02,2.24,21.93,5.03,33,7,8.96,1.6,11.13,1.73,13,4,4.77,5.77-1.21,14.65-6,36-3.92,17.46-5.76,26.5-1,34,3.72,5.85,10.14,7.9,23,12,2.83.9,14.23,4.42,33,6,11.34.95,22.63,3.26,34,3,1.35-.03,5.16-.16,9,2,3.51,1.97,5.33,4.9,6,6,4.52,7.44,1.85,15.84,1,29-.79,12.11-1.18,18.17,1,23,2.8,6.22,11.45,14.62,42,16"/>
      <rect class="cls-3" x="188.74" y="56.34" width="18.97" height="63.36" transform="translate(25.93 -43.72) rotate(13.46)"/>
      <rect class="cls-14" x="214.61" y="62.84" width="18.97" height="63.36" transform="translate(28.16 -49.57) rotate(13.46)"/>
      <rect class="cls-11" x="240.61" y="68.84" width="18.97" height="63.36" transform="translate(30.27 -55.46) rotate(13.46)"/>
      <rect class="cls-10" x="44.37" y="192" width="27" height="40" transform="translate(58.55 -7.76) rotate(15.44)"/>
      <rect class="cls-8" x="404.37" y="243" width="67" height="101" transform="translate(70.61 -84.65) rotate(12)"/>
    </g>
  </g>
</svg>