<?xml version="1.0" encoding="UTF-8"?>
<svg id="_レイヤー_2" data-name="レイヤー_2" xmlns="http://www.w3.org/2000/svg" xmlns:xlink="http://www.w3.org/1999/xlink" viewBox="0 0 467 307">
  <defs>
    <style>
      .cls-1 {
        stroke-dasharray: 12.17 12.17;
      }

      .cls-1, .cls-2, .cls-3, .cls-4, .cls-5, .cls-6, .cls-7, .cls-8, .cls-9, .cls-10, .cls-11, .cls-12, .cls-13, .cls-14, .cls-15 {
        stroke-miterlimit: 10;
      }

      .cls-1, .cls-2, .cls-4, .cls-5, .cls-16, .cls-6, .cls-7, .cls-9, .cls-12, .cls-15 {
        fill: none;
      }

      .cls-1, .cls-6 {
        stroke: #fff;
        stroke-width: 5px;
      }

      .cls-2 {
        stroke: #009245;
      }

      .cls-2, .cls-3, .cls-5, .cls-7, .cls-9, .cls-10, .cls-11, .cls-13, .cls-14 {
        stroke-width: 6px;
      }

      .cls-3 {
        fill: #39b54a;
        stroke: #39b54a;
      }

      .cls-4 {
        stroke: #999;
        stroke-width: 40px;
      }

      .cls-5 {
        stroke: #0071bc;
      }

      .cls-6 {
        stroke-dasharray: 12.15 12.15;
      }

      .cls-7 {
        stroke: #000;
      }

      .cls-8 {
        fill: #c1272d;
        stroke: #c1272d;
      }

      .cls-8, .cls-12 {
        stroke-width: 12px;
      }

      .cls-9, .cls-12 {
        stroke: #666;
      }

      .cls-10 {
        fill: #006837;
        stroke: #006837;
      }

      .cls-11 {
        fill: #29abe2;
        stroke: #29abe2;
      }

      .cls-13 {
        fill: #ff7bac;
        stroke: #ff7bac;
      }

      .cls-17 {
        clip-path: url(#clippath);
      }

      .cls-14 {
        fill: #ed1c24;
        stroke: #ed1c24;
      }

      .cls-15 {
        stroke: #4d4d4d;
        stroke-width: 11px;
      }
    </style>
    <clipPath id="clippath">
      <rect class="cls-16" x="-25.52" y=".44" width="497.24" height="308.54" transform="translate(-.53 .77) rotate(-.2)"/>
    </clipPath>
  </defs>
  <text/>
  <g class="cls-17">
    <path class="cls-12" d="M302.95,277.93c-.22-9.68,3.39-77.73,6.37-95.3,2.4-14.18,4.65-19.04,7.13-29.57,4.03-17.13,3.91-29.15.09-104.05-.34-6.68-.81-15.71-1.37-26.44"/>
    <path class="cls-7" d="M198.9,357.15c5.73-47.9,8.84-89.83,10.58-124.15,2.3-45.25,1.9-70.97,3.36-140.9,1-48.02,2.31-89.77,3.54-123.44"/>
    <path class="cls-7" d="M191.37,360.03c-1.34-14.99-3.02-37.55-3.67-65.01-1.28-53.55,2.09-93.31,3.51-111.07,3.55-44.56,7.63-112.19,10.88-218.98"/>
    <path class="cls-15" d="M62.12,199.31h0c-6.78-14.93-13.18-27-18.08-35.71-11.97-21.31-16.93-26.16-22.71-29.42-10.04-5.66-20.62-5.43-26.91-4.69"/>
    <path class="cls-4" d="M85.67,190.41c-2.65-6.82-5.17-12.17-6.98-15.79-9.85-19.66-10.12-20.16-10.12-20.16-.5-.91-1.57-2.83-2.41-5.59-1.25-4.1-1.21-7.49-1.18-8.98.16-8.89.25-13.33,1.04-20.85.57-5.41,1.06-13.15.56-22.8"/>
    <path class="cls-9" d="M244.25,127.61c0,1.77-.19,4.48-1.24,7.51-3.01,8.72-10.04,11.17-14.36,16.93-3.12,4.15-7.1,110.51-4.52,123.68"/>
    <path class="cls-9" d="M231.04,11.39c-.39,8.31-3.11,64.49-2.4,69.6,1.13,8.14,1.83,13.23,4.79,19.42,2.73,5.72,4.68,6.7,7.24,12.63,2.5,5.81,3.3,11.07,3.59,14.56"/>
    <g>
      <path class="cls-7" d="M147.48-26.71c-2.6,17.94-6.61,47.77-9.97,84.86-7.89,86.97-2.23,103.31-9.18,217.53-1.48,24.24-4.17,63.41-7.42,120.27-.62,10.83-1.54,27.19-2.58,48.01-1.28,25.55-2.21,47.22-2.87,63.54"/>
      <path class="cls-1" d="M144.98-8.71c-2.32,17.42-5.06,40.27-7.47,66.86-7.89,86.97-2.23,103.31-9.18,217.53-1.48,24.24-4.17,63.41-7.42,120.27-.62,10.83-1.54,27.19-2.58,48.01-.98,19.68-1.76,37.06-2.37,51.46"/>
    </g>
    <g>
      <path class="cls-7" d="M161.3-24.97c-2.59,79.16-6.27,160.1-11.2,242.74-5.93,99.58-13.36,196.53-22.02,290.73"/>
      <path class="cls-6" d="M160.69-6.83c-2.55,73.38-6.04,148.27-10.59,224.6-5.68,95.35-12.73,188.29-20.93,278.71"/>
    </g>
    <path class="cls-7" d="M173.4,366.53c-2.26-20.61-3.97-42.56-4.88-65.74-1.45-36.89-.4-65.35.51-85.61,4.32-95.88,16.06-240.27,17.05-252.43"/>
    <path class="cls-4" d="M39.78,208.94c-.65-1.87-1.6-4.47-2.89-7.53-3.35-7.92-6.57-13.2-11.33-20.89-13.49-21.8-14.98-23.7-18.6-25.28-4.13-1.81-6.13-1.06-14.79-1.5-7.31-.38-17.59-1.51-30.06-4.95"/>
    <path class="cls-2" d="M12.42,194.06c14.95.13,21.05-3.93,23.79-7.93,2.39-3.48,2.11-6.75,6.34-11.86,4.44-5.36,7.03-4.5,9.24-8.46,3.63-6.49-1.57-11.92.78-17.7,3.14-7.71,16.81-9.01,21.37-9.39,42.82-3.6,64.24-5.4,152.1-9.7,12.63-.62,25.99,2.34,44.14-.59,22.91-3.69,24.75-4.04,24.75-4.04,7.59-1.47,15.38-1.58,23.05-2.59,4.06-.54,6.91-.96,9.46.76,2.36,1.59,3.55,4.4,5.12,13.89,1.16,7.04,1.39,11.85,1.82,14.26,2.19,12.27,3.29,18.41,6.72,23.06,11.36,15.39,48.56,8.55,50.42,8.16"/>
    <rect class="cls-13" x="126.03" y="10.3" width="88.87" height="254.79" transform="translate(1.73 -2.12) rotate(.72)"/>
    <path class="cls-2" d="M14.4,256.39c.22-20.89.45-42.14.69-64.03"/>
    <path class="cls-5" d="M133.91,47.71c12.98,1,23.58.89,31.04.58,11.24-.47,22.5-.37,33.72-1.11,9.08-.59,11.22-.98,13.58.77,6.01,4.46,2.33,14.51,2.8,36.39.38,17.89.75,27.11,7.17,33.25,5.01,4.79,11.74,5.24,25.2,6.14,2.97.2,14.87.88,33.48-2.08,11.24-1.79,22.75-2.25,33.73-5.23,1.3-.35,4.98-1.39,9.22-.21,3.88,1.08,6.35,3.48,7.26,4.39,6.17,6.14,5.59,14.94,7.92,27.92,2.14,11.95,3.21,17.92,6.48,22.09,4.21,5.37,14.62,11.45,44.61,5.48"/>
    <rect class="cls-3" x="130.47" y="53.69" width="18.97" height="63.36" transform="translate(-.58 .96) rotate(-.39)"/>
    <rect class="cls-14" x="157.14" y="53.81" width="18.97" height="63.36" transform="translate(-.58 1.15) rotate(-.39)"/>
    <rect class="cls-11" x="183.83" y="53.41" width="18.97" height="63.36" transform="translate(-.58 1.33) rotate(-.39)"/>
    <rect class="cls-10" x="19.87" y="219.36" width="27" height="40" transform="translate(6.65 -.83) rotate(1.59)"/>
    <rect class="cls-8" x="388.33" y="176.99" width="67" height="101" transform="translate(-7.13 13.75) rotate(-1.85)"/>
  </g>
</svg>