<?xml version="1.0" encoding="UTF-8"?>
<svg xmlns="http://www.w3.org/2000/svg" viewBox="0 0 130 235">
  <defs>
    <style>
      .cls-1-1-12 {
        font-size: 7px;
      }

      .cls-1-1-12, .cls-2-1-12 {
        fill: #fff;
        font-family: KozGoPr6N-Regular-90ms-RKSJ-H, 'Kozuka Gothic Pr6N';
      }

      .cls-3-1-12, .cls-4-1-12, .cls-5-1-12 {
        stroke: #231815;
        stroke-miterlimit: 10;
      }

      .cls-3-1-12, .cls-5-1-12 {
        fill: none;
      }

      .cls-6-1-12, .cls-7-1-12, .cls-8-1-12, .cls-9-1-12, .cls-10-1-12 {
        stroke-width: 0px;
      }

      .cls-6-1-12, .cls-4-1-12 {
        fill: #231815;
      }

      .cls-7-1-12, .cls-10-1-12 {
        fill: #7a1a24;
      }

      .cls-7-1-12, .cls-5-1-12 {
        opacity: .2;
      }

      .cls-8-1-12 {
        fill: #2d3e6a;
      }

      .cls-9-1-12 {
        fill: #ba1f21;
      }

      .cls-2-1-12 {
        font-size: 7px;
      }
    </style>
  </defs>
  <g id="_11212" data-name="11212">
    <rect class="cls-10-1-12" x="93.82" y="41.9" width="32.43" height="25.58"/>
    <text class="cls-1-1-12" transform="translate(101.21 57.54)"><tspan x="0" y="0">11212</tspan></text>
  </g>
  <g id="_11211A" data-name="11211A">
    <polygon class="cls-10-1-12" points="85.69 3.38 85.69 41.9 93.82 41.9 93.82 31.64 126.25 31.64 126.25 3.38 85.69 3.38"/>
    <text class="cls-1-1-12" transform="translate(94.07 21.27)"><tspan x="0" y="0">11211A</tspan></text>
  </g>
  <g id="_11209B" data-name="11209B">
    <rect class="cls-10-1-12" x="60.35" y="3.51" width="25.35" height="38.38"/>
    <text class="cls-2-1-12" transform="translate(60.35 25.6)"><tspan x="0" y="0">11209B</tspan></text>
  </g>
  <g id="_11208A" data-name="11208A">
    <polygon class="cls-10-1-12" points="22.88 27.92 22.88 3.34 2.98 3.34 2.98 41.9 35.31 41.9 35.31 27.92 22.88 27.92"/>
    <text class="cls-2-1-12" transform="translate(6.18 36.11)"><tspan x="0" y="0">11209B</tspan></text>
  </g>
  <g id="_11206" data-name="11206">
    <rect class="cls-10-1-12" x="2.98" y="65.29" width="32.43" height="28.65"/>
    <text class="cls-1-1-12" transform="translate(9.28 81.93)"><tspan x="0" y="0">11206</tspan></text>
  </g>
  <g id="_レイヤー_1" data-name="レイヤー 1">
    <path class="cls-7-1-12" d="m35.42,67.47v-3.87h-11.56c-.17.02-.33.03-.5.03s-.34-.01-.5-.03h-.01c-2.23-.26-3.96-2.15-3.96-4.44s1.73-4.19,3.96-4.44h0s.01,0,.01,0c.17-.02.33-.03.5-.03s.34.01.5.03h11.56v-12.82H2.98v23.39"/>
    <polyline class="cls-7-1-12" points="2.98 93.44 2.98 233 35.42 233 35.42 93.44"/>
    <rect class="cls-3-1-12" x="2.98" y="224.24" width="32.43" height="8.5"/>
    <rect class="cls-7-1-12" x="93.82" y="67" width="32.43" height="166.84"/>
    <rect class="cls-7-1-12" x="45.02" y="41.9" width="40.68" height="38.93"/>
    <rect class="cls-7-1-12" x="45.02" y="3.51" width="15.34" height="38.38"/>
    <rect class="cls-3-1-12" x="85.69" y="3.34" width="40.56" height="38.56"/>
    <rect class="cls-3-1-12" x="45.02" y="41.9" width="25.34" height="38.66"/>
    <rect class="cls-3-1-12" x="22.88" y="3.34" width="22.13" height="24.58"/>
    <rect class="cls-3-1-12" x="2.98" y="65.29" width="32.43" height="28.66"/>
    <rect class="cls-3-1-12" x="2.98" y="172.14" width="32.43" height="26.1"/>
    <rect class="cls-4-1-12" x="45.01" y="120.88" width="40.68" height="25.55"/>
    <polyline class="cls-3-1-12" points="45.01 103.46 45.01 88.85 85.69 88.85 85.69 120.88 45.01 120.88"/>
    <line class="cls-3-1-12" x1="72.64" y1="113.01" x2="72.64" y2="120.88"/>
    <line class="cls-3-1-12" x1="72.64" y1="103.46" x2="72.64" y2="108.39"/>
    <polyline class="cls-4-1-12" points="57.54 103.46 76.7 103.46 76.7 92.23 51.5 92.23 51.5 103.46 45.01 103.46 45.01 88.85 85.69 88.85 85.69 103.46 57.54 103.46"/>
    <g>
      <path class="cls-6-1-12" d="m67.31,94.5c0,.24-.19.43-.43.43s-.43-.19-.43-.43.19-.43.43-.43.43.19.43.43Z"/>
      <polygon class="cls-6-1-12" points="69.44 99.14 67.9 99.14 67.9 99.68 66.52 99.68 66.52 100.23 65.18 100.23 65.18 100.78 63.84 100.78 63.84 101.32 62.5 101.32 62.5 101.87 61.65 101.87 61.65 102.57 63.28 102.57 63.28 102 64.61 102 64.61 101.46 65.95 101.46 65.95 100.91 67.29 100.91 67.29 100.36 68.63 100.36 68.63 99.84 69.44 99.84 69.44 99.14"/>
      <path class="cls-6-1-12" d="m67.4,97.15c-.32-.21-.63-.41-.67-.44.11-.54.21-1.03.26-1.33,0,0,.04-.27-.17-.31-.3-.06-.72.17-1.2.53-.05.04-.13.1-.16.21-.03.1-.14.69-.2.94-.02.09.03.19.13.21.09.02.18-.03.21-.13.07-.21.2-.65.22-.68.02-.04.21-.19.21-.19l-.36,3.66c0,.11.09.19.19.21.12.01.22-.08.24-.2,0,0,.24-1.06.47-2.15l.41.19-.21,1.06c-.03.1.02.21.12.25.1.03.21-.02.25-.12,0,0,.37-.9.42-1.06.05-.17.18-.43-.15-.64Z"/>
      <g>
        <path class="cls-6-1-12" d="m63.63,95.72c0,.24-.19.43-.43.43s-.43-.19-.43-.43.19-.43.43-.43.43.19.43.43Z"/>
        <path class="cls-6-1-12" d="m64.6,98.18s-.06-.47-.12-.76c-.02-.07-.04-.13-.09-.22-.17-.29-.41-.63-.63-.75-.35-.18-.69-.08-.86.2-.17.3-.39.78-1,1.18-.08.05-.14.12-.11.21.03.09.12.14.21.11.01,0,.02,0,.03-.01.13-.06.65-.3.83-.59l-.15,3.28c-.01.12.07.23.19.25.12.01.22-.08.24-.2l.68-3.63s.22.18.27.33c.04.1.11.39.16.65,0,0,0,0,0,0,.02.1.1.16.19.15.09-.01.16-.1.15-.19Z"/>
        <path class="cls-6-1-12" d="m64.68,99.68l-1.21-.98-.1.7,1.06.61c.09.07.22.05.29-.04.07-.09.05-.22-.04-.29Z"/>
      </g>
    </g>
    <g>
      <g>
        <path class="cls-6-1-12" d="m78.52,111.5c0,.2-.16.35-.35.35s-.35-.16-.35-.35.16-.35.35-.35.35.16.35.35Z"/>
        <path class="cls-6-1-12" d="m78.16,111.95c-.25,0-.84.02-.84.51v1.17c0,.08.06.14.13.14.08,0,.14-.06.14-.13l.07-.71.07,2.64c0,.1.08.18.18.18s.18-.08.18-.18l.07-1.62.07,1.62c0,.1.08.18.18.18s.18-.08.18-.18l.07-2.64.07.71c0,.08.07.13.14.13.08,0,.13-.07.13-.14v-1.17c0-.49-.59-.51-.84-.51Z"/>
      </g>
      <g>
        <path class="cls-6-1-12" d="m80.68,111.5c0,.2-.16.35-.35.35s-.35-.16-.35-.35.16-.35.35-.35.35.16.35.35Z"/>
        <path class="cls-6-1-12" d="m80.33,111.95c-.25,0-.84.02-.84.51v1.17c0,.08.06.14.13.14.08,0,.14-.06.14-.13l.07-.71.07,2.64c0,.1.08.18.18.18s.18-.08.18-.18l.07-1.62.07,1.62c0,.1.08.18.18.18s.18-.08.18-.18l.07-2.64.07.71c0,.08.07.13.14.13.08,0,.13-.07.13-.14v-1.17c0-.49-.59-.51-.84-.51Z"/>
      </g>
      <path class="cls-6-1-12" d="m81.57,116h-4.64c-.36,0-.65-.29-.65-.65v-4.97c0-.36.29-.65.65-.65h4.64c.36,0,.65.29.65.65v4.97c0,.36-.29.65-.65.65Zm-4.64-5.86c-.13,0-.24.11-.24.24v4.97c0,.13.11.24.24.24h4.64c.13,0,.24-.11.24-.24v-4.97c0-.13-.11-.24-.24-.24h-4.64Z"/>
      <path class="cls-6-1-12" d="m81.34,108.42l-.79-.79h0s-.13-.13-.13-.13l-.13.13h0s-.79.79-.79.79c-.07.07-.07.18,0,.25.07.07.18.07.25,0l.49-.49v1.09c0,.1.08.18.18.18s.18-.08.18-.18v-1.09s.49.49.49.49c.04.04.08.05.13.05s.09-.02.13-.05c.07-.07.07-.18,0-.25Z"/>
      <path class="cls-6-1-12" d="m79.08,108.36c-.07-.07-.18-.07-.25,0l-.49.49v-1.09c0-.1-.08-.18-.18-.18s-.18.08-.18.18v1.09s-.49-.49-.49-.49c-.07-.07-.18-.07-.25,0-.07.07-.07.18,0,.25l.79.79h0s.13.13.13.13l.13-.13h0s.79-.79.79-.79c.07-.07.07-.18,0-.25Z"/>
    </g>
    <rect class="cls-3-1-12" x="45.02" y="3.38" width="40.68" height="38.52"/>
    <line class="cls-3-1-12" x1="60.35" y1="3.24" x2="60.35" y2="41.9"/>
    <polyline class="cls-3-1-12" points="82.18 151.66 85.69 151.66 85.69 183.87 67.68 183.87"/>
    <line class="cls-3-1-12" x1="66.25" y1="151.66" x2="77.38" y2="151.66"/>
    <line class="cls-3-1-12" x1="53.27" y1="151.66" x2="63.73" y2="151.66"/>
    <polyline class="cls-3-1-12" points="45.01 173.7 45.01 151.66 48.56 151.66"/>
    <polyline class="cls-3-1-12" points="63.03 183.87 45.01 183.87 45.01 177.65"/>
    <polyline class="cls-3-1-12" points="63.73 151.66 56.84 151.66 56.84 162.54 66.25 162.54 66.25 151.66"/>
    <line class="cls-3-1-12" x1="63.73" y1="151.66" x2="53.27" y2="151.66"/>
    <polyline class="cls-3-1-12" points="48.56 151.66 45.01 151.66 45.01 171.38 66.25 171.38 66.25 151.66"/>
    <rect class="cls-4-1-12" x="66.25" y="151.66" width="7.88" height="4.79"/>
    <polyline class="cls-3-1-12" points="67.68 183.87 72.13 183.87 72.13 171.38 58.57 171.38 58.57 183.87 63.03 183.87"/>
    <polyline class="cls-3-1-12" points="45.01 177.65 45.01 183.87 58.57 183.87 58.57 171.38 45.01 171.38 45.01 173.7"/>
    <rect class="cls-4-1-12" x="72.13" y="171.38" width="13.56" height="12.5"/>
    <g>
      <path class="cls-8-1-12" d="m77.51,158.45c0,.36-.29.65-.65.65s-.65-.29-.65-.65.29-.65.65-.65.65.29.65.65Z"/>
      <path class="cls-8-1-12" d="m76.85,159.31c-.46,0-1.55.04-1.55.94v2.15c0,.14.1.26.24.27.14,0,.26-.1.27-.24l.12-1.3.13,4.85c0,.18.15.33.33.33s.33-.15.33-.33l.13-2.98.13,2.98c0,.18.15.33.33.33s.33-.15.33-.33l.13-4.85.12,1.3c0,.14.13.25.27.24s.25-.13.24-.27v-2.15c0-.9-1.09-.94-1.55-.94Z"/>
    </g>
    <g>
      <path class="cls-9-1-12" d="m51.77,159.1c.36,0,.65-.29.65-.65s-.29-.65-.65-.65-.65.29-.65.65.29.65.65.65Z"/>
      <path class="cls-9-1-12" d="m53.64,162.23l-.51-1.89c-.21-.87-.89-1-1.35-1s-1.14.13-1.35,1l-.51,1.89c-.05.13.02.28.15.33.13.05.28-.02.33-.15l.51-1.44.13.66-.64,2.02h.94s.05.63.05.63l.07,1.7c0,.18.15.33.33.33s.33-.15.33-.33l.07-1.7.05-.63h.94s-.64-2.02-.64-2.02l.13-.66.51,1.44c.05.13.2.2.33.15.13-.05.2-.2.15-.33Z"/>
    </g>
    <g>
      <g>
        <path class="cls-6-1-12" d="m64.63,177.58c0,.2-.16.35-.35.35s-.35-.16-.35-.35.16-.35.35-.35.35.16.35.35Z"/>
        <path class="cls-6-1-12" d="m64.27,178.02c-.25,0-.84.02-.84.51v1.17c0,.08.06.14.13.14.08,0,.14-.06.14-.13l.07-.71.07,2.64c0,.1.08.18.18.18s.18-.08.18-.18l.07-1.62.07,1.62c0,.1.08.18.18.18s.18-.08.18-.18l.07-2.64.07.71c0,.08.07.13.14.13.08,0,.13-.07.13-.14v-1.17c0-.49-.59-.51-.84-.51Z"/>
      </g>
      <g>
        <path class="cls-6-1-12" d="m66.79,177.58c0,.2-.16.35-.35.35s-.35-.16-.35-.35.16-.35.35-.35.35.16.35.35Z"/>
        <path class="cls-6-1-12" d="m66.43,178.02c-.25,0-.84.02-.84.51v1.17c0,.08.06.14.13.14.08,0,.14-.06.14-.13l.07-.71.07,2.64c0,.1.08.18.18.18s.18-.08.18-.18l.07-1.62.07,1.62c0,.1.08.18.18.18s.18-.08.18-.18l.07-2.64.07.71c0,.08.07.13.14.13.08,0,.13-.07.13-.14v-1.17c0-.49-.59-.51-.84-.51Z"/>
      </g>
      <path class="cls-6-1-12" d="m67.67,182.07h-4.64c-.36,0-.65-.29-.65-.65v-4.97c0-.36.29-.65.65-.65h4.64c.36,0,.65.29.65.65v4.97c0,.36-.29.65-.65.65Zm-4.64-5.86c-.13,0-.24.11-.24.24v4.97c0,.13.11.24.24.24h4.64c.13,0,.24-.11.24-.24v-4.97c0-.13-.11-.24-.24-.24h-4.64Z"/>
      <path class="cls-6-1-12" d="m67.44,174.49l-.79-.79h0s-.13-.13-.13-.13l-.13.13h0s-.79.79-.79.79c-.07.07-.07.18,0,.25.07.07.18.07.25,0l.49-.49v1.09c0,.1.08.18.18.18s.18-.08.18-.18v-1.09s.49.49.49.49c.04.04.08.05.13.05s.09-.02.13-.05c.07-.07.07-.18,0-.25Z"/>
      <path class="cls-6-1-12" d="m65.19,174.43c-.07-.07-.18-.07-.25,0l-.49.49v-1.09c0-.1-.08-.18-.18-.18s-.18.08-.18.18v1.09s-.49-.49-.49-.49c-.07-.07-.18-.07-.25,0-.07.07-.07.18,0,.25l.79.79h0s.13.13.13.13l.13-.13h0s.79-.79.79-.79c.07-.07.07-.18,0-.25Z"/>
    </g>
    <polyline class="cls-3-1-12" points="45.01 213.41 45.01 198.79 49.46 198.79"/>
    <polyline class="cls-3-1-12" points="81.24 198.79 85.69 198.79 85.69 221.69 45.01 221.69 45.01 216.49"/>
    <line class="cls-3-1-12" x1="67.68" y1="198.79" x2="76.59" y2="198.79"/>
    <line class="cls-3-1-12" x1="54.12" y1="198.79" x2="63.03" y2="198.79"/>
    <polyline class="cls-3-1-12" points="49.46 198.79 45.01 198.79 45.01 211.29 58.57 211.29 58.57 198.79 54.12 198.79"/>
    <polyline class="cls-3-1-12" points="63.03 198.79 58.57 198.79 58.57 211.29 72.13 211.29 72.13 198.79 67.68 198.79"/>
    <polyline class="cls-3-1-12" points="76.59 198.79 72.13 198.79 72.13 211.29 85.69 211.29 85.69 198.79 81.24 198.79"/>
    <rect class="cls-4-1-12" x="72.13" y="211.29" width="13.56" height="10.41"/>
    <g>
      <g>
        <path class="cls-6-1-12" d="m51.35,204.54c0,.2-.16.35-.35.35s-.35-.16-.35-.35.16-.35.35-.35.35.16.35.35Z"/>
        <path class="cls-6-1-12" d="m50.99,204.98c-.25,0-.84.02-.84.51v1.17c0,.08.06.14.13.14.08,0,.14-.06.14-.13l.07-.71.07,2.64c0,.1.08.18.18.18s.18-.08.18-.18l.07-1.62.07,1.62c0,.1.08.18.18.18s.18-.08.18-.18l.07-2.64.07.71c0,.08.07.13.14.13.08,0,.13-.07.13-.14v-1.17c0-.49-.59-.51-.84-.51Z"/>
      </g>
      <g>
        <path class="cls-6-1-12" d="m53.51,204.54c0,.2-.16.35-.35.35s-.35-.16-.35-.35.16-.35.35-.35.35.16.35.35Z"/>
        <path class="cls-6-1-12" d="m53.15,204.98c-.25,0-.84.02-.84.51v1.17c0,.08.06.14.13.14.08,0,.14-.06.14-.13l.07-.71.07,2.64c0,.1.08.18.18.18s.18-.08.18-.18l.07-1.62.07,1.62c0,.1.08.18.18.18s.18-.08.18-.18l.07-2.64.07.71c0,.08.07.13.14.13.08,0,.13-.07.13-.14v-1.17c0-.49-.59-.51-.84-.51Z"/>
      </g>
      <path class="cls-6-1-12" d="m54.39,209.04h-4.64c-.36,0-.65-.29-.65-.65v-4.97c0-.36.29-.65.65-.65h4.64c.36,0,.65.29.65.65v4.97c0,.36-.29.65-.65.65Zm-4.64-5.86c-.13,0-.24.11-.24.24v4.97c0,.13.11.24.24.24h4.64c.13,0,.24-.11.24-.24v-4.97c0-.13-.11-.24-.24-.24h-4.64Z"/>
      <path class="cls-6-1-12" d="m54.16,201.45l-.79-.79h0s-.13-.13-.13-.13l-.13.13h0s-.79.79-.79.79c-.07.07-.07.18,0,.25.07.07.18.07.25,0l.49-.49v1.09c0,.1.08.18.18.18s.18-.08.18-.18v-1.09s.49.49.49.49c.04.04.08.05.13.05s.09-.02.13-.05c.07-.07.07-.18,0-.25Z"/>
      <path class="cls-6-1-12" d="m51.91,201.39c-.07-.07-.18-.07-.25,0l-.49.49v-1.09c0-.1-.08-.18-.18-.18s-.18.08-.18.18v1.09s-.49-.49-.49-.49c-.07-.07-.18-.07-.25,0-.07.07-.07.18,0,.25l.79.79h0s.13.13.13.13l.13-.13h0s.79-.79.79-.79c.07-.07.07-.18,0-.25Z"/>
    </g>
    <g>
      <g>
        <path class="cls-6-1-12" d="m64.79,204.54c0,.2-.16.35-.35.35s-.35-.16-.35-.35.16-.35.35-.35.35.16.35.35Z"/>
        <path class="cls-6-1-12" d="m64.44,204.98c-.25,0-.84.02-.84.51v1.17c0,.08.06.14.13.14.08,0,.14-.06.14-.13l.07-.71.07,2.64c0,.1.08.18.18.18s.18-.08.18-.18l.07-1.62.07,1.62c0,.1.08.18.18.18s.18-.08.18-.18l.07-2.64.07.71c0,.08.07.13.14.13.08,0,.13-.07.13-.14v-1.17c0-.49-.59-.51-.84-.51Z"/>
      </g>
      <g>
        <path class="cls-6-1-12" d="m66.96,204.54c0,.2-.16.35-.35.35s-.35-.16-.35-.35.16-.35.35-.35.35.16.35.35Z"/>
        <path class="cls-6-1-12" d="m66.6,204.98c-.25,0-.84.02-.84.51v1.17c0,.08.06.14.13.14.08,0,.14-.06.14-.13l.07-.71.07,2.64c0,.1.08.18.18.18s.18-.08.18-.18l.07-1.62.07,1.62c0,.1.08.18.18.18s.18-.08.18-.18l.07-2.64.07.71c0,.08.07.13.14.13.08,0,.13-.07.13-.14v-1.17c0-.49-.59-.51-.84-.51Z"/>
      </g>
      <path class="cls-6-1-12" d="m67.84,209.04h-4.64c-.36,0-.65-.29-.65-.65v-4.97c0-.36.29-.65.65-.65h4.64c.36,0,.65.29.65.65v4.97c0,.36-.29.65-.65.65Zm-4.64-5.86c-.13,0-.24.11-.24.24v4.97c0,.13.11.24.24.24h4.64c.13,0,.24-.11.24-.24v-4.97c0-.13-.11-.24-.24-.24h-4.64Z"/>
      <path class="cls-6-1-12" d="m67.61,201.45l-.79-.79h0s-.13-.13-.13-.13l-.13.13h0s-.79.79-.79.79c-.07.07-.07.18,0,.25.07.07.18.07.25,0l.49-.49v1.09c0,.1.08.18.18.18s.18-.08.18-.18v-1.09s.49.49.49.49c.04.04.08.05.13.05s.09-.02.13-.05c.07-.07.07-.18,0-.25Z"/>
      <path class="cls-6-1-12" d="m65.35,201.39c-.07-.07-.18-.07-.25,0l-.49.49v-1.09c0-.1-.08-.18-.18-.18s-.18.08-.18.18v1.09s-.49-.49-.49-.49c-.07-.07-.18-.07-.25,0-.07.07-.07.18,0,.25l.79.79h0s.13.13.13.13l.13-.13h0s.79-.79.79-.79c.07-.07.07-.18,0-.25Z"/>
    </g>
    <g>
      <g>
        <path class="cls-6-1-12" d="m78.19,204.54c0,.2-.16.35-.35.35s-.35-.16-.35-.35.16-.35.35-.35.35.16.35.35Z"/>
        <path class="cls-6-1-12" d="m77.83,204.98c-.25,0-.84.02-.84.51v1.17c0,.08.06.14.13.14.08,0,.14-.06.14-.13l.07-.71.07,2.64c0,.1.08.18.18.18s.18-.08.18-.18l.07-1.62.07,1.62c0,.1.08.18.18.18s.18-.08.18-.18l.07-2.64.07.71c0,.08.07.13.14.13.08,0,.13-.07.13-.14v-1.17c0-.49-.59-.51-.84-.51Z"/>
      </g>
      <g>
        <path class="cls-6-1-12" d="m80.35,204.54c0,.2-.16.35-.35.35s-.35-.16-.35-.35.16-.35.35-.35.35.16.35.35Z"/>
        <path class="cls-6-1-12" d="m79.99,204.98c-.25,0-.84.02-.84.51v1.17c0,.08.06.14.13.14.08,0,.14-.06.14-.13l.07-.71.07,2.64c0,.1.08.18.18.18s.18-.08.18-.18l.07-1.62.07,1.62c0,.1.08.18.18.18s.18-.08.18-.18l.07-2.64.07.71c0,.08.07.13.14.13.08,0,.13-.07.13-.14v-1.17c0-.49-.59-.51-.84-.51Z"/>
      </g>
      <path class="cls-6-1-12" d="m81.23,209.04h-4.64c-.36,0-.65-.29-.65-.65v-4.97c0-.36.29-.65.65-.65h4.64c.36,0,.65.29.65.65v4.97c0,.36-.29.65-.65.65Zm-4.64-5.86c-.13,0-.24.11-.24.24v4.97c0,.13.11.24.24.24h4.64c.13,0,.24-.11.24-.24v-4.97c0-.13-.11-.24-.24-.24h-4.64Z"/>
      <path class="cls-6-1-12" d="m81,201.45l-.79-.79h0s-.13-.13-.13-.13l-.13.13h0s-.79.79-.79.79c-.07.07-.07.18,0,.25.07.07.18.07.25,0l.49-.49v1.09c0,.1.08.18.18.18s.18-.08.18-.18v-1.09s.49.49.49.49c.04.04.08.05.13.05s.09-.02.13-.05c.07-.07.07-.18,0-.25Z"/>
      <path class="cls-6-1-12" d="m78.75,201.39c-.07-.07-.18-.07-.25,0l-.49.49v-1.09c0-.1-.08-.18-.18-.18s-.18.08-.18.18v1.09s-.49-.49-.49-.49c-.07-.07-.18-.07-.25,0-.07.07-.07.18,0,.25l.79.79h0s.13.13.13.13l.13-.13h0s.79-.79.79-.79c.07-.07.07-.18,0-.25Z"/>
    </g>
    <g>
      <path class="cls-6-1-12" d="m60.33,212.67c0,.24-.19.43-.43.43s-.43-.19-.43-.43.19-.43.43-.43.43.19.43.43Z"/>
      <polygon class="cls-6-1-12" points="62.46 217.31 60.93 217.31 60.93 217.86 59.55 217.86 59.55 218.4 58.21 218.4 58.21 218.95 56.87 218.95 56.87 219.49 55.53 219.49 55.53 220.04 54.68 220.04 54.68 220.74 56.31 220.74 56.31 220.17 57.63 220.17 57.63 219.63 58.97 219.63 58.97 219.08 60.31 219.08 60.31 218.54 61.65 218.54 61.65 218.01 62.46 218.01 62.46 217.31"/>
      <path class="cls-6-1-12" d="m60.42,215.32c-.32-.21-.63-.41-.67-.44.11-.54.21-1.03.26-1.33,0,0,.04-.27-.17-.31-.3-.06-.72.17-1.2.53-.05.04-.13.1-.16.21-.03.1-.14.69-.2.94-.02.09.03.19.13.21.09.02.18-.03.21-.13.07-.21.2-.65.22-.68.02-.04.21-.19.21-.19l-.36,3.66c0,.11.09.19.19.21.12.01.22-.08.24-.2,0,0,.24-1.06.47-2.15l.41.19-.21,1.06c-.03.1.02.21.12.25.1.03.21-.02.25-.12,0,0,.37-.9.42-1.06.05-.17.18-.43-.15-.64Z"/>
      <g>
        <path class="cls-6-1-12" d="m56.65,213.89c0,.24-.19.43-.43.43s-.43-.19-.43-.43.19-.43.43-.43.43.19.43.43Z"/>
        <path class="cls-6-1-12" d="m57.62,216.35s-.06-.47-.12-.76c-.02-.07-.04-.13-.09-.22-.17-.29-.41-.63-.63-.75-.35-.18-.69-.08-.86.2-.17.3-.39.78-1,1.18-.08.05-.14.12-.11.21.03.09.12.14.21.11.01,0,.02,0,.03-.01.13-.06.65-.3.83-.59l-.15,3.28c-.01.12.07.23.19.25.12.01.22-.08.24-.2l.68-3.63s.22.18.27.33c.04.1.11.39.16.65,0,0,0,0,0,0,.02.1.1.16.19.15.09-.01.16-.1.15-.19Z"/>
        <path class="cls-6-1-12" d="m57.7,217.86l-1.21-.98-.1.7,1.06.61c.09.07.22.05.29-.04.07-.09.05-.22-.04-.29Z"/>
      </g>
    </g>
    <rect class="cls-3-1-12" x="2.98" y="3.34" width="123.27" height="229.5"/>
    <rect class="cls-3-1-12" x="93.82" y="198.24" width="32.43" height="34.59"/>
    <rect class="cls-3-1-12" x="93.82" y="172.14" width="32.43" height="26.1"/>
    <rect class="cls-3-1-12" x="2.98" y="146.04" width="32.43" height="26.1"/>
    <rect class="cls-3-1-12" x="93.82" y="146.04" width="32.43" height="26.1"/>
    <rect class="cls-5-1-12" x="2.98" y="120.04" width="32.43" height="26.1"/>
    <rect class="cls-3-1-12" x="93.82" y="119.94" width="32.43" height="26.1"/>
    <rect class="cls-3-1-12" x="2.98" y="93.94" width="32.43" height="26.1"/>
    <rect class="cls-3-1-12" x="93.82" y="93.82" width="32.43" height="26.1"/>
    <line class="cls-3-1-12" x1="2.98" y1="106.99" x2="35.42" y2="106.99"/>
    <rect class="cls-3-1-12" x="93.82" y="77.73" width="32.43" height="16.04"/>
    <rect class="cls-3-1-12" x="93.82" y="67.47" width="32.43" height="10.26"/>
    <polyline class="cls-3-1-12" points="35.42 27.67 35.42 41.9 2.98 41.9 2.98 3.38 35.42 3.38"/>
    <rect class="cls-3-1-12" x="93.82" y="31.64" width="32.43" height="35.83"/>
    <rect class="cls-3-1-12" x="2.98" y="198.24" width="32.43" height="26.1"/>
    <rect class="cls-3-1-12" x="93.82" y="198.27" width="32.43" height="13.05"/>
    <line class="cls-3-1-12" x1="93.82" y1="159.09" x2="126.25" y2="159.09"/>
    <rect class="cls-3-1-12" x="70.36" y="41.9" width="15.34" height="38.66"/>
    <line class="cls-3-1-12" x1="10.45" y1="50.11" x2="10.45" y2="65.29"/>
    <line class="cls-3-1-12" x1="10.45" y1="41.9" x2="10.45" y2="47.51"/>
    <path class="cls-3-1-12" d="m35.42,63.61v1.69H2.98v-23.39h32.43v12.82h-12.09c-2.45,0-4.44,1.99-4.44,4.44s1.99,4.44,4.44,4.44h12.09Z"/>
    <g>
      <path class="cls-6-1-12" d="m30.21,55.9c0,.2-.16.36-.36.36s-.36-.16-.36-.36.16-.36.36-.36.36.16.36.36Z"/>
      <polygon class="cls-6-1-12" points="31.99 59.77 30.7 59.77 30.7 60.22 29.55 60.22 29.55 60.68 28.44 60.68 28.44 61.13 27.32 61.13 27.32 61.59 26.21 61.59 26.21 62.04 25.5 62.04 25.5 62.63 26.86 62.63 26.86 62.15 27.96 62.15 27.96 61.7 29.08 61.7 29.08 61.24 30.19 61.24 30.19 60.79 31.31 60.79 31.31 60.35 31.99 60.35 31.99 59.77"/>
      <path class="cls-6-1-12" d="m30.29,58.11c-.26-.17-.52-.34-.56-.37.09-.45.18-.86.22-1.11,0,0,.03-.22-.15-.26-.25-.05-.6.14-1,.44-.04.03-.11.09-.13.18-.02.08-.12.57-.17.78-.02.08.03.16.11.18.08.02.15-.03.18-.11.06-.17.17-.54.18-.57.02-.03.17-.16.17-.16l-.3,3.05c0,.09.07.16.16.17.1.01.19-.06.2-.17,0,0,.2-.88.39-1.79l.34.16-.18.89c-.03.09.02.18.1.21.09.03.18-.02.21-.1,0,0,.31-.75.35-.88.04-.14.15-.36-.12-.54Z"/>
      <g>
        <path class="cls-6-1-12" d="m27.14,56.91c0,.2-.16.36-.36.36s-.36-.16-.36-.36.16-.36.36-.36.36.16.36.36Z"/>
        <path class="cls-6-1-12" d="m27.95,58.97s-.05-.39-.1-.64c-.01-.06-.03-.11-.07-.18-.14-.24-.34-.53-.52-.62-.29-.15-.58-.06-.71.17-.14.25-.33.65-.83.98-.07.04-.11.1-.09.17.02.07.1.11.17.09,0,0,.02,0,.02-.01.11-.05.54-.25.69-.49l-.12,2.74c-.01.1.06.19.16.2.1.01.19-.06.2-.17l.57-3.03s.18.15.23.27c.03.08.09.32.14.54,0,0,0,0,0,0,.02.08.08.13.16.12.08-.01.13-.08.12-.16Z"/>
        <path class="cls-6-1-12" d="m28.02,60.22l-1.01-.82-.09.59.88.51c.08.06.19.04.24-.03.06-.08.04-.19-.03-.24Z"/>
      </g>
    </g>
    <rect class="cls-4-1-12" x="45.01" y="171.38" width="13.56" height="12.5"/>
    <rect class="cls-7-1-12" x="94.59" y="31.92" width="32.43" height="10.08"/>
    <rect class="cls-7-1-12" x="22.88" y="3.24" width="22.09" height="24.21"/>
    <line class="cls-4-1-12" x1="35.42" y1="120.36" x2="35.42" y2="146.14"/>
  </g>
</svg>