<?xml version="1.0" encoding="UTF-8"?>
<svg xmlns="http://www.w3.org/2000/svg" viewBox="0 0 131 233">
  <defs>
    <style>
      .cls-1-1-14 {
        fill: none;
      }

      .cls-1-1-14, .cls-2-1-14 {
        stroke: #231815;
        stroke-miterlimit: 10;
      }

      .cls-3-1-14, .cls-4-1-14, .cls-5-1-14, .cls-6-1-14, .cls-7-1-14 {
        stroke-width: 0px;
      }

      .cls-3-1-14, .cls-2-1-14 {
        fill: #231815;
      }

      .cls-4-1-14 {
        opacity: .2;
      }

      .cls-4-1-14, .cls-7-1-14 {
        fill: #7a1a24;
      }

      .cls-5-1-14 {
        fill: #2d3e6a;
      }

      .cls-6-1-14 {
        fill: #ba1f21;
      }

      .cls-8-1-14 {
        fill: #fff;
        font-family: KozGoPr6N-Regular-90ms-RKSJ-H, 'Kozuka Gothic Pr6N';
        font-size: 7px;
      }
    </style>
  </defs>
  <g id="_11409B" data-name="11409B">
    <rect class="cls-7-1-14" x="61.57" y="3.3" width="25.35" height="38.38"/>
    <text class="cls-8-1-14" transform="translate(62.41 25.66)"><tspan x="0" y="0">11409B</tspan></text>
  </g>
  <g id="_11408A" data-name="11408A">
    <rect class="cls-7-1-14" x="4.2" y="3.12" width="42.03" height="22.53"/>
    <text class="cls-8-1-14" transform="translate(13.03 17.15)"><tspan x="0" y="0">11408A</tspan></text>
  </g>
  <g id="_レイヤー_1" data-name="レイヤー 1">
    <rect class="cls-4-1-14" x="87.36" y="3.16" width="40.1" height="22.85"/>
    <rect class="cls-4-1-14" x="46.81" y="51.07" width="40.1" height="29.54"/>
    <rect class="cls-4-1-14" x="95.03" y="26.7" width="32.43" height="205.92"/>
    <rect class="cls-4-1-14" x="46.23" y="3.3" width="15.34" height="38.38"/>
    <rect class="cls-4-1-14" x="4.2" y="25.88" width="32.43" height="206.75"/>
    <rect class="cls-1-1-14" x="86.91" y="3.12" width="40.56" height="22.89"/>
    <rect class="cls-1-1-14" x="46.23" y="50.85" width="40.68" height="29.77"/>
    <rect class="cls-1-1-14" x="4.2" y="3.12" width="42.03" height="22.53"/>
    <rect class="cls-1-1-14" x="4.2" y="65.07" width="32.43" height="28.66"/>
    <rect class="cls-1-1-14" x="4.2" y="171.93" width="32.43" height="26.1"/>
    <rect class="cls-2-1-14" x="46.23" y="120.67" width="40.68" height="25.55"/>
    <polyline class="cls-1-1-14" points="46.23 103.25 46.23 88.63 86.91 88.63 86.91 120.67 46.23 120.67"/>
    <line class="cls-1-1-14" x1="73.85" y1="112.8" x2="73.85" y2="120.67"/>
    <line class="cls-1-1-14" x1="73.85" y1="103.25" x2="73.85" y2="108.17"/>
    <polyline class="cls-2-1-14" points="58.76 103.25 77.91 103.25 77.91 92.02 52.72 92.02 52.72 103.25 46.23 103.25 46.23 88.63 86.91 88.63 86.91 103.25 58.76 103.25"/>
    <g>
      <path class="cls-3-1-14" d="m68.52,94.29c0,.24-.19.43-.43.43s-.43-.19-.43-.43.19-.43.43-.43.43.19.43.43Z"/>
      <polygon class="cls-3-1-14" points="70.65 98.92 69.11 98.92 69.11 99.47 67.73 99.47 67.73 100.02 66.4 100.02 66.4 100.56 65.06 100.56 65.06 101.11 63.72 101.11 63.72 101.66 62.87 101.66 62.87 102.36 64.5 102.36 64.5 101.79 65.82 101.79 65.82 101.24 67.16 101.24 67.16 100.7 68.5 100.7 68.5 100.15 69.84 100.15 69.84 99.62 70.65 99.62 70.65 98.92"/>
      <path class="cls-3-1-14" d="m68.61,96.94c-.32-.21-.63-.41-.67-.44.11-.54.21-1.03.26-1.33,0,0,.04-.27-.17-.31-.3-.06-.72.17-1.2.53-.05.04-.13.1-.16.21-.03.1-.14.69-.2.94-.02.09.03.19.13.21.09.02.18-.03.21-.13.07-.21.2-.65.22-.68.02-.04.21-.19.21-.19l-.36,3.66c0,.11.09.19.19.21.12.01.22-.08.24-.2,0,0,.24-1.06.47-2.15l.41.19-.21,1.06c-.03.1.02.21.12.25.1.03.21-.02.25-.12,0,0,.37-.9.42-1.06.05-.17.18-.43-.15-.64Z"/>
      <g>
        <path class="cls-3-1-14" d="m64.84,95.5c0,.24-.19.43-.43.43s-.43-.19-.43-.43.19-.43.43-.43.43.19.43.43Z"/>
        <path class="cls-3-1-14" d="m65.81,97.97s-.06-.47-.12-.76c-.02-.07-.04-.13-.09-.22-.17-.29-.41-.63-.63-.75-.35-.18-.69-.08-.86.2-.17.3-.39.78-1,1.18-.08.05-.14.12-.11.21.03.09.12.14.21.11.01,0,.02,0,.03-.01.13-.06.65-.3.83-.59l-.15,3.28c-.01.12.07.23.19.25.12.01.22-.08.24-.2l.68-3.63s.22.18.27.33c.04.1.11.39.16.65,0,0,0,0,0,0,.02.1.1.16.19.15.09-.01.16-.1.15-.19Z"/>
        <path class="cls-3-1-14" d="m65.89,99.47l-1.21-.98-.1.7,1.06.61c.09.07.22.05.29-.04.07-.09.05-.22-.04-.29Z"/>
      </g>
    </g>
    <g>
      <g>
        <path class="cls-3-1-14" d="m79.73,111.29c0,.2-.16.35-.35.35s-.35-.16-.35-.35.16-.35.35-.35.35.16.35.35Z"/>
        <path class="cls-3-1-14" d="m79.38,111.73c-.25,0-.84.02-.84.51v1.17c0,.08.06.14.13.14.08,0,.14-.06.14-.13l.07-.71.07,2.64c0,.1.08.18.18.18s.18-.08.18-.18l.07-1.62.07,1.62c0,.1.08.18.18.18s.18-.08.18-.18l.07-2.64.07.71c0,.08.07.13.14.13.08,0,.13-.07.13-.14v-1.17c0-.49-.59-.51-.84-.51Z"/>
      </g>
      <g>
        <path class="cls-3-1-14" d="m81.89,111.29c0,.2-.16.35-.35.35s-.35-.16-.35-.35.16-.35.35-.35.35.16.35.35Z"/>
        <path class="cls-3-1-14" d="m81.54,111.73c-.25,0-.84.02-.84.51v1.17c0,.08.06.14.13.14.08,0,.14-.06.14-.13l.07-.71.07,2.64c0,.1.08.18.18.18s.18-.08.18-.18l.07-1.62.07,1.62c0,.1.08.18.18.18s.18-.08.18-.18l.07-2.64.07.71c0,.08.07.13.14.13.08,0,.13-.07.13-.14v-1.17c0-.49-.59-.51-.84-.51Z"/>
      </g>
      <path class="cls-3-1-14" d="m82.78,115.79h-4.64c-.36,0-.65-.29-.65-.65v-4.97c0-.36.29-.65.65-.65h4.64c.36,0,.65.29.65.65v4.97c0,.36-.29.65-.65.65Zm-4.64-5.86c-.13,0-.24.11-.24.24v4.97c0,.13.11.24.24.24h4.64c.13,0,.24-.11.24-.24v-4.97c0-.13-.11-.24-.24-.24h-4.64Z"/>
      <path class="cls-3-1-14" d="m82.55,108.21l-.79-.79h0s-.13-.13-.13-.13l-.13.13h0s-.79.79-.79.79c-.07.07-.07.18,0,.25.07.07.18.07.25,0l.49-.49v1.09c0,.1.08.18.18.18s.18-.08.18-.18v-1.09s.49.49.49.49c.04.04.08.05.13.05s.09-.02.13-.05c.07-.07.07-.18,0-.25Z"/>
      <path class="cls-3-1-14" d="m80.29,108.15c-.07-.07-.18-.07-.25,0l-.49.49v-1.09c0-.1-.08-.18-.18-.18s-.18.08-.18.18v1.09s-.49-.49-.49-.49c-.07-.07-.18-.07-.25,0-.07.07-.07.18,0,.25l.79.79h0s.13.13.13.13l.13-.13h0s.79-.79.79-.79c.07-.07.07-.18,0-.25Z"/>
    </g>
    <rect class="cls-1-1-14" x="46.23" y="3.16" width="40.68" height="38.52"/>
    <line class="cls-1-1-14" x1="61.57" y1="3.02" x2="61.57" y2="41.68"/>
    <polyline class="cls-1-1-14" points="83.39 151.45 86.91 151.45 86.91 183.66 68.89 183.66"/>
    <line class="cls-1-1-14" x1="67.46" y1="151.45" x2="78.59" y2="151.45"/>
    <line class="cls-1-1-14" x1="54.48" y1="151.45" x2="64.95" y2="151.45"/>
    <polyline class="cls-1-1-14" points="46.23 173.48 46.23 151.45 49.77 151.45"/>
    <polyline class="cls-1-1-14" points="64.24 183.66 46.23 183.66 46.23 177.44"/>
    <polyline class="cls-1-1-14" points="64.95 151.45 58.05 151.45 58.05 162.33 67.46 162.33 67.46 151.45"/>
    <line class="cls-1-1-14" x1="64.95" y1="151.45" x2="54.48" y2="151.45"/>
    <polyline class="cls-1-1-14" points="49.77 151.45 46.23 151.45 46.23 171.16 67.46 171.16 67.46 151.45"/>
    <rect class="cls-2-1-14" x="67.46" y="151.45" width="7.88" height="4.79"/>
    <polyline class="cls-1-1-14" points="68.89 183.66 73.35 183.66 73.35 171.16 59.79 171.16 59.79 183.66 64.24 183.66"/>
    <polyline class="cls-1-1-14" points="46.23 177.44 46.23 183.66 59.79 183.66 59.79 171.16 46.23 171.16 46.23 173.48"/>
    <rect class="cls-2-1-14" x="73.35" y="171.16" width="13.56" height="12.5"/>
    <g>
      <path class="cls-5-1-14" d="m78.97,158.24c0,.36-.29.65-.65.65s-.65-.29-.65-.65.29-.65.65-.65.65.29.65.65Z"/>
      <path class="cls-5-1-14" d="m78.32,159.1c-.46,0-1.55.04-1.55.94v2.15c0,.14.1.26.24.27.14,0,.26-.1.27-.24l.12-1.3.13,4.85c0,.18.15.33.33.33s.33-.15.33-.33l.13-2.98.13,2.98c0,.18.15.33.33.33s.33-.15.33-.33l.13-4.85.12,1.3c0,.14.13.25.27.24s.25-.13.24-.27v-2.15c0-.9-1.09-.94-1.55-.94Z"/>
    </g>
    <g>
      <path class="cls-6-1-14" d="m52.98,158.89c.36,0,.65-.29.65-.65s-.29-.65-.65-.65-.65.29-.65.65.29.65.65.65Z"/>
      <path class="cls-6-1-14" d="m54.85,162.01l-.51-1.89c-.21-.87-.89-1-1.35-1s-1.14.13-1.35,1l-.51,1.89c-.05.13.02.28.15.33.13.05.28-.02.33-.15l.51-1.44.13.66-.64,2.02h.94s.05.63.05.63l.07,1.7c0,.18.15.33.33.33s.33-.15.33-.33l.07-1.7.05-.63h.94s-.64-2.02-.64-2.02l.13-.66.51,1.44c.05.13.2.2.33.15.13-.05.2-.2.15-.33Z"/>
    </g>
    <g>
      <g>
        <path class="cls-3-1-14" d="m65.84,177.36c0,.2-.16.35-.35.35s-.35-.16-.35-.35.16-.35.35-.35.35.16.35.35Z"/>
        <path class="cls-3-1-14" d="m65.49,177.8c-.25,0-.84.02-.84.51v1.17c0,.08.06.14.13.14.08,0,.14-.06.14-.13l.07-.71.07,2.64c0,.1.08.18.18.18s.18-.08.18-.18l.07-1.62.07,1.62c0,.1.08.18.18.18s.18-.08.18-.18l.07-2.64.07.71c0,.08.07.13.14.13.08,0,.13-.07.13-.14v-1.17c0-.49-.59-.51-.84-.51Z"/>
      </g>
      <g>
        <path class="cls-3-1-14" d="m68,177.36c0,.2-.16.35-.35.35s-.35-.16-.35-.35.16-.35.35-.35.35.16.35.35Z"/>
        <path class="cls-3-1-14" d="m67.65,177.8c-.25,0-.84.02-.84.51v1.17c0,.08.06.14.13.14.08,0,.14-.06.14-.13l.07-.71.07,2.64c0,.1.08.18.18.18s.18-.08.18-.18l.07-1.62.07,1.62c0,.1.08.18.18.18s.18-.08.18-.18l.07-2.64.07.71c0,.08.07.13.14.13.08,0,.13-.07.13-.14v-1.17c0-.49-.59-.51-.84-.51Z"/>
      </g>
      <path class="cls-3-1-14" d="m68.89,181.86h-4.64c-.36,0-.65-.29-.65-.65v-4.97c0-.36.29-.65.65-.65h4.64c.36,0,.65.29.65.65v4.97c0,.36-.29.65-.65.65Zm-4.64-5.86c-.13,0-.24.11-.24.24v4.97c0,.13.11.24.24.24h4.64c.13,0,.24-.11.24-.24v-4.97c0-.13-.11-.24-.24-.24h-4.64Z"/>
      <path class="cls-3-1-14" d="m68.66,174.28l-.79-.79h0s-.13-.13-.13-.13l-.13.13h0s-.79.79-.79.79c-.07.07-.07.18,0,.25.07.07.18.07.25,0l.49-.49v1.09c0,.1.08.18.18.18s.18-.08.18-.18v-1.09s.49.49.49.49c.04.04.08.05.13.05s.09-.02.13-.05c.07-.07.07-.18,0-.25Z"/>
      <path class="cls-3-1-14" d="m66.4,174.22c-.07-.07-.18-.07-.25,0l-.49.49v-1.09c0-.1-.08-.18-.18-.18s-.18.08-.18.18v1.09s-.49-.49-.49-.49c-.07-.07-.18-.07-.25,0-.07.07-.07.18,0,.25l.79.79h0s.13.13.13.13l.13-.13h0s.79-.79.79-.79c.07-.07.07-.18,0-.25Z"/>
    </g>
    <polyline class="cls-1-1-14" points="46.23 213.2 46.23 198.58 50.68 198.58"/>
    <polyline class="cls-1-1-14" points="82.45 198.58 86.91 198.58 86.91 221.48 46.23 221.48 46.23 216.28"/>
    <line class="cls-1-1-14" x1="68.89" y1="198.58" x2="77.8" y2="198.58"/>
    <line class="cls-1-1-14" x1="55.33" y1="198.58" x2="64.24" y2="198.58"/>
    <polyline class="cls-1-1-14" points="50.68 198.58 46.23 198.58 46.23 211.07 59.79 211.07 59.79 198.58 55.33 198.58"/>
    <polyline class="cls-1-1-14" points="64.24 198.58 59.79 198.58 59.79 211.07 73.35 211.07 73.35 198.58 68.89 198.58"/>
    <polyline class="cls-1-1-14" points="77.8 198.58 73.35 198.58 73.35 211.07 86.91 211.07 86.91 198.58 82.45 198.58"/>
    <rect class="cls-2-1-14" x="73.35" y="211.07" width="13.56" height="10.41"/>
    <g>
      <g>
        <path class="cls-3-1-14" d="m52.56,204.33c0,.2-.16.35-.35.35s-.35-.16-.35-.35.16-.35.35-.35.35.16.35.35Z"/>
        <path class="cls-3-1-14" d="m52.21,204.77c-.25,0-.84.02-.84.51v1.17c0,.08.06.14.13.14.08,0,.14-.06.14-.13l.07-.71.07,2.64c0,.1.08.18.18.18s.18-.08.18-.18l.07-1.62.07,1.62c0,.1.08.18.18.18s.18-.08.18-.18l.07-2.64.07.71c0,.08.07.13.14.13.08,0,.13-.07.13-.14v-1.17c0-.49-.59-.51-.84-.51Z"/>
      </g>
      <g>
        <path class="cls-3-1-14" d="m54.72,204.33c0,.2-.16.35-.35.35s-.35-.16-.35-.35.16-.35.35-.35.35.16.35.35Z"/>
        <path class="cls-3-1-14" d="m54.37,204.77c-.25,0-.84.02-.84.51v1.17c0,.08.06.14.13.14.08,0,.14-.06.14-.13l.07-.71.07,2.64c0,.1.08.18.18.18s.18-.08.18-.18l.07-1.62.07,1.62c0,.1.08.18.18.18s.18-.08.18-.18l.07-2.64.07.71c0,.08.07.13.14.13.08,0,.13-.07.13-.14v-1.17c0-.49-.59-.51-.84-.51Z"/>
      </g>
      <path class="cls-3-1-14" d="m55.61,208.82h-4.64c-.36,0-.65-.29-.65-.65v-4.97c0-.36.29-.65.65-.65h4.64c.36,0,.65.29.65.65v4.97c0,.36-.29.65-.65.65Zm-4.64-5.86c-.13,0-.24.11-.24.24v4.97c0,.13.11.24.24.24h4.64c.13,0,.24-.11.24-.24v-4.97c0-.13-.11-.24-.24-.24h-4.64Z"/>
      <path class="cls-3-1-14" d="m55.38,201.24l-.79-.79h0s-.13-.13-.13-.13l-.13.13h0s-.79.79-.79.79c-.07.07-.07.18,0,.25.07.07.18.07.25,0l.49-.49v1.09c0,.1.08.18.18.18s.18-.08.18-.18v-1.09s.49.49.49.49c.04.04.08.05.13.05s.09-.02.13-.05c.07-.07.07-.18,0-.25Z"/>
      <path class="cls-3-1-14" d="m53.12,201.18c-.07-.07-.18-.07-.25,0l-.49.49v-1.09c0-.1-.08-.18-.18-.18s-.18.08-.18.18v1.09s-.49-.49-.49-.49c-.07-.07-.18-.07-.25,0-.07.07-.07.18,0,.25l.79.79h0s.13.13.13.13l.13-.13h0s.79-.79.79-.79c.07-.07.07-.18,0-.25Z"/>
    </g>
    <g>
      <g>
        <path class="cls-3-1-14" d="m66.01,204.33c0,.2-.16.35-.35.35s-.35-.16-.35-.35.16-.35.35-.35.35.16.35.35Z"/>
        <path class="cls-3-1-14" d="m65.65,204.77c-.25,0-.84.02-.84.51v1.17c0,.08.06.14.13.14.08,0,.14-.06.14-.13l.07-.71.07,2.64c0,.1.08.18.18.18s.18-.08.18-.18l.07-1.62.07,1.62c0,.1.08.18.18.18s.18-.08.18-.18l.07-2.64.07.71c0,.08.07.13.14.13.08,0,.13-.07.13-.14v-1.17c0-.49-.59-.51-.84-.51Z"/>
      </g>
      <g>
        <path class="cls-3-1-14" d="m68.17,204.33c0,.2-.16.35-.35.35s-.35-.16-.35-.35.16-.35.35-.35.35.16.35.35Z"/>
        <path class="cls-3-1-14" d="m67.81,204.77c-.25,0-.84.02-.84.51v1.17c0,.08.06.14.13.14.08,0,.14-.06.14-.13l.07-.71.07,2.64c0,.1.08.18.18.18s.18-.08.18-.18l.07-1.62.07,1.62c0,.1.08.18.18.18s.18-.08.18-.18l.07-2.64.07.71c0,.08.07.13.14.13.08,0,.13-.07.13-.14v-1.17c0-.49-.59-.51-.84-.51Z"/>
      </g>
      <path class="cls-3-1-14" d="m69.06,208.82h-4.64c-.36,0-.65-.29-.65-.65v-4.97c0-.36.29-.65.65-.65h4.64c.36,0,.65.29.65.65v4.97c0,.36-.29.65-.65.65Zm-4.64-5.86c-.13,0-.24.11-.24.24v4.97c0,.13.11.24.24.24h4.64c.13,0,.24-.11.24-.24v-4.97c0-.13-.11-.24-.24-.24h-4.64Z"/>
      <path class="cls-3-1-14" d="m68.82,201.24l-.79-.79h0s-.13-.13-.13-.13l-.13.13h0s-.79.79-.79.79c-.07.07-.07.18,0,.25.07.07.18.07.25,0l.49-.49v1.09c0,.1.08.18.18.18s.18-.08.18-.18v-1.09s.49.49.49.49c.04.04.08.05.13.05s.09-.02.13-.05c.07-.07.07-.18,0-.25Z"/>
      <path class="cls-3-1-14" d="m66.57,201.18c-.07-.07-.18-.07-.25,0l-.49.49v-1.09c0-.1-.08-.18-.18-.18s-.18.08-.18.18v1.09s-.49-.49-.49-.49c-.07-.07-.18-.07-.25,0-.07.07-.07.18,0,.25l.79.79h0s.13.13.13.13l.13-.13h0s.79-.79.79-.79c.07-.07.07-.18,0-.25Z"/>
    </g>
    <g>
      <g>
        <path class="cls-3-1-14" d="m79.4,204.33c0,.2-.16.35-.35.35s-.35-.16-.35-.35.16-.35.35-.35.35.16.35.35Z"/>
        <path class="cls-3-1-14" d="m79.05,204.77c-.25,0-.84.02-.84.51v1.17c0,.08.06.14.13.14.08,0,.14-.06.14-.13l.07-.71.07,2.64c0,.1.08.18.18.18s.18-.08.18-.18l.07-1.62.07,1.62c0,.1.08.18.18.18s.18-.08.18-.18l.07-2.64.07.71c0,.08.07.13.14.13.08,0,.13-.07.13-.14v-1.17c0-.49-.59-.51-.84-.51Z"/>
      </g>
      <g>
        <path class="cls-3-1-14" d="m81.56,204.33c0,.2-.16.35-.35.35s-.35-.16-.35-.35.16-.35.35-.35.35.16.35.35Z"/>
        <path class="cls-3-1-14" d="m81.21,204.77c-.25,0-.84.02-.84.51v1.17c0,.08.06.14.13.14.08,0,.14-.06.14-.13l.07-.71.07,2.64c0,.1.08.18.18.18s.18-.08.18-.18l.07-1.62.07,1.62c0,.1.08.18.18.18s.18-.08.18-.18l.07-2.64.07.71c0,.08.07.13.14.13.08,0,.13-.07.13-.14v-1.17c0-.49-.59-.51-.84-.51Z"/>
      </g>
      <path class="cls-3-1-14" d="m82.45,208.82h-4.64c-.36,0-.65-.29-.65-.65v-4.97c0-.36.29-.65.65-.65h4.64c.36,0,.65.29.65.65v4.97c0,.36-.29.65-.65.65Zm-4.64-5.86c-.13,0-.24.11-.24.24v4.97c0,.13.11.24.24.24h4.64c.13,0,.24-.11.24-.24v-4.97c0-.13-.11-.24-.24-.24h-4.64Z"/>
      <path class="cls-3-1-14" d="m82.22,201.24l-.79-.79h0s-.13-.13-.13-.13l-.13.13h0s-.79.79-.79.79c-.07.07-.07.18,0,.25.07.07.18.07.25,0l.49-.49v1.09c0,.1.08.18.18.18s.18-.08.18-.18v-1.09s.49.49.49.49c.04.04.08.05.13.05s.09-.02.13-.05c.07-.07.07-.18,0-.25Z"/>
      <path class="cls-3-1-14" d="m79.96,201.18c-.07-.07-.18-.07-.25,0l-.49.49v-1.09c0-.1-.08-.18-.18-.18s-.18.08-.18.18v1.09s-.49-.49-.49-.49c-.07-.07-.18-.07-.25,0-.07.07-.07.18,0,.25l.79.79h0s.13.13.13.13l.13-.13h0s.79-.79.79-.79c.07-.07.07-.18,0-.25Z"/>
    </g>
    <g>
      <path class="cls-3-1-14" d="m61.55,212.58c0,.24-.19.43-.43.43s-.43-.19-.43-.43.19-.43.43-.43.43.19.43.43Z"/>
      <polygon class="cls-3-1-14" points="63.68 217.22 62.14 217.22 62.14 217.77 60.76 217.77 60.76 218.31 59.42 218.31 59.42 218.86 58.08 218.86 58.08 219.4 56.74 219.4 56.74 219.95 55.89 219.95 55.89 220.65 57.52 220.65 57.52 220.08 58.85 220.08 58.85 219.54 60.19 219.54 60.19 218.99 61.53 218.99 61.53 218.44 62.86 218.44 62.86 217.92 63.68 217.92 63.68 217.22"/>
      <path class="cls-3-1-14" d="m61.64,215.23c-.32-.21-.63-.41-.67-.44.11-.54.21-1.03.26-1.33,0,0,.04-.27-.17-.31-.3-.06-.72.17-1.2.53-.05.04-.13.1-.16.21-.03.1-.14.69-.2.94-.02.09.03.19.13.21.09.02.18-.03.21-.13.07-.21.2-.65.22-.68.02-.04.21-.19.21-.19l-.36,3.66c0,.11.09.19.19.21.12.01.22-.08.24-.2,0,0,.24-1.06.47-2.15l.41.19-.21,1.06c-.03.1.02.21.12.25.1.03.21-.02.25-.12,0,0,.37-.9.42-1.06.05-.17.18-.43-.15-.64Z"/>
      <g>
        <path class="cls-3-1-14" d="m57.87,213.8c0,.24-.19.43-.43.43s-.43-.19-.43-.43.19-.43.43-.43.43.19.43.43Z"/>
        <path class="cls-3-1-14" d="m58.84,216.26s-.06-.47-.12-.76c-.02-.07-.04-.13-.09-.22-.17-.29-.41-.63-.63-.75-.35-.18-.69-.08-.86.2-.17.3-.39.78-1,1.18-.08.05-.14.12-.11.21.03.09.12.14.21.11.01,0,.02,0,.03-.01.13-.06.65-.3.83-.59l-.15,3.28c-.01.12.07.23.19.25.12.01.22-.08.24-.2l.68-3.63s.22.18.27.33c.04.1.11.39.16.65,0,0,0,0,0,0,.02.1.1.16.19.15.09-.01.16-.1.15-.19Z"/>
        <path class="cls-3-1-14" d="m58.92,217.76l-1.21-.98-.1.7,1.06.61c.09.07.22.05.29-.04.07-.09.05-.22-.04-.29Z"/>
      </g>
    </g>
    <rect class="cls-1-1-14" x="4.2" y="3.12" width="123.27" height="229.5"/>
    <rect class="cls-1-1-14" x="4.2" y="198.03" width="32.43" height="34.59"/>
    <rect class="cls-1-1-14" x="95.03" y="198.03" width="32.43" height="34.59"/>
    <rect class="cls-1-1-14" x="95.03" y="171.93" width="32.43" height="26.1"/>
    <line class="cls-1-1-14" x1="95.03" y1="184.98" x2="127.46" y2="184.98"/>
    <rect class="cls-1-1-14" x="4.2" y="145.83" width="32.43" height="26.1"/>
    <rect class="cls-1-1-14" x="95.03" y="145.83" width="32.43" height="26.1"/>
    <rect class="cls-1-1-14" x="4.2" y="119.83" width="32.43" height="26.1"/>
    <rect class="cls-1-1-14" x="95.03" y="119.73" width="32.43" height="26.1"/>
    <line class="cls-1-1-14" x1="4.2" y1="132.78" x2="36.63" y2="132.78"/>
    <line class="cls-1-1-14" x1="95.03" y1="132.88" x2="127.46" y2="132.88"/>
    <rect class="cls-1-1-14" x="4.2" y="93.73" width="32.43" height="26.1"/>
    <rect class="cls-1-1-14" x="95.03" y="93.61" width="32.43" height="26.1"/>
    <line class="cls-1-1-14" x1="4.2" y1="106.78" x2="36.63" y2="106.78"/>
    <rect class="cls-1-1-14" x="95.03" y="80.38" width="32.43" height="13.17"/>
    <rect class="cls-1-1-14" x="95.03" y="67.26" width="32.43" height="13.17"/>
    <rect class="cls-1-1-14" x="95.03" y="54.14" width="32.43" height="13.17"/>
    <rect class="cls-1-1-14" x="4.2" y="51.91" width="32.43" height="13.17"/>
    <rect class="cls-1-1-14" x="4.2" y="38.78" width="32.43" height="13.17"/>
    <rect class="cls-1-1-14" x="4.2" y="25.66" width="32.43" height="13.17"/>
    <rect class="cls-1-1-14" x="95.03" y="26.02" width="32.43" height="28.12"/>
  </g>
</svg>