<?xml version="1.0" encoding="UTF-8"?>
<svg xmlns="http://www.w3.org/2000/svg" viewBox="0 0 224 235">
  <defs>
    <style>
      .cls-1-1-4 {
        fill: none;
      }

      .cls-1-1-4, .cls-2-1-4 {
        stroke: #231815;
      }

      .cls-1-1-4, .cls-2-1-4, .cls-3-1-4, .cls-4-1-4 {
        stroke-miterlimit: 10;
      }

      .cls-5-1-4, .cls-6-1-4, .cls-7-1-4, .cls-8-1-4, .cls-9-1-4, .cls-10-1-4 {
        stroke-width: 0px;
      }

      .cls-5-1-4, .cls-2-1-4 {
        fill: #231815;
      }

      .cls-6-1-4, .cls-3-1-4, .cls-9-1-4 {
        fill: #7a1a24;
      }

      .cls-6-1-4, .cls-10-1-4 {
        opacity: .2;
      }

      .cls-7-1-4, .cls-4-1-4, .cls-10-1-4 {
        fill: #2d3e6a;
      }

      .cls-3-1-4, .cls-4-1-4 {
        stroke: #000;
      }

      .cls-8-1-4 {
        fill: #ba1f21;
      }

      .cls-11-1-4 {
        fill: #fff;
        font-family: KozGoPr6N-Regular-90ms-RKSJ-H, 'Kozuka Gothic Pr6N';
        font-size: 7px;
      }
    </style>
  </defs>
  <g id="_10427" data-name="10427">
    <polygon class="cls-3-1-4" points="219.61 193.69 219.61 225.35 177.42 225.35 177.42 185.01 183.47 185.01 183.47 193.69 219.61 193.69"/>
    <text class="cls-11-1-4" transform="translate(185.25 212.62)"><tspan x="0" y="0">０４２７</tspan></text>
  </g>
  <g id="_10426" data-name="10426">
    <polygon class="cls-3-1-4" points="219.61 161.89 219.61 193.54 183.47 193.54 183.47 185.01 176.98 185.01 176.98 153.32 183.47 153.32 183.47 161.89 219.61 161.89"/>
    <text class="cls-11-1-4" transform="translate(185.48 180.71)"><tspan x="0" y="0">０４２６</tspan></text>
  </g>
  <g id="_10425" data-name="10425">
    <polygon class="cls-3-1-4" points="219.61 130.2 219.61 161.85 183.47 161.85 183.47 153.21 176.98 153.21 176.98 121.59 183.47 121.59 183.47 130.2 219.61 130.2"/>
    <text class="cls-11-1-4" transform="translate(185.48 147.92)"><tspan x="0" y="0">０４２５</tspan></text>
  </g>
  <g id="_10417" data-name="10417">
    <rect class="cls-9-1-4" x="100.89" y="4" width="118.72" height="65"/>
    <text class="cls-11-1-4" transform="translate(141.47 41.03)"><tspan x="0" y="0">１０４１７</tspan></text>
  </g>
  <g id="_レイヤー_1" data-name="レイヤー 1">
    <rect class="cls-7-1-4" x="183.47" y="130.12" width="36.14" height=".08"/>
    <rect class="cls-7-1-4" x="176.98" y="153.21" width="6.49" height=".11"/>
    <rect class="cls-7-1-4" x="183.47" y="161.85" width="36.14" height=".04"/>
    <g>
      <rect class="cls-6-1-4" x="3.99" y="3.17" width="47.68" height="182.1"/>
      <polygon class="cls-6-1-4" points="219.61 68 219.61 98.54 187.03 98.54 187.03 82.31 52.35 82.31 52.35 4.41 100.89 4.41 100.89 68 219.61 68"/>
    </g>
    <rect class="cls-7-1-4" x="183.47" y="193.54" width="36.14" height=".15"/>
    <rect class="cls-6-1-4" x="61.23" y="94.46" width="13.2" height="72.51"/>
    <polygon class="cls-6-1-4" points="127.18 94.46 94.81 94.46 94.81 151.33 102.51 151.33 102.51 234.6 127.13 234.6 127.13 151.33 127.18 151.33 127.18 94.46"/>
    <polygon class="cls-6-1-4" points="219.61 98.46 219.61 130.2 183.47 130.2 183.47 121.59 176.98 121.59 176.98 98.46 219.61 98.46"/>
    <rect class="cls-10-1-4" x="176.98" y="153.21" width="6.49" height=".11"/>
    <rect class="cls-10-1-4" x="183.47" y="161.85" width="36.14" height=".04"/>
    <polygon class="cls-6-1-4" points="177.42 225.35 219.61 225.35 219.61 234.56 176.98 234.56 176.98 185.01 177.42 185.01 177.42 225.35"/>
    <rect class="cls-10-1-4" x="183.47" y="193.54" width="36.14" height=".15"/>
    <polyline class="cls-1-1-4" points="51.67 70.45 51.67 186.27 3.99 186.27 3.99 4.17 51.67 4.17"/>
    <polyline class="cls-1-1-4" points="219.61 69 219.61 69.51 219.61 80.04 219.61 98.46 219.61 98.54 219.61 130.12 219.61 130.2"/>
    <line class="cls-1-1-4" x1="219.61" y1="193.69" x2="219.61" y2="193.54"/>
    <path class="cls-1-1-4" d="m219.61,225.35v8.88h-118.17s-15.66,1.01-20.54-.49c-1.79-.55-6.23-2.33-9.75-7.26-2.84-3.98-4.26-11.66-5.51-13.6-2.04-3.17-4.84-3.3-8.77-6.86-2.15-1.95-4.68-6.38-5-10.33-.2-2.5-.2-9.42-.2-9.42v-115.82"/>
    <line class="cls-1-1-4" x1="219.61" y1="161.89" x2="219.61" y2="161.85"/>
    <polyline class="cls-1-1-4" points="219.61 5.41 219.61 4.8 219.61 4.17 100.72 4.17 51.67 4.17"/>
    <rect class="cls-1-1-4" x="3.99" y="108.68" width="47.68" height="77.59"/>
    <rect class="cls-1-1-4" x="176.98" y="225.35" width="42.63" height="8.88"/>
    <rect class="cls-2-1-4" x="135" y="121.33" width="41.98" height="26.36"/>
    <polyline class="cls-1-1-4" points="135 103.35 135 88.28 176.98 88.28 176.98 121.33 135 121.33"/>
    <line class="cls-1-1-4" x1="163.51" y1="113.21" x2="163.51" y2="121.33"/>
    <line class="cls-1-1-4" x1="163.51" y1="103.35" x2="163.51" y2="108.44"/>
    <polyline class="cls-2-1-4" points="147.93 103.35 167.7 103.35 167.7 91.77 141.7 91.77 141.7 103.35 135 103.35 135 88.28 176.98 88.28 176.98 103.35 147.93 103.35"/>
    <g>
      <path class="cls-5-1-4" d="m158.01,94.11c0,.25-.2.45-.45.45s-.45-.2-.45-.45.2-.45.45-.45.45.2.45.45Z"/>
      <polygon class="cls-5-1-4" points="160.21 98.89 158.62 98.89 158.62 99.46 157.2 99.46 157.2 100.02 155.82 100.02 155.82 100.59 154.44 100.59 154.44 101.15 153.05 101.15 153.05 101.72 152.18 101.72 152.18 102.44 153.86 102.44 153.86 101.85 155.23 101.85 155.23 101.29 156.61 101.29 156.61 100.72 157.99 100.72 157.99 100.16 159.37 100.16 159.37 99.62 160.21 99.62 160.21 98.89"/>
      <path class="cls-5-1-4" d="m158.1,96.84c-.33-.21-.65-.42-.69-.46.12-.56.22-1.07.27-1.37,0,0,.04-.28-.18-.32-.31-.06-.75.17-1.24.55-.06.04-.14.11-.16.22-.03.1-.14.71-.21.97-.02.1.03.19.13.22.1.02.19-.04.22-.13.07-.21.21-.67.23-.71.03-.04.22-.2.22-.2l-.37,3.78c0,.11.09.2.2.21.12.01.23-.08.24-.21,0,0,.24-1.09.49-2.22l.42.19-.22,1.1c-.04.11.02.22.13.26.11.04.22-.02.26-.13,0,0,.38-.93.43-1.09.05-.17.19-.44-.15-.66Z"/>
      <g>
        <path class="cls-5-1-4" d="m154.21,95.36c0,.25-.2.45-.45.45s-.45-.2-.45-.45.2-.45.45-.45.45.2.45.45Z"/>
        <path class="cls-5-1-4" d="m155.22,97.91s-.06-.49-.13-.79c-.02-.07-.04-.13-.09-.22-.17-.3-.42-.65-.65-.77-.36-.18-.72-.08-.88.21-.18.31-.41.81-1.03,1.21-.08.05-.14.12-.11.21.03.09.12.14.21.11.01,0,.02,0,.03-.01.13-.06.67-.31.86-.6l-.15,3.39c-.01.13.07.24.2.25.12.01.23-.08.24-.21l.7-3.75s.22.19.28.34c.04.1.12.4.17.67,0,0,0,0,0,0,.02.1.1.16.2.15.1-.01.16-.1.15-.2Z"/>
        <path class="cls-5-1-4" d="m155.3,99.46l-1.25-1.01-.11.73,1.09.63c.09.07.23.05.3-.04.07-.09.05-.23-.04-.3Z"/>
      </g>
    </g>
    <g>
      <g>
        <path class="cls-5-1-4" d="m169.58,111.65c0,.2-.16.37-.37.37s-.37-.16-.37-.37.16-.37.37-.37.37.16.37.37Z"/>
        <path class="cls-5-1-4" d="m169.21,112.11c-.26,0-.87.02-.87.53v1.2c0,.08.06.15.14.15.08,0,.15-.06.15-.14l.07-.73.07,2.72c0,.1.08.19.19.19s.19-.08.19-.19l.07-1.67.07,1.67c0,.1.08.19.19.19s.19-.08.19-.19l.07-2.72.07.73c0,.08.07.14.15.14.08,0,.14-.07.14-.15v-1.2c0-.5-.61-.53-.87-.53Z"/>
      </g>
      <g>
        <path class="cls-5-1-4" d="m171.81,111.65c0,.2-.16.37-.37.37s-.37-.16-.37-.37.16-.37.37-.37.37.16.37.37Z"/>
        <path class="cls-5-1-4" d="m171.44,112.11c-.26,0-.87.02-.87.53v1.2c0,.08.06.15.14.15.08,0,.15-.06.15-.14l.07-.73.07,2.72c0,.1.08.19.19.19s.19-.08.19-.19l.07-1.67.07,1.67c0,.1.08.19.19.19s.19-.08.19-.19l.07-2.72.07.73c0,.08.07.14.15.14.08,0,.14-.07.14-.15v-1.2c0-.5-.61-.53-.87-.53Z"/>
      </g>
      <path class="cls-5-1-4" d="m172.72,116.29h-4.79c-.37,0-.67-.3-.67-.67v-5.13c0-.37.3-.67.67-.67h4.79c.37,0,.67.3.67.67v5.13c0,.37-.3.67-.67.67Zm-4.79-6.04c-.14,0-.25.11-.25.25v5.13c0,.14.11.25.25.25h4.79c.14,0,.25-.11.25-.25v-5.13c0-.14-.11-.25-.25-.25h-4.79Z"/>
      <path class="cls-5-1-4" d="m172.48,108.47l-.82-.82h0s-.13-.13-.13-.13l-.13.13h0s-.82.82-.82.82c-.07.07-.07.19,0,.26.07.07.19.07.26,0l.5-.5v1.13c0,.1.08.19.19.19s.19-.08.19-.19v-1.13s.5.5.5.5c.04.04.08.05.13.05s.1-.02.13-.05c.07-.07.07-.19,0-.26Z"/>
      <path class="cls-5-1-4" d="m170.15,108.41c-.07-.07-.19-.07-.26,0l-.5.5v-1.13c0-.1-.08-.19-.19-.19s-.19.08-.19.19v1.13s-.5-.5-.5-.5c-.07-.07-.19-.07-.26,0-.07.07-.07.19,0,.26l.82.82h0s.13.13.13.13l.13-.13h0s.82-.82.82-.82c.07-.07.07-.19,0-.26Z"/>
    </g>
    <line class="cls-1-1-4" x1="176.98" y1="153.32" x2="176.98" y2="153.21"/>
    <polyline class="cls-1-1-4" points="176.98 185.01 176.98 186.32 162.99 186.32 158.39 186.32"/>
    <line class="cls-1-1-4" x1="176.98" y1="153.09" x2="173.35" y2="153.09"/>
    <line class="cls-1-1-4" x1="156.92" y1="153.09" x2="168.4" y2="153.09"/>
    <line class="cls-1-1-4" x1="143.52" y1="153.09" x2="154.32" y2="153.09"/>
    <polyline class="cls-1-1-4" points="135 175.82 135 153.09 138.66 153.09"/>
    <polyline class="cls-1-1-4" points="153.59 186.32 135 186.32 135 179.9"/>
    <polyline class="cls-1-1-4" points="154.32 153.09 147.21 153.09 147.21 164.31 156.92 164.31 156.92 153.09"/>
    <line class="cls-1-1-4" x1="154.32" y1="153.09" x2="143.52" y2="153.09"/>
    <polyline class="cls-1-1-4" points="138.66 153.09 135 153.09 135 173.43 156.92 173.43 156.92 153.09"/>
    <rect class="cls-2-1-4" x="156.92" y="153.09" width="8.13" height="4.94"/>
    <polyline class="cls-1-1-4" points="158.39 186.32 162.99 186.32 162.99 173.43 149 173.43 149 186.32 153.59 186.32"/>
    <polyline class="cls-1-1-4" points="135 179.9 135 186.32 149 186.32 149 173.43 135 173.43 135 175.82"/>
    <rect class="cls-2-1-4" x="162.99" y="173.43" width="13.99" height="12.89"/>
    <g>
      <path class="cls-7-1-4" d="m168.53,160.1c0,.37-.3.67-.67.67s-.67-.3-.67-.67.3-.67.67-.67.67.3.67.67Z"/>
      <path class="cls-7-1-4" d="m167.86,160.98c-.48,0-1.6.05-1.6.97v2.22c0,.14.1.27.25.27.14,0,.27-.1.27-.25l.12-1.35.13,5.01c0,.19.15.34.34.34s.34-.15.34-.34l.14-3.08.14,3.08c0,.19.15.34.34.34s.34-.15.34-.34l.13-5.01.12,1.35c0,.14.13.26.27.25s.26-.13.25-.27v-2.22c0-.93-1.12-.97-1.6-.97Z"/>
    </g>
    <g>
      <path class="cls-8-1-4" d="m141.98,160.76c.37,0,.67-.3.67-.67s-.3-.67-.67-.67-.67.3-.67.67.3.67.67.67Z"/>
      <path class="cls-8-1-4" d="m143.91,163.99l-.53-1.95c-.22-.9-.92-1.03-1.4-1.03s-1.18.13-1.4,1.03l-.53,1.95c-.05.13.02.29.15.34.13.05.29-.02.34-.15l.53-1.48.13.68-.66,2.08h.97s.05.65.05.65l.08,1.75c0,.19.15.34.34.34s.34-.15.34-.34l.08-1.75.05-.65h.97s-.66-2.08-.66-2.08l.13-.68.53,1.48c.05.13.2.2.34.15.13-.05.2-.2.15-.34Z"/>
    </g>
    <g>
      <g>
        <path class="cls-5-1-4" d="m155.24,179.83c0,.2-.16.37-.37.37s-.37-.16-.37-.37.16-.37.37-.37.37.16.37.37Z"/>
        <path class="cls-5-1-4" d="m154.88,180.28c-.26,0-.87.02-.87.53v1.2c0,.08.06.15.14.15.08,0,.15-.06.15-.14l.07-.73.07,2.72c0,.1.08.19.19.19s.19-.08.19-.19l.07-1.67.07,1.67c0,.1.08.19.19.19s.19-.08.19-.19l.07-2.72.07.73c0,.08.07.14.15.14.08,0,.14-.07.14-.15v-1.2c0-.5-.61-.53-.87-.53Z"/>
      </g>
      <g>
        <path class="cls-5-1-4" d="m157.47,179.83c0,.2-.16.37-.37.37s-.37-.16-.37-.37.16-.37.37-.37.37.16.37.37Z"/>
        <path class="cls-5-1-4" d="m157.11,180.28c-.26,0-.87.02-.87.53v1.2c0,.08.06.15.14.15.08,0,.15-.06.15-.14l.07-.73.07,2.72c0,.1.08.19.19.19s.19-.08.19-.19l.07-1.67.07,1.67c0,.1.08.19.19.19s.19-.08.19-.19l.07-2.72.07.73c0,.08.07.14.15.14.08,0,.14-.07.14-.15v-1.2c0-.5-.61-.53-.87-.53Z"/>
      </g>
      <path class="cls-5-1-4" d="m158.39,184.47h-4.79c-.37,0-.67-.3-.67-.67v-5.13c0-.37.3-.67.67-.67h4.79c.37,0,.67.3.67.67v5.13c0,.37-.3.67-.67.67Zm-4.79-6.04c-.14,0-.25.11-.25.25v5.13c0,.14.11.25.25.25h4.79c.14,0,.25-.11.25-.25v-5.13c0-.14-.11-.25-.25-.25h-4.79Z"/>
      <path class="cls-5-1-4" d="m158.15,176.64l-.82-.82h0s-.13-.13-.13-.13l-.13.13h0s-.82.82-.82.82c-.07.07-.07.19,0,.26.07.07.19.07.26,0l.5-.5v1.13c0,.1.08.19.19.19s.19-.08.19-.19v-1.13s.5.5.5.5c.04.04.08.05.13.05s.1-.02.13-.05c.07-.07.07-.19,0-.26Z"/>
      <path class="cls-5-1-4" d="m155.82,176.58c-.07-.07-.19-.07-.26,0l-.5.5v-1.13c0-.1-.08-.19-.19-.19s-.19.08-.19.19v1.13s-.5-.5-.5-.5c-.07-.07-.19-.07-.26,0-.07.07-.07.19,0,.26l.82.82h0s.13.13.13.13l.13-.13h0s.82-.82.82-.82c.07-.07.07-.19,0-.26Z"/>
    </g>
    <polyline class="cls-1-1-4" points="135 216.8 135 201.71 139.6 201.71"/>
    <polyline class="cls-1-1-4" points="172.39 201.71 176.98 201.71 176.98 225.35 135 225.35 135 219.98"/>
    <line class="cls-1-1-4" x1="158.39" y1="201.71" x2="167.58" y2="201.71"/>
    <line class="cls-1-1-4" x1="144.4" y1="201.71" x2="153.59" y2="201.71"/>
    <polyline class="cls-1-1-4" points="139.6 201.71 135 201.71 135 214.61 149 214.61 149 201.71 144.4 201.71"/>
    <polyline class="cls-1-1-4" points="153.59 201.71 149 201.71 149 214.61 162.99 214.61 162.99 201.71 158.39 201.71"/>
    <polyline class="cls-1-1-4" points="167.58 201.71 162.99 201.71 162.99 214.61 176.98 214.61 176.98 201.71 172.39 201.71"/>
    <rect class="cls-2-1-4" x="162.99" y="214.61" width="13.99" height="10.74"/>
    <g>
      <g>
        <path class="cls-5-1-4" d="m141.54,207.64c0,.2-.16.37-.37.37s-.37-.16-.37-.37.16-.37.37-.37.37.16.37.37Z"/>
        <path class="cls-5-1-4" d="m141.18,208.1c-.26,0-.87.02-.87.53v1.2c0,.08.06.15.14.15.08,0,.15-.06.15-.14l.07-.73.07,2.72c0,.1.08.19.19.19s.19-.08.19-.19l.07-1.67.07,1.67c0,.1.08.19.19.19s.19-.08.19-.19l.07-2.72.07.73c0,.08.07.14.15.14.08,0,.14-.07.14-.15v-1.2c0-.5-.61-.53-.87-.53Z"/>
      </g>
      <g>
        <path class="cls-5-1-4" d="m143.77,207.64c0,.2-.16.37-.37.37s-.37-.16-.37-.37.16-.37.37-.37.37.16.37.37Z"/>
        <path class="cls-5-1-4" d="m143.41,208.1c-.26,0-.87.02-.87.53v1.2c0,.08.06.15.14.15.08,0,.15-.06.15-.14l.07-.73.07,2.72c0,.1.08.19.19.19s.19-.08.19-.19l.07-1.67.07,1.67c0,.1.08.19.19.19s.19-.08.19-.19l.07-2.72.07.73c0,.08.07.14.15.14.08,0,.14-.07.14-.15v-1.2c0-.5-.61-.53-.87-.53Z"/>
      </g>
      <path class="cls-5-1-4" d="m144.69,212.28h-4.79c-.37,0-.67-.3-.67-.67v-5.13c0-.37.3-.67.67-.67h4.79c.37,0,.67.3.67.67v5.13c0,.37-.3.67-.67.67Zm-4.79-6.04c-.14,0-.25.11-.25.25v5.13c0,.14.11.25.25.25h4.79c.14,0,.25-.11.25-.25v-5.13c0-.14-.11-.25-.25-.25h-4.79Z"/>
      <path class="cls-5-1-4" d="m144.45,204.46l-.82-.82h0s-.13-.13-.13-.13l-.13.13h0s-.82.82-.82.82c-.07.07-.07.19,0,.26.07.07.19.07.26,0l.5-.5v1.13c0,.1.08.19.19.19s.19-.08.19-.19v-1.13s.5.5.5.5c.04.04.08.05.13.05s.1-.02.13-.05c.07-.07.07-.19,0-.26Z"/>
      <path class="cls-5-1-4" d="m142.12,204.4c-.07-.07-.19-.07-.26,0l-.5.5v-1.13c0-.1-.08-.19-.19-.19s-.19.08-.19.19v1.13s-.5-.5-.5-.5c-.07-.07-.19-.07-.26,0-.07.07-.07.19,0,.26l.82.82h0s.13.13.13.13l.13-.13h0s.82-.82.82-.82c.07-.07.07-.19,0-.26Z"/>
    </g>
    <g>
      <g>
        <path class="cls-5-1-4" d="m155.42,207.64c0,.2-.16.37-.37.37s-.37-.16-.37-.37.16-.37.37-.37.37.16.37.37Z"/>
        <path class="cls-5-1-4" d="m155.05,208.1c-.26,0-.87.02-.87.53v1.2c0,.08.06.15.14.15.08,0,.15-.06.15-.14l.07-.73.07,2.72c0,.1.08.19.19.19s.19-.08.19-.19l.07-1.67.07,1.67c0,.1.08.19.19.19s.19-.08.19-.19l.07-2.72.07.73c0,.08.07.14.15.14.08,0,.14-.07.14-.15v-1.2c0-.5-.61-.53-.87-.53Z"/>
      </g>
      <g>
        <path class="cls-5-1-4" d="m157.65,207.64c0,.2-.16.37-.37.37s-.37-.16-.37-.37.16-.37.37-.37.37.16.37.37Z"/>
        <path class="cls-5-1-4" d="m157.28,208.1c-.26,0-.87.02-.87.53v1.2c0,.08.06.15.14.15.08,0,.15-.06.15-.14l.07-.73.07,2.72c0,.1.08.19.19.19s.19-.08.19-.19l.07-1.67.07,1.67c0,.1.08.19.19.19s.19-.08.19-.19l.07-2.72.07.73c0,.08.07.14.15.14.08,0,.14-.07.14-.15v-1.2c0-.5-.61-.53-.87-.53Z"/>
      </g>
      <path class="cls-5-1-4" d="m158.56,212.28h-4.79c-.37,0-.67-.3-.67-.67v-5.13c0-.37.3-.67.67-.67h4.79c.37,0,.67.3.67.67v5.13c0,.37-.3.67-.67.67Zm-4.79-6.04c-.14,0-.25.11-.25.25v5.13c0,.14.11.25.25.25h4.79c.14,0,.25-.11.25-.25v-5.13c0-.14-.11-.25-.25-.25h-4.79Z"/>
      <path class="cls-5-1-4" d="m158.32,204.46l-.82-.82h0s-.13-.13-.13-.13l-.13.13h0s-.82.82-.82.82c-.07.07-.07.19,0,.26.07.07.19.07.26,0l.5-.5v1.13c0,.1.08.19.19.19s.19-.08.19-.19v-1.13s.5.5.5.5c.04.04.08.05.13.05s.1-.02.13-.05c.07-.07.07-.19,0-.26Z"/>
      <path class="cls-5-1-4" d="m155.99,204.4c-.07-.07-.19-.07-.26,0l-.5.5v-1.13c0-.1-.08-.19-.19-.19s-.19.08-.19.19v1.13s-.5-.5-.5-.5c-.07-.07-.19-.07-.26,0-.07.07-.07.19,0,.26l.82.82h0s.13.13.13.13l.13-.13h0s.82-.82.82-.82c.07-.07.07-.19,0-.26Z"/>
    </g>
    <g>
      <g>
        <path class="cls-5-1-4" d="m169.23,207.64c0,.2-.16.37-.37.37s-.37-.16-.37-.37.16-.37.37-.37.37.16.37.37Z"/>
        <path class="cls-5-1-4" d="m168.87,208.1c-.26,0-.87.02-.87.53v1.2c0,.08.06.15.14.15.08,0,.15-.06.15-.14l.07-.73.07,2.72c0,.1.08.19.19.19s.19-.08.19-.19l.07-1.67.07,1.67c0,.1.08.19.19.19s.19-.08.19-.19l.07-2.72.07.73c0,.08.07.14.15.14.08,0,.14-.07.14-.15v-1.2c0-.5-.61-.53-.87-.53Z"/>
      </g>
      <g>
        <path class="cls-5-1-4" d="m171.47,207.64c0,.2-.16.37-.37.37s-.37-.16-.37-.37.16-.37.37-.37.37.16.37.37Z"/>
        <path class="cls-5-1-4" d="m171.1,208.1c-.26,0-.87.02-.87.53v1.2c0,.08.06.15.14.15.08,0,.15-.06.15-.14l.07-.73.07,2.72c0,.1.08.19.19.19s.19-.08.19-.19l.07-1.67.07,1.67c0,.1.08.19.19.19s.19-.08.19-.19l.07-2.72.07.73c0,.08.07.14.15.14.08,0,.14-.07.14-.15v-1.2c0-.5-.61-.53-.87-.53Z"/>
      </g>
      <path class="cls-5-1-4" d="m172.38,212.28h-4.79c-.37,0-.67-.3-.67-.67v-5.13c0-.37.3-.67.67-.67h4.79c.37,0,.67.3.67.67v5.13c0,.37-.3.67-.67.67Zm-4.79-6.04c-.14,0-.25.11-.25.25v5.13c0,.14.11.25.25.25h4.79c.14,0,.25-.11.25-.25v-5.13c0-.14-.11-.25-.25-.25h-4.79Z"/>
      <path class="cls-5-1-4" d="m172.14,204.46l-.82-.82h0s-.13-.13-.13-.13l-.13.13h0s-.82.82-.82.82c-.07.07-.07.19,0,.26.07.07.19.07.26,0l.5-.5v1.13c0,.1.08.19.19.19s.19-.08.19-.19v-1.13s.5.5.5.5c.04.04.08.05.13.05s.1-.02.13-.05c.07-.07.07-.19,0-.26Z"/>
      <path class="cls-5-1-4" d="m169.81,204.4c-.07-.07-.19-.07-.26,0l-.5.5v-1.13c0-.1-.08-.19-.19-.19s-.19.08-.19.19v1.13s-.5-.5-.5-.5c-.07-.07-.19-.07-.26,0-.07.07-.07.19,0,.26l.82.82h0s.13.13.13.13l.13-.13h0s.82-.82.82-.82c.07-.07.07-.19,0-.26Z"/>
    </g>
    <g>
      <path class="cls-5-1-4" d="m150.81,216.04c0,.25-.2.45-.45.45s-.45-.2-.45-.45.2-.45.45-.45.45.2.45.45Z"/>
      <polygon class="cls-5-1-4" points="153.01 220.82 151.42 220.82 151.42 221.39 150 221.39 150 221.95 148.62 221.95 148.62 222.51 147.24 222.51 147.24 223.08 145.86 223.08 145.86 223.64 144.98 223.64 144.98 224.36 146.66 224.36 146.66 223.78 148.03 223.78 148.03 223.21 149.41 223.21 149.41 222.65 150.79 222.65 150.79 222.09 152.17 222.09 152.17 221.54 153.01 221.54 153.01 220.82"/>
      <path class="cls-5-1-4" d="m150.91,218.77c-.33-.21-.65-.42-.69-.46.12-.56.22-1.07.27-1.37,0,0,.04-.28-.18-.32-.31-.06-.75.17-1.24.55-.06.04-.14.11-.16.22-.03.1-.14.71-.21.97-.02.1.03.19.13.22.1.02.19-.04.22-.13.07-.21.21-.67.23-.71.03-.04.22-.2.22-.2l-.37,3.78c0,.11.09.2.2.21.12.01.23-.08.24-.21,0,0,.24-1.09.49-2.22l.42.19-.22,1.1c-.04.11.02.22.13.26.11.04.22-.02.26-.13,0,0,.38-.93.43-1.09.05-.17.19-.44-.15-.66Z"/>
      <g>
        <path class="cls-5-1-4" d="m147.02,217.29c0,.25-.2.45-.45.45s-.45-.2-.45-.45.2-.45.45-.45.45.2.45.45Z"/>
        <path class="cls-5-1-4" d="m148.02,219.83s-.06-.49-.13-.79c-.02-.07-.04-.13-.09-.22-.17-.3-.42-.65-.65-.77-.36-.18-.72-.08-.88.21-.18.31-.41.81-1.03,1.21-.08.05-.14.12-.11.21.03.09.12.14.21.11.01,0,.02,0,.03-.01.13-.06.67-.31.86-.6l-.15,3.39c-.01.13.07.24.2.25.12.01.23-.08.24-.21l.7-3.75s.22.19.28.34c.04.1.12.4.17.67,0,0,0,0,0,0,.02.1.1.16.2.15.1-.01.16-.1.15-.2Z"/>
        <path class="cls-5-1-4" d="m148.1,221.39l-1.25-1.01-.11.73,1.09.63c.09.07.23.05.3-.04.07-.09.05-.23-.04-.3Z"/>
      </g>
    </g>
    <rect class="cls-2-1-4" x="135" y="173.43" width="13.99" height="12.89"/>
    <rect class="cls-1-1-4" x="101.44" y="174.39" width="25.68" height="26.7"/>
    <rect class="cls-1-1-4" x="101.44" y="201.09" width="25.68" height="33.14"/>
    <polyline class="cls-1-1-4" points="81.84 166.64 74.44 166.64 74.44 157.17 92.13 157.17 92.13 166.64 85.09 166.64"/>
    <polyline class="cls-1-1-4" points="61.29 168.93 61.29 166.64 79.76 166.64 79.76 176.78 61.29 176.78 61.29 172.18"/>
    <polyline class="cls-1-1-4" points="99.56 176.78 101.44 176.78 101.44 157.17 87.68 157.17"/>
    <polyline class="cls-1-1-4" points="87.68 166.64 87.68 176.78 94.76 176.78"/>
    <line class="cls-1-1-4" x1="64.14" y1="182.88" x2="101.44" y2="182.88"/>
    <line class="cls-1-1-4" x1="51.67" y1="182.88" x2="55.04" y2="182.88"/>
    <polyline class="cls-1-1-4" points="76.54 203.26 76.54 199.4 87.68 199.4 87.68 210.54 76.54 210.54 76.54 207.35"/>
    <rect class="cls-2-1-4" x="88.06" y="199.4" width="13.38" height="15.91"/>
    <rect class="cls-2-1-4" x="93.95" y="227.62" width="7.49" height="6.61"/>
    <polyline class="cls-1-1-4" points="92.67 220.69 92.67 227.62 101.44 227.62 101.44 215.31 92.67 215.31 92.67 217.62"/>
    <polyline class="cls-1-1-4" points="76.54 214.4 76.54 210.54 87.68 210.54 87.68 221.68 76.54 221.68 76.54 218.49"/>
    <polyline class="cls-1-1-4" points="99.58 187.72 101.44 187.72 101.44 199.4 76.54 199.4 76.54 187.72 97.06 187.72"/>
    <g>
      <path class="cls-7-1-4" d="m84.39,158.74c0,.37-.3.67-.67.67s-.67-.3-.67-.67.3-.67.67-.67.67.3.67.67Z"/>
      <path class="cls-7-1-4" d="m83.72,159.63c-.48,0-1.6.05-1.6.97v2.22c0,.14.1.27.25.27.14,0,.27-.1.27-.25l.12-1.35.13,5.01c0,.19.15.34.34.34s.34-.15.34-.34l.14-3.08.14,3.08c0,.19.15.34.34.34s.34-.15.34-.34l.13-5.01.12,1.35c0,.14.13.26.27.25s.26-.13.25-.27v-2.22c0-.93-1.12-.97-1.6-.97Z"/>
    </g>
    <g>
      <path class="cls-8-1-4" d="m95.26,167.63c.37,0,.67-.3.67-.67s-.3-.67-.67-.67-.67.3-.67.67.3.67.67.67Z"/>
      <path class="cls-8-1-4" d="m97.19,170.85l-.53-1.95c-.22-.9-.92-1.03-1.4-1.03s-1.18.13-1.4,1.03l-.53,1.95c-.05.13.02.29.15.34.13.05.29-.02.34-.15l.53-1.48.13.68-.66,2.08h.97s.05.65.05.65l.08,1.75c0,.19.15.34.34.34s.34-.15.34-.34l.08-1.75.05-.65h.97s-.66-2.08-.66-2.08l.13-.68.53,1.48c.05.13.2.2.34.15.13-.05.2-.2.15-.34Z"/>
    </g>
    <g>
      <g>
        <path class="cls-5-1-4" d="m81.36,204.27c0,.2-.16.37-.37.37s-.37-.16-.37-.37.16-.37.37-.37.37.16.37.37Z"/>
        <path class="cls-5-1-4" d="m81,204.72c-.26,0-.87.02-.87.53v1.2c0,.08.06.15.14.15.08,0,.15-.06.15-.14l.07-.73.07,2.72c0,.1.08.19.19.19s.19-.08.19-.19l.07-1.67.07,1.67c0,.1.08.19.19.19s.19-.08.19-.19l.07-2.72.07.73c0,.08.07.14.15.14.08,0,.14-.07.14-.15v-1.2c0-.5-.61-.53-.87-.53Z"/>
      </g>
      <g>
        <path class="cls-5-1-4" d="m83.59,204.27c0,.2-.16.37-.37.37s-.37-.16-.37-.37.16-.37.37-.37.37.16.37.37Z"/>
        <path class="cls-5-1-4" d="m83.23,204.72c-.26,0-.87.02-.87.53v1.2c0,.08.06.15.14.15.08,0,.15-.06.15-.14l.07-.73.07,2.72c0,.1.08.19.19.19s.19-.08.19-.19l.07-1.67.07,1.67c0,.1.08.19.19.19s.19-.08.19-.19l.07-2.72.07.73c0,.08.07.14.15.14.08,0,.14-.07.14-.15v-1.2c0-.5-.61-.53-.87-.53Z"/>
      </g>
      <path class="cls-5-1-4" d="m84.51,208.91h-4.79c-.37,0-.67-.3-.67-.67v-5.13c0-.37.3-.67.67-.67h4.79c.37,0,.67.3.67.67v5.13c0,.37-.3.67-.67.67Zm-4.79-6.04c-.14,0-.25.11-.25.25v5.13c0,.14.11.25.25.25h4.79c.14,0,.25-.11.25-.25v-5.13c0-.14-.11-.25-.25-.25h-4.79Z"/>
      <path class="cls-5-1-4" d="m84.27,201.08l-.82-.82h0s-.13-.13-.13-.13l-.13.13h0s-.82.82-.82.82c-.07.07-.07.19,0,.26.07.07.19.07.26,0l.5-.5v1.13c0,.1.08.19.19.19s.19-.08.19-.19v-1.13s.5.5.5.5c.04.04.08.05.13.05s.1-.02.13-.05c.07-.07.07-.19,0-.26Z"/>
      <path class="cls-5-1-4" d="m81.94,201.02c-.07-.07-.19-.07-.26,0l-.5.5v-1.13c0-.1-.08-.19-.19-.19s-.19.08-.19.19v1.13s-.5-.5-.5-.5c-.07-.07-.19-.07-.26,0-.07.07-.07.19,0,.26l.82.82h0s.13.13.13.13l.13-.13h0s.82-.82.82-.82c.07-.07.07-.19,0-.26Z"/>
    </g>
    <g>
      <g>
        <path class="cls-5-1-4" d="m81.36,215.85c0,.2-.16.37-.37.37s-.37-.16-.37-.37.16-.37.37-.37.37.16.37.37Z"/>
        <path class="cls-5-1-4" d="m81,216.31c-.26,0-.87.02-.87.53v1.2c0,.08.06.15.14.15.08,0,.15-.06.15-.14l.07-.73.07,2.72c0,.1.08.19.19.19s.19-.08.19-.19l.07-1.67.07,1.67c0,.1.08.19.19.19s.19-.08.19-.19l.07-2.72.07.73c0,.08.07.14.15.14.08,0,.14-.07.14-.15v-1.2c0-.5-.61-.53-.87-.53Z"/>
      </g>
      <g>
        <path class="cls-5-1-4" d="m83.59,215.85c0,.2-.16.37-.37.37s-.37-.16-.37-.37.16-.37.37-.37.37.16.37.37Z"/>
        <path class="cls-5-1-4" d="m83.23,216.31c-.26,0-.87.02-.87.53v1.2c0,.08.06.15.14.15.08,0,.15-.06.15-.14l.07-.73.07,2.72c0,.1.08.19.19.19s.19-.08.19-.19l.07-1.67.07,1.67c0,.1.08.19.19.19s.19-.08.19-.19l.07-2.72.07.73c0,.08.07.14.15.14.08,0,.14-.07.14-.15v-1.2c0-.5-.61-.53-.87-.53Z"/>
      </g>
      <path class="cls-5-1-4" d="m84.51,220.49h-4.79c-.37,0-.67-.3-.67-.67v-5.13c0-.37.3-.67.67-.67h4.79c.37,0,.67.3.67.67v5.13c0,.37-.3.67-.67.67Zm-4.79-6.04c-.14,0-.25.11-.25.25v5.13c0,.14.11.25.25.25h4.79c.14,0,.25-.11.25-.25v-5.13c0-.14-.11-.25-.25-.25h-4.79Z"/>
      <path class="cls-5-1-4" d="m84.27,212.67l-.82-.82h0s-.13-.13-.13-.13l-.13.13h0s-.82.82-.82.82c-.07.07-.07.19,0,.26.07.07.19.07.26,0l.5-.5v1.13c0,.1.08.19.19.19s.19-.08.19-.19v-1.13s.5.5.5.5c.04.04.08.05.13.05s.1-.02.13-.05c.07-.07.07-.19,0-.26Z"/>
      <path class="cls-5-1-4" d="m81.94,212.61c-.07-.07-.19-.07-.26,0l-.5.5v-1.13c0-.1-.08-.19-.19-.19s-.19.08-.19.19v1.13s-.5-.5-.5-.5c-.07-.07-.19-.07-.26,0-.07.07-.07.19,0,.26l.82.82h0s.13.13.13.13l.13-.13h0s.82-.82.82-.82c.07-.07.07-.19,0-.26Z"/>
    </g>
    <g>
      <path class="cls-5-1-4" d="m91.96,189.12c0,.25-.2.45-.45.45s-.45-.2-.45-.45.2-.45.45-.45.45.2.45.45Z"/>
      <polygon class="cls-5-1-4" points="94.16 193.91 92.57 193.91 92.57 194.47 91.15 194.47 91.15 195.04 89.77 195.04 89.77 195.6 88.38 195.6 88.38 196.16 87 196.16 87 196.73 86.13 196.73 86.13 197.45 87.81 197.45 87.81 196.86 89.18 196.86 89.18 196.3 90.56 196.3 90.56 195.74 91.94 195.74 91.94 195.17 93.32 195.17 93.32 194.63 94.16 194.63 94.16 193.91"/>
      <path class="cls-5-1-4" d="m92.05,191.86c-.33-.21-.65-.42-.69-.46.12-.56.22-1.07.27-1.37,0,0,.04-.28-.18-.32-.31-.06-.75.17-1.24.55-.06.04-.14.11-.16.22-.03.1-.14.71-.21.97-.02.1.03.19.13.22.1.02.19-.04.22-.13.07-.21.21-.67.23-.71.03-.04.22-.2.22-.2l-.37,3.78c0,.11.09.2.2.21.12.01.23-.08.24-.21,0,0,.24-1.09.49-2.22l.42.19-.22,1.1c-.04.11.02.22.13.26.11.04.22-.02.26-.13,0,0,.38-.93.43-1.09.05-.17.19-.44-.15-.66Z"/>
      <g>
        <path class="cls-5-1-4" d="m88.16,190.38c0,.25-.2.45-.45.45s-.45-.2-.45-.45.2-.45.45-.45.45.2.45.45Z"/>
        <path class="cls-5-1-4" d="m89.16,192.92s-.06-.49-.13-.79c-.02-.07-.04-.13-.09-.22-.17-.3-.42-.65-.65-.77-.36-.18-.72-.08-.88.21-.18.31-.41.81-1.03,1.21-.08.05-.14.12-.11.21.03.09.12.14.21.11.01,0,.02,0,.03-.01.13-.06.67-.31.86-.6l-.15,3.39c-.01.13.07.24.2.25.12.01.23-.08.24-.21l.7-3.75s.22.19.28.34c.04.1.12.4.17.67,0,0,0,0,0,0,.02.1.1.16.2.15.1-.01.16-.1.15-.2Z"/>
        <path class="cls-5-1-4" d="m89.25,194.47l-1.25-1.01-.11.73,1.09.63c.09.07.23.05.3-.04.07-.09.05-.23-.04-.3Z"/>
      </g>
    </g>
    <rect class="cls-1-1-4" x="176.98" y="185.01" width=".44" height="40.34"/>
    <rect class="cls-1-1-4" x="176.98" y="153.21" width="6.49" height=".11"/>
    <rect class="cls-1-1-4" x="176.98" y="121.52" width="6.49" height=".07"/>
    <rect class="cls-1-1-4" x="176.98" y="153.21" width="6.49" height=".11"/>
    <polygon class="cls-1-1-4" points="219.61 98.46 219.61 130.12 183.47 130.12 183.47 121.59 176.98 121.59 176.98 98.46 219.61 98.46"/>
    <polyline class="cls-1-1-4" points="127.13 147.69 127.13 174.39 101.44 174.39 101.44 147.69 101.44 147.69 74.44 147.69 74.44 94.46 127.13 94.46 127.13 147.69"/>
    <polyline class="cls-1-1-4" points="127.13 147.42 127.13 151.33 94.76 151.33 94.76 122.89 127.13 122.89 127.13 147.42"/>
    <rect class="cls-1-1-4" x="94.76" y="94.46" width="32.37" height="28.43"/>
    <rect class="cls-1-1-4" x="61.29" y="94.46" width="13.15" height="72.18"/>
    <rect class="cls-2-1-4" x="74.44" y="94.46" width="26.28" height="3.13"/>
    <rect class="cls-2-1-4" x="74.44" y="147.77" width="27.01" height="9.47"/>
    <rect class="cls-1-1-4" x="27.83" y="108.68" width="23.84" height="15.49"/>
    <rect class="cls-1-1-4" x="3.99" y="4.17" width="47.68" height="23.79"/>
    <rect class="cls-1-1-4" x="187.03" y="69.51" width="32.58" height="28.96"/>
    <rect class="cls-1-1-4" x="124.73" y="69.51" width="62.31" height="13.15"/>
    <rect class="cls-1-1-4" x="100.72" y="69.51" width="24.01" height="13.15"/>
    <rect class="cls-1-1-4" x="51.67" y="4.17" width="49.05" height="78.49"/>
    <line class="cls-1-1-4" x1="206.03" y1="69.51" x2="206.03" y2="98.45"/>
    <line class="cls-1-1-4" x1="219.61" y1="80.04" x2="206.03" y2="80.04"/>
    <line class="cls-4-1-4" x1="219.61" y1="3.84" x2="219.61" y2="69.51"/>
  </g>
</svg>