<?xml version="1.0" encoding="UTF-8"?>
<svg xmlns="http://www.w3.org/2000/svg" viewBox="0 0 128 234.5">
  <defs>
    <style>
      .cls-1-1-8, .cls-2-1-8, .cls-3-1-8 {
        stroke: #231815;
        stroke-miterlimit: 10;
      }

      .cls-1-1-8, .cls-3-1-8 {
        fill: none;
      }

      .cls-4-1-8, .cls-5-1-8, .cls-6-1-8, .cls-7-1-8, .cls-8-1-8 {
        stroke-width: 0px;
      }

      .cls-4-1-8, .cls-2-1-8 {
        fill: #231815;
      }

      .cls-5-1-8, .cls-8-1-8 {
        fill: #7a1a24;
      }

      .cls-5-1-8, .cls-3-1-8 {
        opacity: .2;
      }

      .cls-6-1-8 {
        fill: #2d3e6a;
      }

      .cls-7-1-8 {
        fill: #ba1f21;
      }

      .cls-9-1-8 {
        fill: #fff;
        font-family: KozGoPr6N-Regular-90ms-RKSJ-H, 'Kozuka Gothic Pr6N';
        font-size: 7px;
      }
    </style>
  </defs>
  <g id="_10817" data-name="10817">
    <path class="cls-8-1-8" d="m92.79,174.8v-1.69h32.55v23.48h-32.55v-12.87h12.14c2.46,0,4.46-2,4.46-4.46s-2-4.46-4.46-4.46h-12.14Z"/>
    <text class="cls-9-1-8" transform="translate(97.42 191.95)"><tspan x="0" y="0">10817</tspan></text>
  </g>
  <g id="_10812" data-name="10812">
    <rect class="cls-8-1-8" x="92.82" y="40.36" width="32.51" height="41.9"/>
    <text class="cls-9-1-8" transform="translate(99.43 63.21)"><tspan x="0" y="0">10812</tspan></text>
  </g>
  <g id="_10811" data-name="10811">
    <rect class="cls-8-1-8" x="84.18" y="2.36" width="41.28" height="38.66"/>
    <text class="cls-9-1-8" transform="translate(95.18 23.59)"><tspan x="0" y="0">10811</tspan></text>
  </g>
  <g id="_10809" data-name="10809">
    <rect class="cls-8-1-8" x="42.9" y="2.39" width="41.28" height="38.66"/>
    <text class="cls-9-1-8" transform="translate(53.89 23.62)"><tspan x="0" y="0">10809</tspan></text>
  </g>
  <g id="_10807" data-name="10807">
    <rect class="cls-8-1-8" x="2" y="40.91" width="32.55" height="40.15"/>
    <text class="cls-9-1-8" transform="translate(8.44 65.11)"><tspan x="0" y="0">10807</tspan></text>
  </g>
  <g id="_レイヤー_1" data-name="レイヤー 1">
    <rect class="cls-5-1-8" x="2" y="2.13" width="41" height="38.79"/>
    <rect class="cls-5-1-8" x="2" y="40.91" width="32.55" height="191.5"/>
    <rect class="cls-5-1-8" x="43.28" y="50.43" width="41.74" height="29.55"/>
    <rect class="cls-1-1-8" x="43.28" y="50.43" width="21.31" height="29.28"/>
    <rect class="cls-1-1-8" x="2" y="170.87" width="32.55" height="25.64"/>
    <rect class="cls-2-1-8" x="44.18" y="120.19" width="40.83" height="25.64"/>
    <polyline class="cls-1-1-8" points="44.18 102.7 44.18 88.03 85.01 88.03 85.01 120.19 44.18 120.19"/>
    <line class="cls-1-1-8" x1="71.91" y1="112.28" x2="71.91" y2="120.19"/>
    <line class="cls-1-1-8" x1="71.91" y1="102.7" x2="71.91" y2="107.65"/>
    <polyline class="cls-2-1-8" points="56.76 102.7 75.99 102.7 75.99 91.43 50.69 91.43 50.69 102.7 44.18 102.7 44.18 88.03 85.01 88.03 85.01 102.7 56.76 102.7"/>
    <g>
      <path class="cls-4-1-8" d="m66.56,93.71c0,.24-.19.43-.43.43s-.43-.19-.43-.43.19-.43.43-.43.43.19.43.43Z"/>
      <polygon class="cls-4-1-8" points="68.7 98.36 67.15 98.36 67.15 98.91 65.77 98.91 65.77 99.46 64.42 99.46 64.42 100.01 63.08 100.01 63.08 100.56 61.74 100.56 61.74 101.11 60.88 101.11 60.88 101.81 62.52 101.81 62.52 101.24 63.85 101.24 63.85 100.69 65.19 100.69 65.19 100.14 66.54 100.14 66.54 99.59 67.88 99.59 67.88 99.06 68.7 99.06 68.7 98.36"/>
      <path class="cls-4-1-8" d="m66.65,96.37c-.32-.21-.63-.41-.67-.44.11-.55.21-1.04.26-1.33,0,0,.04-.27-.18-.31-.3-.06-.73.17-1.2.53-.05.04-.13.1-.16.21-.03.1-.14.69-.2.94-.02.09.03.19.13.21.09.02.18-.03.21-.13.07-.21.2-.65.22-.69.03-.04.21-.19.21-.19l-.36,3.67c0,.11.09.2.19.21.12.01.23-.08.24-.2,0,0,.24-1.06.47-2.16l.41.19-.22,1.07c-.03.1.02.21.12.25.1.03.21-.02.25-.12,0,0,.37-.9.42-1.06.05-.17.18-.43-.15-.65Z"/>
      <g>
        <path class="cls-4-1-8" d="m62.87,94.93c0,.24-.19.43-.43.43s-.43-.19-.43-.43.19-.43.43-.43.43.19.43.43Z"/>
        <path class="cls-4-1-8" d="m63.84,97.4s-.06-.48-.12-.77c-.02-.07-.04-.13-.09-.22-.17-.29-.41-.64-.63-.75-.35-.18-.7-.08-.86.2-.17.3-.39.79-1,1.18-.08.05-.14.12-.11.21.03.09.12.14.21.11.01,0,.02,0,.03-.01.13-.06.66-.3.84-.59l-.15,3.3c-.01.12.07.23.19.25.12.01.23-.08.24-.2l.68-3.65s.22.18.27.33c.04.1.11.39.16.66,0,0,0,0,0,0,.02.1.1.16.19.15.09-.01.16-.1.15-.19Z"/>
        <path class="cls-4-1-8" d="m63.92,98.91l-1.21-.98-.1.71,1.06.61c.09.07.22.05.29-.04.07-.09.05-.22-.04-.29Z"/>
      </g>
    </g>
    <g>
      <g>
        <path class="cls-4-1-8" d="m77.81,110.78c0,.2-.16.36-.36.36s-.36-.16-.36-.36.16-.36.36-.36.36.16.36.36Z"/>
        <path class="cls-4-1-8" d="m77.45,111.22c-.25,0-.85.02-.85.51v1.17c0,.08.06.14.13.14.08,0,.14-.06.14-.13l.07-.71.07,2.65c0,.1.08.18.18.18s.18-.08.18-.18l.07-1.63.07,1.63c0,.1.08.18.18.18s.18-.08.18-.18l.07-2.65.07.71c0,.08.07.14.14.13.08,0,.14-.07.13-.14v-1.17c0-.49-.59-.51-.85-.51Z"/>
      </g>
      <g>
        <path class="cls-4-1-8" d="m79.98,110.78c0,.2-.16.36-.36.36s-.36-.16-.36-.36.16-.36.36-.36.36.16.36.36Z"/>
        <path class="cls-4-1-8" d="m79.62,111.22c-.25,0-.85.02-.85.51v1.17c0,.08.06.14.13.14.08,0,.14-.06.14-.13l.07-.71.07,2.65c0,.1.08.18.18.18s.18-.08.18-.18l.07-1.63.07,1.63c0,.1.08.18.18.18s.18-.08.18-.18l.07-2.65.07.71c0,.08.07.14.14.13.08,0,.14-.07.13-.14v-1.17c0-.49-.59-.51-.85-.51Z"/>
      </g>
      <path class="cls-4-1-8" d="m80.87,115.29h-4.66c-.36,0-.65-.29-.65-.65v-4.99c0-.36.29-.65.65-.65h4.66c.36,0,.65.29.65.65v4.99c0,.36-.29.65-.65.65Zm-4.66-5.88c-.13,0-.24.11-.24.24v4.99c0,.13.11.24.24.24h4.66c.13,0,.24-.11.24-.24v-4.99c0-.13-.11-.24-.24-.24h-4.66Z"/>
      <path class="cls-4-1-8" d="m80.64,107.68l-.8-.8h0s-.13-.13-.13-.13l-.13.13h0s-.8.8-.8.8c-.07.07-.07.19,0,.26.07.07.19.07.26,0l.49-.49v1.09c0,.1.08.18.18.18s.18-.08.18-.18v-1.09s.49.49.49.49c.04.04.08.05.13.05s.09-.02.13-.05c.07-.07.07-.19,0-.26Z"/>
      <path class="cls-4-1-8" d="m78.37,107.62c-.07-.07-.19-.07-.26,0l-.49.49v-1.09c0-.1-.08-.18-.18-.18s-.18.08-.18.18v1.09s-.49-.49-.49-.49c-.07-.07-.19-.07-.26,0-.07.07-.07.19,0,.26l.8.8h0s.13.13.13.13l.13-.13h0s.8-.8.8-.8c.07-.07.07-.19,0-.26Z"/>
    </g>
    <rect class="cls-1-1-8" x="43.28" y="2.25" width="41.28" height="38.66"/>
    <polyline class="cls-1-1-8" points="81.48 151.08 85.01 151.08 85.01 183.41 66.93 183.41"/>
    <line class="cls-1-1-8" x1="65.49" y1="151.08" x2="76.67" y2="151.08"/>
    <line class="cls-1-1-8" x1="52.47" y1="151.08" x2="62.97" y2="151.08"/>
    <polyline class="cls-1-1-8" points="44.18 173.19 44.18 151.08 47.74 151.08"/>
    <polyline class="cls-1-1-8" points="62.26 183.41 44.18 183.41 44.18 177.16"/>
    <polyline class="cls-1-1-8" points="62.97 151.08 56.05 151.08 56.05 162 65.49 162 65.49 151.08"/>
    <line class="cls-1-1-8" x1="62.97" y1="151.08" x2="52.47" y2="151.08"/>
    <polyline class="cls-1-1-8" points="47.74 151.08 44.18 151.08 44.18 170.87 65.49 170.87 65.49 151.08"/>
    <rect class="cls-2-1-8" x="65.49" y="151.08" width="7.91" height="4.81"/>
    <polyline class="cls-1-1-8" points="66.93 183.41 71.4 183.41 71.4 170.87 57.79 170.87 57.79 183.41 62.26 183.41"/>
    <polyline class="cls-1-1-8" points="44.18 177.16 44.18 183.41 57.79 183.41 57.79 170.87 44.18 170.87 44.18 173.19"/>
    <rect class="cls-2-1-8" x="71.4" y="170.87" width="13.61" height="12.54"/>
    <g>
      <path class="cls-6-1-8" d="m76.79,157.9c0,.36-.29.65-.65.65s-.65-.29-.65-.65.29-.65.65-.65.65.29.65.65Z"/>
      <path class="cls-6-1-8" d="m76.14,158.76c-.46,0-1.56.04-1.56.95v2.16c0,.14.1.26.24.27.14,0,.26-.1.27-.24l.12-1.31.13,4.87c0,.18.15.33.33.33s.33-.15.33-.33l.13-3,.13,3c0,.18.15.33.33.33s.33-.15.33-.33l.13-4.87.12,1.31c0,.14.13.25.27.24s.25-.13.24-.27v-2.16c0-.9-1.09-.95-1.56-.95Z"/>
    </g>
    <g>
      <path class="cls-7-1-8" d="m50.96,158.55c.36,0,.65-.29.65-.65s-.29-.65-.65-.65-.65.29-.65.65.29.65.65.65Z"/>
      <path class="cls-7-1-8" d="m52.84,161.68l-.52-1.9c-.21-.87-.89-1.01-1.36-1.01s-1.15.13-1.36,1.01l-.52,1.9c-.05.13.02.28.15.33.13.05.28-.02.33-.15l.51-1.44.13.66-.64,2.02h.94s.05.63.05.63l.08,1.71c0,.18.15.33.33.33s.33-.15.33-.33l.08-1.71.05-.63h.94s-.64-2.02-.64-2.02l.13-.66.51,1.44c.05.13.2.2.33.15.13-.05.2-.2.15-.33Z"/>
    </g>
    <g>
      <g>
        <path class="cls-4-1-8" d="m63.87,177.09c0,.2-.16.36-.36.36s-.36-.16-.36-.36.16-.36.36-.36.36.16.36.36Z"/>
        <path class="cls-4-1-8" d="m63.51,177.53c-.25,0-.85.02-.85.51v1.17c0,.08.06.14.13.14.08,0,.14-.06.14-.13l.07-.71.07,2.65c0,.1.08.18.18.18s.18-.08.18-.18l.07-1.63.07,1.63c0,.1.08.18.18.18s.18-.08.18-.18l.07-2.65.07.71c0,.08.07.14.14.13.08,0,.14-.07.13-.14v-1.17c0-.49-.59-.51-.85-.51Z"/>
      </g>
      <g>
        <path class="cls-4-1-8" d="m66.04,177.09c0,.2-.16.36-.36.36s-.36-.16-.36-.36.16-.36.36-.36.36.16.36.36Z"/>
        <path class="cls-4-1-8" d="m65.68,177.53c-.25,0-.85.02-.85.51v1.17c0,.08.06.14.13.14.08,0,.14-.06.14-.13l.07-.71.07,2.65c0,.1.08.18.18.18s.18-.08.18-.18l.07-1.63.07,1.63c0,.1.08.18.18.18s.18-.08.18-.18l.07-2.65.07.71c0,.08.07.14.14.13.08,0,.14-.07.13-.14v-1.17c0-.49-.59-.51-.85-.51Z"/>
      </g>
      <path class="cls-4-1-8" d="m66.93,181.6h-4.66c-.36,0-.65-.29-.65-.65v-4.99c0-.36.29-.65.65-.65h4.66c.36,0,.65.29.65.65v4.99c0,.36-.29.65-.65.65Zm-4.66-5.88c-.13,0-.24.11-.24.24v4.99c0,.13.11.24.24.24h4.66c.13,0,.24-.11.24-.24v-4.99c0-.13-.11-.24-.24-.24h-4.66Z"/>
      <path class="cls-4-1-8" d="m66.69,173.99l-.8-.8h0s-.13-.13-.13-.13l-.13.13h0s-.8.8-.8.8c-.07.07-.07.19,0,.26.07.07.19.07.26,0l.49-.49v1.09c0,.1.08.18.18.18s.18-.08.18-.18v-1.09s.49.49.49.49c.04.04.08.05.13.05s.09-.02.13-.05c.07-.07.07-.19,0-.26Z"/>
      <path class="cls-4-1-8" d="m64.43,173.93c-.07-.07-.19-.07-.26,0l-.49.49v-1.09c0-.1-.08-.18-.18-.18s-.18.08-.18.18v1.09s-.49-.49-.49-.49c-.07-.07-.19-.07-.26,0-.07.07-.07.19,0,.26l.8.8h0s.13.13.13.13l.13-.13h0s.8-.8.8-.8c.07-.07.07-.19,0-.26Z"/>
    </g>
    <polyline class="cls-1-1-8" points="44.18 213.06 44.18 198.38 48.65 198.38"/>
    <polyline class="cls-1-1-8" points="80.54 198.38 85.01 198.38 85.01 221.37 44.18 221.37 44.18 216.14"/>
    <line class="cls-1-1-8" x1="66.93" y1="198.38" x2="75.87" y2="198.38"/>
    <line class="cls-1-1-8" x1="53.32" y1="198.38" x2="62.26" y2="198.38"/>
    <polyline class="cls-1-1-8" points="48.65 198.38 44.18 198.38 44.18 210.92 57.79 210.92 57.79 198.38 53.32 198.38"/>
    <polyline class="cls-1-1-8" points="62.26 198.38 57.79 198.38 57.79 210.92 71.4 210.92 71.4 198.38 66.93 198.38"/>
    <polyline class="cls-1-1-8" points="75.87 198.38 71.4 198.38 71.4 210.92 85.01 210.92 85.01 198.38 80.54 198.38"/>
    <rect class="cls-2-1-8" x="71.4" y="210.92" width="13.61" height="10.45"/>
    <g>
      <g>
        <path class="cls-4-1-8" d="m50.54,204.15c0,.2-.16.36-.36.36s-.36-.16-.36-.36.16-.36.36-.36.36.16.36.36Z"/>
        <path class="cls-4-1-8" d="m50.18,204.59c-.25,0-.85.02-.85.51v1.17c0,.08.06.14.13.14.08,0,.14-.06.14-.13l.07-.71.07,2.65c0,.1.08.18.18.18s.18-.08.18-.18l.07-1.63.07,1.63c0,.1.08.18.18.18s.18-.08.18-.18l.07-2.65.07.71c0,.08.07.14.14.13.08,0,.14-.07.13-.14v-1.17c0-.49-.59-.51-.85-.51Z"/>
      </g>
      <g>
        <path class="cls-4-1-8" d="m52.71,204.15c0,.2-.16.36-.36.36s-.36-.16-.36-.36.16-.36.36-.36.36.16.36.36Z"/>
        <path class="cls-4-1-8" d="m52.35,204.59c-.25,0-.85.02-.85.51v1.17c0,.08.06.14.13.14.08,0,.14-.06.14-.13l.07-.71.07,2.65c0,.1.08.18.18.18s.18-.08.18-.18l.07-1.63.07,1.63c0,.1.08.18.18.18s.18-.08.18-.18l.07-2.65.07.71c0,.08.07.14.14.13.08,0,.14-.07.13-.14v-1.17c0-.49-.59-.51-.85-.51Z"/>
      </g>
      <path class="cls-4-1-8" d="m53.6,208.66h-4.66c-.36,0-.65-.29-.65-.65v-4.99c0-.36.29-.65.65-.65h4.66c.36,0,.65.29.65.65v4.99c0,.36-.29.65-.65.65Zm-4.66-5.88c-.13,0-.24.11-.24.24v4.99c0,.13.11.24.24.24h4.66c.13,0,.24-.11.24-.24v-4.99c0-.13-.11-.24-.24-.24h-4.66Z"/>
      <path class="cls-4-1-8" d="m53.37,201.05l-.8-.8h0s-.13-.13-.13-.13l-.13.13h0s-.8.8-.8.8c-.07.07-.07.19,0,.26.07.07.19.07.26,0l.49-.49v1.09c0,.1.08.18.18.18s.18-.08.18-.18v-1.09s.49.49.49.49c.04.04.08.05.13.05s.09-.02.13-.05c.07-.07.07-.19,0-.26Z"/>
      <path class="cls-4-1-8" d="m51.1,200.99c-.07-.07-.19-.07-.26,0l-.49.49v-1.09c0-.1-.08-.18-.18-.18s-.18.08-.18.18v1.09s-.49-.49-.49-.49c-.07-.07-.19-.07-.26,0-.07.07-.07.19,0,.26l.8.8h0s.13.13.13.13l.13-.13h0s.8-.8.8-.8c.07-.07.07-.19,0-.26Z"/>
    </g>
    <g>
      <g>
        <path class="cls-4-1-8" d="m64.03,204.15c0,.2-.16.36-.36.36s-.36-.16-.36-.36.16-.36.36-.36.36.16.36.36Z"/>
        <path class="cls-4-1-8" d="m63.68,204.59c-.25,0-.85.02-.85.51v1.17c0,.08.06.14.13.14.08,0,.14-.06.14-.13l.07-.71.07,2.65c0,.1.08.18.18.18s.18-.08.18-.18l.07-1.63.07,1.63c0,.1.08.18.18.18s.18-.08.18-.18l.07-2.65.07.71c0,.08.07.14.14.13.08,0,.14-.07.13-.14v-1.17c0-.49-.59-.51-.85-.51Z"/>
      </g>
      <g>
        <path class="cls-4-1-8" d="m66.2,204.15c0,.2-.16.36-.36.36s-.36-.16-.36-.36.16-.36.36-.36.36.16.36.36Z"/>
        <path class="cls-4-1-8" d="m65.85,204.59c-.25,0-.85.02-.85.51v1.17c0,.08.06.14.13.14.08,0,.14-.06.14-.13l.07-.71.07,2.65c0,.1.08.18.18.18s.18-.08.18-.18l.07-1.63.07,1.63c0,.1.08.18.18.18s.18-.08.18-.18l.07-2.65.07.71c0,.08.07.14.14.13.08,0,.14-.07.13-.14v-1.17c0-.49-.59-.51-.85-.51Z"/>
      </g>
      <path class="cls-4-1-8" d="m67.09,208.66h-4.66c-.36,0-.65-.29-.65-.65v-4.99c0-.36.29-.65.65-.65h4.66c.36,0,.65.29.65.65v4.99c0,.36-.29.65-.65.65Zm-4.66-5.88c-.13,0-.24.11-.24.24v4.99c0,.13.11.24.24.24h4.66c.13,0,.24-.11.24-.24v-4.99c0-.13-.11-.24-.24-.24h-4.66Z"/>
      <path class="cls-4-1-8" d="m66.86,201.05l-.8-.8h0s-.13-.13-.13-.13l-.13.13h0s-.8.8-.8.8c-.07.07-.07.19,0,.26.07.07.19.07.26,0l.49-.49v1.09c0,.1.08.18.18.18s.18-.08.18-.18v-1.09s.49.49.49.49c.04.04.08.05.13.05s.09-.02.13-.05c.07-.07.07-.19,0-.26Z"/>
      <path class="cls-4-1-8" d="m64.6,200.99c-.07-.07-.19-.07-.26,0l-.49.49v-1.09c0-.1-.08-.18-.18-.18s-.18.08-.18.18v1.09s-.49-.49-.49-.49c-.07-.07-.19-.07-.26,0-.07.07-.07.19,0,.26l.8.8h0s.13.13.13.13l.13-.13h0s.8-.8.8-.8c.07-.07.07-.19,0-.26Z"/>
    </g>
    <g>
      <g>
        <path class="cls-4-1-8" d="m77.48,204.15c0,.2-.16.36-.36.36s-.36-.16-.36-.36.16-.36.36-.36.36.16.36.36Z"/>
        <path class="cls-4-1-8" d="m77.12,204.59c-.25,0-.85.02-.85.51v1.17c0,.08.06.14.13.14.08,0,.14-.06.14-.13l.07-.71.07,2.65c0,.1.08.18.18.18s.18-.08.18-.18l.07-1.63.07,1.63c0,.1.08.18.18.18s.18-.08.18-.18l.07-2.65.07.71c0,.08.07.14.14.13.08,0,.14-.07.13-.14v-1.17c0-.49-.59-.51-.85-.51Z"/>
      </g>
      <g>
        <path class="cls-4-1-8" d="m79.65,204.15c0,.2-.16.36-.36.36s-.36-.16-.36-.36.16-.36.36-.36.36.16.36.36Z"/>
        <path class="cls-4-1-8" d="m79.29,204.59c-.25,0-.85.02-.85.51v1.17c0,.08.06.14.13.14.08,0,.14-.06.14-.13l.07-.71.07,2.65c0,.1.08.18.18.18s.18-.08.18-.18l.07-1.63.07,1.63c0,.1.08.18.18.18s.18-.08.18-.18l.07-2.65.07.71c0,.08.07.14.14.13.08,0,.14-.07.13-.14v-1.17c0-.49-.59-.51-.85-.51Z"/>
      </g>
      <path class="cls-4-1-8" d="m80.54,208.66h-4.66c-.36,0-.65-.29-.65-.65v-4.99c0-.36.29-.65.65-.65h4.66c.36,0,.65.29.65.65v4.99c0,.36-.29.65-.65.65Zm-4.66-5.88c-.13,0-.24.11-.24.24v4.99c0,.13.11.24.24.24h4.66c.13,0,.24-.11.24-.24v-4.99c0-.13-.11-.24-.24-.24h-4.66Z"/>
      <path class="cls-4-1-8" d="m80.3,201.05l-.8-.8h0s-.13-.13-.13-.13l-.13.13h0s-.8.8-.8.8c-.07.07-.07.19,0,.26.07.07.19.07.26,0l.49-.49v1.09c0,.1.08.18.18.18s.18-.08.18-.18v-1.09s.49.49.49.49c.04.04.08.05.13.05s.09-.02.13-.05c.07-.07.07-.19,0-.26Z"/>
      <path class="cls-4-1-8" d="m78.04,200.99c-.07-.07-.19-.07-.26,0l-.49.49v-1.09c0-.1-.08-.18-.18-.18s-.18.08-.18.18v1.09s-.49-.49-.49-.49c-.07-.07-.19-.07-.26,0-.07.07-.07.19,0,.26l.8.8h0s.13.13.13.13l.13-.13h0s.8-.8.8-.8c.07-.07.07-.19,0-.26Z"/>
    </g>
    <g>
      <path class="cls-4-1-8" d="m59.56,212.31c0,.24-.19.43-.43.43s-.43-.19-.43-.43.19-.43.43-.43.43.19.43.43Z"/>
      <polygon class="cls-4-1-8" points="61.7 216.97 60.15 216.97 60.15 217.52 58.77 217.52 58.77 218.06 57.42 218.06 57.42 218.61 56.08 218.61 56.08 219.16 54.74 219.16 54.74 219.71 53.88 219.71 53.88 220.41 55.52 220.41 55.52 219.84 56.85 219.84 56.85 219.29 58.19 219.29 58.19 218.75 59.54 218.75 59.54 218.2 60.88 218.2 60.88 217.67 61.7 217.67 61.7 216.97"/>
      <path class="cls-4-1-8" d="m59.65,214.97c-.32-.21-.63-.41-.67-.44.11-.55.21-1.04.26-1.33,0,0,.04-.27-.18-.31-.3-.06-.73.17-1.2.53-.05.04-.13.1-.16.21-.03.1-.14.69-.2.94-.02.09.03.19.13.21.09.02.18-.03.21-.13.07-.21.2-.65.22-.69.03-.04.21-.19.21-.19l-.36,3.67c0,.11.09.2.19.21.12.01.23-.08.24-.2,0,0,.24-1.06.47-2.16l.41.19-.22,1.07c-.03.1.02.21.12.25.1.03.21-.02.25-.12,0,0,.37-.9.42-1.06.05-.17.18-.43-.15-.65Z"/>
      <g>
        <path class="cls-4-1-8" d="m55.86,213.53c0,.24-.19.43-.43.43s-.43-.19-.43-.43.19-.43.43-.43.43.19.43.43Z"/>
        <path class="cls-4-1-8" d="m56.84,216s-.06-.48-.12-.77c-.02-.07-.04-.13-.09-.22-.17-.29-.41-.64-.63-.75-.35-.18-.7-.08-.86.2-.17.3-.39.79-1,1.18-.08.05-.14.12-.11.21.03.09.12.14.21.11.01,0,.02,0,.03-.01.13-.06.66-.3.84-.59l-.15,3.3c-.01.12.07.23.19.25.12.01.23-.08.24-.2l.68-3.65s.22.18.27.33c.04.1.11.39.16.66,0,0,0,0,0,0,.02.1.1.16.19.15.09-.01.16-.1.15-.19Z"/>
        <path class="cls-4-1-8" d="m56.92,217.52l-1.21-.98-.1.71,1.06.61c.09.07.22.05.29-.04.07-.09.05-.22-.04-.29Z"/>
      </g>
    </g>
    <rect class="cls-1-1-8" x="2" y="2.21" width="123.72" height="230.34"/>
    <rect class="cls-1-1-8" x="93.16" y="40.91" width="32.55" height="42.02"/>
    <rect class="cls-1-1-8" x="2" y="209.68" width="32.55" height="22.73"/>
    <rect class="cls-1-1-8" x="64.6" y="50.43" width="19.97" height="29.28"/>
    <rect class="cls-2-1-8" x="44.18" y="170.87" width="13.61" height="12.54"/>
    <rect class="cls-1-1-8" x="84.57" y="2.25" width="41.15" height="38.66"/>
    <rect class="cls-1-1-8" x="2" y="2.25" width="41.28" height="38.66"/>
    <line class="cls-1-1-8" x1="118.22" y1="188.34" x2="118.22" y2="173.11"/>
    <line class="cls-1-1-8" x1="118.22" y1="196.59" x2="118.22" y2="190.95"/>
    <rect class="cls-1-1-8" x="93.16" y="196.59" width="32.55" height="35.96"/>
    <rect class="cls-1-1-8" x="93.16" y="159.97" width="32.55" height="13.1"/>
    <rect class="cls-1-1-8" x="2" y="196.59" width="32.55" height="13.1"/>
    <rect class="cls-1-1-8" x="2" y="145.14" width="32.55" height="25.64"/>
    <line class="cls-1-1-8" x1="2" y1="157.96" x2="34.55" y2="157.96"/>
    <rect class="cls-1-1-8" x="2" y="119.52" width="32.55" height="25.64"/>
    <line class="cls-1-1-8" x1="2" y1="133.01" x2="34.55" y2="133.01"/>
    <rect class="cls-1-1-8" x="2" y="93.88" width="32.55" height="25.64"/>
    <line class="cls-1-1-8" x1="2" y1="106.75" x2="34.55" y2="106.75"/>
    <rect class="cls-1-1-8" x="2" y="81.06" width="32.55" height="12.82"/>
    <path class="cls-3-1-8" d="m34.55,81.06H2v-40.15c10.83-.14,21.67-.27,32.5-.41.02,13.52.03,27.04.05,40.56Z"/>
    <rect class="cls-1-1-8" x="93.16" y="134.29" width="32.55" height="25.64"/>
    <rect class="cls-1-1-8" x="93.16" y="108.61" width="32.55" height="25.64"/>
    <line class="cls-1-1-8" x1="93.16" y1="121.43" x2="125.72" y2="121.43"/>
    <rect class="cls-1-1-8" x="93.16" y="82.93" width="32.55" height="25.64"/>
    <line class="cls-1-1-8" x1="93.16" y1="95.75" x2="125.72" y2="95.75"/>
    <g>
      <path class="cls-4-1-8" d="m102.42,176.33c0,.2-.16.36-.36.36s-.36-.16-.36-.36.16-.36.36-.36.36.16.36.36Z"/>
      <polygon class="cls-4-1-8" points="104.2 180.2 102.91 180.2 102.91 180.66 101.76 180.66 101.76 181.11 100.65 181.11 100.65 181.56 99.53 181.56 99.53 182.02 98.42 182.02 98.42 182.48 97.71 182.48 97.71 183.06 99.06 183.06 99.06 182.59 100.17 182.59 100.17 182.13 101.29 182.13 101.29 181.68 102.4 181.68 102.4 181.22 103.52 181.22 103.52 180.78 104.2 180.78 104.2 180.2"/>
      <path class="cls-4-1-8" d="m102.49,178.54c-.26-.17-.52-.34-.56-.37.09-.45.18-.86.22-1.11,0,0,.03-.22-.15-.26-.25-.05-.6.14-1,.44-.04.03-.11.09-.13.18-.02.08-.12.57-.17.78-.02.08.03.16.11.18.08.02.15-.03.18-.11.06-.17.17-.54.18-.57.02-.03.17-.16.17-.16l-.3,3.05c0,.09.07.16.16.17.1.01.19-.06.2-.17,0,0,.2-.88.39-1.79l.34.16-.18.89c-.03.09.02.18.1.21.09.03.18-.02.21-.1,0,0,.31-.75.35-.88.04-.14.15-.36-.12-.54Z"/>
      <g>
        <path class="cls-4-1-8" d="m99.35,177.35c0,.2-.16.36-.36.36s-.36-.16-.36-.36.16-.36.36-.36.36.16.36.36Z"/>
        <path class="cls-4-1-8" d="m100.16,179.4s-.05-.39-.1-.64c-.01-.06-.03-.11-.07-.18-.14-.24-.34-.53-.52-.62-.29-.15-.58-.06-.71.17-.14.25-.33.65-.83.98-.07.04-.11.1-.09.17.02.07.1.11.17.09,0,0,.02,0,.02-.01.11-.05.54-.25.69-.49l-.12,2.74c-.01.1.06.19.16.2.1.01.19-.06.2-.17l.57-3.03s.18.15.23.27c.03.08.09.32.14.54,0,0,0,0,0,0,.02.08.08.13.16.12.08-.01.13-.08.12-.16Z"/>
        <path class="cls-4-1-8" d="m100.23,180.65l-1.01-.82-.09.59.88.51c.08.06.19.04.24-.03.06-.08.04-.19-.03-.24Z"/>
      </g>
    </g>
    <line class="cls-1-1-8" x1="34.5" y1="40.5" x2="34.55" y2="81.06"/>
    <polyline class="cls-5-1-8" points="126.09 173 126.09 83 93.53 83 93.53 172.65"/>
    <polyline class="cls-5-1-8" points="126.09 234 126.09 196.43 93.53 196.43 93.53 233.85"/>
  </g>
</svg>