<?xml version="1.0" encoding="UTF-8"?>
<svg xmlns="http://www.w3.org/2000/svg" xmlns:xlink="http://www.w3.org/1999/xlink" viewBox="0 0 343 289">
  <defs>
    <style>
      .cls-1-2-1, .cls-2-2-1, .cls-3-2-1, .cls-4-2-1 {
        stroke-miterlimit: 10;
        stroke-width: 2px;
      }

      .cls-1-2-1, .cls-3-2-1 {
        fill: #7a1a24;
        stroke: #dbdcdc;
      }

      .cls-5-2-1, .cls-6-2-1, .cls-7-2-1, .cls-8-2-1 {
        font-family: KozGoPr6N-Regular-90ms-RKSJ-H, 'Kozuka Gothic Pr6N';
      }

      .cls-5-2-1, .cls-7-2-1 {
        font-size: 12px;
      }

      .cls-6-2-1 {
        glyph-orientation-vertical: 0deg;
        text-orientation: upright;
        writing-mode: tb;
      }

      .cls-6-2-1, .cls-8-2-1 {
        font-size: 10px;
      }

      .cls-2-2-1 {
        fill: none;
      }

      .cls-2-2-1, .cls-4-2-1 {
        stroke: #231815;
      }

      .cls-3-2-1 {
        opacity: .2;
      }

      .cls-4-2-1 {
        fill: #231815;
      }

      .cls-7-2-1 {
        fill: #fff;
      }
    </style>
    
  </defs>
  <g id="_2100" data-name="2100">
    <rect class="cls-1-2-1" x="218" y="213.36" width="87.21" height="53.09" transform="translate(523.21 479.8) rotate(180)"/>
    <rect class="cls-1-2-1" x="6.79" y="225.21" width="48.96" height="41.23" transform="translate(62.55 491.66) rotate(180)"/>
    <text class="cls-7-2-1" transform="translate(231.6 243.15)"><tspan x="0" y="0">子供の広場</tspan></text>
  </g>
  <g id="_レイヤー_1" data-name="レイヤー 1">
    <use transform="translate(218.46 163.03) scale(.02)" xlink:href="#image-2"/>
    <use transform="translate(62.85 162.59) scale(.02)" xlink:href="#image-2"/>
    <use transform="translate(32.9 162.08) scale(.02)" xlink:href="#image"/>
    <use transform="translate(27.55 83.48) scale(.02)" xlink:href="#image"/>
    <use transform="translate(268.84 162.73) scale(.02)" xlink:href="#image"/>
    <rect class="cls-3-2-1" x="133.07" y="69.57" width="79.89" height="34.02" transform="translate(346.02 173.15) rotate(180)"/>
    <rect class="cls-3-2-1" x="60.91" y="55.65" width="39.17" height="47.93" transform="translate(160.99 159.23) rotate(180)"/>
    <rect class="cls-2-2-1" x="6.79" y="5.66" width="298.41" height="260.79" transform="translate(312 272.1) rotate(180)"/>
    <rect class="cls-2-2-1" x="218" y="213.36" width="87.21" height="53.09" transform="translate(523.21 479.8) rotate(180)"/>
    <rect class="cls-2-2-1" x="6.79" y="225.21" width="48.96" height="41.23" transform="translate(62.55 491.66) rotate(180)"/>
    <rect class="cls-2-2-1" x="133.07" y="69.57" width="127.3" height="34.02" transform="translate(393.43 173.15) rotate(180)"/>
    <rect class="cls-2-2-1" x="193.37" y="69.57" width="19.58" height="34.02" transform="translate(406.32 173.15) rotate(180)"/>
    <rect class="cls-2-2-1" x="153.68" y="69.57" width="20.1" height="34.02" transform="translate(327.46 173.15) rotate(180)"/>
    <rect class="cls-2-2-1" x="60.91" y="55.65" width="39.17" height="47.93" transform="translate(160.99 159.23) rotate(180)"/>
    <rect class="cls-2-2-1" x="60.91" y="55.65" width="39.17" height="21.13" transform="translate(160.99 132.43) rotate(180)"/>
    <line class="cls-2-2-1" x1="78.61" y1="204.08" x2="305.21" y2="204.08"/>
    <line class="cls-2-2-1" x1="305.21" y1="156.67" x2="133.07" y2="156.67"/>
    <line class="cls-2-2-1" x1="133.07" y1="173.36" x2="133.07" y2="138.11"/>
    <line class="cls-2-2-1" x1="133.07" y1="204.08" x2="133.07" y2="183.12"/>
    <line class="cls-2-2-1" x1="100.08" y1="204.08" x2="100.08" y2="155.95"/>
    <line class="cls-2-2-1" x1="16.42" y1="156.67" x2="100.08" y2="156.67"/>
    <line class="cls-2-2-1" x1="60.91" y1="181.75" x2="6.79" y2="181.75"/>
    <line class="cls-2-2-1" x1="70.36" y1="204.08" x2="43.9" y2="204.08"/>
    <line class="cls-2-2-1" x1="33.85" y1="204.08" x2="6.79" y2="204.08"/>
    <line class="cls-2-2-1" x1="16.42" y1="198.58" x2="16.42" y2="204.08"/>
    <line class="cls-2-2-1" x1="33.85" y1="204.8" x2="33.85" y2="197.9"/>
    <line class="cls-4-2-1" x1="15.73" y1="198.58" x2="33.85" y2="198.58"/>
    <line class="cls-2-2-1" x1="45.28" y1="198.58" x2="70.36" y2="198.58"/>
    <line class="cls-2-2-1" x1="100.08" y1="196.52" x2="85.82" y2="196.52"/>
    <line class="cls-2-2-1" x1="85.82" y1="204.08" x2="85.82" y2="184.35"/>
    <line class="cls-2-2-1" x1="100.08" y1="184.84" x2="94.41" y2="184.84"/>
    <line class="cls-2-2-1" x1="86.54" y1="184.84" x2="82.13" y2="184.84"/>
    <line class="cls-2-2-1" x1="94.41" y1="185.56" x2="94.41" y2="174.53"/>
    <line class="cls-2-2-1" x1="82.84" y1="174.53" x2="82.84" y2="184.84"/>
    <line class="cls-2-2-1" x1="94.41" y1="175.22" x2="82.84" y2="175.22"/>
    <line class="cls-2-2-1" x1="74.6" y1="189.31" x2="74.6" y2="177.28"/>
    <line class="cls-2-2-1" x1="82.84" y1="177.63" x2="70.36" y2="177.63"/>
    <line class="cls-2-2-1" x1="64.98" y1="177.63" x2="60.91" y2="177.63"/>
    <line class="cls-2-2-1" x1="60.91" y1="182.44" x2="60.91" y2="162.74"/>
    <line class="cls-2-2-1" x1="76.6" y1="177.22" x2="76.6" y2="162.08"/>
    <line class="cls-2-2-1" x1="60.22" y1="162.74" x2="76.6" y2="162.74"/>
    <line class="cls-2-2-1" x1="31.28" y1="181.75" x2="31.28" y2="175.99"/>
    <line class="cls-2-2-1" x1="23.75" y1="181.75" x2="23.75" y2="162.74"/>
    <line class="cls-2-2-1" x1="16.42" y1="181.75" x2="16.42" y2="155.98"/>
    <line class="cls-2-2-1" x1="55.38" y1="176.71" x2="31.28" y2="176.71"/>
    <line class="cls-2-2-1" x1="54.67" y1="162.74" x2="54.67" y2="176.71"/>
    <line class="cls-2-2-1" x1="23.03" y1="162.74" x2="55.38" y2="162.74"/>
    <line class="cls-2-2-1" x1="116.21" y1="266.44" x2="116.21" y2="245.14"/>
    <line class="cls-2-2-1" x1="55.76" y1="245.83" x2="116.21" y2="245.83"/>
    <line class="cls-2-2-1" x1="169.66" y1="238.44" x2="131.52" y2="238.44"/>
    <line class="cls-2-2-1" x1="169.66" y1="231.23" x2="131.52" y2="231.23"/>
    <line class="cls-2-2-1" x1="169.66" y1="228.82" x2="131.52" y2="228.82"/>
    <line class="cls-2-2-1" x1="169.66" y1="221.61" x2="131.52" y2="221.61"/>
    <line class="cls-2-2-1" x1="305.21" y1="183.12" x2="287.51" y2="183.12"/>
    <line class="cls-2-2-1" x1="287.51" y1="162.11" x2="287.51" y2="183.81"/>
    <line class="cls-2-2-1" x1="249.03" y1="161.76" x2="249.03" y2="183.81"/>
    <line class="cls-2-2-1" x1="271.71" y1="183.12" x2="249.03" y2="183.12"/>
    <line class="cls-2-2-1" x1="234.6" y1="169.21" x2="234.6" y2="162.74"/>
    <line class="cls-2-2-1" x1="234.6" y1="175.22" x2="234.6" y2="184.84"/>
    <line class="cls-2-2-1" x1="215.7" y1="180.03" x2="234.6" y2="180.03"/>
    <line class="cls-2-2-1" x1="215.7" y1="161.73" x2="215.7" y2="180.72"/>
    <line class="cls-2-2-1" x1="249.03" y1="162.45" x2="215.7" y2="162.45"/>
    <line class="cls-2-2-1" x1="262.77" y1="162.74" x2="287.51" y2="162.74"/>
    <line class="cls-2-2-1" x1="262.77" y1="177.63" x2="262.77" y2="162.11"/>
    <line class="cls-2-2-1" x1="271.02" y1="183.18" x2="271.02" y2="176.88"/>
    <line class="cls-2-2-1" x1="262.14" y1="177.63" x2="271.02" y2="177.63"/>
    <line class="cls-2-2-1" x1="94.41" y1="156.67" x2="94.41" y2="114.4"/>
    <line class="cls-2-2-1" x1="100.08" y1="103.58" x2="100.08" y2="115.1"/>
    <line class="cls-2-2-1" x1="82.84" y1="114.4" x2="100.08" y2="114.4"/>
    <line class="cls-2-2-1" x1="82.84" y1="110.28" x2="82.84" y2="115.1"/>
    <line class="cls-2-2-1" x1="6.79" y1="103.58" x2="60.91" y2="103.58"/>
    <line class="cls-2-2-1" x1="18.48" y1="103.58" x2="18.48" y2="96.88"/>
    <line class="cls-2-2-1" x1="18.48" y1="91.04" x2="18.48" y2="69.57"/>
    <line class="cls-2-2-1" x1="50.43" y1="98.6" x2="22.26" y2="98.6"/>
    <line class="cls-2-2-1" x1="49.74" y1="82.77" x2="49.74" y2="98.46"/>
    <line class="cls-2-2-1" x1="22.26" y1="83.48" x2="49.74" y2="83.48"/>
    <line class="cls-2-2-1" x1="22.26" y1="96.88" x2="22.26" y2="99.26"/>
    <line class="cls-2-2-1" x1="22.26" y1="91.76" x2="22.26" y2="82.82"/>
    <line class="cls-2-2-1" x1="17.82" y1="91.04" x2="22.26" y2="91.04"/>
    <line class="cls-2-2-1" x1="17.76" y1="96.88" x2="22.91" y2="96.88"/>
    <line class="cls-2-2-1" x1="133.07" y1="124.71" x2="133.07" y2="100.23"/>
    <rect class="cls-4-2-1" x="16.64" y="198.58" width="17.01" height="5.5" transform="translate(50.3 402.67) rotate(180)"/>
    <rect class="cls-4-2-1" x="44.62" y="198.58" width="25.17" height="5.5" transform="translate(114.41 402.67) rotate(180)"/>
    <rect class="cls-4-2-1" x="68.87" y="209.81" width="23.14" height="3.49" transform="translate(160.88 423.11) rotate(180)"/>
    <rect class="cls-4-2-1" x="86.28" y="197.1" width="13.51" height="6.7" transform="translate(186.07 400.89) rotate(180)"/>
    <line class="cls-2-2-1" x1="168.11" y1="238.1" x2="168.11" y2="231.23"/>
    <line class="cls-2-2-1" x1="168.11" y1="228.82" x2="168.11" y2="221.89"/>
    <line class="cls-2-2-1" x1="133.07" y1="238.44" x2="133.07" y2="231.63"/>
    <line class="cls-2-2-1" x1="133.07" y1="228.82" x2="133.07" y2="221.89"/>
    <rect class="cls-4-2-1" x="99.79" y="118.01" width="2.35" height="30.41" transform="translate(201.94 266.43) rotate(180)"/>
    
    <text class="cls-5-2-1" transform="translate(74.3 261.11)"><tspan x="0" y="0">入口</tspan></text>
    <text class="cls-5-2-1" transform="translate(155.02 133.48)"><tspan x="0" y="0">メディアセンター</tspan></text>
    <text class="cls-6-2-1" transform="translate(322.61 164.57)"><tspan x="0" y="0">キャンパスプラザ</tspan></text>
    <text class="cls-8-2-1" transform="translate(330.71 203.9)"><tspan x="0" y="0">→</tspan></text>
    <text class="cls-8-2-1" transform="translate(2.39 282.4)"><tspan x="0" y="0">←北千住駅</tspan></text>
    <text class="cls-8-2-1" transform="translate(139.97 286.69)"><tspan x="0" y="0">電大通り</tspan></text>
  </g>
</svg>