<?xml version="1.0" encoding="UTF-8"?>
<svg xmlns="http://www.w3.org/2000/svg" viewBox="0 0 225.1 236.06">
  <defs>
    <style>
      .cls-1-2-5 {
        fill: none;
      }

      .cls-1-2-5, .cls-2-2-5 {
        stroke: #231815;
        stroke-miterlimit: 10;
      }

      .cls-3-2-5, .cls-4-2-5, .cls-5-2-5, .cls-6-2-5, .cls-7-2-5, .cls-8-2-5 {
        stroke-width: 0px;
      }

      .cls-3-2-5, .cls-2-2-5, .cls-9-2-5 {
        fill: #231815;
      }

      .cls-4-2-5 {
        opacity: .2;
      }

      .cls-4-2-5, .cls-8-2-5 {
        fill: #7a1a24;
      }

      .cls-5-2-5 {
        fill: #2d3e6a;
      }

      .cls-6-2-5, .cls-10-2-5 {
        fill: #fff;
      }

      .cls-7-2-5 {
        fill: #ba1f21;
      }

      .cls-10-2-5, .cls-9-2-5 {
        font-family: KozGoPr6N-Regular-90ms-RKSJ-H, 'Kozuka Gothic Pr6N';
        font-size: 7px;
      }
    </style>
  </defs>
  <g id="_レイヤー_1" data-name="レイヤー 1">
    <rect class="cls-4-2-5" x="179.56" y="75.47" width="32.55" height="52.14" transform="translate(297.37 -94.3) rotate(90)"/>
    <polyline class="cls-1-2-5" points="80.48 91.05 80.48 3.6 107.04 3.6"/>
    <line class="cls-1-2-5" x1="80.48" y1="133.91" x2="80.48" y2="102.05"/>
    <polyline class="cls-1-2-5" points="107.04 3.6 221.59 3.6 221.59 233.09 80.48 233.09 80.48 144.81"/>
    <line class="cls-1-2-5" x1="169.45" y1="11.5" x2="169.45" y2="78.16"/>
    <polyline class="cls-1-2-5" points="169.45 83.59 169.45 85.26 221.59 85.26 221.59 3.6 169.45 3.6 169.45 6.14"/>
    <polyline class="cls-1-2-5" points="169.45 230.8 169.45 233.09 221.59 233.09 221.59 117.81 169.45 117.81 169.45 120.58"/>
    <line class="cls-1-2-5" x1="169.45" y1="157.86" x2="169.45" y2="224.76"/>
    <line class="cls-1-2-5" x1="169.45" y1="126.62" x2="169.45" y2="153.21"/>
    <line class="cls-1-2-5" x1="169.45" y1="109.06" x2="169.45" y2="92.03"/>
    <polyline class="cls-1-2-5" points="169.45 86.51 169.45 85.26 221.59 85.26 221.59 117.81 169.45 117.81 169.45 114.98"/>
    <line class="cls-1-2-5" x1="132.22" y1="224.03" x2="132.22" y2="158.56"/>
    <polyline class="cls-1-2-5" points="80.24 151.54 132.22 151.54 132.22 151.54 132.22 144.81 80.24 144.81 80.24 233.09 132.22 233.09 132.22 229.99"/>
    <line class="cls-1-2-5" x1="132.22" y1="11.3" x2="132.22" y2="77.91"/>
    <polyline class="cls-1-2-5" points="80.24 83.57 132.22 83.61 132.22 91.05 80.24 91.05 80.24 3.6 132.22 3.6 132.22 6.37"/>
    <g>
      <polyline class="cls-1-2-5" points="121.95 99.22 123.85 99.22 123.85 137.1 121.95 137.1"/>
      <g>
        <polyline class="cls-1-2-5" points="117.83 137.1 94.53 137.1 94.53 99.22 117.83 99.22"/>
        <line class="cls-1-2-5" x1="123.85" y1="121.17" x2="94.53" y2="121.17"/>
      </g>
    </g>
    <rect class="cls-2-2-5" x="115.81" y="113.92" width="35.03" height="5.63" transform="translate(250.05 -16.59) rotate(90)"/>
    <polyline class="cls-1-2-5" points="132.22 221.39 153.3 221.39 153.3 219.07 135.16 219.07 135.16 194.38 146.91 194.38 146.91 212.2 153.3 212.2 153.3 189.67 148.11 189.67 148.11 185.75"/>
    <polyline class="cls-1-2-5" points="148.11 189.67 135.16 189.67 135.16 176.8 148.11 176.8 148.11 180.8"/>
    <polyline class="cls-1-2-5" points="148.11 176.8 148.11 172.81 152.34 172.81 152.34 159.38 132.22 159.38"/>
    <polyline class="cls-2-2-5" points="132.22 13.2 154.12 13.2 154.12 17.63 135.38 17.63 135.38 39.92 150.04 39.92 150.04 24.49 154.12 24.49 154.12 46.6 136.98 46.6 136.98 71.55 151.7 71.55 151.7 57.66 154.12 57.66 154.12 76.87 132.22 76.87"/>
    <line class="cls-1-2-5" x1="151.7" y1="57.66" x2="147.01" y2="57.66"/>
    <line class="cls-1-2-5" x1="141.53" y1="57.72" x2="136.98" y2="57.72"/>
    <line class="cls-1-2-5" x1="150.7" y1="93.88" x2="150.7" y2="142.95"/>
    <line class="cls-1-2-5" x1="152.6" y1="93.81" x2="152.6" y2="142.88"/>
    <polyline class="cls-1-2-5" points="158.4 93.62 158.4 96.81 158.4 142.69"/>
    <line class="cls-1-2-5" x1="144.51" y1="93.88" x2="144.51" y2="142.95"/>
    <line class="cls-1-2-5" x1="152.6" y1="97.05" x2="158.4" y2="97.05"/>
    <line class="cls-1-2-5" x1="158.4" y1="139.77" x2="152.6" y2="139.77"/>
    <line class="cls-1-2-5" x1="150.7" y1="139.77" x2="144.51" y2="139.77"/>
    <line class="cls-1-2-5" x1="150.7" y1="97.05" x2="144.51" y2="97.05"/>
    <text class="cls-9-2-5" transform="translate(181.52 103.71)"><tspan x="0" y="0">２５０２</tspan></text>
    <polyline class="cls-2-2-5" points="94.53 133.91 80.24 133.91 80.24 102.05 87.31 102.05 87.31 116.57 94.53 119.75"/>
    <rect class="cls-3-2-5" x="102.51" y="61.34" width="7.44" height="51.98" transform="translate(193.56 -18.9) rotate(90)"/>
    <rect class="cls-3-2-5" x="103.1" y="122.19" width="6.74" height="51.98" transform="translate(254.65 41.71) rotate(90)"/>
    <polygon class="cls-3-2-5" points="153.3 219.07 135.16 219.07 135.16 194.38 146.91 194.38 146.91 212.2 153.3 212.2 153.3 194.38 153.3 191.29 153.3 189.67 135.16 189.67 135.16 176.8 148.11 176.8 148.11 172.58 152.34 172.58 152.34 159.38 132.22 159.38 132.22 171.73 132.22 172.58 132.22 176.33 132.08 176.33 132.08 221.39 133.62 221.39 135.16 221.39 153.3 221.39 153.3 219.07"/>
    <g>
      <path class="cls-3-2-5" d="m144.74,25.45c0,.24-.19.43-.43.43s-.43-.19-.43-.43.19-.43.43-.43.43.19.43.43Z"/>
      <polygon class="cls-3-2-5" points="146.88 30.09 145.34 30.09 145.34 30.64 143.96 30.64 143.96 31.18 142.62 31.18 142.62 31.73 141.28 31.73 141.28 32.27 139.94 32.27 139.94 32.82 139.09 32.82 139.09 33.52 140.72 33.52 140.72 32.95 142.05 32.95 142.05 32.41 143.38 32.41 143.38 31.86 144.72 31.86 144.72 31.32 146.06 31.32 146.06 30.79 146.88 30.79 146.88 30.09"/>
      <path class="cls-3-2-5" d="m144.83,28.1c-.32-.21-.63-.41-.67-.44.11-.54.21-1.03.26-1.33,0,0,.04-.27-.17-.31-.3-.06-.72.17-1.2.53-.05.04-.13.1-.16.21-.03.1-.14.69-.2.94-.02.09.03.19.13.21.09.02.18-.03.21-.13.07-.21.2-.65.22-.68.02-.04.21-.19.21-.19l-.36,3.66c0,.11.09.19.19.21.12.01.22-.08.24-.2,0,0,.24-1.06.47-2.15l.41.19-.21,1.06c-.03.1.02.21.12.25.1.03.21-.02.25-.12,0,0,.37-.9.42-1.06.05-.17.18-.43-.15-.64Z"/>
      <g>
        <path class="cls-3-2-5" d="m141.06,26.67c0,.24-.19.43-.43.43s-.43-.19-.43-.43.19-.43.43-.43.43.19.43.43Z"/>
        <path class="cls-3-2-5" d="m142.03,29.13s-.06-.47-.12-.76c-.02-.07-.04-.13-.09-.22-.17-.29-.41-.63-.63-.75-.35-.18-.69-.08-.86.2-.17.3-.39.78-1,1.18-.08.05-.14.12-.11.21.03.09.12.14.21.11.01,0,.02,0,.03-.01.13-.06.65-.3.83-.59l-.15,3.28c-.01.12.07.23.19.25.12.01.22-.08.24-.2l.68-3.63s.22.18.27.33c.04.1.11.39.16.65,0,0,0,0,0,0,.02.1.1.16.19.15.09-.01.16-.1.15-.19Z"/>
        <path class="cls-3-2-5" d="m142.11,30.64l-1.21-.98-.1.7,1.06.61c.09.07.22.05.29-.04.07-.09.05-.22-.04-.29Z"/>
      </g>
    </g>
    <g>
      <path class="cls-3-2-5" d="m143.08,203.55c0,.24-.19.43-.43.43s-.43-.19-.43-.43.19-.43.43-.43.43.19.43.43Z"/>
      <polygon class="cls-3-2-5" points="145.21 208.18 143.67 208.18 143.67 208.73 142.29 208.73 142.29 209.28 140.95 209.28 140.95 209.82 139.61 209.82 139.61 210.37 138.27 210.37 138.27 210.92 137.42 210.92 137.42 211.62 139.05 211.62 139.05 211.05 140.38 211.05 140.38 210.5 141.72 210.5 141.72 209.96 143.06 209.96 143.06 209.41 144.39 209.41 144.39 208.88 145.21 208.88 145.21 208.18"/>
      <path class="cls-3-2-5" d="m143.17,206.2c-.32-.21-.63-.41-.67-.44.11-.54.21-1.03.26-1.33,0,0,.04-.27-.17-.31-.3-.06-.72.17-1.2.53-.05.04-.13.1-.16.21-.03.1-.14.69-.2.94-.02.09.03.19.13.21.09.02.18-.03.21-.13.07-.21.2-.65.22-.68.02-.04.21-.19.21-.19l-.36,3.66c0,.11.09.19.19.21.12.01.22-.08.24-.2,0,0,.24-1.06.47-2.15l.41.19-.21,1.06c-.03.1.02.21.12.25.1.03.21-.02.25-.12,0,0,.37-.9.42-1.06.05-.17.18-.43-.15-.64Z"/>
      <g>
        <path class="cls-3-2-5" d="m139.4,204.76c0,.24-.19.43-.43.43s-.43-.19-.43-.43.19-.43.43-.43.43.19.43.43Z"/>
        <path class="cls-3-2-5" d="m140.37,207.23s-.06-.47-.12-.76c-.02-.07-.04-.13-.09-.22-.17-.29-.41-.63-.63-.75-.35-.18-.69-.08-.86.2-.17.3-.39.78-1,1.18-.08.05-.14.12-.11.21.03.09.12.14.21.11.01,0,.02,0,.03-.01.13-.06.65-.3.83-.59l-.15,3.28c-.01.12.07.23.19.25.12.01.22-.08.24-.2l.68-3.63s.22.18.27.33c.04.1.11.39.16.65,0,0,0,0,0,0,.02.1.1.16.19.15.09-.01.16-.1.15-.19Z"/>
        <path class="cls-3-2-5" d="m140.45,208.73l-1.21-.98-.1.7,1.06.61c.09.07.22.05.29-.04.07-.09.05-.22-.04-.29Z"/>
      </g>
    </g>
    <g>
      <g>
        <path class="cls-3-2-5" d="m140.77,182.99c0,.2-.16.35-.35.35s-.35-.16-.35-.35.16-.35.35-.35.35.16.35.35Z"/>
        <path class="cls-3-2-5" d="m140.41,183.43c-.25,0-.84.02-.84.51v1.17c0,.08.06.14.13.14.08,0,.14-.06.14-.13l.07-.71.07,2.64c0,.1.08.18.18.18s.18-.08.18-.18l.07-1.62.07,1.62c0,.1.08.18.18.18s.18-.08.18-.18l.07-2.64.07.71c0,.08.07.13.14.13.08,0,.13-.07.13-.14v-1.17c0-.49-.59-.51-.84-.51Z"/>
      </g>
      <g>
        <path class="cls-3-2-5" d="m142.93,182.99c0,.2-.16.35-.35.35s-.35-.16-.35-.35.16-.35.35-.35.35.16.35.35Z"/>
        <path class="cls-3-2-5" d="m142.57,183.43c-.25,0-.84.02-.84.51v1.17c0,.08.06.14.13.14.08,0,.14-.06.14-.13l.07-.71.07,2.64c0,.1.08.18.18.18s.18-.08.18-.18l.07-1.62.07,1.62c0,.1.08.18.18.18s.18-.08.18-.18l.07-2.64.07.71c0,.08.07.13.14.13.08,0,.13-.07.13-.14v-1.17c0-.49-.59-.51-.84-.51Z"/>
      </g>
      <path class="cls-3-2-5" d="m143.81,187.48h-4.64c-.36,0-.65-.29-.65-.65v-4.97c0-.36.29-.65.65-.65h4.64c.36,0,.65.29.65.65v4.97c0,.36-.29.65-.65.65Zm-4.64-5.86c-.13,0-.24.11-.24.24v4.97c0,.13.11.24.24.24h4.64c.13,0,.24-.11.24-.24v-4.97c0-.13-.11-.24-.24-.24h-4.64Z"/>
      <path class="cls-3-2-5" d="m143.58,179.9l-.79-.79h0s-.13-.13-.13-.13l-.13.13h0s-.79.79-.79.79c-.07.07-.07.18,0,.25.07.07.18.07.25,0l.49-.49v1.09c0,.1.08.18.18.18s.18-.08.18-.18v-1.09s.49.49.49.49c.04.04.08.05.13.05s.09-.02.13-.05c.07-.07.07-.18,0-.25Z"/>
      <path class="cls-3-2-5" d="m141.33,179.84c-.07-.07-.18-.07-.25,0l-.49.49v-1.09c0-.1-.08-.18-.18-.18s-.18.08-.18.18v1.09s-.49-.49-.49-.49c-.07-.07-.18-.07-.25,0-.07.07-.07.18,0,.25l.79.79h0s.13.13.13.13l.13-.13h0s.79-.79.79-.79c.07-.07.07-.18,0-.25Z"/>
    </g>
    <g>
      <g>
        <path class="cls-3-2-5" d="m143.96,64.31c0,.2-.16.35-.35.35s-.35-.16-.35-.35.16-.35.35-.35.35.16.35.35Z"/>
        <path class="cls-3-2-5" d="m143.6,64.75c-.25,0-.84.02-.84.51v1.17c0,.08.06.14.13.14.08,0,.14-.06.14-.13l.07-.71.07,2.64c0,.1.08.18.18.18s.18-.08.18-.18l.07-1.62.07,1.62c0,.1.08.18.18.18s.18-.08.18-.18l.07-2.64.07.71c0,.08.07.13.14.13.08,0,.13-.07.13-.14v-1.17c0-.49-.59-.51-.84-.51Z"/>
      </g>
      <g>
        <path class="cls-3-2-5" d="m146.12,64.31c0,.2-.16.35-.35.35s-.35-.16-.35-.35.16-.35.35-.35.35.16.35.35Z"/>
        <path class="cls-3-2-5" d="m145.77,64.75c-.25,0-.84.02-.84.51v1.17c0,.08.06.14.13.14.08,0,.14-.06.14-.13l.07-.71.07,2.64c0,.1.08.18.18.18s.18-.08.18-.18l.07-1.62.07,1.62c0,.1.08.18.18.18s.18-.08.18-.18l.07-2.64.07.71c0,.08.07.13.14.13.08,0,.13-.07.13-.14v-1.17c0-.49-.59-.51-.84-.51Z"/>
      </g>
      <path class="cls-3-2-5" d="m147.01,68.81h-4.64c-.36,0-.65-.29-.65-.65v-4.97c0-.36.29-.65.65-.65h4.64c.36,0,.65.29.65.65v4.97c0,.36-.29.65-.65.65Zm-4.64-5.86c-.13,0-.24.11-.24.24v4.97c0,.13.11.24.24.24h4.64c.13,0,.24-.11.24-.24v-4.97c0-.13-.11-.24-.24-.24h-4.64Z"/>
      <path class="cls-3-2-5" d="m146.78,61.22l-.79-.79h0s-.13-.13-.13-.13l-.13.13h0s-.79.79-.79.79c-.07.07-.07.18,0,.25.07.07.18.07.25,0l.49-.49v1.09c0,.1.08.18.18.18s.18-.08.18-.18v-1.09s.49.49.49.49c.04.04.08.05.13.05s.09-.02.13-.05c.07-.07.07-.18,0-.25Z"/>
      <path class="cls-3-2-5" d="m144.52,61.16c-.07-.07-.18-.07-.25,0l-.49.49v-1.09c0-.1-.08-.18-.18-.18s-.18.08-.18.18v1.09s-.49-.49-.49-.49c-.07-.07-.18-.07-.25,0-.07.07-.07.18,0,.25l.79.79h0s.13.13.13.13l.13-.13h0s.79-.79.79-.79c.07-.07.07-.18,0-.25Z"/>
    </g>
    <g>
      <path class="cls-5-2-5" d="m110.06,105.32c0,.48-.39.87-.87.87s-.87-.39-.87-.87.39-.87.87-.87.87.39.87.87Z"/>
      <path class="cls-5-2-5" d="m109.19,106.46c-.62,0-2.07.06-2.07,1.26v2.86c0,.19.14.35.32.35.19,0,.35-.14.35-.32l.16-1.74.17,6.47c0,.24.2.44.44.44s.44-.2.44-.44l.18-3.98.18,3.98c0,.24.2.44.44.44s.44-.2.44-.44l.17-6.47.16,1.74c0,.19.17.33.35.32s.33-.17.32-.35v-2.86c0-1.2-1.45-1.26-2.07-1.26Z"/>
    </g>
    <g>
      <path class="cls-7-2-5" d="m109.19,125.25c.48,0,.87-.39.87-.87s-.39-.87-.87-.87-.87.39-.87.87.39.87.87.87Z"/>
      <path class="cls-7-2-5" d="m111.68,129.41l-.69-2.52c-.28-1.16-1.19-1.34-1.8-1.34s-1.52.17-1.8,1.34l-.69,2.52c-.07.17.02.37.19.44.17.07.37-.02.44-.19l.68-1.92.17.88-.85,2.69h1.25s.07.84.07.84l.1,2.27c0,.24.2.44.44.44s.44-.2.44-.44l.1-2.27.07-.84h1.25s-.85-2.69-.85-2.69l.17-.88.68,1.92c.07.17.26.26.44.19.17-.07.26-.26.19-.44Z"/>
    </g>
    <rect class="cls-3-2-5" x="156.88" y="144.74" width=".07" height=".07" transform="translate(301.69 -12.13) rotate(90)"/>
    <g>
      <rect class="cls-6-2-5" x="151.6" y="112.49" width="11.34" height="11.34"/>
      <g>
        <path class="cls-3-2-5" d="m161.39,121.94v-1.83s0,0,0,0v-.29s-.29,0-.29,0c0,0,0,0,0,0h-1.83c-.16,0-.29.13-.29.29s.13.29.29.29h1.12s-1.26,1.26-1.26,1.26c-.11.11-.11.3,0,.42.11.11.3.11.42,0l1.26-1.26v1.12c0,.08.03.15.09.21.05.05.13.09.21.09.16,0,.29-.13.29-.29Z"/>
        <g>
          <path class="cls-3-2-5" d="m160.96,115.19h-1.74c-.14,0-.34.08-.44.18l-4.11,4.1c-.1.1-.3.18-.44.18h-.64c-.69,0-1.26.56-1.26,1.26s.56,1.26,1.26,1.26h1.74c.14,0,.34-.08.44-.18l4.11-4.1c.1-.1.3-.18.44-.18h.64c.69,0,1.26-.56,1.26-1.26s-.56-1.26-1.26-1.26Zm0,1.95h-1.14s-4.48,4.46-4.48,4.46h-1.76c-.38,0-.69-.31-.69-.69s.31-.69.69-.69h1.14s4.48-4.46,4.48-4.46h1.76c.38,0,.69.31.69.69s-.31.69-.69.69Z"/>
          <path class="cls-3-2-5" d="m157.01,114.6c0,.29-.23.52-.52.52s-.52-.23-.52-.52.23-.52.52-.52.52.23.52.52Z"/>
          <path class="cls-3-2-5" d="m157.36,116.13c.1-.8-.48-.87-.84-.87s-.94.07-.84.87c.09.75.18,2.13.19,2.26l1.4-1.32c.03-.34.06-.67.09-.93Z"/>
        </g>
      </g>
    </g>
    <g>
      <rect class="cls-6-2-5" x="140.62" y="112.49" width="11.34" height="11.34"/>
      <g>
        <path class="cls-3-2-5" d="m148.15,119.99v1.83s0,0,0,0v.29s.29,0,.29,0c0,0,0,0,0,0h1.83c.16,0,.29-.13.29-.29s-.13-.29-.29-.29h-1.12s1.26-1.26,1.26-1.26c.11-.11.11-.3,0-.42-.11-.11-.3-.11-.42,0l-1.26,1.26v-1.12c0-.08-.03-.15-.09-.21-.05-.05-.13-.09-.21-.09-.16,0-.29.13-.29.29Z"/>
        <g>
          <path class="cls-3-2-5" d="m149.98,115.22h-1.74c-.14,0-.34.08-.44.18l-4.11,4.1c-.1.1-.3.18-.44.18h-.64c-.69,0-1.26.56-1.26,1.26s.56,1.26,1.26,1.26h1.74c.14,0,.34-.08.44-.18l4.11-4.1c.1-.1.3-.18.44-.18h.64c.69,0,1.26-.56,1.26-1.26s-.56-1.26-1.26-1.26Zm0,1.95h-1.14s-4.48,4.46-4.48,4.46h-1.76c-.38,0-.69-.31-.69-.69s.31-.69.69-.69h1.14s4.48-4.46,4.48-4.46h1.76c.38,0,.69.31.69.69s-.31.69-.69.69Z"/>
          <path class="cls-3-2-5" d="m146.03,114.63c0,.29-.23.52-.52.52s-.52-.23-.52-.52.23-.52.52-.52.52.23.52.52Z"/>
          <path class="cls-3-2-5" d="m146.38,116.16c.1-.8-.48-.87-.84-.87s-.94.07-.84.87c.09.75.18,2.13.19,2.26l1.4-1.32c.03-.34.06-.67.09-.93Z"/>
        </g>
      </g>
    </g>
    <polyline class="cls-1-2-5" points="80.24 91.09 80.24 3.6 4.82 3.6 4.82 233.2 80.24 233.2 80.24 144.88"/>
    <rect class="cls-4-2-5" x="-72.07" y="80.89" width="229.2" height="75.42" transform="translate(161.13 76.07) rotate(90)"/>
    <text class="cls-9-2-5" transform="translate(18.03 120.84)"><tspan x="0" y="0">ルーフガーデン</tspan></text>
  </g>
  <g id="_2505" data-name="2505">
    <rect class="cls-8-2-5" x="66.17" y="17.61" width="79.97" height="51.83" transform="translate(149.67 -62.63) rotate(90)"/>
    <text class="cls-10-2-5" transform="translate(92.15 45.42)"><tspan x="0" y="0">２５０５</tspan></text>
  </g>
  <g id="_2501" data-name="2501">
    <rect class="cls-8-2-5" x="155" y="18.24" width="81.66" height="52.14" transform="translate(240.14 -151.53) rotate(90)"/>
    <text class="cls-10-2-5" transform="translate(181.83 46.2)"><tspan x="0" y="0">２５０１</tspan></text>
  </g>
  <g id="_2503" data-name="2503">
    <rect class="cls-8-2-5" x="137.88" y="149.25" width="115.28" height="52.14" transform="translate(370.84 -20.2) rotate(90)"/>
    <text class="cls-10-2-5" transform="translate(181.52 177.22)"><tspan x="0" y="0">２５０３</tspan></text>
  </g>
  <g id="_2504" data-name="2504">
    <rect class="cls-8-2-5" x="65.37" y="166.25" width="81.58" height="51.84" transform="translate(298.33 86.01) rotate(90)"/>
    <text class="cls-10-2-5" transform="translate(92.16 194.07)"><tspan x="0" y="0">２５０４</tspan></text>
  </g>
</svg>