<?xml version="1.0" encoding="UTF-8"?>
<svg xmlns="http://www.w3.org/2000/svg" viewBox="0 0 147 234">
  <defs>
    <style>
      .cls-1-2-6 {
        fill: none;
      }

      .cls-1-2-6, .cls-2-2-6, .cls-3-2-6 {
        stroke: #231815;
        stroke-miterlimit: 10;
      }

      .cls-2-2-6 {
        stroke-width: .5px;
      }

      .cls-4-2-6, .cls-5-2-6, .cls-6-2-6, .cls-7-2-6, .cls-8-2-6 {
        stroke-width: 0px;
      }

      .cls-4-2-6, .cls-3-2-6 {
        fill: #231815;
      }

      .cls-5-2-6 {
        fill: #2d3e6a;
      }

      .cls-6-2-6, .cls-9-2-6 {
        fill: #fff;
      }

      .cls-7-2-6 {
        fill: #ba1f21;
      }

      .cls-8-2-6 {
        fill: #7a1a24;
      }

      .cls-9-2-6 {
        font-family: KozGoPr6N-Regular-90ms-RKSJ-H, 'Kozuka Gothic Pr6N';
        font-size: 7px;
      }
    </style>
  </defs>
  <g id="_2601" data-name="2601">
    <rect class="cls-8-2-6" x="77.26" y="16.92" width="81.99" height="52.16" transform="translate(161.26 -75.25) rotate(90)"/>
    <text class="cls-9-2-6" transform="translate(104.26 44.75)"><tspan x="0" y="0">２６０１</tspan></text>
  </g>
  <g id="_2602" data-name="2602">
    <rect class="cls-8-2-6" x="84.78" y="91.45" width="66.32" height="52.16" transform="translate(235.48 -.41) rotate(90)"/>
    <text class="cls-9-2-6" transform="translate(103.95 119.43)"><tspan x="0" y="0">２６０２</tspan></text>
  </g>
  <g id="_2603" data-name="2603">
    <polyline class="cls-8-2-6" points="144.03 149.81 144.03 231.42 91.87 231.42 91.87 149.81 144.03 149.81"/>
    <text class="cls-9-2-6" transform="translate(103.95 192.51)"><tspan x="0" y="0">２６０３</tspan></text>
  </g>
  <g id="_2604" data-name="2604">
    <rect class="cls-8-2-6" x="-12.27" y="164.93" width="81.62" height="51.87" transform="translate(219.4 162.33) rotate(90)"/>
    <text class="cls-9-2-6" transform="translate(14.54 186.63)"><tspan x="0" y="0">２６０４</tspan></text>
    <line class="cls-2-2-6" x1="91.87" y1="150.49" x2="144.34" y2="150.24"/>
  </g>
  <g id="_2605" data-name="2605">
    <rect class="cls-8-2-6" x="-11.47" y="16.09" width="80.01" height="51.85" transform="translate(70.55 13.48) rotate(90)"/>
    <text class="cls-9-2-6" transform="translate(14.53 43.91)"><tspan x="0" y="0">２６０５</tspan></text>
  </g>
  <g id="_レイヤー_1" data-name="レイヤー 1">
    <polyline class="cls-3-2-6" points="16.91 132.45 2.6 132.45 2.6 100.57 9.68 100.57 9.68 115.1 16.91 118.28"/>
    <polyline class="cls-1-2-6" points="29.42 2.07 144.03 2.07 144.03 231.67 2.85 231.67 2.85 2.07 29.42 2.07"/>
    <line class="cls-1-2-6" x1="91.87" y1="9.97" x2="91.87" y2="76.67"/>
    <polyline class="cls-1-2-6" points="91.87 82.1 91.87 83.77 144.03 83.77 144.03 2.07 91.87 2.07 91.87 4.62"/>
    <line class="cls-1-2-6" x1="91.87" y1="116.34" x2="91.87" y2="119.11"/>
    <polyline class="cls-1-2-6" points="91.87 229.39 91.87 231.67 144.03 231.67 144.03 116.34"/>
    <line class="cls-1-2-6" x1="91.87" y1="156.4" x2="91.87" y2="223.34"/>
    <line class="cls-1-2-6" x1="91.87" y1="125.15" x2="91.87" y2="151.75"/>
    <line class="cls-1-2-6" x1="91.87" y1="107.58" x2="91.87" y2="90.54"/>
    <polyline class="cls-1-2-6" points="91.87 86.32 91.87 83.77 144.03 83.77 144.03 150.06 91.87 150.06 91.87 144.29"/>
    <line class="cls-1-2-6" x1="54.61" y1="222.61" x2="54.61" y2="157.11"/>
    <polyline class="cls-1-2-6" points="2.6 150.08 54.61 150.08 54.61 150.08 54.61 143.35 2.6 143.35 2.6 231.67 54.61 231.67 54.61 228.58"/>
    <line class="cls-1-2-6" x1="54.61" y1="9.77" x2="54.61" y2="76.42"/>
    <polyline class="cls-1-2-6" points="2.6 82.08 54.61 82.12 54.61 89.57 2.6 89.57 2.6 2.07 54.61 2.07 54.61 4.84"/>
    <g>
      <polyline class="cls-1-2-6" points="44.34 97.74 46.24 97.74 46.24 135.64 44.34 135.64"/>
      <g>
        <polyline class="cls-1-2-6" points="40.21 135.64 16.91 135.64 16.91 97.74 40.21 97.74"/>
        <line class="cls-1-2-6" x1="46.24" y1="119.7" x2="16.91" y2="119.7"/>
      </g>
    </g>
    <rect class="cls-3-2-6" x="38.19" y="112.45" width="35.04" height="5.63" transform="translate(170.97 59.55) rotate(90)"/>
    <polyline class="cls-1-2-6" points="54.61 219.97 75.7 219.97 75.7 217.65 57.56 217.65 57.56 192.95 69.31 192.95 69.31 210.77 75.7 210.77 75.7 188.23 70.51 188.23 70.51 184.31"/>
    <polyline class="cls-1-2-6" points="70.51 188.23 57.56 188.23 57.56 175.36 70.51 175.36 70.51 179.36"/>
    <polyline class="cls-1-2-6" points="70.51 175.36 70.51 171.36 74.74 171.36 74.74 157.93 54.61 157.93"/>
    <polyline class="cls-3-2-6" points="54.61 11.67 76.53 11.67 76.53 16.11 57.78 16.11 57.78 38.41 72.44 38.41 72.44 22.97 76.53 22.97 76.53 45.1 59.37 45.1 59.37 70.06 74.1 70.06 74.1 56.16 76.53 56.16 76.53 75.38 54.61 75.38"/>
    <line class="cls-1-2-6" x1="74.1" y1="56.16" x2="69.41" y2="56.16"/>
    <line class="cls-1-2-6" x1="63.93" y1="56.22" x2="59.37" y2="56.22"/>
    <line class="cls-1-2-6" x1="73.1" y1="92.39" x2="73.1" y2="141.49"/>
    <line class="cls-1-2-6" x1="75.01" y1="92.33" x2="75.01" y2="141.42"/>
    <polyline class="cls-1-2-6" points="80.81 92.14 80.81 95.33 80.81 141.24"/>
    <line class="cls-1-2-6" x1="66.9" y1="92.39" x2="66.9" y2="141.49"/>
    <line class="cls-1-2-6" x1="75.01" y1="95.57" x2="80.81" y2="95.57"/>
    <line class="cls-1-2-6" x1="80.81" y1="138.31" x2="75.01" y2="138.31"/>
    <line class="cls-1-2-6" x1="73.1" y1="138.31" x2="66.9" y2="138.31"/>
    <line class="cls-1-2-6" x1="73.1" y1="95.57" x2="66.9" y2="95.57"/>
    <rect class="cls-4-2-6" x="24.88" y="59.84" width="7.45" height="52.01" transform="translate(114.45 57.23) rotate(90)"/>
    <rect class="cls-4-2-6" x="25.48" y="120.72" width="6.74" height="52.01" transform="translate(175.57 117.88) rotate(90)"/>
    <polygon class="cls-4-2-6" points="75.7 217.65 57.56 217.65 57.56 192.95 69.31 192.95 69.31 210.77 75.7 210.77 75.7 192.95 75.7 189.86 75.7 188.23 57.56 188.23 57.56 175.36 70.51 175.36 70.51 171.13 74.74 171.13 74.74 157.93 54.61 157.93 54.61 170.29 54.61 171.13 54.61 174.88 54.47 174.88 54.47 219.97 56.02 219.97 57.56 219.97 75.7 219.97 75.7 217.65"/>
    <g>
      <path class="cls-4-2-6" d="m67.14,23.94c0,.24-.19.43-.43.43s-.43-.19-.43-.43.19-.43.43-.43.43.19.43.43Z"/>
      <polygon class="cls-4-2-6" points="69.27 28.57 67.73 28.57 67.73 29.12 66.35 29.12 66.35 29.67 65.01 29.67 65.01 30.21 63.68 30.21 63.68 30.76 62.34 30.76 62.34 31.31 61.49 31.31 61.49 32.01 63.12 32.01 63.12 31.44 64.44 31.44 64.44 30.89 65.78 30.89 65.78 30.35 67.12 30.35 67.12 29.8 68.46 29.8 68.46 29.27 69.27 29.27 69.27 28.57"/>
      <path class="cls-4-2-6" d="m67.23,26.58c-.32-.21-.63-.41-.67-.44.11-.54.21-1.03.26-1.33,0,0,.04-.27-.17-.31-.3-.06-.72.17-1.2.53-.05.04-.13.1-.16.21-.03.1-.14.69-.2.94-.02.09.03.19.13.21.09.02.18-.03.21-.13.07-.21.2-.65.22-.68.02-.04.21-.19.21-.19l-.36,3.66c0,.11.09.19.19.21.12.01.22-.08.24-.2,0,0,.24-1.06.47-2.15l.41.19-.21,1.06c-.03.1.02.21.12.25.1.03.21-.02.25-.12,0,0,.37-.9.42-1.06.05-.17.18-.43-.15-.64Z"/>
      <g>
        <path class="cls-4-2-6" d="m63.46,25.15c0,.24-.19.43-.43.43s-.43-.19-.43-.43.19-.43.43-.43.43.19.43.43Z"/>
        <path class="cls-4-2-6" d="m64.43,27.62s-.06-.47-.12-.76c-.02-.07-.04-.13-.09-.22-.17-.29-.41-.63-.63-.75-.35-.18-.69-.08-.86.2-.17.3-.39.78-1,1.18-.08.05-.14.12-.11.21.03.09.12.14.21.11.01,0,.02,0,.03-.01.13-.06.65-.3.83-.59l-.15,3.28c-.01.12.07.23.19.25.12.01.22-.08.24-.2l.68-3.63s.22.18.27.33c.04.1.11.39.16.65,0,0,0,0,0,0,.02.1.1.16.19.15.09-.01.16-.1.15-.19Z"/>
        <path class="cls-4-2-6" d="m64.51,29.12l-1.21-.98-.1.7,1.06.61c.09.07.22.05.29-.04.07-.09.05-.22-.04-.29Z"/>
      </g>
    </g>
    <g>
      <path class="cls-4-2-6" d="m65.47,202.12c0,.24-.19.43-.43.43s-.43-.19-.43-.43.19-.43.43-.43.43.19.43.43Z"/>
      <polygon class="cls-4-2-6" points="67.6 206.76 66.07 206.76 66.07 207.31 64.69 207.31 64.69 207.85 63.35 207.85 63.35 208.4 62.01 208.4 62.01 208.94 60.67 208.94 60.67 209.49 59.82 209.49 59.82 210.19 61.45 210.19 61.45 209.62 62.77 209.62 62.77 209.08 64.11 209.08 64.11 208.53 65.45 208.53 65.45 207.99 66.79 207.99 66.79 207.46 67.6 207.46 67.6 206.76"/>
      <path class="cls-4-2-6" d="m65.56,204.77c-.32-.21-.63-.41-.67-.44.11-.54.21-1.03.26-1.33,0,0,.04-.27-.17-.31-.3-.06-.72.17-1.2.53-.05.04-.13.1-.16.21-.03.1-.14.69-.2.94-.02.09.03.19.13.21.09.02.18-.03.21-.13.07-.21.2-.65.22-.68.02-.04.21-.19.21-.19l-.36,3.66c0,.11.09.19.19.21.12.01.22-.08.24-.2,0,0,.24-1.06.47-2.15l.41.19-.21,1.06c-.03.1.02.21.12.25.1.03.21-.02.25-.12,0,0,.37-.9.42-1.06.05-.17.18-.43-.15-.64Z"/>
      <g>
        <path class="cls-4-2-6" d="m61.79,203.34c0,.24-.19.43-.43.43s-.43-.19-.43-.43.19-.43.43-.43.43.19.43.43Z"/>
        <path class="cls-4-2-6" d="m62.76,205.8s-.06-.47-.12-.76c-.02-.07-.04-.13-.09-.22-.17-.29-.41-.63-.63-.75-.35-.18-.69-.08-.86.2-.17.3-.39.78-1,1.18-.08.05-.14.12-.11.21.03.09.12.14.21.11.01,0,.02,0,.03-.01.13-.06.65-.3.83-.59l-.15,3.28c-.01.12.07.23.19.25.12.01.22-.08.24-.2l.68-3.63s.22.18.27.33c.04.1.11.39.16.65,0,0,0,0,0,0,.02.1.1.16.19.15.09-.01.16-.1.15-.19Z"/>
        <path class="cls-4-2-6" d="m62.84,207.31l-1.21-.98-.1.7,1.06.61c.09.07.22.05.29-.04.07-.09.05-.22-.04-.29Z"/>
      </g>
    </g>
    <g>
      <g>
        <path class="cls-4-2-6" d="m63.16,181.55c0,.2-.16.35-.35.35s-.35-.16-.35-.35.16-.35.35-.35.35.16.35.35Z"/>
        <path class="cls-4-2-6" d="m62.81,181.99c-.25,0-.84.02-.84.51v1.17c0,.08.06.14.13.14.08,0,.14-.06.14-.13l.07-.71.07,2.64c0,.1.08.18.18.18s.18-.08.18-.18l.07-1.62.07,1.62c0,.1.08.18.18.18s.18-.08.18-.18l.07-2.64.07.71c0,.08.07.13.14.13.08,0,.13-.07.13-.14v-1.17c0-.49-.59-.51-.84-.51Z"/>
      </g>
      <g>
        <path class="cls-4-2-6" d="m65.32,181.55c0,.2-.16.35-.35.35s-.35-.16-.35-.35.16-.35.35-.35.35.16.35.35Z"/>
        <path class="cls-4-2-6" d="m64.97,181.99c-.25,0-.84.02-.84.51v1.17c0,.08.06.14.13.14.08,0,.14-.06.14-.13l.07-.71.07,2.64c0,.1.08.18.18.18s.18-.08.18-.18l.07-1.62.07,1.62c0,.1.08.18.18.18s.18-.08.18-.18l.07-2.64.07.71c0,.08.07.13.14.13.08,0,.13-.07.13-.14v-1.17c0-.49-.59-.51-.84-.51Z"/>
      </g>
      <path class="cls-4-2-6" d="m66.21,186.05h-4.64c-.36,0-.65-.29-.65-.65v-4.97c0-.36.29-.65.65-.65h4.64c.36,0,.65.29.65.65v4.97c0,.36-.29.65-.65.65Zm-4.64-5.86c-.13,0-.24.11-.24.24v4.97c0,.13.11.24.24.24h4.64c.13,0,.24-.11.24-.24v-4.97c0-.13-.11-.24-.24-.24h-4.64Z"/>
      <path class="cls-4-2-6" d="m65.98,178.46l-.79-.79h0s-.13-.13-.13-.13l-.13.13h0s-.79.79-.79.79c-.07.07-.07.18,0,.25.07.07.18.07.25,0l.49-.49v1.09c0,.1.08.18.18.18s.18-.08.18-.18v-1.09s.49.49.49.49c.04.04.08.05.13.05s.09-.02.13-.05c.07-.07.07-.18,0-.25Z"/>
      <path class="cls-4-2-6" d="m63.72,178.4c-.07-.07-.18-.07-.25,0l-.49.49v-1.09c0-.1-.08-.18-.18-.18s-.18.08-.18.18v1.09s-.49-.49-.49-.49c-.07-.07-.18-.07-.25,0-.07.07-.07.18,0,.25l.79.79h0s.13.13.13.13l.13-.13h0s.79-.79.79-.79c.07-.07.07-.18,0-.25Z"/>
    </g>
    <g>
      <g>
        <path class="cls-4-2-6" d="m66.36,62.81c0,.2-.16.35-.35.35s-.35-.16-.35-.35.16-.35.35-.35.35.16.35.35Z"/>
        <path class="cls-4-2-6" d="m66,63.25c-.25,0-.84.02-.84.51v1.17c0,.08.06.14.13.14.08,0,.14-.06.14-.13l.07-.71.07,2.64c0,.1.08.18.18.18s.18-.08.18-.18l.07-1.62.07,1.62c0,.1.08.18.18.18s.18-.08.18-.18l.07-2.64.07.71c0,.08.07.13.14.13.08,0,.13-.07.13-.14v-1.17c0-.49-.59-.51-.84-.51Z"/>
      </g>
      <g>
        <path class="cls-4-2-6" d="m68.52,62.81c0,.2-.16.35-.35.35s-.35-.16-.35-.35.16-.35.35-.35.35.16.35.35Z"/>
        <path class="cls-4-2-6" d="m68.16,63.25c-.25,0-.84.02-.84.51v1.17c0,.08.06.14.13.14.08,0,.14-.06.14-.13l.07-.71.07,2.64c0,.1.08.18.18.18s.18-.08.18-.18l.07-1.62.07,1.62c0,.1.08.18.18.18s.18-.08.18-.18l.07-2.64.07.71c0,.08.07.13.14.13.08,0,.13-.07.13-.14v-1.17c0-.49-.59-.51-.84-.51Z"/>
      </g>
      <path class="cls-4-2-6" d="m69.4,67.31h-4.64c-.36,0-.65-.29-.65-.65v-4.97c0-.36.29-.65.65-.65h4.64c.36,0,.65.29.65.65v4.97c0,.36-.29.65-.65.65Zm-4.64-5.86c-.13,0-.24.11-.24.24v4.97c0,.13.11.24.24.24h4.64c.13,0,.24-.11.24-.24v-4.97c0-.13-.11-.24-.24-.24h-4.64Z"/>
      <path class="cls-4-2-6" d="m69.17,59.73l-.79-.79h0s-.13-.13-.13-.13l-.13.13h0s-.79.79-.79.79c-.07.07-.07.18,0,.25.07.07.18.07.25,0l.49-.49v1.09c0,.1.08.18.18.18s.18-.08.18-.18v-1.09s.49.49.49.49c.04.04.08.05.13.05s.09-.02.13-.05c.07-.07.07-.18,0-.25Z"/>
      <path class="cls-4-2-6" d="m66.92,59.67c-.07-.07-.18-.07-.25,0l-.49.49v-1.09c0-.1-.08-.18-.18-.18s-.18.08-.18.18v1.09s-.49-.49-.49-.49c-.07-.07-.18-.07-.25,0-.07.07-.07.18,0,.25l.79.79h0s.13.13.13.13l.13-.13h0s.79-.79.79-.79c.07-.07.07-.18,0-.25Z"/>
    </g>
    <g>
      <path class="cls-5-2-6" d="m32.44,103.84c0,.48-.39.87-.87.87s-.87-.39-.87-.87.39-.87.87-.87.87.39.87.87Z"/>
      <path class="cls-5-2-6" d="m31.57,104.98c-.62,0-2.07.06-2.07,1.26v2.86c0,.19.14.35.32.35.19,0,.35-.14.35-.32l.16-1.74.17,6.47c0,.24.2.44.44.44s.44-.2.44-.44l.18-3.98.18,3.98c0,.24.2.44.44.44s.44-.2.44-.44l.17-6.47.16,1.74c0,.19.17.33.35.32s.33-.17.32-.35v-2.86c0-1.2-1.45-1.26-2.07-1.26Z"/>
    </g>
    <g>
      <path class="cls-7-2-6" d="m31.57,123.78c.48,0,.87-.39.87-.87s-.39-.87-.87-.87-.87.39-.87.87.39.87.87.87Z"/>
      <path class="cls-7-2-6" d="m34.06,127.95l-.69-2.52c-.28-1.16-1.19-1.34-1.8-1.34s-1.52.17-1.8,1.34l-.69,2.52c-.07.17.02.37.19.44.17.07.37-.02.44-.19l.68-1.92.17.88-.85,2.69h1.25s.07.84.07.84l.1,2.27c0,.24.2.44.44.44s.44-.2.44-.44l.1-2.27.07-.84h1.25s-.85-2.69-.85-2.69l.17-.88.68,1.92c.07.17.26.26.44.19.17-.07.26-.26.19-.44Z"/>
    </g>
    <rect class="cls-4-2-6" x="79.28" y="143.29" width=".07" height=".07" transform="translate(222.64 64) rotate(90)"/>
    <g>
      <rect class="cls-6-2-6" x="74.01" y="111.02" width="11.34" height="11.34"/>
      <g>
        <path class="cls-4-2-6" d="m83.79,120.47v-1.83s0,0,0,0v-.29s-.29,0-.29,0c0,0,0,0,0,0h-1.83c-.16,0-.29.13-.29.29s.13.29.29.29h1.12s-1.26,1.26-1.26,1.26c-.11.11-.11.3,0,.42.11.11.3.11.42,0l1.26-1.26v1.12c0,.08.03.15.09.21.05.05.13.09.21.09.16,0,.29-.13.29-.29Z"/>
        <g>
          <path class="cls-4-2-6" d="m83.37,113.72h-1.74c-.14,0-.34.08-.44.18l-4.11,4.1c-.1.1-.3.18-.44.18h-.64c-.69,0-1.26.56-1.26,1.26s.56,1.26,1.26,1.26h1.74c.14,0,.34-.08.44-.18l4.11-4.1c.1-.1.3-.18.44-.18h.64c.69,0,1.26-.56,1.26-1.26s-.56-1.26-1.26-1.26Zm0,1.95h-1.14s-4.48,4.46-4.48,4.46h-1.76c-.38,0-.69-.31-.69-.69s.31-.69.69-.69h1.14s4.48-4.46,4.48-4.46h1.76c.38,0,.69.31.69.69s-.31.69-.69.69Z"/>
          <path class="cls-4-2-6" d="m79.42,113.13c0,.29-.23.52-.52.52s-.52-.23-.52-.52.23-.52.52-.52.52.23.52.52Z"/>
          <path class="cls-4-2-6" d="m79.77,114.66c.1-.8-.48-.87-.84-.87s-.94.07-.84.87c.09.75.18,2.13.19,2.26l1.4-1.32c.03-.34.06-.67.09-.93Z"/>
        </g>
      </g>
    </g>
    <g>
      <rect class="cls-6-2-6" x="63.02" y="111.02" width="11.34" height="11.34"/>
      <g>
        <path class="cls-4-2-6" d="m70.54,118.52v1.83s0,0,0,0v.29s.29,0,.29,0c0,0,0,0,0,0h1.83c.16,0,.29-.13.29-.29s-.13-.29-.29-.29h-1.12s1.26-1.26,1.26-1.26c.11-.11.11-.3,0-.42-.11-.11-.3-.11-.42,0l-1.26,1.26v-1.12c0-.08-.03-.15-.09-.21-.05-.05-.13-.09-.21-.09-.16,0-.29.13-.29.29Z"/>
        <g>
          <path class="cls-4-2-6" d="m72.38,113.75h-1.74c-.14,0-.34.08-.44.18l-4.11,4.1c-.1.1-.3.18-.44.18h-.64c-.69,0-1.26.56-1.26,1.26s.56,1.26,1.26,1.26h1.74c.14,0,.34-.08.44-.18l4.11-4.1c.1-.1.3-.18.44-.18h.64c.69,0,1.26-.56,1.26-1.26s-.56-1.26-1.26-1.26Zm0,1.95h-1.14s-4.48,4.46-4.48,4.46h-1.76c-.38,0-.69-.31-.69-.69s.31-.69.69-.69h1.14s4.48-4.46,4.48-4.46h1.76c.38,0,.69.31.69.69s-.31.69-.69.69Z"/>
          <path class="cls-4-2-6" d="m68.43,113.16c0,.29-.23.52-.52.52s-.52-.23-.52-.52.23-.52.52-.52.52.23.52.52Z"/>
          <path class="cls-4-2-6" d="m68.78,114.69c.1-.8-.48-.87-.84-.87s-.94.07-.84.87c.09.75.18,2.13.19,2.26l1.4-1.32c.03-.34.06-.67.09-.93Z"/>
        </g>
      </g>
    </g>
  </g>
</svg>