<?xml version="1.0" encoding="UTF-8"?>
<svg xmlns="http://www.w3.org/2000/svg" viewBox="0 0 146 235">
  <defs>
    <style>
      .cls-1-2-9 {
        fill: none;
      }

      .cls-1-2-9, .cls-2-2-9 {
        stroke: #231815;
        stroke-miterlimit: 10;
      }

      .cls-3-2-9, .cls-4-2-9, .cls-5-2-9, .cls-6-2-9, .cls-7-2-9, .cls-8-2-9 {
        stroke-width: 0px;
      }

      .cls-3-2-9, .cls-2-2-9, .cls-9-2-9 {
        fill: #231815;
      }

      .cls-10-2-9, .cls-11-2-9, .cls-9-2-9 {
        font-family: KozGoPr6N-Regular-90ms-RKSJ-H, 'Kozuka Gothic Pr6N';
        font-size: 7px;
      }

      .cls-4-2-9 {
        opacity: .2;
      }

      .cls-4-2-9, .cls-8-2-9 {
        fill: #7a1a24;
      }

      .cls-5-2-9 {
        fill: #2d3e6a;
      }

      .cls-6-2-9, .cls-11-2-9 {
        fill: #fff;
      }

      .cls-7-2-9 {
        fill: #ba1f21;
      }
    </style>
  </defs>
  <g id="_2905" data-name="2905">
    <rect class="cls-8-2-9" x="-11.11" y="16.39" width="80.01" height="51.85" transform="translate(71.21 13.42) rotate(90)"/>
    <text class="cls-11-2-9" transform="translate(14.89 44.21)"><tspan x="0" y="0">２９０５</tspan></text>
  </g>
  <g id="_2904" data-name="2904">
    <rect class="cls-8-2-9" x="-11.91" y="165.23" width="81.62" height="51.87" transform="translate(220.07 162.27) rotate(90)"/>
    <text class="cls-11-2-9" transform="translate(14.9 193.06)"><tspan x="0" y="0">２９０４</tspan></text>
  </g>
  <g id="_2903" data-name="2903">
    <rect class="cls-4-2-9" x="85.15" y="91.88" width="66.32" height="52.16" transform="translate(236.26 -.35) rotate(90)"/>
  </g>
  <g id="_2901" data-name="2901">
    <rect class="cls-4-2-9" x="77.77" y="17.08" width="81.7" height="52.16" transform="translate(161.78 -75.45) rotate(90)"/>
    <text class="cls-9-2-9" transform="translate(104.62 45.06)"><tspan x="0" y="0">２９０１</tspan></text>
  </g>
  <g id="_レイヤー_1" data-name="レイヤー 1">
    <polyline class="cls-4-2-9" points="144.39 150.42 144.39 232.04 92.23 232.04 92.23 150.42 144.39 150.42"/>
    <polyline class="cls-1-2-9" points="29.78 2.44 144.39 2.44 144.39 232.04 3.21 232.04 3.21 2.44 29.78 2.44"/>
    <line class="cls-1-2-9" x1="92.23" y1="10.34" x2="92.23" y2="77.03"/>
    <polyline class="cls-1-2-9" points="92.23 82.47 92.23 84.14 144.39 84.14 144.39 2.44 92.23 2.44 92.23 4.98"/>
    <line class="cls-1-2-9" x1="92.23" y1="116.7" x2="92.23" y2="119.48"/>
    <polyline class="cls-1-2-9" points="92.23 229.75 92.23 232.04 144.39 232.04 144.39 116.7"/>
    <line class="cls-1-2-9" x1="92.23" y1="156.77" x2="92.23" y2="223.71"/>
    <line class="cls-1-2-9" x1="92.23" y1="125.52" x2="92.23" y2="152.12"/>
    <line class="cls-1-2-9" x1="92.23" y1="107.95" x2="92.23" y2="90.91"/>
    <polyline class="cls-1-2-9" points="92.23 86.68 92.23 84.14 144.39 84.14 144.39 150.42 92.23 150.42 92.23 144.66"/>
    <line class="cls-1-2-9" x1="54.97" y1="222.98" x2="54.97" y2="157.47"/>
    <polyline class="cls-1-2-9" points="2.96 150.44 54.97 150.44 54.97 150.44 54.97 143.72 2.96 143.72 2.96 232.04 54.97 232.04 54.97 228.94"/>
    <line class="cls-1-2-9" x1="54.97" y1="10.14" x2="54.97" y2="76.78"/>
    <polyline class="cls-1-2-9" points="2.96 82.44 54.97 82.48 54.97 89.93 2.96 89.93 2.96 2.44 54.97 2.44 54.97 5.21"/>
    <g>
      <polyline class="cls-1-2-9" points="44.7 98.1 46.6 98.1 46.6 136 44.7 136"/>
      <g>
        <polyline class="cls-1-2-9" points="40.57 136 17.27 136 17.27 98.1 40.57 98.1"/>
        <line class="cls-1-2-9" x1="46.6" y1="120.06" x2="17.27" y2="120.06"/>
      </g>
    </g>
    <rect class="cls-2-2-9" x="38.55" y="112.81" width="35.04" height="5.63" transform="translate(171.7 59.55) rotate(90)"/>
    <polyline class="cls-1-2-9" points="54.97 220.33 76.06 220.33 76.06 218.01 57.92 218.01 57.92 193.31 69.67 193.31 69.67 211.14 76.06 211.14 76.06 188.59 70.87 188.59 70.87 184.68"/>
    <polyline class="cls-1-2-9" points="70.87 188.59 57.92 188.59 57.92 175.72 70.87 175.72 70.87 179.72"/>
    <polyline class="cls-1-2-9" points="70.87 175.72 70.87 171.73 75.1 171.73 75.1 158.3 54.97 158.3"/>
    <polyline class="cls-2-2-9" points="54.97 12.04 76.89 12.04 76.89 16.47 58.14 16.47 58.14 38.78 72.81 38.78 72.81 23.34 76.89 23.34 76.89 45.46 59.73 45.46 59.73 70.42 74.46 70.42 74.46 56.52 76.89 56.52 76.89 75.74 54.97 75.74"/>
    <line class="cls-1-2-9" x1="74.46" y1="56.52" x2="69.77" y2="56.52"/>
    <line class="cls-1-2-9" x1="64.29" y1="56.58" x2="59.73" y2="56.58"/>
    <line class="cls-1-2-9" x1="73.46" y1="92.76" x2="73.46" y2="141.85"/>
    <line class="cls-1-2-9" x1="75.37" y1="92.69" x2="75.37" y2="141.79"/>
    <polyline class="cls-1-2-9" points="81.17 92.5 81.17 95.7 81.17 141.6"/>
    <line class="cls-1-2-9" x1="67.26" y1="92.76" x2="67.26" y2="141.85"/>
    <line class="cls-1-2-9" x1="75.37" y1="95.94" x2="81.17" y2="95.94"/>
    <line class="cls-1-2-9" x1="81.17" y1="138.68" x2="75.37" y2="138.68"/>
    <line class="cls-1-2-9" x1="73.46" y1="138.68" x2="67.26" y2="138.68"/>
    <line class="cls-1-2-9" x1="73.46" y1="95.94" x2="67.26" y2="95.94"/>
    <text class="cls-10-2-9" transform="translate(104.31 193.12)"><tspan x="0" y="0">２９０３</tspan></text>
    <polyline class="cls-2-2-9" points="17.27 132.82 2.96 132.82 2.96 100.94 10.04 100.94 10.04 115.47 17.27 118.65"/>
    <rect class="cls-3-2-9" x="25.24" y="60.2" width="7.45" height="52.01" transform="translate(115.17 57.24) rotate(90)"/>
    <rect class="cls-3-2-9" x="25.84" y="121.09" width="6.74" height="52.01" transform="translate(176.3 117.88) rotate(90)"/>
    <polygon class="cls-3-2-9" points="76.06 218.01 57.92 218.01 57.92 193.31 69.67 193.31 69.67 211.14 76.06 211.14 76.06 193.31 76.06 190.22 76.06 188.59 57.92 188.59 57.92 175.72 70.87 175.72 70.87 171.5 75.1 171.5 75.1 158.3 54.97 158.3 54.97 170.65 54.97 171.5 54.97 175.25 54.83 175.25 54.83 220.33 56.38 220.33 57.92 220.33 76.06 220.33 76.06 218.01"/>
    <g>
      <path class="cls-3-2-9" d="m67.5,24.3c0,.24-.19.43-.43.43s-.43-.19-.43-.43.19-.43.43-.43.43.19.43.43Z"/>
      <polygon class="cls-3-2-9" points="69.63 28.94 68.09 28.94 68.09 29.49 66.71 29.49 66.71 30.03 65.38 30.03 65.38 30.58 64.04 30.58 64.04 31.12 62.7 31.12 62.7 31.67 61.85 31.67 61.85 32.37 63.48 32.37 63.48 31.8 64.8 31.8 64.8 31.26 66.14 31.26 66.14 30.71 67.48 30.71 67.48 30.16 68.82 30.16 68.82 29.64 69.63 29.64 69.63 28.94"/>
      <path class="cls-3-2-9" d="m67.59,26.95c-.32-.21-.63-.41-.67-.44.11-.54.21-1.03.26-1.33,0,0,.04-.27-.17-.31-.3-.06-.72.17-1.2.53-.05.04-.13.1-.16.21-.03.1-.14.69-.2.94-.02.09.03.19.13.21.09.02.18-.03.21-.13.07-.21.2-.65.22-.68.02-.04.21-.19.21-.19l-.36,3.66c0,.11.09.19.19.21.12.01.22-.08.24-.2,0,0,.24-1.06.47-2.15l.41.19-.21,1.06c-.03.1.02.21.12.25.1.03.21-.02.25-.12,0,0,.37-.9.42-1.06.05-.17.18-.43-.15-.64Z"/>
      <g>
        <path class="cls-3-2-9" d="m63.82,25.52c0,.24-.19.43-.43.43s-.43-.19-.43-.43.19-.43.43-.43.43.19.43.43Z"/>
        <path class="cls-3-2-9" d="m64.79,27.98s-.06-.47-.12-.76c-.02-.07-.04-.13-.09-.22-.17-.29-.41-.63-.63-.75-.35-.18-.69-.08-.86.2-.17.3-.39.78-1,1.18-.08.05-.14.12-.11.21.03.09.12.14.21.11.01,0,.02,0,.03-.01.13-.06.65-.3.83-.59l-.15,3.28c-.01.12.07.23.19.25.12.01.22-.08.24-.2l.68-3.63s.22.18.27.33c.04.1.11.39.16.65,0,0,0,0,0,0,.02.1.1.16.19.15.09-.01.16-.1.15-.19Z"/>
        <path class="cls-3-2-9" d="m64.87,29.49l-1.21-.98-.1.7,1.06.61c.09.07.22.05.29-.04.07-.09.05-.22-.04-.29Z"/>
      </g>
    </g>
    <g>
      <path class="cls-3-2-9" d="m65.83,202.49c0,.24-.19.43-.43.43s-.43-.19-.43-.43.19-.43.43-.43.43.19.43.43Z"/>
      <polygon class="cls-3-2-9" points="67.96 207.12 66.43 207.12 66.43 207.67 65.05 207.67 65.05 208.22 63.71 208.22 63.71 208.76 62.37 208.76 62.37 209.31 61.03 209.31 61.03 209.86 60.18 209.86 60.18 210.56 61.81 210.56 61.81 209.99 63.13 209.99 63.13 209.44 64.47 209.44 64.47 208.89 65.81 208.89 65.81 208.35 67.15 208.35 67.15 207.82 67.96 207.82 67.96 207.12"/>
      <path class="cls-3-2-9" d="m65.92,205.13c-.32-.21-.63-.41-.67-.44.11-.54.21-1.03.26-1.33,0,0,.04-.27-.17-.31-.3-.06-.72.17-1.2.53-.05.04-.13.1-.16.21-.03.1-.14.69-.2.94-.02.09.03.19.13.21.09.02.18-.03.21-.13.07-.21.2-.65.22-.68.02-.04.21-.19.21-.19l-.36,3.66c0,.11.09.19.19.21.12.01.22-.08.24-.2,0,0,.24-1.06.47-2.15l.41.19-.21,1.06c-.03.1.02.21.12.25.1.03.21-.02.25-.12,0,0,.37-.9.42-1.06.05-.17.18-.43-.15-.64Z"/>
      <g>
        <path class="cls-3-2-9" d="m62.15,203.7c0,.24-.19.43-.43.43s-.43-.19-.43-.43.19-.43.43-.43.43.19.43.43Z"/>
        <path class="cls-3-2-9" d="m63.12,206.16s-.06-.47-.12-.76c-.02-.07-.04-.13-.09-.22-.17-.29-.41-.63-.63-.75-.35-.18-.69-.08-.86.2-.17.3-.39.78-1,1.18-.08.05-.14.12-.11.21.03.09.12.14.21.11.01,0,.02,0,.03-.01.13-.06.65-.3.83-.59l-.15,3.28c-.01.12.07.23.19.25.12.01.22-.08.24-.2l.68-3.63s.22.18.27.33c.04.1.11.39.16.65,0,0,0,0,0,0,.02.1.1.16.19.15.09-.01.16-.1.15-.19Z"/>
        <path class="cls-3-2-9" d="m63.2,207.67l-1.21-.98-.1.7,1.06.61c.09.07.22.05.29-.04.07-.09.05-.22-.04-.29Z"/>
      </g>
    </g>
    <g>
      <g>
        <path class="cls-3-2-9" d="m63.52,181.91c0,.2-.16.35-.35.35s-.35-.16-.35-.35.16-.35.35-.35.35.16.35.35Z"/>
        <path class="cls-3-2-9" d="m63.17,182.35c-.25,0-.84.02-.84.51v1.17c0,.08.06.14.13.14.08,0,.14-.06.14-.13l.07-.71.07,2.64c0,.1.08.18.18.18s.18-.08.18-.18l.07-1.62.07,1.62c0,.1.08.18.18.18s.18-.08.18-.18l.07-2.64.07.71c0,.08.07.13.14.13.08,0,.13-.07.13-.14v-1.17c0-.49-.59-.51-.84-.51Z"/>
      </g>
      <g>
        <path class="cls-3-2-9" d="m65.68,181.91c0,.2-.16.35-.35.35s-.35-.16-.35-.35.16-.35.35-.35.35.16.35.35Z"/>
        <path class="cls-3-2-9" d="m65.33,182.35c-.25,0-.84.02-.84.51v1.17c0,.08.06.14.13.14.08,0,.14-.06.14-.13l.07-.71.07,2.64c0,.1.08.18.18.18s.18-.08.18-.18l.07-1.62.07,1.62c0,.1.08.18.18.18s.18-.08.18-.18l.07-2.64.07.71c0,.08.07.13.14.13.08,0,.13-.07.13-.14v-1.17c0-.49-.59-.51-.84-.51Z"/>
      </g>
      <path class="cls-3-2-9" d="m66.57,186.41h-4.64c-.36,0-.65-.29-.65-.65v-4.97c0-.36.29-.65.65-.65h4.64c.36,0,.65.29.65.65v4.97c0,.36-.29.65-.65.65Zm-4.64-5.86c-.13,0-.24.11-.24.24v4.97c0,.13.11.24.24.24h4.64c.13,0,.24-.11.24-.24v-4.97c0-.13-.11-.24-.24-.24h-4.64Z"/>
      <path class="cls-3-2-9" d="m66.34,178.83l-.79-.79h0s-.13-.13-.13-.13l-.13.13h0s-.79.79-.79.79c-.07.07-.07.18,0,.25.07.07.18.07.25,0l.49-.49v1.09c0,.1.08.18.18.18s.18-.08.18-.18v-1.09s.49.49.49.49c.04.04.08.05.13.05s.09-.02.13-.05c.07-.07.07-.18,0-.25Z"/>
      <path class="cls-3-2-9" d="m64.08,178.77c-.07-.07-.18-.07-.25,0l-.49.49v-1.09c0-.1-.08-.18-.18-.18s-.18.08-.18.18v1.09s-.49-.49-.49-.49c-.07-.07-.18-.07-.25,0-.07.07-.07.18,0,.25l.79.79h0s.13.13.13.13l.13-.13h0s.79-.79.79-.79c.07-.07.07-.18,0-.25Z"/>
    </g>
    <g>
      <g>
        <path class="cls-3-2-9" d="m66.72,63.18c0,.2-.16.35-.35.35s-.35-.16-.35-.35.16-.35.35-.35.35.16.35.35Z"/>
        <path class="cls-3-2-9" d="m66.36,63.62c-.25,0-.84.02-.84.51v1.17c0,.08.06.14.13.14.08,0,.14-.06.14-.13l.07-.71.07,2.64c0,.1.08.18.18.18s.18-.08.18-.18l.07-1.62.07,1.62c0,.1.08.18.18.18s.18-.08.18-.18l.07-2.64.07.71c0,.08.07.13.14.13.08,0,.13-.07.13-.14v-1.17c0-.49-.59-.51-.84-.51Z"/>
      </g>
      <g>
        <path class="cls-3-2-9" d="m68.88,63.18c0,.2-.16.35-.35.35s-.35-.16-.35-.35.16-.35.35-.35.35.16.35.35Z"/>
        <path class="cls-3-2-9" d="m68.52,63.62c-.25,0-.84.02-.84.51v1.17c0,.08.06.14.13.14.08,0,.14-.06.14-.13l.07-.71.07,2.64c0,.1.08.18.18.18s.18-.08.18-.18l.07-1.62.07,1.62c0,.1.08.18.18.18s.18-.08.18-.18l.07-2.64.07.71c0,.08.07.13.14.13.08,0,.13-.07.13-.14v-1.17c0-.49-.59-.51-.84-.51Z"/>
      </g>
      <path class="cls-3-2-9" d="m69.76,67.67h-4.64c-.36,0-.65-.29-.65-.65v-4.97c0-.36.29-.65.65-.65h4.64c.36,0,.65.29.65.65v4.97c0,.36-.29.65-.65.65Zm-4.64-5.86c-.13,0-.24.11-.24.24v4.97c0,.13.11.24.24.24h4.64c.13,0,.24-.11.24-.24v-4.97c0-.13-.11-.24-.24-.24h-4.64Z"/>
      <path class="cls-3-2-9" d="m69.53,60.09l-.79-.79h0s-.13-.13-.13-.13l-.13.13h0s-.79.79-.79.79c-.07.07-.07.18,0,.25.07.07.18.07.25,0l.49-.49v1.09c0,.1.08.18.18.18s.18-.08.18-.18v-1.09s.49.49.49.49c.04.04.08.05.13.05s.09-.02.13-.05c.07-.07.07-.18,0-.25Z"/>
      <path class="cls-3-2-9" d="m67.28,60.03c-.07-.07-.18-.07-.25,0l-.49.49v-1.09c0-.1-.08-.18-.18-.18s-.18.08-.18.18v1.09s-.49-.49-.49-.49c-.07-.07-.18-.07-.25,0-.07.07-.07.18,0,.25l.79.79h0s.13.13.13.13l.13-.13h0s.79-.79.79-.79c.07-.07.07-.18,0-.25Z"/>
    </g>
    <g>
      <path class="cls-5-2-9" d="m32.8,104.2c0,.48-.39.87-.87.87s-.87-.39-.87-.87.39-.87.87-.87.87.39.87.87Z"/>
      <path class="cls-5-2-9" d="m31.93,105.35c-.62,0-2.07.06-2.07,1.26v2.86c0,.19.14.35.32.35.19,0,.35-.14.35-.32l.16-1.74.17,6.47c0,.24.2.44.44.44s.44-.2.44-.44l.18-3.98.18,3.98c0,.24.2.44.44.44s.44-.2.44-.44l.17-6.47.16,1.74c0,.19.17.33.35.32s.33-.17.32-.35v-2.86c0-1.2-1.45-1.26-2.07-1.26Z"/>
    </g>
    <g>
      <path class="cls-7-2-9" d="m31.93,124.14c.48,0,.87-.39.87-.87s-.39-.87-.87-.87-.87.39-.87.87.39.87.87.87Z"/>
      <path class="cls-7-2-9" d="m34.42,128.31l-.69-2.52c-.28-1.16-1.19-1.34-1.8-1.34s-1.52.17-1.8,1.34l-.69,2.52c-.07.17.02.37.19.44.17.07.37-.02.44-.19l.68-1.92.17.88-.85,2.69h1.25s.07.84.07.84l.1,2.27c0,.24.2.44.44.44s.44-.2.44-.44l.1-2.27.07-.84h1.25s-.85-2.69-.85-2.69l.17-.88.68,1.92c.07.17.26.26.44.19.17-.07.26-.26.19-.44Z"/>
    </g>
    <rect class="cls-3-2-9" x="79.64" y="143.65" width=".07" height=".07" transform="translate(223.36 64.01) rotate(90)"/>
    <g>
      <g>
        <rect class="cls-6-2-9" x="74.08" y="111.38" width="11.34" height="11.34"/>
        <g>
          <path class="cls-3-2-9" d="m83.86,120.83v-1.83s0,0,0,0v-.29s-.29,0-.29,0c0,0,0,0,0,0h-1.83c-.16,0-.29.13-.29.29s.13.29.29.29h1.12s-1.26,1.26-1.26,1.26c-.11.11-.11.3,0,.42.11.11.3.11.42,0l1.26-1.26v1.12c0,.08.03.15.09.21.05.05.13.09.21.09.16,0,.29-.13.29-.29Z"/>
          <g>
            <path class="cls-3-2-9" d="m83.44,114.08h-1.74c-.14,0-.34.08-.44.18l-4.11,4.1c-.1.1-.3.18-.44.18h-.64c-.69,0-1.26.56-1.26,1.26s.56,1.26,1.26,1.26h1.74c.14,0,.34-.08.44-.18l4.11-4.1c.1-.1.3-.18.44-.18h.64c.69,0,1.26-.56,1.26-1.26s-.56-1.26-1.26-1.26Zm0,1.95h-1.14s-4.48,4.46-4.48,4.46h-1.76c-.38,0-.69-.31-.69-.69s.31-.69.69-.69h1.14s4.48-4.46,4.48-4.46h1.76c.38,0,.69.31.69.69s-.31.69-.69.69Z"/>
            <path class="cls-3-2-9" d="m79.49,113.49c0,.29-.23.52-.52.52s-.52-.23-.52-.52.23-.52.52-.52.52.23.52.52Z"/>
            <path class="cls-3-2-9" d="m79.84,115.02c.1-.8-.48-.87-.84-.87s-.94.07-.84.87c.09.75.18,2.13.19,2.26l1.4-1.32c.03-.34.06-.67.09-.93Z"/>
          </g>
        </g>
      </g>
      <g>
        <rect class="cls-6-2-9" x="62.86" y="111.38" width="11.34" height="11.34"/>
        <g>
          <path class="cls-3-2-9" d="m70.38,118.88v1.83s0,0,0,0v.29s.29,0,.29,0c0,0,0,0,0,0h1.83c.16,0,.29-.13.29-.29s-.13-.29-.29-.29h-1.12s1.26-1.26,1.26-1.26c.11-.11.11-.3,0-.42-.11-.11-.3-.11-.42,0l-1.26,1.26v-1.12c0-.08-.03-.15-.09-.21-.05-.05-.13-.09-.21-.09-.16,0-.29.13-.29.29Z"/>
          <g>
            <path class="cls-3-2-9" d="m72.22,114.11h-1.74c-.14,0-.34.08-.44.18l-4.11,4.1c-.1.1-.3.18-.44.18h-.64c-.69,0-1.26.56-1.26,1.26s.56,1.26,1.26,1.26h1.74c.14,0,.34-.08.44-.18l4.11-4.1c.1-.1.3-.18.44-.18h.64c.69,0,1.26-.56,1.26-1.26s-.56-1.26-1.26-1.26Zm0,1.95h-1.14s-4.48,4.46-4.48,4.46h-1.76c-.38,0-.69-.31-.69-.69s.31-.69.69-.69h1.14s4.48-4.46,4.48-4.46h1.76c.38,0,.69.31.69.69s-.31.69-.69.69Z"/>
            <path class="cls-3-2-9" d="m68.27,113.53c0,.29-.23.52-.52.52s-.52-.23-.52-.52.23-.52.52-.52.52.23.52.52Z"/>
            <path class="cls-3-2-9" d="m68.62,115.06c.1-.8-.48-.87-.84-.87s-.94.07-.84.87c.09.75.18,2.13.19,2.26l1.4-1.32c.03-.34.06-.67.09-.93Z"/>
          </g>
        </g>
      </g>
    </g>
  </g>
</svg>