<?xml version="1.0" encoding="UTF-8"?>
<svg xmlns="http://www.w3.org/2000/svg" viewBox="0 0 337 328">
  <defs>
    <style>
      .cls-1 {
        font-size: 18px;
      }

      .cls-1, .cls-2 {
        fill: #fff;
      }

      .cls-1, .cls-2, .cls-3 {
        font-family: KozGoPr6N-Regular-90ms-RKSJ-H, 'Kozuka Gothic Pr6N';
      }

      .cls-4, .cls-5 {
        stroke-width: 0px;
      }

      .cls-4, .cls-3 {
        fill: #231815;
      }

      .cls-4, .cls-6, .cls-7 {
        stroke-miterlimit: 10;
      }

      .cls-4, .cls-8, .cls-9 {
        stroke-linecap: round;
      }

      .cls-4, .cls-9 {
        stroke: #000;
      }

      .cls-5, .cls-6, .cls-8, .cls-9 {
        fill: none;
      }

      .cls-2 {
        font-size: 12px;
        glyph-orientation-vertical: 0deg;
        text-orientation: upright;
        writing-mode: tb;
      }

      .cls-3 {
        font-size: 24px;
      }

      .cls-6, .cls-7 {
        stroke-width: .85px;
      }

      .cls-6, .cls-7, .cls-8 {
        stroke: #231815;
      }

      .cls-7 {
        fill: #7a1a24;
      }

      .cls-8, .cls-9 {
        stroke-linejoin: round;
        stroke-width: .72px;
      }
    </style>
  </defs>
  <g id="_レイヤー_1" data-name="レイヤー 1">
    <line class="cls-8" x1="238.58" y1="54.89" x2="185.38" y2="54.89"/>
    <line class="cls-8" x1="224.8" y1="64.64" x2="185.38" y2="64.64"/>
    <line class="cls-9" x1="238.58" y1="74.3" x2="185.38" y2="74.3"/>
    <line class="cls-8" x1="187.48" y1="64.64" x2="187.48" y2="74.3"/>
    <line class="cls-8" x1="185.38" y1="54.89" x2="185.38" y2="74.3"/>
    <line class="cls-8" x1="189.5" y1="64.64" x2="189.5" y2="74.3"/>
    <line class="cls-8" x1="191.61" y1="64.64" x2="191.61" y2="74.3"/>
    <line class="cls-8" x1="193.72" y1="64.64" x2="193.72" y2="74.3"/>
    <line class="cls-8" x1="195.74" y1="64.64" x2="195.74" y2="74.3"/>
    <line class="cls-8" x1="197.84" y1="64.64" x2="197.84" y2="74.3"/>
    <line class="cls-8" x1="199.86" y1="64.64" x2="199.86" y2="74.3"/>
    <line class="cls-8" x1="201.97" y1="64.64" x2="201.97" y2="74.3"/>
    <line class="cls-8" x1="204.08" y1="64.64" x2="204.08" y2="74.3"/>
    <line class="cls-8" x1="206.1" y1="64.64" x2="206.1" y2="74.3"/>
    <line class="cls-8" x1="208.21" y1="64.64" x2="208.21" y2="74.3"/>
    <line class="cls-8" x1="210.22" y1="54.89" x2="210.22" y2="74.3"/>
    <line class="cls-8" x1="212.33" y1="54.89" x2="212.33" y2="74.3"/>
    <line class="cls-8" x1="214.44" y1="54.89" x2="214.44" y2="74.3"/>
    <line class="cls-8" x1="216.46" y1="54.89" x2="216.46" y2="74.3"/>
    <line class="cls-8" x1="218.57" y1="54.89" x2="218.57" y2="74.3"/>
    <line class="cls-8" x1="220.67" y1="54.89" x2="220.67" y2="74.3"/>
    <line class="cls-8" x1="222.69" y1="54.89" x2="222.69" y2="74.3"/>
    <line class="cls-8" x1="224.8" y1="54.89" x2="224.8" y2="74.3"/>
    <line class="cls-8" x1="238.58" y1="54.89" x2="238.58" y2="74.3"/>
    <polyline class="cls-8" points="185.38 69.47 231.74 69.47 231.74 59.81 210.22 59.81 216.46 63.41"/>
    <line class="cls-8" x1="216.46" y1="56.12" x2="210.22" y2="59.81"/>
    <line class="cls-8" x1="120.93" y1="258.42" x2="154.12" y2="258.42"/>
    <line class="cls-8" x1="137.52" y1="268.16" x2="154.12" y2="268.16"/>
    <polyline class="cls-8" points="120.93 258.42 120.93 277.82 154.12 277.82"/>
    <line class="cls-8" x1="137.52" y1="258.42" x2="137.52" y2="277.82"/>
    <line class="cls-8" x1="139.54" y1="258.42" x2="139.54" y2="277.82"/>
    <line class="cls-8" x1="141.65" y1="258.42" x2="141.65" y2="277.82"/>
    <line class="cls-8" x1="143.76" y1="258.42" x2="143.76" y2="277.82"/>
    <line class="cls-8" x1="145.78" y1="268.16" x2="145.78" y2="277.82"/>
    <line class="cls-8" x1="147.89" y1="268.16" x2="147.89" y2="277.82"/>
    <line class="cls-8" x1="149.99" y1="268.16" x2="149.99" y2="277.82"/>
    <line class="cls-8" x1="152.01" y1="268.16" x2="152.01" y2="277.82"/>
    <line class="cls-8" x1="154.12" y1="258.42" x2="154.12" y2="277.82"/>
    <line class="cls-8" x1="120.93" y1="277.82" x2="137.52" y2="277.82"/>
    <line class="cls-8" x1="137.52" y1="268.16" x2="137.52" y2="258.42"/>
    <polyline class="cls-8" points="154.12 272.99 129.18 272.99 129.18 263.25 143.76 263.25 139.54 259.73"/>
    <line class="cls-8" x1="143.76" y1="263.25" x2="139.54" y2="266.85"/>
    <line class="cls-8" x1="154.12" y1="258.42" x2="170.71" y2="258.42"/>
    <line class="cls-8" x1="154.12" y1="268.16" x2="170.8" y2="268.08"/>
    <polyline class="cls-5" points="350.44 345.42 350.44 -.44 -94.18 -.44 -94.18 345.42 350.44 345.42"/>
    <polyline class="cls-5" points="350.44 345.42 350.44 -.44 -94.18 -.44 -94.18 345.42 350.44 345.42"/>
    <rect class="cls-6" x="132.59" y="81.79" width="42.52" height="19.84"/>
    <rect class="cls-6" x="132.59" y="50.61" width="42.52" height="19.84"/>
    <rect class="cls-6" x="177.94" y="81.79" width="42.52" height="19.84"/>
    <rect class="cls-6" x="226.13" y="81.79" width="42.52" height="19.84"/>
    <rect class="cls-6" x="98.57" y="297.23" width="19.84" height="19.84"/>
    <rect class="cls-4" x="84.4" y="56.28" width="14.17" height="14.17"/>
    <rect class="cls-4" x="84.4" y="297.23" width="14.17" height="14.17"/>
    <text class="cls-3" transform="translate(49.65 33.61)"><tspan x="0" y="0">キャンパスプラザ</tspan></text>
  </g>
  <g id="_3101" data-name="3101">
    <rect class="cls-7" x="129.75" y="164" width="28.35" height="85.04"/>
    <text class="cls-2" transform="translate(143.93 170.52)"><tspan x="0" y="0">野外ステージ</tspan></text>
  </g>
  <g id="_3100" data-name="3100">
    <rect class="cls-7" x="172.27" y="155.5" width="164.41" height="172.91"/>
    <text class="cls-1" transform="translate(213.52 246.82)"><tspan x="0" y="0">3号館１階</tspan></text>
  </g>
  <g id="_31l" data-name="31l">
    <rect class="cls-7" x="64.71" y="292.64" width="19.84" height="19.84"/>
    <text class="cls-1" transform="translate(70.08 309.43)"><tspan x="0" y="0">L</tspan></text>
  </g>
  <g id="_31k" data-name="31k">
    <rect class="cls-7" x="43.59" y="292.64" width="19.84" height="19.84" transform="translate(356.42 251.05) rotate(90.38)"/>
    <text class="cls-1" transform="translate(48.13 309.39) rotate(.38)"><tspan x="0" y="0">K</tspan></text>
  </g>
  <g id="_31j" data-name="31j">
    <rect class="cls-7" x="11.36" y="258.98" width="19.84" height="19.84"/>
    <text class="cls-1" transform="translate(17.74 274.55)"><tspan x="0" y="0">J</tspan></text>
  </g>
  <g id="_31i" data-name="31i">
    <rect class="cls-7" x="11.36" y="238.36" width="19.84" height="19.84"/>
    <text class="cls-1" transform="translate(18.99 255.37)"><tspan x="0" y="0">I</tspan></text>
  </g>
  <g id="_31h" data-name="31h">
    <rect class="cls-7" x="11.36" y="218.52" width="19.84" height="19.84"/>
    <text class="cls-1" transform="translate(14.98 235.53)"><tspan x="0" y="0">H</tspan></text>
  </g>
  <g id="_31g" data-name="31g">
    <rect class="cls-7" x="11.36" y="197.82" width="19.84" height="19.84"/>
    <text class="cls-1" transform="translate(15.07 214.83)"><tspan x="0" y="0">G</tspan></text>
  </g>
  <g id="_31f" data-name="31f">
    <rect class="cls-7" x="10.64" y="133.98" width="19.84" height="19.84"/>
    <text class="cls-1" transform="translate(15.89 150.98)"><tspan x="0" y="0">F</tspan></text>
  </g>
  <g id="_31e" data-name="31e">
    <rect class="cls-7" x="10.64" y="114.07" width="19.84" height="19.84" transform="translate(-103.43 144.55) rotate(-90)"/>
    <text class="cls-1" transform="translate(15.83 130.89)"><tspan x="0" y="0">E</tspan></text>
  </g>
  <g id="_31d" data-name="31d">
    <rect class="cls-7" x="10.64" y="93.76" width="19.84" height="19.84" transform="translate(-83.13 124.24) rotate(-90)"/>
    <text class="cls-1" transform="translate(14.15 110.6)"><tspan x="0" y="0">D</tspan></text>
  </g>
  <g id="_31c" data-name="31c">
    <rect class="cls-7" x="10.64" y="73.45" width="19.84" height="19.84"/>
    <text class="cls-1" transform="translate(14.97 90.46)"><tspan x="0" y="0">C</tspan></text>
  </g>
  <g id="_31b" data-name="31b">
    <rect class="cls-7" x="43.56" y="51.56" width="19.84" height="19.84"/>
    <text class="cls-1" transform="translate(48.26 68.35)"><tspan x="0" y="0">B</tspan></text>
  </g>
  <g id="_31a" data-name="31a">
    <rect class="cls-7" x="63.57" y="51.56" width="19.84" height="19.84"/>
    <text class="cls-1" transform="translate(67.59 68.35)"><tspan x="0" y="0">A</tspan></text>
  </g>
</svg>