<?xml version="1.0" encoding="UTF-8"?>
<svg xmlns="http://www.w3.org/2000/svg" xmlns:xlink="http://www.w3.org/1999/xlink" viewBox="0 0 334 104">
  <defs>
    <style>
      .cls-1-3-1 {
        fill: #231815;
      }

      .cls-1-3-1, .cls-2-3-1, .cls-3-3-1 {
        stroke: #231815;
        stroke-miterlimit: 10;
        stroke-width: .75px;
      }

      .cls-4-3-1 {
        fill: #dbdcdc;
        font-family: YuGothic-Regular, 'Yu Gothic';
        font-size: 14px;
      }

      .cls-2-3-1 {
        fill: none;
      }

      .cls-3-3-1 {
        fill: #761923;
      }
    </style>
  </defs>
  <g id="_レイヤー_1" data-name="レイヤー 1">
    <g>
      <polyline class="cls-2-3-1" points="305.19 17.73 305.19 13.82 305.19 4.05 241.47 4.05 221.81 4.05 180.29 4.05 90.72 4.05 2.08 4.05 2.08 99.89 90.72 99.89 112.12 99.89 133.72 99.89 179.72 99.89 195.73 99.89 305.19 99.89 305.19 77.59"/>
      <line class="cls-2-3-1" x1="305.19" y1="29.85" x2="305.19" y2="25.47"/>
      <rect class="cls-1-3-1" x="195.74" y="28.22" width="83.61" height="31.25"/>
      <rect class="cls-1-3-1" x="195.73" y="67.67" width="109.46" height="32.22"/>
      <polygon class="cls-1-3-1" points="330.76 43.32 330.76 77.59 305.19 77.59 305.19 59.48 289.96 59.48 289.96 29.85 318.63 29.85 318.63 43.32 330.76 43.32"/>
      <rect class="cls-1-3-1" x="133.73" y="28.22" width="46.56" height="31.25"/>
      <rect class="cls-1-3-1" x="133.73" y="67.67" width="46" height="32.23"/>
      <rect class="cls-1-3-1" x="90.71" y="28.22" width="22.16" height="20.24"/>
      <line class="cls-2-3-1" x1="180.28" y1="28.22" x2="180.28" y2="22.26"/>
      <line class="cls-2-3-1" x1="180.28" y1="16.3" x2="180.28" y2="4.05"/>
      <polyline class="cls-2-3-1" points="120.74 35.37 120.74 41.21 133.73 41.21 133.73 28.22 120.74 28.22 120.74 31.28"/>
      <polyline class="cls-2-3-1" points="133.73 47.72 133.73 59.47 120.74 59.47 120.74 47.72"/>
      <line class="cls-2-3-1" x1="112.87" y1="48.47" x2="112.87" y2="53.6"/>
      <polyline class="cls-2-3-1" points="115.66 59.47 112.11 59.47 112.11 99.9 133.73 99.9 133.73 59.47 120.74 59.47"/>
      <line class="cls-2-3-1" x1="124.11" y1="75.92" x2="104.7" y2="75.92"/>
      <polyline class="cls-2-3-1" points="97.93 75.92 90.71 75.92 90.71 99.9 133.73 99.9 133.73 75.92 128.57 75.92"/>
      <circle class="cls-2-3-1" cx="198.4" cy="8.79" r="2.93"/>
      <polyline class="cls-2-3-1" points="198.4 11.72 198.4 15.9 195.19 15.9 198.4 15.9 201.33 15.9"/>
      <line class="cls-2-3-1" x1="201.33" y1="21.9" x2="195.19" y2="21.9"/>
      <line class="cls-2-3-1" x1="180.28" y1="37.78" x2="183.19" y2="37.78"/>
      <line class="cls-2-3-1" x1="195.74" y1="37.78" x2="193.33" y2="37.78"/>
      <line class="cls-2-3-1" x1="179.72" y1="67.67" x2="189.8" y2="67.67"/>
      <polyline class="cls-2-3-1" points="241.47 13.81 241.47 18.16 221.8 18.16 221.8 4.05 241.47 4.05 241.47 8.79"/>
      <line class="cls-2-3-1" x1="252.12" y1="13.81" x2="305.2" y2="13.81"/>
      <line class="cls-2-3-1" x1="279.35" y1="37.83" x2="281.27" y2="37.83"/>
      <line class="cls-2-3-1" x1="287.69" y1="37.83" x2="289.97" y2="37.83"/>
      
    </g>
  </g>
  <g id="_3100" data-name="3100">
    <rect class="cls-3-3-1" x="2.09" y="4.05" width="88.62" height="95.85"/>
    <text class="cls-4-3-1" transform="translate(25.4 56.02)"><tspan x="0" y="0">武道場</tspan></text>
  </g>
</svg>