<?xml version="1.0" encoding="UTF-8"?>
<svg xmlns="http://www.w3.org/2000/svg" viewBox="0 0 393 149">
  <defs>
    <style>
      .cls-1-3-2 {
        fill: none;
      }

      .cls-1-3-2, .cls-2-3-2 {
        stroke: #231815;
        stroke-miterlimit: 10;
      }

      .cls-3-3-2 {
        fill: #dbdcdc;
      }

      .cls-3-3-2, .cls-4-3-2, .cls-5-3-2, .cls-6-3-2, .cls-7-3-2, .cls-8-3-2 {
        stroke-width: 0px;
      }

      .cls-4-3-2, .cls-2-3-2, .cls-9-3-2 {
        fill: #231815;
      }

      .cls-10-3-2 {
        letter-spacing: -.35em;
      }

      .cls-5-3-2 {
        opacity: .2;
      }

      .cls-5-3-2, .cls-8-3-2 {
        fill: #7a1a24;
      }

      .cls-6-3-2 {
        fill: #2d3e6a;
      }

      .cls-7-3-2 {
        fill: #ba1f21;
      }

      .cls-11-3-2 {
        fill: #fff;
      }

      .cls-11-3-2, .cls-9-3-2 {
        font-family: KozGoPr6N-Regular-90ms-RKSJ-H, 'Kozuka Gothic Pr6N';
        font-size: 7px;
      }
    </style>
  </defs>
  <g id="_レイヤー_1" data-name="レイヤー 1">
    <g>
      <polygon class="cls-3-3-2" points="369.54 17.49 368.7 17.49 366.19 17.49 354.71 17.49 325.4 17.49 321.61 17.49 222.12 17.49 222.12 20.08 222.12 31.43 222.12 44.16 230.89 44.16 230.89 67.29 230.82 67.29 230.82 74.64 223.75 74.64 223.75 67.29 175.69 67.29 175.69 85.05 230.89 85.05 230.89 85.3 239.97 85.3 239.97 41.36 239.66 41.36 239.66 31.43 321.61 31.43 321.61 121.93 366.19 121.93 366.19 48.03 368.7 48.03 368.7 88.61 383.53 88.61 383.53 17.49 369.54 17.49"/>
      <rect class="cls-5-3-2" x="142.93" y="85.3" width="39.37" height="51.13"/>
      <g>
        <path class="cls-6-3-2" d="m210.63,92.76c0,.36-.29.65-.65.65s-.65-.29-.65-.65.29-.65.65-.65.65.29.65.65Z"/>
        <path class="cls-6-3-2" d="m209.98,93.62c-.46,0-1.55.04-1.55.94v2.15c0,.14.1.26.24.27.14,0,.26-.1.27-.24l.12-1.3.13,4.85c0,.18.15.33.33.33s.33-.15.33-.33l.13-2.98.13,2.98c0,.18.15.33.33.33s.33-.15.33-.33l.13-4.85.12,1.3c0,.14.13.25.27.24s.25-.13.24-.27v-2.15c0-.9-1.09-.94-1.55-.94Z"/>
      </g>
      <g>
        <path class="cls-7-3-2" d="m199.97,93.41c.36,0,.65-.29.65-.65s-.29-.65-.65-.65-.65.29-.65.65.29.65.65.65Z"/>
        <path class="cls-7-3-2" d="m201.83,96.53l-.51-1.89c-.21-.87-.89-1-1.35-1s-1.14.13-1.35,1l-.51,1.89c-.05.13.02.28.15.33.13.05.28-.02.33-.15l.51-1.44.13.66-.64,2.02h.94s.05.63.05.63l.07,1.7c0,.18.15.33.33.33s.33-.15.33-.33l.07-1.7.05-.63h.94s-.64-2.02-.64-2.02l.13-.66.51,1.44c.05.13.2.2.33.15.13-.05.2-.2.15-.33Z"/>
      </g>
      <g>
        <path class="cls-4-3-2" d="m201.44,68.33c0,.2-.16.36-.36.36s-.36-.16-.36-.36.16-.36.36-.36.36.16.36.36Z"/>
        <polygon class="cls-4-3-2" points="203.21 72.19 201.93 72.19 201.93 72.65 200.78 72.65 200.78 73.1 199.66 73.1 199.66 73.56 198.55 73.56 198.55 74.01 197.43 74.01 197.43 74.47 196.72 74.47 196.72 75.05 198.08 75.05 198.08 74.58 199.19 74.58 199.19 74.12 200.3 74.12 200.3 73.67 201.42 73.67 201.42 73.21 202.53 73.21 202.53 72.77 203.21 72.77 203.21 72.19"/>
        <path class="cls-4-3-2" d="m201.51,70.53c-.26-.17-.52-.34-.56-.37.09-.45.18-.86.22-1.11,0,0,.03-.22-.15-.26-.25-.05-.6.14-1,.44-.04.03-.11.09-.13.18-.02.08-.12.57-.17.78-.02.08.03.16.11.18.08.02.15-.03.18-.11.06-.17.17-.54.18-.57.02-.03.17-.16.17-.16l-.3,3.05c0,.09.07.16.16.17.1.01.19-.06.2-.17,0,0,.2-.88.39-1.79l.34.16-.18.89c-.03.09.02.18.1.21.09.03.18-.02.21-.1,0,0,.31-.75.35-.88.04-.14.15-.36-.12-.54Z"/>
        <g>
          <path class="cls-4-3-2" d="m198.37,69.34c0,.2-.16.36-.36.36s-.36-.16-.36-.36.16-.36.36-.36.36.16.36.36Z"/>
          <path class="cls-4-3-2" d="m199.18,71.39s-.05-.39-.1-.64c-.01-.06-.03-.11-.07-.18-.14-.24-.34-.53-.52-.62-.29-.15-.58-.06-.71.17-.14.25-.33.65-.83.98-.07.04-.11.1-.09.17.02.07.1.11.17.09,0,0,.02,0,.02-.01.11-.05.54-.25.69-.49l-.12,2.74c-.01.1.06.19.16.2.1.01.19-.06.2-.17l.57-3.03s.18.15.23.27c.03.08.09.32.14.54,0,0,0,0,0,0,.02.08.08.13.16.12.08-.01.13-.08.12-.16Z"/>
          <path class="cls-4-3-2" d="m199.24,72.65l-1.01-.82-.09.59.88.51c.08.06.19.04.24-.03.06-.08.04-.19-.03-.24Z"/>
        </g>
      </g>
      <g>
        <path class="cls-7-3-2" d="m194.13,78.13c-.17-.37-.46-.63-.81-.73-.14-.04-.28-.06-.43-.06-.34,0-.68.11-.96.3-.26.18-.46.42-.55.69-.2-.58-.81-.98-1.49-.98-.15,0-.3.02-.45.06-.36.09-.65.35-.82.72-.13.3-.18.65-.12.96l.02.1c.06.28.21.61.47.97.22.33.67.85,1.03,1.21.65.66,1.28,1.16,1.29,1.16l.07.05.07-.05c.2-.14.91-.67,1.58-1.36.26-.28.64-.73.81-1,.22-.35.37-.68.43-.98l.02-.1c.05-.31.01-.65-.13-.95Zm-3.29,3.12l.52-1.15h-.58l.42-1.28h.95l-.55.8h.88l-1.63,1.63Z"/>
        <g>
          <path class="cls-7-3-2" d="m192.25,84.42v-1.46h.56c.41,0,.69.29.69.73,0,.22-.07.41-.19.54-.12.13-.29.19-.49.19h-.56Zm.29-.24h.24c.28,0,.45-.18.45-.49s-.16-.49-.45-.49h-.23v.99Z"/>
          <polygon class="cls-7-3-2" points="190.93 84.42 190.93 82.96 191.87 82.96 191.87 83.16 191.18 83.16 191.18 83.57 191.72 83.57 191.72 83.77 191.18 83.77 191.18 84.22 191.88 84.22 191.88 84.42 190.93 84.42"/>
          <path class="cls-7-3-2" d="m189.23,84.42l.47-1.46h.37l.47,1.46h-.25s-.12-.38-.12-.38h-.56s-.12.38-.12.38h-.25Zm.44-.58h.43l-.21-.67-.21.67Z"/>
        </g>
      </g>
      <g>
        <path class="cls-4-3-2" d="m378.13,67.13c0,.24-.19.43-.43.43s-.43-.19-.43-.43.19-.43.43-.43.43.19.43.43Z"/>
        <polygon class="cls-4-3-2" points="380.26 71.77 378.72 71.77 378.72 72.31 377.34 72.31 377.34 72.86 376.01 72.86 376.01 73.41 374.67 73.41 374.67 73.95 373.33 73.95 373.33 74.5 372.48 74.5 372.48 75.2 374.11 75.2 374.11 74.63 375.43 74.63 375.43 74.08 376.77 74.08 376.77 73.54 378.11 73.54 378.11 72.99 379.45 72.99 379.45 72.47 380.26 72.47 380.26 71.77"/>
        <path class="cls-4-3-2" d="m378.22,69.78c-.32-.21-.63-.41-.67-.44.11-.54.21-1.03.26-1.33,0,0,.04-.27-.17-.31-.3-.06-.72.17-1.2.53-.05.04-.13.1-.16.21-.03.1-.14.69-.2.94-.02.09.03.19.13.21.09.02.18-.03.21-.13.07-.21.2-.65.22-.68.02-.04.21-.19.21-.19l-.36,3.66c0,.11.09.19.19.21.12.01.22-.08.24-.2,0,0,.24-1.06.47-2.15l.41.19-.21,1.06c-.03.1.02.21.12.25.1.03.21-.02.25-.12,0,0,.37-.9.42-1.06.05-.17.18-.43-.15-.64Z"/>
        <g>
          <path class="cls-4-3-2" d="m374.45,68.35c0,.24-.19.43-.43.43s-.43-.19-.43-.43.19-.43.43-.43.43.19.43.43Z"/>
          <path class="cls-4-3-2" d="m375.42,70.81s-.06-.47-.12-.76c-.02-.07-.04-.13-.09-.22-.17-.29-.41-.63-.63-.75-.35-.18-.69-.08-.86.2-.17.3-.39.78-1,1.18-.08.05-.14.12-.11.21.03.09.12.14.21.11.01,0,.02,0,.03-.01.13-.06.65-.3.83-.59l-.15,3.28c-.01.12.07.23.19.25.12.01.22-.08.24-.2l.68-3.63s.22.18.27.33c.04.1.11.39.16.65,0,0,0,0,0,0,.02.1.1.16.19.15.09-.01.16-.1.15-.19Z"/>
          <path class="cls-4-3-2" d="m375.5,72.31l-1.21-.98-.1.7,1.06.61c.09.07.22.05.29-.04.07-.09.05-.22-.04-.29Z"/>
        </g>
      </g>
      <rect class="cls-1-3-2" x="164.15" y="83.73" width="4.66" height="1.26" transform="translate(332.96 168.71) rotate(-180)"/>
      <rect class="cls-1-3-2" x="164.15" y="80.66" width="4.66" height="1.26" transform="translate(332.96 162.59) rotate(-180)"/>
      <polygon class="cls-1-3-2" points="164.15 77.6 166.39 77.6 168.81 77.6 168.81 78.86 164.15 78.86 164.15 77.6"/>
      <line class="cls-1-3-2" x1="175.69" y1="71.34" x2="175.69" y2="66.94"/>
      <polyline class="cls-1-3-2" points="152.37 77.6 175.69 77.6 175.69 74.28"/>
      <line class="cls-1-3-2" x1="162.62" y1="66.94" x2="162.62" y2="77.05"/>
      <g>
        <path class="cls-4-3-2" d="m139.18,121.22c0,.24-.19.43-.43.43s-.43-.19-.43-.43.19-.43.43-.43.43.19.43.43Z"/>
        <polygon class="cls-4-3-2" points="141.32 125.85 139.78 125.85 139.78 126.4 138.4 126.4 138.4 126.95 137.06 126.95 137.06 127.49 135.72 127.49 135.72 128.04 134.38 128.04 134.38 128.59 133.53 128.59 133.53 129.29 135.16 129.29 135.16 128.72 136.49 128.72 136.49 128.17 137.82 128.17 137.82 127.63 139.16 127.63 139.16 127.08 140.5 127.08 140.5 126.55 141.32 126.55 141.32 125.85"/>
        <path class="cls-4-3-2" d="m139.27,123.87c-.32-.21-.63-.41-.67-.44.11-.54.21-1.03.26-1.33,0,0,.04-.27-.17-.31-.3-.06-.72.17-1.2.53-.05.04-.13.1-.16.21-.03.1-.14.69-.2.94-.02.09.03.19.13.21.09.02.18-.03.21-.13.07-.21.2-.65.22-.68.02-.04.21-.19.21-.19l-.36,3.66c0,.11.09.19.19.21.12.01.22-.08.24-.2,0,0,.24-1.06.47-2.15l.41.19-.21,1.06c-.03.1.02.21.12.25.1.03.21-.02.25-.12,0,0,.37-.9.42-1.06.05-.17.18-.43-.15-.64Z"/>
        <g>
          <path class="cls-4-3-2" d="m135.5,122.43c0,.24-.19.43-.43.43s-.43-.19-.43-.43.19-.43.43-.43.43.19.43.43Z"/>
          <path class="cls-4-3-2" d="m136.47,124.9s-.06-.47-.12-.76c-.02-.07-.04-.13-.09-.22-.17-.29-.41-.63-.63-.75-.35-.18-.69-.08-.86.2-.17.3-.39.78-1,1.18-.08.05-.14.12-.11.21.03.09.12.14.21.11.01,0,.02,0,.03-.01.13-.06.65-.3.83-.59l-.15,3.28c-.01.12.07.23.19.25.12.01.22-.08.24-.2l.68-3.63s.22.18.27.33c.04.1.11.39.16.65,0,0,0,0,0,0,.02.1.1.16.19.15.09-.01.16-.1.15-.19Z"/>
          <path class="cls-4-3-2" d="m136.55,126.4l-1.21-.98-.1.7,1.06.61c.09.07.22.05.29-.04.07-.09.05-.22-.04-.29Z"/>
        </g>
      </g>
      <line class="cls-1-3-2" x1="183.2" y1="74.77" x2="215.41" y2="74.77"/>
      <g>
        <g>
          <path class="cls-4-3-2" d="m168.43,71.91c0,.2-.16.35-.35.35s-.35-.16-.35-.35.16-.35.35-.35.35.16.35.35Z"/>
          <path class="cls-4-3-2" d="m168.07,72.35c-.25,0-.84.02-.84.51v1.17c0,.08.06.14.13.14.08,0,.14-.06.14-.13l.07-.71.07,2.64c0,.1.08.18.18.18s.18-.08.18-.18l.07-1.62.07,1.62c0,.1.08.18.18.18s.18-.08.18-.18l.07-2.64.07.71c0,.08.07.13.14.13.08,0,.13-.07.13-.14v-1.17c0-.49-.59-.51-.84-.51Z"/>
        </g>
        <g>
          <path class="cls-4-3-2" d="m170.59,71.91c0,.2-.16.35-.35.35s-.35-.16-.35-.35.16-.35.35-.35.35.16.35.35Z"/>
          <path class="cls-4-3-2" d="m170.24,72.35c-.25,0-.84.02-.84.51v1.17c0,.08.06.14.13.14.08,0,.14-.06.14-.13l.07-.71.07,2.64c0,.1.08.18.18.18s.18-.08.18-.18l.07-1.62.07,1.62c0,.1.08.18.18.18s.18-.08.18-.18l.07-2.64.07.71c0,.08.07.13.14.13.08,0,.13-.07.13-.14v-1.17c0-.49-.59-.51-.84-.51Z"/>
        </g>
        <path class="cls-4-3-2" d="m171.48,76.41h-4.64c-.36,0-.65-.29-.65-.65v-4.97c0-.36.29-.65.65-.65h4.64c.36,0,.65.29.65.65v4.97c0,.36-.29.65-.65.65Zm-4.64-5.86c-.13,0-.24.11-.24.24v4.97c0,.13.11.24.24.24h4.64c.13,0,.24-.11.24-.24v-4.97c0-.13-.11-.24-.24-.24h-4.64Z"/>
        <path class="cls-4-3-2" d="m171.25,68.82l-.79-.79h0s-.13-.13-.13-.13l-.13.13h0s-.79.79-.79.79c-.07.07-.07.18,0,.25.07.07.18.07.25,0l.49-.49v1.09c0,.1.08.18.18.18s.18-.08.18-.18v-1.09s.49.49.49.49c.04.04.08.05.13.05s.09-.02.13-.05c.07-.07.07-.18,0-.25Z"/>
        <path class="cls-4-3-2" d="m168.99,68.76c-.07-.07-.18-.07-.25,0l-.49.49v-1.09c0-.1-.08-.18-.18-.18s-.18.08-.18.18v1.09s-.49-.49-.49-.49c-.07-.07-.18-.07-.25,0-.07.07-.07.18,0,.25l.79.79h0s.13.13.13.13l.13-.13h0s.79-.79.79-.79c.07-.07.07-.18,0-.25Z"/>
      </g>
      <polyline class="cls-1-3-2" points="131.21 113.7 131.21 145.98 4.09 145.98 4.09 66.94 131.21 66.94 131.21 73.35"/>
      <line class="cls-1-3-2" x1="131.21" y1="84.08" x2="131.21" y2="102.08"/>
      <polyline class="cls-1-3-2" points="148.64 85.3 182.31 85.3 182.31 136.43 142.93 136.43 142.93 85.3 145.82 85.3"/>
      <polyline class="cls-1-3-2" points="174.17 102.08 172.05 102.08 172.05 85.3 182.31 85.3 182.31 102.08 177.18 102.08"/>
      <polyline class="cls-1-3-2" points="166.93 102.08 161.8 102.08 161.8 85.3 172.05 85.3 172.05 102.08 169.6 102.08"/>
      <polyline class="cls-1-3-2" points="148.64 85.3 161.8 85.3 161.8 102.08 142.93 102.08 142.93 85.3 145.82 85.3"/>
      <rect class="cls-1-3-2" x="194.96" y="85.3" width="10.01" height="22.12"/>
      <rect class="cls-1-3-2" x="204.97" y="85.3" width="10.01" height="22.12"/>
      <polygon class="cls-2-3-2" points="311.74 115.89 311.74 102.08 251.96 102.08 251.96 85.3 214.99 85.3 214.99 107.42 194.96 107.42 194.96 85.3 182.31 85.3 182.31 136.43 223.75 136.43 223.75 121.33 321.61 121.33 321.61 115.89 311.74 115.89"/>
      <polyline class="cls-1-3-2" points="321.61 110.7 321.61 115.02 239.97 115.02 239.97 31.27 321.61 31.27 321.61 54.71"/>
      <line class="cls-1-3-2" x1="321.61" y1="61.27" x2="321.61" y2="104.14"/>
      <rect class="cls-2-3-2" x="329.6" y="61.49" width="26.58" height="42.62"/>
      <polyline class="cls-1-3-2" points="228.18 15.08 228.18 17.49 222.12 17.49 222.12 23.52"/>
      <polyline class="cls-1-3-2" points="366.08 15.08 366.08 17.49 365.65 17.49 240.36 17.49 240.36 15.08"/>
      <polyline class="cls-1-3-2" points="378.26 15.08 378.26 17.49 383.53 17.49 383.53 88.61 368.7 88.61 368.7 48.03 365.65 48.03 365.65 121.33 230.82 121.33 223.75 121.33 223.75 136.43 131.21 136.43 131.21 145.98 4.09 145.98 4.09 66.94 131.21 66.94 223.75 66.94 223.75 74.64 230.82 74.64 230.82 44.14 222.12 44.14 222.12 33.5"/>
      <line class="cls-1-3-2" x1="136.88" y1="113.89" x2="142.93" y2="113.89"/>
      <text class="cls-9-3-2" transform="translate(198.5 30.34)"><tspan x="0" y="0">４号館</tspan></text>
      <text class="cls-9-3-2" transform="translate(222.12 11.53)"><tspan x="0" y="0">１号館</tspan></text>
      <text class="cls-9-3-2" transform="translate(357.53 11.53)"><tspan class="cls-10-3-2" x="0" y="0">１・</tspan><tspan x="9.04" y="0">２号館</tspan></text>
    </g>
  </g>
  <g id="_3201" data-name="3201">
    <polyline class="cls-5-3-2" points="321.61 110.7 321.61 115.02 239.66 115.02 239.66 31.43 321.61 31.43 321.61 104.14"/>
    <text class="cls-9-3-2" transform="translate(267.79 72.68)"><tspan x="0" y="0">学生食堂</tspan></text>
  </g>
  <g id="_3200" data-name="3200">
    <rect class="cls-8-3-2" x="4.09" y="67.12" width="127.12" height="79.04"/>
    <text class="cls-11-3-2" transform="translate(54.44 108.53) scale(1.05 1)"><tspan x="0" y="0">体育館</tspan></text>
  </g>
</svg>