<?xml version="1.0" encoding="UTF-8"?>
<svg xmlns="http://www.w3.org/2000/svg" viewBox="0 0 268.42 129.41">
  <defs>
    <style>
      .cls-1-3-3, .cls-2-3-3, .cls-3-3-3, .cls-4-3-3 {
        stroke-miterlimit: 10;
      }

      .cls-1-3-3, .cls-5-3-3 {
        fill: #dbdcdc;
      }

      .cls-1-3-3, .cls-3-3-3 {
        stroke: #000;
      }

      .cls-2-3-3 {
        fill: none;
      }

      .cls-2-3-3, .cls-4-3-3 {
        stroke: #231815;
      }

      .cls-5-3-3, .cls-6-3-3, .cls-7-3-3, .cls-8-3-3, .cls-9-3-3, .cls-10-3-3 {
        stroke-width: 0px;
      }

      .cls-3-3-3, .cls-6-3-3, .cls-4-3-3, .cls-11-3-3 {
        fill: #231815;
      }

      .cls-12-3-3, .cls-11-3-3 {
        font-family: KozGoPr6N-Regular-90ms-RKSJ-H, 'Kozuka Gothic Pr6N';
        font-size: 7px;
      }

      .cls-7-3-3 {
        fill: #7a1a24;
        opacity: .2;
      }

      .cls-8-3-3 {
        fill: #2d3e6a;
      }

      .cls-9-3-3 {
        fill: #fff;
      }

      .cls-10-3-3 {
        fill: #ba1f21;
      }
    </style>
  </defs>
  <g id="_レイヤー_1" data-name="レイヤー 1">
    <polyline class="cls-5-3-3" points="243.59 11.84 243.59 6.34 229.6 6.34 228.75 6.34 226.25 6.34 214.76 6.34 185.46 6.34 181.66 6.34 82.17 6.34 82.17 8.94 82.17 20.28 82.17 33.01 90.94 33.01 90.94 56.15 90.87 56.15 90.87 63.5 83.8 63.5 83.8 56.15 35.74 56.15 35.74 73.91 90.94 73.91 90.94 74.16 100.02 74.16 100.02 30.22 99.71 30.22 99.71 20.28 181.66 20.28 181.66 110.79 226.25 110.79 226.25 36.88 228.75 36.88 228.75 77.46 243.59 77.46 243.59 28.81"/>
    <rect class="cls-7-3-3" x="2.98" y="74.16" width="39.37" height="51.13"/>
    <g>
      <path class="cls-8-3-3" d="m70.68,81.62c0,.36-.29.65-.65.65s-.65-.29-.65-.65.29-.65.65-.65.65.29.65.65Z"/>
      <path class="cls-8-3-3" d="m70.03,82.47c-.46,0-1.55.04-1.55.94v2.15c0,.14.1.26.24.27.14,0,.26-.1.27-.24l.12-1.3.13,4.85c0,.18.15.33.33.33s.33-.15.33-.33l.13-2.98.13,2.98c0,.18.15.33.33.33s.33-.15.33-.33l.13-4.85.12,1.3c0,.14.13.25.27.24s.25-.13.24-.27v-2.15c0-.9-1.09-.94-1.55-.94Z"/>
    </g>
    <g>
      <path class="cls-10-3-3" d="m60.02,82.26c.36,0,.65-.29.65-.65s-.29-.65-.65-.65-.65.29-.65.65.29.65.65.65Z"/>
      <path class="cls-10-3-3" d="m61.89,85.39l-.51-1.89c-.21-.87-.89-1-1.35-1s-1.14.13-1.35,1l-.51,1.89c-.05.13.02.28.15.33.13.05.28-.02.33-.15l.51-1.44.13.66-.64,2.02h.94s.05.63.05.63l.07,1.7c0,.18.15.33.33.33s.33-.15.33-.33l.07-1.7.05-.63h.94s-.64-2.02-.64-2.02l.13-.66.51,1.44c.05.13.2.2.33.15.13-.05.2-.2.15-.33Z"/>
    </g>
    <g>
      <path class="cls-6-3-3" d="m61.49,57.18c0,.2-.16.36-.36.36s-.36-.16-.36-.36.16-.36.36-.36.36.16.36.36Z"/>
      <polygon class="cls-6-3-3" points="63.26 61.05 61.98 61.05 61.98 61.5 60.83 61.5 60.83 61.96 59.72 61.96 59.72 62.41 58.6 62.41 58.6 62.87 57.49 62.87 57.49 63.33 56.78 63.33 56.78 63.91 58.13 63.91 58.13 63.43 59.24 63.43 59.24 62.98 60.36 62.98 60.36 62.53 61.47 62.53 61.47 62.07 62.59 62.07 62.59 61.63 63.26 61.63 63.26 61.05"/>
      <path class="cls-6-3-3" d="m61.56,59.39c-.26-.17-.52-.34-.56-.37.09-.45.18-.86.22-1.11,0,0,.03-.22-.15-.26-.25-.05-.6.14-1,.44-.04.03-.11.09-.13.18-.02.08-.12.57-.17.78-.02.08.03.16.11.18.08.02.15-.03.18-.11.06-.17.17-.54.18-.57.02-.03.17-.16.17-.16l-.3,3.05c0,.09.07.16.16.17.1.01.19-.06.2-.17,0,0,.2-.88.39-1.79l.34.16-.18.89c-.03.09.02.18.1.21.09.03.18-.02.21-.1,0,0,.31-.75.35-.88.04-.14.15-.36-.12-.54Z"/>
      <g>
        <path class="cls-6-3-3" d="m58.42,58.2c0,.2-.16.36-.36.36s-.36-.16-.36-.36.16-.36.36-.36.36.16.36.36Z"/>
        <path class="cls-6-3-3" d="m59.23,60.25s-.05-.39-.1-.64c-.01-.06-.03-.11-.07-.18-.14-.24-.34-.53-.52-.62-.29-.15-.58-.06-.71.17-.14.25-.33.65-.83.98-.07.04-.11.1-.09.17.02.07.1.11.17.09,0,0,.02,0,.02-.01.11-.05.54-.25.69-.49l-.12,2.74c-.01.1.06.19.16.2.1.01.19-.06.2-.17l.57-3.03s.18.15.23.27c.03.08.09.32.14.54,0,0,0,0,0,0,.02.08.08.13.16.12.08-.01.13-.08.12-.16Z"/>
        <path class="cls-6-3-3" d="m59.3,61.5l-1.01-.82-.09.59.88.51c.08.06.19.04.24-.03.06-.08.04-.19-.03-.24Z"/>
      </g>
    </g>
    <g>
      <path class="cls-10-3-3" d="m54.18,66.99c-.17-.37-.46-.63-.81-.73-.14-.04-.28-.06-.43-.06-.34,0-.68.11-.96.3-.26.18-.46.42-.55.69-.2-.58-.81-.98-1.49-.98-.15,0-.3.02-.45.06-.36.09-.65.35-.82.72-.13.3-.18.65-.12.96l.02.1c.06.28.21.61.47.97.22.33.67.85,1.03,1.21.65.66,1.28,1.16,1.29,1.16l.07.05.07-.05c.2-.14.91-.67,1.58-1.36.26-.28.64-.73.81-1,.22-.35.37-.68.43-.98l.02-.1c.05-.31.01-.65-.13-.95Zm-3.29,3.12l.52-1.15h-.58l.42-1.28h.95l-.55.8h.88l-1.63,1.63Z"/>
      <g>
        <path class="cls-10-3-3" d="m52.31,73.28v-1.46h.56c.41,0,.69.29.69.73,0,.22-.07.41-.19.54-.12.13-.29.19-.49.19h-.56Zm.29-.24h.24c.28,0,.45-.18.45-.49s-.16-.49-.45-.49h-.23v.99Z"/>
        <polygon class="cls-10-3-3" points="50.98 73.28 50.98 71.82 51.92 71.82 51.92 72.02 51.23 72.02 51.23 72.43 51.77 72.43 51.77 72.63 51.23 72.63 51.23 73.07 51.94 73.07 51.94 73.28 50.98 73.28"/>
        <path class="cls-10-3-3" d="m49.29,73.28l.47-1.46h.37l.47,1.46h-.25s-.12-.38-.12-.38h-.56s-.12.38-.12.38h-.25Zm.44-.58h.43l-.21-.67-.21.67Z"/>
      </g>
    </g>
    <g>
      <path class="cls-6-3-3" d="m238.19,55.99c0,.24-.19.43-.43.43s-.43-.19-.43-.43.19-.43.43-.43.43.19.43.43Z"/>
      <polygon class="cls-6-3-3" points="240.32 60.62 238.78 60.62 238.78 61.17 237.4 61.17 237.4 61.72 236.06 61.72 236.06 62.26 234.72 62.26 234.72 62.81 233.38 62.81 233.38 63.36 232.53 63.36 232.53 64.06 234.16 64.06 234.16 63.49 235.49 63.49 235.49 62.94 236.83 62.94 236.83 62.4 238.16 62.4 238.16 61.85 239.5 61.85 239.5 61.32 240.32 61.32 240.32 60.62"/>
      <path class="cls-6-3-3" d="m238.27,58.63c-.32-.21-.63-.41-.67-.44.11-.54.21-1.03.26-1.33,0,0,.04-.27-.17-.31-.3-.06-.72.17-1.2.53-.05.04-.13.1-.16.21-.03.1-.14.69-.2.94-.02.09.03.19.13.21.09.02.18-.03.21-.13.07-.21.2-.65.22-.68.02-.04.21-.19.21-.19l-.36,3.66c0,.11.09.19.19.21.12.01.22-.08.24-.2,0,0,.24-1.06.47-2.15l.41.19-.21,1.06c-.03.1.02.21.12.25.1.03.21-.02.25-.12,0,0,.37-.9.42-1.06.05-.17.18-.43-.15-.64Z"/>
      <g>
        <path class="cls-6-3-3" d="m234.51,57.2c0,.24-.19.43-.43.43s-.43-.19-.43-.43.19-.43.43-.43.43.19.43.43Z"/>
        <path class="cls-6-3-3" d="m235.48,59.66s-.06-.47-.12-.76c-.02-.07-.04-.13-.09-.22-.17-.29-.41-.63-.63-.75-.35-.18-.69-.08-.86.2-.17.3-.39.78-1,1.18-.08.05-.14.12-.11.21.03.09.12.14.21.11.01,0,.02,0,.03-.01.13-.06.65-.3.83-.59l-.15,3.28c-.01.12.07.23.19.25.12.01.22-.08.24-.2l.68-3.63s.22.18.27.33c.04.1.11.39.16.65,0,0,0,0,0,0,.02.1.1.16.19.15.09-.01.16-.1.15-.19Z"/>
        <path class="cls-6-3-3" d="m235.56,61.17l-1.21-.98-.1.7,1.06.61c.09.07.22.05.29-.04.07-.09.05-.22-.04-.29Z"/>
      </g>
    </g>
    <rect class="cls-2-3-3" x="24.21" y="72.58" width="4.66" height="1.26" transform="translate(53.07 146.43) rotate(-180)"/>
    <rect class="cls-2-3-3" x="24.21" y="69.52" width="4.66" height="1.26" transform="translate(53.07 140.3) rotate(-180)"/>
    <polygon class="cls-2-3-3" points="24.21 66.46 26.44 66.46 28.86 66.46 28.86 67.72 24.21 67.72 24.21 66.46"/>
    <line class="cls-2-3-3" x1="35.74" y1="60.2" x2="35.74" y2="55.8"/>
    <polyline class="cls-2-3-3" points="12.42 66.46 35.74 66.46 35.74 63.13"/>
    <line class="cls-2-3-3" x1="22.67" y1="55.8" x2="22.67" y2="65.91"/>
    <polygon class="cls-6-3-3" points="1.37 114.71 -.17 114.71 -.17 115.26 -1.55 115.26 -1.55 115.8 -2.89 115.8 -2.89 116.35 -4.23 116.35 -4.23 116.9 -5.57 116.9 -5.57 117.45 -6.42 117.45 -6.42 118.14 -4.79 118.14 -4.79 117.57 -3.46 117.57 -3.46 117.03 -2.12 117.03 -2.12 116.48 -.78 116.48 -.78 115.94 .55 115.94 .55 115.41 1.37 115.41 1.37 114.71"/>
    <line class="cls-2-3-3" x1="43.25" y1="63.63" x2="75.46" y2="63.63"/>
    <g>
      <g>
        <path class="cls-6-3-3" d="m28.48,60.77c0,.2-.16.35-.35.35s-.35-.16-.35-.35.16-.35.35-.35.35.16.35.35Z"/>
        <path class="cls-6-3-3" d="m28.13,61.21c-.25,0-.84.02-.84.51v1.17c0,.08.06.14.13.14.08,0,.14-.06.14-.13l.07-.71.07,2.64c0,.1.08.18.18.18s.18-.08.18-.18l.07-1.62.07,1.62c0,.1.08.18.18.18s.18-.08.18-.18l.07-2.64.07.71c0,.08.07.13.14.13.08,0,.13-.07.13-.14v-1.17c0-.49-.59-.51-.84-.51Z"/>
      </g>
      <g>
        <path class="cls-6-3-3" d="m30.64,60.77c0,.2-.16.35-.35.35s-.35-.16-.35-.35.16-.35.35-.35.35.16.35.35Z"/>
        <path class="cls-6-3-3" d="m30.29,61.21c-.25,0-.84.02-.84.51v1.17c0,.08.06.14.13.14.08,0,.14-.06.14-.13l.07-.71.07,2.64c0,.1.08.18.18.18s.18-.08.18-.18l.07-1.62.07,1.62c0,.1.08.18.18.18s.18-.08.18-.18l.07-2.64.07.71c0,.08.07.13.14.13.08,0,.13-.07.13-.14v-1.17c0-.49-.59-.51-.84-.51Z"/>
      </g>
      <path class="cls-6-3-3" d="m31.53,65.26h-4.64c-.36,0-.65-.29-.65-.65v-4.97c0-.36.29-.65.65-.65h4.64c.36,0,.65.29.65.65v4.97c0,.36-.29.65-.65.65Zm-4.64-5.86c-.13,0-.24.11-.24.24v4.97c0,.13.11.24.24.24h4.64c.13,0,.24-.11.24-.24v-4.97c0-.13-.11-.24-.24-.24h-4.64Z"/>
      <path class="cls-6-3-3" d="m31.3,57.68l-.79-.79h0s-.13-.13-.13-.13l-.13.13h0s-.79.79-.79.79c-.07.07-.07.18,0,.25.07.07.18.07.25,0l.49-.49v1.09c0,.1.08.18.18.18s.18-.08.18-.18v-1.09s.49.49.49.49c.04.04.08.05.13.05s.09-.02.13-.05c.07-.07.07-.18,0-.25Z"/>
      <path class="cls-6-3-3" d="m29.04,57.62c-.07-.07-.18-.07-.25,0l-.49.49v-1.09c0-.1-.08-.18-.18-.18s-.18.08-.18.18v1.09s-.49-.49-.49-.49c-.07-.07-.18-.07-.25,0-.07.07-.07.18,0,.25l.79.79h0s.13.13.13.13l.13-.13h0s.79-.79.79-.79c.07-.07.07-.18,0-.25Z"/>
    </g>
    <polyline class="cls-2-3-3" points="8.7 74.16 42.36 74.16 42.36 125.29 2.98 125.29 2.98 74.16 5.87 74.16"/>
    <polyline class="cls-2-3-3" points="34.22 90.94 32.11 90.94 32.11 74.16 42.36 74.16 42.36 90.94 37.23 90.94"/>
    <polyline class="cls-2-3-3" points="26.98 90.94 21.86 90.94 21.86 74.16 32.11 74.16 32.11 90.94 29.66 90.94"/>
    <polyline class="cls-2-3-3" points="8.7 74.16 21.86 74.16 21.86 90.94 2.98 90.94 2.98 74.16 5.87 74.16"/>
    <rect class="cls-2-3-3" x="55.01" y="74.16" width="10.01" height="22.12"/>
    <rect class="cls-2-3-3" x="65.03" y="74.16" width="10.01" height="22.12"/>
    <polygon class="cls-4-3-3" points="171.8 104.75 171.8 90.94 112.01 90.94 112.01 74.16 75.04 74.16 75.04 96.27 55.01 96.27 55.01 74.16 42.36 74.16 42.36 125.29 83.8 125.29 83.8 110.19 181.66 110.19 181.66 104.75 171.8 104.75"/>
    <polyline class="cls-2-3-3" points="181.66 99.56 181.66 103.87 100.02 103.87 100.02 20.12 181.66 20.12 181.66 43.56"/>
    <line class="cls-2-3-3" x1="181.66" y1="50.13" x2="181.66" y2="92.99"/>
    <rect class="cls-4-3-3" x="189.65" y="50.35" width="26.58" height="42.62"/>
    <polyline class="cls-2-3-3" points="237.96 5.7 237.96 6.34 237.48 6.34 99.96 6.34 99.96 5.7"/>
    <polyline class="cls-2-3-3" points="-27.15 55.8 -8.74 55.8 83.8 55.8 83.8 63.5 90.87 63.5 90.87 33 82.17 33 82.17 22.36"/>
    <polyline class="cls-2-3-3" points="243.59 31.72 243.59 77.46 228.75 77.46 228.75 36.88 225.7 36.88 225.7 110.19 90.87 110.19 83.8 110.19 83.8 125.29 -8.74 125.29 -8.74 134.84 -27.15 134.84"/>
    <line class="cls-2-3-3" x1="243.59" y1="11.29" x2="243.59" y2="11.84"/>
    <line class="cls-2-3-3" x1="243.59" y1="10.74" x2="243.59" y2="11.29"/>
    <polyline class="cls-2-3-3" points="238.31 3.94 238.31 6.34 243.59 6.34 243.59 10.74"/>
    <line class="cls-2-3-3" x1="-3.06" y1="102.74" x2="2.98" y2="102.74"/>
    <text class="cls-11-3-3" transform="translate(58.55 19.19)"><tspan x="0" y="0">４号館</tspan></text>
    <line class="cls-3-3-3" x1="99.96" y1="6.34" x2="82.17" y2="6.34"/>
    <line class="cls-3-3-3" x1="82.02" y1="6.45" x2="82.02" y2="12.11"/>
    <rect class="cls-9-3-3" x="236.96" y="2.7" width="3" height="3"/>
    <polyline class="cls-1-3-3" points="243.46 32.3 243.46 32.15 243.46 25.7"/>
    <text class="cls-12-3-3" transform="translate(243.78 21.05)"><tspan x="0" y="0">２号館</tspan></text>
  </g>
  <g id="_3300" data-name="3300">
    <polyline class="cls-7-3-3" points="181.66 99.56 181.66 103.87 99.71 103.87 99.71 20.28 181.66 20.28 181.66 92.99"/>
    <text class="cls-11-3-3" transform="translate(123.19 63.97)"><tspan x="0" y="0">生協販売店</tspan></text>
  </g>
</svg>