<?xml version="1.0" encoding="UTF-8"?>
<svg xmlns="http://www.w3.org/2000/svg" viewBox="0 0 143.22 252.19">
  <defs>
    <style>
      .cls-1-4-5 {
        fill: none;
      }

      .cls-1-4-5, .cls-2-4-5 {
        stroke: #231815;
        stroke-miterlimit: 10;
      }

      .cls-3-4-5, .cls-4-4-5, .cls-5-4-5, .cls-6-4-5, .cls-7-4-5 {
        stroke-width: 0px;
      }

      .cls-3-4-5, .cls-2-4-5 {
        fill: #231815;
      }

      .cls-4-4-5 {
        opacity: .2;
      }

      .cls-4-4-5, .cls-6-4-5 {
        fill: #761923;
      }

      .cls-5-4-5 {
        fill: #bc2021;
      }

      .cls-7-4-5 {
        fill: #2d3e69;
      }

      .cls-8-4-5 {
        fill: #fff;
        font-family: KozGoPr6N-Regular-90ms-RKSJ-H, 'Kozuka Gothic Pr6N';
        font-size: 7px;
      }
    </style>
  </defs>
  <g id="_4510" data-name="4510">
    <polygon class="cls-6-4-5" points="91.17 14.83 91.06 138.04 100.24 138.04 100.35 148.79 131.92 148.79 131.92 14.83 91.17 14.83"/>
    <text class="cls-8-4-5" transform="translate(97.49 72.93)"><tspan x="0" y="0">４５１０</tspan></text>
  </g>
  <g id="_4-5" data-name="4-5">
    <g>
      <path class="cls-3-4-5" d="m77.48,216.84c0,.24-.19.43-.43.43s-.43-.19-.43-.43.19-.43.43-.43.43.19.43.43Z"/>
      <polygon class="cls-3-4-5" points="79.61 221.48 78.07 221.48 78.07 222.03 76.69 222.03 76.69 222.57 75.35 222.57 75.35 223.12 74.01 223.12 74.01 223.67 72.67 223.67 72.67 224.22 71.82 224.22 71.82 224.91 73.45 224.91 73.45 224.34 74.78 224.34 74.78 223.8 76.12 223.8 76.12 223.25 77.46 223.25 77.46 222.71 78.8 222.71 78.8 222.18 79.61 222.18 79.61 221.48"/>
      <path class="cls-3-4-5" d="m77.57,219.49c-.32-.21-.63-.41-.67-.44.11-.54.21-1.03.26-1.33,0,0,.04-.27-.17-.31-.3-.06-.72.17-1.2.53-.05.04-.13.1-.16.21-.03.1-.14.69-.2.94-.02.09.03.19.13.21.09.02.18-.03.21-.13.07-.21.2-.65.22-.68.02-.04.21-.19.21-.19l-.36,3.66c0,.11.09.19.19.21.12.01.22-.08.24-.2,0,0,.24-1.06.47-2.15l.41.19-.21,1.06c-.03.1.02.21.12.25.1.03.21-.02.25-.12,0,0,.37-.9.42-1.06.05-.17.18-.43-.15-.64Z"/>
      <g>
        <path class="cls-3-4-5" d="m73.8,218.06c0,.24-.19.43-.43.43s-.43-.19-.43-.43.19-.43.43-.43.43.19.43.43Z"/>
        <path class="cls-3-4-5" d="m74.77,220.52s-.06-.47-.12-.76c-.02-.07-.04-.13-.09-.22-.17-.29-.41-.63-.63-.75-.35-.18-.69-.08-.86.2-.17.3-.39.78-1,1.18-.08.05-.14.12-.11.21.03.09.12.14.21.11.01,0,.02,0,.03-.01.13-.06.65-.3.83-.59l-.15,3.28c-.01.12.07.23.19.25.12.01.22-.08.24-.2l.68-3.63s.22.18.27.33c.04.1.11.39.16.65,0,0,0,0,0,0,.02.1.1.16.19.15.09-.01.16-.1.15-.19Z"/>
        <path class="cls-3-4-5" d="m74.85,222.03l-1.21-.98-.1.7,1.06.61c.09.07.22.05.29-.04.07-.09.05-.22-.04-.29Z"/>
      </g>
    </g>
    <g>
      <g>
        <path class="cls-3-4-5" d="m81.09,207.7c0,.2-.16.35-.35.35s-.35-.16-.35-.35.16-.35.35-.35.35.16.35.35Z"/>
        <path class="cls-3-4-5" d="m80.74,208.14c-.25,0-.84.02-.84.51v1.17c0,.08.06.14.13.14.08,0,.14-.06.14-.13l.07-.71.07,2.64c0,.1.08.18.18.18s.18-.08.18-.18l.07-1.62.07,1.62c0,.1.08.18.18.18s.18-.08.18-.18l.07-2.64.07.71c0,.08.07.13.14.13.08,0,.13-.07.13-.14v-1.17c0-.49-.59-.51-.84-.51Z"/>
      </g>
      <g>
        <path class="cls-3-4-5" d="m83.26,207.7c0,.2-.16.35-.35.35s-.35-.16-.35-.35.16-.35.35-.35.35.16.35.35Z"/>
        <path class="cls-3-4-5" d="m82.9,208.14c-.25,0-.84.02-.84.51v1.17c0,.08.06.14.13.14.08,0,.14-.06.14-.13l.07-.71.07,2.64c0,.1.08.18.18.18s.18-.08.18-.18l.07-1.62.07,1.62c0,.1.08.18.18.18s.18-.08.18-.18l.07-2.64.07.71c0,.08.07.13.14.13.08,0,.13-.07.13-.14v-1.17c0-.49-.59-.51-.84-.51Z"/>
      </g>
      <path class="cls-3-4-5" d="m84.14,212.2h-4.64c-.36,0-.65-.29-.65-.65v-4.97c0-.36.29-.65.65-.65h4.64c.36,0,.65.29.65.65v4.97c0,.36-.29.65-.65.65Zm-4.64-5.86c-.13,0-.24.11-.24.24v4.97c0,.13.11.24.24.24h4.64c.13,0,.24-.11.24-.24v-4.97c0-.13-.11-.24-.24-.24h-4.64Z"/>
      <path class="cls-3-4-5" d="m83.91,204.62l-.79-.79h0s-.13-.13-.13-.13l-.13.13h0s-.79.79-.79.79c-.07.07-.07.18,0,.25.07.07.18.07.25,0l.49-.49v1.09c0,.1.08.18.18.18s.18-.08.18-.18v-1.09s.49.49.49.49c.04.04.08.05.13.05s.09-.02.13-.05c.07-.07.07-.18,0-.25Z"/>
      <path class="cls-3-4-5" d="m81.65,204.56c-.07-.07-.18-.07-.25,0l-.49.49v-1.09c0-.1-.08-.18-.18-.18s-.18.08-.18.18v1.09s-.49-.49-.49-.49c-.07-.07-.18-.07-.25,0-.07.07-.07.18,0,.25l.79.79h0s.13.13.13.13l.13-.13h0s.79-.79.79-.79c.07-.07.07-.18,0-.25Z"/>
    </g>
    <g>
      <g>
        <path class="cls-3-4-5" d="m70.39,207.7c0,.2-.16.35-.35.35s-.35-.16-.35-.35.16-.35.35-.35.35.16.35.35Z"/>
        <path class="cls-3-4-5" d="m70.03,208.14c-.25,0-.84.02-.84.51v1.17c0,.08.06.14.13.14.08,0,.14-.06.14-.13l.07-.71.07,2.64c0,.1.08.18.18.18s.18-.08.18-.18l.07-1.62.07,1.62c0,.1.08.18.18.18s.18-.08.18-.18l.07-2.64.07.71c0,.08.07.13.14.13.08,0,.13-.07.13-.14v-1.17c0-.49-.59-.51-.84-.51Z"/>
      </g>
      <g>
        <path class="cls-3-4-5" d="m72.55,207.7c0,.2-.16.35-.35.35s-.35-.16-.35-.35.16-.35.35-.35.35.16.35.35Z"/>
        <path class="cls-3-4-5" d="m72.19,208.14c-.25,0-.84.02-.84.51v1.17c0,.08.06.14.13.14.08,0,.14-.06.14-.13l.07-.71.07,2.64c0,.1.08.18.18.18s.18-.08.18-.18l.07-1.62.07,1.62c0,.1.08.18.18.18s.18-.08.18-.18l.07-2.64.07.71c0,.08.07.13.14.13.08,0,.13-.07.13-.14v-1.17c0-.49-.59-.51-.84-.51Z"/>
      </g>
      <path class="cls-3-4-5" d="m73.43,212.2h-4.64c-.36,0-.65-.29-.65-.65v-4.97c0-.36.29-.65.65-.65h4.64c.36,0,.65.29.65.65v4.97c0,.36-.29.65-.65.65Zm-4.64-5.86c-.13,0-.24.11-.24.24v4.97c0,.13.11.24.24.24h4.64c.13,0,.24-.11.24-.24v-4.97c0-.13-.11-.24-.24-.24h-4.64Z"/>
      <path class="cls-3-4-5" d="m73.2,204.62l-.79-.79h0s-.13-.13-.13-.13l-.13.13h0s-.79.79-.79.79c-.07.07-.07.18,0,.25.07.07.18.07.25,0l.49-.49v1.09c0,.1.08.18.18.18s.18-.08.18-.18v-1.09s.49.49.49.49c.04.04.08.05.13.05s.09-.02.13-.05c.07-.07.07-.18,0-.25Z"/>
      <path class="cls-3-4-5" d="m70.94,204.56c-.07-.07-.18-.07-.25,0l-.49.49v-1.09c0-.1-.08-.18-.18-.18s-.18.08-.18.18v1.09s-.49-.49-.49-.49c-.07-.07-.18-.07-.25,0-.07.07-.07.18,0,.25l.79.79h0s.13.13.13.13l.13-.13h0s.79-.79.79-.79c.07-.07.07-.18,0-.25Z"/>
    </g>
    <g>
      <g>
        <path class="cls-3-4-5" d="m57.83,207.7c0,.2-.16.35-.35.35s-.35-.16-.35-.35.16-.35.35-.35.35.16.35.35Z"/>
        <path class="cls-3-4-5" d="m57.48,208.14c-.25,0-.84.02-.84.51v1.17c0,.08.06.14.13.14.08,0,.14-.06.14-.13l.07-.71.07,2.64c0,.1.08.18.18.18s.18-.08.18-.18l.07-1.62.07,1.62c0,.1.08.18.18.18s.18-.08.18-.18l.07-2.64.07.71c0,.08.07.13.14.13.08,0,.13-.07.13-.14v-1.17c0-.49-.59-.51-.84-.51Z"/>
      </g>
      <g>
        <path class="cls-3-4-5" d="m59.99,207.7c0,.2-.16.35-.35.35s-.35-.16-.35-.35.16-.35.35-.35.35.16.35.35Z"/>
        <path class="cls-3-4-5" d="m59.64,208.14c-.25,0-.84.02-.84.51v1.17c0,.08.06.14.13.14.08,0,.14-.06.14-.13l.07-.71.07,2.64c0,.1.08.18.18.18s.18-.08.18-.18l.07-1.62.07,1.62c0,.1.08.18.18.18s.18-.08.18-.18l.07-2.64.07.71c0,.08.07.13.14.13.08,0,.13-.07.13-.14v-1.17c0-.49-.59-.51-.84-.51Z"/>
      </g>
      <path class="cls-3-4-5" d="m60.88,212.2h-4.64c-.36,0-.65-.29-.65-.65v-4.97c0-.36.29-.65.65-.65h4.64c.36,0,.65.29.65.65v4.97c0,.36-.29.65-.65.65Zm-4.64-5.86c-.13,0-.24.11-.24.24v4.97c0,.13.11.24.24.24h4.64c.13,0,.24-.11.24-.24v-4.97c0-.13-.11-.24-.24-.24h-4.64Z"/>
      <path class="cls-3-4-5" d="m60.65,204.62l-.79-.79h0s-.13-.13-.13-.13l-.13.13h0s-.79.79-.79.79c-.07.07-.07.18,0,.25.07.07.18.07.25,0l.49-.49v1.09c0,.1.08.18.18.18s.18-.08.18-.18v-1.09s.49.49.49.49c.04.04.08.05.13.05s.09-.02.13-.05c.07-.07.07-.18,0-.25Z"/>
      <path class="cls-3-4-5" d="m58.39,204.56c-.07-.07-.18-.07-.25,0l-.49.49v-1.09c0-.1-.08-.18-.18-.18s-.18.08-.18.18v1.09s-.49-.49-.49-.49c-.07-.07-.18-.07-.25,0-.07.07-.07.18,0,.25l.79.79h0s.13.13.13.13l.13-.13h0s.79-.79.79-.79c.07-.07.07-.18,0-.25Z"/>
    </g>
    <g>
      <g>
        <path class="cls-3-4-5" d="m70.32,180.04c0,.12-.1.22-.22.22s-.22-.1-.22-.22.1-.22.22-.22.22.1.22.22Z"/>
        <path class="cls-3-4-5" d="m70.09,180.32c-.16,0-.53.02-.53.32v.74s.03.09.08.09c.05,0,.09-.03.09-.08l.04-.45.04,1.67c0,.06.05.11.11.11s.11-.05.11-.11l.05-1.02.05,1.02c0,.06.05.11.11.11s.11-.05.11-.11l.04-1.67.04.45s.04.09.09.08c.05,0,.09-.04.08-.09v-.74c0-.31-.37-.32-.53-.32Z"/>
      </g>
      <g>
        <path class="cls-3-4-5" d="m71.68,180.04c0,.12-.1.22-.22.22s-.22-.1-.22-.22.1-.22.22-.22.22.1.22.22Z"/>
        <path class="cls-3-4-5" d="m71.46,180.32c-.16,0-.53.02-.53.32v.74s.03.09.08.09c.05,0,.09-.03.09-.08l.04-.45.04,1.67c0,.06.05.11.11.11s.11-.05.11-.11l.05-1.02.05,1.02c0,.06.05.11.11.11s.11-.05.11-.11l.04-1.67.04.45s.04.09.09.08c.05,0,.09-.04.08-.09v-.74c0-.31-.37-.32-.53-.32Z"/>
      </g>
      <path class="cls-3-4-5" d="m72.24,182.88h-2.93c-.23,0-.41-.18-.41-.41v-3.14c0-.23.18-.41.41-.41h2.93c.23,0,.41.18.41.41v3.14c0,.23-.18.41-.41.41Zm-2.93-3.7c-.08,0-.15.07-.15.15v3.14c0,.08.07.15.15.15h2.93c.08,0,.15-.07.15-.15v-3.14c0-.08-.07-.15-.15-.15h-2.93Z"/>
      <path class="cls-3-4-5" d="m72.09,178.09l-.5-.5h0s-.08-.08-.08-.08l-.08.08h0s-.5.5-.5.5c-.04.04-.04.12,0,.16.04.04.12.04.16,0l.31-.31v.69c0,.06.05.11.11.11s.11-.05.11-.11v-.69s.31.31.31.31c.02.02.05.03.08.03s.06-.01.08-.03c.04-.04.04-.12,0-.16Z"/>
      <path class="cls-3-4-5" d="m70.67,178.05s-.12-.04-.16,0l-.31.31v-.69c0-.06-.05-.11-.11-.11s-.11.05-.11.11v.69s-.31-.31-.31-.31c-.04-.04-.12-.04-.16,0-.04.04-.04.12,0,.16l.5.5h0s.08.08.08.08l.08-.08h0s.5-.5.5-.5c.04-.04.04-.12,0-.16Z"/>
    </g>
    <rect class="cls-4-4-5" x="10.3" y="229.22" width="29.25" height="8"/>
    <rect class="cls-4-4-5" x="10.17" y="176.13" width="29.38" height="28.78"/>
    <rect class="cls-4-4-5" x="100.38" y="188.95" width="31.29" height="13.67"/>
    <rect class="cls-4-4-5" x="100.38" y="149.08" width="31.29" height="39.87"/>
    <rect class="cls-4-4-5" x="100.38" y="202.62" width="31.29" height="34.3"/>
    <rect class="cls-4-4-5" x="91.17" y="7.47" width="40.75" height="7.92"/>
    <rect class="cls-4-4-5" x="10.3" y="204.9" width="29.25" height="24.59"/>
    <rect class="cls-4-4-5" x="10.39" y="120.7" width="29.25" height="55.43"/>
    <polygon class="cls-4-4-5" points="10.27 17.23 10.27 120.7 39.54 120.7 39.54 82.68 49.66 82.68 49.66 17.23 10.27 17.23"/>
    <rect class="cls-4-4-5" x="10.49" y="7.47" width="22.27" height="9.76"/>
    <rect class="cls-4-4-5" x="32.76" y="7.47" width="16.9" height="9.76"/>
    <rect class="cls-4-4-5" x="49.57" y="97.58" width="41.63" height="44.71"/>
    <line class="cls-1-4-5" x1="95.68" y1="236.93" x2="79.68" y2="236.93"/>
    <line class="cls-1-4-5" x1="123.32" y1="236.93" x2="76.23" y2="236.93"/>
    <polyline class="cls-1-4-5" points="76.23 236.93 47.63 236.93 34.77 236.93 10.27 236.93 10.27 7.2 131.67 7.2 131.67 236.93 123.32 236.93"/>
    <rect class="cls-2-4-5" x="49.66" y="7.2" width="41.54" height="90.75"/>
    <text/>
    <polyline class="cls-1-4-5" points="64.4 225.77 64.4 214.64 87.04 214.64 87.04 225.77 85.71 225.77"/>
    <line class="cls-1-4-5" x1="81.86" y1="225.78" x2="64.4" y2="225.78"/>
    <polyline class="cls-1-4-5" points="84.42 201.51 87.04 201.51 87.04 214.64 52.24 214.64 52.24 201.51 56.32 201.51"/>
    <line class="cls-1-4-5" x1="73.1" y1="201.51" x2="79.34" y2="201.51"/>
    <line class="cls-1-4-5" x1="61.08" y1="201.51" x2="68.27" y2="201.51"/>
    <line class="cls-1-4-5" x1="64.4" y1="214.64" x2="64.4" y2="201.51"/>
    <path class="cls-1-4-5" d="m76.76,214.48v-12.97,12.97Z"/>
    <rect class="cls-2-4-5" x="87.04" y="201.51" width="3.33" height="24.27"/>
    <line class="cls-1-4-5" x1="39.55" y1="204.58" x2="10.27" y2="204.58"/>
    <line class="cls-1-4-5" x1="39.55" y1="118.48" x2="39.55" y2="236.63"/>
    <polygon class="cls-1-4-5" points="100.28 137.56 91.2 137.52 91.34 7.2 131.67 7.2 131.67 149.08 100.42 149.12 100.28 137.56"/>
    <rect class="cls-1-4-5" x="100.38" y="202.62" width="31.29" height="34.3"/>
    <rect class="cls-1-4-5" x="100.38" y="149.08" width="31.29" height="53.54"/>
    <g>
      <path class="cls-7-4-5" d="m60.35,161.52c0,.36-.29.65-.65.65s-.65-.29-.65-.65.29-.65.65-.65.65.29.65.65Z"/>
      <path class="cls-7-4-5" d="m59.7,162.37c-.46,0-1.55.04-1.55.94v2.15c0,.14.1.26.24.27.14,0,.26-.1.27-.24l.12-1.3.13,4.85c0,.18.15.33.33.33s.33-.15.33-.33l.13-2.98.13,2.98c0,.18.15.33.33.33s.33-.15.33-.33l.13-4.85.12,1.3c0,.14.13.25.27.24s.25-.13.24-.27v-2.15c0-.9-1.09-.94-1.55-.94Z"/>
    </g>
    <g>
      <path class="cls-5-4-5" d="m82.3,162.17c.36,0,.65-.29.65-.65s-.29-.65-.65-.65-.65.29-.65.65.29.65.65.65Z"/>
      <path class="cls-5-4-5" d="m84.16,165.29l-.51-1.89c-.21-.87-.89-1-1.35-1s-1.14.13-1.35,1l-.51,1.89c-.05.13.02.28.15.33.13.05.28-.02.33-.15l.51-1.44.13.66-.64,2.02h.94s.05.63.05.63l.07,1.7c0,.18.15.33.33.33s.33-.15.33-.33l.07-1.7.05-.63h.94s-.64-2.02-.64-2.02l.13-.66.51,1.44c.05.13.2.2.33.15.13-.05.2-.2.15-.33Z"/>
    </g>
    <polyline class="cls-1-4-5" points="61.49 156.26 66.56 156.26 66.56 173.98 52.24 173.98 52.24 156.26 58.31 156.26"/>
    <polyline class="cls-1-4-5" points="79.35 156.26 88.71 156.26 88.71 173.98 74.34 173.98 74.34 156.26 76.3 156.26"/>
    <line class="cls-1-4-5" x1="66.56" y1="156.26" x2="71.99" y2="156.26"/>
    <g>
      <g>
        <path class="cls-3-4-5" d="m70.05,179.95c0,.2-.16.35-.35.35s-.35-.16-.35-.35.16-.35.35-.35.35.16.35.35Z"/>
        <path class="cls-3-4-5" d="m69.69,180.39c-.25,0-.84.02-.84.51v1.17c0,.08.06.14.13.14.08,0,.14-.06.14-.13l.07-.71.07,2.64c0,.1.08.18.18.18s.18-.08.18-.18l.07-1.62.07,1.62c0,.1.08.18.18.18s.18-.08.18-.18l.07-2.64.07.71c0,.08.07.13.14.13.08,0,.13-.07.13-.14v-1.17c0-.49-.59-.51-.84-.51Z"/>
      </g>
      <g>
        <path class="cls-3-4-5" d="m72.21,179.95c0,.2-.16.35-.35.35s-.35-.16-.35-.35.16-.35.35-.35.35.16.35.35Z"/>
        <path class="cls-3-4-5" d="m71.86,180.39c-.25,0-.84.02-.84.51v1.17c0,.08.06.14.13.14.08,0,.14-.06.14-.13l.07-.71.07,2.64c0,.1.08.18.18.18s.18-.08.18-.18l.07-1.62.07,1.62c0,.1.08.18.18.18s.18-.08.18-.18l.07-2.64.07.71c0,.08.07.13.14.13.08,0,.13-.07.13-.14v-1.17c0-.49-.59-.51-.84-.51Z"/>
      </g>
      <path class="cls-3-4-5" d="m73.1,184.44h-4.64c-.36,0-.65-.29-.65-.65v-4.97c0-.36.29-.65.65-.65h4.64c.36,0,.65.29.65.65v4.97c0,.36-.29.65-.65.65Zm-4.64-5.86c-.13,0-.24.11-.24.24v4.97c0,.13.11.24.24.24h4.64c.13,0,.24-.11.24-.24v-4.97c0-.13-.11-.24-.24-.24h-4.64Z"/>
      <path class="cls-3-4-5" d="m72.87,176.86l-.79-.79h0s-.13-.13-.13-.13l-.13.13h0s-.79.79-.79.79c-.07.07-.07.18,0,.25.07.07.18.07.25,0l.49-.49v1.09c0,.1.08.18.18.18s.18-.08.18-.18v-1.09s.49.49.49.49c.04.04.08.05.13.05s.09-.02.13-.05c.07-.07.07-.18,0-.25Z"/>
      <path class="cls-3-4-5" d="m70.61,176.8c-.07-.07-.18-.07-.25,0l-.49.49v-1.09c0-.1-.08-.18-.18-.18s-.18.08-.18.18v1.09s-.49-.49-.49-.49c-.07-.07-.18-.07-.25,0-.07.07-.07.18,0,.25l.79.79h0s.13.13.13.13l.13-.13h0s.79-.79.79-.79c.07-.07.07-.18,0-.25Z"/>
    </g>
    <rect class="cls-2-4-5" x="49.84" y="173.98" width="14.82" height="13.18"/>
    <polyline class="cls-1-4-5" points="68.09 187.16 64.66 187.16 64.66 173.98 76.8 173.98 76.8 187.16 73.23 187.16"/>
    <rect class="cls-2-4-5" x="76.8" y="173.98" width="14.26" height="13.18"/>
    <line class="cls-1-4-5" x1="100.38" y1="188.95" x2="131.67" y2="188.95"/>
    <rect class="cls-1-4-5" x="10.27" y="7.2" width="39.57" height="9.76"/>
    <line class="cls-1-4-5" x1="32.76" y1="7.2" x2="32.76" y2="16.96"/>
    <polygon class="cls-1-4-5" points="10.27 7.2 10.27 120.43 39.54 120.43 39.54 82.41 49.66 82.41 49.66 7.2 10.27 7.2"/>
    <line class="cls-1-4-5" x1="39.55" y1="175.86" x2="10.49" y2="175.86"/>
    <line class="cls-1-4-5" x1="39.55" y1="229.22" x2="10.27" y2="229.22"/>
    <line class="cls-1-4-5" x1="91.06" y1="15.12" x2="131.67" y2="15.12"/>
    <rect class="cls-2-4-5" x="49.66" y="142.01" width="41.54" height="8.27"/>
    <rect class="cls-1-4-5" x="49.66" y="97.95" width="41.54" height="44.07"/>
    <rect class="cls-1-4-5" x="49.66" y="97.95" width="13.37" height="23.31"/>
    <rect class="cls-1-4-5" x="77.83" y="97.95" width="13.37" height="23.31"/>
  </g>
</svg>