<?xml version="1.0" encoding="UTF-8"?>
<svg xmlns="http://www.w3.org/2000/svg" xmlns:xlink="http://www.w3.org/1999/xlink" viewBox="0 0 417.77 753.85">
  <defs>
    <style>
      .cls-1-4-8 {
        fill: none;
      }

      .cls-1-4-8, .cls-2-4-8, .cls-3-4-8, .cls-4-4-8, .cls-5-4-8 {
        stroke-miterlimit: 10;
        stroke-width: 2px;
      }

      .cls-1-4-8, .cls-4-4-8 {
        stroke: #231815;
      }

      .cls-2-4-8, .cls-5-4-8 {
        stroke: #dcdddd;
      }

      .cls-2-4-8, .cls-6-4-8 {
        fill: #dcdddd;
      }

      .cls-3-4-8 {
        stroke: #595757;
      }

      .cls-3-4-8, .cls-5-4-8 {
        fill: #791a24;
      }

      .cls-4-4-8 {
        fill: #231815;
      }

      .cls-5-4-8 {
        opacity: .2;
      }

      .cls-6-4-8 {
        font-family: KozGoPr6N-Regular-90ms-RKSJ-H, 'Kozuka Gothic Pr6N';
        font-size: 14px;
      }
    </style>
  </defs>
  <g id="_レイヤー_6" data-name="レイヤー 6">
    
  </g>
  <g id="_レイヤー_5" data-name="レイヤー 5">
    <rect class="cls-5-4-8" x="6.54" y="6.16" width="130.2" height="109.59"/>
    <rect class="cls-5-4-8" x="6.54" y="115.75" width="103.16" height="435.13"/>
    <rect class="cls-5-4-8" x="274.76" y="6.16" width="138.02" height="109.59"/>
    <rect class="cls-5-4-8" x="305.14" y="117.46" width="107.55" height="433.21"/>
    <rect class="cls-5-4-8" x="305.24" y="548.96" width="107.55" height="198.45"/>
    <rect class="cls-5-4-8" x="6.54" y="627.74" width="103.16" height="119.67"/>
    <rect class="cls-2-4-8" x="136.74" y="294.25" width="138.75" height="143.78"/>
  </g>
  <g id="_レイヤー_2" data-name="レイヤー 2">
    <path class="cls-1-4-8" d="m412.79,625.21v121.95c-135,1-270-1-405,1-2-39-1-79-1-117.91"/>
    <polyline class="cls-1-4-8" points="254.71 634.29 277.22 634.29 277.22 710.48 258.06 710.48"/>
    <line class="cls-1-4-8" x1="217.93" y1="634.29" x2="238.01" y2="634.29"/>
    <line class="cls-1-4-8" x1="178.82" y1="634.29" x2="202.07" y2="634.29"/>
    <polyline class="cls-1-4-8" points="245.82 710.48 141.6 710.48 141.6 634.29 162.6 634.29"/>
    <polyline class="cls-1-4-8" points="217.93 634.29 230.12 634.29 230.12 676.29 190.34 676.29 190.34 634.29 202.07 634.29"/>
    <polyline class="cls-1-4-8" points="178.82 634.29 190.45 634.29 190.45 676.29 150.57 676.29 150.57 634.29 162.6 634.29"/>
    <polyline class="cls-1-4-8" points="254.71 634.29 263.53 634.29 263.53 676.29 230.12 676.29 230.12 634.29 238.01 634.29"/>
    <polyline class="cls-1-4-8" points="246.45 710.48 190.34 710.48 190.34 676.29 263.53 676.29 263.53 710.48 257.19 710.48"/>
    <rect class="cls-1-4-8" x="141.6" y="543.26" width="47.79" height="43.34"/>
    <polyline class="cls-1-4-8" points="219.09 586.61 230.12 586.61 230.12 543.26 189.4 543.26 189.4 586.61 201.28 586.61"/>
    <rect class="cls-1-4-8" x="230.12" y="543.26" width="45.4" height="43.34"/>
    <polyline class="cls-1-4-8" points="180.3 485.22 197.19 485.22 197.19 543.26 149.87 543.26 149.87 485.22 170.47 485.22"/>
    <polyline class="cls-1-4-8" points="240.25 485.22 266.05 485.22 266.05 543.26 224.29 543.26 224.29 485.22 228.93 485.22"/>
    <line class="cls-1-4-8" x1="197.19" y1="485.22" x2="213.82" y2="485.22"/>
    <rect class="cls-1-4-8" x="136.74" y="6.16" width="138.75" height="457.03"/>
    <rect class="cls-1-4-8" x="136.74" y="294.25" width="138.03" height="143.78"/>
    <rect class="cls-1-4-8" x="6.54" y="287.95" width="103.16" height="85.95"/>
    <rect class="cls-1-4-8" x="6.54" y="373.91" width="103.16" height="43.36"/>
    <rect class="cls-1-4-8" x="6.54" y="417.27" width="103.16" height="44.66"/>
    <rect class="cls-1-4-8" x="6.54" y="461.93" width="103.16" height="89.57"/>
    <rect class="cls-1-4-8" x="6.54" y="665.84" width="103.16" height="81.57"/>
    <rect class="cls-1-4-8" x="305.24" y="247.1" width="107.55" height="40.54"/>
    <rect class="cls-1-4-8" x="305.24" y="287.64" width="107.55" height="85.94"/>
    <rect class="cls-1-4-8" x="305.24" y="373.58" width="107.55" height="89.61"/>
    <rect class="cls-1-4-8" x="305.24" y="463.19" width="107.55" height="43.56"/>
    <polyline class="cls-1-4-8" points="412.79 548.96 305.24 548.96 305.24 506.75 412.79 506.75 412.79 548.96"/>
    <path class="cls-1-4-8" d="m109.7,594.91v-43.42H44.85v76.25h64.85v-5.35h-42.81c-1.8-.59-5.25-2.04-7.15-5.45-1.19-2.12-1.27-4.1-1.43-7.75-.16-3.68-.24-5.68.72-7.87,1.84-4.2,6.17-5.97,7.87-6.56,14.27.05,28.54.1,42.81.15Z"/>
    <polyline class="cls-1-4-8" points="412.79 628.03 305.24 628.03 305.24 667.72 412.79 667.72 412.79 628.03"/>
    <rect class="cls-1-4-8" x="305.24" y="667.72" width="107.55" height="79.69"/>
    <rect class="cls-4-4-8" x="263.53" y="634.29" width="13.69" height="76.18"/>
    <rect class="cls-4-4-8" x="141.6" y="634.29" width="8.96" height="76.18"/>
    <rect class="cls-4-4-8" x="146.09" y="676.29" width="44.26" height="34.19"/>
    <rect class="cls-4-4-8" x="141.6" y="543.26" width="48.84" height="43.82"/>
    <rect class="cls-4-4-8" x="230.12" y="543.26" width="45.4" height="43.34"/>
    <rect class="cls-4-4-8" x="136.74" y="438.02" width="138.75" height="25.16"/>
    <rect class="cls-4-4-8" x="136.74" y="6.16" width="138.03" height="288.09"/>
    <rect class="cls-1-4-8" x="6.54" y="627.74" width="103.16" height="38.1"/>
    <rect class="cls-1-4-8" x="6.54" y="6.16" width="130.2" height="109.59"/>
    <rect class="cls-1-4-8" x="6.54" y="206.24" width="103.16" height="81.71"/>
    <rect class="cls-1-4-8" x="6.54" y="161.73" width="103.16" height="82.78"/>
    <rect class="cls-1-4-8" x="6.54" y="115.75" width="103.16" height="45.97"/>
    <rect class="cls-1-4-8" x="6.54" y="74.48" width="93.47" height="41.27"/>
    <rect class="cls-1-4-8" x="100" y="6.16" width="36.73" height="109.59"/>
    <rect class="cls-1-4-8" x="305.24" y="548.96" width="107.55" height="78.78"/>
    <rect class="cls-1-4-8" x="305.24" y="588.35" width="107.55" height="79.37"/>
    <rect class="cls-1-4-8" x="275.52" y="6.16" width="137.27" height="109.59"/>
    <rect class="cls-1-4-8" x="305.24" y="115.75" width="107.55" height="131.34"/>
    <rect class="cls-1-4-8" x="305.24" y="203.12" width="107.55" height="43.98"/>
    <rect class="cls-1-4-8" x="305.24" y="6.16" width="107.55" height="68.32"/>
    <rect class="cls-1-4-8" x="274.76" y="6.16" width="30.48" height="27.14"/>
    <rect class="cls-1-4-8" x="15.35" y="550.89" width="29.5" height="77.15"/>
  </g>
  <g id="_4810" data-name="4810">
    <rect class="cls-3-4-8" x="305.14" y="118.09" width="107.55" height="85.78"/>
    <text class="cls-6-4-8" transform="translate(330.5 170.12)"><tspan x="0" y="0">０８１０</tspan></text>
  </g>
</svg>