<?xml version="1.0" encoding="UTF-8"?>
<svg xmlns="http://www.w3.org/2000/svg" xmlns:xlink="http://www.w3.org/1999/xlink" viewBox="0 0 540.69 583.34">
  <defs>
    <style>
      .cls-1-5-1 {
        glyph-orientation-vertical: 0deg;
        text-orientation: upright;
        writing-mode: tb;
      }

      .cls-2-5-1, .cls-3-5-1, .cls-4-5-1, .cls-5-5-1 {
        stroke: #040000;
        stroke-miterlimit: 10;
        stroke-width: 2px;
      }

      .cls-2-5-1, .cls-6-5-1 {
        fill: #fff;
      }

      .cls-7-5-1 {
        letter-spacing: 0em;
      }

      .cls-8-5-1 {
        letter-spacing: -.29em;
      }

      .cls-9-5-1 {
        letter-spacing: -.05em;
      }

      .cls-10-5-1 {
        letter-spacing: -.06em;
      }

      .cls-11-5-1, .cls-12-5-1 {
        fill: #dcdddd;
      }

      .cls-11-5-1, .cls-13-5-1 {
        font-size: 12px;
      }

      .cls-11-5-1, .cls-13-5-1, .cls-14-5-1 {
        font-family: KozGoPr6N-Regular-90ms-RKSJ-H, 'Kozuka Gothic Pr6N';
      }

      .cls-3-5-1 {
        fill: #761923;
      }

      .cls-6-5-1, .cls-12-5-1 {
        stroke-width: 0px;
      }

      .cls-4-5-1, .cls-13-5-1, .cls-14-5-1 {
        fill: #231815;
      }

      .cls-15-5-1 {
        letter-spacing: -.12em;
      }

      .cls-14-5-1 {
        font-size: 7.08px;
      }

      .cls-16-5-1 {
        letter-spacing: -.04em;
      }

      .cls-17-5-1 {
        letter-spacing: -.06em;
      }

      .cls-5-5-1 {
        fill: none;
      }

      .cls-18-5-1 {
        letter-spacing: -.09em;
      }
    </style>
  </defs>
  <g id="yonkoudai">
    <polygon class="cls-6-5-1" points="227.85 284.33 227.85 329.38 241.54 323.65 241.54 284.33 227.85 284.33"/>
    
    <polygon class="cls-2-5-1" points="221.58 45.76 221.58 343.97 140.04 343.97 140.04 396.02 221.58 396.02 221.58 576.96 5.73 576.96 5.73 7.23 194.77 7.23 194.77 45.76 221.58 45.76"/>
    <polyline class="cls-5-5-1" points="221.58 343.97 221.58 359.83 215.69 359.83"/>
    <polyline class="cls-5-5-1" points="215.55 380.64 221.58 380.64 221.58 396.02"/>
    <line class="cls-5-5-1" x1="140.04" y1="369.99" x2="184.39" y2="369.99"/>
    <polyline class="cls-5-5-1" points="205.66 369.99 205.66 359.58 184.39 359.58 184.39 380.85 205.66 380.85"/>
    <line class="cls-5-5-1" x1="366.86" y1="265.03" x2="312.79" y2="265.03"/>
    <rect class="cls-2-5-1" x="465.93" y="285.16" width="68.62" height="225.09"/>
    <line class="cls-5-5-1" x1="446.71" y1="310.04" x2="446.71" y2="306.59"/>
    <line class="cls-5-5-1" x1="343.03" y1="396.02" x2="335.1" y2="396.02"/>
    <line class="cls-5-5-1" x1="367.85" y1="396.02" x2="351.8" y2="396.02"/>
    <line class="cls-5-5-1" x1="393.05" y1="396.02" x2="376.63" y2="396.02"/>
    <line class="cls-5-5-1" x1="409.85" y1="396.02" x2="401.45" y2="396.02"/>
    <line class="cls-5-5-1" x1="446.71" y1="339.84" x2="446.71" y2="337.53"/>
    <line class="cls-5-5-1" x1="446.71" y1="318.82" x2="446.71" y2="329.04"/>
    <line class="cls-5-5-1" x1="446.71" y1="323.21" x2="412.21" y2="323.21"/>
    <line class="cls-5-5-1" x1="359.83" y1="372.62" x2="359.83" y2="396.02"/>
    <line class="cls-5-5-1" x1="384.84" y1="372.62" x2="384.84" y2="396.02"/>
    <line class="cls-5-5-1" x1="376.63" y1="417.48" x2="392.48" y2="417.48"/>
    <polyline class="cls-5-5-1" points="367.85 417.48 358.83 417.48 358.83 442.71"/>
    <line class="cls-5-5-1" x1="332.57" y1="417.48" x2="331.28" y2="417.48"/>
    <line class="cls-5-5-1" x1="415.64" y1="452.66" x2="409.17" y2="452.66"/>
    <line class="cls-5-5-1" x1="427.75" y1="452.66" x2="420.14" y2="452.66"/>
    <polyline class="cls-5-5-1" points="427.75 417.48 409.17 417.48 401.45 417.48"/>
    <line class="cls-5-5-1" x1="346.41" y1="419.94" x2="331.28" y2="419.94"/>
    <line class="cls-5-5-1" x1="409.17" y1="442.71" x2="409.17" y2="417.48"/>
    <line class="cls-5-5-1" x1="384.84" y1="417.48" x2="384.84" y2="442.71"/>
    <line class="cls-5-5-1" x1="383.69" y1="265.03" x2="375.23" y2="265.03"/>
    <polygon class="cls-2-5-1" points="534.55 82.04 534.55 265.03 383.69 265.03 383.69 241.35 303.51 241.35 303.6 265.03 291.62 265.03 291.62 118.64 316.33 118.64 316.33 82.04 534.55 82.04"/>
    <line class="cls-5-5-1" x1="358.77" y1="241.34" x2="358.77" y2="265.03"/>
    <polygon class="cls-4-5-1" points="442.39 433.73 442.39 452.66 427.75 452.66 427.75 417.48 439.53 417.48 439.53 433.73 442.39 433.73"/>
    <polygon class="cls-4-5-1" points="409.17 442.71 409.17 452.66 291.62 452.66 291.62 417.48 331.28 417.48 331.28 419.94 313.68 419.94 313.68 442.71 409.17 442.71"/>
    <polygon class="cls-4-5-1" points="412.22 339.84 446.71 339.84 446.71 396.02 409.85 396.02 409.85 372.62 335.1 372.62 335.1 396.02 291.62 396.02 291.62 285.16 446.71 285.16 446.71 306.59 412.22 306.59 412.22 339.84"/>
    <line class="cls-5-5-1" x1="442.39" y1="489.57" x2="409.17" y2="489.57"/>
    <line class="cls-5-5-1" x1="452.5" y1="489.57" x2="465.92" y2="489.57"/>
    <line class="cls-5-5-1" x1="302.18" y1="489.57" x2="249.34" y2="489.57"/>
    <line class="cls-5-5-1" x1="234.54" y1="489.57" x2="221.58" y2="489.57"/>
    <line class="cls-5-5-1" x1="291.62" y1="396.02" x2="291.62" y2="417.48"/>
    <line class="cls-5-5-1" x1="221.58" y1="145.27" x2="248.81" y2="145.27"/>
    <line class="cls-5-5-1" x1="262.71" y1="145.27" x2="291.62" y2="145.27"/>
    <line class="cls-5-5-1" x1="291.62" y1="265.03" x2="291.62" y2="285.16"/>
    <line class="cls-5-5-1" x1="465.93" y1="510.25" x2="452.5" y2="510.25"/>
    <line class="cls-5-5-1" x1="442.39" y1="510.25" x2="409.17" y2="510.25"/>
    <line class="cls-5-5-1" x1="534.55" y1="265.03" x2="534.55" y2="285.16"/>
    <line class="cls-5-5-1" x1="291.62" y1="118.64" x2="262.71" y2="118.64"/>
    <line class="cls-5-5-1" x1="248.81" y1="118.64" x2="221.58" y2="118.64"/>
    <line class="cls-5-5-1" x1="221.58" y1="509.6" x2="274.34" y2="509.6"/>
    <line class="cls-5-5-1" x1="287.95" y1="509.6" x2="302.18" y2="509.6"/>
    <line class="cls-5-5-1" x1="140.04" y1="343.97" x2="5.73" y2="343.97"/>
    <line class="cls-5-5-1" x1="221.58" y1="468.89" x2="5.73" y2="468.89"/>
    <line class="cls-5-5-1" x1="37.12" y1="343.97" x2="37.12" y2="468.89"/>
    <line class="cls-5-5-1" x1="140.04" y1="396.02" x2="140.04" y2="468.89"/>
    <polyline class="cls-5-5-1" points="170.76 396.02 170.76 428.15 140.04 428.15"/>
    <polyline class="cls-5-5-1" points="37.12 413.62 75.52 413.62 75.52 468.89"/>
    <line class="cls-5-5-1" x1="37.12" y1="432.45" x2="75.52" y2="432.45"/>
    <polyline class="cls-5-5-1" points="465.93 452.66 488.39 452.66 488.39 479.35 465.92 479.35"/>
    <polyline class="cls-5-5-1" points="415.42 265.03 415.42 229.07 291.62 229.07"/>
    <text class="cls-13-5-1" transform="translate(63.79 523.15)"><tspan class="cls-9-5-1" x="0" y="0">も</tspan><tspan x="11.4" y="0">の</tspan><tspan class="cls-16-5-1" x="23.4" y="0">づ</tspan><tspan class="cls-8-5-1" x="34.92" y="0">く</tspan><tspan class="cls-15-5-1" x="43.44" y="0">り</tspan><tspan class="cls-10-5-1" x="54" y="0">セ</tspan><tspan class="cls-18-5-1" x="65.28" y="0">ン</tspan><tspan class="cls-17-5-1" x="76.2" y="0">タ</tspan><tspan class="cls-7-5-1" x="87.48" y="0">ー</tspan></text>
    <text class="cls-14-5-1" transform="translate(470.08 467.92)"><tspan x="0" y="0">受付</tspan></text>
    <text class="cls-13-5-1" transform="translate(392.48 178.13)"><tspan x="0" y="0">業務施設</tspan></text>
    <text class="cls-1-5-1"/>
  </g>
  <g id="_5100" data-name="5100">
    <rect class="cls-3-5-1" x="302.19" y="488.97" width="106.98" height="67.17"/>
    <text class="cls-11-5-1" transform="translate(343.68 525.8)"><tspan x="0" y="0">古着</tspan></text>
  </g>
</svg>