<?xml version="1.0" encoding="UTF-8"?>
<svg xmlns="http://www.w3.org/2000/svg" viewBox="0 0 248.17 231.7">
  <defs>
    <style>
      .cls-1-5-3, .cls-2-5-3 {
        fill: none;
      }

      .cls-1-5-3, .cls-3-5-3 {
        stroke: #231815;
        stroke-miterlimit: 10;
      }

      .cls-4-5-3 {
        font-size: 6.07px;
      }

      .cls-4-5-3, .cls-5-5-3, .cls-3-5-3 {
        fill: #231815;
      }

      .cls-4-5-3, .cls-6-5-3 {
        font-family: KozGoPr6N-Regular-90ms-RKSJ-H, 'Kozuka Gothic Pr6N';
      }

      .cls-5-5-3, .cls-7-5-3, .cls-8-5-3, .cls-9-5-3, .cls-2-5-3, .cls-10-5-3 {
        stroke-width: 0px;
      }

      .cls-7-5-3 {
        opacity: .2;
      }

      .cls-7-5-3, .cls-9-5-3 {
        fill: #761923;
      }

      .cls-8-5-3 {
        fill: #bc2021;
      }

      .cls-6-5-3 {
        fill: #fff;
        font-size: 8px;
      }

      .cls-10-5-3 {
        fill: #2d3e69;
      }
    </style>
  </defs>
  <g id="_5304" data-name="5304">
    <rect class="cls-9-5-3" x="166.72" y="124.19" width="59.52" height="37.91"/>
    <text class="cls-6-5-3" transform="translate(180.47 144.89)"><tspan x="0" y="0">５３０４</tspan></text>
  </g>
  <g id="_5303" data-name="5303">
    <rect class="cls-9-5-3" x="151.09" y="189.05" width="75.14" height="41.87"/>
    <text class="cls-6-5-3" transform="translate(172.66 210.98)"><tspan x="0" y="0">５３０３</tspan></text>
    <text/>
  </g>
  <g id="_5302" data-name="5302">
    <rect class="cls-9-5-3" x="75.95" y="189.05" width="75.14" height="41.87"/>
    <text class="cls-6-5-3" transform="translate(97.52 210.98)"><tspan x="0" y="0">５３０２</tspan></text>
  </g>
  <g id="_5301" data-name="5301">
    <rect class="cls-9-5-3" x=".8" y="188.91" width="75.14" height="41.87"/>
    <text class="cls-6-5-3" transform="translate(22.37 210.98)"><tspan x="0" y="0">５３０１</tspan></text>
  </g>
  <g id="_レイヤー_1" data-name="レイヤー 1">
    <polygon class="cls-5-5-3" points="85.54 94.28 85.54 111 108.66 111 108.66 123.9 201.18 123.9 201.18 111 201.18 109.09 201.18 94.28 85.54 94.28"/>
    <rect class="cls-7-5-3" x=".8" y="123.63" width="41.87" height="52.71"/>
    <rect class="cls-7-5-3" x="49.46" y=".44" width="54.51" height="93.84"/>
    <rect class="cls-1-5-3" x=".8" y=".44" width="246.83" height="93.84"/>
    <rect class="cls-1-5-3" x="207.55" y="162.09" width="18.68" height="2.71"/>
    <rect class="cls-1-5-3" x="219.22" y="164.8" width="7.01" height="19.34"/>
    <rect class="cls-1-5-3" x="207.55" y="184.15" width="18.68" height="4.64"/>
    <line class="cls-1-5-3" x1="207.55" y1="164.8" x2="207.55" y2="181.49"/>
    <line class="cls-1-5-3" x1="155.87" y1="175.28" x2="161.64" y2="175.28"/>
    <line class="cls-1-5-3" x1="140.76" y1="175.28" x2="152.2" y2="175.28"/>
    <line class="cls-1-5-3" x1="98.48" y1="175.28" x2="129.53" y2="175.28"/>
    <polyline class="cls-1-5-3" points="165.48 175.28 166.72 175.28 166.72 123.9 83.26 123.9 83.26 141.28"/>
    <polyline class="cls-1-5-3" points="155.87 175.28 160.05 175.28 160.05 165.82 150.81 165.82 150.81 175.28 152.2 175.28"/>
    <polyline class="cls-1-5-3" points="140.76 156 140.76 151.21 150.81 151.21"/>
    <polyline class="cls-1-5-3" points="140.76 160.1 140.76 175.28 150.81 175.28 150.81 123.9 140.76 123.9 140.76 147.85"/>
    <line class="cls-1-5-3" x1="150.81" y1="163.56" x2="140.76" y2="163.56"/>
    <line class="cls-1-5-3" x1="150.81" y1="128.9" x2="140.76" y2="128.9"/>
    <rect class="cls-1-5-3" x="106.62" y="123.9" width="22.91" height="51.39"/>
    <line class="cls-1-5-3" x1="71.55" y1="163.95" x2="59.9" y2="163.95"/>
    <line class="cls-1-5-3" x1="83.18" y1="175.28" x2="71.55" y2="175.28"/>
    <line class="cls-1-5-3" x1="61.01" y1="175.28" x2="61.01" y2="177.03"/>
    <line class="cls-1-5-3" x1="83.18" y1="123.9" x2="81.12" y2="123.9"/>
    <text class="cls-4-5-3" transform="translate(161.67 51.77)"><tspan x="0" y="0">業務施設</tspan></text>
    <polyline class="cls-1-5-3" points="71.55 172.41 71.55 175.28 59.9 175.28 59.9 163.95 71.55 163.95 71.55 168.52"/>
    <polyline class="cls-1-5-3" points="71.55 161.08 71.55 163.95 59.9 163.95 59.9 152.62 71.55 152.62 71.55 157.18"/>
    <line class="cls-1-5-3" x1="83.26" y1="163.95" x2="94.91" y2="163.95"/>
    <polyline class="cls-1-5-3" points="83.26 155.49 83.26 152.62 94.91 152.62 94.91 163.95 83.26 163.95 83.26 159.38"/>
    <polyline class="cls-1-5-3" points="83.26 166.82 83.26 163.95 94.91 163.95 94.91 175.28 83.26 175.28 83.26 170.72"/>
    <polyline class="cls-1-5-3" points="83.26 144.15 83.26 141.28 94.91 141.28 94.91 152.62 83.26 152.62 83.26 148.05"/>
    <path class="cls-10-5-3" d="m101.41,146.1c0,.36-.29.65-.65.65s-.65-.29-.65-.65.29-.65.65-.65.65.29.65.65Z"/>
    <path class="cls-10-5-3" d="m100.76,146.96c-.46,0-1.55.04-1.55.94v2.15c0,.14.1.26.24.27.14,0,.26-.1.27-.24l.12-1.3.13,4.85c0,.18.15.33.33.33s.33-.15.33-.33l.13-2.98.13,2.98c0,.18.15.33.33.33s.33-.15.33-.33l.13-4.85.12,1.3c0,.14.13.25.27.24s.25-.13.24-.27v-2.15c0-.9-1.09-.94-1.55-.94Z"/>
    <path class="cls-8-5-3" d="m158.65,146.64c.36,0,.65-.29.65-.65s-.29-.65-.65-.65-.65.29-.65.65.29.65.65.65Z"/>
    <path class="cls-8-5-3" d="m160.52,149.76l-.51-1.89c-.21-.87-.89-1-1.35-1s-1.14.13-1.35,1l-.51,1.89c-.05.13.02.28.15.33.13.05.28-.02.33-.15l.51-1.44.13.66-.64,2.02h.94s.05.63.05.63l.07,1.7c0,.18.15.33.33.33s.33-.15.33-.33l.07-1.7.05-.63h.94s-.64-2.02-.64-2.02l.13-.66.51,1.44c.05.13.2.2.33.15.13-.05.2-.2.15-.33Z"/>
    <path class="cls-5-5-3" d="m67.61,139.56c0,.24-.19.43-.43.43s-.43-.19-.43-.43.19-.43.43-.43.43.19.43.43Z"/>
    <polygon class="cls-5-5-3" points="69.75 144.2 68.21 144.2 68.21 144.75 66.83 144.75 66.83 145.29 65.49 145.29 65.49 145.84 64.15 145.84 64.15 146.39 62.81 146.39 62.81 146.94 61.96 146.94 61.96 147.63 63.59 147.63 63.59 147.06 64.92 147.06 64.92 146.52 66.25 146.52 66.25 145.97 67.59 145.97 67.59 145.43 68.93 145.43 68.93 144.9 69.75 144.9 69.75 144.2"/>
    <path class="cls-5-5-3" d="m67.7,142.21c-.32-.21-.63-.41-.67-.44.11-.54.21-1.03.26-1.33,0,0,.04-.27-.17-.31-.3-.06-.72.17-1.2.53-.05.04-.13.1-.16.21-.03.1-.14.69-.2.94-.02.09.03.19.13.21.09.02.18-.03.21-.13.07-.21.2-.65.22-.68.02-.04.21-.19.21-.19l-.36,3.66c0,.11.09.19.19.21.12.01.22-.08.24-.2,0,0,.24-1.06.47-2.15l.41.19-.21,1.06c-.03.1.02.21.12.25.1.03.21-.02.25-.12,0,0,.37-.9.42-1.06.05-.17.18-.43-.15-.64Z"/>
    <g>
      <path class="cls-5-5-3" d="m63.93,140.78c0,.24-.19.43-.43.43s-.43-.19-.43-.43.19-.43.43-.43.43.19.43.43Z"/>
      <path class="cls-5-5-3" d="m64.9,143.24s-.06-.47-.12-.76c-.02-.07-.04-.13-.09-.22-.17-.29-.41-.63-.63-.75-.35-.18-.69-.08-.86.2-.17.3-.39.78-1,1.18-.08.05-.14.12-.11.21.03.09.12.14.21.11.01,0,.02,0,.03-.01.13-.06.65-.3.83-.59l-.15,3.28c-.01.12.07.23.19.25.12.01.22-.08.24-.2l.68-3.63s.22.18.27.33c.04.1.11.39.16.65,0,0,0,0,0,0,.02.1.1.16.19.15.09-.01.16-.1.15-.19Z"/>
      <path class="cls-5-5-3" d="m64.99,144.75l-1.21-.98-.1.7,1.06.61c.09.07.22.05.29-.04.07-.09.05-.22-.04-.29Z"/>
    </g>
    <g>
      <path class="cls-5-5-3" d="m88.15,146.62c0,.2-.16.35-.35.35s-.35-.16-.35-.35.16-.35.35-.35.35.16.35.35Z"/>
      <path class="cls-5-5-3" d="m87.79,147.06c-.25,0-.84.02-.84.51v1.17c0,.08.06.14.13.14.08,0,.14-.06.14-.13l.07-.71.07,2.64c0,.1.08.18.18.18s.18-.08.18-.18l.07-1.62.07,1.62c0,.1.08.18.18.18s.18-.08.18-.18l.07-2.64.07.71c0,.08.07.13.14.13.08,0,.13-.07.13-.14v-1.17c0-.49-.59-.51-.84-.51Z"/>
    </g>
    <g>
      <path class="cls-5-5-3" d="m90.31,146.62c0,.2-.16.35-.35.35s-.35-.16-.35-.35.16-.35.35-.35.35.16.35.35Z"/>
      <path class="cls-5-5-3" d="m89.95,147.06c-.25,0-.84.02-.84.51v1.17c0,.08.06.14.13.14.08,0,.14-.06.14-.13l.07-.71.07,2.64c0,.1.08.18.18.18s.18-.08.18-.18l.07-1.62.07,1.62c0,.1.08.18.18.18s.18-.08.18-.18l.07-2.64.07.71c0,.08.07.13.14.13.08,0,.13-.07.13-.14v-1.17c0-.49-.59-.51-.84-.51Z"/>
    </g>
    <path class="cls-5-5-3" d="m91.19,151.12h-4.64c-.36,0-.65-.29-.65-.65v-4.97c0-.36.29-.65.65-.65h4.64c.36,0,.65.29.65.65v4.97c0,.36-.29.65-.65.65Zm-4.64-5.86c-.13,0-.24.11-.24.24v4.97c0,.13.11.24.24.24h4.64c.13,0,.24-.11.24-.24v-4.97c0-.13-.11-.24-.24-.24h-4.64Z"/>
    <path class="cls-5-5-3" d="m90.96,143.54l-.79-.79h0s-.13-.13-.13-.13l-.13.13h0s-.79.79-.79.79c-.07.07-.07.18,0,.25.07.07.18.07.25,0l.49-.49v1.09c0,.1.08.18.18.18s.18-.08.18-.18v-1.09s.49.49.49.49c.04.04.08.05.13.05s.09-.02.13-.05c.07-.07.07-.18,0-.25Z"/>
    <path class="cls-5-5-3" d="m88.7,143.48c-.07-.07-.18-.07-.25,0l-.49.49v-1.09c0-.1-.08-.18-.18-.18s-.18.08-.18.18v1.09s-.49-.49-.49-.49c-.07-.07-.18-.07-.25,0-.07.07-.07.18,0,.25l.79.79h0s.13.13.13.13l.13-.13h0s.79-.79.79-.79c.07-.07.07-.18,0-.25Z"/>
    <line class="cls-1-5-3" x1="71.55" y1="168.52" x2="71.55" y2="161.08"/>
    <polyline class="cls-1-5-3" points="59.9 175.28 71.55 175.28 71.55 172.41"/>
    <line class="cls-1-5-3" x1="71.55" y1="157.18" x2="71.55" y2="152.62"/>
    <g>
      <path class="cls-5-5-3" d="m88.15,158.04c0,.2-.16.35-.35.35s-.35-.16-.35-.35.16-.35.35-.35.35.16.35.35Z"/>
      <path class="cls-5-5-3" d="m87.79,158.48c-.25,0-.84.02-.84.51v1.17c0,.08.06.14.13.14.08,0,.14-.06.14-.13l.07-.71.07,2.64c0,.1.08.18.18.18s.18-.08.18-.18l.07-1.62.07,1.62c0,.1.08.18.18.18s.18-.08.18-.18l.07-2.64.07.71c0,.08.07.13.14.13.08,0,.13-.07.13-.14v-1.17c0-.49-.59-.51-.84-.51Z"/>
    </g>
    <g>
      <path class="cls-5-5-3" d="m90.31,158.04c0,.2-.16.35-.35.35s-.35-.16-.35-.35.16-.35.35-.35.35.16.35.35Z"/>
      <path class="cls-5-5-3" d="m89.95,158.48c-.25,0-.84.02-.84.51v1.17c0,.08.06.14.13.14.08,0,.14-.06.14-.13l.07-.71.07,2.64c0,.1.08.18.18.18s.18-.08.18-.18l.07-1.62.07,1.62c0,.1.08.18.18.18s.18-.08.18-.18l.07-2.64.07.71c0,.08.07.13.14.13.08,0,.13-.07.13-.14v-1.17c0-.49-.59-.51-.84-.51Z"/>
    </g>
    <path class="cls-5-5-3" d="m91.19,162.54h-4.64c-.36,0-.65-.29-.65-.65v-4.97c0-.36.29-.65.65-.65h4.64c.36,0,.65.29.65.65v4.97c0,.36-.29.65-.65.65Zm-4.64-5.86c-.13,0-.24.11-.24.24v4.97c0,.13.11.24.24.24h4.64c.13,0,.24-.11.24-.24v-4.97c0-.13-.11-.24-.24-.24h-4.64Z"/>
    <path class="cls-5-5-3" d="m90.96,154.95l-.79-.79h0s-.13-.13-.13-.13l-.13.13h0s-.79.79-.79.79c-.07.07-.07.18,0,.25.07.07.18.07.25,0l.49-.49v1.09c0,.1.08.18.18.18s.18-.08.18-.18v-1.09s.49.49.49.49c.04.04.08.05.13.05s.09-.02.13-.05c.07-.07.07-.18,0-.25Z"/>
    <path class="cls-5-5-3" d="m88.7,154.89c-.07-.07-.18-.07-.25,0l-.49.49v-1.09c0-.1-.08-.18-.18-.18s-.18.08-.18.18v1.09s-.49-.49-.49-.49c-.07-.07-.18-.07-.25,0-.07.07-.07.18,0,.25l.79.79h0s.13.13.13.13l.13-.13h0s.79-.79.79-.79c.07-.07.07-.18,0-.25Z"/>
    <g>
      <path class="cls-5-5-3" d="m88.15,169.37c0,.2-.16.35-.35.35s-.35-.16-.35-.35.16-.35.35-.35.35.16.35.35Z"/>
      <path class="cls-5-5-3" d="m87.79,169.81c-.25,0-.84.02-.84.51v1.17c0,.08.06.14.13.14.08,0,.14-.06.14-.13l.07-.71.07,2.64c0,.1.08.18.18.18s.18-.08.18-.18l.07-1.62.07,1.62c0,.1.08.18.18.18s.18-.08.18-.18l.07-2.64.07.71c0,.08.07.13.14.13.08,0,.13-.07.13-.14v-1.17c0-.49-.59-.51-.84-.51Z"/>
    </g>
    <g>
      <path class="cls-5-5-3" d="m90.31,169.37c0,.2-.16.35-.35.35s-.35-.16-.35-.35.16-.35.35-.35.35.16.35.35Z"/>
      <path class="cls-5-5-3" d="m89.95,169.81c-.25,0-.84.02-.84.51v1.17c0,.08.06.14.13.14.08,0,.14-.06.14-.13l.07-.71.07,2.64c0,.1.08.18.18.18s.18-.08.18-.18l.07-1.62.07,1.62c0,.1.08.18.18.18s.18-.08.18-.18l.07-2.64.07.71c0,.08.07.13.14.13.08,0,.13-.07.13-.14v-1.17c0-.49-.59-.51-.84-.51Z"/>
    </g>
    <path class="cls-5-5-3" d="m91.19,173.87h-4.64c-.36,0-.65-.29-.65-.65v-4.97c0-.36.29-.65.65-.65h4.64c.36,0,.65.29.65.65v4.97c0,.36-.29.65-.65.65Zm-4.64-5.86c-.13,0-.24.11-.24.24v4.97c0,.13.11.24.24.24h4.64c.13,0,.24-.11.24-.24v-4.97c0-.13-.11-.24-.24-.24h-4.64Z"/>
    <path class="cls-5-5-3" d="m90.96,166.29l-.79-.79h0s-.13-.13-.13-.13l-.13.13h0s-.79.79-.79.79c-.07.07-.07.18,0,.25.07.07.18.07.25,0l.49-.49v1.09c0,.1.08.18.18.18s.18-.08.18-.18v-1.09s.49.49.49.49c.04.04.08.05.13.05s.09-.02.13-.05c.07-.07.07-.18,0-.25Z"/>
    <path class="cls-5-5-3" d="m88.7,166.23c-.07-.07-.18-.07-.25,0l-.49.49v-1.09c0-.1-.08-.18-.18-.18s-.18.08-.18.18v1.09s-.49-.49-.49-.49c-.07-.07-.18-.07-.25,0-.07.07-.07.18,0,.25l.79.79h0s.13.13.13.13l.13-.13h0s.79-.79.79-.79c.07-.07.07-.18,0-.25Z"/>
    <g>
      <path class="cls-5-5-3" d="m65.13,157.72c0,.2-.16.35-.35.35s-.35-.16-.35-.35.16-.35.35-.35.35.16.35.35Z"/>
      <path class="cls-5-5-3" d="m64.77,158.16c-.25,0-.84.02-.84.51v1.17c0,.08.06.14.13.14.08,0,.14-.06.14-.13l.07-.71.07,2.64c0,.1.08.18.18.18s.18-.08.18-.18l.07-1.62.07,1.62c0,.1.08.18.18.18s.18-.08.18-.18l.07-2.64.07.71c0,.08.07.13.14.13.08,0,.13-.07.13-.14v-1.17c0-.49-.59-.51-.84-.51Z"/>
    </g>
    <g>
      <path class="cls-5-5-3" d="m67.29,157.72c0,.2-.16.35-.35.35s-.35-.16-.35-.35.16-.35.35-.35.35.16.35.35Z"/>
      <path class="cls-5-5-3" d="m66.93,158.16c-.25,0-.84.02-.84.51v1.17c0,.08.06.14.13.14.08,0,.14-.06.14-.13l.07-.71.07,2.64c0,.1.08.18.18.18s.18-.08.18-.18l.07-1.62.07,1.62c0,.1.08.18.18.18s.18-.08.18-.18l.07-2.64.07.71c0,.08.07.13.14.13.08,0,.13-.07.13-.14v-1.17c0-.49-.59-.51-.84-.51Z"/>
    </g>
    <path class="cls-5-5-3" d="m68.17,162.22h-4.64c-.36,0-.65-.29-.65-.65v-4.97c0-.36.29-.65.65-.65h4.64c.36,0,.65.29.65.65v4.97c0,.36-.29.65-.65.65Zm-4.64-5.86c-.13,0-.24.11-.24.24v4.97c0,.13.11.24.24.24h4.64c.13,0,.24-.11.24-.24v-4.97c0-.13-.11-.24-.24-.24h-4.64Z"/>
    <path class="cls-5-5-3" d="m67.94,154.64l-.79-.79h0s-.13-.13-.13-.13l-.13.13h0s-.79.79-.79.79c-.07.07-.07.18,0,.25.07.07.18.07.25,0l.49-.49v1.09c0,.1.08.18.18.18s.18-.08.18-.18v-1.09s.49.49.49.49c.04.04.08.05.13.05s.09-.02.13-.05c.07-.07.07-.18,0-.25Z"/>
    <path class="cls-5-5-3" d="m65.69,154.58c-.07-.07-.18-.07-.25,0l-.49.49v-1.09c0-.1-.08-.18-.18-.18s-.18.08-.18.18v1.09s-.49-.49-.49-.49c-.07-.07-.18-.07-.25,0-.07.07-.07.18,0,.25l.79.79h0s.13.13.13.13l.13-.13h0s.79-.79.79-.79c.07-.07.07-.18,0-.25Z"/>
    <g>
      <path class="cls-5-5-3" d="m65.13,169.76c0,.2-.16.35-.35.35s-.35-.16-.35-.35.16-.35.35-.35.35.16.35.35Z"/>
      <path class="cls-5-5-3" d="m64.77,170.2c-.25,0-.84.02-.84.51v1.17c0,.08.06.14.13.14.08,0,.14-.06.14-.13l.07-.71.07,2.64c0,.1.08.18.18.18s.18-.08.18-.18l.07-1.62.07,1.62c0,.1.08.18.18.18s.18-.08.18-.18l.07-2.64.07.71c0,.08.07.13.14.13.08,0,.13-.07.13-.14v-1.17c0-.49-.59-.51-.84-.51Z"/>
    </g>
    <g>
      <path class="cls-5-5-3" d="m67.29,169.76c0,.2-.16.35-.35.35s-.35-.16-.35-.35.16-.35.35-.35.35.16.35.35Z"/>
      <path class="cls-5-5-3" d="m66.93,170.2c-.25,0-.84.02-.84.51v1.17c0,.08.06.14.13.14.08,0,.14-.06.14-.13l.07-.71.07,2.64c0,.1.08.18.18.18s.18-.08.18-.18l.07-1.62.07,1.62c0,.1.08.18.18.18s.18-.08.18-.18l.07-2.64.07.71c0,.08.07.13.14.13.08,0,.13-.07.13-.14v-1.17c0-.49-.59-.51-.84-.51Z"/>
    </g>
    <path class="cls-5-5-3" d="m68.17,174.25h-4.64c-.36,0-.65-.29-.65-.65v-4.97c0-.36.29-.65.65-.65h4.64c.36,0,.65.29.65.65v4.97c0,.36-.29.65-.65.65Zm-4.64-5.86c-.13,0-.24.11-.24.24v4.97c0,.13.11.24.24.24h4.64c.13,0,.24-.11.24-.24v-4.97c0-.13-.11-.24-.24-.24h-4.64Z"/>
    <path class="cls-5-5-3" d="m67.94,166.67l-.79-.79h0s-.13-.13-.13-.13l-.13.13h0s-.79.79-.79.79c-.07.07-.07.18,0,.25.07.07.18.07.25,0l.49-.49v1.09c0,.1.08.18.18.18s.18-.08.18-.18v-1.09s.49.49.49.49c.04.04.08.05.13.05s.09-.02.13-.05c.07-.07.07-.18,0-.25Z"/>
    <path class="cls-5-5-3" d="m65.69,166.61c-.07-.07-.18-.07-.25,0l-.49.49v-1.09c0-.1-.08-.18-.18-.18s-.18.08-.18.18v1.09s-.49-.49-.49-.49c-.07-.07-.18-.07-.25,0-.07.07-.07.18,0,.25l.79.79h0s.13.13.13.13l.13-.13h0s.79-.79.79-.79c.07-.07.07-.18,0-.25Z"/>
    <polyline class="cls-1-5-3" points="71.55 148.78 71.55 133.78 59.9 133.78 59.9 152.62 71.55 152.62"/>
    <polyline class="cls-1-5-3" points="108.66 123.9 108.66 111 85.54 111 85.54 117.68"/>
    <polyline class="cls-1-5-3" points="85.54 117.68 85.54 103.01 85.54 103.01 85.54 96.29 85.54 96.29 85.54 94.28 201.18 94.28 201.18 123.9 85.54 123.9"/>
    <path class="cls-5-5-3" d="m99.46,113.87c0,.24-.19.43-.43.43s-.43-.19-.43-.43.19-.43.43-.43.43.19.43.43Z"/>
    <polygon class="cls-5-5-3" points="101.6 118.5 100.06 118.5 100.06 119.05 98.68 119.05 98.68 119.6 97.34 119.6 97.34 120.14 96 120.14 96 120.69 94.66 120.69 94.66 121.24 93.81 121.24 93.81 121.94 95.44 121.94 95.44 121.37 96.77 121.37 96.77 120.82 98.1 120.82 98.1 120.28 99.44 120.28 99.44 119.73 100.78 119.73 100.78 119.2 101.6 119.2 101.6 118.5"/>
    <path class="cls-5-5-3" d="m99.55,116.51c-.32-.21-.63-.41-.67-.44.11-.54.21-1.03.26-1.33,0,0,.04-.27-.17-.31-.3-.06-.72.17-1.2.53-.05.04-.13.1-.16.21-.03.1-.14.69-.2.94-.02.09.03.19.13.21.09.02.18-.03.21-.13.07-.21.2-.65.22-.68.02-.04.21-.19.21-.19l-.36,3.66c0,.11.09.19.19.21.12.01.22-.08.24-.2,0,0,.24-1.06.47-2.15l.41.19-.21,1.06c-.03.1.02.21.12.25.1.03.21-.02.25-.12,0,0,.37-.9.42-1.06.05-.17.18-.43-.15-.64Z"/>
    <g>
      <path class="cls-5-5-3" d="m95.78,115.08c0,.24-.19.43-.43.43s-.43-.19-.43-.43.19-.43.43-.43.43.19.43.43Z"/>
      <path class="cls-5-5-3" d="m96.75,117.55s-.06-.47-.12-.76c-.02-.07-.04-.13-.09-.22-.17-.29-.41-.63-.63-.75-.35-.18-.69-.08-.86.2-.17.3-.39.78-1,1.18-.08.05-.14.12-.11.21.03.09.12.14.21.11.01,0,.02,0,.03-.01.13-.06.65-.3.83-.59l-.15,3.28c-.01.12.07.23.19.25.12.01.22-.08.24-.2l.68-3.63s.22.18.27.33c.04.1.11.39.16.65,0,0,0,0,0,0,.02.1.1.16.19.15.09-.01.16-.1.15-.19Z"/>
      <path class="cls-5-5-3" d="m96.84,119.05l-1.21-.98-.1.7,1.06.61c.09.07.22.05.29-.04.07-.09.05-.22-.04-.29Z"/>
    </g>
    <path class="cls-5-5-3" d="m147.55,136.8c0,.24-.19.43-.43.43s-.43-.19-.43-.43.19-.43.43-.43.43.19.43.43Z"/>
    <polygon class="cls-5-5-3" points="149.68 141.44 148.14 141.44 148.14 141.99 146.76 141.99 146.76 142.53 145.42 142.53 145.42 143.08 144.08 143.08 144.08 143.62 142.75 143.62 142.75 144.17 141.9 144.17 141.9 144.87 143.52 144.87 143.52 144.3 144.85 144.3 144.85 143.76 146.19 143.76 146.19 143.21 147.53 143.21 147.53 142.67 148.87 142.67 148.87 142.14 149.68 142.14 149.68 141.44"/>
    <path class="cls-5-5-3" d="m147.64,139.45c-.32-.21-.63-.41-.67-.44.11-.54.21-1.03.26-1.33,0,0,.04-.27-.17-.31-.3-.06-.72.17-1.2.53-.05.04-.13.1-.16.21-.03.1-.14.69-.2.94-.02.09.03.19.13.21.09.02.18-.03.21-.13.07-.21.2-.65.22-.68.02-.04.21-.19.21-.19l-.36,3.66c0,.11.09.19.19.21.12.01.22-.08.24-.2,0,0,.24-1.06.47-2.15l.41.19-.21,1.06c-.03.1.02.21.12.25.1.03.21-.02.25-.12,0,0,.37-.9.42-1.06.05-.17.18-.43-.15-.64Z"/>
    <g>
      <path class="cls-5-5-3" d="m143.87,138.02c0,.24-.19.43-.43.43s-.43-.19-.43-.43.19-.43.43-.43.43.19.43.43Z"/>
      <path class="cls-5-5-3" d="m144.84,140.48s-.06-.47-.12-.76c-.02-.07-.04-.13-.09-.22-.17-.29-.41-.63-.63-.75-.35-.18-.69-.08-.86.2-.17.3-.39.78-1,1.18-.08.05-.14.12-.11.21.03.09.12.14.21.11.01,0,.02,0,.03-.01.13-.06.65-.3.83-.59l-.15,3.28c-.01.12.07.23.19.25.12.01.22-.08.24-.2l.68-3.63s.22.18.27.33c.04.1.11.39.16.65,0,0,0,0,0,0,.02.1.1.16.19.15.09-.01.16-.1.15-.19Z"/>
      <path class="cls-5-5-3" d="m144.92,141.99l-1.21-.98-.1.7,1.06.61c.09.07.22.05.29-.04.07-.09.05-.22-.04-.29Z"/>
    </g>
    <g>
      <path class="cls-5-5-3" d="m144.9,157.19c0,.2-.16.35-.35.35s-.35-.16-.35-.35.16-.35.35-.35.35.16.35.35Z"/>
      <path class="cls-5-5-3" d="m144.55,157.63c-.25,0-.84.02-.84.51v1.17c0,.08.06.14.13.14.08,0,.14-.06.14-.13l.07-.71.07,2.64c0,.1.08.18.18.18s.18-.08.18-.18l.07-1.62.07,1.62c0,.1.08.18.18.18s.18-.08.18-.18l.07-2.64.07.71c0,.08.07.13.14.13.08,0,.13-.07.13-.14v-1.17c0-.49-.59-.51-.84-.51Z"/>
    </g>
    <g>
      <path class="cls-5-5-3" d="m147.07,157.19c0,.2-.16.35-.35.35s-.35-.16-.35-.35.16-.35.35-.35.35.16.35.35Z"/>
      <path class="cls-5-5-3" d="m146.71,157.63c-.25,0-.84.02-.84.51v1.17c0,.08.06.14.13.14.08,0,.14-.06.14-.13l.07-.71.07,2.64c0,.1.08.18.18.18s.18-.08.18-.18l.07-1.62.07,1.62c0,.1.08.18.18.18s.18-.08.18-.18l.07-2.64.07.71c0,.08.07.13.14.13.08,0,.13-.07.13-.14v-1.17c0-.49-.59-.51-.84-.51Z"/>
    </g>
    <path class="cls-5-5-3" d="m147.95,161.69h-4.64c-.36,0-.65-.29-.65-.65v-4.97c0-.36.29-.65.65-.65h4.64c.36,0,.65.29.65.65v4.97c0,.36-.29.65-.65.65Zm-4.64-5.86c-.13,0-.24.11-.24.24v4.97c0,.13.11.24.24.24h4.64c.13,0,.24-.11.24-.24v-4.97c0-.13-.11-.24-.24-.24h-4.64Z"/>
    <path class="cls-5-5-3" d="m147.72,154.11l-.79-.79h0s-.13-.13-.13-.13l-.13.13h0s-.79.79-.79.79c-.07.07-.07.18,0,.25.07.07.18.07.25,0l.49-.49v1.09c0,.1.08.18.18.18s.18-.08.18-.18v-1.09s.49.49.49.49c.04.04.08.05.13.05s.09-.02.13-.05c.07-.07.07-.18,0-.25Z"/>
    <path class="cls-5-5-3" d="m145.46,154.05c-.07-.07-.18-.07-.25,0l-.49.49v-1.09c0-.1-.08-.18-.18-.18s-.18.08-.18.18v1.09s-.49-.49-.49-.49c-.07-.07-.18-.07-.25,0-.07.07-.07.18,0,.25l.79.79h0s.13.13.13.13l.13-.13h0s.79-.79.79-.79c.07-.07.07-.18,0-.25Z"/>
    <path class="cls-5-5-3" d="m215.2,171.47c0,.24-.19.43-.43.43s-.43-.19-.43-.43.19-.43.43-.43.43.19.43.43Z"/>
    <polygon class="cls-5-5-3" points="217.33 176.1 215.79 176.1 215.79 176.65 214.41 176.65 214.41 177.2 213.08 177.2 213.08 177.74 211.74 177.74 211.74 178.29 210.4 178.29 210.4 178.84 209.55 178.84 209.55 179.54 211.18 179.54 211.18 178.97 212.5 178.97 212.5 178.42 213.84 178.42 213.84 177.87 215.18 177.87 215.18 177.33 216.52 177.33 216.52 176.8 217.33 176.8 217.33 176.1"/>
    <path class="cls-5-5-3" d="m215.29,174.11c-.32-.21-.63-.41-.67-.44.11-.54.21-1.03.26-1.33,0,0,.04-.27-.17-.31-.3-.06-.72.17-1.2.53-.05.04-.13.1-.16.21-.03.1-.14.69-.2.94-.02.09.03.19.13.21.09.02.18-.03.21-.13.07-.21.2-.65.22-.68.02-.04.21-.19.21-.19l-.36,3.66c0,.11.09.19.19.21.12.01.22-.08.24-.2,0,0,.24-1.06.47-2.15l.41.19-.21,1.06c-.03.1.02.21.12.25.1.03.21-.02.25-.12,0,0,.37-.9.42-1.06.05-.17.18-.43-.15-.64Z"/>
    <g>
      <path class="cls-5-5-3" d="m211.52,172.68c0,.24-.19.43-.43.43s-.43-.19-.43-.43.19-.43.43-.43.43.19.43.43Z"/>
      <path class="cls-5-5-3" d="m212.49,175.14s-.06-.47-.12-.76c-.02-.07-.04-.13-.09-.22-.17-.29-.41-.63-.63-.75-.35-.18-.69-.08-.86.2-.17.3-.39.78-1,1.18-.08.05-.14.12-.11.21.03.09.12.14.21.11.01,0,.02,0,.03-.01.13-.06.65-.3.83-.59l-.15,3.28c-.01.12.07.23.19.25.12.01.22-.08.24-.2l.68-3.63s.22.18.27.33c.04.1.11.39.16.65,0,0,0,0,0,0,.02.1.1.16.19.15.09-.01.16-.1.15-.19Z"/>
      <path class="cls-5-5-3" d="m212.57,176.65l-1.21-.98-.1.7,1.06.61c.09.07.22.05.29-.04.07-.09.05-.22-.04-.29Z"/>
    </g>
    <line class="cls-1-5-3" x1="103.96" y1=".44" x2="103.96" y2="94.28"/>
    <rect class="cls-2-5-3" x="103.96" y=".44" width="143.67" height="93.84"/>
    <rect class="cls-3-5-3" x="59.9" y="123.9" width="11.64" height="9.88"/>
    <rect class="cls-1-5-3" x=".8" y="123.9" width="41.87" height="52.45"/>
    <line class="cls-1-5-3" x1="38.82" y1="94.28" x2="38.82" y2="123.9"/>
    <rect class="cls-3-5-3" x=".8" y=".44" width="48.65" height="93.84"/>
    <rect class="cls-1-5-3" x="84.24" y="37.56" width="19.72" height="56.72"/>
    <text class="cls-4-5-3" transform="translate(88.73 68.97)"><tspan x="0" y="0">売店</tspan></text>
    <text class="cls-4-5-3" transform="translate(60.96 41.61)"><tspan x="0" y="0">学生</tspan><tspan x="-6.07" y="10.62">ラウンジ</tspan></text>
    <polyline class="cls-1-5-3" points="226.23 188.78 226.23 231.19 56.29 231.19 .8 231.19 .8 176.35"/>
    <rect class="cls-1-5-3" x=".8" y="188.78" width="75.14" height="42.41"/>
    <rect class="cls-1-5-3" x="75.95" y="188.78" width="75.14" height="42.41"/>
    <rect class="cls-1-5-3" x="151.09" y="188.78" width="75.14" height="42.41"/>
    <polyline class="cls-1-5-3" points="207.55 162.09 226.23 162.09 226.23 123.9 166.72 123.9 166.72 162.09"/>
    <line class="cls-1-5-3" x1="170.28" y1="162.09" x2="204" y2="162.09"/>
  </g>
</svg>