<?xml version="1.0" encoding="UTF-8"?>
<svg xmlns="http://www.w3.org/2000/svg" xmlns:xlink="http://www.w3.org/1999/xlink" viewBox="0 0 190 283">
  <defs>
    <style>
      .cls-1-5-8, .cls-2-5-8, .cls-3-5-8, .cls-4-5-8 {
        stroke-width: 0px;
      }

      .cls-1-5-8, .cls-5-5-8 {
        fill: none;
      }

      .cls-6-5-8 {
        fill: #231815;
      }

      .cls-6-5-8, .cls-5-5-8, .cls-7-5-8 {
        stroke: #231815;
        stroke-miterlimit: 10;
        stroke-width: .75px;
      }

      .cls-8-5-8 {
        clip-path: url(#clippath-1);
      }

      .cls-2-5-8, .cls-4-5-8 {
        fill: #791a24;
      }

      .cls-9-5-8 {
        clip-path: url(#clippath);
      }

      .cls-3-5-8, .cls-7-5-8 {
        fill: rgba(121, 26, 36, .2);
      }

      .cls-4-5-8 {
        opacity: .2;
      }

      .cls-10-5-8 {
        fill: #dbdcdc;
        font-family: KozGoPr6N-Regular-90ms-RKSJ-H, 'Kozuka Gothic Pr6N';
        font-size: 6.39px;
      }
    </style>
    <clipPath id="clippath">
      <rect class="cls-1-5-8" x="113.04" y="47.87" width="11.1" height="12.04"/>
    </clipPath>
    <clipPath id="clippath-1">
      <rect class="cls-1-5-8" x="111.87" y="160.61" width="11.1" height="12.04"/>
    </clipPath>
  </defs>
  <g id="_レイヤー_1" data-name="レイヤー 1">
    <rect class="cls-3-5-8" x="4.34" y="144.46" width="37.38" height="32.62"/>
    <rect class="cls-3-5-8" x="4.34" y="177.08" width="37.38" height="15.89"/>
    <rect class="cls-3-5-8" x="4.34" y="192.97" width="37.38" height="16.56"/>
    <rect class="cls-3-5-8" x="4.34" y="209.54" width="37.38" height="15.89"/>
    <rect class="cls-3-5-8" x="4.34" y="225.42" width="37.38" height="16.06"/>
    <rect class="cls-3-5-8" x="4.34" y="241.48" width="37.38" height="15.39"/>
    <rect class="cls-3-5-8" x="4.34" y="256.87" width="37.38" height="22.59"/>
    <polygon class="cls-3-5-8" points="98.96 177.08 98.96 189.81 89.66 189.81 89.66 210.66 53.14 210.66 53.14 177.08 98.96 177.08"/>
    <rect class="cls-3-5-8" x="53.14" y="243.14" width="10.49" height="21.2"/>
    <rect class="cls-3-5-8" x="53.14" y="210.66" width="36.52" height="32.47"/>
    <rect class="cls-3-5-8" x="120.84" y="210.96" width="19.68" height="27.09"/>
    <rect class="cls-3-5-8" x="120.84" y="192.97" width="19.68" height="17.99"/>
    <rect class="cls-3-5-8" x="149.43" y="4.49" width="37.06" height="42.61"/>
    <rect class="cls-3-5-8" x="149.43" y="47.1" width="37.06" height="32.79"/>
    <rect class="cls-3-5-8" x="149.43" y="79.89" width="37.06" height="31.94"/>
    <rect class="cls-3-5-8" x="149.43" y="111.84" width="37.06" height="32.62"/>
    <rect class="cls-3-5-8" x="149.43" y="144.46" width="37.06" height="31.95"/>
    <rect class="cls-3-5-8" x="149.43" y="192.97" width="37.06" height="15.89"/>
    <rect class="cls-3-5-8" x="149.43" y="208.86" width="37.06" height="16.56"/>
    <rect class="cls-3-5-8" x="149.43" y="225.42" width="37.06" height="16.06"/>
    <rect class="cls-3-5-8" x="149.43" y="241.48" width="37.06" height="15.39"/>
    <rect class="cls-3-5-8" x="149.43" y="256.87" width="37.06" height="22.59"/>
    <rect class="cls-3-5-8" x="120.84" y="238.05" width="19.68" height="26.28"/>
    <polygon class="cls-4-5-8" points="140.52 177.08 140.52 192.97 120.84 192.97 120.84 264.33 63.81 264.33 63.81 243.14 89.82 243.14 89.82 228.66 110.24 228.66 110.24 189.81 98.96 189.81 98.96 177.08 140.52 177.08"/>
    <polygon class="cls-3-5-8" points="140.52 4.49 140.52 46.25 96.62 46.25 96.62 31.18 96.67 31.18 96.67 4.49 140.52 4.49"/>
    <rect class="cls-3-5-8" x="53.51" y="31.18" width="43.11" height="15.07"/>
    <rect class="cls-3-5-8" x="73.02" y="4.49" width="23.6" height="26.69"/>
    <rect class="cls-3-5-8" x="53.51" y="4.49" width="19.51" height="26.69"/>
    <rect class="cls-3-5-8" x="4.34" y="4.49" width="37.38" height="40.51"/>
    <rect class="cls-3-5-8" x="4.34" y="45.01" width="37.38" height="33.7"/>
    <rect class="cls-3-5-8" x="4.34" y="78.71" width="37.38" height="33.13"/>
    <rect class="cls-7-5-8" x="96.62" y="4.49" width=".05" height="26.69"/>
    <polygon class="cls-5-5-8" points="75.91 46.25 75.91 61.01 62.09 61.01 62.09 58.66 64.86 58.66 64.86 49.02 53.51 49.02 53.51 46.25 75.91 46.25"/>
    <polyline class="cls-5-5-8" points="62.09 58.67 53.51 58.67 53.51 60.47"/>
    <line class="cls-5-5-8" x1="53.51" y1="49.02" x2="53.51" y2="51.74"/>
    <line class="cls-5-5-8" x1="79.79" y1="61.01" x2="75.91" y2="61.01"/>
    <line class="cls-5-5-8" x1="89.82" y1="61.01" x2="84.61" y2="61.01"/>
    <line class="cls-5-5-8" x1="129.38" y1="61.01" x2="110.24" y2="61.01"/>
    <polyline class="cls-5-5-8" points="98.91 61.01 103.43 61.01 103.43 52.85 105.21 52.85 105.21 46.25"/>
    <polyline class="cls-5-5-8" points="89.82 46.25 89.82 61.01 94.11 61.01"/>
    <line class="cls-5-5-8" x1="105.21" y1="61.01" x2="103.43" y2="61.01"/>
    <line class="cls-5-5-8" x1="93.62" y1="77.37" x2="85.02" y2="77.37"/>
    <line class="cls-5-5-8" x1="107.12" y1="77.37" x2="99.32" y2="77.37"/>
    <polyline class="cls-5-5-8" points="79.62 77.37 75.92 77.37 75.92 91.89 117.42 91.89 117.42 77.37 113.22 77.37"/>
    <line class="cls-5-5-8" x1="89.82" y1="91.89" x2="89.82" y2="77.37"/>
    <line class="cls-5-5-8" x1="103.22" y1="77.37" x2="103.22" y2="113.47"/>
    <polyline class="cls-5-5-8" points="117.42 77.37 125.72 77.37 125.72 79.43"/>
    <polyline class="cls-5-5-8" points="75.92 77.37 66.62 77.37 66.62 79.43"/>
    <polygon class="cls-5-5-8" points="140.52 46.25 140.52 59.79 131.97 59.79 131.97 61.01 129.38 61.01 129.38 46.25 140.52 46.25"/>
    <polygon class="cls-5-5-8" points="140.52 75.34 140.52 141.97 133.1 141.97 133.1 143.83 53.14 143.83 53.14 96.72 63.81 96.72 63.81 112.85 128.81 112.85 128.81 85.54 131.09 85.54 131.09 75.34 140.52 75.34"/>
    <polyline class="cls-5-5-8" points="125.72 84.63 125.72 85.53 128.81 85.53"/>
    <polyline class="cls-5-5-8" points="63.81 96.72 63.81 85.83 66.62 85.83 66.62 84.63"/>
    <polyline class="cls-5-5-8" points="63.81 85.83 59.52 85.83 59.52 75.24 53.51 75.24 53.51 88.9"/>
    <line class="cls-7-5-8" x1="89.66" y1="228.66" x2="89.61" y2="228.66"/>
    <polygon class="cls-6-5-8" points="140.52 159.46 140.52 177.08 53.14 177.08 53.14 159.46 89.66 159.46 89.66 173.17 129.19 173.17 129.19 159.46 140.52 159.46"/>
    <line class="cls-5-5-8" x1="94.74" y1="159.46" x2="89.66" y2="159.46"/>
    <polyline class="cls-5-5-8" points="105.5 173.17 105.5 166.31 104.05 166.31 104.05 159.46 98.96 159.46"/>
    <polyline class="cls-5-5-8" points="105.8 159.46 104.05 159.46 104.05 166.31 105.5 166.31 105.5 173.17"/>
    <line class="cls-5-5-8" x1="129.19" y1="159.46" x2="110.96" y2="159.46"/>
    <path class="cls-5-5-8" d="m140.52,4.49v55.3h-8.55v1.21h-2.59v-14.76h-53.46v14.76h-13.83v-2.34h2.77v-9.64h-11.35V4.49h-11.79v274.96h107.72V4.49h-8.92Zm0,259.84H53.14v-104.87h36.52v13.71h39.54v-13.71h11.32v104.87Zm0-122.36h-7.42v1.86H53.14v-47.11h10.67v16.13h65v-27.31h2.28v-10.2h9.43v66.63Z"/>
    
    <polygon class="cls-6-5-8" points="140.52 75.34 140.52 141.82 133.2 141.82 133.2 142.14 129.98 142.14 129.98 143.83 53.14 143.83 53.14 96.67 63.81 96.67 63.81 113.38 128.99 113.38 128.99 85.51 130.76 85.51 130.76 75.34 140.52 75.34"/>
    <rect class="cls-6-5-8" x="129.98" y="142.14" width="3.12" height="1.68"/>
    <rect class="cls-3-5-8" x="89.66" y="189.81" width="9.3" height="38.85"/>
    <rect class="cls-3-5-8" x="149.43" y="176.41" width="37.06" height="16.56"/>
    <rect class="cls-3-5-8" x="98.96" y="189.81" width="10.84" height="38.85"/>
    <g class="cls-9-5-8">
      
    </g>
    <g class="cls-8-5-8">
      
    </g>
    <line class="cls-5-5-8" x1="4.34" y1="279.46" x2="4.34" y2="4.49"/>
    <line class="cls-5-5-8" x1="4.34" y1="4.49" x2="41.72" y2="4.49"/>
    <line class="cls-5-5-8" x1="4.34" y1="279.46" x2="41.72" y2="279.46"/>
    <line class="cls-5-5-8" x1="4.34" y1="45.01" x2="41.72" y2="45.01"/>
    <line class="cls-5-5-8" x1="4.34" y1="78.71" x2="41.72" y2="78.71"/>
    <line class="cls-5-5-8" x1="3.98" y1="111.84" x2="41.68" y2="111.84"/>
    <line class="cls-5-5-8" x1="4.48" y1="144.46" x2="41.86" y2="144.46"/>
    <line class="cls-5-5-8" x1="4.34" y1="177.08" x2="41.72" y2="177.08"/>
    <line class="cls-5-5-8" x1="4.34" y1="192.97" x2="41.72" y2="192.97"/>
    <line class="cls-5-5-8" x1="4.34" y1="209.54" x2="41.72" y2="209.54"/>
    <line class="cls-5-5-8" x1="4.34" y1="225.42" x2="41.72" y2="225.42"/>
    <line class="cls-5-5-8" x1="4.34" y1="241.48" x2="41.72" y2="241.48"/>
    <line class="cls-5-5-8" x1="4.34" y1="256.87" x2="41.72" y2="256.87"/>
    <line class="cls-5-5-8" x1="149.43" y1="4.49" x2="186.5" y2="4.49"/>
    <line class="cls-5-5-8" x1="149.43" y1="279.46" x2="186.5" y2="279.46"/>
    <line class="cls-5-5-8" x1="186.5" y1="4.49" x2="186.5" y2="279.46"/>
    <line class="cls-5-5-8" x1="149.43" y1="47.1" x2="186.5" y2="47.1"/>
    <line class="cls-5-5-8" x1="149.43" y1="79.89" x2="186.5" y2="79.89"/>
    <line class="cls-5-5-8" x1="149.43" y1="111.84" x2="186.5" y2="111.84"/>
    <line class="cls-5-5-8" x1="149.43" y1="144.46" x2="186.5" y2="144.46"/>
    <line class="cls-5-5-8" x1="149.43" y1="176.41" x2="186.5" y2="176.41"/>
    <line class="cls-5-5-8" x1="149.43" y1="192.97" x2="186.5" y2="192.97"/>
    <line class="cls-5-5-8" x1="149.43" y1="208.86" x2="186.5" y2="208.86"/>
    <line class="cls-5-5-8" x1="149.43" y1="225.42" x2="186.5" y2="225.42"/>
    <line class="cls-5-5-8" x1="149.43" y1="241.48" x2="186.5" y2="241.48"/>
    <line class="cls-5-5-8" x1="149.43" y1="256.87" x2="186.5" y2="256.87"/>
    <line class="cls-5-5-8" x1="53.51" y1="4.49" x2="140.52" y2="4.49"/>
    <line class="cls-5-5-8" x1="73.02" y1="4.49" x2="73.02" y2="31.18"/>
    <line class="cls-5-5-8" x1="53.51" y1="31.18" x2="96.62" y2="31.18"/>
    <line class="cls-5-5-8" x1="96.62" y1="46.25" x2="96.62" y2="31.18"/>
    <line class="cls-5-5-8" x1="98.96" y1="177.08" x2="98.96" y2="228.66"/>
    <line class="cls-5-5-8" x1="63.81" y1="264.33" x2="63.81" y2="243.14"/>
    <line class="cls-5-5-8" x1="53.14" y1="243.14" x2="89.66" y2="243.14"/>
    <line class="cls-5-5-8" x1="53.14" y1="210.66" x2="89.66" y2="210.66"/>
    <line class="cls-5-5-8" x1="89.66" y1="189.81" x2="89.66" y2="243.14"/>
    <line class="cls-5-5-8" x1="109.8" y1="189.81" x2="89.66" y2="189.81"/>
    <line class="cls-5-5-8" x1="109.8" y1="228.66" x2="89.61" y2="228.66"/>
    <line class="cls-5-5-8" x1="110.24" y1="189.81" x2="109.8" y2="228.66"/>
    <line class="cls-5-5-8" x1="140.52" y1="192.97" x2="120.84" y2="192.97"/>
    <line class="cls-5-5-8" x1="120.84" y1="264.33" x2="120.84" y2="192.97"/>
    <line class="cls-5-5-8" x1="140.52" y1="210.96" x2="120.84" y2="210.96"/>
    <line class="cls-5-5-8" x1="140.52" y1="238.05" x2="120.84" y2="238.05"/>
  </g>
  <a href="javascript:void(0);" onclick="description(this);" class="maplink">
  <g id="_5804" data-name="5804">
    <rect class="cls-2-5-8" x="4.48" y="111.84" width="37.38" height="32.62"/>
    <text class="cls-10-5-8" transform="translate(10.13 129.88) scale(1.02 1)"><tspan x="0" y="0">５８０４</tspan></text>
  </g>
  </a>
</svg>