<?xml version="1.0" encoding="UTF-8"?>
<svg xmlns="http://www.w3.org/2000/svg" version="1.1" viewBox="0 0 728.5 515.91">
  <defs>
    <style>
      .cls-1 {
        letter-spacing: .25em;
      }

      .cls-2, .cls-3, .cls-4, .cls-5, .cls-6, .cls-7, .cls-8, .cls-9 {
        stroke-miterlimit: 10;
      }

      .cls-2, .cls-4 {
        fill: none;
      }

      .cls-2, .cls-4, .cls-5, .cls-7 {
        stroke: #000;
      }

      .cls-3 {
        fill: #2e3192;
      }

      .cls-3, .cls-9 {
        stroke: #2e3192;
      }

      .cls-10, .cls-9 {
        fill: #fff;
      }

      .cls-4, .cls-7 {
        stroke-width: 8px;
      }

      .cls-5 {
        fill: #9e9c9a;
      }

      .cls-6 {
        fill: #e62c81;
        font-family: AB-countryroad-90ms-RKSJ-H, AB-countryroad;
        font-size: 119px;
        stroke-width: 6px;
      }

      .cls-6, .cls-8 {
        stroke: #4ab134;
      }

      .cls-8 {
        fill: #ff0;
      }
    </style>
  </defs>
  <!-- Generator: Adobe Illustrator 28.7.1, SVG Export Plug-In . SVG Version: 1.2.0 Build 142)  -->
  <g>
    <g id="_レイヤー_1" data-name="レイヤー_1">
      <rect class="cls-5" x="-1.41" y="2.46" width="729.88" height="515.24"/>
      <circle class="cls-3" cx="154.68" cy="415.27" r="57.93"/>
      <polygon class="cls-9" points="195.01 410.79 182.38 402.58 170.66 412.06 174.56 397.5 161.93 389.29 176.98 388.51 180.88 373.95 186.28 388.02 201.33 387.24 189.61 396.72 195.01 410.79"/>
      <polygon class="cls-9" points="122.37 448.8 114.7 443.84 107.61 449.6 109.96 440.78 102.29 435.82 111.41 435.32 113.76 426.5 117.05 435.02 126.17 434.52 119.08 440.28 122.37 448.8"/>
      <polygon class="cls-8" points="495.54 343.79 413.4 276.03 452.46 375.09 395.28 285.27 401.81 391.55 375.19 288.45 348.56 391.55 355.1 285.27 297.91 375.09 336.97 276.03 254.83 343.79 322.59 261.65 223.53 300.71 313.36 243.53 207.07 250.06 310.17 223.44 207.07 196.81 313.36 203.35 223.53 146.16 322.59 185.22 254.83 103.08 336.97 170.84 297.91 71.78 355.1 161.6 348.56 55.32 375.19 158.42 401.81 55.32 395.28 161.6 452.46 71.78 413.4 170.84 495.54 103.08 427.79 185.22 526.85 146.16 437.02 203.35 543.3 196.81 440.2 223.44 543.3 250.06 437.02 243.53 526.85 300.71 427.79 261.65 495.54 343.79"/>
      <polygon class="cls-9" points="170.54 459.78 167.66 450.93 158.36 450.93 165.88 445.46 163.01 436.62 170.54 442.08 178.06 436.62 175.19 445.46 182.71 450.93 173.41 450.93 170.54 459.78"/>
      <polygon class="cls-10" points="128.17 410.76 133.76 404.39 129.36 396.76 137.21 400.45 142.8 394.08 142.07 402.73 149.93 406.43 141.62 408.08 140.89 416.73 136.48 409.1 128.17 410.76"/>
      <polygon class="cls-10" points="152.24 378.68 145.27 374.43 139.07 379.74 140.96 371.8 133.99 367.54 142.13 366.89 144.02 358.94 147.16 366.48 155.31 365.83 149.1 371.14 152.24 378.68"/>
      <polygon class="cls-10" points="204.07 442.1 199.05 439.54 195.06 443.52 195.94 437.96 190.92 435.4 196.49 434.51 197.37 428.94 199.93 433.97 205.5 433.09 201.51 437.07 204.07 442.1"/>
      <text class="cls-6" transform="translate(183.09 210.84)"><tspan class="cls-1" x="0" y="0">1</tspan><tspan x="125.31" y="0">年生</tspan><tspan x="62.65" y="133">企画</tspan></text>
      <path class="cls-4" d="M638.22,353.07s-24.32-25.65-98.78,48.17c-70.73,70.12-46.34,90.85-46.34,90.85"/>
      <path class="cls-4" d="M635.78,356.12"/>
      <path class="cls-7" d="M562.61,423.2"/>
      <line class="cls-2" x1="490.05" y1="489.05" x2="635.78" y2="351.24"/>
      <line class="cls-2" x1="522.37" y1="358.56" x2="644.32" y2="492.1"/>
      <line class="cls-2" x1="527.85" y1="378.68" x2="521.76" y2="356.73"/>
      <line class="cls-2" x1="543.1" y1="367.71" x2="523.59" y2="357.95"/>
    </g>
  </g>
</svg>