<?xml version="1.0" encoding="UTF-8"?>
<svg xmlns="http://www.w3.org/2000/svg" version="1.1" viewBox="0 0 595.28 841.89">
  <defs>
    <style>
      .cls-1 {
        stroke: #ea5514;
      }

      .cls-1, .cls-2, .cls-3, .cls-4, .cls-5, .cls-6 {
        stroke-miterlimit: 10;
      }

      .cls-7, .cls-8, .cls-9 {
        letter-spacing: .25em;
      }

      .cls-2 {
        stroke: #1d2088;
      }

      .cls-10, .cls-8, .cls-5, .cls-6 {
        stroke: #231815;
      }

      .cls-10, .cls-8, .cls-6 {
        fill: #fff;
      }

      .cls-11, .cls-12 {
        font-family: HGSoeiPresenceEB, HGSoeiPresenceEB;
        font-size: 36px;
      }

      .cls-3, .cls-6 {
        stroke-width: .75px;
      }

      .cls-13, .cls-4, .cls-9 {
        fill: #e72c6b;
        stroke: #094;
      }

      .cls-12, .cls-14 {
        fill: #231815;
      }

      .cls-4 {
        font-family: AB-countryroad-90ms-RKSJ-H, AB-countryroad;
        font-size: 100px;
        stroke-width: 5px;
      }

      .cls-15 {
        fill: #fff100;
      }

      .cls-5 {
        fill: #b5b5b6;
      }
    </style>
  </defs>
  <!-- Generator: Adobe Illustrator 28.7.1, SVG Export Plug-In . SVG Version: 1.2.0 Build 142)  -->
  <g>
    <g id="_レイヤー_1" data-name="レイヤー_1">
      <rect class="cls-5" x="-2.05" y=".47" width="597.89" height="845.26"/>
      <text class="cls-4" transform="translate(48.98 183.21)"><tspan class="cls-7" x="0" y="0">1</tspan><tspan x="105.3" y="0">年生企画</tspan></text>
      <polygon class="cls-15" points="54.64 834.69 160.46 593.36 -4.74 464.83 225.85 444.21 331.67 202.88 368.37 431.46 598.96 410.84 391.05 572.73 427.74 801.32 262.55 672.79 54.64 834.69"/>
      <text class="cls-12" transform="translate(93.11 250.36)"><tspan x="0" y="0">日時 11/2 </tspan><tspan class="cls-2" x="180" y="0">sat</tspan><tspan x="234" y="0" xml:space="preserve"> 11/3 </tspan><tspan class="cls-1" x="342" y="0">sun</tspan><tspan x="0" y="63">場所 </tspan><tspan class="cls-7" x="90" y="63">5</tspan><tspan x="117" y="63">号</tspan><tspan class="cls-7" x="153" y="63">館5</tspan><tspan x="225" y="63">階 0</tspan><tspan class="cls-7" x="297" y="63">2</tspan><tspan x="324" y="63">教室</tspan></text>
      <text class="cls-11" transform="translate(37.47 419.83)"><tspan class="cls-3"><tspan class="cls-10" x="0" y="0">あの毎週木曜日見てい</tspan><tspan class="cls-8" x="360" y="0">た</tspan><tspan class="cls-13" x="405" y="0">v</tspan><tspan class="cls-9" x="423" y="0">s</tspan><tspan class="cls-13" x="450" y="0">嵐</tspan><tspan class="cls-10" x="486" y="0">を</tspan></tspan><tspan class="cls-6"><tspan x="81" y="63">いくつか体験できる！</tspan></tspan><tspan class="cls-14"><tspan x="189" y="189">企画内容</tspan></tspan><tspan class="cls-14"><tspan x="99" y="252">コロコロバイキング</tspan></tspan><tspan class="cls-14"><tspan x="99" y="315">フォーリングパイプ</tspan></tspan><tspan class="cls-14"><tspan x="117" y="378">ウォールヒッター</tspan></tspan></text>
    </g>
  </g>
</svg>