<svg version="1.1" id="Layer_1" xmlns="http://www.w3.org/2000/svg" xmlns:xlink="http://www.w3.org/1999/xlink" x="0px" y="0px"
	 width="100%" viewBox="0 0 4346 2868" enable-background="new 0 0 4346 2868" xml:space="preserve">
<path fill="#FFFFFF" opacity="1.000000" stroke="none" 
	d="
M4348.000000,1030.000000 
	C4348.000000,1644.000000 4348.000000,2257.000000 4348.000000,2870.000000 
	C2899.333252,2870.000000 1450.666626,2870.000000 2.000000,2870.000000 
	C2.000000,1914.000000 2.000000,958.000000 2.000000,2.000001 
	C1450.666626,2.000000 2899.333252,2.000000 4348.000000,2.000000 
	C4348.000000,344.333344 4348.000000,686.666687 4348.000000,1030.000000 
M3635.586426,2028.384033 
	C3633.956055,2028.159180 3632.325439,2027.738159 3630.695068,2027.738159 
	C3598.774902,2027.738037 3566.854980,2027.787354 3534.605957,2026.009766 
	C3534.537598,2022.679810 3534.409424,2019.349854 3534.409424,2016.019897 
	C3534.400391,1612.779175 3534.399902,1209.538452 3534.413818,806.297729 
	C3534.414062,802.302979 3534.614014,798.308289 3536.499512,794.283020 
	C3566.793701,794.238953 3597.088623,794.254150 3627.381836,794.058777 
	C3630.390869,794.039368 3633.391846,792.735901 3637.390625,790.708496 
	C3637.534424,788.059998 3637.803711,785.411499 3637.804199,782.763000 
	C3637.824219,593.039673 3637.830322,403.316345 3637.762207,213.593018 
	C3637.760986,210.399231 3636.841797,207.205750 3635.458984,202.574738 
	C3631.487061,202.383438 3627.514893,202.024780 3623.542969,202.024582 
	C3123.270508,201.999252 2622.998291,202.000198 2122.725830,202.000031 
	C1658.115845,201.999878 1193.505859,201.996826 728.895935,202.053360 
	C725.008057,202.053833 721.120300,202.860718 716.313782,204.780411 
	C716.231323,208.108749 716.077026,211.437103 716.076782,214.765442 
	C716.065552,403.753784 716.067017,592.742126 716.069397,781.730469 
	C716.069458,784.729980 715.935242,787.744141 716.201233,790.721252 
	C716.295410,791.774902 717.398254,792.738403 719.880554,794.098145 
	C749.206787,794.115295 778.533325,794.074463 807.858826,794.226929 
	C811.313721,794.244812 814.763062,795.324036 817.978760,797.777649 
	C817.960693,802.443604 817.926758,807.109558 817.926758,811.775513 
	C817.924316,1212.400391 817.925537,1613.025391 817.911133,2013.650269 
	C817.910950,2018.312256 817.710144,2022.974365 817.651794,2027.944458 
	C817.651794,2027.944458 817.683228,2027.634155 815.858154,2027.687988 
	C804.864380,2027.696899 793.870544,2027.709351 782.876770,2027.713745 
	C771.549805,2027.718262 760.222412,2027.651367 748.896057,2027.733398 
	C738.078857,2027.811646 727.226929,2027.371704 715.999817,2028.046265 
	C715.999817,2032.417603 715.999817,2035.389282 715.999817,2038.360962 
	C715.999878,2228.586914 715.994080,2418.812744 716.049500,2609.038574 
	C716.050476,2612.280273 716.792419,2615.522217 718.591675,2619.696777 
	C721.916077,2619.799072 725.240417,2619.990723 728.564819,2619.990723 
	C1693.454712,2620.003418 2658.344727,2620.002930 3623.234619,2620.001221 
	C3626.567383,2620.001221 3629.912598,2620.139893 3633.225830,2619.879639 
	C3634.307373,2619.794678 3635.305420,2618.647461 3637.360107,2616.698486 
	C3637.512939,2613.718506 3637.799072,2610.738281 3637.799316,2607.758301 
	C3637.821289,2418.377930 3637.826172,2228.997559 3637.766846,2039.617065 
	C3637.765869,2036.391357 3636.958984,2033.165894 3635.586426,2028.384033 
z"/>
<path fill="#72726F" opacity="1.000000" stroke="none" 
	d="
M818.214966,795.911255 
	C814.763062,795.324036 811.313721,794.244812 807.858826,794.226929 
	C778.533325,794.074463 749.206787,794.115295 718.980957,793.406128 
	C718.087952,792.370667 718.094543,792.027344 719.026855,791.785095 
	C754.592590,791.902893 789.232605,791.928955 823.872681,791.934998 
	C1033.392578,791.971497 1242.912476,792.013611 1452.432373,792.033691 
	C1604.659668,792.048340 1756.886841,792.030518 1909.114136,792.039673 
	C1912.107178,792.039856 1915.100342,792.193970 1917.921387,792.830444 
	C1917.585083,793.734680 1917.420532,794.084778 1916.367920,794.369141 
	C1914.481567,794.259766 1913.483521,794.177917 1912.485352,794.177856 
	C1723.583130,794.163574 1534.680908,794.153198 1345.778687,794.165588 
	C1343.177124,794.165771 1340.575439,794.455505 1337.166138,794.658020 
	C1336.992798,798.239075 1336.698608,801.480896 1336.698486,804.722656 
	C1336.677856,1208.846924 1336.675415,1612.971191 1336.735962,2017.095459 
	C1336.736572,2020.681396 1337.601685,2024.267334 1338.025757,2028.302490 
	C1337.988403,2028.751587 1337.959351,2029.652344 1337.035156,2029.801270 
	C1165.408813,2029.963867 994.706604,2029.978149 824.004333,2029.978027 
	C822.014771,2029.978027 820.025269,2029.788818 817.973267,2029.170044 
	C817.834900,2028.312866 817.759094,2027.973511 817.683228,2027.634155 
	C817.683228,2027.634155 817.651794,2027.944458 818.420776,2027.863892 
	C820.245544,2027.724487 821.301208,2027.665649 823.258301,2027.690430 
	C993.682312,2027.774048 1163.205078,2027.774048 1332.089355,2027.774048 
	C1333.037231,2026.049683 1333.619507,2025.485107 1333.619751,2024.920288 
	C1333.770020,1618.020142 1333.882568,1211.119873 1333.970581,804.219727 
	C1333.971069,801.573608 1333.645264,798.926147 1333.426270,796.283081 
	C1333.403442,796.009521 1333.083740,795.746460 1332.870117,795.506714 
	C1332.649414,795.258850 1332.390137,795.045105 1331.487061,794.193359 
	C1328.179321,794.193359 1324.208374,794.193420 1320.237427,794.193420 
	C1157.939575,794.193420 995.641785,794.191956 833.343994,794.201538 
	C829.680298,794.201721 826.016602,794.326294 821.796387,794.436096 
	C820.231567,794.956604 819.223267,795.433899 818.214966,795.911255 
z"/>
<path fill="#7F7F7F" opacity="1.000000" stroke="none" 
	d="
M717.232483,203.291092 
	C721.120300,202.860718 725.008057,202.053833 728.895935,202.053360 
	C1193.505859,201.996826 1658.115845,201.999878 2122.725830,202.000031 
	C2622.998291,202.000198 3123.270508,201.999252 3623.542969,202.024582 
	C3627.514893,202.024780 3631.487061,202.383438 3635.197754,203.447510 
	C3634.461426,204.402618 3633.986328,204.484955 3632.614990,204.461273 
	C3628.719971,204.334930 3625.721191,204.296753 3622.722168,204.296738 
	C2658.623779,204.294434 1694.525635,204.294586 730.427307,204.300735 
	C726.429016,204.300766 722.430725,204.387466 718.134399,204.145966 
	C717.836426,203.858231 717.232483,203.291092 717.232483,203.291092 
z"/>
<path fill="#7F7F7F" opacity="1.000000" stroke="none" 
	d="
M3636.341797,2617.986084 
	C3635.305420,2618.647461 3634.307373,2619.794678 3633.225830,2619.879639 
	C3629.912598,2620.139893 3626.567383,2620.001221 3623.234619,2620.001221 
	C2658.344727,2620.002930 1693.454712,2620.003418 728.564819,2619.990723 
	C725.240417,2619.990723 721.916077,2619.799072 718.235840,2618.899902 
	C717.880066,2618.103271 718.554504,2617.439209 719.445557,2617.502686 
	C724.001038,2617.612549 727.665405,2617.699707 731.329834,2617.699707 
	C1695.061279,2617.705811 2658.792725,2617.706543 3622.524170,2617.695068 
	C3626.185547,2617.695068 3629.846680,2617.526123 3634.219482,2617.557861 
	C3635.401123,2617.781738 3635.871338,2617.883789 3636.341797,2617.986084 
z"/>
<path fill="#8D8C87" opacity="1.000000" stroke="none" 
	d="
M822.356934,2027.606934 
	C821.301208,2027.665649 820.245544,2027.724487 818.396362,2027.709839 
	C817.710144,2022.974365 817.910950,2018.312256 817.911133,2013.650269 
	C817.925537,1613.025391 817.924316,1212.400391 817.926758,811.775513 
	C817.926758,807.109558 817.960693,802.443604 818.096863,796.844421 
	C819.223267,795.433899 820.231567,794.956604 821.665161,795.327759 
	C822.039490,799.506531 821.944092,802.836914 821.944031,806.167236 
	C821.937012,1209.656250 821.936035,1613.145386 821.954102,2016.634399 
	C821.954285,2020.291870 822.216858,2023.949341 822.356934,2027.606934 
z"/>
<path fill="#285B5B" opacity="1.000000" stroke="none" 
	d="
M3534.720703,794.313538 
	C3534.614014,798.308289 3534.414062,802.302979 3534.413818,806.297729 
	C3534.399902,1209.538452 3534.400391,1612.779175 3534.409424,2016.019897 
	C3534.409424,2019.349854 3534.537598,2022.679810 3534.462402,2026.834106 
	C3534.318604,2027.658447 3533.708740,2027.849365 3533.182617,2027.875610 
	C3532.306152,2027.864014 3531.956055,2027.826172 3531.722656,2026.870728 
	C3531.915283,2022.289795 3532.057861,2018.626221 3532.058105,2014.962769 
	C3532.068115,1612.022949 3532.068359,1209.083130 3532.045654,806.143372 
	C3532.045410,802.154419 3531.725586,798.165405 3532.099609,794.122070 
	C3533.009277,794.088074 3533.373779,794.108459 3533.970947,794.243042 
	C3534.203857,794.357300 3534.720947,794.313538 3534.720703,794.313538 
z"/>
<path fill="#B5B5AD" opacity="1.000000" stroke="none" 
	d="
M3633.511230,204.567261 
	C3633.986328,204.484955 3634.461426,204.402618 3635.644043,204.166214 
	C3636.841797,207.205750 3637.760986,210.399231 3637.762207,213.593018 
	C3637.830322,403.316345 3637.824219,593.039673 3637.804199,782.763000 
	C3637.803711,785.411499 3637.534424,788.059998 3636.235352,791.271118 
	C3634.638672,791.793335 3634.197266,791.752869 3633.810059,790.796265 
	C3633.880859,597.433228 3633.898926,404.986237 3633.897705,212.539246 
	C3633.897705,209.881927 3633.645508,207.224594 3633.511230,204.567261 
z"/>
<path fill="#B5B5AD" opacity="1.000000" stroke="none" 
	d="
M3636.851074,2617.342285 
	C3635.871338,2617.883789 3635.401123,2617.781738 3634.325684,2616.667480 
	C3633.785156,2612.993652 3633.907471,2610.332275 3633.907715,2607.670654 
	C3633.916504,2418.208740 3633.916992,2228.746826 3633.907959,2039.284790 
	C3633.907715,2036.290161 3633.778809,2033.295532 3634.417969,2030.237549 
	C3635.593506,2030.096191 3636.060791,2030.018311 3636.528320,2029.940308 
	C3636.958984,2033.165894 3637.765869,2036.391357 3637.766846,2039.617065 
	C3637.826172,2228.997559 3637.821289,2418.377930 3637.799316,2607.758301 
	C3637.799072,2610.738281 3637.512939,2613.718506 3636.851074,2617.342285 
z"/>
<path fill="#7F7F7F" opacity="1.000000" stroke="none" 
	d="
M816.770691,2027.661133 
	C817.759094,2027.973511 817.834900,2028.312866 817.041138,2029.298828 
	C783.705750,2030.200928 751.225830,2029.686157 718.284241,2030.244873 
	C718.284241,2035.703003 718.284241,2039.676880 718.284241,2043.650879 
	C718.284241,2230.584473 718.282471,2417.518066 718.295593,2604.451660 
	C718.295898,2608.780762 718.464417,2613.110107 718.554504,2617.439209 
	C718.554504,2617.439209 717.880066,2618.103271 717.534363,2618.433594 
	C716.792419,2615.522217 716.050476,2612.280273 716.049500,2609.038574 
	C715.994080,2418.812744 715.999878,2228.586914 715.999817,2038.360962 
	C715.999817,2035.389282 715.999817,2032.417603 715.999817,2028.046265 
	C727.226929,2027.371704 738.078857,2027.811646 748.896057,2027.733398 
	C760.222412,2027.651367 771.549805,2027.718262 782.876770,2027.713745 
	C793.870544,2027.709351 804.864380,2027.696899 816.770691,2027.661133 
z"/>
<path fill="#7F7F7F" opacity="1.000000" stroke="none" 
	d="
M718.101135,791.684082 
	C718.094543,792.027344 718.087952,792.370667 718.060974,793.228577 
	C717.398254,792.738403 716.295410,791.774902 716.201233,790.721252 
	C715.935242,787.744141 716.069458,784.729980 716.069397,781.730469 
	C716.067017,592.742126 716.065552,403.753784 716.076782,214.765442 
	C716.077026,211.437103 716.231323,208.108749 716.773132,204.035751 
	C717.232483,203.291092 717.836426,203.858231 718.071289,205.046310 
	C718.248596,212.227280 718.141296,218.220184 718.140686,224.213074 
	C718.121094,413.370087 718.111877,602.527100 718.101135,791.684082 
z"/>
<path fill="#72726F" opacity="1.000000" stroke="none" 
	d="
M3633.755615,791.712341 
	C3634.197266,791.752869 3634.638672,791.793335 3635.738281,791.931030 
	C3633.391846,792.735901 3630.390869,794.039368 3627.381836,794.058777 
	C3597.088623,794.254150 3566.793701,794.238953 3535.610352,794.298279 
	C3534.720947,794.313538 3534.203857,794.357300 3534.047852,793.782104 
	C3533.891602,793.206848 3533.906250,792.275024 3534.843262,792.162903 
	C3568.438965,791.937988 3601.097168,791.825195 3633.755615,791.712341 
z"/>
<path fill="#7F7F7F" opacity="1.000000" stroke="none" 
	d="
M3636.057129,2029.162109 
	C3636.060791,2030.018311 3635.593506,2030.096191 3633.507812,2030.116699 
	C3599.220703,2029.940063 3566.552246,2029.821045 3533.878662,2029.235107 
	C3533.873779,2028.768311 3533.708740,2027.849365 3533.708740,2027.849365 
	C3533.708740,2027.849365 3534.318604,2027.658447 3534.626709,2027.742432 
	C3566.854980,2027.787354 3598.774902,2027.738037 3630.695068,2027.738159 
	C3632.325439,2027.738159 3633.956055,2028.159180 3636.057129,2029.162109 
z"/>
<path fill="#FFFFFF" opacity="1.000000" stroke="none" 
	d="
M3533.883545,2029.702148 
	C3566.552246,2029.821045 3599.220703,2029.940063 3632.799805,2030.180054 
	C3633.778809,2033.295532 3633.907715,2036.290161 3633.907959,2039.284790 
	C3633.916992,2228.746826 3633.916504,2418.208740 3633.907715,2607.670654 
	C3633.907471,2610.332275 3633.785156,2612.993652 3633.614258,2616.545654 
	C3629.846680,2617.526123 3626.185547,2617.695068 3622.524170,2617.695068 
	C2658.792725,2617.706543 1695.061279,2617.705811 731.329834,2617.699707 
	C727.665405,2617.699707 724.001038,2617.612549 719.445557,2617.502686 
	C718.464417,2613.110107 718.295898,2608.780762 718.295593,2604.451660 
	C718.282471,2417.518066 718.284241,2230.584473 718.284241,2043.650879 
	C718.284241,2039.676880 718.284241,2035.703003 718.284241,2030.244873 
	C751.225830,2029.686157 783.705750,2030.200928 817.103638,2029.816650 
	C820.025269,2029.788818 822.014771,2029.978027 824.004333,2029.978027 
	C994.706604,2029.978149 1165.408813,2029.963867 1337.966064,2029.942505 
	C1530.939087,2029.956909 1722.057129,2029.979980 1913.175171,2029.987915 
	C1914.833008,2029.987915 1916.490845,2029.785400 1919.070801,2029.786377 
	C2088.947754,2029.901611 2257.902344,2029.909546 2426.857178,2029.902832 
	C2429.850830,2029.902710 2432.844727,2029.726074 2436.776367,2029.781860 
	C2438.712891,2029.953613 2439.711426,2029.994141 2440.710205,2029.994141 
	C2629.862793,2029.998535 2819.015137,2030.001465 3008.167725,2029.986938 
	C3010.824219,2029.986694 3013.480469,2029.764526 3017.057617,2029.773438 
	C3188.284912,2029.913208 3358.591309,2029.926392 3528.897705,2029.928467 
	C3530.559570,2029.928467 3532.221680,2029.780762 3533.883545,2029.702148 
z"/>
<path fill="#FFFFFF" opacity="1.000000" stroke="none" 
	d="
M3633.810059,790.796265 
	C3601.097168,791.825195 3568.438965,791.937988 3533.923584,792.026611 
	C3362.738525,791.993042 3193.410645,791.982056 3024.082520,791.988647 
	C3021.424072,791.988708 3018.765381,792.203430 3015.169678,792.197388 
	C2823.439941,792.063354 2632.647705,792.049072 2441.855225,792.048523 
	C2439.862549,792.048523 2437.869873,792.228760 2434.957520,792.180237 
	C2263.717041,792.021729 2093.395752,792.007019 1923.074585,792.005676 
	C1921.414185,792.005676 1919.753784,792.182129 1918.093384,792.276245 
	C1915.100342,792.193970 1912.107178,792.039856 1909.114136,792.039673 
	C1756.886841,792.030518 1604.659668,792.048340 1452.432373,792.033691 
	C1242.912476,792.013611 1033.392578,791.971497 823.872681,791.934998 
	C789.232605,791.928955 754.592590,791.902893 719.026855,791.785095 
	C718.111877,602.527100 718.121094,413.370087 718.140686,224.213074 
	C718.141296,218.220184 718.248596,212.227280 718.369263,205.334045 
	C722.430725,204.387466 726.429016,204.300766 730.427307,204.300735 
	C1694.525635,204.294586 2658.623779,204.294434 3622.722168,204.296738 
	C3625.721191,204.296753 3628.719971,204.334930 3632.615234,204.461273 
	C3633.645508,207.224594 3633.897705,209.881927 3633.897705,212.539246 
	C3633.898926,404.986237 3633.880859,597.433228 3633.810059,790.796265 
z"/>
<path fill="#FEFFFF" opacity="1.000000" stroke="none" 
	d="
M1338.063232,2027.853271 
	C1337.601685,2024.267334 1336.736572,2020.681396 1336.735962,2017.095459 
	C1336.675415,1612.971191 1336.677856,1208.846924 1336.698486,804.722656 
	C1336.698608,801.480896 1336.992798,798.239075 1337.166138,794.658020 
	C1340.575439,794.455505 1343.177124,794.165771 1345.778687,794.165588 
	C1534.680908,794.153198 1723.583130,794.163574 1912.485352,794.177856 
	C1913.483521,794.177917 1914.481567,794.259766 1916.454590,794.367981 
	C1917.429443,794.432556 1917.539917,794.299561 1917.546143,795.208740 
	C1917.580444,799.116333 1917.633057,802.114746 1917.633057,805.113220 
	C1917.636108,1205.985107 1917.635620,1606.857056 1917.630981,2007.729004 
	C1917.630859,2014.392456 1917.575562,2021.055908 1917.523804,2027.562744 
	C1917.501587,2027.406250 1917.185547,2027.410767 1916.310547,2027.481201 
	C1909.776733,2027.607544 1904.117798,2027.712158 1898.458862,2027.712402 
	C1715.654907,2027.720825 1532.850830,2027.718262 1350.046875,2027.724487 
	C1346.052368,2027.724609 1342.057739,2027.808350 1338.063232,2027.853271 
z"/>
<path fill="#B5B5AD" opacity="1.000000" stroke="none" 
	d="
M823.258301,2027.690430 
	C822.216858,2023.949341 821.954285,2020.291870 821.954102,2016.634399 
	C821.936035,1613.145386 821.937012,1209.656250 821.944031,806.167236 
	C821.944092,802.836914 822.039490,799.506531 822.221680,795.284546 
	C826.016602,794.326294 829.680298,794.201721 833.343994,794.201538 
	C995.641785,794.191956 1157.939575,794.193420 1320.237427,794.193420 
	C1324.208374,794.193420 1328.179321,794.193359 1331.487061,794.193359 
	C1332.390137,795.045105 1332.649414,795.258850 1332.870117,795.506714 
	C1333.083740,795.746460 1333.403442,796.009521 1333.426270,796.283081 
	C1333.645264,798.926147 1333.971069,801.573608 1333.970581,804.219727 
	C1333.882568,1211.119873 1333.770020,1618.020142 1333.619751,2024.920288 
	C1333.619507,2025.485107 1333.037231,2026.049683 1332.089355,2027.774048 
	C1163.205078,2027.774048 993.682312,2027.774048 823.258301,2027.690430 
z"/>
<path fill="#447367" opacity="1.000000" stroke="none" 
	d="
M1917.921387,792.830444 
	C1919.753784,792.182129 1921.414185,792.005676 1923.074585,792.005676 
	C2093.395752,792.007019 2263.717041,792.021729 2435.019043,792.711731 
	C2436.064209,793.738525 2436.128662,794.089172 2436.136719,795.345093 
	C2436.051758,797.915466 2435.997070,799.580566 2435.997070,801.245605 
	C2435.993408,1207.005493 2435.992676,1612.765381 2436.004395,2018.525269 
	C2436.004395,2021.520020 2436.177979,2024.514893 2436.129883,2028.033447 
	C2435.938721,2028.915405 2435.888428,2029.273560 2435.838379,2029.631592 
	C2432.844727,2029.726074 2429.850830,2029.902710 2426.857178,2029.902832 
	C2257.902344,2029.909546 2088.947754,2029.901611 1918.880371,2029.198242 
	C1917.573730,2028.137695 1917.379639,2027.774170 1917.185547,2027.410767 
	C1917.185547,2027.410767 1917.501587,2027.406250 1918.208618,2027.626221 
	C1919.372803,2027.841064 1919.830078,2027.835938 1921.196533,2027.863525 
	C2088.104736,2027.903931 2254.103760,2027.913086 2420.102783,2027.916504 
	C2433.875000,2027.916870 2433.891357,2027.899048 2433.891357,2014.154785 
	C2433.894287,1612.157715 2433.894043,1210.160767 2433.893555,808.163696 
	C2433.893555,806.163696 2433.975830,804.159058 2433.869385,802.164612 
	C2433.502197,795.286926 2432.616211,794.465820 2425.408447,794.122681 
	C2424.410645,794.075134 2423.408691,794.109314 2422.408691,794.109497 
	C2255.076904,794.135498 2087.745117,794.161865 1919.693115,794.171021 
	C1918.495361,794.202454 1918.017578,794.251038 1917.539917,794.299561 
	C1917.539917,794.299561 1917.429443,794.432556 1917.342773,794.433716 
	C1917.420532,794.084778 1917.585083,793.734680 1917.921387,792.830444 
z"/>
<path fill="#7F7F7F" opacity="1.000000" stroke="none" 
	d="
M1916.310547,2027.481201 
	C1917.379639,2027.774170 1917.573730,2028.137695 1917.958252,2029.089355 
	C1916.490845,2029.785400 1914.833008,2029.987915 1913.175171,2029.987915 
	C1722.057129,2029.979980 1530.939087,2029.956909 1338.890137,2029.793457 
	C1337.959351,2029.652344 1337.988403,2028.751587 1338.025879,2028.302368 
	C1342.057739,2027.808350 1346.052368,2027.724609 1350.046875,2027.724487 
	C1532.850830,2027.718262 1715.654907,2027.720825 1898.458862,2027.712402 
	C1904.117798,2027.712158 1909.776733,2027.607544 1916.310547,2027.481201 
z"/>
<path fill="#00BB86" opacity="1.000000" stroke="none" 
	d="
M3531.554932,794.176453 
	C3531.725586,798.165405 3532.045410,802.154419 3532.045654,806.143372 
	C3532.068359,1209.083130 3532.068115,1612.022949 3532.058105,2014.962769 
	C3532.057861,2018.626221 3531.915283,2022.289795 3530.823975,2026.882202 
	C3363.810547,2027.820923 3197.812744,2027.831665 3031.814697,2027.838379 
	C3018.152832,2027.838867 3018.130371,2027.825317 3018.130127,2014.093506 
	C3018.125488,1611.765259 3018.125732,1209.437134 3018.125977,807.108948 
	C3018.125977,805.109009 3018.194092,803.107361 3018.132324,801.109558 
	C3017.994873,796.655762 3019.899658,794.157837 3024.562012,794.175415 
	C3026.228516,794.181763 3027.895020,794.142883 3029.561523,794.142944 
	C3196.892578,794.152954 3364.223877,794.164795 3531.554932,794.176453 
z"/>
<path fill="#447367" opacity="1.000000" stroke="none" 
	d="
M3532.099609,794.122070 
	C3364.223877,794.164795 3196.892578,794.152954 3029.561523,794.142944 
	C3027.895020,794.142883 3026.228516,794.181763 3024.562012,794.175415 
	C3019.899658,794.157837 3017.994873,796.655762 3018.132324,801.109558 
	C3018.194092,803.107361 3018.125977,805.109009 3018.125977,807.108948 
	C3018.125732,1209.437134 3018.125488,1611.765259 3018.130127,2014.093506 
	C3018.130371,2027.825317 3018.152832,2027.838867 3031.814697,2027.838379 
	C3197.812744,2027.831665 3363.810547,2027.820923 3530.707031,2027.799683 
	C3531.956055,2027.826172 3532.306152,2027.864014 3533.182617,2027.875610 
	C3533.708740,2027.849365 3533.873779,2028.768311 3533.878662,2029.235229 
	C3532.221680,2029.780762 3530.559570,2029.928467 3528.897705,2029.928467 
	C3358.591309,2029.926392 3188.284912,2029.913208 3016.978516,2029.234009 
	C3015.883301,2028.216431 3015.788574,2027.865601 3015.777832,2026.614258 
	C3015.900879,2022.716553 3015.973877,2019.719116 3015.973877,2016.721802 
	C3015.979248,1612.955444 3015.979248,1209.188965 3015.970703,805.422546 
	C3015.970703,801.759583 3015.848633,798.096619 3015.883301,793.907593 
	C3016.024658,793.027100 3016.065674,792.672546 3016.106934,792.317993 
	C3018.765381,792.203430 3021.424072,791.988708 3024.082520,791.988647 
	C3193.410645,791.982056 3362.738525,791.993042 3532.986328,792.138733 
	C3533.906250,792.275024 3533.891602,793.206848 3533.814941,793.667847 
	C3533.373779,794.108459 3533.009277,794.088074 3532.099609,794.122070 
z"/>
<path fill="#7F7F7F" opacity="1.000000" stroke="none" 
	d="
M3015.693604,2027.514771 
	C3015.788574,2027.865601 3015.883301,2028.216431 3016.057617,2029.106445 
	C3013.480469,2029.764526 3010.824219,2029.986694 3008.167725,2029.986938 
	C2819.015137,2030.001465 2629.862793,2029.998535 2440.710205,2029.994141 
	C2439.711426,2029.994141 2438.712891,2029.953613 2436.776367,2029.781738 
	C2435.888428,2029.273560 2435.938721,2028.915405 2437.046387,2028.111084 
	C2628.969971,2027.678711 2819.836670,2027.693115 3010.703125,2027.698608 
	C3012.366699,2027.698608 3014.030029,2027.578613 3015.693604,2027.514771 
z"/>
<path fill="#72726F" opacity="1.000000" stroke="none" 
	d="
M3015.169678,792.197327 
	C3016.065674,792.672546 3016.024658,793.027100 3014.966309,793.798096 
	C2823.024658,794.194336 2632.100098,794.173218 2441.175781,794.165466 
	C2439.514893,794.165405 2437.853760,794.344421 2436.192871,794.439758 
	C2436.128662,794.089172 2436.064209,793.738525 2435.938477,792.856323 
	C2437.869873,792.228760 2439.862549,792.048523 2441.855225,792.048523 
	C2632.647705,792.049072 2823.439941,792.063354 3015.169678,792.197327 
z"/>
<path fill="#285B5B" opacity="1.000000" stroke="none" 
	d="
M1920.287354,2027.830688 
	C1919.830078,2027.835938 1919.372803,2027.841064 1918.230835,2027.782715 
	C1917.575562,2021.055908 1917.630859,2014.392456 1917.630981,2007.729004 
	C1917.635620,1606.857056 1917.636108,1205.985107 1917.633057,805.113220 
	C1917.633057,802.114746 1917.580444,799.116333 1917.546143,795.208740 
	C1918.017578,794.251038 1918.495361,794.202454 1919.565430,795.082275 
	C1920.106689,799.342102 1920.011108,802.673523 1920.011108,806.005005 
	C1920.003784,1209.283691 1920.002686,1612.562500 1920.014771,2015.841187 
	C1920.014893,2019.837646 1920.192627,2023.834229 1920.287354,2027.830688 
z"/>
<path fill="#FFFFFF" opacity="1.000000" stroke="none" 
	d="
M2436.136719,795.345093 
	C2437.853760,794.344421 2439.514893,794.165405 2441.175781,794.165466 
	C2632.100098,794.173218 2823.024658,794.194336 3014.866211,794.324158 
	C3015.848633,798.096619 3015.970703,801.759583 3015.970703,805.422546 
	C3015.979248,1209.188965 3015.979248,1612.955444 3015.973877,2016.721802 
	C3015.973877,2019.719116 3015.900879,2022.716553 3015.777832,2026.614258 
	C3014.030029,2027.578613 3012.366699,2027.698608 3010.703125,2027.698608 
	C2819.836670,2027.693115 2628.969971,2027.678711 2437.187012,2027.587158 
	C2436.177979,2024.514893 2436.004395,2021.520020 2436.004395,2018.525269 
	C2435.992676,1612.765381 2435.993408,1207.005493 2435.997070,801.245605 
	C2435.997070,799.580566 2436.051758,797.915466 2436.136719,795.345093 
z"/>
<path fill="#309A9A" opacity="1.000000" stroke="none" 
	d="
M1921.196533,2027.863525 
	C1920.192627,2023.834229 1920.014893,2019.837646 1920.014771,2015.841187 
	C1920.002686,1612.562500 1920.003784,1209.283691 1920.011108,806.005005 
	C1920.011108,802.673523 1920.106689,799.342102 1920.285522,795.099426 
	C2087.745117,794.161865 2255.076904,794.135498 2422.408691,794.109497 
	C2423.408691,794.109314 2424.410645,794.075134 2425.408447,794.122681 
	C2432.616211,794.465820 2433.502197,795.286926 2433.869385,802.164612 
	C2433.975830,804.159058 2433.893555,806.163696 2433.893555,808.163696 
	C2433.894043,1210.160767 2433.894287,1612.157715 2433.891357,2014.154785 
	C2433.891357,2027.899048 2433.875000,2027.916870 2420.102783,2027.916504 
	C2254.103760,2027.913086 2088.104736,2027.903931 1921.196533,2027.863525 
z"/>
</svg>